<?xml version="1.0" encoding="UTF-8" standalone="no"?>
<!-- Created with Inkscape (http://www.inkscape.org/) -->

<svg
   xmlns:dc="http://purl.org/dc/elements/1.1/"
   xmlns:cc="http://creativecommons.org/ns#"
   xmlns:rdf="http://www.w3.org/1999/02/22-rdf-syntax-ns#"
   xmlns:svg="http://www.w3.org/2000/svg"
   xmlns="http://www.w3.org/2000/svg"
   xmlns:sodipodi="http://sodipodi.sourceforge.net/DTD/sodipodi-0.dtd"
   xmlns:inkscape="http://www.inkscape.org/namespaces/inkscape"
   width="120"
   height="380"
   viewBox="0 0 31.750001 100.54167"
   version="1.1"
   id="svg8"
   inkscape:version="0.92.4 (5da689c313, 2019-01-14)"
   sodipodi:docname="PolyLogic.svg">
  <defs
     id="defs2" />
  <sodipodi:namedview
     id="base"
     pagecolor="#ffffff"
     bordercolor="#666666"
     borderopacity="1.0"
     inkscape:pageopacity="0.0"
     inkscape:pageshadow="2"
     inkscape:zoom="3.2229183"
     inkscape:cx="127.14286"
     inkscape:cy="334.68283"
     inkscape:document-units="mm"
     inkscape:current-layer="layer1"
     showgrid="true"
     units="px"
     inkscape:snap-bbox="true"
     inkscape:snap-page="true"
     inkscape:bbox-nodes="true"
     inkscape:snap-bbox-edge-midpoints="true"
     inkscape:window-width="1920"
     inkscape:window-height="1017"
     inkscape:window-x="-8"
     inkscape:window-y="-8"
     inkscape:window-maximized="1">
    <inkscape:grid
       type="xygrid"
       id="grid116" />
  </sodipodi:namedview>
  <metadata
     id="metadata5">
    <rdf:RDF>
      <cc:Work
         rdf:about="">
        <dc:format>image/svg+xml</dc:format>
        <dc:type
           rdf:resource="http://purl.org/dc/dcmitype/StillImage" />
        <dc:title></dc:title>
      </cc:Work>
    </rdf:RDF>
  </metadata>
  <g
     inkscape:groupmode="layer"
     id="layer3"
     inkscape:label="Panel"
     sodipodi:insensitive="true">
    <rect
       id="rect3855"
       width="31.75"
       height="100.54167"
       x="-3.3306691e-16"
       y="-7.0117189e-06"
       style="fill:#000000;stroke-width:0.46816438" />
  </g>
  <g
     inkscape:label="Layer 1"
     inkscape:groupmode="layer"
     id="layer1"
     transform="translate(0,-196.45832)"
     style="display:inline">
    <rect
       style="fill:#333333;stroke-width:0.12260702"
       id="rect1985"
       width="10.583333"
       height="14.022923"
       x="18.520828"
       y="220.27081" />
    <rect
       y="220.27081"
       x="2.6458333"
       height="14.022923"
       width="10.583333"
       id="rect1987"
       style="fill:#333333;stroke-width:0.12260702" />
    <rect
       y="236.93958"
       x="18.520828"
       height="14.022911"
       width="10.583333"
       id="rect1981"
       style="fill:#333333;stroke-width:0.12260696" />
    <rect
       style="fill:#333333;stroke-width:0.12260696"
       id="rect1983"
       width="10.583333"
       height="14.022912"
       x="2.6458335"
       y="236.93958" />
    <rect
       style="fill:#333333;stroke-width:0.12260696"
       id="rect1979"
       width="10.583333"
       height="14.022915"
       x="18.520828"
       y="253.60832" />
    <g
       aria-label="/^M^\"
       style="font-style:normal;font-variant:normal;font-weight:normal;font-stretch:normal;font-size:2.82222223px;line-height:1.25;font-family:'Copperplate Gothic Light';-inkscape-font-specification:'Copperplate Gothic Light, ';letter-spacing:0px;word-spacing:0px;fill:#ffffff;fill-opacity:1;stroke:#ffffff;stroke-width:0.2;stroke-miterlimit:4;stroke-dasharray:none;stroke-opacity:1"
       id="text956"
       transform="translate(-9.481569,3.7456238)">
      <path
         d="m 21.203855,291.40545 v 0.0386 h -0.434082 v -0.0386 q 0.09509,-0.006 0.224621,-0.17088 l 1.094162,-1.4621 q 0.07441,-0.1006 0.07441,-0.12402 0,-0.0372 -0.06615,-0.0482 v -0.0372 h 0.423058 v 0.0372 q -0.09508,0.006 -0.22462,0.17087 l -1.08176,1.46348 q -0.07579,0.10197 -0.07579,0.12402 0,0.0358 0.06615,0.0469 z"
         style="font-style:normal;font-variant:normal;font-weight:normal;font-stretch:normal;font-size:2.82222223px;line-height:1.25;font-family:'Copperplate Gothic Light';-inkscape-font-specification:'Copperplate Gothic Light, ';stroke:#ffffff;stroke-width:0.2;stroke-miterlimit:4;stroke-dasharray:none;stroke-opacity:1"
         id="path958"
         inkscape:connector-curvature="0" />
      <path
         d="M 22.940183,290.3857 H 22.73899 l 0.493338,-0.8282 h 0.243912 l 0.493338,0.8282 h -0.20395 l -0.413411,-0.68075 z"
         style="font-style:normal;font-variant:normal;font-weight:normal;font-stretch:normal;font-size:2.82222223px;line-height:1.25;font-family:'Copperplate Gothic Light';-inkscape-font-specification:'Copperplate Gothic Light, ';stroke:#ffffff;stroke-width:0.2;stroke-miterlimit:4;stroke-dasharray:none;stroke-opacity:1"
         id="path960"
         inkscape:connector-curvature="0" />
      <path
         d="m 25.342104,291.44403 -0.789616,-1.58061 v 1.418 q 0,0.0565 0.01791,0.0813 0.01791,0.0234 0.07028,0.0372 v 0.0441 h -0.373449 v -0.0441 q 0.05237,-0.0138 0.07028,-0.0372 0.01792,-0.0234 0.01792,-0.0813 v -1.5558 q 0,-0.0579 -0.01792,-0.0813 -0.01791,-0.0248 -0.07028,-0.0372 v -0.0441 h 0.487826 v 0.0441 q -0.06752,0.0234 -0.06752,0.0579 0,0.0165 0.04547,0.10611 l 0.62563,1.24161 0.628385,-1.25263 q 0.03307,-0.0661 0.03307,-0.0937 0,-0.0358 -0.06752,-0.0593 v -0.0441 h 0.49196 v 0.0441 q -0.05237,0.0138 -0.07028,0.0372 -0.01792,0.0234 -0.01792,0.0813 v 1.5558 q 0,0.0565 0.01792,0.0813 0.01791,0.0234 0.07028,0.0372 v 0.0441 h -0.392741 v -0.0441 q 0.05374,-0.0138 0.07028,-0.0372 0.01791,-0.0234 0.01791,-0.0813 v -1.418 z"
         style="font-style:normal;font-variant:normal;font-weight:normal;font-stretch:normal;font-size:2.82222223px;line-height:1.25;font-family:'Copperplate Gothic Light';-inkscape-font-specification:'Copperplate Gothic Light, ';stroke:#ffffff;stroke-width:0.2;stroke-miterlimit:4;stroke-dasharray:none;stroke-opacity:1"
         id="path962"
         inkscape:connector-curvature="0" />
      <path
         d="m 26.942006,290.3857 h -0.201193 l 0.493338,-0.8282 h 0.243912 l 0.493338,0.8282 h -0.20395 l -0.413411,-0.68075 z"
         style="font-style:normal;font-variant:normal;font-weight:normal;font-stretch:normal;font-size:2.82222223px;line-height:1.25;font-family:'Copperplate Gothic Light';-inkscape-font-specification:'Copperplate Gothic Light, ';stroke:#ffffff;stroke-width:0.2;stroke-miterlimit:4;stroke-dasharray:none;stroke-opacity:1"
         id="path964"
         inkscape:connector-curvature="0" />
      <path
         d="m 28.617701,289.56301 v 0.0372 q -0.06615,0.011 -0.06615,0.0482 0,0.0234 0.07441,0.12402 l 1.092784,1.4621 q 0.129536,0.16536 0.22462,0.17088 v 0.0386 h -0.434082 v -0.0386 q 0.06615,-0.011 0.06615,-0.0469 0,-0.0207 -0.07579,-0.12402 l -1.080382,-1.46348 q -0.129535,-0.16536 -0.22462,-0.17087 v -0.0372 z"
         style="font-style:normal;font-variant:normal;font-weight:normal;font-stretch:normal;font-size:2.82222223px;line-height:1.25;font-family:'Copperplate Gothic Light';-inkscape-font-specification:'Copperplate Gothic Light, ';stroke:#ffffff;stroke-width:0.2;stroke-miterlimit:4;stroke-dasharray:none;stroke-opacity:1"
         id="path966"
         inkscape:connector-curvature="0" />
    </g>
    <g
       aria-label="INPUT"
       style="font-style:normal;font-variant:normal;font-weight:normal;font-stretch:normal;font-size:2.82222223px;line-height:1.25;font-family:'Yu Gothic UI';-inkscape-font-specification:'Yu Gothic UI';letter-spacing:0px;word-spacing:0px;fill:#ffffff;fill-opacity:1;stroke:none;stroke-width:0.26458332"
       id="text977"
       transform="translate(-6.3666667e-7,-40.755405)">
      <path
         d="M 4.3931857,249.99513 H 4.1616753 v -1.9761 h 0.2315104 z"
         style="stroke-width:0.26458332"
         id="path1020"
         inkscape:connector-curvature="0" />
      <path
         d="M 6.5043402,249.99513 H 6.2204644 l -1.0169922,-1.5751 q -0.038585,-0.0592 -0.06339,-0.12402 h -0.00827 q 0.011024,0.0634 0.011024,0.27147 v 1.42765 H 4.9113281 v -1.9761 h 0.3004123 l 0.9894314,1.55029 q 0.062012,0.0965 0.079926,0.13229 h 0.00551 q -0.01378,-0.0854 -0.01378,-0.29077 v -1.39181 h 0.2315104 z"
         style="stroke-width:0.26458332"
         id="path1022"
         inkscape:connector-curvature="0" />
      <path
         d="m 7.2539931,249.24824 v 0.74689 H 7.0224827 v -1.9761 h 0.5429471 q 0.3169487,0 0.4905816,0.15434 0.1750108,0.15434 0.1750108,0.43546 0,0.28112 -0.1943034,0.46026 -0.1929253,0.17915 -0.5222765,0.17915 z m 0,-1.01975 v 0.81028 h 0.2425347 q 0.2397787,0 0.3651802,-0.10886 0.1267795,-0.11024 0.1267795,-0.31006 0,-0.39136 -0.4630209,-0.39136 z"
         style="stroke-width:0.26458332"
         id="path1024"
         inkscape:connector-curvature="0" />
      <path
         d="m 10.050033,249.19587 q 0,0.83234 -0.7510312,0.83234 -0.7193359,0 -0.7193359,-0.80064 v -1.20854 h 0.2315104 v 1.19338 q 0,0.60771 0.5126302,0.60771 0.4947157,0 0.4947157,-0.58704 v -1.21405 h 0.2315108 z"
         style="stroke-width:0.26458332"
         id="path1026"
         inkscape:connector-curvature="0" />
      <path
         d="m 11.713325,248.22849 h -0.570508 v 1.76664 h -0.231511 v -1.76664 h -0.569129 v -0.20946 h 1.371148 z"
         style="stroke-width:0.26458332"
         id="path1028"
         inkscape:connector-curvature="0" />
    </g>
    <text
       xml:space="preserve"
       style="font-style:normal;font-variant:normal;font-weight:normal;font-stretch:normal;font-size:2.82222223px;line-height:1.25;font-family:'Yu Gothic UI';-inkscape-font-specification:'Yu Gothic UI';letter-spacing:0px;word-spacing:0px;fill:#ffffff;fill-opacity:1;stroke:none;stroke-width:0.26458332"
       x="18.520834"
       y="218.94791"
       id="text912"><tspan
         sodipodi:role="line"
         id="tspan910"
         x="18.520834"
         y="221.49004"
         style="font-style:normal;font-variant:normal;font-weight:normal;font-stretch:normal;font-family:'Yu Gothic UI';-inkscape-font-specification:'Yu Gothic UI';stroke-width:0.26458332" /></text>
    <rect
       y="253.60832"
       x="2.6458335"
       height="14.022913"
       width="10.583333"
       id="rect931"
       style="fill:#333333;stroke-width:0.12260696" />
    <g
       aria-label="AND"
       style="font-style:normal;font-variant:normal;font-weight:normal;font-stretch:normal;font-size:2.82222223px;line-height:1.25;font-family:'Yu Gothic UI';-inkscape-font-specification:'Yu Gothic UI';letter-spacing:0px;word-spacing:0px;display:inline;fill:#ffffff;fill-opacity:1;stroke:none;stroke-width:0.26458332"
       id="text1029"
       transform="translate(0,-19.840389)">
      <path
         d="M 6.821293,242.59854 H 6.5649779 L 6.3555161,242.04457 H 5.5176689 l -0.1970595,0.55397 H 5.0629163 l 0.757921,-1.97611 H 6.0606159 Z M 6.279724,241.83649 5.9696654,240.9945 q -0.015158,-0.0413 -0.030317,-0.13229 h -0.00551 q -0.01378,0.0841 -0.031695,0.13229 l -0.3073026,0.84199 z"
         style="stroke-width:0.26458332"
         id="path2108"
         inkscape:connector-curvature="0" />
      <path
         d="M 8.7036932,242.59854 H 8.4198173 l -1.0169922,-1.5751 q -0.038585,-0.0592 -0.06339,-0.12402 h -0.00827 q 0.011024,0.0634 0.011024,0.27147 v 1.42765 H 7.110681 v -1.97611 h 0.3004123 l 0.9894315,1.5503 q 0.062012,0.0965 0.079926,0.13229 h 0.00551 q -0.01378,-0.0854 -0.01378,-0.29077 v -1.39182 h 0.2315105 z"
         style="stroke-width:0.26458332"
         id="path2110"
         inkscape:connector-curvature="0" />
      <path
         d="m 9.2218354,242.59854 v -1.97611 h 0.5457032 q 1.0445534,0 1.0445534,0.96325 0,0.45751 -0.290767,0.73588 -0.289388,0.27698 -0.775835,0.27698 z m 0.2315105,-1.76664 v 1.55718 H 9.748246 q 0.388607,0 0.604959,-0.20808 0.216352,-0.20809 0.216352,-0.5898 0,-0.7593 -0.8075306,-0.7593 z"
         style="stroke-width:0.26458332"
         id="path2112"
         inkscape:connector-curvature="0" />
    </g>
    <g
       aria-label="OR"
       style="font-style:normal;font-variant:normal;font-weight:normal;font-stretch:normal;font-size:2.82222223px;line-height:1.25;font-family:'Yu Gothic UI';-inkscape-font-specification:'Yu Gothic UI';letter-spacing:0px;word-spacing:0px;display:inline;fill:#ffffff;fill-opacity:1;stroke:none;stroke-width:0.26458332"
       id="text1033"
       transform="translate(0,-19.840389)">
      <path
         d="m 7.0266218,259.29476 q -0.4203016,0 -0.6738607,-0.27698 -0.252181,-0.27699 -0.252181,-0.72072 0,-0.4768 0.2576932,-0.76068 0.2576931,-0.28387 0.7014214,-0.28387 0.4092774,0 0.6587023,0.27561 0.2508029,0.2756 0.2508029,0.72071 0,0.48369 -0.2563151,0.76481 -0.2563151,0.28112 -0.686263,0.28112 z m 0.016536,-1.83279 q -0.3114367,0 -0.5057401,0.22462 -0.1943033,0.22462 -0.1943033,0.5898 0,0.36518 0.1887912,0.58842 0.1901693,0.22187 0.4947157,0.22187 0.325217,0 0.5126302,-0.21222 0.1874132,-0.21222 0.1874132,-0.59393 0,-0.39137 -0.181901,-0.60496 -0.1819011,-0.2136 -0.5016059,-0.2136 z"
         style="stroke-width:0.26458332"
         id="path2115"
         inkscape:connector-curvature="0" />
      <path
         d="M 9.77443,259.26169 H 9.4988224 l -0.3307292,-0.55397 q -0.045475,-0.0772 -0.088194,-0.13092 -0.042719,-0.0551 -0.088195,-0.0896 -0.044097,-0.0344 -0.096463,-0.0496 -0.050987,-0.0165 -0.1157553,-0.0165 H 8.5893172 v 0.84061 H 8.3578068 v -1.97611 h 0.5898003 q 0.1295356,0 0.2384006,0.0331 0.1102431,0.0317 0.1901693,0.0978 0.081304,0.0661 0.1267795,0.16536 0.045475,0.0978 0.045475,0.23013 0,0.10335 -0.031695,0.19017 -0.030317,0.0854 -0.088195,0.15296 -0.056499,0.0675 -0.1378038,0.11576 -0.079926,0.0469 -0.180523,0.073 v 0.006 q 0.049609,0.0221 0.085438,0.051 0.037207,0.0276 0.07028,0.0661 0.033073,0.0386 0.064768,0.0882 0.033073,0.0482 0.073036,0.113 z m -1.1851128,-1.76665 v 0.71658 h 0.3141927 q 0.086816,0 0.1598524,-0.0262 0.074414,-0.0262 0.1281576,-0.0744 0.053744,-0.0496 0.08406,-0.11989 0.030317,-0.0717 0.030317,-0.15986 0,-0.15847 -0.1033528,-0.24666 -0.1019749,-0.0896 -0.2962782,-0.0896 z"
         style="stroke-width:0.26458332"
         id="path2117"
         inkscape:connector-curvature="0" />
    </g>
    <g
       aria-label="XOR"
       style="font-style:normal;font-variant:normal;font-weight:normal;font-stretch:normal;font-size:2.82222223px;line-height:1.25;font-family:'Yu Gothic UI';-inkscape-font-specification:'Yu Gothic UI';letter-spacing:0px;word-spacing:0px;display:inline;fill:#ffffff;fill-opacity:1;stroke:none;stroke-width:0.26458332"
       id="text1037"
       transform="translate(0,-19.844017)">
      <path
         d="M 6.8309391,275.91544 H 6.5484413 l -0.4547526,-0.75655 q -0.020671,-0.0344 -0.045475,-0.0978 h -0.00551 q -0.01378,0.0317 -0.046853,0.0978 l -0.468533,0.75655 H 5.2434391 l 0.6614584,-0.99357 -0.6090929,-0.98254 h 0.2838758 l 0.4037652,0.69453 q 0.039963,0.0689 0.07028,0.1378 h 0.00551 q 0.044097,-0.091 0.07717,-0.14331 l 0.4203016,-0.68902 h 0.2659614 l -0.6214952,0.97978 z"
         style="stroke-width:0.26458332"
         id="path2136"
         inkscape:connector-curvature="0" />
      <path
         d="m 7.8837603,275.94851 q -0.4203016,0 -0.6738607,-0.27699 -0.252181,-0.27698 -0.252181,-0.72071 0,-0.4768 0.2576932,-0.76068 0.2576931,-0.28387 0.7014214,-0.28387 0.4092774,0 0.6587023,0.2756 0.2508029,0.27561 0.2508029,0.72072 0,0.48369 -0.2563151,0.76481 -0.2563151,0.28112 -0.686263,0.28112 z m 0.016536,-1.83279 q -0.3114367,0 -0.50574,0.22462 -0.1943034,0.22462 -0.1943034,0.5898 0,0.36518 0.1887912,0.58842 0.1901693,0.22186 0.4947157,0.22186 0.325217,0 0.5126302,-0.21221 0.1874132,-0.21222 0.1874132,-0.59394 0,-0.39136 -0.181901,-0.60496 -0.1819011,-0.21359 -0.5016059,-0.21359 z"
         style="stroke-width:0.26458332"
         id="path2138"
         inkscape:connector-curvature="0" />
      <path
         d="m 10.631568,275.91544 h -0.275607 l -0.330729,-0.55398 q -0.045476,-0.0772 -0.088195,-0.13091 -0.042719,-0.0551 -0.088195,-0.0896 -0.044097,-0.0344 -0.096463,-0.0496 -0.050987,-0.0165 -0.1157552,-0.0165 H 9.4464556 v 0.84061 H 9.2149451 v -1.97611 h 0.5898004 q 0.1295356,0 0.2384005,0.0331 0.110243,0.0317 0.190169,0.0978 0.08131,0.0661 0.12678,0.16537 0.04548,0.0978 0.04548,0.23013 0,0.10335 -0.0317,0.19017 -0.03032,0.0854 -0.08819,0.15296 -0.0565,0.0675 -0.137804,0.11576 -0.07993,0.0469 -0.180523,0.073 v 0.006 q 0.049609,0.022 0.085438,0.051 0.03721,0.0276 0.07028,0.0661 0.03307,0.0386 0.06477,0.0882 0.03307,0.0482 0.07304,0.113 z m -1.1851124,-1.76665 v 0.71658 h 0.3141927 q 0.086816,0 0.1598524,-0.0262 0.074414,-0.0262 0.1281573,-0.0744 0.05374,-0.0496 0.08406,-0.11989 0.03032,-0.0716 0.03032,-0.15985 0,-0.15847 -0.103352,-0.24667 -0.1019753,-0.0896 -0.2962786,-0.0896 z"
         style="stroke-width:0.26458332"
         id="path2140"
         inkscape:connector-curvature="0" />
    </g>
    <g
       aria-label="NAND"
       style="font-style:normal;font-variant:normal;font-weight:normal;font-stretch:normal;font-size:2.82222223px;line-height:1.25;font-family:'Yu Gothic UI';-inkscape-font-specification:'Yu Gothic UI';letter-spacing:0px;word-spacing:0px;fill:#ffffff;fill-opacity:1;stroke:none;stroke-width:0.26458332"
       id="text1967"
       transform="translate(0,-19.840389)">
      <path
         d="M 21.589726,242.59854 H 21.30585 l -1.016992,-1.5751 q -0.03859,-0.0592 -0.06339,-0.12402 h -0.0083 q 0.01102,0.0634 0.01102,0.27147 v 1.42765 h -0.231511 v -1.97611 h 0.300413 l 0.989431,1.5503 q 0.06201,0.0965 0.07993,0.13229 h 0.0055 q -0.01378,-0.0854 -0.01378,-0.29077 v -1.39182 h 0.231511 z"
         style="stroke-width:0.26458332"
         id="path2099"
         inkscape:connector-curvature="0" />
      <path
         d="m 23.63749,242.59854 h -0.256315 l -0.209461,-0.55397 h -0.837848 l -0.197059,0.55397 h -0.257693 l 0.757921,-1.97611 h 0.239778 z m -0.541569,-0.76205 -0.310058,-0.84199 q -0.01516,-0.0413 -0.03032,-0.13229 h -0.0055 q -0.01378,0.0841 -0.03169,0.13229 l -0.307303,0.84199 z"
         style="stroke-width:0.26458332"
         id="path2101"
         inkscape:connector-curvature="0" />
      <path
         d="m 25.51989,242.59854 h -0.283875 l -1.016993,-1.5751 q -0.03858,-0.0592 -0.06339,-0.12402 h -0.0083 q 0.01103,0.0634 0.01103,0.27147 v 1.42765 h -0.231511 v -1.97611 h 0.300413 l 0.989431,1.5503 q 0.06201,0.0965 0.07993,0.13229 h 0.0055 q -0.01378,-0.0854 -0.01378,-0.29077 v -1.39182 h 0.23151 z"
         style="stroke-width:0.26458332"
         id="path2103"
         inkscape:connector-curvature="0" />
      <path
         d="m 26.038033,242.59854 v -1.97611 h 0.545703 q 1.044553,0 1.044553,0.96325 0,0.45751 -0.290766,0.73588 -0.289388,0.27698 -0.775836,0.27698 z m 0.23151,-1.76664 v 1.55718 h 0.2949 q 0.388607,0 0.604959,-0.20808 0.216352,-0.20809 0.216352,-0.5898 0,-0.7593 -0.80753,-0.7593 z"
         style="stroke-width:0.26458332"
         id="path2105"
         inkscape:connector-curvature="0" />
    </g>
    <g
       aria-label="NOR"
       style="font-style:normal;font-variant:normal;font-weight:normal;font-stretch:normal;font-size:2.82222223px;line-height:1.25;font-family:'Yu Gothic UI';-inkscape-font-specification:'Yu Gothic UI';letter-spacing:0px;word-spacing:0px;fill:#ffffff;fill-opacity:1;stroke:none;stroke-width:0.26458332"
       id="text1971"
       transform="translate(0,-19.840389)">
      <path
         d="m 22.57778,259.26169 h -0.283876 l -1.016992,-1.5751 q -0.03858,-0.0593 -0.06339,-0.12402 h -0.0083 q 0.01102,0.0634 0.01102,0.27147 v 1.42765 h -0.23151 v -1.97611 h 0.300412 l 0.989432,1.55029 q 0.06201,0.0965 0.07993,0.1323 h 0.0055 q -0.01378,-0.0854 -0.01378,-0.29077 v -1.39182 h 0.231511 z"
         style="stroke-width:0.26458332"
         id="path2120"
         inkscape:connector-curvature="0" />
      <path
         d="m 23.892428,259.29476 q -0.420301,0 -0.67386,-0.27698 -0.252181,-0.27699 -0.252181,-0.72072 0,-0.4768 0.257693,-0.76068 0.257693,-0.28387 0.701421,-0.28387 0.409278,0 0.658703,0.27561 0.250803,0.2756 0.250803,0.72071 0,0.48369 -0.256316,0.76481 -0.256315,0.28112 -0.686263,0.28112 z m 0.01654,-1.83279 q -0.311437,0 -0.50574,0.22462 -0.194304,0.22462 -0.194304,0.5898 0,0.36518 0.188792,0.58842 0.190169,0.22187 0.494715,0.22187 0.325217,0 0.512631,-0.21222 0.187413,-0.21222 0.187413,-0.59393 0,-0.39137 -0.181901,-0.60496 -0.181901,-0.2136 -0.501606,-0.2136 z"
         style="stroke-width:0.26458332"
         id="path2122"
         inkscape:connector-curvature="0" />
      <path
         d="M 26.640237,259.26169 H 26.364629 L 26.0339,258.70772 q -0.04547,-0.0772 -0.08819,-0.13092 -0.04272,-0.0551 -0.0882,-0.0896 -0.0441,-0.0344 -0.09646,-0.0496 -0.05099,-0.0165 -0.115755,-0.0165 h -0.190169 v 0.84061 h -0.23151 v -1.97611 h 0.5898 q 0.129536,0 0.238401,0.0331 0.110243,0.0317 0.190169,0.0978 0.0813,0.0661 0.126779,0.16536 0.04548,0.0978 0.04548,0.23013 0,0.10335 -0.03169,0.19017 -0.03032,0.0854 -0.08819,0.15296 -0.0565,0.0675 -0.137804,0.11576 -0.07993,0.0469 -0.180523,0.073 v 0.006 q 0.04961,0.0221 0.08544,0.051 0.03721,0.0276 0.07028,0.0661 0.03307,0.0386 0.06477,0.0882 0.03307,0.0482 0.07304,0.113 z m -1.185113,-1.76665 v 0.71658 h 0.314193 q 0.08682,0 0.159852,-0.0262 0.07441,-0.0262 0.128158,-0.0744 0.05374,-0.0496 0.08406,-0.11989 0.03032,-0.0717 0.03032,-0.15986 0,-0.15847 -0.103353,-0.24666 -0.101975,-0.0896 -0.296278,-0.0896 z"
         style="stroke-width:0.26458332"
         id="path2124"
         inkscape:connector-curvature="0" />
    </g>
    <g
       aria-label="XNOR"
       style="font-style:normal;font-variant:normal;font-weight:normal;font-stretch:normal;font-size:2.82222223px;line-height:1.25;font-family:'Yu Gothic UI';-inkscape-font-specification:'Yu Gothic UI';letter-spacing:0px;word-spacing:0px;fill:#ffffff;fill-opacity:1;stroke:none;stroke-width:0.26458332"
       id="text1975"
       transform="translate(0,-19.844017)">
      <path
         d="m 21.628309,275.91544 h -0.282498 l -0.454752,-0.75655 q -0.02067,-0.0344 -0.04548,-0.0978 h -0.0055 q -0.01378,0.0317 -0.04685,0.0978 l -0.468533,0.75655 H 20.04082 l 0.661458,-0.99357 -0.609092,-0.98254 h 0.283875 l 0.403766,0.69453 q 0.03996,0.0689 0.07028,0.1378 h 0.0055 q 0.0441,-0.091 0.07717,-0.14331 l 0.420301,-0.68902 h 0.265962 l -0.621495,0.97978 z"
         style="stroke-width:0.26458332"
         id="path2127"
         inkscape:connector-curvature="0" />
      <path
         d="m 23.521734,275.91544 h -0.283876 l -1.016993,-1.5751 q -0.03859,-0.0593 -0.06339,-0.12403 h -0.0083 q 0.01103,0.0634 0.01103,0.27148 v 1.42765 h -0.231511 v -1.97611 h 0.300413 l 0.989431,1.55029 q 0.06201,0.0965 0.07993,0.13229 h 0.0055 q -0.01378,-0.0854 -0.01378,-0.29076 v -1.39182 h 0.231511 z"
         style="stroke-width:0.26458332"
         id="path2129"
         inkscape:connector-curvature="0" />
      <path
         d="m 24.836382,275.94851 q -0.420302,0 -0.673861,-0.27699 -0.252181,-0.27698 -0.252181,-0.72071 0,-0.4768 0.257693,-0.76068 0.257694,-0.28387 0.701422,-0.28387 0.409277,0 0.658702,0.2756 0.250803,0.27561 0.250803,0.72072 0,0.48369 -0.256315,0.76481 -0.256315,0.28112 -0.686263,0.28112 z m 0.01654,-1.83279 q -0.311436,0 -0.50574,0.22462 -0.194303,0.22462 -0.194303,0.5898 0,0.36518 0.188791,0.58842 0.190169,0.22186 0.494716,0.22186 0.325217,0 0.51263,-0.21221 0.187413,-0.21222 0.187413,-0.59394 0,-0.39136 -0.181901,-0.60496 -0.181901,-0.21359 -0.501606,-0.21359 z"
         style="stroke-width:0.26458332"
         id="path2131"
         inkscape:connector-curvature="0" />
      <path
         d="m 27.58419,275.91544 h -0.275607 l -0.330729,-0.55398 q -0.04548,-0.0772 -0.08819,-0.13091 -0.04272,-0.0551 -0.08819,-0.0896 -0.0441,-0.0344 -0.09646,-0.0496 -0.05099,-0.0165 -0.115755,-0.0165 H 26.39909 v 0.84061 h -0.231511 v -1.97611 h 0.5898 q 0.129536,0 0.238401,0.0331 0.110243,0.0317 0.190169,0.0978 0.08131,0.0661 0.12678,0.16537 0.04547,0.0978 0.04547,0.23013 0,0.10335 -0.03169,0.19017 -0.03032,0.0854 -0.08819,0.15296 -0.0565,0.0675 -0.137804,0.11576 -0.07993,0.0469 -0.180523,0.073 v 0.006 q 0.04961,0.022 0.08544,0.051 0.03721,0.0276 0.07028,0.0661 0.03307,0.0386 0.06477,0.0882 0.03307,0.0482 0.07304,0.113 z m -1.185112,-1.76665 v 0.71658 h 0.314192 q 0.08682,0 0.159853,-0.0262 0.07441,-0.0262 0.128157,-0.0744 0.05374,-0.0496 0.08406,-0.11989 0.03032,-0.0716 0.03032,-0.15985 0,-0.15847 -0.103352,-0.24667 -0.101975,-0.0896 -0.296279,-0.0896 z"
         style="stroke-width:0.26458332"
         id="path2133"
         inkscape:connector-curvature="0" />
    </g>
    <rect
       style="opacity:1;fill:none;fill-opacity:1;stroke:#ffffff;stroke-width:0.31435713;stroke-linecap:square;stroke-linejoin:miter;stroke-miterlimit:4;stroke-dasharray:none;stroke-dashoffset:0;stroke-opacity:1;paint-order:markers fill stroke"
       id="rect2143"
       width="28.757959"
       height="14.763826"
       x="1.4960201"
       y="204.55299" />
    <g
       aria-label="XOR MODE"
       style="font-style:normal;font-variant:normal;font-weight:normal;font-stretch:normal;font-size:2.82222223px;line-height:1.25;font-family:'Yu Gothic UI';-inkscape-font-specification:'Yu Gothic UI';letter-spacing:0px;word-spacing:0px;fill:#ffffff;fill-opacity:1;stroke:none;stroke-width:0.26458332"
       id="text2168"
       transform="translate(0,-0.52916667)">
      <path
         d="m 10.40281,274.5282 h -0.282498 l -0.4547525,-0.75654 q -0.020671,-0.0345 -0.045475,-0.0978 h -0.00551 q -0.01378,0.0317 -0.046853,0.0978 l -0.468533,0.75654 H 8.8153099 l 0.6614584,-0.99357 -0.6090929,-0.98254 h 0.2838758 l 0.4037652,0.69453 q 0.039963,0.0689 0.07028,0.13781 h 0.00551 q 0.044097,-0.091 0.07717,-0.14332 l 0.4203016,-0.68902 h 0.265962 l -0.6214958,0.97979 z"
         style="stroke-width:0.26458332"
         id="path2198"
         inkscape:connector-curvature="0" />
      <path
         d="m 11.455631,274.56127 q -0.420302,0 -0.673861,-0.27698 -0.252181,-0.27699 -0.252181,-0.72072 0,-0.4768 0.257694,-0.76068 0.257693,-0.28387 0.701421,-0.28387 0.409277,0 0.658702,0.27561 0.250803,0.2756 0.250803,0.72071 0,0.48369 -0.256315,0.76481 -0.256315,0.28112 -0.686263,0.28112 z m 0.01654,-1.83279 q -0.311437,0 -0.50574,0.22462 -0.194304,0.22462 -0.194304,0.5898 0,0.36518 0.188791,0.58842 0.19017,0.22187 0.494716,0.22187 0.325217,0 0.51263,-0.21222 0.187414,-0.21222 0.187414,-0.59393 0,-0.39137 -0.181902,-0.60496 -0.181901,-0.2136 -0.501605,-0.2136 z"
         style="stroke-width:0.26458332"
         id="path2200"
         inkscape:connector-curvature="0" />
      <path
         d="m 14.203439,274.5282 h -0.275607 l -0.33073,-0.55397 q -0.04547,-0.0772 -0.08819,-0.13092 -0.04272,-0.0551 -0.08819,-0.0896 -0.0441,-0.0344 -0.09646,-0.0496 -0.05099,-0.0165 -0.115755,-0.0165 h -0.19017 v 0.84061 h -0.23151 v -1.97611 h 0.5898 q 0.129536,0 0.238401,0.0331 0.110243,0.0317 0.190169,0.0979 0.0813,0.0661 0.12678,0.16536 0.04548,0.0978 0.04548,0.23013 0,0.10335 -0.0317,0.19017 -0.03032,0.0854 -0.08819,0.15296 -0.0565,0.0675 -0.137804,0.11576 -0.07993,0.0469 -0.180523,0.073 v 0.006 q 0.04961,0.022 0.08544,0.051 0.03721,0.0276 0.07028,0.0661 0.03307,0.0386 0.06477,0.0882 0.03307,0.0482 0.07304,0.113 z m -1.185113,-1.76665 v 0.71658 h 0.314193 q 0.08682,0 0.159853,-0.0262 0.07441,-0.0262 0.128157,-0.0744 0.05374,-0.0496 0.08406,-0.11989 0.03032,-0.0717 0.03032,-0.15986 0,-0.15847 -0.103353,-0.24666 -0.101974,-0.0896 -0.296278,-0.0896 z"
         style="stroke-width:0.26458332"
         id="path2202"
         inkscape:connector-curvature="0" />
      <path
         d="m 17.259928,274.5282 h -0.230132 v -1.32567 q 0,-0.1571 0.01929,-0.38448 h -0.0055 q -0.03307,0.13367 -0.05926,0.19155 l -0.675238,1.5186 h -0.112999 l -0.673861,-1.50758 q -0.02894,-0.0661 -0.05926,-0.20257 h -0.0055 q 0.01102,0.11851 0.01102,0.38723 v 1.32292 h -0.223242 v -1.97611 h 0.305925 l 0.606337,1.37804 q 0.07028,0.15847 0.09095,0.23702 h 0.0083 q 0.05926,-0.16261 0.09508,-0.24253 l 0.618739,-1.37253 h 0.289388 z"
         style="stroke-width:0.26458332"
         id="path2204"
         inkscape:connector-curvature="0" />
      <path
         d="m 18.577332,274.56127 q -0.420301,0 -0.67386,-0.27698 -0.252181,-0.27699 -0.252181,-0.72072 0,-0.4768 0.257693,-0.76068 0.257693,-0.28387 0.701421,-0.28387 0.409278,0 0.658703,0.27561 0.250803,0.2756 0.250803,0.72071 0,0.48369 -0.256315,0.76481 -0.256316,0.28112 -0.686264,0.28112 z m 0.01654,-1.83279 q -0.311437,0 -0.50574,0.22462 -0.194303,0.22462 -0.194303,0.5898 0,0.36518 0.188791,0.58842 0.190169,0.22187 0.494715,0.22187 0.325217,0 0.512631,-0.21222 0.187413,-0.21222 0.187413,-0.59393 0,-0.39137 -0.181901,-0.60496 -0.181901,-0.2136 -0.501606,-0.2136 z"
         style="stroke-width:0.26458332"
         id="path2206"
         inkscape:connector-curvature="0" />
      <path
         d="m 19.908518,274.5282 v -1.97611 h 0.545703 q 1.044553,0 1.044553,0.96325 0,0.45751 -0.290766,0.73587 -0.289388,0.27699 -0.775836,0.27699 z m 0.23151,-1.76665 v 1.55719 h 0.2949 q 0.388607,0 0.604959,-0.20809 0.216352,-0.20808 0.216352,-0.5898 0,-0.7593 -0.80753,-0.7593 z"
         style="stroke-width:0.26458332"
         id="path2208"
         inkscape:connector-curvature="0" />
      <path
         d="M 22.934689,274.5282 H 21.88738 v -1.97611 h 1.003212 v 0.20946 h -0.771701 v 0.65733 h 0.713824 v 0.20808 h -0.713824 v 0.69178 h 0.815798 z"
         style="stroke-width:0.26458332"
         id="path2210"
         inkscape:connector-curvature="0" />
    </g>
    <g
       aria-label="NORM"
       style="font-style:normal;font-variant:normal;font-weight:normal;font-stretch:normal;font-size:2.11666656px;line-height:1.25;font-family:'Yu Gothic UI';-inkscape-font-specification:'Yu Gothic UI';letter-spacing:0px;word-spacing:0px;fill:#ffffff;fill-opacity:1;stroke:none;stroke-width:0.26458332"
       id="text2172"
       transform="translate(6.0988099,1.0583333)">
      <path
         d="M 7.9933052,284.50964 H 7.7803983 l -0.7627441,-1.18132 q -0.028939,-0.0444 -0.047542,-0.093 h -0.0062 q 0.00827,0.0476 0.00827,0.20361 v 1.07073 h -0.173636 v -1.48208 h 0.2253092 l 0.7420735,1.16272 q 0.046509,0.0724 0.059945,0.0992 h 0.00413 q -0.010335,-0.0641 -0.010335,-0.21807 v -1.04387 h 0.1736328 z"
         style="font-size:2.11666656px;stroke-width:0.26458332"
         id="path2178"
         inkscape:connector-curvature="0" />
      <path
         d="m 8.9792915,284.53445 q -0.3152262,0 -0.5053955,-0.20774 -0.1891357,-0.20774 -0.1891357,-0.54054 0,-0.3576 0.1932698,-0.5705 0.1932699,-0.21291 0.5260661,-0.21291 0.306958,0 0.4940267,0.2067 0.1881022,0.20671 0.1881022,0.54054 0,0.36277 -0.1922364,0.57361 -0.1922363,0.21084 -0.5146972,0.21084 z m 0.012402,-1.37459 q -0.2335774,0 -0.3793049,0.16846 -0.1457276,0.16847 -0.1457276,0.44235 0,0.27389 0.1415934,0.44132 0.142627,0.1664 0.3710368,0.1664 0.2439127,0 0.3844726,-0.15917 0.1405599,-0.15916 0.1405599,-0.44545 0,-0.29352 -0.1364257,-0.45372 -0.1364258,-0.16019 -0.3762045,-0.16019 z"
         style="font-size:2.11666656px;stroke-width:0.26458332"
         id="path2180"
         inkscape:connector-curvature="0" />
      <path
         d="m 11.040147,284.50964 h -0.206705 l -0.248047,-0.41547 q -0.03411,-0.0579 -0.06615,-0.0982 -0.03204,-0.0413 -0.06615,-0.0672 -0.03307,-0.0258 -0.07235,-0.0372 -0.03824,-0.0124 -0.08682,-0.0124 h -0.142627 v 0.63045 H 9.9776801 v -1.48208 H 10.42003 q 0.09715,0 0.178801,0.0248 0.08268,0.0238 0.142627,0.0734 0.06098,0.0496 0.09508,0.12402 0.03411,0.0734 0.03411,0.1726 0,0.0775 -0.02377,0.14263 -0.02274,0.0641 -0.06615,0.11472 -0.04237,0.0506 -0.103353,0.0868 -0.05995,0.0351 -0.135392,0.0548 v 0.004 q 0.03721,0.0165 0.06408,0.0382 0.02791,0.0207 0.05271,0.0496 0.0248,0.0289 0.04858,0.0661 0.02481,0.0362 0.05478,0.0847 z m -0.888834,-1.32498 v 0.53743 h 0.235644 q 0.06511,0 0.11989,-0.0196 0.05581,-0.0196 0.09612,-0.0558 0.04031,-0.0372 0.06305,-0.0899 0.02274,-0.0537 0.02274,-0.11989 0,-0.11885 -0.07752,-0.185 -0.07648,-0.0672 -0.222209,-0.0672 z"
         style="font-size:2.11666656px;stroke-width:0.26458332"
         id="path2182"
         inkscape:connector-curvature="0" />
      <path
         d="m 12.753738,284.50964 h -0.172599 v -0.99425 q 0,-0.11782 0.01447,-0.28836 h -0.0041 q -0.02481,0.10026 -0.04444,0.14367 l -0.506429,1.13894 h -0.08475 l -0.505396,-1.13068 q -0.0217,-0.0496 -0.04444,-0.15193 h -0.0041 q 0.0083,0.0889 0.0083,0.29043 v 0.99218 h -0.167432 v -1.48208 h 0.229443 l 0.454753,1.03353 q 0.05271,0.11886 0.06821,0.17777 h 0.0062 q 0.04444,-0.12196 0.07131,-0.1819 l 0.464055,-1.0294 h 0.217041 z"
         style="font-size:2.11666656px;stroke-width:0.26458332"
         id="path2184"
         inkscape:connector-curvature="0" />
    </g>
    <g
       aria-label="1-HOT"
       style="font-style:normal;font-variant:normal;font-weight:normal;font-stretch:normal;font-size:2.11666656px;line-height:1.25;font-family:'Yu Gothic UI';-inkscape-font-specification:'Yu Gothic UI';letter-spacing:0px;word-spacing:0px;fill:#ffffff;fill-opacity:1;stroke:none;stroke-width:0.26458332"
       id="text2176"
       transform="translate(6.07302,-1.0583333)">
      <path
         d="M 7.3628525,277.10532 H 7.1933538 v -1.28055 q -0.019637,0.0196 -0.057878,0.0455 -0.037207,0.0248 -0.084749,0.0496 -0.046509,0.0248 -0.099219,0.0465 -0.051676,0.0217 -0.1012858,0.0341 v -0.17156 q 0.05581,-0.0155 0.1178222,-0.0413 0.063045,-0.0269 0.12299,-0.0589 0.060978,-0.0331 0.1147216,-0.0682 0.053743,-0.0362 0.093018,-0.0703 h 0.064079 z"
         style="font-size:2.11666656px;stroke-width:0.26458332"
         id="path2187"
         inkscape:connector-curvature="0" />
      <path
         d="M 8.468728,276.58235 H 7.9044214 v -0.13332 H 8.468728 Z"
         style="font-size:2.11666656px;stroke-width:0.26458332"
         id="path2189"
         inkscape:connector-curvature="0" />
      <path
         d="M 9.9115339,277.10532 H 9.7379011 v -0.67593 H 8.9710229 v 0.67593 H 8.7973901 v -1.48208 h 0.1736328 v 0.65009 h 0.7668782 v -0.65009 h 0.1736328 z"
         style="font-size:2.11666656px;stroke-width:0.26458332"
         id="path2191"
         inkscape:connector-curvature="0" />
      <path
         d="m 10.899587,277.13012 q -0.315226,0 -0.505395,-0.20774 -0.189136,-0.20774 -0.189136,-0.54053 0,-0.3576 0.19327,-0.57051 0.19327,-0.21291 0.526066,-0.21291 0.306958,0 0.494027,0.20671 0.188102,0.2067 0.188102,0.54053 0,0.36277 -0.192236,0.57361 -0.192237,0.21084 -0.514698,0.21084 z m 0.0124,-1.37459 q -0.233578,0 -0.379305,0.16846 -0.145728,0.16847 -0.145728,0.44235 0,0.27389 0.141594,0.44132 0.142627,0.1664 0.371036,0.1664 0.243913,0 0.384473,-0.15917 0.14056,-0.15916 0.14056,-0.44545 0,-0.29352 -0.136426,-0.45372 -0.136426,-0.16019 -0.376204,-0.16019 z"
         style="font-size:2.11666656px;stroke-width:0.26458332"
         id="path2193"
         inkscape:connector-curvature="0" />
      <path
         d="m 12.753738,275.78033 h -0.427881 v 1.32499 h -0.173633 v -1.32499 h -0.426847 v -0.15709 h 1.028361 z"
         style="font-size:2.11666656px;stroke-width:0.26458332"
         id="path2195"
         inkscape:connector-curvature="0" />
    </g>
    <g
       aria-label="POLY LOGIC"
       style="font-style:normal;font-variant:normal;font-weight:600;font-stretch:normal;font-size:3.52777767px;line-height:1.25;font-family:'Yu Gothic UI';-inkscape-font-specification:'Yu Gothic UI Semi-Bold';letter-spacing:0px;word-spacing:0px;fill:#ffffff;fill-opacity:1;stroke:none;stroke-width:0.26458332"
       id="text2215"
       transform="translate(-0.4874805,-1.0583333)">
      <path
         d="m 7.3277178,203.50009 v 0.89572 H 6.919474 v -2.47013 h 0.7493082 q 0.4254693,0 0.6597358,0.19809 0.2342665,0.1981 0.2342665,0.55811 0,0.36001 -0.2446018,0.58911 -0.2446018,0.2291 -0.6614583,0.2291 z m 0,-1.23679 v 0.90261 h 0.2652723 q 0.2635498,0 0.4013536,-0.1223 0.1378038,-0.1223 0.1378038,-0.34451 0,-0.4358 -0.506429,-0.4358 z"
         style="font-style:normal;font-variant:normal;font-weight:600;font-stretch:normal;font-size:3.52777767px;font-family:'Yu Gothic UI';-inkscape-font-specification:'Yu Gothic UI Semi-Bold';stroke-width:0.26458332"
         id="path2217"
         inkscape:connector-curvature="0" />
      <path
         d="m 9.9976667,204.43715 q -0.5339898,0 -0.8561062,-0.34623 -0.3203939,-0.34623 -0.3203939,-0.90089 0,-0.596 0.3272841,-0.95085 0.3272841,-0.35484 0.8888343,-0.35484 0.52021,0 0.837158,0.34451 0.318672,0.34451 0.318672,0.90089 0,0.60461 -0.325562,0.95601 -0.325561,0.3514 -0.8698863,0.3514 z m 0.018948,-2.1928 q -0.3393431,0 -0.552939,0.25322 -0.2118733,0.25321 -0.2118733,0.66662 0,0.41169 0.2067057,0.66318 0.2067057,0.25149 0.54088,0.25149 0.3548456,0 0.5598286,-0.23943 0.204983,-0.23943 0.204983,-0.67007 0,-0.4427 -0.199815,-0.68385 -0.198093,-0.24116 -0.54777,-0.24116 z"
         style="font-style:normal;font-variant:normal;font-weight:600;font-stretch:normal;font-size:3.52777767px;font-family:'Yu Gothic UI';-inkscape-font-specification:'Yu Gothic UI Semi-Bold';stroke-width:0.26458332"
         id="path2219"
         inkscape:connector-curvature="0" />
      <path
         d="m 13.013848,204.39581 h -1.367703 v -2.47013 h 0.409967 v 2.1239 h 0.957736 z"
         style="font-style:normal;font-variant:normal;font-weight:600;font-stretch:normal;font-size:3.52777767px;font-family:'Yu Gothic UI';-inkscape-font-specification:'Yu Gothic UI Semi-Bold';stroke-width:0.26458332"
         id="path2221"
         inkscape:connector-curvature="0" />
      <path
         d="m 14.951714,201.92568 -0.809598,1.57269 v 0.89744 H 13.73215 v -0.88883 l -0.788927,-1.5813 h 0.466811 l 0.485758,1.05937 q 0.0086,0.0189 0.05168,0.14297 h 0.0052 q 0.0155,-0.0551 0.05684,-0.14297 l 0.508152,-1.05937 z"
         style="font-style:normal;font-variant:normal;font-weight:600;font-stretch:normal;font-size:3.52777767px;font-family:'Yu Gothic UI';-inkscape-font-specification:'Yu Gothic UI Semi-Bold';stroke-width:0.26458332"
         id="path2223"
         inkscape:connector-curvature="0" />
      <path
         d="m 17.609605,204.39581 h -1.367703 v -2.47013 h 0.409966 v 2.1239 h 0.957737 z"
         style="font-style:normal;font-variant:normal;font-weight:600;font-stretch:normal;font-size:3.52777767px;font-family:'Yu Gothic UI';-inkscape-font-specification:'Yu Gothic UI Semi-Bold';stroke-width:0.26458332"
         id="path2225"
         inkscape:connector-curvature="0" />
      <path
         d="m 18.948024,204.43715 q -0.533989,0 -0.856106,-0.34623 -0.320394,-0.34623 -0.320394,-0.90089 0,-0.596 0.327284,-0.95085 0.327284,-0.35484 0.888835,-0.35484 0.520209,0 0.837158,0.34451 0.318671,0.34451 0.318671,0.90089 0,0.60461 -0.325561,0.95601 -0.325562,0.3514 -0.869887,0.3514 z m 0.01895,-2.1928 q -0.339341,0 -0.552937,0.25322 -0.211874,0.25321 -0.211874,0.66662 0,0.41169 0.206706,0.66318 0.206706,0.25149 0.54088,0.25149 0.354845,0 0.559828,-0.23943 0.204983,-0.23943 0.204983,-0.67007 0,-0.4427 -0.199815,-0.68385 -0.198093,-0.24116 -0.547771,-0.24116 z"
         style="font-style:normal;font-variant:normal;font-weight:600;font-stretch:normal;font-size:3.52777767px;font-family:'Yu Gothic UI';-inkscape-font-specification:'Yu Gothic UI Semi-Bold';stroke-width:0.26458332"
         id="path2227"
         inkscape:connector-curvature="0" />
      <path
         d="m 22.524033,204.227 q -0.38585,0.21015 -0.859551,0.21015 -0.54777,0 -0.887112,-0.34106 -0.339342,-0.34106 -0.339342,-0.90262 0,-0.5736 0.370348,-0.94051 0.37207,-0.36862 0.943956,-0.36862 0.411689,0 0.692464,0.12058 v 0.42202 q -0.28422,-0.18948 -0.676961,-0.18948 -0.394463,0 -0.647678,0.26011 -0.251492,0.2601 -0.251492,0.67351 0,0.42547 0.217041,0.67007 0.217041,0.24288 0.589111,0.24288 0.254938,0 0.440973,-0.0982 v -0.58739 h -0.52021 v -0.34451 h 0.928453 z"
         style="font-style:normal;font-variant:normal;font-weight:600;font-stretch:normal;font-size:3.52777767px;font-family:'Yu Gothic UI';-inkscape-font-specification:'Yu Gothic UI Semi-Bold';stroke-width:0.26458332"
         id="path2229"
         inkscape:connector-curvature="0" />
      <path
         d="m 23.476603,204.39581 h -0.422024 v -2.47013 h 0.422024 z"
         style="font-style:normal;font-variant:normal;font-weight:600;font-stretch:normal;font-size:3.52777767px;font-family:'Yu Gothic UI';-inkscape-font-specification:'Yu Gothic UI Semi-Bold';stroke-width:0.26458332"
         id="path2231"
         inkscape:connector-curvature="0" />
      <path
         d="m 25.805487,204.29246 q -0.279053,0.14469 -0.694187,0.14469 -0.537434,0 -0.861273,-0.33934 -0.323839,-0.33934 -0.323839,-0.89055 0,-0.59256 0.363457,-0.95774 0.36518,-0.36518 0.921563,-0.36518 0.35829,0 0.594279,0.10163 v 0.40652 q -0.249769,-0.14814 -0.551215,-0.14814 -0.401354,0 -0.651123,0.25666 -0.248047,0.25666 -0.248047,0.68557 0,0.40825 0.232544,0.65113 0.232544,0.24115 0.611504,0.24115 0.349678,0 0.606337,-0.16536 z"
         style="font-style:normal;font-variant:normal;font-weight:600;font-stretch:normal;font-size:3.52777767px;font-family:'Yu Gothic UI';-inkscape-font-specification:'Yu Gothic UI Semi-Bold';stroke-width:0.26458332"
         id="path2233"
         inkscape:connector-curvature="0" />
    </g>
    <g
       aria-label="STATE"
       style="font-style:normal;font-variant:normal;font-weight:normal;font-stretch:normal;font-size:2.82222223px;line-height:1.25;font-family:'Yu Gothic UI';-inkscape-font-specification:'Yu Gothic UI';letter-spacing:0px;word-spacing:0px;fill:#ffffff;fill-opacity:1;stroke:none;stroke-width:0.26458332"
       id="text2238"
       transform="translate(-2.9662252,0.52916663)">
      <path
         d="m 23.185492,206.69714 v -0.27285 q 0.04685,0.0413 0.111621,0.0744 0.06615,0.0331 0.137804,0.0565 0.07304,0.022 0.146072,0.0345 0.07304,0.0124 0.135048,0.0124 0.213595,0 0.318326,-0.0786 0.106109,-0.0799 0.106109,-0.22875 0,-0.0799 -0.03583,-0.13919 -0.03445,-0.0593 -0.09646,-0.10748 -0.06201,-0.0496 -0.14745,-0.0937 -0.08406,-0.0455 -0.181901,-0.0951 -0.103353,-0.0524 -0.192926,-0.10611 -0.08957,-0.0537 -0.155718,-0.11851 -0.06615,-0.0648 -0.104731,-0.14608 -0.03721,-0.0827 -0.03721,-0.19292 0,-0.13505 0.05926,-0.23427 0.05926,-0.1006 0.155718,-0.16536 0.09646,-0.0648 0.219108,-0.0965 0.124023,-0.0317 0.252181,-0.0317 0.292144,0 0.425814,0.0703 v 0.26045 q -0.175011,-0.12127 -0.449241,-0.12127 -0.07579,0 -0.151584,0.0165 -0.07579,0.0152 -0.135048,0.051 -0.05926,0.0358 -0.09646,0.0923 -0.03721,0.0565 -0.03721,0.13781 0,0.0758 0.02756,0.13091 0.02894,0.0551 0.08406,0.1006 0.05512,0.0455 0.133669,0.0882 0.07993,0.0427 0.18328,0.0937 0.106108,0.0524 0.201193,0.11024 0.09509,0.0579 0.166743,0.12816 0.07166,0.0703 0.112999,0.15572 0.04272,0.0854 0.04272,0.19568 0,0.14607 -0.05788,0.24805 -0.0565,0.10059 -0.15434,0.16398 -0.09646,0.0634 -0.223242,0.091 -0.12678,0.0289 -0.267339,0.0289 -0.04685,0 -0.115756,-0.008 -0.0689,-0.007 -0.14056,-0.022 -0.07166,-0.0138 -0.136425,-0.0345 -0.06339,-0.022 -0.101975,-0.0482 z"
         style="stroke-width:0.26458332"
         id="path2240"
         inkscape:connector-curvature="0" />
      <path
         d="m 25.918142,205.01042 h -0.570508 v 1.76665 h -0.231511 v -1.76665 h -0.569129 v -0.20946 h 1.371148 z"
         style="stroke-width:0.26458332"
         id="path2242"
         inkscape:connector-curvature="0" />
      <path
         d="m 27.657226,206.77707 h -0.256315 l -0.209462,-0.55397 h -0.837847 l -0.19706,0.55397 h -0.257693 l 0.757921,-1.97611 h 0.239779 z m -0.541569,-0.76206 -0.310059,-0.84198 q -0.01516,-0.0413 -0.03032,-0.13229 h -0.0055 q -0.01378,0.0841 -0.03169,0.13229 l -0.307302,0.84198 z"
         style="stroke-width:0.26458332"
         id="path2244"
         inkscape:connector-curvature="0" />
      <path
         d="m 29.015971,205.01042 h -0.570508 v 1.76665 h -0.23151 v -1.76665 h -0.56913 v -0.20946 h 1.371148 z"
         style="stroke-width:0.26458332"
         id="path2246"
         inkscape:connector-curvature="0" />
      <path
         d="m 30.371961,206.77707 h -1.047309 v -1.97611 h 1.003212 v 0.20946 h -0.771702 v 0.65733 h 0.713824 v 0.20808 h -0.713824 v 0.69178 h 0.815799 z"
         style="stroke-width:0.26458332"
         id="path2248"
         inkscape:connector-curvature="0" />
    </g>
  </g>
  <g
     inkscape:groupmode="layer"
     id="layer2"
     inkscape:label="Grid6"
     style="display:none"
     sodipodi:insensitive="true">
    <g
       id="g2097">
      <path
         style="fill:none;stroke:#ffffff;stroke-width:0.05;stroke-linecap:butt;stroke-linejoin:miter;stroke-miterlimit:4;stroke-dasharray:none;stroke-opacity:1"
         d="M 7.9375007,-5.0001865e-6 7.9374977,100.54166"
         id="path881-8-8-2"
         inkscape:connector-curvature="0"
         sodipodi:nodetypes="cc" />
      <path
         sodipodi:nodetypes="cc"
         inkscape:connector-curvature="0"
         id="path890-2-5-0"
         d="M 3.9687527,4.9998135e-6 3.9687487,100.54167"
         style="fill:none;stroke:#ffffff;stroke-width:0.05;stroke-linecap:butt;stroke-linejoin:miter;stroke-miterlimit:4;stroke-dasharray:none;stroke-opacity:1" />
      <path
         style="fill:none;stroke:#ffffff;stroke-width:0.05;stroke-linecap:butt;stroke-linejoin:miter;stroke-miterlimit:4;stroke-dasharray:none;stroke-opacity:1"
         d="M 11.906254,4.9998135e-6 11.90625,100.54167"
         id="path895-1-5-2"
         inkscape:connector-curvature="0"
         sodipodi:nodetypes="cc" />
      <path
         sodipodi:nodetypes="cc"
         inkscape:connector-curvature="0"
         id="path1107-7"
         d="M 7.2598426e-7,50.270605 15.875001,50.271066"
         style="fill:none;stroke:#ffffff;stroke-width:0.05;stroke-linecap:butt;stroke-linejoin:miter;stroke-miterlimit:4;stroke-dasharray:none;stroke-opacity:1" />
      <circle
         r="4.0999999"
         cy="50.270832"
         cx="7.9523048"
         id="circle1018-7"
         style="display:inline;opacity:1;fill:none;fill-opacity:1;stroke:#ffffff;stroke-width:0.05;stroke-linecap:square;stroke-linejoin:round;stroke-miterlimit:4;stroke-dasharray:none;stroke-dashoffset:0;stroke-opacity:1;paint-order:markers fill stroke" />
      <circle
         style="display:inline;opacity:1;fill:none;fill-opacity:1;stroke:#ffffff;stroke-width:0.05172414;stroke-linecap:square;stroke-linejoin:round;stroke-miterlimit:4;stroke-dasharray:none;stroke-dashoffset:0;stroke-opacity:1;paint-order:markers fill stroke"
         id="circle977-3"
         cx="7.9360805"
         cy="50.270832"
         r="5.4741378" />
      <path
         style="fill:none;stroke:#ffffff;stroke-width:0.05;stroke-linecap:butt;stroke-linejoin:miter;stroke-miterlimit:4;stroke-dasharray:none;stroke-opacity:1"
         d="M 7.2598426e-7,33.598486 15.875001,33.598947"
         id="path1010"
         inkscape:connector-curvature="0"
         sodipodi:nodetypes="cc" />
      <circle
         style="display:inline;opacity:1;fill:none;fill-opacity:1;stroke:#ffffff;stroke-width:0.05;stroke-linecap:square;stroke-linejoin:round;stroke-miterlimit:4;stroke-dasharray:none;stroke-dashoffset:0;stroke-opacity:1;paint-order:markers fill stroke"
         id="circle1012"
         cx="7.9523048"
         cy="33.598694"
         r="4.0999999" />
      <circle
         r="5.4741378"
         cy="33.598694"
         cx="7.9360805"
         id="circle1015"
         style="display:inline;opacity:1;fill:none;fill-opacity:1;stroke:#ffffff;stroke-width:0.05172414;stroke-linecap:square;stroke-linejoin:round;stroke-miterlimit:4;stroke-dasharray:none;stroke-dashoffset:0;stroke-opacity:1;paint-order:markers fill stroke" />
      <path
         style="fill:none;stroke:#ffffff;stroke-width:0.05;stroke-linecap:butt;stroke-linejoin:miter;stroke-miterlimit:4;stroke-dasharray:none;stroke-opacity:1"
         d="M 7.2598426e-7,66.939617 15.875001,66.940078"
         id="path1017"
         inkscape:connector-curvature="0"
         sodipodi:nodetypes="cc" />
      <circle
         style="display:inline;opacity:1;fill:none;fill-opacity:1;stroke:#ffffff;stroke-width:0.05;stroke-linecap:square;stroke-linejoin:round;stroke-miterlimit:4;stroke-dasharray:none;stroke-dashoffset:0;stroke-opacity:1;paint-order:markers fill stroke"
         id="circle1019"
         cx="7.9523048"
         cy="66.939827"
         r="4.0999999" />
      <circle
         r="5.4741378"
         cy="66.939827"
         cx="7.9360805"
         id="circle1021"
         style="display:inline;opacity:1;fill:none;fill-opacity:1;stroke:#ffffff;stroke-width:0.05172414;stroke-linecap:square;stroke-linejoin:round;stroke-miterlimit:4;stroke-dasharray:none;stroke-dashoffset:0;stroke-opacity:1;paint-order:markers fill stroke" />
      <path
         sodipodi:nodetypes="cc"
         inkscape:connector-curvature="0"
         id="path1023"
         d="M 7.2598426e-7,83.608108 15.875001,83.608569"
         style="fill:none;stroke:#ffffff;stroke-width:0.05;stroke-linecap:butt;stroke-linejoin:miter;stroke-miterlimit:4;stroke-dasharray:none;stroke-opacity:1" />
      <circle
         r="4.0999999"
         cy="83.60833"
         cx="7.9523048"
         id="circle1025"
         style="display:inline;opacity:1;fill:none;fill-opacity:1;stroke:#ffffff;stroke-width:0.05;stroke-linecap:square;stroke-linejoin:round;stroke-miterlimit:4;stroke-dasharray:none;stroke-dashoffset:0;stroke-opacity:1;paint-order:markers fill stroke" />
      <circle
         style="display:inline;opacity:1;fill:none;fill-opacity:1;stroke:#ffffff;stroke-width:0.05172414;stroke-linecap:square;stroke-linejoin:round;stroke-miterlimit:4;stroke-dasharray:none;stroke-dashoffset:0;stroke-opacity:1;paint-order:markers fill stroke"
         id="circle1027"
         cx="7.9360805"
         cy="83.60833"
         r="5.4741378" />
      <path
         sodipodi:nodetypes="cc"
         inkscape:connector-curvature="0"
         id="path1029"
         d="M 7.2598426e-7,16.933102 15.875001,16.933563"
         style="fill:none;stroke:#ffffff;stroke-width:0.05;stroke-linecap:butt;stroke-linejoin:miter;stroke-miterlimit:4;stroke-dasharray:none;stroke-opacity:1" />
      <circle
         r="4.0999999"
         cy="16.933331"
         cx="7.9523048"
         id="circle1031"
         style="display:inline;opacity:1;fill:none;fill-opacity:1;stroke:#ffffff;stroke-width:0.05;stroke-linecap:square;stroke-linejoin:round;stroke-miterlimit:4;stroke-dasharray:none;stroke-dashoffset:0;stroke-opacity:1;paint-order:markers fill stroke" />
      <circle
         style="display:inline;opacity:1;fill:none;fill-opacity:1;stroke:#ffffff;stroke-width:0.05172414;stroke-linecap:square;stroke-linejoin:round;stroke-miterlimit:4;stroke-dasharray:none;stroke-dashoffset:0;stroke-opacity:1;paint-order:markers fill stroke"
         id="circle1033"
         cx="7.9360805"
         cy="16.933331"
         r="5.4741378" />
      <path
         sodipodi:nodetypes="cc"
         inkscape:connector-curvature="0"
         id="path1883"
         d="M 23.812499,-5.0001865e-6 23.812496,100.54166"
         style="fill:none;stroke:#ffffff;stroke-width:0.05;stroke-linecap:butt;stroke-linejoin:miter;stroke-miterlimit:4;stroke-dasharray:none;stroke-opacity:1" />
      <path
         style="fill:none;stroke:#ffffff;stroke-width:0.05;stroke-linecap:butt;stroke-linejoin:miter;stroke-miterlimit:4;stroke-dasharray:none;stroke-opacity:1"
         d="M 19.843751,4.9998135e-6 19.843747,100.54167"
         id="path1885"
         inkscape:connector-curvature="0"
         sodipodi:nodetypes="cc" />
      <path
         sodipodi:nodetypes="cc"
         inkscape:connector-curvature="0"
         id="path1887"
         d="M 27.781252,4.9998135e-6 27.781248,100.54167"
         style="fill:none;stroke:#ffffff;stroke-width:0.05;stroke-linecap:butt;stroke-linejoin:miter;stroke-miterlimit:4;stroke-dasharray:none;stroke-opacity:1" />
      <path
         style="fill:none;stroke:#ffffff;stroke-width:0.05;stroke-linecap:butt;stroke-linejoin:miter;stroke-miterlimit:4;stroke-dasharray:none;stroke-opacity:1"
         d="m 15.874999,50.270605 15.875,4.61e-4"
         id="path1889"
         inkscape:connector-curvature="0"
         sodipodi:nodetypes="cc" />
      <circle
         style="display:inline;opacity:1;fill:none;fill-opacity:1;stroke:#ffffff;stroke-width:0.05;stroke-linecap:square;stroke-linejoin:round;stroke-miterlimit:4;stroke-dasharray:none;stroke-dashoffset:0;stroke-opacity:1;paint-order:markers fill stroke"
         id="circle1891"
         cx="23.827303"
         cy="50.270832"
         r="4.0999999" />
      <circle
         r="5.4741378"
         cy="50.270832"
         cx="23.811079"
         id="circle1893"
         style="display:inline;opacity:1;fill:none;fill-opacity:1;stroke:#ffffff;stroke-width:0.05172414;stroke-linecap:square;stroke-linejoin:round;stroke-miterlimit:4;stroke-dasharray:none;stroke-dashoffset:0;stroke-opacity:1;paint-order:markers fill stroke" />
      <path
         sodipodi:nodetypes="cc"
         inkscape:connector-curvature="0"
         id="path1895"
         d="m 15.874999,33.598486 15.875,4.61e-4"
         style="fill:none;stroke:#ffffff;stroke-width:0.05;stroke-linecap:butt;stroke-linejoin:miter;stroke-miterlimit:4;stroke-dasharray:none;stroke-opacity:1" />
      <circle
         r="4.0999999"
         cy="33.598694"
         cx="23.827303"
         id="circle1897"
         style="display:inline;opacity:1;fill:none;fill-opacity:1;stroke:#ffffff;stroke-width:0.05;stroke-linecap:square;stroke-linejoin:round;stroke-miterlimit:4;stroke-dasharray:none;stroke-dashoffset:0;stroke-opacity:1;paint-order:markers fill stroke" />
      <circle
         style="display:inline;opacity:1;fill:none;fill-opacity:1;stroke:#ffffff;stroke-width:0.05172414;stroke-linecap:square;stroke-linejoin:round;stroke-miterlimit:4;stroke-dasharray:none;stroke-dashoffset:0;stroke-opacity:1;paint-order:markers fill stroke"
         id="circle1899"
         cx="23.811079"
         cy="33.598694"
         r="5.4741378" />
      <path
         sodipodi:nodetypes="cc"
         inkscape:connector-curvature="0"
         id="path1901"
         d="m 15.874999,66.939617 15.875,4.61e-4"
         style="fill:none;stroke:#ffffff;stroke-width:0.05;stroke-linecap:butt;stroke-linejoin:miter;stroke-miterlimit:4;stroke-dasharray:none;stroke-opacity:1" />
      <circle
         r="4.0999999"
         cy="66.939827"
         cx="23.827303"
         id="circle1903"
         style="display:inline;opacity:1;fill:none;fill-opacity:1;stroke:#ffffff;stroke-width:0.05;stroke-linecap:square;stroke-linejoin:round;stroke-miterlimit:4;stroke-dasharray:none;stroke-dashoffset:0;stroke-opacity:1;paint-order:markers fill stroke" />
      <circle
         style="display:inline;opacity:1;fill:none;fill-opacity:1;stroke:#ffffff;stroke-width:0.05172414;stroke-linecap:square;stroke-linejoin:round;stroke-miterlimit:4;stroke-dasharray:none;stroke-dashoffset:0;stroke-opacity:1;paint-order:markers fill stroke"
         id="circle1905"
         cx="23.811079"
         cy="66.939827"
         r="5.4741378" />
      <path
         style="fill:none;stroke:#ffffff;stroke-width:0.05;stroke-linecap:butt;stroke-linejoin:miter;stroke-miterlimit:4;stroke-dasharray:none;stroke-opacity:1"
         d="m 15.874999,83.608108 15.875,4.61e-4"
         id="path1907"
         inkscape:connector-curvature="0"
         sodipodi:nodetypes="cc" />
      <circle
         style="display:inline;opacity:1;fill:none;fill-opacity:1;stroke:#ffffff;stroke-width:0.05;stroke-linecap:square;stroke-linejoin:round;stroke-miterlimit:4;stroke-dasharray:none;stroke-dashoffset:0;stroke-opacity:1;paint-order:markers fill stroke"
         id="circle1909"
         cx="23.827303"
         cy="83.60833"
         r="4.0999999" />
      <circle
         r="5.4741378"
         cy="83.60833"
         cx="23.811079"
         id="circle1911"
         style="display:inline;opacity:1;fill:none;fill-opacity:1;stroke:#ffffff;stroke-width:0.05172414;stroke-linecap:square;stroke-linejoin:round;stroke-miterlimit:4;stroke-dasharray:none;stroke-dashoffset:0;stroke-opacity:1;paint-order:markers fill stroke" />
      <path
         style="fill:none;stroke:#ffffff;stroke-width:0.05;stroke-linecap:butt;stroke-linejoin:miter;stroke-miterlimit:4;stroke-dasharray:none;stroke-opacity:1"
         d="m 15.874999,16.933102 15.875,4.61e-4"
         id="path1913"
         inkscape:connector-curvature="0"
         sodipodi:nodetypes="cc" />
      <circle
         style="display:inline;opacity:1;fill:none;fill-opacity:1;stroke:#ffffff;stroke-width:0.05;stroke-linecap:square;stroke-linejoin:round;stroke-miterlimit:4;stroke-dasharray:none;stroke-dashoffset:0;stroke-opacity:1;paint-order:markers fill stroke"
         id="circle1915"
         cx="23.827303"
         cy="16.933331"
         r="4.0999999" />
      <circle
         r="5.4741378"
         cy="16.933331"
         cx="23.811079"
         id="circle1917"
         style="display:inline;opacity:1;fill:none;fill-opacity:1;stroke:#ffffff;stroke-width:0.05172414;stroke-linecap:square;stroke-linejoin:round;stroke-miterlimit:4;stroke-dasharray:none;stroke-dashoffset:0;stroke-opacity:1;paint-order:markers fill stroke" />
      <path
         style="fill:none;stroke:#ffffff;stroke-width:0.05;stroke-linecap:butt;stroke-linejoin:miter;stroke-miterlimit:4;stroke-dasharray:none;stroke-opacity:1"
         d="M 15.875,-5.0001865e-6 15.874997,100.54166"
         id="path1921"
         inkscape:connector-curvature="0"
         sodipodi:nodetypes="cc" />
      <path
         sodipodi:nodetypes="cc"
         inkscape:connector-curvature="0"
         id="path1923"
         d="M 11.906252,4.9998135e-6 11.906248,100.54167"
         style="fill:none;stroke:#ffffff;stroke-width:0.05;stroke-linecap:butt;stroke-linejoin:miter;stroke-miterlimit:4;stroke-dasharray:none;stroke-opacity:1" />
      <path
         style="fill:none;stroke:#ffffff;stroke-width:0.05;stroke-linecap:butt;stroke-linejoin:miter;stroke-miterlimit:4;stroke-dasharray:none;stroke-opacity:1"
         d="M 19.843753,4.9998135e-6 19.843749,100.54167"
         id="path1925"
         inkscape:connector-curvature="0"
         sodipodi:nodetypes="cc" />
      <path
         sodipodi:nodetypes="cc"
         inkscape:connector-curvature="0"
         id="path1927"
         d="m 7.9375,50.270605 15.875,4.61e-4"
         style="fill:none;stroke:#ffffff;stroke-width:0.05;stroke-linecap:butt;stroke-linejoin:miter;stroke-miterlimit:4;stroke-dasharray:none;stroke-opacity:1" />
      <circle
         r="4.0999999"
         cy="50.270832"
         cx="15.889804"
         id="circle1929"
         style="display:inline;opacity:1;fill:none;fill-opacity:1;stroke:#ffffff;stroke-width:0.05;stroke-linecap:square;stroke-linejoin:round;stroke-miterlimit:4;stroke-dasharray:none;stroke-dashoffset:0;stroke-opacity:1;paint-order:markers fill stroke" />
      <circle
         style="display:inline;opacity:1;fill:none;fill-opacity:1;stroke:#ffffff;stroke-width:0.05172414;stroke-linecap:square;stroke-linejoin:round;stroke-miterlimit:4;stroke-dasharray:none;stroke-dashoffset:0;stroke-opacity:1;paint-order:markers fill stroke"
         id="circle1931"
         cx="15.873579"
         cy="50.270832"
         r="5.4741378" />
      <path
         style="fill:none;stroke:#ffffff;stroke-width:0.05;stroke-linecap:butt;stroke-linejoin:miter;stroke-miterlimit:4;stroke-dasharray:none;stroke-opacity:1"
         d="m 7.9375,33.598486 15.875,4.61e-4"
         id="path1933"
         inkscape:connector-curvature="0"
         sodipodi:nodetypes="cc" />
      <circle
         style="display:inline;opacity:1;fill:none;fill-opacity:1;stroke:#ffffff;stroke-width:0.05;stroke-linecap:square;stroke-linejoin:round;stroke-miterlimit:4;stroke-dasharray:none;stroke-dashoffset:0;stroke-opacity:1;paint-order:markers fill stroke"
         id="circle1935"
         cx="15.889804"
         cy="33.598694"
         r="4.0999999" />
      <circle
         r="5.4741378"
         cy="33.598694"
         cx="15.873579"
         id="circle1937"
         style="display:inline;opacity:1;fill:none;fill-opacity:1;stroke:#ffffff;stroke-width:0.05172414;stroke-linecap:square;stroke-linejoin:round;stroke-miterlimit:4;stroke-dasharray:none;stroke-dashoffset:0;stroke-opacity:1;paint-order:markers fill stroke" />
      <path
         style="fill:none;stroke:#ffffff;stroke-width:0.05;stroke-linecap:butt;stroke-linejoin:miter;stroke-miterlimit:4;stroke-dasharray:none;stroke-opacity:1"
         d="m 7.9375,66.939617 15.875,4.61e-4"
         id="path1939"
         inkscape:connector-curvature="0"
         sodipodi:nodetypes="cc" />
      <circle
         style="display:inline;opacity:1;fill:none;fill-opacity:1;stroke:#ffffff;stroke-width:0.05;stroke-linecap:square;stroke-linejoin:round;stroke-miterlimit:4;stroke-dasharray:none;stroke-dashoffset:0;stroke-opacity:1;paint-order:markers fill stroke"
         id="circle1941"
         cx="15.889804"
         cy="66.939827"
         r="4.0999999" />
      <circle
         r="5.4741378"
         cy="66.939827"
         cx="15.873579"
         id="circle1943"
         style="display:inline;opacity:1;fill:none;fill-opacity:1;stroke:#ffffff;stroke-width:0.05172414;stroke-linecap:square;stroke-linejoin:round;stroke-miterlimit:4;stroke-dasharray:none;stroke-dashoffset:0;stroke-opacity:1;paint-order:markers fill stroke" />
      <path
         sodipodi:nodetypes="cc"
         inkscape:connector-curvature="0"
         id="path1945"
         d="m 7.9375,83.608108 15.875,4.61e-4"
         style="fill:none;stroke:#ffffff;stroke-width:0.05;stroke-linecap:butt;stroke-linejoin:miter;stroke-miterlimit:4;stroke-dasharray:none;stroke-opacity:1" />
      <circle
         r="4.0999999"
         cy="83.60833"
         cx="15.889804"
         id="circle1947"
         style="display:inline;opacity:1;fill:none;fill-opacity:1;stroke:#ffffff;stroke-width:0.05;stroke-linecap:square;stroke-linejoin:round;stroke-miterlimit:4;stroke-dasharray:none;stroke-dashoffset:0;stroke-opacity:1;paint-order:markers fill stroke" />
      <circle
         style="display:inline;opacity:1;fill:none;fill-opacity:1;stroke:#ffffff;stroke-width:0.05172414;stroke-linecap:square;stroke-linejoin:round;stroke-miterlimit:4;stroke-dasharray:none;stroke-dashoffset:0;stroke-opacity:1;paint-order:markers fill stroke"
         id="circle1949"
         cx="15.873579"
         cy="83.60833"
         r="5.4741378" />
      <path
         sodipodi:nodetypes="cc"
         inkscape:connector-curvature="0"
         id="path1951"
         d="m 7.9375,16.933102 15.875,4.61e-4"
         style="fill:none;stroke:#ffffff;stroke-width:0.05;stroke-linecap:butt;stroke-linejoin:miter;stroke-miterlimit:4;stroke-dasharray:none;stroke-opacity:1" />
      <circle
         r="4.0999999"
         cy="16.933331"
         cx="15.889804"
         id="circle1953"
         style="display:inline;opacity:1;fill:none;fill-opacity:1;stroke:#ffffff;stroke-width:0.05;stroke-linecap:square;stroke-linejoin:round;stroke-miterlimit:4;stroke-dasharray:none;stroke-dashoffset:0;stroke-opacity:1;paint-order:markers fill stroke" />
      <circle
         style="display:inline;opacity:1;fill:none;fill-opacity:1;stroke:#ffffff;stroke-width:0.05172414;stroke-linecap:square;stroke-linejoin:round;stroke-miterlimit:4;stroke-dasharray:none;stroke-dashoffset:0;stroke-opacity:1;paint-order:markers fill stroke"
         id="circle1955"
         cx="15.873579"
         cy="16.933331"
         r="5.4741378" />
    </g>
  </g>
</svg>
