<?xml version="1.0" encoding="UTF-8" standalone="no"?>
<!-- Created with Inkscape (http://www.inkscape.org/) -->

<svg
   xmlns:dc="http://purl.org/dc/elements/1.1/"
   xmlns:cc="http://creativecommons.org/ns#"
   xmlns:rdf="http://www.w3.org/1999/02/22-rdf-syntax-ns#"
   xmlns:svg="http://www.w3.org/2000/svg"
   xmlns="http://www.w3.org/2000/svg"
   xmlns:sodipodi="http://sodipodi.sourceforge.net/DTD/sodipodi-0.dtd"
   xmlns:inkscape="http://www.inkscape.org/namespaces/inkscape"
   width="75"
   height="380"
   viewBox="0 0 19.843756 100.54169"
   version="1.1"
   id="svg8"
   inkscape:version="0.92.5 (2060ec1f9f, 2020-04-08)"
   sodipodi:docname="RackEarRightBats.svg">
  <defs
     id="defs2" />
  <sodipodi:namedview
     id="base"
     pagecolor="#ffffff"
     bordercolor="#666666"
     borderopacity="1.0"
     inkscape:pageopacity="0.0"
     inkscape:pageshadow="2"
     inkscape:zoom="2.1526316"
     inkscape:cx="37.5"
     inkscape:cy="190"
     inkscape:document-units="mm"
     inkscape:current-layer="layer1"
     showgrid="true"
     units="px"
     inkscape:snap-bbox="true"
     inkscape:snap-page="true"
     inkscape:bbox-nodes="true"
     inkscape:snap-bbox-edge-midpoints="true"
     inkscape:window-width="727"
     inkscape:window-height="1008"
     inkscape:window-x="320"
     inkscape:window-y="0"
     inkscape:window-maximized="0">
    <inkscape:grid
       type="xygrid"
       id="grid116" />
  </sodipodi:namedview>
  <metadata
     id="metadata5">
    <rdf:RDF>
      <cc:Work
         rdf:about="">
        <dc:format>image/svg+xml</dc:format>
        <dc:type
           rdf:resource="http://purl.org/dc/dcmitype/StillImage" />
        <dc:title />
      </cc:Work>
    </rdf:RDF>
  </metadata>
  <g
     inkscape:groupmode="layer"
     id="layer2"
     inkscape:label="Panel"
     style="display:inline"
     transform="translate(0,2.2028157e-5)"
     sodipodi:insensitive="true">
    <path
       style="display:inline;fill:#000000;stroke-width:1.15353382"
       d="M 0,0.00195313 V 379.99805 H 12 63 75 V 289.75 H 63 39.021484 38.535156 A 7.5149529,7.8015035 0 0 1 37.769531,289.8008 11.051402,7.8015035 0 0 1 37.5,289.7948 7.5149529,7.8015035 0 0 1 30.224609,282.00183 7.5149529,7.8015035 0 0 1 37.5,274.21082 a 11.051402,7.8015035 0 0 1 0.326172,-0.0117 7.5149529,7.8015035 0 0 1 0.0078,0 7.5149529,7.8015035 0 0 1 0.742188,0.0527 H 39.082031 63 75 V 105.74805 H 63 39.021484 38.535156 a 7.5149526,7.8015031 0 0 1 -0.765625,0.0508 A 11.051401,7.8015031 0 0 1 37.5,105.79297 7.5149526,7.8015031 0 0 1 30.224609,98 7.5149526,7.8015031 0 0 1 37.5,90.208984 a 11.051401,7.8015031 0 0 1 0.294922,-0.0098 7.5149526,7.8015031 0 0 1 0.78125,0.05078 H 39.082031 63 75 V 0.00195313 H 63 12 Z"
       transform="matrix(0.26458333,0,0,0.26458333,0,-2.2028157e-5)"
       id="rect3855"
       inkscape:connector-curvature="0" />
  </g>
  <g
     inkscape:label="Layer 1"
     inkscape:groupmode="layer"
     id="layer1"
     transform="translate(0,-196.45829)"
     style="display:inline">
    <text
       xml:space="preserve"
       style="font-style:normal;font-weight:normal;font-size:2.82222223px;line-height:1.25;font-family:sans-serif;letter-spacing:0px;word-spacing:0px;fill:#ffffff;fill-opacity:1;stroke:none;stroke-width:0.26458332"
       x="17.197916"
       y="201.74998"
       id="text3821"><tspan
         sodipodi:role="line"
         id="tspan3819"
         x="17.197916"
         y="204.24699"
         style="stroke-width:0.26458332" /></text>
    <text
       xml:space="preserve"
       style="font-style:normal;font-variant:normal;font-weight:normal;font-stretch:normal;font-size:2.82222223px;line-height:1.25;font-family:'Yu Gothic UI';-inkscape-font-specification:'Yu Gothic UI';letter-spacing:0px;word-spacing:0px;fill:#ffffff;fill-opacity:1;stroke:none;stroke-width:0.26458332"
       x="6.614583"
       y="197.78123"
       id="text868"><tspan
         sodipodi:role="line"
         id="tspan866"
         x="6.614583"
         y="200.32336"
         style="stroke-width:0.26458332" /></text>
    <text
       xml:space="preserve"
       style="font-style:normal;font-variant:normal;font-weight:normal;font-stretch:normal;font-size:2.82222223px;line-height:1.25;font-family:'Yu Gothic UI';-inkscape-font-specification:'Yu Gothic UI';letter-spacing:0px;word-spacing:0px;fill:#ffffff;fill-opacity:1;stroke:none;stroke-width:0.26458332"
       x="2.6458333"
       y="220.5354"
       id="text1001"><tspan
         sodipodi:role="line"
         id="tspan999"
         x="2.6458333"
         y="223.07753"
         style="font-style:normal;font-variant:normal;font-weight:normal;font-stretch:normal;font-family:'Yu Gothic UI';-inkscape-font-specification:'Yu Gothic UI';stroke-width:0.26458332" /></text>
    <text
       xml:space="preserve"
       style="font-style:normal;font-variant:normal;font-weight:normal;font-stretch:normal;font-size:2.82222223px;line-height:1.25;font-family:'Yu Gothic UI';-inkscape-font-specification:'Yu Gothic UI';letter-spacing:0px;word-spacing:0px;fill:#ffffff;fill-opacity:1;stroke:none;stroke-width:0.26458332"
       x="2.6458333"
       y="220.79999"
       id="text1005"><tspan
         sodipodi:role="line"
         id="tspan1003"
         x="2.6458333"
         y="223.34212"
         style="font-style:normal;font-variant:normal;font-weight:normal;font-stretch:normal;font-family:'Yu Gothic UI';-inkscape-font-specification:'Yu Gothic UI';stroke-width:0.26458332" /></text>
    <g
       style="display:inline"
       id="g846"
       transform="matrix(1.13022,0,0,1.13022,-0.23369326,165.58736)">
      <circle
         transform="translate(0,-196.45831)"
         r="3.3072915"
         cy="246.72913"
         cx="9.921875"
         id="path834"
         style="display:inline;opacity:1;fill:#808080;fill-opacity:1;stroke:#4d4d4d;stroke-width:0.3ffffff1;stroke-linecap:square;stroke-linejoin:round;stroke-miterlimit:4;stroke-dasharray:none;stroke-dashoffset:0;stroke-opacity:1;paint-order:markers fill stroke" />
      <path
         inkscape:connector-curvature="0"
         id="path837"
         d="m 9.921875,52.255186 v -3.96875"
         style="display:inline;fill:none;stroke:#ffffff;stroke-width:0.86500001;stroke-linecap:round;stroke-linejoin:miter;stroke-miterlimit:4;stroke-dasharray:none;stroke-opacity:1" />
      <path
         style="display:inline;fill:none;stroke:#ffffff;stroke-width:0.86500001;stroke-linecap:round;stroke-linejoin:miter;stroke-miterlimit:4;stroke-dasharray:none;stroke-opacity:1"
         d="M 11.90625,50.270811 H 7.9375"
         id="path839"
         inkscape:connector-curvature="0" />
    </g>
    <g
       style="display:inline"
       transform="matrix(1.13022,0,0,1.13022,-0.23369326,214.27071)"
       id="g862">
      <circle
         style="display:inline;opacity:1;fill:#808080;fill-opacity:1;stroke:#4d4d4d;stroke-width:0.3ffffff1;stroke-linecap:square;stroke-linejoin:round;stroke-miterlimit:4;stroke-dasharray:none;stroke-dashoffset:0;stroke-opacity:1;paint-order:markers fill stroke"
         id="circle856"
         cx="9.921875"
         cy="246.72913"
         r="3.3072915"
         transform="translate(0,-196.45831)" />
      <path
         style="display:inline;fill:none;stroke:#ffffff;stroke-width:0.86500001;stroke-linecap:round;stroke-linejoin:miter;stroke-miterlimit:4;stroke-dasharray:none;stroke-opacity:1"
         d="m 9.921875,52.255186 v -3.96875"
         id="path858"
         inkscape:connector-curvature="0" />
      <path
         inkscape:connector-curvature="0"
         id="path860"
         d="M 11.90625,50.270811 H 7.9375"
         style="display:inline;fill:none;stroke:#ffffff;stroke-width:0.86500001;stroke-linecap:round;stroke-linejoin:miter;stroke-miterlimit:4;stroke-dasharray:none;stroke-opacity:1" />
    </g>
    <g
       aria-label="/^M^\"
       style="font-style:normal;font-variant:normal;font-weight:normal;font-stretch:normal;font-size:2.82222223px;line-height:1.25;font-family:'Copperplate Gothic Light';-inkscape-font-specification:'Copperplate Gothic Light, ';letter-spacing:0px;word-spacing:0px;fill:#ffffff;fill-opacity:1;stroke:#ffffff;stroke-width:0.2;stroke-miterlimit:4;stroke-dasharray:none;stroke-opacity:1"
       id="text956"
       transform="translate(-15.434694,3.7455938)">
      <path
         d="m 21.203855,291.40545 v 0.0386 h -0.434082 v -0.0386 q 0.09509,-0.006 0.224621,-0.17088 l 1.094162,-1.4621 q 0.07441,-0.1006 0.07441,-0.12402 0,-0.0372 -0.06615,-0.0482 v -0.0372 h 0.423058 v 0.0372 q -0.09508,0.006 -0.22462,0.17087 l -1.08176,1.46348 q -0.07579,0.10197 -0.07579,0.12402 0,0.0358 0.06615,0.0469 z"
         style="font-style:normal;font-variant:normal;font-weight:normal;font-stretch:normal;font-size:2.82222223px;line-height:1.25;font-family:'Copperplate Gothic Light';-inkscape-font-specification:'Copperplate Gothic Light, ';stroke:#ffffff;stroke-width:0.2;stroke-miterlimit:4;stroke-dasharray:none;stroke-opacity:1"
         id="path958"
         inkscape:connector-curvature="0" />
      <path
         d="M 22.940183,290.3857 H 22.73899 l 0.493338,-0.8282 h 0.243912 l 0.493338,0.8282 h -0.20395 l -0.413411,-0.68075 z"
         style="font-style:normal;font-variant:normal;font-weight:normal;font-stretch:normal;font-size:2.82222223px;line-height:1.25;font-family:'Copperplate Gothic Light';-inkscape-font-specification:'Copperplate Gothic Light, ';stroke:#ffffff;stroke-width:0.2;stroke-miterlimit:4;stroke-dasharray:none;stroke-opacity:1"
         id="path960"
         inkscape:connector-curvature="0" />
      <path
         d="m 25.342104,291.44403 -0.789616,-1.58061 v 1.418 q 0,0.0565 0.01791,0.0813 0.01791,0.0234 0.07028,0.0372 v 0.0441 h -0.373449 v -0.0441 q 0.05237,-0.0138 0.07028,-0.0372 0.01792,-0.0234 0.01792,-0.0813 v -1.5558 q 0,-0.0579 -0.01792,-0.0813 -0.01791,-0.0248 -0.07028,-0.0372 v -0.0441 h 0.487826 v 0.0441 q -0.06752,0.0234 -0.06752,0.0579 0,0.0165 0.04547,0.10611 l 0.62563,1.24161 0.628385,-1.25263 q 0.03307,-0.0661 0.03307,-0.0937 0,-0.0358 -0.06752,-0.0593 v -0.0441 h 0.49196 v 0.0441 q -0.05237,0.0138 -0.07028,0.0372 -0.01792,0.0234 -0.01792,0.0813 v 1.5558 q 0,0.0565 0.01792,0.0813 0.01791,0.0234 0.07028,0.0372 v 0.0441 h -0.392741 v -0.0441 q 0.05374,-0.0138 0.07028,-0.0372 0.01791,-0.0234 0.01791,-0.0813 v -1.418 z"
         style="font-style:normal;font-variant:normal;font-weight:normal;font-stretch:normal;font-size:2.82222223px;line-height:1.25;font-family:'Copperplate Gothic Light';-inkscape-font-specification:'Copperplate Gothic Light, ';stroke:#ffffff;stroke-width:0.2;stroke-miterlimit:4;stroke-dasharray:none;stroke-opacity:1"
         id="path962"
         inkscape:connector-curvature="0" />
      <path
         d="m 26.942006,290.3857 h -0.201193 l 0.493338,-0.8282 h 0.243912 l 0.493338,0.8282 h -0.20395 l -0.413411,-0.68075 z"
         style="font-style:normal;font-variant:normal;font-weight:normal;font-stretch:normal;font-size:2.82222223px;line-height:1.25;font-family:'Copperplate Gothic Light';-inkscape-font-specification:'Copperplate Gothic Light, ';stroke:#ffffff;stroke-width:0.2;stroke-miterlimit:4;stroke-dasharray:none;stroke-opacity:1"
         id="path964"
         inkscape:connector-curvature="0" />
      <path
         d="m 28.617701,289.56301 v 0.0372 q -0.06615,0.011 -0.06615,0.0482 0,0.0234 0.07441,0.12402 l 1.092784,1.4621 q 0.129536,0.16536 0.22462,0.17088 v 0.0386 h -0.434082 v -0.0386 q 0.06615,-0.011 0.06615,-0.0469 0,-0.0207 -0.07579,-0.12402 l -1.080382,-1.46348 q -0.129535,-0.16536 -0.22462,-0.17087 v -0.0372 z"
         style="font-style:normal;font-variant:normal;font-weight:normal;font-stretch:normal;font-size:2.82222223px;line-height:1.25;font-family:'Copperplate Gothic Light';-inkscape-font-specification:'Copperplate Gothic Light, ';stroke:#ffffff;stroke-width:0.2;stroke-miterlimit:4;stroke-dasharray:none;stroke-opacity:1"
         id="path966"
         inkscape:connector-curvature="0" />
    </g>
    <g
       transform="translate(-0.66145854,-0.60329453)"
       style="display:inline"
       id="g860">
      <path
         d="m 12.849508,200.44561 c 0.276687,1.3424 -0.148118,2.73587 -1.25987,4.1402 -0.359044,0.45065 -0.97657,1.14638 -1.006305,1.1329 -0.01738,-0.006 0.03947,-0.11844 0.119449,-0.24727 0.297941,-0.48194 0.335207,-0.57992 0.262169,-0.77456 -0.07306,-0.19471 -0.249433,-0.37534 -0.657876,-0.6614 l -0.268852,-0.19029 -0.03835,0.34502 c -0.03399,0.30403 -0.05128,0.35002 -0.141606,0.35922 -0.316396,0.0251 -0.372643,0.0461 -0.4624,0.18838 -0.05247,0.0839 -0.104459,0.14255 -0.116242,0.13746 -0.0075,-0.006 -0.135223,-0.0974 -0.273738,-0.20332 -0.2542399,-0.19083 -0.2602071,-0.19358 -0.2601995,-0.0752 -4.632e-4,0.22238 0.1164765,0.81024 0.2090455,1.05691 0.134747,0.35908 0.202956,0.38291 0.893049,0.30157 0.288412,-0.0339 0.260746,0.0113 -0.06203,0.0976 -0.733041,0.1906 -1.5339375,0.16092 -2.2771531,-0.0834 -0.2574822,-0.0811 -0.9060548,-0.37568 -1.4470056,-0.64654 -0.5366081,-0.27247 -0.987779,-0.48826 -1.0050857,-0.48175 -0.017321,0.006 -0.057326,0.11029 -0.09081,0.23154 -0.1129328,0.38302 -0.5444152,1.04838 -1.0208327,1.56771 -0.3050022,0.33158 -1.1577869,1.11067 -1.3492319,1.23188 -0.120106,0.0746 -0.045989,0.0615 0.3773823,-0.0729 0.9221569,-0.2917 1.3510848,-0.20097 2.0013672,0.41388 l 0.3365143,0.31799 0.2763716,-0.19742 c 0.4099031,-0.30194 0.9740044,-0.5087 1.3140737,-0.48374 0.4294447,0.0263 0.8037899,0.26101 1.3102017,0.82129 0.3446421,0.37912 0.3386488,0.3763 0.3554043,0.19734 0.017815,-0.18931 0.1892163,-0.37706 0.4185339,-0.46311 0.75717,-0.28413 2.851011,0.0605 3.3563,0.55201 0.160706,0.15205 0.146617,0.20662 0.141622,-0.55652 -0.0028,-0.27047 0.01767,-0.70265 0.05059,-0.95691 0.161438,-1.31923 0.589697,-1.87483 1.315601,-1.70299 0.215248,0.0475 0.223901,0.0443 0.195237,-0.1374 -0.03849,-0.28664 -0.05272,-1.10068 -0.01711,-1.47934 0.04427,-0.50024 0.237239,-0.97253 0.467069,-1.16242 0.09804,-0.0807 0.320245,-0.19889 0.501967,-0.26709 0.497572,-0.18672 0.492001,-0.17525 0.550463,-0.76921 0.0588,-0.61937 0.170161,-0.92769 0.62972,-1.74183 0.407137,-0.73026 0.564962,-1.08574 0.442765,-0.99045 -1.357907,1.03776 -2.452601,1.36951 -3.639889,1.09938 l -0.168168,-0.0404 z"
         id="path8"
         inkscape:connector-curvature="0"
         style="fill:#ffffff;stroke:none;stroke-width:0.00462135" />
      <path
         style="fill:#ffffff;stroke:none;stroke-width:0.00259451"
         inkscape:connector-curvature="0"
         id="path844"
         d="m 15.243302,214.25451 c -0.457737,0.61855 -1.19959,0.96285 -2.203312,1.02397 -0.322937,0.0186 -0.845195,0.021 -0.850697,0.004 -0.0037,-0.01 0.06433,-0.0279 0.148152,-0.0427 0.313142,-0.0559 0.368075,-0.0771 0.42211,-0.18049 0.05406,-0.1035 0.06353,-0.24491 0.03017,-0.52287 l -0.02113,-0.18371 -0.158648,0.1132 c -0.139869,0.0997 -0.165577,0.10966 -0.203267,0.0754 -0.128957,-0.12298 -0.158852,-0.1386 -0.25207,-0.12265 -0.0547,0.009 -0.09873,0.01 -0.101015,0.003 -5.1e-5,-0.006 -0.01,-0.093 -0.01751,-0.19063 -0.01543,-0.1778 -0.01651,-0.18133 -0.06605,-0.13694 -0.09317,0.0831 -0.295202,0.35221 -0.363687,0.48332 -0.09969,0.19086 -0.08411,0.22831 0.208411,0.48642 0.122177,0.10793 0.09315,0.11307 -0.06408,0.0106 -0.35429,-0.23515 -0.641872,-0.5812 -0.818113,-0.9835 -0.06254,-0.13804 -0.182279,-0.51963 -0.271636,-0.84731 -0.08706,-0.32646 -0.165814,-0.59597 -0.175013,-0.60077 -0.0092,-0.005 -0.06761,0.0174 -0.130847,0.0488 -0.202484,0.0963 -0.6423507,0.16503 -1.0379827,0.16032 -0.2529052,-0.003 -0.8981504,-0.0681 -1.0205509,-0.1028 -0.076162,-0.0223 -0.042978,0.004 0.17186,0.1305 0.4673878,0.2764 0.5901286,0.48973 0.5765847,0.99198 l -0.00693,0.25984 0.186102,0.0416 c 0.2798283,0.0583 0.5775862,0.21674 0.6944845,0.3684 0.1498684,0.18941 0.1919294,0.4339 0.1473124,0.85555 -0.02944,0.28613 -0.03051,0.28256 0.05061,0.22254 0.08584,-0.0635 0.228557,-0.0621 0.350441,0.002 0.40244,0.21021 1.042631,1.21492 1.026347,1.61034 -0.0034,0.12417 -0.03149,0.13872 0.285774,-0.14922 0.112062,-0.10249 0.300463,-0.25581 0.419121,-0.33728 0.612158,-0.42665 1.004922,-0.45567 1.20497,-0.0877 0.06078,0.10778 0.06538,0.11019 0.130584,0.0302 0.105447,-0.12347 0.440554,-0.43435 0.612237,-0.56129 0.225781,-0.16886 0.495569,-0.26508 0.66107,-0.2401 0.07049,0.0108 0.203141,0.0594 0.299728,0.10985 0.264462,0.13814 0.257547,0.14017 0.527871,-0.0579 0.28104,-0.20741 0.451684,-0.27633 0.964292,-0.38911 0.457889,-0.10328 0.665666,-0.17043 0.580047,-0.18584 -0.942625,-0.17914 -1.49141,-0.51266 -1.823168,-1.11036 l -0.0461,-0.0855 z" />
      <path
         d="m 8.6615794,234.04112 c -0.7453638,0.1912 -1.5381813,-0.01 -2.3555572,-0.59536 -0.2623104,-0.18928 -0.6690613,-0.51686 -0.6626066,-0.53353 0.00344,-0.0101 0.067515,0.0189 0.1418918,0.0603 0.2782396,0.15416 0.3342372,0.17236 0.4413848,0.12622 0.1072364,-0.0462 0.2037881,-0.14995 0.3532447,-0.38668 l 0.099492,-0.15587 -0.1945085,-0.0122 c -0.1714212,-0.0109 -0.1976518,-0.0194 -0.205285,-0.0697 -0.022484,-0.17677 -0.035827,-0.20775 -0.1182197,-0.25418 -0.048121,-0.0275 -0.082916,-0.0545 -0.080273,-0.0614 0.00375,-0.005 0.050907,-0.0785 0.1066659,-0.15897 0.1001864,-0.14769 0.1015752,-0.15111 0.035134,-0.14792 -0.1247144,0.006 -0.4512365,0.0871 -0.5870826,0.14561 -0.1977502,0.0852 -0.2092852,0.12409 -0.1451287,0.5089 0.026717,0.16081 9.518e-4,0.14649 -0.056408,-0.0322 -0.1265686,-0.40595 -0.1314189,-0.85588 -0.014393,-1.27921 0.038551,-0.14656 0.1863547,-0.51818 0.3237255,-0.82881 0.1383836,-0.30823 0.247287,-0.56703 0.2431771,-0.57656 -0.00398,-0.01 -0.063437,-0.0291 -0.1323122,-0.0447 -0.2178615,-0.053 -0.6025243,-0.27715 -0.9065369,-0.53038 -0.1943448,-0.16186 -0.6539454,-0.61941 -0.7270306,-0.72355 -0.045029,-0.0653 -0.035871,-0.024 0.05103,0.20968 0.1883038,0.5093 0.1489703,0.75226 -0.1783662,1.13342 l -0.1692884,0.19725 0.1181606,0.14968 c 0.1803512,0.22175 0.3114448,0.53252 0.3064804,0.72394 -0.0032,0.24151 -0.1247869,0.45775 -0.4253902,0.75678 -0.2033389,0.20344 -0.2019171,0.2 -0.1011119,0.2046 0.1066628,0.005 0.2165184,0.096 0.2706569,0.22261 0.1796624,0.41698 0.04262,1.60041 -0.2194525,1.89696 -0.080967,0.0942 -0.1119409,0.0878 0.3158717,0.0645 0.1516049,-0.009 0.3945081,-0.009 0.5379712,0.003 0.7441309,0.0551 1.0671955,0.28036 0.9902979,0.69207 -0.020828,0.12197 -0.018779,0.12674 0.082274,0.10581 0.1597066,-0.0293 0.6158351,-0.0591 0.8291253,-0.0493 0.2817104,0.0114 0.5517447,0.10693 0.6644043,0.23071 0.047883,0.0529 0.1201532,0.17424 0.1632735,0.27431 0.1180637,0.27402 0.1114176,0.27123 0.4461165,0.28807 0.3489051,0.0163 0.5247901,0.0705 0.9936821,0.30636 0.420442,0.20871 0.624022,0.28767 0.567308,0.22171 -0.618409,-0.73363 -0.833839,-1.3386 -0.714222,-2.01165 l 0.01816,-0.0954 z"
         id="path846"
         inkscape:connector-curvature="0"
         style="fill:#ffffff;stroke:none;stroke-width:0.00259451" />
      <path
         style="fill:#ffffff;stroke:none;stroke-width:0.00406282"
         inkscape:connector-curvature="0"
         id="path848"
         d="m 13.716099,235.09208 c 0.590742,1.05022 0.607025,2.33099 0.05216,3.80427 -0.180223,0.47337 -0.511234,1.22122 -0.539092,1.21819 -0.01684,-5.1e-4 0.0013,-0.10979 0.03379,-0.23903 0.120661,-0.48329 0.125543,-0.57535 0.0124,-0.71877 -0.113316,-0.14354 -0.309269,-0.24765 -0.727834,-0.37801 l -0.276034,-0.0875 0.06023,0.29917 c 0.05282,0.26375 0.05058,0.30687 -0.0224,0.33876 -0.25832,0.1055 -0.299795,0.13824 -0.336701,0.28165 -0.02217,0.0839 -0.04885,0.14748 -0.06039,0.14624 -0.0093,-0.004 -0.139488,-0.0448 -0.283633,-0.0971 -0.263942,-0.0918 -0.269703,-0.0925 -0.237964,0.007 0.05914,0.18633 0.314289,0.64738 0.457757,0.82922 0.208871,0.26469 0.272371,0.26641 0.828559,0.0137 0.232466,-0.10546 0.221217,-0.0607 -0.02584,0.0984 -0.562915,0.35567 -1.241593,0.545 -1.929344,0.53919 -0.237323,0.001 -0.8592713,-0.0723 -1.3847573,-0.15448 -0.5222605,-0.0847 -0.9578221,-0.14473 -0.9705743,-0.13465 -0.013507,0.0102 -0.018386,0.10775 -0.014105,0.21824 0.00794,0.35102 -0.1755524,1.0236 -0.4357126,1.58593 -0.1662431,0.35946 -0.6725123,1.23983 -0.800494,1.39251 -0.08056,0.0945 -0.02181,0.0639 0.2965678,-0.16202 0.694285,-0.49087 1.0777397,-0.52963 1.7867624,-0.18863 l 0.366877,0.1763 0.178645,-0.23929 c 0.262513,-0.36253 0.67961,-0.68655 0.971196,-0.75648 0.366646,-0.0928 0.742956,0.004 1.316921,0.3374 0.390006,0.22533 0.38424,0.22453 0.350421,0.0702 -0.03541,-0.16343 0.05764,-0.36639 0.227281,-0.4995 0.558126,-0.44045 2.403834,-0.71183 2.958462,-0.43532 0.17516,0.0846 0.178118,0.13378 -0.03019,-0.50395 -0.07495,-0.2257 -0.173201,-0.59316 -0.21278,-0.81512 -0.217626,-1.148 -0.0076,-1.72784 0.646375,-1.77805 0.192949,-0.0179 0.199322,-0.0228 0.126794,-0.16725 -0.108941,-0.22975 -0.338465,-0.90773 -0.409959,-1.23435 -0.09666,-0.43079 -0.06141,-0.87793 0.08027,-1.09843 0.06062,-0.0938 0.214989,-0.25224 0.348931,-0.35796 0.366777,-0.28943 0.365245,-0.27826 0.25534,-0.79139 -0.116493,-0.53441 -0.105619,-0.82242 0.06152,-1.62714 0.145667,-0.72047 0.182768,-1.06038 0.105925,-0.94791 -0.859673,1.23226 -1.687733,1.80288 -2.754301,1.89418 l -0.151662,0.0111 z" />
      <path
         d="m 15.644012,254.71698 c -1.421501,0.93154 -3.222263,1.07669 -5.348441,0.4365 -0.6833337,-0.20843 -1.767311,-0.60286 -1.7657061,-0.64236 -8.896e-4,-0.0237 0.154622,-0.008 0.3395913,0.0247 0.6916084,0.12369 0.8216223,0.12172 1.0126461,-0.0512 0.1911757,-0.17316 0.3189787,-0.45884 0.4624737,-1.06029 l 0.09678,-0.39679 -0.415248,0.11326 c -0.3661108,0.0994 -0.4270036,0.10042 -0.4788451,8.2e-4 -0.1731159,-0.35345 -0.2231466,-0.40869 -0.4284775,-0.44693 -0.1201813,-0.0231 -0.2121983,-0.0547 -0.2115547,-0.0711 0.00474,-0.0141 0.049729,-0.20056 0.1095691,-0.40839 0.1039908,-0.38019 0.1044266,-0.38837 -0.032563,-0.33421 -0.2565615,0.10099 -0.8810049,0.50407 -1.1231994,0.72331 -0.3525399,0.3192 -0.3488996,0.40872 0.059801,1.16727 0.1705921,0.31707 0.1065311,0.3055 -0.140936,-0.0269 -0.55423,-0.7582 -0.8854331,-1.69517 -0.9428985,-2.66354 -0.024058,-0.33387 0.019729,-1.21608 0.085221,-1.96339 0.069345,-0.74302 0.1122475,-1.36167 0.096847,-1.37865 -0.015643,-0.0181 -0.153382,-0.0157 -0.3084564,9.7e-4 -0.4932021,0.0447 -1.4571788,-0.14934 -2.2733276,-0.46176 -0.5217037,-0.19964 -1.8088922,-0.82805 -2.0359605,-0.99356 -0.1406709,-0.10438 -0.092002,-0.0245 0.2563022,0.40186 0.7570237,0.93016 0.8481655,1.46606 0.4359774,2.49635 l -0.2130757,0.5331 0.3537826,0.22855 c 0.5352122,0.33481 1.0309866,0.89084 1.1572229,1.29448 0.1655835,0.5071 0.065281,1.04589 -0.3491022,1.8854 -0.2798638,0.57033 -0.2792884,0.56214 -0.06534,0.49981 0.2266011,-0.0654 0.5210902,0.0461 0.7245954,0.27216 0.6730765,0.74336 1.2311269,3.31477 0.894954,4.12165 -0.1023321,0.25455 -0.1712568,0.26341 0.7062838,-0.0906 0.3104544,-0.12709 0.8181716,-0.30034 1.1267392,-0.37723 1.5947097,-0.41581 2.4307139,-0.1756 2.5637877,0.73989 0.043605,0.26981 0.051109,0.27831 0.2474583,0.16246 0.312909,-0.17522 1.245065,-0.56292 1.697866,-0.6947 0.596987,-0.17714 1.229573,-0.17022 1.553386,0.008 0.137782,0.0763 0.375475,0.27846 0.537029,0.45686 0.442296,0.48851 0.426432,0.48742 1.138026,0.28378 0.74091,-0.21494 1.147238,-0.22712 2.295604,-0.0687 1.027758,0.13625 1.509625,0.15598 1.344021,0.0585 -1.816103,-1.09212 -2.69812,-2.20292 -2.928395,-3.6951 l -0.0301,-0.21235 z"
         id="path850"
         inkscape:connector-curvature="0"
         style="fill:#ffffff;stroke:none;stroke-width:0.00573039" />
      <path
         d="m 5.7307254,280.87036 c 0.6963701,0.94103 1.8249749,1.46482 3.3519699,1.5578 0.491295,0.0283 1.2858227,0.0319 1.2941927,0.006 0.0056,-0.0152 -0.09787,-0.0425 -0.225388,-0.065 -0.4763937,-0.085 -0.5599647,-0.1173 -0.6421697,-0.27459 -0.08224,-0.15746 -0.09665,-0.37259 -0.0459,-0.79546 l 0.03215,-0.27948 0.241356,0.17221 c 0.212788,0.15168 0.251898,0.16683 0.3092367,0.11471 0.196187,-0.18709 0.241667,-0.21085 0.383482,-0.18659 0.08322,0.0137 0.150202,0.0152 0.153678,0.005 7.7e-5,-0.009 0.01521,-0.14149 0.02664,-0.29002 0.02347,-0.27049 0.02512,-0.27586 0.100484,-0.20833 0.141743,0.12643 0.449101,0.53583 0.553289,0.73529 0.151662,0.29036 0.127959,0.34734 -0.317062,0.74001 -0.185872,0.1642 -0.141712,0.17202 0.09749,0.0161 0.538992,-0.35775 0.9765,-0.8842 1.244621,-1.49623 0.09515,-0.21001 0.277307,-0.79053 0.413249,-1.28904 0.132447,-0.49666 0.252258,-0.90667 0.266253,-0.91398 0.014,-0.008 0.102857,0.0265 0.199062,0.0743 0.308045,0.1465 0.977229,0.25106 1.579117,0.2439 0.384752,-0.005 1.366385,-0.10361 1.552596,-0.1564 0.115864,-0.0339 0.06539,0.006 -0.261457,0.19854 -0.71105,0.42049 -0.89778,0.74504 -0.877175,1.50913 l 0.0105,0.3953 -0.283123,0.0633 c -0.425713,0.0887 -0.8787,0.32973 -1.056543,0.56046 -0.227999,0.28815 -0.291988,0.6601 -0.22411,1.30157 0.04479,0.4353 0.04642,0.42987 -0.077,0.33856 -0.130591,-0.0966 -0.347711,-0.0945 -0.533137,0.003 -0.612245,0.3198 -1.586188,1.8483 -1.561415,2.44987 0.0052,0.1889 0.04791,0.21103 -0.434757,-0.22702 -0.170484,-0.15592 -0.457104,-0.38917 -0.637623,-0.51311 -0.9312947,-0.64908 -1.5288197,-0.69323 -1.8331587,-0.13342 -0.09247,0.16397 -0.09947,0.16763 -0.198663,0.0459 -0.16042,-0.18784 -0.670229,-0.66079 -0.931416,-0.85391 -0.343488,-0.25689 -0.753925,-0.40327 -1.0057068,-0.36527 -0.1072388,0.0164 -0.309045,0.0904 -0.455986,0.16712 -0.4023345,0.21015 -0.3918145,0.21324 -0.8030672,-0.0881 -0.4275552,-0.31554 -0.6871615,-0.42039 -1.4670086,-0.59196 -0.6966014,-0.15713 -1.0126992,-0.25928 -0.8824443,-0.28273 1.4340459,-0.27253 2.2689303,-0.77992 2.7736445,-1.68922 l 0.070133,-0.13008 z"
         id="path852"
         inkscape:connector-curvature="0"
         style="fill:#ffffff;stroke:none;stroke-width:0.00394711" />
    </g>
  </g>
</svg>
