<?xml version="1.0" encoding="UTF-8" standalone="no"?>
<!-- Created with Inkscape (http://www.inkscape.org/) -->

<svg
   xmlns:dc="http://purl.org/dc/elements/1.1/"
   xmlns:cc="http://creativecommons.org/ns#"
   xmlns:rdf="http://www.w3.org/1999/02/22-rdf-syntax-ns#"
   xmlns:svg="http://www.w3.org/2000/svg"
   xmlns="http://www.w3.org/2000/svg"
   xmlns:sodipodi="http://sodipodi.sourceforge.net/DTD/sodipodi-0.dtd"
   xmlns:inkscape="http://www.inkscape.org/namespaces/inkscape"
   width="75"
   height="380"
   viewBox="0 0 19.843751 100.54167"
   version="1.1"
   id="svg8"
   inkscape:version="0.92.4 (5da689c313, 2019-01-14)"
   sodipodi:docname="SequencerExpanderTSG.svg">
  <defs
     id="defs2">
    <pattern
       y="0"
       x="0"
       height="6"
       width="6"
       patternUnits="userSpaceOnUse"
       id="EMFhbasepattern" />
  </defs>
  <sodipodi:namedview
     id="base"
     pagecolor="#ffffff"
     bordercolor="#666666"
     borderopacity="1.0"
     inkscape:pageopacity="0.0"
     inkscape:pageshadow="2"
     inkscape:zoom="2.2789474"
     inkscape:cx="-37.315241"
     inkscape:cy="190"
     inkscape:document-units="mm"
     inkscape:current-layer="layer1"
     showgrid="true"
     units="px"
     inkscape:snap-bbox="true"
     inkscape:snap-page="true"
     inkscape:bbox-nodes="true"
     inkscape:snap-bbox-edge-midpoints="true"
     inkscape:window-width="1920"
     inkscape:window-height="1017"
     inkscape:window-x="-8"
     inkscape:window-y="-8"
     inkscape:window-maximized="1"
     inkscape:snap-intersection-paths="true">
    <inkscape:grid
       type="xygrid"
       id="grid116" />
  </sodipodi:namedview>
  <metadata
     id="metadata5">
    <rdf:RDF>
      <cc:Work
         rdf:about="">
        <dc:format>image/svg+xml</dc:format>
        <dc:type
           rdf:resource="http://purl.org/dc/dcmitype/StillImage" />
        <dc:title />
      </cc:Work>
    </rdf:RDF>
  </metadata>
  <g
     inkscape:groupmode="layer"
     id="layer3"
     inkscape:label="Panel"
     style="display:inline"
     sodipodi:insensitive="true">
    <path
       transform="matrix(1.25,0,0,1,0,-196.45832)"
       sodipodi:type="inkscape:offset"
       inkscape:radius="0"
       inkscape:original="M 0 196.45898 L 0 297 L 15.875 297 L 15.875 196.45898 L 0 196.45898 z "
       style="display:inline;fill:#000000;stroke-width:0.3310422"
       id="rect3855"
       d="M 0,196.45898 V 297 H 15.875 V 196.45898 Z" />
  </g>
  <g
     inkscape:label="Layer 1"
     inkscape:groupmode="layer"
     id="layer1"
     transform="translate(0,-196.45832)"
     style="display:inline">
    <text
       xml:space="preserve"
       style="font-style:normal;font-weight:normal;font-size:2.82222223px;line-height:1.25;font-family:sans-serif;letter-spacing:0px;word-spacing:0px;fill:#ffffff;fill-opacity:1;stroke:none;stroke-width:0.26458332"
       x="17.197916"
       y="201.74998"
       id="text3821"><tspan
         sodipodi:role="line"
         id="tspan3819"
         x="17.197916"
         y="204.24699"
         style="stroke-width:0.26458332" /></text>
    <rect
       style="fill:#333333;stroke-width:0.1065141"
       id="rect897-2-1-8"
       width="10.583334"
       height="10.583333"
       x="6.6145835"
       y="-289.59164"
       transform="scale(1,-1)" />
    <g
       aria-label="/^M^\"
       style="font-style:normal;font-variant:normal;font-weight:normal;font-stretch:normal;font-size:2.82222223px;line-height:1.25;font-family:'Copperplate Gothic Light';-inkscape-font-specification:'Copperplate Gothic Light, ';letter-spacing:0px;word-spacing:0px;fill:#ffffff;fill-opacity:1;stroke:#ffffff;stroke-width:0.2;stroke-miterlimit:4;stroke-dasharray:none;stroke-opacity:1"
       id="text956"
       transform="translate(-11.201358,3.7456238)">
      <path
         d="m 21.203855,291.40545 v 0.0386 h -0.434082 v -0.0386 q 0.09509,-0.006 0.224621,-0.17088 l 1.094162,-1.4621 q 0.07441,-0.1006 0.07441,-0.12402 0,-0.0372 -0.06615,-0.0482 v -0.0372 h 0.423058 v 0.0372 q -0.09508,0.006 -0.22462,0.17087 l -1.08176,1.46348 q -0.07579,0.10197 -0.07579,0.12402 0,0.0358 0.06615,0.0469 z"
         style="font-style:normal;font-variant:normal;font-weight:normal;font-stretch:normal;font-size:2.82222223px;line-height:1.25;font-family:'Copperplate Gothic Light';-inkscape-font-specification:'Copperplate Gothic Light, ';stroke:#ffffff;stroke-width:0.2;stroke-miterlimit:4;stroke-dasharray:none;stroke-opacity:1"
         id="path958"
         inkscape:connector-curvature="0" />
      <path
         d="M 22.940183,290.3857 H 22.73899 l 0.493338,-0.8282 h 0.243912 l 0.493338,0.8282 h -0.20395 l -0.413411,-0.68075 z"
         style="font-style:normal;font-variant:normal;font-weight:normal;font-stretch:normal;font-size:2.82222223px;line-height:1.25;font-family:'Copperplate Gothic Light';-inkscape-font-specification:'Copperplate Gothic Light, ';stroke:#ffffff;stroke-width:0.2;stroke-miterlimit:4;stroke-dasharray:none;stroke-opacity:1"
         id="path960"
         inkscape:connector-curvature="0" />
      <path
         d="m 25.342104,291.44403 -0.789616,-1.58061 v 1.418 q 0,0.0565 0.01791,0.0813 0.01791,0.0234 0.07028,0.0372 v 0.0441 h -0.373449 v -0.0441 q 0.05237,-0.0138 0.07028,-0.0372 0.01792,-0.0234 0.01792,-0.0813 v -1.5558 q 0,-0.0579 -0.01792,-0.0813 -0.01791,-0.0248 -0.07028,-0.0372 v -0.0441 h 0.487826 v 0.0441 q -0.06752,0.0234 -0.06752,0.0579 0,0.0165 0.04547,0.10611 l 0.62563,1.24161 0.628385,-1.25263 q 0.03307,-0.0661 0.03307,-0.0937 0,-0.0358 -0.06752,-0.0593 v -0.0441 h 0.49196 v 0.0441 q -0.05237,0.0138 -0.07028,0.0372 -0.01792,0.0234 -0.01792,0.0813 v 1.5558 q 0,0.0565 0.01792,0.0813 0.01791,0.0234 0.07028,0.0372 v 0.0441 h -0.392741 v -0.0441 q 0.05374,-0.0138 0.07028,-0.0372 0.01791,-0.0234 0.01791,-0.0813 v -1.418 z"
         style="font-style:normal;font-variant:normal;font-weight:normal;font-stretch:normal;font-size:2.82222223px;line-height:1.25;font-family:'Copperplate Gothic Light';-inkscape-font-specification:'Copperplate Gothic Light, ';stroke:#ffffff;stroke-width:0.2;stroke-miterlimit:4;stroke-dasharray:none;stroke-opacity:1"
         id="path962"
         inkscape:connector-curvature="0" />
      <path
         d="m 26.942006,290.3857 h -0.201193 l 0.493338,-0.8282 h 0.243912 l 0.493338,0.8282 h -0.20395 l -0.413411,-0.68075 z"
         style="font-style:normal;font-variant:normal;font-weight:normal;font-stretch:normal;font-size:2.82222223px;line-height:1.25;font-family:'Copperplate Gothic Light';-inkscape-font-specification:'Copperplate Gothic Light, ';stroke:#ffffff;stroke-width:0.2;stroke-miterlimit:4;stroke-dasharray:none;stroke-opacity:1"
         id="path964"
         inkscape:connector-curvature="0" />
      <path
         d="m 28.617701,289.56301 v 0.0372 q -0.06615,0.011 -0.06615,0.0482 0,0.0234 0.07441,0.12402 l 1.092784,1.4621 q 0.129536,0.16536 0.22462,0.17088 v 0.0386 h -0.434082 v -0.0386 q 0.06615,-0.011 0.06615,-0.0469 0,-0.0207 -0.07579,-0.12402 l -1.080382,-1.46348 q -0.129535,-0.16536 -0.22462,-0.17087 v -0.0372 z"
         style="font-style:normal;font-variant:normal;font-weight:normal;font-stretch:normal;font-size:2.82222223px;line-height:1.25;font-family:'Copperplate Gothic Light';-inkscape-font-specification:'Copperplate Gothic Light, ';stroke:#ffffff;stroke-width:0.2;stroke-miterlimit:4;stroke-dasharray:none;stroke-opacity:1"
         id="path966"
         inkscape:connector-curvature="0" />
    </g>
    <rect
       transform="scale(1,-1)"
       y="-222.84578"
       x="6.6145835"
       height="10.512457"
       width="10.583334"
       id="rect1094"
       style="fill:#333333;stroke-width:0.10615684" />
    <rect
       style="fill:#333333;stroke-width:0.10651411"
       id="rect1092"
       width="10.583334"
       height="10.583333"
       x="6.6145835"
       y="-245.14165"
       transform="scale(1,-1)" />
    <rect
       transform="scale(1,-1)"
       y="-267.36664"
       x="6.6145835"
       height="10.583333"
       width="10.583334"
       id="rect1090"
       style="fill:#333333;stroke-width:0.10651412" />
    <rect
       transform="scale(1,-1)"
       y="-278.47916"
       x="6.6145835"
       height="10.583334"
       width="10.583334"
       id="rect899"
       style="fill:#333333;stroke-width:0.10651411" />
    <rect
       style="fill:#333333;stroke-width:0.1065141"
       id="rect901"
       width="10.583334"
       height="10.583333"
       x="6.6145835"
       y="-211.80415"
       transform="scale(1,-1)" />
    <rect
       transform="scale(1,-1)"
       y="-234.02916"
       x="6.6145835"
       height="10.583333"
       width="10.583334"
       id="rect903"
       style="fill:#333333;stroke-width:0.1065141" />
    <rect
       style="fill:#333333;stroke-width:0.10651409"
       id="rect905"
       width="10.583334"
       height="10.583333"
       x="6.6145835"
       y="-256.25415"
       transform="scale(1,-1)" />
    <g
       aria-label="TSGX"
       style="font-style:normal;font-variant:normal;font-weight:600;font-stretch:normal;font-size:3.52777767px;line-height:1.25;font-family:'Yu Gothic UI';-inkscape-font-specification:'Yu Gothic UI Semi-Bold';letter-spacing:0px;word-spacing:0px;fill:#ffffff;fill-opacity:1;stroke:none;stroke-width:0.26458332"
       id="text909"
       transform="matrix(0.94639563,0,0,1,2.7371122,-0.10363666)">
      <path
         d="M 8.9999807,198.00958 H 8.290291 v 2.12218 H 7.8803247 v -2.12218 H 7.1723576 v -0.34795 h 1.8276231 z"
         style="font-style:normal;font-variant:normal;font-weight:600;font-stretch:normal;font-size:3.52777767px;font-family:'Yu Gothic UI';-inkscape-font-specification:'Yu Gothic UI Semi-Bold';stroke-width:0.26458332"
         id="path912"
         inkscape:connector-curvature="0" />
      <path
         d="m 9.2170216,200.03357 v -0.42202 q 0.056844,0.0517 0.1343587,0.093 0.079237,0.0413 0.1670872,0.0706 0.08785,0.0276 0.1756998,0.0431 0.08785,0.0155 0.1619195,0.0155 0.2583822,0 0.3841282,-0.0861 0.127468,-0.0861 0.127468,-0.24977 0,-0.0879 -0.04306,-0.15158 -0.04134,-0.0655 -0.117133,-0.11886 -0.07579,-0.0534 -0.179145,-0.10163 -0.1016307,-0.0499 -0.218764,-0.10335 -0.125746,-0.0672 -0.2342665,-0.13608 -0.1085205,-0.0689 -0.1894802,-0.15159 -0.079237,-0.0844 -0.125746,-0.18948 -0.044786,-0.10507 -0.044786,-0.24632 0,-0.17398 0.077515,-0.30145 0.079237,-0.12919 0.2067057,-0.21187 0.1291911,-0.0844 0.2928331,-0.12402 0.1636421,-0.0413 0.3341749,-0.0413 0.387573,0 0.564995,0.0878 v 0.40479 q -0.21015,-0.15158 -0.54088,-0.15158 -0.09129,0 -0.18259,0.0172 -0.089572,0.0172 -0.1619195,0.0568 -0.070624,0.0396 -0.1154107,0.10163 -0.044786,0.062 -0.044786,0.14986 0,0.0827 0.034451,0.14297 0.034451,0.0603 0.099908,0.11025 0.067179,0.0499 0.1619195,0.0982 0.096463,0.0465 0.2222087,0.10163 0.129191,0.0672 0.242879,0.14125 0.115411,0.0741 0.201538,0.16364 0.08785,0.0896 0.137804,0.19982 0.05168,0.10852 0.05168,0.24804 0,0.18776 -0.07579,0.31695 -0.07579,0.12919 -0.204983,0.21015 -0.127468,0.081 -0.294556,0.11714 -0.167087,0.0362 -0.3531217,0.0362 -0.062012,0 -0.1533068,-0.0103 -0.089572,-0.009 -0.1843126,-0.0276 -0.09474,-0.0172 -0.1791449,-0.0431 -0.084405,-0.0258 -0.1360813,-0.0586 z"
         style="font-style:normal;font-variant:normal;font-weight:600;font-stretch:normal;font-size:3.52777767px;font-family:'Yu Gothic UI';-inkscape-font-specification:'Yu Gothic UI Semi-Bold';stroke-width:0.26458332"
         id="path914"
         inkscape:connector-curvature="0" />
      <path
         d="m 13.180604,199.96295 q -0.385851,0.21015 -0.859551,0.21015 -0.547771,0 -0.887112,-0.34106 -0.339342,-0.34107 -0.339342,-0.90262 0,-0.57361 0.370347,-0.94051 0.372071,-0.36862 0.943957,-0.36862 0.411688,0 0.692464,0.12057 v 0.42203 q -0.284221,-0.18948 -0.676962,-0.18948 -0.394463,0 -0.647677,0.2601 -0.251492,0.26011 -0.251492,0.67352 0,0.42547 0.217041,0.67007 0.217041,0.24288 0.589111,0.24288 0.254937,0 0.440972,-0.0982 v -0.58739 h -0.520209 v -0.34451 h 0.928453 z"
         style="font-style:normal;font-variant:normal;font-weight:600;font-stretch:normal;font-size:3.52777767px;font-family:'Yu Gothic UI';-inkscape-font-specification:'Yu Gothic UI Semi-Bold';stroke-width:0.26458332"
         id="path916"
         inkscape:connector-curvature="0" />
      <path
         d="m 15.559442,200.13176 h -0.490926 l -0.506429,-0.90606 q -0.02239,-0.0413 -0.04995,-0.11713 h -0.0069 q -0.0155,0.0379 -0.05168,0.11713 l -0.521932,0.90606 h -0.494371 l 0.809598,-1.24196 -0.744141,-1.22817 h 0.501261 l 0.44614,0.83371 q 0.04306,0.0827 0.07752,0.16536 h 0.0052 q 0.04995,-0.10852 0.08613,-0.17225 l 0.463365,-0.82682 h 0.461643 l -0.761366,1.22473 z"
         style="font-style:normal;font-variant:normal;font-weight:600;font-stretch:normal;font-size:3.52777767px;font-family:'Yu Gothic UI';-inkscape-font-specification:'Yu Gothic UI Semi-Bold';stroke-width:0.26458332"
         id="path918"
         inkscape:connector-curvature="0" />
    </g>
    <g
       aria-label="A"
       style="font-style:normal;font-variant:normal;font-weight:normal;font-stretch:normal;font-size:2.82222223px;line-height:1.25;font-family:'Yu Gothic UI';-inkscape-font-specification:'Yu Gothic UI';letter-spacing:0px;word-spacing:0px;fill:#ffffff;fill-opacity:1;stroke:none;stroke-width:0.26458332"
       id="text870"
       transform="translate(18.94528,-1.9985492)">
      <path
         d="m -6.1488064,205.71873 h -0.2563151 l -0.2094618,-0.55397 h -0.8378473 l -0.1970594,0.55397 h -0.2576932 l 0.7579211,-1.9761 h 0.2397786 z m -0.541569,-0.76205 -0.3100586,-0.84198 q -0.015158,-0.0413 -0.030317,-0.13229 h -0.00551 q -0.01378,0.0841 -0.031695,0.13229 l -0.3073025,0.84198 z"
         style="stroke-width:0.26458332"
         id="path926"
         inkscape:connector-curvature="0" />
    </g>
    <g
       aria-label="B"
       style="font-style:normal;font-variant:normal;font-weight:normal;font-stretch:normal;font-size:2.82222223px;line-height:1.25;font-family:'Yu Gothic UI';-inkscape-font-specification:'Yu Gothic UI';letter-spacing:0px;word-spacing:0px;fill:#ffffff;fill-opacity:1;stroke:none;stroke-width:0.26458332"
       id="text874"
       transform="translate(16.341476,6.4444943)">
      <path
         d="m -5.0325953,208.36456 v -1.9761 h 0.5622396 q 0.2563151,0 0.4065212,0.1254 0.1502062,0.1254 0.1502062,0.32659 0,0.16812 -0.09095,0.29215 -0.090951,0.12402 -0.250803,0.17639 v 0.006 q 0.1998156,0.0234 0.3197049,0.15158 0.1198893,0.12678 0.1198893,0.33073 0,0.25356 -0.181901,0.41066 -0.1819011,0.15709 -0.4588868,0.15709 z m 0.2315104,-1.76664 v 0.63803 h 0.2370226 q 0.1901692,0 0.2990343,-0.0909 0.108865,-0.0923 0.108865,-0.25907 0,-0.28801 -0.3789605,-0.28801 z m 0,0.84611 v 0.71107 h 0.3141927 q 0.2039497,0 0.3155707,-0.0965 0.1129992,-0.0965 0.1129992,-0.26458 0,-0.35003 -0.4768012,-0.35003 z"
         style="stroke-width:0.26458332"
         id="path922"
         inkscape:connector-curvature="0" />
    </g>
    <g
       aria-label="C"
       style="font-style:normal;font-variant:normal;font-weight:normal;font-stretch:normal;font-size:2.82222223px;line-height:1.25;font-family:'Yu Gothic UI';-inkscape-font-specification:'Yu Gothic UI';letter-spacing:0px;word-spacing:0px;fill:#ffffff;fill-opacity:1;stroke:none;stroke-width:0.26458332"
       id="text878"
       transform="translate(16.342165,13.569342)">
      <path
         d="m -3.68763,212.25063 q -0.2191081,0.11576 -0.5457032,0.11576 -0.4216797,0 -0.6752387,-0.27148 -0.253559,-0.27147 -0.253559,-0.71244 0,-0.47405 0.2852539,-0.76619 0.2852539,-0.29215 0.72347,-0.29215 0.2811198,0 0.465777,0.0813 v 0.24667 q -0.2122179,-0.11851 -0.468533,-0.11851 -0.3403755,0 -0.5525933,0.22737 -0.2108399,0.22738 -0.2108399,0.60772 0,0.36104 0.1970595,0.57602 0.1984375,0.21359 0.5195204,0.21359 0.2976562,0 0.5153863,-0.13229 z"
         style="stroke-width:0.26458332"
         id="path919"
         inkscape:connector-curvature="0" />
    </g>
    <g
       aria-label="D"
       style="font-style:normal;font-variant:normal;font-weight:normal;font-stretch:normal;font-size:2.82222223px;line-height:1.25;font-family:'Yu Gothic UI';-inkscape-font-specification:'Yu Gothic UI';letter-spacing:0px;word-spacing:0px;fill:#ffffff;fill-opacity:1;stroke:none;stroke-width:0.26458332"
       id="text882"
       transform="translate(16.154752,19.413803)">
      <path
         d="m -5.0325953,217.62498 v -1.9761 h 0.5457031 q 1.044553,0 1.044553,0.96325 0,0.45751 -0.2907661,0.73587 -0.289388,0.27698 -0.7758355,0.27698 z m 0.2315104,-1.76664 v 1.55718 h 0.2949002 q 0.3886067,0 0.6049587,-0.20808 0.216352,-0.20808 0.216352,-0.5898 0,-0.7593 -0.8075304,-0.7593 z"
         style="stroke-width:0.26458332"
         id="path913"
         inkscape:connector-curvature="0" />
    </g>
    <g
       aria-label="E"
       style="font-style:normal;font-variant:normal;font-weight:normal;font-stretch:normal;font-size:2.82222223px;line-height:1.25;font-family:'Yu Gothic UI';-inkscape-font-specification:'Yu Gothic UI';letter-spacing:0px;word-spacing:0px;fill:#ffffff;fill-opacity:1;stroke:none;stroke-width:0.26458332"
       id="text886"
       transform="translate(16.426226,25.225196)">
      <path
         d="m -3.9852863,222.91666 h -1.047309 v -1.97611 h 1.0032118 v 0.20946 h -0.7717014 v 0.65733 h 0.7138238 v 0.20808 h -0.7138238 v 0.69177 h 0.8157986 z"
         style="stroke-width:0.26458332"
         id="path909"
         inkscape:connector-curvature="0" />
    </g>
    <g
       aria-label="F"
       style="font-style:normal;font-variant:normal;font-weight:normal;font-stretch:normal;font-size:2.82222223px;line-height:1.25;font-family:'Yu Gothic UI';-inkscape-font-specification:'Yu Gothic UI';letter-spacing:0px;word-spacing:0px;fill:#ffffff;fill-opacity:1;stroke:none;stroke-width:0.26458332"
       id="text890"
       transform="translate(17.771191,29.751459)">
      <path
         d="m -5.3523,227.76459 h -0.7717014 v 0.68351 h 0.7138238 v 0.20808 h -0.7138238 v 0.87505 h -0.2315104 v -1.9761 H -5.3523 Z"
         style="stroke-width:0.26458332"
         id="path906"
         inkscape:connector-curvature="0" />
    </g>
    <g
       aria-label="G"
       style="font-style:normal;font-variant:normal;font-weight:normal;font-stretch:normal;font-size:2.82222223px;line-height:1.25;font-family:'Yu Gothic UI';-inkscape-font-specification:'Yu Gothic UI';letter-spacing:0px;word-spacing:0px;fill:#ffffff;fill-opacity:1;stroke:none;stroke-width:0.26458332"
       id="text894"
       transform="translate(17.598936,36.852685)">
      <path
         d="m -4.8782549,233.36494 q -0.2976562,0.16812 -0.6614583,0.16812 -0.4230577,0 -0.684885,-0.27285 -0.2604492,-0.27286 -0.2604492,-0.7221 0,-0.45888 0.289388,-0.7524 0.2907661,-0.2949 0.7358724,-0.2949 0.3224609,0 0.541569,0.10473 v 0.25631 q -0.2397786,-0.15158 -0.5677517,-0.15158 -0.3321072,0 -0.5443251,0.22875 -0.2122179,0.22876 -0.2122179,0.59256 0,0.37482 0.1970595,0.5898 0.1970594,0.21359 0.5346788,0.21359 0.2315104,0 0.4010091,-0.0923 v -0.55398 h -0.432704 v -0.20946 h 0.6642144 z"
         style="stroke-width:0.26458332"
         id="path903"
         inkscape:connector-curvature="0" />
    </g>
    <g
       aria-label="H"
       style="font-style:normal;font-variant:normal;font-weight:normal;font-stretch:normal;font-size:2.82222223px;line-height:1.25;font-family:'Yu Gothic UI';-inkscape-font-specification:'Yu Gothic UI';letter-spacing:0px;word-spacing:0px;fill:#ffffff;fill-opacity:1;stroke:none;stroke-width:0.26458332"
       id="text898"
       transform="translate(16.207118,42.711331)">
      <path
         d="m -3.5470701,238.79166 h -0.2315105 v -0.90124 h -1.0225043 v 0.90124 h -0.2315104 v -1.97611 h 0.2315104 v 0.86679 h 1.0225043 v -0.86679 h 0.2315105 z"
         style="stroke-width:0.26458332"
         id="path900"
         inkscape:connector-curvature="0" />
    </g>
    <path
       id="path932"
       d="M 0.52916667,223.18697 H 19.314583"
       style="fill:none;stroke:#ffffff;stroke-width:0.245;stroke-linecap:butt;stroke-linejoin:miter;stroke-miterlimit:4;stroke-dasharray:none;stroke-opacity:1"
       inkscape:connector-curvature="0" />
    <path
       id="path934"
       d="M 0.52916667,245.4118 H 19.314583"
       style="fill:none;stroke:#ffffff;stroke-width:0.245;stroke-linecap:butt;stroke-linejoin:miter;stroke-miterlimit:4;stroke-dasharray:none;stroke-opacity:1"
       inkscape:connector-curvature="0" />
    <path
       id="path936"
       d="M 0.52916667,267.63664 H 19.314583"
       style="fill:none;stroke:#ffffff;stroke-width:0.245;stroke-linecap:butt;stroke-linejoin:miter;stroke-miterlimit:4;stroke-dasharray:none;stroke-opacity:1"
       inkscape:connector-curvature="0" />
    <path
       style="fill:none;stroke:#ffffff;stroke-width:0.3;stroke-linecap:butt;stroke-linejoin:miter;stroke-miterlimit:4;stroke-dasharray:none;stroke-opacity:1"
       d="M 0.52916667,230.0604 H 8.7422899 v 0"
       id="path959"
       inkscape:connector-curvature="0" />
    <path
       inkscape:connector-curvature="0"
       id="path961"
       d="M 0.52916667,218.94783 H 8.7422899 v 0"
       style="fill:none;stroke:#ffffff;stroke-width:0.3;stroke-linecap:butt;stroke-linejoin:miter;stroke-miterlimit:4;stroke-dasharray:none;stroke-opacity:1" />
    <path
       style="fill:none;stroke:#ffffff;stroke-width:0.3;stroke-linecap:butt;stroke-linejoin:miter;stroke-miterlimit:4;stroke-dasharray:none;stroke-opacity:1"
       d="M 0.52916667,207.83526 H 8.7422899 v 0"
       id="path963"
       inkscape:connector-curvature="0" />
    <path
       inkscape:connector-curvature="0"
       id="path965"
       d="M 0.52916667,241.17297 H 8.7422899 v 0"
       style="fill:none;stroke:#ffffff;stroke-width:0.3;stroke-linecap:butt;stroke-linejoin:miter;stroke-miterlimit:4;stroke-dasharray:none;stroke-opacity:1" />
    <path
       style="fill:none;stroke:#ffffff;stroke-width:0.3;stroke-linecap:butt;stroke-linejoin:miter;stroke-miterlimit:4;stroke-dasharray:none;stroke-opacity:1"
       d="M 0.52916667,252.28554 H 8.7422899 v 0"
       id="path967"
       inkscape:connector-curvature="0" />
    <path
       inkscape:connector-curvature="0"
       id="path969"
       d="M 0.52916667,263.39811 H 8.7422899 v 0"
       style="fill:none;stroke:#ffffff;stroke-width:0.3;stroke-linecap:butt;stroke-linejoin:miter;stroke-miterlimit:4;stroke-dasharray:none;stroke-opacity:1" />
    <path
       style="fill:none;stroke:#ffffff;stroke-width:0.3;stroke-linecap:butt;stroke-linejoin:miter;stroke-miterlimit:4;stroke-dasharray:none;stroke-opacity:1"
       d="M 0.52916667,274.51068 H 8.7422899 v 0"
       id="path971"
       inkscape:connector-curvature="0" />
    <path
       inkscape:connector-curvature="0"
       id="path973"
       d="M 0.52916667,285.62325 H 8.7422899 v 0"
       style="fill:none;stroke:#ffffff;stroke-width:0.3;stroke-linecap:butt;stroke-linejoin:miter;stroke-miterlimit:4;stroke-dasharray:none;stroke-opacity:1" />
  </g>
  <g
     inkscape:groupmode="layer"
     id="layer2"
     inkscape:label="Grid8"
     style="display:none"
     sodipodi:insensitive="true">
    <g
       id="g1088"
       transform="translate(3.9797892)">
      <path
         style="fill:none;stroke:#ffffff;stroke-width:0.05;stroke-linecap:butt;stroke-linejoin:miter;stroke-miterlimit:4;stroke-dasharray:none;stroke-opacity:1"
         d="M 7.9375,-6.666791e-6 7.937497,100.54166"
         id="path881"
         inkscape:connector-curvature="0"
         sodipodi:nodetypes="cc" />
      <path
         sodipodi:nodetypes="cc"
         inkscape:connector-curvature="0"
         id="path890"
         d="M 3.968752,3.333209e-6 3.968748,100.54167"
         style="fill:none;stroke:#ffffff;stroke-width:0.05;stroke-linecap:butt;stroke-linejoin:miter;stroke-miterlimit:4;stroke-dasharray:none;stroke-opacity:1" />
      <path
         style="fill:none;stroke:#ffffff;stroke-width:0.05;stroke-linecap:butt;stroke-linejoin:miter;stroke-miterlimit:4;stroke-dasharray:none;stroke-opacity:1"
         d="M 11.906253,3.333209e-6 11.906249,100.54167"
         id="path895"
         inkscape:connector-curvature="0"
         sodipodi:nodetypes="cc" />
      <path
         sodipodi:nodetypes="cc"
         inkscape:connector-curvature="0"
         id="path905"
         d="m 0,11.386483 15.875,-0.0094"
         style="fill:none;stroke:#ffffff;stroke-width:0.05;stroke-linecap:butt;stroke-linejoin:miter;stroke-miterlimit:4;stroke-dasharray:none;stroke-opacity:1" />
      <path
         sodipodi:nodetypes="cc"
         style="fill:none;stroke:#ffffff;stroke-width:0.05;stroke-linecap:butt;stroke-linejoin:miter;stroke-miterlimit:4;stroke-dasharray:none;stroke-opacity:1"
         d="m 0,22.499053 15.875,-0.0095"
         id="path907"
         inkscape:connector-curvature="0" />
      <path
         sodipodi:nodetypes="cc"
         inkscape:connector-curvature="0"
         id="path911"
         d="m 0,33.611623 15.875,-0.0095"
         style="fill:none;stroke:#ffffff;stroke-width:0.05;stroke-linecap:butt;stroke-linejoin:miter;stroke-miterlimit:4;stroke-dasharray:none;stroke-opacity:1" />
      <path
         sodipodi:nodetypes="cc"
         style="fill:none;stroke:#ffffff;stroke-width:0.05;stroke-linecap:butt;stroke-linejoin:miter;stroke-miterlimit:4;stroke-dasharray:none;stroke-opacity:1"
         d="m 0,44.724193 15.875,-0.0096"
         id="path917"
         inkscape:connector-curvature="0" />
      <path
         sodipodi:nodetypes="cc"
         inkscape:connector-curvature="0"
         id="path925"
         d="m 0,55.836763 15.875,-0.0097"
         style="fill:none;stroke:#ffffff;stroke-width:0.05;stroke-linecap:butt;stroke-linejoin:miter;stroke-miterlimit:4;stroke-dasharray:none;stroke-opacity:1" />
      <path
         sodipodi:nodetypes="cc"
         style="fill:none;stroke:#ffffff;stroke-width:0.05;stroke-linecap:butt;stroke-linejoin:miter;stroke-miterlimit:4;stroke-dasharray:none;stroke-opacity:1"
         d="m 0,66.949333 15.875,-0.0097"
         id="path935"
         inkscape:connector-curvature="0" />
      <path
         sodipodi:nodetypes="cc"
         inkscape:connector-curvature="0"
         id="path947"
         d="m 0,78.061903 15.875,-0.0098"
         style="fill:none;stroke:#ffffff;stroke-width:0.05;stroke-linecap:butt;stroke-linejoin:miter;stroke-miterlimit:4;stroke-dasharray:none;stroke-opacity:1" />
      <circle
         r="4.0999999"
         cy="22.489223"
         cx="7.9347644"
         id="path1041"
         style="display:inline;opacity:1;fill:none;fill-opacity:1;stroke:#ffffff;stroke-width:0.05;stroke-linecap:square;stroke-linejoin:round;stroke-miterlimit:4;stroke-dasharray:none;stroke-dashoffset:0;stroke-opacity:1;paint-order:markers fill stroke" />
      <circle
         style="display:inline;opacity:1;fill:none;fill-opacity:1;stroke:#ffffff;stroke-width:0.05;stroke-linecap:square;stroke-linejoin:round;stroke-miterlimit:4;stroke-dasharray:none;stroke-dashoffset:0;stroke-opacity:1;paint-order:markers fill stroke"
         id="circle1054"
         cx="7.9347644"
         cy="44.720119"
         r="4.0999999" />
      <circle
         r="4.0999999"
         cy="33.60759"
         cx="7.9347644"
         id="circle1056"
         style="display:inline;opacity:1;fill:none;fill-opacity:1;stroke:#ffffff;stroke-width:0.05;stroke-linecap:square;stroke-linejoin:round;stroke-miterlimit:4;stroke-dasharray:none;stroke-dashoffset:0;stroke-opacity:1;paint-order:markers fill stroke" />
      <circle
         style="display:inline;opacity:1;fill:none;fill-opacity:1;stroke:#ffffff;stroke-width:0.05;stroke-linecap:square;stroke-linejoin:round;stroke-miterlimit:4;stroke-dasharray:none;stroke-dashoffset:0;stroke-opacity:1;paint-order:markers fill stroke"
         id="circle1058"
         cx="7.9347644"
         cy="66.939285"
         r="4.0999999" />
      <circle
         r="4.0999999"
         cy="55.83263"
         cx="7.9347644"
         id="circle1060"
         style="display:inline;opacity:1;fill:none;fill-opacity:1;stroke:#ffffff;stroke-width:0.05;stroke-linecap:square;stroke-linejoin:round;stroke-miterlimit:4;stroke-dasharray:none;stroke-dashoffset:0;stroke-opacity:1;paint-order:markers fill stroke" />
      <circle
         style="display:inline;opacity:1;fill:none;fill-opacity:1;stroke:#ffffff;stroke-width:0.05;stroke-linecap:square;stroke-linejoin:round;stroke-miterlimit:4;stroke-dasharray:none;stroke-dashoffset:0;stroke-opacity:1;paint-order:markers fill stroke"
         id="circle1064"
         cx="7.9347644"
         cy="78.05764"
         r="4.0999999" />
      <circle
         style="display:inline;opacity:1;fill:none;fill-opacity:1;stroke:#ffffff;stroke-width:0.05;stroke-linecap:square;stroke-linejoin:round;stroke-miterlimit:4;stroke-dasharray:none;stroke-dashoffset:0;stroke-opacity:1;paint-order:markers fill stroke"
         id="circle1052"
         cx="7.9347644"
         cy="11.382563"
         r="4.0999999" />
      <circle
         r="5.4741378"
         cy="11.377258"
         cx="7.9360795"
         id="circle924"
         style="display:inline;opacity:1;fill:none;fill-opacity:1;stroke:#ffffff;stroke-width:0.05172414;stroke-linecap:square;stroke-linejoin:round;stroke-miterlimit:4;stroke-dasharray:none;stroke-dashoffset:0;stroke-opacity:1;paint-order:markers fill stroke" />
      <circle
         style="display:inline;opacity:1;fill:none;fill-opacity:1;stroke:#ffffff;stroke-width:0.05172414;stroke-linecap:square;stroke-linejoin:round;stroke-miterlimit:4;stroke-dasharray:none;stroke-dashoffset:0;stroke-opacity:1;paint-order:markers fill stroke"
         id="circle955"
         cx="7.9360795"
         cy="22.490795"
         r="5.4741378" />
      <circle
         r="5.4741378"
         cy="33.603306"
         cx="7.9360795"
         id="circle957"
         style="display:inline;opacity:1;fill:none;fill-opacity:1;stroke:#ffffff;stroke-width:0.05172414;stroke-linecap:square;stroke-linejoin:round;stroke-miterlimit:4;stroke-dasharray:none;stroke-dashoffset:0;stroke-opacity:1;paint-order:markers fill stroke" />
      <circle
         style="display:inline;opacity:1;fill:none;fill-opacity:1;stroke:#ffffff;stroke-width:0.05172414;stroke-linecap:square;stroke-linejoin:round;stroke-miterlimit:4;stroke-dasharray:none;stroke-dashoffset:0;stroke-opacity:1;paint-order:markers fill stroke"
         id="circle959"
         cx="7.9360795"
         cy="44.715816"
         r="5.4741378" />
      <circle
         r="5.4741378"
         cy="55.828327"
         cx="7.9360795"
         id="circle961"
         style="display:inline;opacity:1;fill:none;fill-opacity:1;stroke:#ffffff;stroke-width:0.05172414;stroke-linecap:square;stroke-linejoin:round;stroke-miterlimit:4;stroke-dasharray:none;stroke-dashoffset:0;stroke-opacity:1;paint-order:markers fill stroke" />
      <circle
         style="display:inline;opacity:1;fill:none;fill-opacity:1;stroke:#ffffff;stroke-width:0.05172414;stroke-linecap:square;stroke-linejoin:round;stroke-miterlimit:4;stroke-dasharray:none;stroke-dashoffset:0;stroke-opacity:1;paint-order:markers fill stroke"
         id="circle963"
         cx="7.9360795"
         cy="66.940834"
         r="5.4741378" />
      <circle
         r="5.4741378"
         cy="78.053345"
         cx="7.9360795"
         id="circle965"
         style="display:inline;opacity:1;fill:none;fill-opacity:1;stroke:#ffffff;stroke-width:0.05172414;stroke-linecap:square;stroke-linejoin:round;stroke-miterlimit:4;stroke-dasharray:none;stroke-dashoffset:0;stroke-opacity:1;paint-order:markers fill stroke" />
      <path
         style="fill:none;stroke:#ffffff;stroke-width:0.05;stroke-linecap:butt;stroke-linejoin:miter;stroke-miterlimit:4;stroke-dasharray:none;stroke-opacity:1"
         d="m 0,89.17441 15.875,-0.0098"
         id="path1055"
         inkscape:connector-curvature="0"
         sodipodi:nodetypes="cc" />
      <circle
         r="4.0999999"
         cy="89.170151"
         cx="7.9347644"
         id="circle1057"
         style="display:inline;opacity:1;fill:none;fill-opacity:1;stroke:#ffffff;stroke-width:0.05;stroke-linecap:square;stroke-linejoin:round;stroke-miterlimit:4;stroke-dasharray:none;stroke-dashoffset:0;stroke-opacity:1;paint-order:markers fill stroke" />
      <circle
         style="display:inline;opacity:1;fill:none;fill-opacity:1;stroke:#ffffff;stroke-width:0.05172414;stroke-linecap:square;stroke-linejoin:round;stroke-miterlimit:4;stroke-dasharray:none;stroke-dashoffset:0;stroke-opacity:1;paint-order:markers fill stroke"
         id="circle1059"
         cx="7.9360795"
         cy="89.165855"
         r="5.4741378" />
    </g>
  </g>
</svg>
