<?xml version="1.0" encoding="UTF-8" standalone="no"?>
<!-- Created with Inkscape (http://www.inkscape.org/) -->

<svg
   xmlns:dc="http://purl.org/dc/elements/1.1/"
   xmlns:cc="http://creativecommons.org/ns#"
   xmlns:rdf="http://www.w3.org/1999/02/22-rdf-syntax-ns#"
   xmlns:svg="http://www.w3.org/2000/svg"
   xmlns="http://www.w3.org/2000/svg"
   xmlns:sodipodi="http://sodipodi.sourceforge.net/DTD/sodipodi-0.dtd"
   xmlns:inkscape="http://www.inkscape.org/namespaces/inkscape"
   width="60"
   height="380"
   viewBox="0 0 15.875001 100.54167"
   version="1.1"
   id="svg8"
   inkscape:version="0.92.5 (2060ec1f9f, 2020-04-08)"
   sodipodi:docname="Switch3.svg">
  <defs
     id="defs2">
    <pattern
       y="0"
       x="0"
       height="6"
       width="6"
       patternUnits="userSpaceOnUse"
       id="EMFhbasepattern" />
    <pattern
       y="0"
       x="0"
       height="6"
       width="6"
       patternUnits="userSpaceOnUse"
       id="EMFhbasepattern-4" />
  </defs>
  <sodipodi:namedview
     id="base"
     pagecolor="#ffffff"
     bordercolor="#666666"
     borderopacity="1.0"
     inkscape:pageopacity="0.0"
     inkscape:pageshadow="2"
     inkscape:zoom="3.0442808"
     inkscape:cx="28.235184"
     inkscape:cy="244.31389"
     inkscape:document-units="mm"
     inkscape:current-layer="layer1"
     showgrid="true"
     units="px"
     inkscape:snap-bbox="true"
     inkscape:snap-page="true"
     inkscape:bbox-nodes="true"
     inkscape:snap-bbox-edge-midpoints="true"
     inkscape:window-width="1920"
     inkscape:window-height="1017"
     inkscape:window-x="-8"
     inkscape:window-y="-8"
     inkscape:window-maximized="1"
     inkscape:snap-midpoints="true">
    <inkscape:grid
       type="xygrid"
       id="grid116" />
  </sodipodi:namedview>
  <metadata
     id="metadata5">
    <rdf:RDF>
      <cc:Work
         rdf:about="">
        <dc:format>image/svg+xml</dc:format>
        <dc:type
           rdf:resource="http://purl.org/dc/dcmitype/StillImage" />
        <dc:title />
      </cc:Work>
    </rdf:RDF>
  </metadata>
  <g
     inkscape:groupmode="layer"
     id="layer4"
     inkscape:label="Panel"
     style="display:inline"
     sodipodi:insensitive="true">
    <path
       sodipodi:type="inkscape:offset"
       inkscape:radius="0"
       inkscape:original="M 0 196.45898 L 0 297 L 15.875 297 L 15.875 196.45898 L 0 196.45898 z "
       style="display:inline;fill:#000000;stroke-width:0.3310422"
       id="rect3855"
       d="M 0,196.45898 V 297 H 15.875 V 196.45898 Z"
       transform="matrix(1,0,0,1.0000064,0,-196.46023)" />
  </g>
  <g
     inkscape:label="Layer 1"
     inkscape:groupmode="layer"
     id="layer1"
     transform="translate(0,-196.45832)"
     style="display:inline;opacity:0.98000004">
    <text
       id="text1355"
       y="201.48538"
       x="17.462492"
       style="font-style:normal;font-weight:normal;font-size:2.82222223px;line-height:1.25;font-family:sans-serif;letter-spacing:0px;word-spacing:0px;fill:#ffffff;fill-opacity:1;stroke:none;stroke-width:0.26458332"
       xml:space="preserve"><tspan
         style="stroke-width:0.26458332"
         y="204.06018"
         x="17.462492"
         id="tspan1353"
         sodipodi:role="line" /></text>
    <g
       style="display:inline"
       id="g1405"
       transform="translate(-31.753302,-2.6457182)">
      <g
         transform="translate(14.334233,3.7455086)"
         id="text956"
         style="font-style:normal;font-variant:normal;font-weight:normal;font-stretch:normal;font-size:2.82222223px;line-height:1.25;font-family:'Copperplate Gothic Light';-inkscape-font-specification:'Copperplate Gothic Light, ';letter-spacing:0px;word-spacing:0px;fill:#ffffff;fill-opacity:1;stroke:#ffffff;stroke-width:0.2;stroke-miterlimit:4;stroke-dasharray:none;stroke-opacity:1"
         aria-label="/^M^\">
        <path
           inkscape:connector-curvature="0"
           id="path958"
           style="font-style:normal;font-variant:normal;font-weight:normal;font-stretch:normal;font-size:2.82222223px;line-height:1.25;font-family:'Copperplate Gothic Light';-inkscape-font-specification:'Copperplate Gothic Light, ';stroke:#ffffff;stroke-width:0.2;stroke-miterlimit:4;stroke-dasharray:none;stroke-opacity:1"
           d="m 21.203855,291.40545 v 0.0386 h -0.434082 v -0.0386 q 0.09509,-0.006 0.224621,-0.17088 l 1.094162,-1.4621 q 0.07441,-0.1006 0.07441,-0.12402 0,-0.0372 -0.06615,-0.0482 v -0.0372 h 0.423058 v 0.0372 q -0.09508,0.006 -0.22462,0.17087 l -1.08176,1.46348 q -0.07579,0.10197 -0.07579,0.12402 0,0.0358 0.06615,0.0469 z" />
        <path
           inkscape:connector-curvature="0"
           id="path960"
           style="font-style:normal;font-variant:normal;font-weight:normal;font-stretch:normal;font-size:2.82222223px;line-height:1.25;font-family:'Copperplate Gothic Light';-inkscape-font-specification:'Copperplate Gothic Light, ';stroke:#ffffff;stroke-width:0.2;stroke-miterlimit:4;stroke-dasharray:none;stroke-opacity:1"
           d="M 22.940183,290.3857 H 22.73899 l 0.493338,-0.8282 h 0.243912 l 0.493338,0.8282 h -0.20395 l -0.413411,-0.68075 z" />
        <path
           inkscape:connector-curvature="0"
           id="path962"
           style="font-style:normal;font-variant:normal;font-weight:normal;font-stretch:normal;font-size:2.82222223px;line-height:1.25;font-family:'Copperplate Gothic Light';-inkscape-font-specification:'Copperplate Gothic Light, ';stroke:#ffffff;stroke-width:0.2;stroke-miterlimit:4;stroke-dasharray:none;stroke-opacity:1"
           d="m 25.342104,291.44403 -0.789616,-1.58061 v 1.418 q 0,0.0565 0.01791,0.0813 0.01791,0.0234 0.07028,0.0372 v 0.0441 h -0.373449 v -0.0441 q 0.05237,-0.0138 0.07028,-0.0372 0.01792,-0.0234 0.01792,-0.0813 v -1.5558 q 0,-0.0579 -0.01792,-0.0813 -0.01791,-0.0248 -0.07028,-0.0372 v -0.0441 h 0.487826 v 0.0441 q -0.06752,0.0234 -0.06752,0.0579 0,0.0165 0.04547,0.10611 l 0.62563,1.24161 0.628385,-1.25263 q 0.03307,-0.0661 0.03307,-0.0937 0,-0.0358 -0.06752,-0.0593 v -0.0441 h 0.49196 v 0.0441 q -0.05237,0.0138 -0.07028,0.0372 -0.01792,0.0234 -0.01792,0.0813 v 1.5558 q 0,0.0565 0.01792,0.0813 0.01791,0.0234 0.07028,0.0372 v 0.0441 h -0.392741 v -0.0441 q 0.05374,-0.0138 0.07028,-0.0372 0.01791,-0.0234 0.01791,-0.0813 v -1.418 z" />
        <path
           inkscape:connector-curvature="0"
           id="path964"
           style="font-style:normal;font-variant:normal;font-weight:normal;font-stretch:normal;font-size:2.82222223px;line-height:1.25;font-family:'Copperplate Gothic Light';-inkscape-font-specification:'Copperplate Gothic Light, ';stroke:#ffffff;stroke-width:0.2;stroke-miterlimit:4;stroke-dasharray:none;stroke-opacity:1"
           d="m 26.942006,290.3857 h -0.201193 l 0.493338,-0.8282 h 0.243912 l 0.493338,0.8282 h -0.20395 l -0.413411,-0.68075 z" />
        <path
           inkscape:connector-curvature="0"
           id="path966"
           style="font-style:normal;font-variant:normal;font-weight:normal;font-stretch:normal;font-size:2.82222223px;line-height:1.25;font-family:'Copperplate Gothic Light';-inkscape-font-specification:'Copperplate Gothic Light, ';stroke:#ffffff;stroke-width:0.2;stroke-miterlimit:4;stroke-dasharray:none;stroke-opacity:1"
           d="m 28.617701,289.56301 v 0.0372 q -0.06615,0.011 -0.06615,0.0482 0,0.0234 0.07441,0.12402 l 1.092784,1.4621 q 0.129536,0.16536 0.22462,0.17088 v 0.0386 h -0.434082 v -0.0386 q 0.06615,-0.011 0.06615,-0.0469 0,-0.0207 -0.07579,-0.12402 l -1.080382,-1.46348 q -0.129535,-0.16536 -0.22462,-0.17087 v -0.0372 z" />
      </g>
    </g>
    <text
       xml:space="preserve"
       style="font-style:normal;font-variant:normal;font-weight:normal;font-stretch:normal;font-size:2.82222223px;line-height:1.25;font-family:'Yu Gothic UI';-inkscape-font-specification:'Yu Gothic UI';letter-spacing:0px;word-spacing:0px;fill:#ffffff;fill-opacity:1;stroke:none;stroke-width:0.26458332"
       x="125.67708"
       y="200.42706"
       id="text2037"><tspan
         sodipodi:role="line"
         id="tspan2035"
         x="125.67708"
         y="202.96919"
         style="stroke-width:0.26458332" /></text>
    <text
       xml:space="preserve"
       style="font-style:normal;font-variant:normal;font-weight:normal;font-stretch:normal;font-size:2.82222223px;line-height:1.25;font-family:'Yu Gothic UI';-inkscape-font-specification:'Yu Gothic UI';letter-spacing:0px;word-spacing:0px;fill:#ffffff;fill-opacity:1;stroke:none;stroke-width:0.26458332"
       x="202.40625"
       y="207.04166"
       id="text1435"><tspan
         sodipodi:role="line"
         id="tspan1433"
         x="202.40625"
         y="209.58379"
         style="stroke-width:0.26458332" /></text>
    <text
       xml:space="preserve"
       style="font-style:normal;font-variant:normal;font-weight:normal;font-stretch:normal;font-size:2.82222223px;line-height:1.25;font-family:'Yu Gothic UI';-inkscape-font-specification:'Yu Gothic UI';letter-spacing:0px;word-spacing:0px;fill:#ffffff;fill-opacity:1;stroke:none;stroke-width:0.26458332"
       x="17.197916"
       y="205.71873"
       id="text1967"><tspan
         sodipodi:role="line"
         id="tspan1965"
         x="17.197916"
         y="208.26086"
         style="stroke-width:0.26458332" /></text>
    <text
       xml:space="preserve"
       style="font-style:normal;font-variant:normal;font-weight:normal;font-stretch:normal;font-size:2.82222223px;line-height:1.25;font-family:'Yu Gothic UI';-inkscape-font-specification:'Yu Gothic UI';letter-spacing:0px;word-spacing:0px;fill:#ffffff;fill-opacity:1;stroke:none;stroke-width:0.26458332"
       x="56.885414"
       y="216.30206"
       id="text1155"><tspan
         sodipodi:role="line"
         id="tspan1153"
         x="56.885414"
         y="218.84419"
         style="stroke-width:0.26458332" /></text>
    <text
       xml:space="preserve"
       style="font-style:normal;font-variant:normal;font-weight:normal;font-stretch:normal;font-size:2.82222223px;line-height:1.25;font-family:'Yu Gothic UI';-inkscape-font-specification:'Yu Gothic UI';letter-spacing:0px;word-spacing:0px;fill:#ffffff;fill-opacity:1;stroke:none;stroke-width:0.26458332"
       x="22.489584"
       y="218.94791"
       id="text1820"><tspan
         sodipodi:role="line"
         id="tspan1818"
         x="22.489584"
         y="221.49004"
         style="stroke-width:0.26458332" /></text>
    <g
       transform="translate(-20.387403,75.696978)"
       id="g1041"
       style="font-style:normal;font-variant:normal;font-weight:normal;font-stretch:normal;font-size:2.82222223px;line-height:1.25;font-family:'Yu Gothic UI';-inkscape-font-specification:'Yu Gothic UI';letter-spacing:0px;word-spacing:0px;fill:#ffffff;fill-opacity:1;stroke:none;stroke-width:0.26458332"
       aria-label="SELECT">
      <path
         inkscape:connector-curvature="0"
         id="path1029"
         style="font-size:2.82222223px;stroke-width:0.26458332"
         d="m 23.979243,202.99298 v -0.27285 q 0.04685,0.0413 0.111621,0.0744 0.06615,0.0331 0.137804,0.0565 0.07304,0.022 0.146072,0.0344 0.07304,0.0124 0.135047,0.0124 0.213596,0 0.318327,-0.0786 0.106109,-0.0799 0.106109,-0.22876 0,-0.0799 -0.03583,-0.13918 -0.03445,-0.0593 -0.09646,-0.10749 -0.06201,-0.0496 -0.14745,-0.0937 -0.08406,-0.0455 -0.181901,-0.0951 -0.103353,-0.0524 -0.192925,-0.10611 -0.08957,-0.0537 -0.155718,-0.11851 -0.06615,-0.0648 -0.104731,-0.14607 -0.03721,-0.0827 -0.03721,-0.19292 0,-0.13505 0.05926,-0.23427 0.05926,-0.1006 0.155719,-0.16537 0.09646,-0.0648 0.219108,-0.0965 0.124023,-0.0317 0.252181,-0.0317 0.292144,0 0.425814,0.0703 v 0.26045 q -0.175011,-0.12127 -0.449241,-0.12127 -0.07579,0 -0.151584,0.0165 -0.07579,0.0152 -0.135048,0.051 -0.05926,0.0358 -0.09646,0.0923 -0.03721,0.0565 -0.03721,0.1378 0,0.0758 0.02756,0.13092 0.02894,0.0551 0.08406,0.1006 0.05512,0.0455 0.133669,0.0882 0.07993,0.0427 0.183279,0.0937 0.106109,0.0524 0.201194,0.11024 0.09509,0.0579 0.166743,0.12816 0.07166,0.0703 0.112999,0.15572 0.04272,0.0854 0.04272,0.19568 0,0.14607 -0.05788,0.24804 -0.0565,0.1006 -0.15434,0.16399 -0.09646,0.0634 -0.223242,0.091 -0.12678,0.0289 -0.26734,0.0289 -0.04685,0 -0.115755,-0.008 -0.0689,-0.007 -0.14056,-0.0221 -0.07166,-0.0138 -0.136426,-0.0344 -0.06339,-0.0221 -0.101974,-0.0482 z" />
      <path
         inkscape:connector-curvature="0"
         id="path1031"
         style="font-size:2.82222223px;stroke-width:0.26458332"
         d="m 26.618186,203.07291 h -1.047309 v -1.97611 h 1.003212 v 0.20946 h -0.771702 v 0.65733 h 0.713824 v 0.20808 h -0.713824 v 0.69177 h 0.815799 z" />
      <path
         inkscape:connector-curvature="0"
         id="path1033"
         style="font-size:2.82222223px;stroke-width:0.26458332"
         d="m 28.023785,203.07291 h -1.025261 v -1.97611 h 0.231511 v 1.76664 h 0.79375 z" />
      <path
         inkscape:connector-curvature="0"
         id="path1035"
         style="font-size:2.82222223px;stroke-width:0.26458332"
         d="m 29.374262,203.07291 h -1.047309 v -1.97611 h 1.003212 v 0.20946 h -0.771701 v 0.65733 h 0.713823 v 0.20808 h -0.713823 v 0.69177 h 0.815798 z" />
      <path
         inkscape:connector-curvature="0"
         id="path1037"
         style="font-size:2.82222223px;stroke-width:0.26458332"
         d="m 31.099566,202.99022 q -0.219108,0.11576 -0.545703,0.11576 -0.42168,0 -0.675239,-0.27147 -0.253559,-0.27148 -0.253559,-0.71245 0,-0.47405 0.285254,-0.76619 0.285254,-0.29214 0.72347,-0.29214 0.28112,0 0.465777,0.0813 v 0.24667 q -0.212218,-0.11851 -0.468533,-0.11851 -0.340375,0 -0.552593,0.22737 -0.21084,0.22738 -0.21084,0.60772 0,0.36105 0.197059,0.57602 0.198438,0.2136 0.519521,0.2136 0.297656,0 0.515386,-0.1323 z" />
      <path
         inkscape:connector-curvature="0"
         id="path1039"
         style="font-size:2.82222223px;stroke-width:0.26458332"
         d="m 32.67053,201.30626 h -0.570508 v 1.76665 h -0.23151 v -1.76665 h -0.56913 v -0.20946 h 1.371148 z" />
    </g>
    <rect
       transform="scale(1,-1)"
       y="-267.89542"
       x="2.6458125"
       height="11.377095"
       width="10.583335"
       id="rect1051"
       style="fill:#333333;stroke-width:0.11043623" />
    <g
       transform="translate(-33.239674,53.520712)"
       id="g1059"
       style="font-style:normal;font-variant:normal;font-weight:normal;font-stretch:normal;font-size:2.82222223px;line-height:1.25;font-family:'Yu Gothic UI';-inkscape-font-specification:'Yu Gothic UI';letter-spacing:0px;word-spacing:0px;fill:#ffffff;fill-opacity:1;stroke:none;stroke-width:0.26458332"
       aria-label="OUT">
      <path
         inkscape:connector-curvature="0"
         id="path1053"
         style="stroke-width:0.26458332"
         d="m 39.420159,205.75181 q -0.420301,0 -0.67386,-0.27699 -0.252181,-0.27698 -0.252181,-0.72071 0,-0.4768 0.257693,-0.76068 0.257693,-0.28387 0.701421,-0.28387 0.409278,0 0.658702,0.2756 0.250803,0.27561 0.250803,0.72072 0,0.48369 -0.256315,0.76481 -0.256315,0.28112 -0.686263,0.28112 z m 0.01654,-1.83279 q -0.311437,0 -0.50574,0.22462 -0.194304,0.22462 -0.194304,0.5898 0,0.36518 0.188792,0.58842 0.190169,0.22186 0.494715,0.22186 0.325217,0 0.512631,-0.21221 0.187413,-0.21222 0.187413,-0.59394 0,-0.39136 -0.181901,-0.60496 -0.181901,-0.21359 -0.501606,-0.21359 z" />
      <path
         inkscape:connector-curvature="0"
         id="path1055"
         style="stroke-width:0.26458332"
         d="m 42.196906,204.91947 q 0,0.83234 -0.75103,0.83234 -0.719336,0 -0.719336,-0.80064 v -1.20854 h 0.23151 v 1.19338 q 0,0.60771 0.51263,0.60771 0.494716,0 0.494716,-0.58704 v -1.21405 h 0.23151 z" />
      <path
         inkscape:connector-curvature="0"
         id="path1057"
         style="stroke-width:0.26458332"
         d="m 43.860198,203.95209 h -0.570507 v 1.76664 H 43.05818 v -1.76664 h -0.56913 v -0.20946 h 1.371148 z" />
    </g>
    <g
       aria-label="SW3"
       style="font-style:normal;font-variant:normal;font-weight:600;font-stretch:normal;font-size:3.52777767px;line-height:1.25;font-family:'Yu Gothic UI';-inkscape-font-specification:'Yu Gothic UI Semi-Bold';letter-spacing:0px;word-spacing:0px;fill:#ffffff;fill-opacity:1;stroke:none;stroke-width:0.26458332"
       id="text1731"
       transform="translate(-1.2034872,-2.6527845)">
      <path
         d="m 9.4516198,202.97472 v -0.42202 q 0.056844,0.0517 0.1343587,0.093 0.079237,0.0413 0.1670871,0.0706 0.08785,0.0276 0.1756999,0.0431 0.087847,0.0155 0.1619195,0.0155 0.258382,0 0.384128,-0.0861 0.127469,-0.0861 0.127469,-0.24977 0,-0.0879 -0.04306,-0.15159 -0.04134,-0.0654 -0.117133,-0.11885 -0.07579,-0.0534 -0.179145,-0.10163 -0.101631,-0.05 -0.218764,-0.10335 -0.1257458,-0.0672 -0.2342663,-0.13609 -0.1085205,-0.0689 -0.1894802,-0.15158 -0.079237,-0.0844 -0.125746,-0.18948 -0.044786,-0.10508 -0.044786,-0.24632 0,-0.17398 0.077515,-0.30145 0.079237,-0.12919 0.2067057,-0.21187 0.1291911,-0.0844 0.2928338,-0.12403 0.163642,-0.0413 0.334174,-0.0413 0.387573,0 0.564996,0.0879 v 0.4048 q -0.210151,-0.15158 -0.54088,-0.15158 -0.0913,0 -0.18259,0.0172 -0.08957,0.0172 -0.16192,0.0568 -0.070624,0.0396 -0.115411,0.10163 -0.044786,0.062 -0.044786,0.14986 0,0.0827 0.034451,0.14297 0.034451,0.0603 0.099908,0.11024 0.06718,0.05 0.161919,0.0982 0.09646,0.0465 0.222209,0.10163 0.129191,0.0672 0.242879,0.14125 0.115411,0.0741 0.201538,0.16364 0.08785,0.0896 0.137804,0.19981 0.05168,0.10852 0.05168,0.24805 0,0.18776 -0.07579,0.31695 -0.07579,0.12919 -0.204983,0.21015 -0.127468,0.081 -0.294555,0.11713 -0.167087,0.0362 -0.353123,0.0362 -0.06201,0 -0.1533064,-0.0103 -0.089572,-0.009 -0.1843126,-0.0276 -0.09474,-0.0172 -0.179145,-0.0431 -0.084405,-0.0258 -0.1360812,-0.0586 z"
         style="font-style:normal;font-variant:normal;font-weight:600;font-stretch:normal;font-size:3.52777767px;font-family:'Yu Gothic UI';-inkscape-font-specification:'Yu Gothic UI Semi-Bold';stroke-width:0.26458332"
         id="path1733"
         inkscape:connector-curvature="0" />
      <path
         d="m 14.517633,200.60277 -0.676962,2.47014 h -0.463365 l -0.470256,-1.72772 q -0.02928,-0.11024 -0.03617,-0.24116 h -0.0069 q -0.0086,0.12231 -0.04134,0.23772 l -0.471978,1.73116 h -0.473701 l -0.690742,-2.47014 h 0.449585 l 0.447863,1.80868 q 0.02756,0.11369 0.03445,0.23771 h 0.0086 q 0.0069,-0.0879 0.04823,-0.23771 l 0.506429,-1.80868 H 13.1034 l 0.468533,1.82246 q 0.02412,0.093 0.03617,0.22048 h 0.0069 q 0.0052,-0.0861 0.03962,-0.22737 l 0.43925,-1.81557 z"
         style="font-style:normal;font-variant:normal;font-weight:600;font-stretch:normal;font-size:3.52777767px;font-family:'Yu Gothic UI';-inkscape-font-specification:'Yu Gothic UI Semi-Bold';stroke-width:0.26458332"
         id="path1735"
         inkscape:connector-curvature="0" />
      <path
         d="m 14.770847,202.98161 v -0.37551 q 0.241157,0.1912 0.544325,0.1912 0.246325,0 0.392741,-0.11197 0.148139,-0.11196 0.148139,-0.30317 0,-0.4203 -0.64251,-0.4203 h -0.191203 v -0.32039 h 0.18259 q 0.570163,0 0.570163,-0.39619 0,-0.36518 -0.444417,-0.36518 -0.248047,0 -0.46681,0.17743 v -0.35485 q 0.251492,-0.14125 0.594279,-0.14125 0.329006,0 0.527099,0.16537 0.198093,0.16536 0.198093,0.42374 0,0.48748 -0.496093,0.62701 v 0.007 q 0.266994,0.0258 0.422024,0.18776 0.155029,0.1602 0.155029,0.40135 0,0.33245 -0.249769,0.53744 -0.24977,0.20326 -0.658014,0.20326 -0.366902,0 -0.585666,-0.13264 z"
         style="font-style:normal;font-variant:normal;font-weight:600;font-stretch:normal;font-size:3.52777767px;font-family:'Yu Gothic UI';-inkscape-font-specification:'Yu Gothic UI Semi-Bold';stroke-width:0.26458332"
         id="path1737"
         inkscape:connector-curvature="0" />
    </g>
    <g
       aria-label="IN 1"
       style="font-style:normal;font-variant:normal;font-weight:normal;font-stretch:normal;font-size:2.82222223px;line-height:1.25;font-family:'Yu Gothic UI';-inkscape-font-specification:'Yu Gothic UI';letter-spacing:0px;word-spacing:0px;fill:#ffffff;fill-opacity:1;stroke:none;stroke-width:0.26458332"
       id="text1742"
       transform="translate(-7.7363065,-5.7273849)">
      <path
         d="m 13.719748,214.97916 h -0.231511 v -1.97611 h 0.231511 z"
         style="stroke-width:0.26458332"
         id="path1770"
         inkscape:connector-curvature="0" />
      <path
         d="m 15.830902,214.97916 h -0.283876 l -1.016992,-1.5751 q -0.03859,-0.0593 -0.06339,-0.12402 h -0.0083 q 0.01102,0.0634 0.01102,0.27147 v 1.42765 h -0.23151 v -1.97611 h 0.300412 l 0.989432,1.55029 q 0.06201,0.0965 0.07993,0.13229 h 0.0055 q -0.01378,-0.0854 -0.01378,-0.29076 v -1.39182 h 0.23151 z"
         style="stroke-width:0.26458332"
         id="path1772"
         inkscape:connector-curvature="0" />
      <path
         d="m 17.859374,214.97916 h -0.225998 v -1.70739 q -0.02618,0.0262 -0.07717,0.0606 -0.04961,0.0331 -0.112999,0.0661 -0.06201,0.0331 -0.132292,0.062 -0.0689,0.0289 -0.135048,0.0455 v -0.22875 q 0.07441,-0.0207 0.157097,-0.0551 0.08406,-0.0358 0.163986,-0.0786 0.08131,-0.0441 0.152963,-0.0909 0.07166,-0.0482 0.124023,-0.0937 h 0.08544 z"
         style="stroke-width:0.26458332"
         id="path1774"
         inkscape:connector-curvature="0" />
    </g>
    <g
       aria-label="IN 2"
       style="font-style:normal;font-variant:normal;font-weight:normal;font-stretch:normal;font-size:2.82222223px;line-height:1.25;font-family:'Yu Gothic UI';-inkscape-font-specification:'Yu Gothic UI';letter-spacing:0px;word-spacing:0px;fill:#ffffff;fill-opacity:1;stroke:none;stroke-width:0.26458332"
       id="text1746"
       transform="translate(-7.9223465,6.951151)">
      <path
         d="m 13.719748,218.94791 h -0.231511 v -1.97611 h 0.231511 z"
         style="stroke-width:0.26458332"
         id="path1763"
         inkscape:connector-curvature="0" />
      <path
         d="m 15.830902,218.94791 h -0.283876 l -1.016992,-1.5751 q -0.03859,-0.0593 -0.06339,-0.12402 h -0.0083 q 0.01102,0.0634 0.01102,0.27147 v 1.42765 h -0.23151 v -1.97611 h 0.300412 l 0.989432,1.55029 q 0.06201,0.0965 0.07993,0.13229 h 0.0055 q -0.01378,-0.0854 -0.01378,-0.29076 v -1.39182 h 0.23151 z"
         style="stroke-width:0.26458332"
         id="path1765"
         inkscape:connector-curvature="0" />
      <path
         d="m 17.92552,217.48994 q 0,-0.0909 -0.02894,-0.15847 -0.02756,-0.0675 -0.07717,-0.11162 -0.04823,-0.0455 -0.114377,-0.0675 -0.06615,-0.0221 -0.143316,-0.0221 -0.06615,0 -0.129535,0.0179 -0.06339,0.0179 -0.124024,0.0496 -0.05926,0.0317 -0.115755,0.0758 -0.05512,0.0441 -0.103353,0.0978 v -0.24253 q 0.09508,-0.0923 0.212218,-0.14056 0.118511,-0.0496 0.28801,-0.0496 0.121267,0 0.22462,0.0358 0.103353,0.0344 0.179145,0.10197 0.07579,0.0675 0.118511,0.16674 0.0441,0.0992 0.0441,0.22738 0,0.11713 -0.02756,0.21222 -0.02618,0.0951 -0.0813,0.17914 -0.05374,0.0841 -0.136426,0.16123 -0.08268,0.0772 -0.194304,0.1571 -0.139181,0.0992 -0.230132,0.1695 -0.08957,0.0703 -0.143316,0.13229 -0.05237,0.0606 -0.07441,0.12264 -0.02067,0.0606 -0.02067,0.14056 h 0.98392 v 0.20258 h -1.219564 v -0.0978 q 0,-0.12678 0.02756,-0.22325 0.02756,-0.0965 0.09095,-0.18328 0.06339,-0.0868 0.165365,-0.17363 0.103353,-0.0868 0.252181,-0.19568 0.107487,-0.0772 0.179145,-0.14745 0.07304,-0.0703 0.117133,-0.14056 0.0441,-0.0703 0.06201,-0.14194 0.01929,-0.073 0.01929,-0.15434 z"
         style="stroke-width:0.26458332"
         id="path1767"
         inkscape:connector-curvature="0" />
    </g>
    <g
       aria-label="IN 3"
       style="font-style:normal;font-variant:normal;font-weight:normal;font-stretch:normal;font-size:2.82222223px;line-height:1.25;font-family:'Yu Gothic UI';-inkscape-font-specification:'Yu Gothic UI';letter-spacing:0px;word-spacing:0px;fill:#ffffff;fill-opacity:1;stroke:none;stroke-width:0.26458332"
       id="text1750"
       transform="translate(-7.894091,18.246763)">
      <path
         d="m 13.719748,222.91666 h -0.231511 v -1.97611 h 0.231511 z"
         style="stroke-width:0.26458332"
         id="path1756"
         inkscape:connector-curvature="0" />
      <path
         d="m 15.830902,222.91666 h -0.283876 l -1.016992,-1.5751 q -0.03859,-0.0593 -0.06339,-0.12402 h -0.0083 q 0.01102,0.0634 0.01102,0.27147 v 1.42765 h -0.23151 v -1.97611 h 0.300412 l 0.989432,1.55029 q 0.06201,0.0965 0.07993,0.13229 h 0.0055 q -0.01378,-0.0854 -0.01378,-0.29076 v -1.39182 h 0.23151 z"
         style="stroke-width:0.26458332"
         id="path1758"
         inkscape:connector-curvature="0" />
      <path
         d="m 18.174945,222.35717 q 0,0.13367 -0.05099,0.24392 -0.04961,0.10886 -0.141938,0.18741 -0.09095,0.0772 -0.219108,0.11989 -0.128158,0.0427 -0.282498,0.0427 -0.282498,0 -0.449241,-0.10749 v -0.24253 q 0.199816,0.15709 0.457509,0.15709 0.103353,0 0.186035,-0.0262 0.08406,-0.0262 0.143316,-0.0758 0.06063,-0.0496 0.09233,-0.11989 0.03307,-0.0703 0.03307,-0.15848 0,-0.38723 -0.551216,-0.38723 h -0.163986 v -0.19154 h 0.155718 q 0.487826,0 0.487826,-0.3638 0,-0.33625 -0.372071,-0.33625 -0.209461,0 -0.39274,0.14056 v -0.2191 q 0.188791,-0.113 0.44924,-0.113 0.124023,0 0.22462,0.0345 0.100597,0.0344 0.172255,0.0965 0.07166,0.062 0.110243,0.14883 0.03996,0.0868 0.03996,0.19155 0,0.38998 -0.394119,0.5016 v 0.006 q 0.100597,0.011 0.186035,0.0496 0.08544,0.0372 0.147451,0.0978 0.06201,0.0606 0.09646,0.14332 0.03583,0.0813 0.03583,0.18052 z"
         style="stroke-width:0.26458332"
         id="path1760"
         inkscape:connector-curvature="0" />
    </g>
  </g>
  <g
     inkscape:groupmode="layer"
     id="layer3"
     inkscape:label="Grid"
     style="display:none"
     sodipodi:insensitive="true">
    <g
       style="display:inline"
       id="g2708">
      <path
         style="fill:none;stroke:#ffffff;stroke-width:0.05;stroke-linecap:butt;stroke-linejoin:miter;stroke-miterlimit:4;stroke-dasharray:none;stroke-opacity:1"
         d="M 7.9375007,-5.0001865e-6 7.9374977,100.54166"
         id="path881-8-8-2"
         inkscape:connector-curvature="0"
         sodipodi:nodetypes="cc" />
      <path
         sodipodi:nodetypes="cc"
         inkscape:connector-curvature="0"
         id="path890-2-5-0"
         d="M 3.9687527,4.9998135e-6 3.9687487,100.54167"
         style="fill:none;stroke:#ffffff;stroke-width:0.05;stroke-linecap:butt;stroke-linejoin:miter;stroke-miterlimit:4;stroke-dasharray:none;stroke-opacity:1" />
      <path
         style="fill:none;stroke:#ffffff;stroke-width:0.05;stroke-linecap:butt;stroke-linejoin:miter;stroke-miterlimit:4;stroke-dasharray:none;stroke-opacity:1"
         d="M 11.906254,4.9998135e-6 11.90625,100.54167"
         id="path895-1-5-2"
         inkscape:connector-curvature="0"
         sodipodi:nodetypes="cc" />
      <path
         sodipodi:nodetypes="cc"
         inkscape:connector-curvature="0"
         id="path1107-7"
         d="M 7.2598426e-7,50.270605 15.875001,50.271066"
         style="fill:none;stroke:#ffffff;stroke-width:0.05;stroke-linecap:butt;stroke-linejoin:miter;stroke-miterlimit:4;stroke-dasharray:none;stroke-opacity:1" />
      <circle
         r="4.0999999"
         cy="50.270832"
         cx="7.9523048"
         id="circle1018-7"
         style="display:inline;opacity:1;fill:none;fill-opacity:1;stroke:#ffffff;stroke-width:0.05;stroke-linecap:square;stroke-linejoin:round;stroke-miterlimit:4;stroke-dasharray:none;stroke-dashoffset:0;stroke-opacity:1;paint-order:markers fill stroke" />
      <circle
         style="display:inline;opacity:1;fill:none;fill-opacity:1;stroke:#ffffff;stroke-width:0.05172414;stroke-linecap:square;stroke-linejoin:round;stroke-miterlimit:4;stroke-dasharray:none;stroke-dashoffset:0;stroke-opacity:1;paint-order:markers fill stroke"
         id="circle977-3"
         cx="7.9360805"
         cy="50.270832"
         r="5.4741378" />
      <path
         style="fill:none;stroke:#ffffff;stroke-width:0.05;stroke-linecap:butt;stroke-linejoin:miter;stroke-miterlimit:4;stroke-dasharray:none;stroke-opacity:1"
         d="M 7.2598426e-7,33.601974 15.875001,33.602435"
         id="path1010"
         inkscape:connector-curvature="0"
         sodipodi:nodetypes="cc" />
      <circle
         style="display:inline;opacity:1;fill:none;fill-opacity:1;stroke:#ffffff;stroke-width:0.05;stroke-linecap:square;stroke-linejoin:round;stroke-miterlimit:4;stroke-dasharray:none;stroke-dashoffset:0;stroke-opacity:1;paint-order:markers fill stroke"
         id="circle1012"
         cx="7.9523048"
         cy="33.602142"
         r="4.0999999" />
      <circle
         r="5.4741378"
         cy="33.602142"
         cx="7.9360805"
         id="circle1015"
         style="display:inline;opacity:1;fill:none;fill-opacity:1;stroke:#ffffff;stroke-width:0.05172414;stroke-linecap:square;stroke-linejoin:round;stroke-miterlimit:4;stroke-dasharray:none;stroke-dashoffset:0;stroke-opacity:1;paint-order:markers fill stroke" />
      <path
         style="fill:none;stroke:#ffffff;stroke-width:0.05;stroke-linecap:butt;stroke-linejoin:miter;stroke-miterlimit:4;stroke-dasharray:none;stroke-opacity:1"
         d="M 7.2598426e-7,66.940056 15.875001,66.940517"
         id="path1017"
         inkscape:connector-curvature="0"
         sodipodi:nodetypes="cc" />
      <circle
         style="display:inline;opacity:1;fill:none;fill-opacity:1;stroke:#ffffff;stroke-width:0.05;stroke-linecap:square;stroke-linejoin:round;stroke-miterlimit:4;stroke-dasharray:none;stroke-dashoffset:0;stroke-opacity:1;paint-order:markers fill stroke"
         id="circle1019"
         cx="7.9523048"
         cy="66.940338"
         r="4.0999999" />
      <circle
         r="5.4741378"
         cy="66.940338"
         cx="7.9360805"
         id="circle1021"
         style="display:inline;opacity:1;fill:none;fill-opacity:1;stroke:#ffffff;stroke-width:0.05172414;stroke-linecap:square;stroke-linejoin:round;stroke-miterlimit:4;stroke-dasharray:none;stroke-dashoffset:0;stroke-opacity:1;paint-order:markers fill stroke" />
      <path
         sodipodi:nodetypes="cc"
         inkscape:connector-curvature="0"
         id="path1023"
         d="M 7.2598426e-7,83.608108 15.875001,83.608569"
         style="fill:none;stroke:#ffffff;stroke-width:0.05;stroke-linecap:butt;stroke-linejoin:miter;stroke-miterlimit:4;stroke-dasharray:none;stroke-opacity:1" />
      <circle
         r="4.0999999"
         cy="83.60833"
         cx="7.9523048"
         id="circle1025"
         style="display:inline;opacity:1;fill:none;fill-opacity:1;stroke:#ffffff;stroke-width:0.05;stroke-linecap:square;stroke-linejoin:round;stroke-miterlimit:4;stroke-dasharray:none;stroke-dashoffset:0;stroke-opacity:1;paint-order:markers fill stroke" />
      <circle
         style="display:inline;opacity:1;fill:none;fill-opacity:1;stroke:#ffffff;stroke-width:0.05172414;stroke-linecap:square;stroke-linejoin:round;stroke-miterlimit:4;stroke-dasharray:none;stroke-dashoffset:0;stroke-opacity:1;paint-order:markers fill stroke"
         id="circle1027"
         cx="7.9360805"
         cy="83.60833"
         r="5.4741378" />
      <path
         sodipodi:nodetypes="cc"
         inkscape:connector-curvature="0"
         id="path1029-2"
         d="M 7.2598426e-7,16.933102 15.875001,16.933563"
         style="fill:none;stroke:#ffffff;stroke-width:0.05;stroke-linecap:butt;stroke-linejoin:miter;stroke-miterlimit:4;stroke-dasharray:none;stroke-opacity:1" />
      <circle
         r="4.0999999"
         cy="16.933331"
         cx="7.9523048"
         id="circle1031"
         style="display:inline;opacity:1;fill:none;fill-opacity:1;stroke:#ffffff;stroke-width:0.05;stroke-linecap:square;stroke-linejoin:round;stroke-miterlimit:4;stroke-dasharray:none;stroke-dashoffset:0;stroke-opacity:1;paint-order:markers fill stroke" />
      <circle
         style="display:inline;opacity:1;fill:none;fill-opacity:1;stroke:#ffffff;stroke-width:0.05172414;stroke-linecap:square;stroke-linejoin:round;stroke-miterlimit:4;stroke-dasharray:none;stroke-dashoffset:0;stroke-opacity:1;paint-order:markers fill stroke"
         id="circle1033"
         cx="7.9360805"
         cy="16.933331"
         r="5.4741378" />
    </g>
  </g>
</svg>
