<?xml version="1.0" encoding="UTF-8" standalone="no"?>
<!-- Created with Inkscape (http://www.inkscape.org/) -->

<svg
   xmlns:dc="http://purl.org/dc/elements/1.1/"
   xmlns:cc="http://creativecommons.org/ns#"
   xmlns:rdf="http://www.w3.org/1999/02/22-rdf-syntax-ns#"
   xmlns:svg="http://www.w3.org/2000/svg"
   xmlns="http://www.w3.org/2000/svg"
   xmlns:sodipodi="http://sodipodi.sourceforge.net/DTD/sodipodi-0.dtd"
   xmlns:inkscape="http://www.inkscape.org/namespaces/inkscape"
   width="120"
   height="380"
   viewBox="0 0 31.750002 100.54167"
   version="1.1"
   id="svg8"
   inkscape:version="0.92.4 (5da689c313, 2019-01-14)"
   sodipodi:docname="EuclidExpanderCV.svg">
  <defs
     id="defs2">
    <pattern
       y="0"
       x="0"
       height="6"
       width="6"
       patternUnits="userSpaceOnUse"
       id="EMFhbasepattern" />
  </defs>
  <sodipodi:namedview
     id="base"
     pagecolor="#ffffff"
     bordercolor="#666666"
     borderopacity="1.0"
     inkscape:pageopacity="0.0"
     inkscape:pageshadow="2"
     inkscape:zoom="4.5578947"
     inkscape:cx="43.928586"
     inkscape:cy="272.76636"
     inkscape:document-units="mm"
     inkscape:current-layer="layer1"
     showgrid="true"
     units="px"
     inkscape:snap-bbox="true"
     inkscape:snap-page="true"
     inkscape:bbox-nodes="true"
     inkscape:snap-bbox-edge-midpoints="true"
     inkscape:window-width="1920"
     inkscape:window-height="1017"
     inkscape:window-x="-8"
     inkscape:window-y="-8"
     inkscape:window-maximized="1">
    <inkscape:grid
       type="xygrid"
       id="grid116" />
  </sodipodi:namedview>
  <metadata
     id="metadata5">
    <rdf:RDF>
      <cc:Work
         rdf:about="">
        <dc:format>image/svg+xml</dc:format>
        <dc:type
           rdf:resource="http://purl.org/dc/dcmitype/StillImage" />
        <dc:title />
      </cc:Work>
    </rdf:RDF>
  </metadata>
  <g
     inkscape:groupmode="layer"
     id="layer4"
     inkscape:label="Panel"
     style="display:inline"
     sodipodi:insensitive="true">
    <path
       sodipodi:type="inkscape:offset"
       inkscape:radius="0"
       inkscape:original="M 0 196.45898 L 0 297 L 15.875 297 L 15.875 196.45898 L 0 196.45898 z "
       style="display:inline;fill:#cccccc;stroke-width:0.3310422"
       id="rect3855"
       d="M 0,196.45898 V 297 H 15.875 V 196.45898 Z"
       transform="matrix(2,0,0,1.0000064,0,-196.46023)" />
  </g>
  <g
     inkscape:label="Layer 1"
     inkscape:groupmode="layer"
     id="layer1"
     transform="translate(0,-196.45832)"
     style="display:inline">
    <rect
       ry="0.014616311"
       y="226.36957"
       x="2.6458373"
       height="13.229167"
       width="10.583333"
       id="rect945"
       style="opacity:1;fill:#b3b3b3;fill-opacity:1;stroke:none;stroke-width:0.35856858;stroke-linecap:round;stroke-linejoin:round;stroke-miterlimit:4;stroke-dasharray:none;stroke-dashoffset:0.79370081;stroke-opacity:1;paint-order:markers fill stroke" />
    <text
       id="text1355"
       y="201.48538"
       x="17.462492"
       style="font-style:normal;font-weight:normal;font-size:2.82222223px;line-height:1.25;font-family:sans-serif;letter-spacing:0px;word-spacing:0px;fill:#000000;fill-opacity:1;stroke:none;stroke-width:0.26458332"
       xml:space="preserve"><tspan
         style="stroke-width:0.26458332"
         y="203.98239"
         x="17.462492"
         id="tspan1353"
         sodipodi:role="line" /></text>
    <g
       style="display:inline"
       id="g1405"
       transform="translate(-23.815802,1.1526333e-4)">
      <g
         transform="translate(14.334233,3.7455086)"
         id="text956"
         style="font-style:normal;font-variant:normal;font-weight:normal;font-stretch:normal;font-size:2.82222223px;line-height:1.25;font-family:'Copperplate Gothic Light';-inkscape-font-specification:'Copperplate Gothic Light, ';letter-spacing:0px;word-spacing:0px;fill:#000000;fill-opacity:1;stroke:#000000;stroke-width:0.2;stroke-miterlimit:4;stroke-dasharray:none;stroke-opacity:1"
         aria-label="/^M^\">
        <path
           inkscape:connector-curvature="0"
           id="path958"
           style="font-style:normal;font-variant:normal;font-weight:normal;font-stretch:normal;font-size:2.82222223px;line-height:1.25;font-family:'Copperplate Gothic Light';-inkscape-font-specification:'Copperplate Gothic Light, ';stroke:#000000;stroke-width:0.2;stroke-miterlimit:4;stroke-dasharray:none;stroke-opacity:1"
           d="m 21.203855,291.40545 v 0.0386 h -0.434082 v -0.0386 q 0.09509,-0.006 0.224621,-0.17088 l 1.094162,-1.4621 q 0.07441,-0.1006 0.07441,-0.12402 0,-0.0372 -0.06615,-0.0482 v -0.0372 h 0.423058 v 0.0372 q -0.09508,0.006 -0.22462,0.17087 l -1.08176,1.46348 q -0.07579,0.10197 -0.07579,0.12402 0,0.0358 0.06615,0.0469 z" />
        <path
           inkscape:connector-curvature="0"
           id="path960"
           style="font-style:normal;font-variant:normal;font-weight:normal;font-stretch:normal;font-size:2.82222223px;line-height:1.25;font-family:'Copperplate Gothic Light';-inkscape-font-specification:'Copperplate Gothic Light, ';stroke:#000000;stroke-width:0.2;stroke-miterlimit:4;stroke-dasharray:none;stroke-opacity:1"
           d="M 22.940183,290.3857 H 22.73899 l 0.493338,-0.8282 h 0.243912 l 0.493338,0.8282 h -0.20395 l -0.413411,-0.68075 z" />
        <path
           inkscape:connector-curvature="0"
           id="path962"
           style="font-style:normal;font-variant:normal;font-weight:normal;font-stretch:normal;font-size:2.82222223px;line-height:1.25;font-family:'Copperplate Gothic Light';-inkscape-font-specification:'Copperplate Gothic Light, ';stroke:#000000;stroke-width:0.2;stroke-miterlimit:4;stroke-dasharray:none;stroke-opacity:1"
           d="m 25.342104,291.44403 -0.789616,-1.58061 v 1.418 q 0,0.0565 0.01791,0.0813 0.01791,0.0234 0.07028,0.0372 v 0.0441 h -0.373449 v -0.0441 q 0.05237,-0.0138 0.07028,-0.0372 0.01792,-0.0234 0.01792,-0.0813 v -1.5558 q 0,-0.0579 -0.01792,-0.0813 -0.01791,-0.0248 -0.07028,-0.0372 v -0.0441 h 0.487826 v 0.0441 q -0.06752,0.0234 -0.06752,0.0579 0,0.0165 0.04547,0.10611 l 0.62563,1.24161 0.628385,-1.25263 q 0.03307,-0.0661 0.03307,-0.0937 0,-0.0358 -0.06752,-0.0593 v -0.0441 h 0.49196 v 0.0441 q -0.05237,0.0138 -0.07028,0.0372 -0.01792,0.0234 -0.01792,0.0813 v 1.5558 q 0,0.0565 0.01792,0.0813 0.01791,0.0234 0.07028,0.0372 v 0.0441 h -0.392741 v -0.0441 q 0.05374,-0.0138 0.07028,-0.0372 0.01791,-0.0234 0.01791,-0.0813 v -1.418 z" />
        <path
           inkscape:connector-curvature="0"
           id="path964"
           style="font-style:normal;font-variant:normal;font-weight:normal;font-stretch:normal;font-size:2.82222223px;line-height:1.25;font-family:'Copperplate Gothic Light';-inkscape-font-specification:'Copperplate Gothic Light, ';stroke:#000000;stroke-width:0.2;stroke-miterlimit:4;stroke-dasharray:none;stroke-opacity:1"
           d="m 26.942006,290.3857 h -0.201193 l 0.493338,-0.8282 h 0.243912 l 0.493338,0.8282 h -0.20395 l -0.413411,-0.68075 z" />
        <path
           inkscape:connector-curvature="0"
           id="path966"
           style="font-style:normal;font-variant:normal;font-weight:normal;font-stretch:normal;font-size:2.82222223px;line-height:1.25;font-family:'Copperplate Gothic Light';-inkscape-font-specification:'Copperplate Gothic Light, ';stroke:#000000;stroke-width:0.2;stroke-miterlimit:4;stroke-dasharray:none;stroke-opacity:1"
           d="m 28.617701,289.56301 v 0.0372 q -0.06615,0.011 -0.06615,0.0482 0,0.0234 0.07441,0.12402 l 1.092784,1.4621 q 0.129536,0.16536 0.22462,0.17088 v 0.0386 h -0.434082 v -0.0386 q 0.06615,-0.011 0.06615,-0.0469 0,-0.0207 -0.07579,-0.12402 l -1.080382,-1.46348 q -0.129535,-0.16536 -0.22462,-0.17087 v -0.0372 z" />
      </g>
    </g>
    <g
       aria-label="1"
       style="font-style:normal;font-variant:normal;font-weight:normal;font-stretch:normal;font-size:2.82222223px;line-height:1.25;font-family:'Yu Gothic UI';-inkscape-font-specification:'Yu Gothic UI';letter-spacing:0px;word-spacing:0px;fill:#000000;fill-opacity:1;stroke:none;stroke-width:0.26458332"
       id="text1989"
       transform="translate(-28.469115,-7.3119807)">
      <path
         d="m 44.65395,211.01041 h -0.225999 v -1.70739 q -0.02618,0.0262 -0.07717,0.0606 -0.04961,0.0331 -0.112999,0.0661 -0.06201,0.0331 -0.132292,0.062 -0.0689,0.0289 -0.135047,0.0455 v -0.22875 q 0.07441,-0.0207 0.157096,-0.0551 0.08406,-0.0358 0.163987,-0.0786 0.0813,-0.0441 0.152962,-0.0909 0.07166,-0.0482 0.124023,-0.0937 h 0.08544 z"
         style="stroke-width:0.26458332"
         id="path1991"
         inkscape:connector-curvature="0" />
    </g>
    <g
       aria-label="5"
       style="font-style:normal;font-variant:normal;font-weight:normal;font-stretch:normal;font-size:2.82222223px;line-height:1.25;font-family:'Yu Gothic UI';-inkscape-font-specification:'Yu Gothic UI';letter-spacing:0px;word-spacing:0px;fill:#000000;fill-opacity:1;stroke:none;stroke-width:0.26458332"
       id="text1996"
       transform="translate(-60.342372,37.107662)">
      <path
         d="m 76.763387,210.40683 q 0,0.14469 -0.04961,0.26182 -0.04961,0.11714 -0.141938,0.2012 -0.09095,0.0841 -0.220486,0.12953 -0.129536,0.0455 -0.28801,0.0455 -0.275608,0 -0.409278,-0.0827 v -0.23978 q 0.201194,0.12953 0.412034,0.12953 0.107487,0 0.192925,-0.0317 0.08682,-0.0317 0.14745,-0.0882 0.06063,-0.0565 0.09233,-0.13642 0.03307,-0.0799 0.03307,-0.17501 0,-0.19293 -0.129536,-0.30179 -0.129536,-0.11025 -0.376204,-0.11025 -0.03996,0 -0.08406,0.001 -0.0441,0.001 -0.08819,0.004 -0.0441,10e-4 -0.08682,0.004 -0.04134,0.003 -0.07579,0.007 l 0.06752,-0.99081 h 0.913639 v 0.20395 h -0.717957 l -0.03996,0.58015 q 0.0441,-0.003 0.09371,-0.004 0.04961,-0.003 0.0882,-0.003 0.157096,0 0.281119,0.0413 0.124024,0.0414 0.209462,0.11852 0.08682,0.0758 0.130914,0.18741 0.04547,0.11024 0.04547,0.24805 z"
         style="stroke-width:0.26458332"
         id="path1998"
         inkscape:connector-curvature="0" />
    </g>
    <g
       aria-label="2"
       style="font-style:normal;font-variant:normal;font-weight:normal;font-stretch:normal;font-size:2.82222223px;line-height:1.25;font-family:'Yu Gothic UI';-inkscape-font-specification:'Yu Gothic UI';letter-spacing:0px;word-spacing:0px;fill:#000000;fill-opacity:1;stroke:none;stroke-width:0.26458332"
       id="text2019"
       transform="translate(-36.507152,2.4890411)">
      <path
         d="m 52.657595,210.87535 q 0,-0.0909 -0.02894,-0.15848 -0.02756,-0.0675 -0.07717,-0.11162 -0.04823,-0.0455 -0.114378,-0.0675 -0.06614,-0.0221 -0.143316,-0.0221 -0.06614,0 -0.129535,0.0179 -0.06339,0.0179 -0.124024,0.0496 -0.05926,0.0317 -0.115755,0.0758 -0.05512,0.0441 -0.103353,0.0978 v -0.24254 q 0.09508,-0.0923 0.212218,-0.14056 0.118511,-0.0496 0.28801,-0.0496 0.121268,0 0.22462,0.0358 0.103353,0.0344 0.179145,0.10198 0.07579,0.0675 0.118512,0.16674 0.0441,0.0992 0.0441,0.22738 0,0.11713 -0.02756,0.21221 -0.02618,0.0951 -0.0813,0.17915 -0.05374,0.0841 -0.136426,0.16123 -0.08268,0.0772 -0.194303,0.1571 -0.139182,0.0992 -0.230133,0.16949 -0.08957,0.0703 -0.143316,0.1323 -0.05237,0.0606 -0.07441,0.12264 -0.02067,0.0606 -0.02067,0.14056 h 0.983919 v 0.20257 h -1.219564 v -0.0978 q 0,-0.12678 0.02756,-0.22324 0.02756,-0.0965 0.09095,-0.18328 0.06339,-0.0868 0.165365,-0.17363 0.103353,-0.0868 0.252181,-0.19568 0.107487,-0.0772 0.179145,-0.14745 0.07304,-0.0703 0.117133,-0.14056 0.0441,-0.0703 0.06201,-0.14194 0.01929,-0.073 0.01929,-0.15434 z"
         style="stroke-width:0.26458332"
         id="path2035"
         inkscape:connector-curvature="0" />
    </g>
    <g
       aria-label="3"
       style="font-style:normal;font-variant:normal;font-weight:normal;font-stretch:normal;font-size:2.82222223px;line-height:1.25;font-family:'Yu Gothic UI';-inkscape-font-specification:'Yu Gothic UI';letter-spacing:0px;word-spacing:0px;fill:#000000;fill-opacity:1;stroke:none;stroke-width:0.26458332"
       id="text2023"
       transform="translate(-44.408333,13.574853)">
      <path
         d="m 60.84452,211.77383 q 0,0.13367 -0.05099,0.24391 -0.04961,0.10887 -0.141938,0.18742 -0.09095,0.0772 -0.219108,0.11988 -0.128158,0.0427 -0.282498,0.0427 -0.282498,0 -0.44924,-0.10748 v -0.24254 q 0.199815,0.1571 0.457508,0.1571 0.103353,0 0.186036,-0.0262 0.08406,-0.0262 0.143316,-0.0758 0.06063,-0.0496 0.09233,-0.11989 0.03307,-0.0703 0.03307,-0.15847 0,-0.38723 -0.551215,-0.38723 h -0.163987 v -0.19155 h 0.155718 q 0.487826,0 0.487826,-0.3638 0,-0.33624 -0.37207,-0.33624 -0.209462,0 -0.392741,0.14056 v -0.21911 q 0.188791,-0.113 0.44924,-0.113 0.124024,0 0.22462,0.0344 0.100597,0.0345 0.172255,0.0965 0.07166,0.062 0.110243,0.14883 0.03996,0.0868 0.03996,0.19154 0,0.38999 -0.394119,0.50161 v 0.006 q 0.100597,0.011 0.186036,0.0496 0.08544,0.0372 0.14745,0.0978 0.06201,0.0606 0.09646,0.14332 0.03583,0.0813 0.03583,0.18052 z"
         style="stroke-width:0.26458332"
         id="path2032"
         inkscape:connector-curvature="0" />
    </g>
    <g
       aria-label="4"
       style="font-style:normal;font-variant:normal;font-weight:normal;font-stretch:normal;font-size:2.82222223px;line-height:1.25;font-family:'Yu Gothic UI';-inkscape-font-specification:'Yu Gothic UI';letter-spacing:0px;word-spacing:0px;fill:#000000;fill-opacity:1;stroke:none;stroke-width:0.26458332"
       id="text2027"
       transform="translate(-52.342881,24.679969)">
      <path
         d="m 68.640082,210.35721 v 1.305 h 0.253559 v 0.2067 h -0.253559 v 0.4644 H 68.41684 v -0.4644 h -0.928797 v -0.19568 q 0.129535,-0.14607 0.261827,-0.31143 0.132291,-0.16675 0.252181,-0.33762 0.121267,-0.17088 0.223242,-0.34038 0.103353,-0.17088 0.173633,-0.32659 z m -0.897102,1.305 h 0.67386 v -0.96738 q -0.103353,0.18052 -0.195681,0.32246 -0.09233,0.14193 -0.176389,0.25769 -0.08268,0.11575 -0.158474,0.20946 -0.07579,0.0937 -0.143316,0.17777 z"
         style="stroke-width:0.26458332"
         id="path2029"
         inkscape:connector-curvature="0" />
    </g>
    <g
       aria-label="6"
       style="font-style:normal;font-variant:normal;font-weight:normal;font-stretch:normal;font-size:2.82222223px;line-height:1.25;font-family:'Yu Gothic UI';-inkscape-font-specification:'Yu Gothic UI';letter-spacing:0px;word-spacing:0px;fill:#000000;fill-opacity:1;stroke:none;stroke-width:0.26458332"
       id="text2040"
       transform="translate(-67.468705,46.948179)">
      <path
         d="m 83.958289,211.67322 q 0,0.1447 -0.04685,0.26597 -0.04685,0.12126 -0.129535,0.20946 -0.08268,0.0882 -0.19706,0.1378 -0.114377,0.0482 -0.248047,0.0482 -0.148828,0 -0.267339,-0.062 -0.117133,-0.062 -0.199816,-0.17777 -0.0813,-0.11713 -0.124023,-0.28525 -0.04272,-0.16812 -0.04272,-0.37896 0,-0.25769 0.0565,-0.46716 0.05788,-0.21083 0.162609,-0.35966 0.106109,-0.15021 0.254937,-0.23151 0.148828,-0.0813 0.332107,-0.0813 0.20395,0 0.327973,0.0565 v 0.2136 q -0.152962,-0.0786 -0.322461,-0.0786 -0.132292,0 -0.2384,0.0593 -0.106109,0.0592 -0.181902,0.16812 -0.07579,0.10748 -0.117133,0.26045 -0.03996,0.15296 -0.03996,0.34037 h 0.0055 q 0.136426,-0.24667 0.450619,-0.24667 0.129535,0 0.232888,0.0441 0.104731,0.0441 0.177767,0.1254 0.07441,0.0799 0.114377,0.19155 0.03996,0.11162 0.03996,0.24804 z m -0.23151,0.0289 q 0,-0.10335 -0.02618,-0.18603 -0.02618,-0.0827 -0.07579,-0.14056 -0.04823,-0.0579 -0.119889,-0.0882 -0.07166,-0.0317 -0.162609,-0.0317 -0.08406,0 -0.155718,0.0317 -0.07166,0.0317 -0.124023,0.0868 -0.05237,0.0537 -0.08268,0.12678 -0.02894,0.0717 -0.02894,0.15296 0,0.10198 0.02894,0.19155 0.02894,0.0882 0.08131,0.15434 0.05236,0.0661 0.124023,0.10473 0.07304,0.0372 0.16123,0.0372 0.08544,0 0.155719,-0.0317 0.07028,-0.0331 0.119889,-0.0909 0.04961,-0.0579 0.07717,-0.1378 0.02756,-0.0813 0.02756,-0.17915 z"
         style="stroke-width:0.26458332"
         id="path2056"
         inkscape:connector-curvature="0" />
    </g>
    <g
       aria-label="7"
       style="font-style:normal;font-variant:normal;font-weight:normal;font-stretch:normal;font-size:2.82222223px;line-height:1.25;font-family:'Yu Gothic UI';-inkscape-font-specification:'Yu Gothic UI';letter-spacing:0px;word-spacing:0px;fill:#000000;fill-opacity:1;stroke:none;stroke-width:0.26458332"
       id="text2044"
       transform="translate(-75.39899,58.037108)">
      <path
         d="m 91.895793,210.48812 q -0.04547,0.0785 -0.110243,0.19568 -0.06339,0.11713 -0.135047,0.26321 -0.07166,0.14607 -0.146072,0.31419 -0.07441,0.16812 -0.139182,0.34726 -0.06477,0.17915 -0.114377,0.36381 -0.04823,0.18328 -0.07028,0.36104 h -0.242535 q 0.02481,-0.17639 0.07579,-0.35966 0.05237,-0.18466 0.117133,-0.36105 0.06615,-0.17777 0.139182,-0.34175 0.07304,-0.16399 0.141938,-0.30179 0.0689,-0.13781 0.125402,-0.24254 0.05788,-0.10611 0.09233,-0.16536 h -0.990809 v -0.20395 h 1.25677 z"
         style="stroke-width:0.26458332"
         id="path2053"
         inkscape:connector-curvature="0" />
    </g>
    <g
       aria-label="8"
       style="font-style:normal;font-variant:normal;font-weight:normal;font-stretch:normal;font-size:2.82222223px;line-height:1.25;font-family:'Yu Gothic UI';-inkscape-font-specification:'Yu Gothic UI';letter-spacing:0px;word-spacing:0px;fill:#000000;fill-opacity:1;stroke:none;stroke-width:0.26458332"
       id="text2048"
       transform="translate(-83.342947,69.177832)">
      <path
         d="m 98.561432,211.74906 q 0,-0.0786 0.02481,-0.1571 0.02481,-0.0799 0.07028,-0.14883 0.04685,-0.0689 0.114377,-0.1254 0.0689,-0.0565 0.155719,-0.0896 -0.128158,-0.0717 -0.20395,-0.18328 -0.07579,-0.113 -0.07579,-0.24942 0,-0.10887 0.04134,-0.2012 0.04272,-0.0923 0.117133,-0.15985 0.07441,-0.0675 0.176389,-0.10473 0.101975,-0.0386 0.220486,-0.0386 0.119893,0 0.221873,0.0386 0.10197,0.0386 0.17638,0.10611 0.0744,0.0675 0.11576,0.15985 0.0413,0.0923 0.0413,0.19982 0,0.13642 -0.07579,0.24942 -0.0758,0.11162 -0.2012,0.18328 0.0854,0.0331 0.15297,0.0896 0.0675,0.0565 0.113,0.1254 0.04689,0.0689 0.07169,0.14883 0.0248,0.0786 0.0248,0.1571 0,0.12953 -0.04689,0.23702 -0.04689,0.10749 -0.132288,0.18466 -0.0841,0.0758 -0.20257,0.11851 -0.11713,0.0427 -0.259073,0.0427 -0.14056,0 -0.257693,-0.0427 -0.117133,-0.0427 -0.202572,-0.11851 -0.08544,-0.0772 -0.133669,-0.18466 -0.04685,-0.10749 -0.04685,-0.23702 z m 0.245291,-0.0193 q 0,0.0923 0.02756,0.16674 0.02894,0.0744 0.07993,0.12678 0.05237,0.0524 0.125402,0.0813 0.07441,0.0276 0.163986,0.0276 0.08682,0 0.159848,-0.0289 0.073,-0.0289 0.1254,-0.0813 0.0537,-0.0524 0.0827,-0.12678 0.0303,-0.0744 0.0303,-0.16536 0,-0.0827 -0.0289,-0.15435 -0.0276,-0.073 -0.0799,-0.12815 -0.0524,-0.0551 -0.1254,-0.0868 -0.073,-0.0317 -0.163988,-0.0317 -0.08544,0 -0.158474,0.0303 -0.07166,0.0289 -0.125402,0.0827 -0.05237,0.0524 -0.08268,0.12677 -0.03032,0.073 -0.03032,0.16124 z m 0.07028,-0.9164 q 0,0.0703 0.02481,0.13091 0.02618,0.0593 0.07028,0.10473 0.04547,0.0441 0.104731,0.0703 0.05926,0.0248 0.126779,0.0248 0.06752,0 0.126776,-0.0262 0.0606,-0.0262 0.10473,-0.0703 0.0441,-0.0455 0.0703,-0.10473 0.0262,-0.0606 0.0262,-0.12954 0,-0.0717 -0.0262,-0.13229 -0.0248,-0.0606 -0.0689,-0.10473 -0.0441,-0.0441 -0.10473,-0.0689 -0.0593,-0.0262 -0.128156,-0.0262 -0.07304,0 -0.133669,0.0262 -0.05926,0.0262 -0.103353,0.0717 -0.04272,0.0441 -0.06615,0.10473 -0.02343,0.0606 -0.02343,0.12954 z"
         style="stroke-width:0.26458332"
         id="path2050"
         inkscape:connector-curvature="0" />
    </g>
    <text
       xml:space="preserve"
       style="font-style:normal;font-variant:normal;font-weight:normal;font-stretch:normal;font-size:2.82222223px;line-height:1.25;font-family:'Yu Gothic UI';-inkscape-font-specification:'Yu Gothic UI';letter-spacing:0px;word-spacing:0px;fill:#000000;fill-opacity:1;stroke:none;stroke-width:0.26458332"
       x="125.67708"
       y="200.42706"
       id="text2037"><tspan
         sodipodi:role="line"
         id="tspan2035"
         x="125.67708"
         y="202.96919"
         style="stroke-width:0.26458332" /></text>
    <rect
       style="opacity:1;fill:#b3b3b3;fill-opacity:1;stroke:none;stroke-width:0.32071349;stroke-linecap:round;stroke-linejoin:round;stroke-miterlimit:4;stroke-dasharray:none;stroke-dashoffset:0.79370081;stroke-opacity:1;paint-order:markers fill stroke"
       id="rect1374"
       width="10.583333"
       height="10.583333"
       x="2.6458373"
       y="279.00833"
       ry="0.011693048" />
    <rect
       ry="0.011693049"
       y="267.89581"
       x="2.6458333"
       height="10.583334"
       width="10.583333"
       id="rect1378"
       style="opacity:1;fill:#b3b3b3;fill-opacity:1;stroke:none;stroke-width:0.32071349;stroke-linecap:round;stroke-linejoin:round;stroke-miterlimit:4;stroke-dasharray:none;stroke-dashoffset:0.79370081;stroke-opacity:1;paint-order:markers fill stroke" />
    <text
       xml:space="preserve"
       style="font-style:normal;font-variant:normal;font-weight:normal;font-stretch:normal;font-size:2.82222223px;line-height:1.25;font-family:'Yu Gothic UI';-inkscape-font-specification:'Yu Gothic UI';letter-spacing:0px;word-spacing:0px;fill:#000000;fill-opacity:1;stroke:none;stroke-width:0.26458332"
       x="202.40625"
       y="207.04166"
       id="text1435"><tspan
         sodipodi:role="line"
         id="tspan1433"
         x="202.40625"
         y="209.58379"
         style="stroke-width:0.26458332" /></text>
    <text
       xml:space="preserve"
       style="font-style:normal;font-variant:normal;font-weight:normal;font-stretch:normal;font-size:2.82222223px;line-height:1.25;font-family:'Yu Gothic UI';-inkscape-font-specification:'Yu Gothic UI';letter-spacing:0px;word-spacing:0px;fill:#000000;fill-opacity:1;stroke:none;stroke-width:0.26458332"
       x="17.197916"
       y="205.71873"
       id="text1967"><tspan
         sodipodi:role="line"
         id="tspan1965"
         x="17.197916"
         y="208.26086"
         style="stroke-width:0.26458332" /></text>
    <g
       aria-label="OUT"
       style="font-style:normal;font-variant:normal;font-weight:normal;font-stretch:normal;font-size:2.82222223px;line-height:1.25;font-family:'Yu Gothic UI';-inkscape-font-specification:'Yu Gothic UI';letter-spacing:0px;word-spacing:0px;fill:#000000;fill-opacity:1;stroke:none;stroke-width:0.26458332"
       id="text1231"
       transform="translate(-9.448977,20.97062)">
      <path
         d="m 15.60766,249.40806 q -0.420301,0 -0.67386,-0.27699 -0.252181,-0.27698 -0.252181,-0.72071 0,-0.4768 0.257693,-0.76068 0.257693,-0.28387 0.701421,-0.28387 0.409278,0 0.658702,0.2756 0.250803,0.27561 0.250803,0.72072 0,0.48369 -0.256315,0.76481 -0.256315,0.28112 -0.686263,0.28112 z m 0.01654,-1.83279 q -0.311437,0 -0.50574,0.22462 -0.194304,0.22462 -0.194304,0.5898 0,0.36518 0.188792,0.58842 0.190169,0.22186 0.494715,0.22186 0.325217,0 0.51263,-0.21221 0.187414,-0.21222 0.187414,-0.59394 0,-0.39136 -0.181901,-0.60496 -0.181901,-0.21359 -0.501606,-0.21359 z"
         style="font-size:2.82222223px;stroke-width:0.26458332"
         id="path1237"
         inkscape:connector-curvature="0" />
      <path
         d="m 18.384407,248.57572 q 0,0.83234 -0.751031,0.83234 -0.719335,0 -0.719335,-0.80064 v -1.20854 h 0.23151 v 1.19338 q 0,0.60771 0.51263,0.60771 0.494716,0 0.494716,-0.58704 v -1.21405 h 0.23151 z"
         style="font-size:2.82222223px;stroke-width:0.26458332"
         id="path1239"
         inkscape:connector-curvature="0" />
      <path
         d="m 20.047699,247.60834 h -0.570507 v 1.76664 h -0.231511 v -1.76664 h -0.56913 v -0.20946 h 1.371148 z"
         style="font-size:2.82222223px;stroke-width:0.26458332"
         id="path1241"
         inkscape:connector-curvature="0" />
    </g>
    <g
       aria-label="INV"
       style="font-style:normal;font-variant:normal;font-weight:normal;font-stretch:normal;font-size:2.82222223px;line-height:1.25;font-family:'Yu Gothic UI';-inkscape-font-specification:'Yu Gothic UI';letter-spacing:0px;word-spacing:0px;fill:#000000;fill-opacity:1;stroke:none;stroke-width:0.26458332"
       id="text1235"
       transform="translate(-13.021841,13.572282)">
      <path
         d="m 19.011416,267.89581 h -0.231511 v -1.9761 h 0.231511 z"
         style="font-size:2.82222223px;stroke-width:0.26458332"
         id="path1244"
         inkscape:connector-curvature="0" />
      <path
         d="m 21.12257,267.89581 h -0.283876 l -1.016992,-1.57509 q -0.03858,-0.0593 -0.06339,-0.12403 h -0.0083 q 0.01102,0.0634 0.01102,0.27148 v 1.42764 h -0.23151 v -1.9761 h 0.300412 l 0.989432,1.55029 q 0.06201,0.0965 0.07993,0.13229 h 0.0055 q -0.01378,-0.0854 -0.01378,-0.29077 v -1.39181 h 0.23151 z"
         style="font-size:2.82222223px;stroke-width:0.26458332"
         id="path1246"
         inkscape:connector-curvature="0" />
      <path
         d="m 23.109701,265.91971 -0.731738,1.9761 h -0.254937 l -0.71658,-1.9761 h 0.257693 l 0.547081,1.56683 q 0.02618,0.0758 0.03996,0.17501 h 0.0055 q 0.01102,-0.0827 0.04547,-0.17777 l 0.558105,-1.56407 z"
         style="font-size:2.82222223px;stroke-width:0.26458332"
         id="path1248"
         inkscape:connector-curvature="0" />
    </g>
    <g
       aria-label="CLOCK"
       style="font-style:normal;font-variant:normal;font-weight:normal;font-stretch:normal;font-size:2.82222223px;line-height:1.25;font-family:'Yu Gothic UI';-inkscape-font-specification:'Yu Gothic UI';letter-spacing:0px;word-spacing:0px;fill:#000000;fill-opacity:1;stroke:none;stroke-width:0.26458332"
       id="text960"
       transform="translate(0,5.0255408)">
      <path
         d="m 5.1847822,203.60729 q -0.2191081,0.11575 -0.5457032,0.11575 -0.4216797,0 -0.6752387,-0.27147 -0.253559,-0.27147 -0.253559,-0.71244 0,-0.47405 0.2852539,-0.76619 0.2852539,-0.29215 0.72347,-0.29215 0.2811198,0 0.465777,0.0813 v 0.24667 q -0.2122179,-0.11852 -0.468533,-0.11852 -0.3403755,0 -0.5525933,0.22738 -0.2108399,0.22738 -0.2108399,0.60772 0,0.36104 0.1970595,0.57602 0.1984375,0.21359 0.5195204,0.21359 0.2976562,0 0.5153863,-0.13229 z"
         style="stroke-width:0.26458332"
         id="path947"
         inkscape:connector-curvature="0" />
      <path
         d="M 6.6124298,203.68997 H 5.5871694 v -1.9761 h 0.2315104 v 1.76664 h 0.79375 z"
         style="stroke-width:0.26458332"
         id="path950"
         inkscape:connector-curvature="0" />
      <path
         d="m 7.6845436,203.72304 q -0.4203017,0 -0.6738607,-0.27698 -0.252181,-0.27699 -0.252181,-0.72071 0,-0.47681 0.2576932,-0.76068 0.2576931,-0.28388 0.7014214,-0.28388 0.4092774,0 0.6587023,0.27561 0.2508029,0.27561 0.2508029,0.72071 0,0.4837 -0.2563151,0.76482 -0.2563151,0.28111 -0.686263,0.28111 z m 0.016537,-1.83279 q -0.3114367,0 -0.5057401,0.22462 -0.1943034,0.22462 -0.1943034,0.5898 0,0.36518 0.1887913,0.58843 0.1901693,0.22186 0.4947157,0.22186 0.325217,0 0.5126302,-0.21222 0.1874132,-0.21221 0.1874132,-0.59393 0,-0.39136 -0.181901,-0.60496 -0.1819011,-0.2136 -0.5016059,-0.2136 z"
         style="stroke-width:0.26458332"
         id="path952"
         inkscape:connector-curvature="0" />
      <path
         d="m 10.360694,203.60729 q -0.219108,0.11575 -0.5457035,0.11575 -0.4216797,0 -0.6752388,-0.27147 -0.253559,-0.27147 -0.253559,-0.71244 0,-0.47405 0.2852539,-0.76619 0.2852539,-0.29215 0.7234701,-0.29215 0.2811193,0 0.4657773,0.0813 v 0.24667 q -0.212218,-0.11852 -0.4685334,-0.11852 -0.3403754,0 -0.5525933,0.22738 -0.2108399,0.22738 -0.2108399,0.60772 0,0.36104 0.1970595,0.57602 0.1984375,0.21359 0.5195204,0.21359 0.2976567,0 0.5153867,-0.13229 z"
         style="stroke-width:0.26458332"
         id="path954"
         inkscape:connector-curvature="0" />
      <path
         d="m 12.138363,203.68997 h -0.322461 l -0.763433,-0.90399 q -0.04272,-0.051 -0.05237,-0.0689 h -0.0055 v 0.97289 h -0.23151 v -1.9761 h 0.23151 v 0.92879 h 0.0055 q 0.01929,-0.0303 0.05237,-0.0675 l 0.738628,-0.86127 h 0.28801 l -0.847493,0.94809 z"
         style="stroke-width:0.26458332"
         id="path956"
         inkscape:connector-curvature="0" />
    </g>
    <g
       transform="translate(-1.3669983,5.4972425)"
       id="g979"
       style="font-style:normal;font-variant:normal;font-weight:normal;font-stretch:normal;font-size:2.11666656px;line-height:1.25;font-family:'Yu Gothic UI';-inkscape-font-specification:'Yu Gothic UI';letter-spacing:0px;word-spacing:0px;fill:#000000;fill-opacity:1;stroke:none;stroke-width:0.26458332"
       aria-label="BEAT">
      <path
         inkscape:connector-curvature="0"
         id="path971"
         style="font-size:2.11666656px;stroke-width:0.26458332"
         d="m 1.7818034,205.98332 v -1.48208 H 2.203483 q 0.1922363,0 0.304891,0.0941 0.1126546,0.094 0.1126546,0.24495 0,0.12609 -0.068213,0.21911 -0.068213,0.093 -0.1881022,0.13229 v 0.004 q 0.1498616,0.0176 0.2397786,0.11369 0.089917,0.0951 0.089917,0.24805 0,0.19017 -0.1364258,0.30799 -0.1364258,0.11782 -0.344165,0.11782 z m 0.1736328,-1.32498 v 0.47852 h 0.1777669 q 0.1426269,0 0.2242757,-0.0682 0.081649,-0.0692 0.081649,-0.1943 0,-0.21601 -0.2842203,-0.21601 z m 0,0.63459 v 0.5333 h 0.2356445 q 0.1529622,0 0.236678,-0.0724 0.084749,-0.0724 0.084749,-0.19844 0,-0.26251 -0.3576009,-0.26251 z" />
      <path
         inkscape:connector-curvature="0"
         id="path973"
         style="font-size:2.11666656px;stroke-width:0.26458332"
         d="M 3.7827147,205.98332 H 2.997233 v -1.48208 h 0.7524088 v 0.1571 h -0.578776 v 0.49299 h 0.5353678 v 0.15606 H 3.1708658 v 0.51884 h 0.6118489 z" />
      <path
         inkscape:connector-curvature="0"
         id="path975"
         style="font-size:2.11666656px;stroke-width:0.26458332"
         d="M 5.2151853,205.98332 H 5.022949 L 4.8658527,205.56784 H 4.2374673 l -0.1477946,0.41548 H 3.8964028 l 0.5684408,-1.48208 h 0.1798339 z m -0.4061767,-0.57154 -0.2325439,-0.63149 q -0.011369,-0.031 -0.022738,-0.0992 h -0.00413 q -0.010335,0.063 -0.023771,0.0992 l -0.2304769,0.63149 z" />
      <path
         inkscape:connector-curvature="0"
         id="path977"
         style="font-size:2.11666656px;stroke-width:0.26458332"
         d="M 6.2342444,204.65834 H 5.8063636 v 1.32498 H 5.6327308 v -1.32498 H 5.2058834 v -0.1571 h 1.028361 z" />
    </g>
    <g
       transform="translate(-1.6315816,3.6477324)"
       id="g990"
       style="font-style:normal;font-variant:normal;font-weight:normal;font-stretch:normal;font-size:2.11666656px;line-height:1.25;font-family:'Yu Gothic UI';-inkscape-font-specification:'Yu Gothic UI';letter-spacing:0px;word-spacing:0px;fill:#000000;fill-opacity:1;stroke:none;stroke-width:0.26458332"
       aria-label="REST">
      <path
         inkscape:connector-curvature="0"
         id="path982"
         style="font-size:2.11666656px;stroke-width:0.26458332"
         d="M 3.1088541,213.12708 H 2.9021484 L 2.6541015,212.7116 q -0.034106,-0.0579 -0.066146,-0.0982 -0.032039,-0.0413 -0.066146,-0.0672 -0.033073,-0.0258 -0.072347,-0.0372 -0.038241,-0.0124 -0.086816,-0.0124 h -0.142627 v 0.63046 H 2.0463867 V 211.645 h 0.4423502 q 0.097152,0 0.1788005,0.0248 0.082682,0.0238 0.1426269,0.0734 0.060978,0.0496 0.095085,0.12402 0.034106,0.0734 0.034106,0.1726 0,0.0775 -0.023771,0.14263 -0.022738,0.0641 -0.066146,0.11472 -0.042375,0.0506 -0.1033528,0.0868 -0.059945,0.0351 -0.1353923,0.0548 v 0.004 q 0.037207,0.0165 0.064079,0.0382 0.027905,0.0207 0.05271,0.0496 0.024805,0.0289 0.048576,0.0661 0.024805,0.0362 0.054777,0.0847 z m -0.8888346,-1.32499 v 0.53744 H 2.455664 q 0.065112,0 0.1198893,-0.0196 0.055811,-0.0196 0.096118,-0.0558 0.040308,-0.0372 0.063045,-0.0899 0.022738,-0.0537 0.022738,-0.11989 0,-0.11885 -0.077515,-0.185 -0.076481,-0.0672 -0.2222086,-0.0672 z" />
      <path
         inkscape:connector-curvature="0"
         id="path984"
         style="font-size:2.11666656px;stroke-width:0.26458332"
         d="M 4.0969074,213.12708 H 3.3114257 V 211.645 h 0.7524088 v 0.15709 h -0.578776 v 0.49299 h 0.5353678 v 0.15607 H 3.4850585 v 0.51883 h 0.6118489 z" />
      <path
         inkscape:connector-curvature="0"
         id="path986"
         style="font-size:2.11666656px;stroke-width:0.26458332"
         d="m 4.3129147,213.06713 v -0.20464 q 0.03514,0.031 0.083716,0.0558 0.049609,0.0248 0.1033529,0.0424 0.054777,0.0165 0.109554,0.0258 0.054777,0.009 0.1012858,0.009 0.1601969,0 0.2387451,-0.0589 0.079582,-0.06 0.079582,-0.17157 0,-0.0599 -0.026872,-0.10439 -0.025838,-0.0444 -0.072347,-0.0806 -0.046509,-0.0372 -0.1105876,-0.0703 -0.063045,-0.0341 -0.1364258,-0.0713 -0.077515,-0.0393 -0.144694,-0.0796 -0.067179,-0.0403 -0.1167887,-0.0889 -0.049609,-0.0486 -0.078548,-0.10955 -0.027905,-0.062 -0.027905,-0.1447 0,-0.10128 0.044442,-0.1757 0.044442,-0.0754 0.1167887,-0.12402 0.072347,-0.0486 0.1643311,-0.0724 0.093018,-0.0238 0.1891357,-0.0238 0.2191081,0 0.3193603,0.0527 v 0.19534 q -0.1312581,-0.0909 -0.3369303,-0.0909 -0.056844,0 -0.1136881,0.0124 -0.056844,0.0114 -0.1012858,0.0382 -0.044442,0.0269 -0.072347,0.0692 -0.027905,0.0424 -0.027905,0.10335 0,0.0568 0.020671,0.0982 0.021704,0.0413 0.063045,0.0754 0.041341,0.0341 0.1002523,0.0661 0.059945,0.032 0.1374593,0.0703 0.079582,0.0393 0.1508952,0.0827 0.071313,0.0434 0.1250569,0.0961 0.053744,0.0527 0.084749,0.11679 0.032039,0.0641 0.032039,0.14676 0,0.10955 -0.043408,0.18603 -0.042375,0.0754 -0.1157553,0.12299 -0.072347,0.0476 -0.1674316,0.0682 -0.095085,0.0217 -0.2005045,0.0217 -0.03514,0 -0.086816,-0.006 -0.051677,-0.005 -0.1054199,-0.0165 -0.053743,-0.0103 -0.1023194,-0.0258 -0.047542,-0.0165 -0.076481,-0.0362 z" />
      <path
         inkscape:connector-curvature="0"
         id="path988"
         style="font-size:2.11666656px;stroke-width:0.26458332"
         d="M 6.362402,211.80209 H 5.9345212 v 1.32499 H 5.7608884 v -1.32499 H 5.3340411 V 211.645 H 6.362402 Z" />
    </g>
    <g
       aria-label="CLK"
       style="font-style:normal;font-variant:normal;font-weight:normal;font-stretch:normal;font-size:2.11666656px;line-height:1.25;font-family:'Yu Gothic UI';-inkscape-font-specification:'Yu Gothic UI';letter-spacing:0px;word-spacing:0px;fill:#000000;fill-opacity:1;stroke:none;stroke-width:0.26458332"
       id="text1037"
       transform="translate(-1.0169921,8.2026241)">
      <path
         d="m 2.5376728,205.86386 q -0.1643311,0.0868 -0.4092773,0.0868 -0.3162598,0 -0.506429,-0.20361 -0.1901693,-0.2036 -0.1901693,-0.53433 0,-0.35554 0.2139404,-0.57464 0.2139404,-0.21911 0.5426025,-0.21911 0.2108399,0 0.3493327,0.061 v 0.185 q -0.1591634,-0.0889 -0.3513997,-0.0889 -0.2552816,0 -0.414445,0.17054 -0.1581299,0.17053 -0.1581299,0.45578 0,0.27079 0.1477946,0.43202 0.1488281,0.16019 0.3896403,0.16019 0.2232422,0 0.3865397,-0.0992 z"
         style="font-size:2.11666656px;stroke-width:0.26458332"
         id="path1052"
         inkscape:connector-curvature="0" />
      <path
         d="M 3.6084084,205.92587 H 2.8394631 v -1.48208 h 0.1736328 v 1.32499 h 0.5953125 z"
         style="font-size:2.11666656px;stroke-width:0.26458332"
         id="path1054"
         inkscape:connector-curvature="0" />
      <path
         d="M 4.8672461,205.92587 H 4.6254004 l -0.5725749,-0.67799 q -0.032039,-0.0382 -0.039274,-0.0517 h -0.00413 v 0.72967 h -0.173637 v -1.48208 h 0.1736328 v 0.6966 h 0.00413 q 0.014469,-0.0227 0.039274,-0.0506 l 0.5539714,-0.64596 h 0.2160074 l -0.63562,0.71107 z"
         style="font-size:2.11666656px;stroke-width:0.26458332"
         id="path1056"
         inkscape:connector-curvature="0" />
    </g>
    <g
       aria-label="ESX-CV"
       style="font-style:normal;font-variant:normal;font-weight:600;font-stretch:normal;font-size:3.52777767px;line-height:1.25;font-family:'Yu Gothic UI';-inkscape-font-specification:'Yu Gothic UI Semi-Bold';letter-spacing:0px;word-spacing:0px;fill:#000000;fill-opacity:1;stroke:none;stroke-width:0.26458332"
       id="text957"
       transform="translate(4.5733653,-1.9864466)">
      <path
         d="M 6.9832083,202.01457 H 5.5965574 v -2.47013 h 1.3315294 v 0.34795 h -0.921563 v 0.69936 h 0.849216 v 0.34623 h -0.849216 v 0.73036 h 0.9766845 z"
         style="font-style:normal;font-variant:normal;font-weight:600;font-stretch:normal;font-family:'Yu Gothic UI';-inkscape-font-specification:'Yu Gothic UI Semi-Bold';stroke-width:0.26458332"
         id="path959"
         inkscape:connector-curvature="0" />
      <path
         d="m 7.3087699,201.91639 v -0.42203 q 0.056844,0.0517 0.1343587,0.093 0.079237,0.0413 0.1670871,0.0706 0.08785,0.0276 0.1756999,0.0431 0.08785,0.0155 0.1619194,0.0155 0.2583822,0 0.3841282,-0.0861 0.1274685,-0.0861 0.1274685,-0.24977 0,-0.0879 -0.043064,-0.15158 -0.041341,-0.0655 -0.1171332,-0.11886 -0.075792,-0.0534 -0.179145,-0.10163 -0.1016303,-0.0499 -0.2187635,-0.10335 -0.125746,-0.0672 -0.2342665,-0.13608 -0.1085205,-0.0689 -0.1894803,-0.15158 -0.079237,-0.0844 -0.125746,-0.18948 -0.044786,-0.10508 -0.044786,-0.24633 0,-0.17398 0.077515,-0.30144 0.079237,-0.1292 0.2067057,-0.21188 0.1291911,-0.0844 0.2928331,-0.12402 0.163642,-0.0413 0.3341742,-0.0413 0.3875733,0 0.5649957,0.0879 v 0.4048 q -0.2101508,-0.15159 -0.54088,-0.15159 -0.091295,0 -0.1825901,0.0172 -0.089572,0.0172 -0.1619194,0.0568 -0.070624,0.0396 -0.1154107,0.10163 -0.044786,0.062 -0.044786,0.14986 0,0.0827 0.034451,0.14298 0.034451,0.0603 0.099908,0.11024 0.067179,0.0499 0.1619194,0.0982 0.096463,0.0465 0.2222087,0.10163 0.1291911,0.0672 0.2428792,0.14125 0.1154107,0.0741 0.2015381,0.16364 0.08785,0.0896 0.1378038,0.19982 0.051676,0.10852 0.051676,0.24805 0,0.18775 -0.075792,0.31695 -0.075792,0.12919 -0.2049831,0.21015 -0.1274686,0.081 -0.2945557,0.11713 -0.1670871,0.0362 -0.3531223,0.0362 -0.062012,0 -0.1533067,-0.0103 -0.089573,-0.009 -0.1843126,-0.0276 -0.09474,-0.0172 -0.179145,-0.0431 -0.084405,-0.0258 -0.1360812,-0.0586 z"
         style="font-style:normal;font-variant:normal;font-weight:600;font-stretch:normal;font-family:'Yu Gothic UI';-inkscape-font-specification:'Yu Gothic UI Semi-Bold';stroke-width:0.26458332"
         id="path961"
         inkscape:connector-curvature="0" />
      <path
         d="m 11.191392,202.01457 h -0.490926 l -0.506429,-0.90606 q -0.02239,-0.0413 -0.04995,-0.11713 h -0.0069 q -0.0155,0.0379 -0.05168,0.11713 l -0.5219322,0.90606 H 9.0692137 l 0.8095974,-1.24195 -0.7441406,-1.22818 h 0.5012613 l 0.4461402,0.83371 q 0.04306,0.0827 0.07751,0.16537 h 0.0052 q 0.04995,-0.10852 0.08613,-0.17226 l 0.463366,-0.82682 h 0.461642 l -0.761366,1.22473 z"
         style="font-style:normal;font-variant:normal;font-weight:600;font-stretch:normal;font-family:'Yu Gothic UI';-inkscape-font-specification:'Yu Gothic UI Semi-Bold';stroke-width:0.26458332"
         id="path963"
         inkscape:connector-curvature="0" />
      <path
         d="m 12.343777,201.19808 h -0.940512 v -0.29455 h 0.940512 z"
         style="font-style:normal;font-variant:normal;font-weight:600;font-stretch:normal;font-family:'Yu Gothic UI';-inkscape-font-specification:'Yu Gothic UI Semi-Bold';stroke-width:0.26458332"
         id="path965"
         inkscape:connector-curvature="0" />
      <path
         d="m 14.602037,201.91122 q -0.279053,0.14469 -0.694187,0.14469 -0.537435,0 -0.861274,-0.33934 -0.323839,-0.33934 -0.323839,-0.89056 0,-0.59255 0.363458,-0.95773 0.36518,-0.36518 0.921563,-0.36518 0.35829,0 0.594279,0.10163 v 0.40652 q -0.249769,-0.14814 -0.551215,-0.14814 -0.401354,0 -0.651123,0.25666 -0.248047,0.25666 -0.248047,0.68557 0,0.40825 0.232544,0.65113 0.232544,0.24115 0.611504,0.24115 0.349677,0 0.606337,-0.16536 z"
         style="font-style:normal;font-variant:normal;font-weight:600;font-stretch:normal;font-family:'Yu Gothic UI';-inkscape-font-specification:'Yu Gothic UI Semi-Bold';stroke-width:0.26458332"
         id="path967"
         inkscape:connector-curvature="0" />
      <path
         d="m 17.006713,199.54444 -0.887112,2.47013 h -0.458197 l -0.871609,-2.47013 h 0.447862 l 0.609782,1.87413 q 0.02928,0.0896 0.04479,0.20843 h 0.0069 q 0.01206,-0.0982 0.04995,-0.21187 l 0.623562,-1.87069 z"
         style="font-style:normal;font-variant:normal;font-weight:600;font-stretch:normal;font-family:'Yu Gothic UI';-inkscape-font-specification:'Yu Gothic UI Semi-Bold';stroke-width:0.26458332"
         id="path969"
         inkscape:connector-curvature="0" />
    </g>
    <g
       aria-label="SCALE"
       style="font-style:normal;font-variant:normal;font-weight:normal;font-stretch:normal;font-size:2.82222223px;line-height:1.25;font-family:'Yu Gothic UI';-inkscape-font-specification:'Yu Gothic UI';letter-spacing:0px;word-spacing:0px;display:inline;fill:#000000;fill-opacity:1;stroke:none;stroke-width:0.26458332"
       id="text1055-8"
       transform="translate(-15.902724,-12.130655)">
      <path
         d="m 20.045632,263.0986 v -0.27285 q 0.04685,0.0413 0.111621,0.0744 0.06615,0.0331 0.137804,0.0565 0.07304,0.022 0.146072,0.0344 0.07304,0.0124 0.135047,0.0124 0.213596,0 0.318327,-0.0786 0.106109,-0.0799 0.106109,-0.22876 0,-0.0799 -0.03583,-0.13918 -0.03445,-0.0593 -0.09646,-0.10748 -0.06201,-0.0496 -0.147451,-0.0937 -0.08406,-0.0455 -0.181901,-0.0951 -0.103352,-0.0524 -0.192925,-0.1061 -0.08957,-0.0537 -0.155718,-0.11852 -0.06615,-0.0648 -0.104731,-0.14607 -0.03721,-0.0827 -0.03721,-0.19292 0,-0.13505 0.05926,-0.23427 0.05926,-0.1006 0.155719,-0.16536 0.09646,-0.0648 0.219108,-0.0965 0.124023,-0.0317 0.252181,-0.0317 0.292144,0 0.425814,0.0703 v 0.26045 q -0.175011,-0.12127 -0.449241,-0.12127 -0.07579,0 -0.151584,0.0165 -0.07579,0.0152 -0.135048,0.051 -0.05926,0.0358 -0.09646,0.0923 -0.03721,0.0565 -0.03721,0.13781 0,0.0758 0.02756,0.13091 0.02894,0.0551 0.08406,0.1006 0.05512,0.0455 0.133669,0.0882 0.07993,0.0427 0.183279,0.0937 0.106109,0.0524 0.201194,0.11024 0.09509,0.0579 0.166743,0.12816 0.07166,0.0703 0.112999,0.15572 0.04272,0.0854 0.04272,0.19568 0,0.14607 -0.05788,0.24804 -0.0565,0.1006 -0.15434,0.16399 -0.09646,0.0634 -0.223242,0.091 -0.12678,0.0289 -0.26734,0.0289 -0.04685,0 -0.115755,-0.008 -0.0689,-0.007 -0.14056,-0.022 -0.07166,-0.0138 -0.136425,-0.0344 -0.06339,-0.0221 -0.101975,-0.0482 z"
         style="stroke-width:0.26458332"
         id="path1297-2"
         inkscape:connector-curvature="0" />
      <path
         d="m 22.982231,263.09585 q -0.219108,0.11575 -0.545703,0.11575 -0.42168,0 -0.675239,-0.27147 -0.253559,-0.27148 -0.253559,-0.71245 0,-0.47404 0.285254,-0.76619 0.285254,-0.29214 0.72347,-0.29214 0.28112,0 0.465777,0.0813 v 0.24667 q -0.212218,-0.11851 -0.468533,-0.11851 -0.340375,0 -0.552593,0.22738 -0.21084,0.22737 -0.21084,0.60771 0,0.36105 0.197059,0.57602 0.198438,0.2136 0.519521,0.2136 0.297656,0 0.515386,-0.13229 z"
         style="stroke-width:0.26458332"
         id="path1299-9"
         inkscape:connector-curvature="0" />
      <path
         d="m 24.914241,263.17853 h -0.256315 l -0.209462,-0.55397 h -0.837847 l -0.19706,0.55397 h -0.257693 l 0.757921,-1.97611 h 0.239779 z m -0.541569,-0.76206 -0.310059,-0.84198 q -0.01516,-0.0413 -0.03032,-0.13229 h -0.0055 q -0.01378,0.0841 -0.03169,0.13229 l -0.307302,0.84198 z"
         style="stroke-width:0.26458332"
         id="path1301-0"
         inkscape:connector-curvature="0" />
      <path
         d="m 26.228889,263.17853 h -1.02526 v -1.97611 h 0.23151 v 1.76665 h 0.79375 z"
         style="stroke-width:0.26458332"
         id="path1303-2"
         inkscape:connector-curvature="0" />
      <path
         d="m 27.579367,263.17853 h -1.047309 v -1.97611 h 1.003211 v 0.20946 h -0.771701 v 0.65733 h 0.713824 v 0.20808 h -0.713824 v 0.69178 h 0.815799 z"
         style="stroke-width:0.26458332"
         id="path1306-7-1"
         inkscape:connector-curvature="0" />
    </g>
    <path
       id="path2149"
       d="m 10.814765,262.88568 -2.8997849,-5.01646 -2.9209606,5.01646"
       style="display:inline;fill:none;stroke:#000000;stroke-width:0.19049859px;stroke-linecap:round;stroke-linejoin:miter;stroke-miterlimit:4;stroke-dasharray:none;stroke-opacity:1"
       inkscape:connector-curvature="0" />
    <path
       id="path2157"
       d="m 10.645435,264.28267 c 0,-0.0423 0.0212,-0.0847 0.0212,-0.127 0.0212,-0.0423 0.0423,-0.0635 0.0635,-0.10583 0.0212,-0.0423 0.0423,-0.0635 0.0847,-0.0847 0.0212,-0.0423 0.0635,-0.0635 0.105827,-0.0847 -0.0635,-0.0212 -0.105827,-0.0635 -0.148157,-0.127 -0.0423,-0.0635 -0.0635,-0.127 -0.0635,-0.1905 0,-0.0635 0.0212,-0.10583 0.0423,-0.14816 0.0212,-0.0423 0.0423,-0.0847 0.0847,-0.127 0.0423,-0.0212 0.0847,-0.0635 0.127,-0.0635 0.0635,-0.0212 0.10583,-0.0423 0.16933,-0.0423 0.0635,0 0.10583,0.0212 0.16933,0.0423 0.0423,0 0.0847,0.0423 0.127004,0.0635 0.0423,0.0423 0.0635,0.0847 0.0847,0.127 0.0212,0.0423 0.0423,0.10583 0.0423,0.14816 0,0.0635 -0.0212,0.127 -0.0635,0.1905 -0.0423,0.0635 -0.0847,0.10583 -0.148174,0.127 0.0423,0.0212 0.0847,0.0423 0.105844,0.0847 0.0423,0.0212 0.0635,0.0423 0.0847,0.0847 0.0212,0.0423 0.0423,0.0635 0.0635,0.10583 0,0.0423 0.0212,0.0847 0.0212,0.127 0,0.0635 -0.0212,0.127 -0.0423,0.16933 -0.0212,0.0635 -0.0635,0.10584 -0.105838,0.14817 -0.0423,0.0423 -0.0847,0.0635 -0.148164,0.0847 -0.0635,0.0212 -0.127,0.0212 -0.1905,0.0212 -0.0635,0 -0.127001,0 -0.190501,-0.0212 -0.0635,-0.0212 -0.105829,-0.0423 -0.148156,-0.0847 -0.0423,-0.0423 -0.0847,-0.0847 -0.10584,-0.14817 -0.0212,-0.0423 -0.0423,-0.10583 -0.0423,-0.16933 z m 0.190497,-0.0212 c 0,0.0423 0,0.0847 0.0212,0.127 0.0212,0.0423 0.0423,0.0635 0.0635,0.10583 0.0212,0.0212 0.0423,0.0423 0.0847,0.0423 0.0423,0.0212 0.0847,0.0212 0.127,0.0212 0.0423,0 0.0847,0 0.127,-0.0212 0.0212,0 0.0635,-0.0212 0.0847,-0.0635 0.0212,-0.0212 0.0423,-0.0423 0.0635,-0.0847 0.0212,-0.0423 0.0212,-0.0847 0.0212,-0.127 0,-0.0423 0,-0.0847 -0.0212,-0.10584 -0.0212,-0.0423 -0.0212,-0.0847 -0.0635,-0.10583 -0.0212,-0.0212 -0.0423,-0.0423 -0.0847,-0.0635 -0.0423,-0.0212 -0.0847,-0.0212 -0.127,-0.0212 -0.0423,0 -0.0847,0 -0.127,0.0212 -0.0212,0.0212 -0.0635,0.0423 -0.0847,0.0635 -0.0212,0.0212 -0.0423,0.0635 -0.0635,0.0847 -0.0212,0.0423 -0.0212,0.0847 -0.0212,0.127 z m 0.0423,-0.67733 c 0,0.0212 0.0212,0.0635 0.0212,0.0847 0.0212,0.0423 0.0423,0.0635 0.0635,0.0847 0.0212,0.0212 0.0423,0.0423 0.0847,0.0635 0.0212,0 0.0423,0 0.0847,0 0.0423,0 0.0635,0 0.10583,-0.0212 0.0212,0 0.0423,-0.0212 0.0635,-0.0423 0.0212,-0.0212 0.0423,-0.0423 0.0635,-0.0847 0,-0.0212 0.0212,-0.0635 0.0212,-0.0847 0,-0.0423 -0.0212,-0.0847 -0.0212,-0.10583 -0.0212,-0.0212 -0.0423,-0.0635 -0.0635,-0.0847 -0.0212,-0.0212 -0.0423,-0.0423 -0.0635,-0.0423 -0.0423,-0.0212 -0.0635,-0.0212 -0.10583,-0.0212 -0.0423,0 -0.0635,0 -0.105829,0.0212 -0.0212,0 -0.0423,0.0212 -0.0635,0.0423 -0.0212,0.0212 -0.0423,0.0635 -0.0635,0.0847 0,0.0423 -0.0212,0.0635 -0.0212,0.10583 z"
       style="display:inline;fill:#000000;fill-opacity:1;fill-rule:nonzero;stroke:none;stroke-width:0.26458332"
       inkscape:connector-curvature="0" />
    <path
       id="path2159"
       d="M 4.7823599,264.68484 H 4.6130328 v -1.29116 c -0.0212,0.0212 -0.0423,0.0423 -0.0635,0.0423 -0.0212,0.0212 -0.0423,0.0423 -0.0847,0.0635 -0.0212,0.0212 -0.0635,0.0212 -0.10584,0.0423 -0.0212,0.0212 -0.0635,0.0212 -0.0847,0.0423 v -0.16933 c 0.0212,-0.0212 0.0635,-0.0423 0.10584,-0.0423 0.0423,-0.0212 0.0847,-0.0423 0.12699,-0.0635 0.0423,-0.0212 0.0847,-0.0423 0.10584,-0.0635 0.0423,-0.0423 0.0847,-0.0635 0.1058271,-0.0847 h 0.0635 z"
       style="display:inline;fill:#000000;fill-opacity:1;fill-rule:nonzero;stroke:none;stroke-width:0.26458332"
       inkscape:connector-curvature="0" />
    <path
       id="path2167-9"
       d="m 7.9149801,257.86922 5.5455909,1.71449"
       style="display:inline;fill:none;stroke:#000000;stroke-width:0.19049859px;stroke-linecap:round;stroke-linejoin:miter;stroke-miterlimit:4;stroke-dasharray:none;stroke-opacity:1"
       inkscape:connector-curvature="0" />
    <path
       id="path2169-6"
       d="m 7.9149801,257.86922 5.2280909,-2.51881"
       style="display:inline;fill:none;stroke:#000000;stroke-width:0.19049859px;stroke-linecap:round;stroke-linejoin:miter;stroke-miterlimit:4;stroke-dasharray:none;stroke-opacity:1"
       inkscape:connector-curvature="0" />
    <path
       id="path2171-1"
       d="m 7.9149801,257.86922 2.1377979,-5.39746"
       style="display:inline;fill:none;stroke:#000000;stroke-width:0.19049859px;stroke-linecap:round;stroke-linejoin:miter;stroke-miterlimit:4;stroke-dasharray:none;stroke-opacity:1"
       inkscape:connector-curvature="0" />
    <path
       id="path2173"
       d="M 7.9149801,257.86922 5.8195133,252.45059"
       style="display:inline;fill:none;stroke:#000000;stroke-width:0.19049859px;stroke-linecap:round;stroke-linejoin:miter;stroke-miterlimit:4;stroke-dasharray:none;stroke-opacity:1"
       inkscape:connector-curvature="0" />
    <path
       id="path2175-2"
       d="M 7.9149801,257.86922 2.6868827,255.30807"
       style="display:inline;fill:none;stroke:#000000;stroke-width:0.19049859px;stroke-linecap:round;stroke-linejoin:miter;stroke-miterlimit:4;stroke-dasharray:none;stroke-opacity:1"
       inkscape:connector-curvature="0" />
    <path
       id="path2177-8"
       d="M 7.9149801,257.86922 2.348226,259.52021"
       style="display:inline;fill:none;stroke:#000000;stroke-width:0.19049859px;stroke-linecap:round;stroke-linejoin:miter;stroke-miterlimit:4;stroke-dasharray:none;stroke-opacity:1"
       inkscape:connector-curvature="0" />
    <g
       transform="translate(-0.01912025,25.132365)"
       id="g1024"
       style="font-style:normal;font-variant:normal;font-weight:normal;font-stretch:normal;font-size:2.82222223px;line-height:1.25;font-family:'Yu Gothic UI';-inkscape-font-specification:'Yu Gothic UI';letter-spacing:0px;word-spacing:0px;fill:#000000;fill-opacity:1;stroke:none;stroke-width:0.26458332"
       aria-label="CLOCK">
      <path
         inkscape:connector-curvature="0"
         id="path1014"
         style="stroke-width:0.26458332"
         d="m 5.1847822,203.60729 q -0.2191081,0.11575 -0.5457032,0.11575 -0.4216797,0 -0.6752387,-0.27147 -0.253559,-0.27147 -0.253559,-0.71244 0,-0.47405 0.2852539,-0.76619 0.2852539,-0.29215 0.72347,-0.29215 0.2811198,0 0.465777,0.0813 v 0.24667 q -0.2122179,-0.11852 -0.468533,-0.11852 -0.3403755,0 -0.5525933,0.22738 -0.2108399,0.22738 -0.2108399,0.60772 0,0.36104 0.1970595,0.57602 0.1984375,0.21359 0.5195204,0.21359 0.2976562,0 0.5153863,-0.13229 z" />
      <path
         inkscape:connector-curvature="0"
         id="path1016"
         style="stroke-width:0.26458332"
         d="M 6.6124298,203.68997 H 5.5871694 v -1.9761 h 0.2315104 v 1.76664 h 0.79375 z" />
      <path
         inkscape:connector-curvature="0"
         id="path1018"
         style="stroke-width:0.26458332"
         d="m 7.6845436,203.72304 q -0.4203017,0 -0.6738607,-0.27698 -0.252181,-0.27699 -0.252181,-0.72071 0,-0.47681 0.2576932,-0.76068 0.2576931,-0.28388 0.7014214,-0.28388 0.4092774,0 0.6587023,0.27561 0.2508029,0.27561 0.2508029,0.72071 0,0.4837 -0.2563151,0.76482 -0.2563151,0.28111 -0.686263,0.28111 z m 0.016537,-1.83279 q -0.3114367,0 -0.5057401,0.22462 -0.1943034,0.22462 -0.1943034,0.5898 0,0.36518 0.1887913,0.58843 0.1901693,0.22186 0.4947157,0.22186 0.325217,0 0.5126302,-0.21222 0.1874132,-0.21221 0.1874132,-0.59393 0,-0.39136 -0.181901,-0.60496 -0.1819011,-0.2136 -0.5016059,-0.2136 z" />
      <path
         inkscape:connector-curvature="0"
         id="path1020"
         style="stroke-width:0.26458332"
         d="m 10.360694,203.60729 q -0.219108,0.11575 -0.5457035,0.11575 -0.4216797,0 -0.6752388,-0.27147 -0.253559,-0.27147 -0.253559,-0.71244 0,-0.47405 0.2852539,-0.76619 0.2852539,-0.29215 0.7234701,-0.29215 0.2811193,0 0.4657773,0.0813 v 0.24667 q -0.212218,-0.11852 -0.4685334,-0.11852 -0.3403754,0 -0.5525933,0.22738 -0.2108399,0.22738 -0.2108399,0.60772 0,0.36104 0.1970595,0.57602 0.1984375,0.21359 0.5195204,0.21359 0.2976567,0 0.5153867,-0.13229 z" />
      <path
         inkscape:connector-curvature="0"
         id="path1022"
         style="stroke-width:0.26458332"
         d="m 12.138363,203.68997 h -0.322461 l -0.763433,-0.90399 q -0.04272,-0.051 -0.05237,-0.0689 h -0.0055 v 0.97289 h -0.23151 v -1.9761 h 0.23151 v 0.92879 h 0.0055 q 0.01929,-0.0303 0.05237,-0.0675 l 0.738628,-0.86127 h 0.28801 l -0.847493,0.94809 z" />
    </g>
  </g>
  <g
     inkscape:groupmode="layer"
     id="layer3"
     inkscape:label="Grid8"
     style="display:none"
     sodipodi:insensitive="true">
    <path
       style="fill:none;stroke:#000000;stroke-width:0.05;stroke-linecap:butt;stroke-linejoin:miter;stroke-miterlimit:4;stroke-dasharray:none;stroke-opacity:1"
       d="m 15.887486,0 -0.025,100.54167"
       id="path879"
       inkscape:connector-curvature="0"
       sodipodi:nodetypes="cc" />
    <path
       sodipodi:nodetypes="cc"
       inkscape:connector-curvature="0"
       id="path881-6"
       d="m 7.9249855,-1e-5 -3e-6,100.54167"
       style="fill:none;stroke:#000000;stroke-width:0.05;stroke-linecap:butt;stroke-linejoin:miter;stroke-miterlimit:4;stroke-dasharray:none;stroke-opacity:1" />
    <path
       sodipodi:nodetypes="cc"
       inkscape:connector-curvature="0"
       id="path883-6"
       d="m 23.799985,-1e-5 5e-6,100.54167"
       style="fill:none;stroke:#000000;stroke-width:0.05;stroke-linecap:butt;stroke-linejoin:miter;stroke-miterlimit:4;stroke-dasharray:none;stroke-opacity:1" />
    <path
       style="fill:none;stroke:#000000;stroke-width:0.05;stroke-linecap:butt;stroke-linejoin:miter;stroke-miterlimit:4;stroke-dasharray:none;stroke-opacity:1"
       d="m 3.9562375,0 -4e-6,100.54167"
       id="path890"
       inkscape:connector-curvature="0"
       sodipodi:nodetypes="cc" />
    <path
       sodipodi:nodetypes="cc"
       inkscape:connector-curvature="0"
       id="path895"
       d="m 11.893739,0 -5e-6,100.54167"
       style="fill:none;stroke:#000000;stroke-width:0.05;stroke-linecap:butt;stroke-linejoin:miter;stroke-miterlimit:4;stroke-dasharray:none;stroke-opacity:1" />
    <path
       sodipodi:nodetypes="cc"
       inkscape:connector-curvature="0"
       id="path899"
       d="m 19.831243,0 -4e-6,100.54167"
       style="fill:none;stroke:#000000;stroke-width:0.05;stroke-linecap:butt;stroke-linejoin:miter;stroke-miterlimit:4;stroke-dasharray:none;stroke-opacity:1" />
    <path
       style="fill:none;stroke:#000000;stroke-width:0.05;stroke-linecap:butt;stroke-linejoin:miter;stroke-miterlimit:4;stroke-dasharray:none;stroke-opacity:1"
       d="m 27.768748,0 -2e-6,100.54167"
       id="path903"
       inkscape:connector-curvature="0"
       sodipodi:nodetypes="cc" />
    <circle
       style="display:inline;opacity:1;fill:none;fill-opacity:1;stroke:#000000;stroke-width:0.05;stroke-linecap:square;stroke-linejoin:round;stroke-miterlimit:4;stroke-dasharray:none;stroke-dashoffset:0;stroke-opacity:1;paint-order:markers fill stroke"
       id="circle1068"
       cx="23.814785"
       cy="11.376713"
       r="4.0999999" />
    <circle
       style="display:inline;opacity:1;fill:none;fill-opacity:1;stroke:#000000;stroke-width:0.05;stroke-linecap:square;stroke-linejoin:round;stroke-miterlimit:4;stroke-dasharray:none;stroke-dashoffset:0;stroke-opacity:1;paint-order:markers fill stroke"
       id="path1041-2"
       cx="7.9397893"
       cy="22.48922"
       r="4.0999999" />
    <circle
       r="4.0999999"
       cy="44.714268"
       cx="7.9397893"
       id="circle1054"
       style="display:inline;opacity:1;fill:none;fill-opacity:1;stroke:#000000;stroke-width:0.05;stroke-linecap:square;stroke-linejoin:round;stroke-miterlimit:4;stroke-dasharray:none;stroke-dashoffset:0;stroke-opacity:1;paint-order:markers fill stroke" />
    <circle
       style="display:inline;opacity:1;fill:none;fill-opacity:1;stroke:#000000;stroke-width:0.05;stroke-linecap:square;stroke-linejoin:round;stroke-miterlimit:4;stroke-dasharray:none;stroke-dashoffset:0;stroke-opacity:1;paint-order:markers fill stroke"
       id="circle1056"
       cx="7.9397893"
       cy="33.601738"
       r="4.0999999" />
    <circle
       r="4.0999999"
       cy="66.939285"
       cx="7.9397893"
       id="circle1058"
       style="display:inline;opacity:1;fill:none;fill-opacity:1;stroke:#000000;stroke-width:0.05;stroke-linecap:square;stroke-linejoin:round;stroke-miterlimit:4;stroke-dasharray:none;stroke-dashoffset:0;stroke-opacity:1;paint-order:markers fill stroke" />
    <circle
       style="display:inline;opacity:1;fill:none;fill-opacity:1;stroke:#000000;stroke-width:0.05;stroke-linecap:square;stroke-linejoin:round;stroke-miterlimit:4;stroke-dasharray:none;stroke-dashoffset:0;stroke-opacity:1;paint-order:markers fill stroke"
       id="circle1060"
       cx="7.9397893"
       cy="55.826778"
       r="4.0999999" />
    <circle
       style="display:inline;opacity:1;fill:none;fill-opacity:1;stroke:#000000;stroke-width:0.05;stroke-linecap:square;stroke-linejoin:round;stroke-miterlimit:4;stroke-dasharray:none;stroke-dashoffset:0;stroke-opacity:1;paint-order:markers fill stroke"
       id="circle1062"
       cx="7.9397893"
       cy="89.164299"
       r="4.0999999" />
    <circle
       r="4.0999999"
       cy="78.051796"
       cx="7.9397893"
       id="circle1064"
       style="display:inline;opacity:1;fill:none;fill-opacity:1;stroke:#000000;stroke-width:0.05;stroke-linecap:square;stroke-linejoin:round;stroke-miterlimit:4;stroke-dasharray:none;stroke-dashoffset:0;stroke-opacity:1;paint-order:markers fill stroke" />
    <circle
       r="4.0999999"
       cy="22.48922"
       cx="23.814785"
       id="circle1066"
       style="display:inline;opacity:1;fill:none;fill-opacity:1;stroke:#000000;stroke-width:0.05;stroke-linecap:square;stroke-linejoin:round;stroke-miterlimit:4;stroke-dasharray:none;stroke-dashoffset:0;stroke-opacity:1;paint-order:markers fill stroke" />
    <circle
       style="display:inline;opacity:1;fill:none;fill-opacity:1;stroke:#000000;stroke-width:0.05;stroke-linecap:square;stroke-linejoin:round;stroke-miterlimit:4;stroke-dasharray:none;stroke-dashoffset:0;stroke-opacity:1;paint-order:markers fill stroke"
       id="circle1070"
       cx="23.814785"
       cy="44.714268"
       r="4.0999999" />
    <circle
       r="4.0999999"
       cy="33.601738"
       cx="23.814785"
       id="circle1072"
       style="display:inline;opacity:1;fill:none;fill-opacity:1;stroke:#000000;stroke-width:0.05;stroke-linecap:square;stroke-linejoin:round;stroke-miterlimit:4;stroke-dasharray:none;stroke-dashoffset:0;stroke-opacity:1;paint-order:markers fill stroke" />
    <circle
       style="display:inline;opacity:1;fill:none;fill-opacity:1;stroke:#000000;stroke-width:0.05;stroke-linecap:square;stroke-linejoin:round;stroke-miterlimit:4;stroke-dasharray:none;stroke-dashoffset:0;stroke-opacity:1;paint-order:markers fill stroke"
       id="circle1074"
       cx="23.814785"
       cy="66.939285"
       r="4.0999999" />
    <circle
       r="4.0999999"
       cy="55.826778"
       cx="23.814785"
       id="circle1076"
       style="display:inline;opacity:1;fill:none;fill-opacity:1;stroke:#000000;stroke-width:0.05;stroke-linecap:square;stroke-linejoin:round;stroke-miterlimit:4;stroke-dasharray:none;stroke-dashoffset:0;stroke-opacity:1;paint-order:markers fill stroke" />
    <circle
       r="4.0999999"
       cy="89.164299"
       cx="23.814785"
       id="circle1078"
       style="display:inline;opacity:1;fill:none;fill-opacity:1;stroke:#000000;stroke-width:0.05;stroke-linecap:square;stroke-linejoin:round;stroke-miterlimit:4;stroke-dasharray:none;stroke-dashoffset:0;stroke-opacity:1;paint-order:markers fill stroke" />
    <circle
       style="display:inline;opacity:1;fill:none;fill-opacity:1;stroke:#000000;stroke-width:0.05;stroke-linecap:square;stroke-linejoin:round;stroke-miterlimit:4;stroke-dasharray:none;stroke-dashoffset:0;stroke-opacity:1;paint-order:markers fill stroke"
       id="circle1080"
       cx="23.814785"
       cy="78.051796"
       r="4.0999999" />
    <circle
       r="4.0999999"
       cy="11.376713"
       cx="7.9397893"
       id="circle1052"
       style="display:inline;opacity:1;fill:none;fill-opacity:1;stroke:#000000;stroke-width:0.05;stroke-linecap:square;stroke-linejoin:round;stroke-miterlimit:4;stroke-dasharray:none;stroke-dashoffset:0;stroke-opacity:1;paint-order:markers fill stroke" />
    <circle
       style="display:inline;opacity:1;fill:none;fill-opacity:1;stroke:#000000;stroke-width:0.05172414;stroke-linecap:square;stroke-linejoin:round;stroke-miterlimit:4;stroke-dasharray:none;stroke-dashoffset:0;stroke-opacity:1;paint-order:markers fill stroke"
       id="circle981"
       cx="7.9235716"
       cy="11.377451"
       r="5.4741378" />
    <circle
       r="5.4741378"
       cy="11.377451"
       cx="23.798573"
       id="circle983"
       style="display:inline;opacity:1;fill:none;fill-opacity:1;stroke:#000000;stroke-width:0.05172414;stroke-linecap:square;stroke-linejoin:round;stroke-miterlimit:4;stroke-dasharray:none;stroke-dashoffset:0;stroke-opacity:1;paint-order:markers fill stroke" />
    <circle
       r="5.4741378"
       cy="22.489952"
       cx="7.9235716"
       id="circle1031"
       style="display:inline;opacity:1;fill:none;fill-opacity:1;stroke:#000000;stroke-width:0.05172414;stroke-linecap:square;stroke-linejoin:round;stroke-miterlimit:4;stroke-dasharray:none;stroke-dashoffset:0;stroke-opacity:1;paint-order:markers fill stroke" />
    <circle
       style="display:inline;opacity:1;fill:none;fill-opacity:1;stroke:#000000;stroke-width:0.05172414;stroke-linecap:square;stroke-linejoin:round;stroke-miterlimit:4;stroke-dasharray:none;stroke-dashoffset:0;stroke-opacity:1;paint-order:markers fill stroke"
       id="circle1033"
       cx="23.798573"
       cy="22.489952"
       r="5.4741378" />
    <circle
       style="display:inline;opacity:1;fill:none;fill-opacity:1;stroke:#000000;stroke-width:0.05172414;stroke-linecap:square;stroke-linejoin:round;stroke-miterlimit:4;stroke-dasharray:none;stroke-dashoffset:0;stroke-opacity:1;paint-order:markers fill stroke"
       id="circle1035"
       cx="7.9235716"
       cy="33.602463"
       r="5.4741378" />
    <circle
       r="5.4741378"
       cy="33.602463"
       cx="23.798573"
       id="circle1037"
       style="display:inline;opacity:1;fill:none;fill-opacity:1;stroke:#000000;stroke-width:0.05172414;stroke-linecap:square;stroke-linejoin:round;stroke-miterlimit:4;stroke-dasharray:none;stroke-dashoffset:0;stroke-opacity:1;paint-order:markers fill stroke" />
    <circle
       r="5.4741378"
       cy="44.714973"
       cx="7.9235716"
       id="circle1040"
       style="display:inline;opacity:1;fill:none;fill-opacity:1;stroke:#000000;stroke-width:0.05172414;stroke-linecap:square;stroke-linejoin:round;stroke-miterlimit:4;stroke-dasharray:none;stroke-dashoffset:0;stroke-opacity:1;paint-order:markers fill stroke" />
    <circle
       style="display:inline;opacity:1;fill:none;fill-opacity:1;stroke:#000000;stroke-width:0.05172414;stroke-linecap:square;stroke-linejoin:round;stroke-miterlimit:4;stroke-dasharray:none;stroke-dashoffset:0;stroke-opacity:1;paint-order:markers fill stroke"
       id="circle1042"
       cx="23.798573"
       cy="44.714973"
       r="5.4741378" />
    <circle
       style="display:inline;opacity:1;fill:none;fill-opacity:1;stroke:#000000;stroke-width:0.05172414;stroke-linecap:square;stroke-linejoin:round;stroke-miterlimit:4;stroke-dasharray:none;stroke-dashoffset:0;stroke-opacity:1;paint-order:markers fill stroke"
       id="circle1044"
       cx="7.9235716"
       cy="55.827484"
       r="5.4741378" />
    <circle
       r="5.4741378"
       cy="55.827484"
       cx="23.798573"
       id="circle1046"
       style="display:inline;opacity:1;fill:none;fill-opacity:1;stroke:#000000;stroke-width:0.05172414;stroke-linecap:square;stroke-linejoin:round;stroke-miterlimit:4;stroke-dasharray:none;stroke-dashoffset:0;stroke-opacity:1;paint-order:markers fill stroke" />
    <circle
       r="5.4741378"
       cy="66.939995"
       cx="7.9235716"
       id="circle1048"
       style="display:inline;opacity:1;fill:none;fill-opacity:1;stroke:#000000;stroke-width:0.05172414;stroke-linecap:square;stroke-linejoin:round;stroke-miterlimit:4;stroke-dasharray:none;stroke-dashoffset:0;stroke-opacity:1;paint-order:markers fill stroke" />
    <circle
       style="display:inline;opacity:1;fill:none;fill-opacity:1;stroke:#000000;stroke-width:0.05172414;stroke-linecap:square;stroke-linejoin:round;stroke-miterlimit:4;stroke-dasharray:none;stroke-dashoffset:0;stroke-opacity:1;paint-order:markers fill stroke"
       id="circle1050"
       cx="23.798573"
       cy="66.939995"
       r="5.4741378" />
    <circle
       style="display:inline;opacity:1;fill:none;fill-opacity:1;stroke:#000000;stroke-width:0.05172414;stroke-linecap:square;stroke-linejoin:round;stroke-miterlimit:4;stroke-dasharray:none;stroke-dashoffset:0;stroke-opacity:1;paint-order:markers fill stroke"
       id="circle1053"
       cx="7.9235716"
       cy="78.052505"
       r="5.4741378" />
    <circle
       r="5.4741378"
       cy="78.052505"
       cx="23.798573"
       id="circle1055"
       style="display:inline;opacity:1;fill:none;fill-opacity:1;stroke:#000000;stroke-width:0.05172414;stroke-linecap:square;stroke-linejoin:round;stroke-miterlimit:4;stroke-dasharray:none;stroke-dashoffset:0;stroke-opacity:1;paint-order:markers fill stroke" />
    <circle
       r="5.4741378"
       cy="89.165016"
       cx="7.9235716"
       id="circle1057"
       style="display:inline;opacity:1;fill:none;fill-opacity:1;stroke:#000000;stroke-width:0.05172414;stroke-linecap:square;stroke-linejoin:round;stroke-miterlimit:4;stroke-dasharray:none;stroke-dashoffset:0;stroke-opacity:1;paint-order:markers fill stroke" />
    <circle
       style="display:inline;opacity:1;fill:none;fill-opacity:1;stroke:#000000;stroke-width:0.05172414;stroke-linecap:square;stroke-linejoin:round;stroke-miterlimit:4;stroke-dasharray:none;stroke-dashoffset:0;stroke-opacity:1;paint-order:markers fill stroke"
       id="circle1059"
       cx="23.798573"
       cy="89.165016"
       r="5.4741378" />
    <path
       style="fill:none;stroke:#000000;stroke-width:0.04;stroke-linecap:butt;stroke-linejoin:miter;stroke-miterlimit:4;stroke-dasharray:none;stroke-opacity:1"
       d="M 0,11.377083 H 31.75"
       id="path1095"
       inkscape:connector-curvature="0" />
    <path
       inkscape:connector-curvature="0"
       id="path1097"
       d="M 0,22.48959 H 31.75"
       style="fill:none;stroke:#000000;stroke-width:0.04;stroke-linecap:butt;stroke-linejoin:miter;stroke-miterlimit:4;stroke-dasharray:none;stroke-opacity:1" />
    <path
       style="fill:none;stroke:#000000;stroke-width:0.04;stroke-linecap:butt;stroke-linejoin:miter;stroke-miterlimit:4;stroke-dasharray:none;stroke-opacity:1"
       d="M 0,33.602097 H 31.75"
       id="path1099"
       inkscape:connector-curvature="0" />
    <path
       inkscape:connector-curvature="0"
       id="path1101"
       d="M 0,44.714604 H 31.75"
       style="fill:none;stroke:#000000;stroke-width:0.04;stroke-linecap:butt;stroke-linejoin:miter;stroke-miterlimit:4;stroke-dasharray:none;stroke-opacity:1" />
    <path
       style="fill:none;stroke:#000000;stroke-width:0.04;stroke-linecap:butt;stroke-linejoin:miter;stroke-miterlimit:4;stroke-dasharray:none;stroke-opacity:1"
       d="M 0,55.827111 H 31.75"
       id="path1103"
       inkscape:connector-curvature="0" />
    <path
       inkscape:connector-curvature="0"
       id="path1105"
       d="M 0,66.939618 H 31.75"
       style="fill:none;stroke:#000000;stroke-width:0.04;stroke-linecap:butt;stroke-linejoin:miter;stroke-miterlimit:4;stroke-dasharray:none;stroke-opacity:1" />
    <path
       style="fill:none;stroke:#000000;stroke-width:0.04;stroke-linecap:butt;stroke-linejoin:miter;stroke-miterlimit:4;stroke-dasharray:none;stroke-opacity:1"
       d="M 0,78.052125 H 31.75"
       id="path1107"
       inkscape:connector-curvature="0" />
    <path
       inkscape:connector-curvature="0"
       id="path1109"
       d="M 0,89.164632 H 31.75"
       style="fill:none;stroke:#000000;stroke-width:0.04;stroke-linecap:butt;stroke-linejoin:miter;stroke-miterlimit:4;stroke-dasharray:none;stroke-opacity:1" />
  </g>
</svg>
