<?xml version="1.0" encoding="UTF-8" standalone="no"?>
<!-- Created with Inkscape (http://www.inkscape.org/) -->

<svg
   xmlns:dc="http://purl.org/dc/elements/1.1/"
   xmlns:cc="http://creativecommons.org/ns#"
   xmlns:rdf="http://www.w3.org/1999/02/22-rdf-syntax-ns#"
   xmlns:svg="http://www.w3.org/2000/svg"
   xmlns="http://www.w3.org/2000/svg"
   xmlns:sodipodi="http://sodipodi.sourceforge.net/DTD/sodipodi-0.dtd"
   xmlns:inkscape="http://www.inkscape.org/namespaces/inkscape"
   width="60"
   height="380"
   viewBox="0 0 15.875001 100.54167"
   version="1.1"
   id="svg8"
   inkscape:version="0.92.5 (2060ec1f9f, 2020-04-08)"
   sodipodi:docname="FadeExpander.svg">
  <defs
     id="defs2" />
  <sodipodi:namedview
     id="base"
     pagecolor="#ffffff"
     bordercolor="#666666"
     borderopacity="1.0"
     inkscape:pageopacity="0.0"
     inkscape:pageshadow="2"
     inkscape:zoom="3.0442808"
     inkscape:cx="-13.571462"
     inkscape:cy="196.96765"
     inkscape:document-units="mm"
     inkscape:current-layer="layer1"
     showgrid="true"
     units="px"
     inkscape:snap-bbox="true"
     inkscape:snap-page="true"
     inkscape:bbox-nodes="true"
     inkscape:snap-bbox-edge-midpoints="true"
     inkscape:window-width="1920"
     inkscape:window-height="1017"
     inkscape:window-x="-8"
     inkscape:window-y="-8"
     inkscape:window-maximized="1">
    <inkscape:grid
       type="xygrid"
       id="grid116" />
  </sodipodi:namedview>
  <metadata
     id="metadata5">
    <rdf:RDF>
      <cc:Work
         rdf:about="">
        <dc:format>image/svg+xml</dc:format>
        <dc:type
           rdf:resource="http://purl.org/dc/dcmitype/StillImage" />
        <dc:title />
      </cc:Work>
    </rdf:RDF>
  </metadata>
  <g
     inkscape:groupmode="layer"
     id="layer5"
     inkscape:label="Panel"
     sodipodi:insensitive="true">
    <path
       sodipodi:type="inkscape:offset"
       inkscape:radius="0"
       inkscape:original="M 0 196.45898 L 0 297 L 15.875 297 L 15.875 196.45898 L 0 196.45898 z "
       style="display:inline;fill:#cccccc;stroke-width:0.3310422"
       id="rect3855"
       d="M 0,196.45898 V 297 H 15.875 V 196.45898 Z"
       transform="matrix(1,0,0,1.0000065,0,-196.46025)" />
  </g>
  <g
     inkscape:label="Layer 1"
     inkscape:groupmode="layer"
     id="layer1"
     transform="translate(0,-196.45832)"
     style="display:inline">
    <rect
       style="fill:#b3b3b3;stroke-width:0.19469805"
       id="rect1953"
       width="14.287499"
       height="26.193752"
       x="0.79375029"
       y="-229.79582"
       transform="scale(1,-1)" />
    <rect
       transform="scale(1,-1)"
       y="-288.00415"
       x="0.79374999"
       height="28.310417"
       width="14.2875"
       id="rect1951"
       style="fill:#b3b3b3;stroke-width:0.20241186" />
    <rect
       style="fill:#b3b3b3;stroke-width:0.20335554"
       id="rect897"
       width="14.2875"
       height="28.575006"
       x="0.79374981"
       y="-258.89999"
       transform="scale(1,-1)" />
    <g
       id="g1020"
       transform="translate(0,-0.48770761)">
      <path
         d="m 3.772482,292.46378 v 0.0386 H 3.3384 v -0.0386 q 0.09509,-0.006 0.224621,-0.17088 l 1.094162,-1.4621 q 0.07441,-0.1006 0.07441,-0.12402 0,-0.0372 -0.06615,-0.0482 v -0.0372 h 0.423058 v 0.0372 q -0.09508,0.006 -0.22462,0.17087 l -1.08176,1.46348 q -0.07579,0.10197 -0.07579,0.12402 0,0.0358 0.06615,0.0469 z"
         style="font-style:normal;font-variant:normal;font-weight:normal;font-stretch:normal;font-size:2.82222223px;line-height:1.25;font-family:'Copperplate Gothic Light';-inkscape-font-specification:'Copperplate Gothic Light, ';letter-spacing:0px;word-spacing:0px;fill:#000000;fill-opacity:1;stroke:#000000;stroke-width:0.2;stroke-miterlimit:4;stroke-dasharray:none;stroke-opacity:1"
         id="path958"
         inkscape:connector-curvature="0" />
      <path
         d="M 5.50881,291.44403 H 5.307617 l 0.493338,-0.8282 h 0.243912 l 0.493338,0.8282 h -0.20395 l -0.413411,-0.68075 z"
         style="font-style:normal;font-variant:normal;font-weight:normal;font-stretch:normal;font-size:2.82222223px;line-height:1.25;font-family:'Copperplate Gothic Light';-inkscape-font-specification:'Copperplate Gothic Light, ';letter-spacing:0px;word-spacing:0px;fill:#000000;fill-opacity:1;stroke:#000000;stroke-width:0.2;stroke-miterlimit:4;stroke-dasharray:none;stroke-opacity:1"
         id="path960"
         inkscape:connector-curvature="0" />
      <path
         d="M 9.510633,291.44403 H 9.30944 l 0.493338,-0.8282 h 0.243912 l 0.493338,0.8282 h -0.20395 l -0.413411,-0.68075 z"
         style="font-style:normal;font-variant:normal;font-weight:normal;font-stretch:normal;font-size:2.82222223px;line-height:1.25;font-family:'Copperplate Gothic Light';-inkscape-font-specification:'Copperplate Gothic Light, ';letter-spacing:0px;word-spacing:0px;fill:#000000;fill-opacity:1;stroke:#000000;stroke-width:0.2;stroke-miterlimit:4;stroke-dasharray:none;stroke-opacity:1"
         id="path964"
         inkscape:connector-curvature="0" />
      <path
         d="m 11.186328,290.62134 v 0.0372 q -0.06615,0.011 -0.06615,0.0482 0,0.0234 0.07441,0.12402 l 1.092784,1.4621 q 0.129536,0.16536 0.22462,0.17088 v 0.0386 H 12.07791 v -0.0386 q 0.06615,-0.011 0.06615,-0.0469 0,-0.0207 -0.07579,-0.12402 l -1.080382,-1.46348 q -0.129535,-0.16536 -0.22462,-0.17087 v -0.0372 z"
         style="font-style:normal;font-variant:normal;font-weight:normal;font-stretch:normal;font-size:2.82222223px;line-height:1.25;font-family:'Copperplate Gothic Light';-inkscape-font-specification:'Copperplate Gothic Light, ';letter-spacing:0px;word-spacing:0px;fill:#000000;fill-opacity:1;stroke:#000000;stroke-width:0.2;stroke-miterlimit:4;stroke-dasharray:none;stroke-opacity:1"
         id="path966"
         inkscape:connector-curvature="0" />
      <path
         inkscape:connector-curvature="0"
         id="path962"
         style="font-style:normal;font-variant:normal;font-weight:normal;font-stretch:normal;font-size:2.82222223px;line-height:1.25;font-family:'Copperplate Gothic Light';-inkscape-font-specification:'Copperplate Gothic Light, ';letter-spacing:0px;word-spacing:0px;display:inline;fill:#000000;fill-opacity:1;stroke:#000000;stroke-width:0.2;stroke-miterlimit:4;stroke-dasharray:none;stroke-opacity:1"
         d="m 7.910731,292.50236 -0.789616,-1.58061 v 1.418 q 0,0.0565 0.01791,0.0813 0.01791,0.0234 0.07028,0.0372 v 0.0441 H 6.835856 v -0.0441 q 0.05237,-0.0138 0.07028,-0.0372 0.01792,-0.0234 0.01792,-0.0813 v -1.5558 q 0,-0.0579 -0.01792,-0.0813 -0.01791,-0.0248 -0.07028,-0.0372 v -0.0441 h 0.487826 v 0.0441 q -0.06752,0.0234 -0.06752,0.0579 0,0.0165 0.04547,0.10611 l 0.62563,1.24161 0.628385,-1.25263 q 0.03307,-0.0661 0.03307,-0.0937 0,-0.0358 -0.06752,-0.0593 v -0.0441 h 0.49196 v 0.0441 q -0.05237,0.0138 -0.07028,0.0372 -0.01792,0.0234 -0.01792,0.0813 v 1.5558 q 0,0.0565 0.01792,0.0813 0.01791,0.0234 0.07028,0.0372 v 0.0441 H 8.620416 v -0.0441 q 0.05374,-0.0138 0.07028,-0.0372 0.01791,-0.0234 0.01791,-0.0813 v -1.418 z"
         transform="translate(0,1.2291667e-6)" />
    </g>
    <g
       aria-label="ENVELOPE"
       style="font-style:normal;font-variant:normal;font-weight:normal;font-stretch:normal;font-size:2.82222223px;line-height:1.25;font-family:'Yu Gothic UI';-inkscape-font-specification:'Yu Gothic UI';letter-spacing:0px;word-spacing:0px;display:inline;fill:#000000;fill-opacity:1;stroke:none;stroke-width:0.26458332"
       id="text1707"
       transform="translate(0,196.01623)">
      <path
         d="M 2.5962239,10.318749 H 1.5489149 V 8.3426426 H 2.5521267 V 8.5521045 H 1.7804253 V 9.2094287 H 2.4942491 V 9.4175124 H 1.7804253 v 0.6917756 h 0.8157986 z"
         style="stroke-width:0.26458332"
         id="path1709"
         inkscape:connector-curvature="0" />
      <path
         d="M 4.5695746,10.318749 H 4.2856987 L 3.2687065,8.7436518 q -0.038585,-0.059256 -0.06339,-0.1240235 h -0.00827 q 0.011024,0.06339 0.011024,0.2714736 V 10.318749 H 2.9765625 V 8.3426426 h 0.3004123 l 0.9894314,1.550293 q 0.062012,0.096463 0.079926,0.1322914 h 0.00551 Q 4.3380622,9.939789 4.3380622,9.7344612 V 8.3426426 h 0.2315104 z"
         style="stroke-width:0.26458332"
         id="path1711"
         inkscape:connector-curvature="0" />
      <path
         d="M 6.5567057,8.3426426 5.8249674,10.318749 H 5.5700304 L 4.8534505,8.3426426 h 0.2576932 l 0.5470811,1.5668295 q 0.026183,0.075792 0.039963,0.1750109 h 0.00551 q 0.011024,-0.08268 0.045475,-0.177767 l 0.558108,-1.5640734 z"
         style="stroke-width:0.26458332"
         id="path1713"
         inkscape:connector-curvature="0" />
      <path
         d="M 7.8878909,10.318749 H 6.8405818 V 8.3426426 H 7.8437937 V 8.5521045 H 7.0720923 V 9.2094287 H 7.785916 V 9.4175124 H 7.0720923 v 0.6917756 h 0.8157986 z"
         style="stroke-width:0.26458332"
         id="path1715"
         inkscape:connector-curvature="0" />
      <path
         d="M 9.2934899,10.318749 H 8.2682294 V 8.3426426 h 0.2315105 v 1.7666454 h 0.79375 z"
         style="stroke-width:0.26458332"
         id="path1717"
         inkscape:connector-curvature="0" />
      <path
         d="m 10.365604,10.351822 q -0.4203021,0 -0.6738611,-0.276985 -0.252181,-0.276986 -0.252181,-0.7207143 0,-0.4768012 0.2576931,-0.7606771 0.2576932,-0.2838759 0.701421,-0.2838759 0.409278,0 0.658703,0.2756077 0.250803,0.2756076 0.250803,0.720714 0,0.4836914 -0.256315,0.7648116 -0.256316,0.281119 -0.686263,0.281119 z m 0.01654,-1.8327905 q -0.311437,0 -0.50574,0.2246203 -0.1943034,0.2246202 -0.1943034,0.5898003 0,0.3651801 0.1887912,0.5884223 0.1901692,0.2218646 0.4947162,0.2218646 0.325217,0 0.51263,-0.2122183 0.187413,-0.2122179 0.187413,-0.5939345 0,-0.3913628 -0.181901,-0.6049587 -0.181901,-0.213596 -0.501606,-0.213596 z"
         style="stroke-width:0.26458332"
         id="path1719"
         inkscape:connector-curvature="0" />
      <path
         d="m 11.928298,9.5718527 v 0.7468963 h -0.23151 V 8.3426426 h 0.542947 q 0.316949,0 0.490581,0.1543403 0.175011,0.1543403 0.175011,0.4354601 0,0.2811198 -0.194303,0.4602648 -0.192925,0.1791449 -0.522277,0.1791449 z m 0,-1.0197482 v 0.8102864 h 0.242535 q 0.239779,0 0.36518,-0.108865 0.12678,-0.1102431 0.12678,-0.3100586 0,-0.3913628 -0.463021,-0.3913628 z"
         style="stroke-width:0.26458332"
         id="path1721"
         inkscape:connector-curvature="0" />
      <path
         d="M 14.326085,10.318749 H 13.278776 V 8.3426426 h 1.003212 v 0.2094619 h -0.771701 v 0.6573242 h 0.713823 v 0.2080837 h -0.713823 v 0.6917756 h 0.815798 z"
         style="stroke-width:0.26458332"
         id="path1723"
         inkscape:connector-curvature="0" />
    </g>
    <g
       id="g1880"
       transform="translate(-3.6380205,14.548239)">
      <path
         d="m 10.635698,250.02024 h -0.23151 v -1.97611 h 0.23151 z"
         style="font-style:normal;font-variant:normal;font-weight:normal;font-stretch:normal;font-size:2.82222223px;line-height:1.25;font-family:'Yu Gothic UI';-inkscape-font-specification:'Yu Gothic UI';letter-spacing:0px;word-spacing:0px;fill:#000000;fill-opacity:1;stroke:none;stroke-width:0.26458332"
         id="path1780"
         inkscape:connector-curvature="0" />
      <path
         d="m 12.746853,250.02024 h -0.283875 l -1.016993,-1.5751 q -0.03858,-0.0593 -0.06339,-0.12402 h -0.0083 q 0.01103,0.0634 0.01103,0.27147 v 1.42765 h -0.231511 v -1.97611 h 0.300413 l 0.989431,1.5503 q 0.06201,0.0965 0.07993,0.13229 h 0.0055 q -0.01378,-0.0854 -0.01378,-0.29077 v -1.39182 h 0.23151 z"
         style="font-style:normal;font-variant:normal;font-weight:normal;font-stretch:normal;font-size:2.82222223px;line-height:1.25;font-family:'Yu Gothic UI';-inkscape-font-specification:'Yu Gothic UI';letter-spacing:0px;word-spacing:0px;fill:#000000;fill-opacity:1;stroke:none;stroke-width:0.26458332"
         id="path1782"
         inkscape:connector-curvature="0" />
    </g>
    <g
       id="g1910"
       transform="translate(-3.5732528,14.535511)">
      <path
         d="m 9.7537542,264.57638 q -0.4203016,0 -0.6738606,-0.27699 -0.252181,-0.27699 -0.252181,-0.72071 0,-0.4768 0.2576931,-0.76068 0.2576932,-0.28388 0.7014215,-0.28388 0.4092778,0 0.6587018,0.27561 0.250803,0.27561 0.250803,0.72072 0,0.48369 -0.256315,0.76481 -0.256315,0.28112 -0.6862628,0.28112 z m 0.016537,-1.83279 q -0.3114366,0 -0.50574,0.22462 -0.1943034,0.22462 -0.1943034,0.5898 0,0.36518 0.1887912,0.58842 0.1901693,0.22186 0.4947157,0.22186 0.3252173,0 0.5126303,-0.21222 0.187414,-0.21221 0.187414,-0.59393 0,-0.39136 -0.181901,-0.60496 -0.181901,-0.21359 -0.5016068,-0.21359 z"
         style="font-style:normal;font-variant:normal;font-weight:normal;font-stretch:normal;font-size:2.82222223px;line-height:1.25;font-family:'Yu Gothic UI';-inkscape-font-specification:'Yu Gothic UI';letter-spacing:0px;word-spacing:0px;fill:#000000;fill-opacity:1;stroke:none;stroke-width:0.26458332"
         id="path1765"
         inkscape:connector-curvature="0" />
      <path
         d="m 12.530501,263.74404 q 0,0.83234 -0.751031,0.83234 -0.719336,0 -0.719336,-0.80064 v -1.20854 h 0.231511 v 1.19338 q 0,0.60771 0.51263,0.60771 0.494716,0 0.494716,-0.58704 v -1.21405 h 0.23151 z"
         style="font-style:normal;font-variant:normal;font-weight:normal;font-stretch:normal;font-size:2.82222223px;line-height:1.25;font-family:'Yu Gothic UI';-inkscape-font-specification:'Yu Gothic UI';letter-spacing:0px;word-spacing:0px;fill:#000000;fill-opacity:1;stroke:none;stroke-width:0.26458332"
         id="path1767"
         inkscape:connector-curvature="0" />
      <path
         d="m 14.193793,262.77666 h -0.570507 v 1.76664 h -0.231511 v -1.76664 h -0.56913 v -0.20946 h 1.371148 z"
         style="font-style:normal;font-variant:normal;font-weight:normal;font-stretch:normal;font-size:2.82222223px;line-height:1.25;font-family:'Yu Gothic UI';-inkscape-font-specification:'Yu Gothic UI';letter-spacing:0px;word-spacing:0px;fill:#000000;fill-opacity:1;stroke:none;stroke-width:0.26458332"
         id="path1769"
         inkscape:connector-curvature="0" />
    </g>
    <g
       aria-label="FADE EXP"
       transform="matrix(0.9944431,0,0,1.005588,0,197.0764)"
       style="font-style:normal;font-variant:normal;font-weight:600;font-stretch:normal;font-size:3.50817394px;line-height:1.25;font-family:'Yu Gothic UI';-inkscape-font-specification:'Yu Gothic UI Semi-Bold';letter-spacing:0px;word-spacing:0px;display:inline;fill:#000000;fill-opacity:1;stroke:none;stroke-width:0.26311305"
       id="text1808">
      <path
         d="M 1.8579667,3.9412141 H 0.93981181 V 4.6795066 H 1.7860217 v 0.344308 H 0.93981181 V 6.0516 H 0.53212363 V 3.595193 H 1.8579667 Z"
         style="font-style:normal;font-variant:normal;font-weight:600;font-stretch:normal;font-size:3.50817394px;font-family:'Yu Gothic UI';-inkscape-font-specification:'Yu Gothic UI Semi-Bold';stroke-width:0.26311305"
         id="path1810"
         inkscape:connector-curvature="0" />
      <path
         d="M 4.1739096,6.0516 H 3.726823 L 3.5058491,5.4263639 H 2.5397309 L 2.327322,6.0516 H 1.8819483 L 2.8018162,3.595193 H 3.2608936 Z M 3.3979317,5.0940466 3.0570495,4.1142246 Q 3.0416328,4.0662613 3.024503,3.9600568 h -0.00685 q -0.015417,0.09764 -0.03426,0.1541678 l -0.3374562,0.979822 z"
         style="font-style:normal;font-variant:normal;font-weight:600;font-stretch:normal;font-size:3.50817394px;font-family:'Yu Gothic UI';-inkscape-font-specification:'Yu Gothic UI Semi-Bold';stroke-width:0.26311305"
         id="path1812"
         inkscape:connector-curvature="0" />
      <path
         d="M 4.5130788,6.0516 V 3.595193 h 0.7091718 q 1.3583897,0 1.3583897,1.1973699 0,0.5687079 -0.3768547,0.914729 Q 5.826931,6.0516 5.1931301,6.0516 Z M 4.919054,3.9412141 v 1.7660778 h 0.3254653 q 0.4299569,0 0.6680605,-0.2363906 0.2398166,-0.2363907 0.2398166,-0.6680605 0,-0.8616267 -0.8924603,-0.8616267 z"
         style="font-style:normal;font-variant:normal;font-weight:600;font-stretch:normal;font-size:3.50817394px;font-family:'Yu Gothic UI';-inkscape-font-specification:'Yu Gothic UI Semi-Bold';stroke-width:0.26311305"
         id="path1814"
         inkscape:connector-curvature="0" />
      <path
         d="M 8.4066725,6.0516 H 7.0277272 V 3.595193 H 8.3518573 V 3.9412141 H 7.4354154 V 4.6366822 H 8.2799123 V 4.9809903 H 7.4354154 v 0.7263016 h 0.9712571 z"
         style="font-style:normal;font-variant:normal;font-weight:600;font-stretch:normal;font-size:3.50817394px;font-family:'Yu Gothic UI';-inkscape-font-specification:'Yu Gothic UI Semi-Bold';stroke-width:0.26311305"
         id="path1816"
         inkscape:connector-curvature="0" />
      <path
         d="M 11.188544,6.0516 H 9.809599 V 3.595193 h 1.32413 v 0.3460211 h -0.916442 v 0.6954681 h 0.844497 v 0.3443081 h -0.844497 v 0.7263016 h 0.971257 z"
         style="font-style:normal;font-variant:normal;font-weight:600;font-stretch:normal;font-size:3.50817394px;font-family:'Yu Gothic UI';-inkscape-font-specification:'Yu Gothic UI Semi-Bold';stroke-width:0.26311305"
         id="path1818"
         inkscape:connector-curvature="0" />
      <path
         d="M 13.461663,6.0516 H 12.973465 L 12.46985,5.1505748 Q 12.44758,5.1094638 12.42017,5.0340925 h -0.0069 q -0.01542,0.037686 -0.05139,0.1164823 L 11.842901,6.0516 H 11.351277 L 12.156375,4.8165446 11.41637,3.595193 h 0.498476 l 0.44366,0.8290802 q 0.04283,0.082223 0.07708,0.1644457 h 0.0051 q 0.04968,-0.1079175 0.08565,-0.1712976 l 0.46079,-0.8222283 h 0.459078 l -0.757135,1.2179257 z"
         style="font-style:normal;font-variant:normal;font-weight:600;font-stretch:normal;font-size:3.50817394px;font-family:'Yu Gothic UI';-inkscape-font-specification:'Yu Gothic UI Semi-Bold';stroke-width:0.26311305"
         id="path1820"
         inkscape:connector-curvature="0" />
      <path
         d="M 14.203381,5.1608527 V 6.0516 H 13.797406 V 3.595193 h 0.745145 q 0.423105,0 0.656069,0.1969922 0.232965,0.1969922 0.232965,0.5550041 0,0.3580119 -0.243243,0.5858376 Q 14.9451,5.1608527 14.53056,5.1608527 Z m 0,-1.2299165 v 0.8975992 h 0.263799 q 0.262085,0 0.399123,-0.1216212 0.137038,-0.1216213 0.137038,-0.3425951 0,-0.4333829 -0.503615,-0.4333829 z"
         style="font-style:normal;font-variant:normal;font-weight:600;font-stretch:normal;font-size:3.50817394px;font-family:'Yu Gothic UI';-inkscape-font-specification:'Yu Gothic UI Semi-Bold';stroke-width:0.26311305"
         id="path1822"
         inkscape:connector-curvature="0" />
    </g>
    <g
       aria-label="FADING"
       style="font-style:normal;font-variant:normal;font-weight:normal;font-stretch:normal;font-size:2.82222223px;line-height:1.25;font-family:'Yu Gothic UI';-inkscape-font-specification:'Yu Gothic UI';letter-spacing:0px;word-spacing:0px;fill:#000000;fill-opacity:1;stroke:none;stroke-width:0.26458332"
       id="text1914"
       transform="translate(-3.6435326,15.077406)">
      <path
         d="M 7.876866,245.49167 H 7.1051646 v 0.68351 h 0.7138238 v 0.20808 H 7.1051646 v 0.87506 H 6.8736542 v -1.97611 H 7.876866 Z"
         style="stroke-width:0.26458332"
         id="path1916"
         inkscape:connector-curvature="0" />
      <path
         d="M 9.682096,247.25832 H 9.4257809 L 9.2163191,246.70434 H 8.3784719 l -0.1970595,0.55398 H 7.9237193 l 0.757921,-1.97611 H 8.921419 Z m -0.541569,-0.76206 -0.3100586,-0.84198 q -0.015158,-0.0413 -0.030317,-0.13229 h -0.00551 q -0.01378,0.0841 -0.031695,0.13229 l -0.3073026,0.84198 z"
         style="stroke-width:0.26458332"
         id="path1918"
         inkscape:connector-curvature="0" />
      <path
         d="m 9.971484,247.25832 v -1.97611 h 0.545703 q 1.044553,0 1.044553,0.96325 0,0.45751 -0.290766,0.73587 -0.289388,0.27699 -0.775835,0.27699 z m 0.23151,-1.76665 v 1.55718 h 0.294901 q 0.388606,0 0.604958,-0.20808 0.216352,-0.20808 0.216352,-0.5898 0,-0.7593 -0.80753,-0.7593 z"
         style="stroke-width:0.26458332"
         id="path1920"
         inkscape:connector-curvature="0" />
      <path
         d="m 12.181857,247.25832 h -0.23151 v -1.97611 h 0.23151 z"
         style="stroke-width:0.26458332"
         id="path1922"
         inkscape:connector-curvature="0" />
      <path
         d="m 14.293012,247.25832 h -0.283876 l -1.016992,-1.5751 q -0.03858,-0.0593 -0.06339,-0.12403 h -0.0083 q 0.01102,0.0634 0.01102,0.27148 v 1.42765 H 12.7 v -1.97611 h 0.300412 l 0.989431,1.55029 q 0.06201,0.0965 0.07993,0.13229 h 0.0055 q -0.01378,-0.0854 -0.01378,-0.29076 v -1.39182 h 0.231511 z"
         style="stroke-width:0.26458332"
         id="path1924"
         inkscape:connector-curvature="0" />
      <path
         d="m 16.288411,247.12327 q -0.297656,0.16812 -0.661458,0.16812 -0.423058,0 -0.684885,-0.27285 -0.260449,-0.27285 -0.260449,-0.72209 0,-0.45889 0.289388,-0.75241 0.290766,-0.2949 0.735872,-0.2949 0.322461,0 0.541569,0.10473 v 0.25631 q -0.239779,-0.15158 -0.567752,-0.15158 -0.332107,0 -0.544325,0.22875 -0.212218,0.22876 -0.212218,0.59256 0,0.37483 0.19706,0.5898 0.197059,0.2136 0.534679,0.2136 0.23151,0 0.401009,-0.0923 v -0.55397 h -0.432704 v -0.20947 h 0.664214 z"
         style="stroke-width:0.26458332"
         id="path1926"
         inkscape:connector-curvature="0" />
    </g>
    <g
       transform="translate(0,210.5184)"
       id="g1935"
       style="font-style:normal;font-variant:normal;font-weight:normal;font-stretch:normal;font-size:2.82222223px;line-height:1.25;font-family:'Yu Gothic UI';-inkscape-font-specification:'Yu Gothic UI';letter-spacing:0px;word-spacing:0px;display:inline;fill:#000000;fill-opacity:1;stroke:none;stroke-width:0.26458332"
       aria-label="RUN">
      <path
         inkscape:connector-curvature="0"
         id="path1929"
         style="stroke-width:0.26458332"
         d="M 6.7441192,22.489584 H 6.4685115 L 6.1377823,21.935613 q -0.045475,-0.07717 -0.088194,-0.130914 -0.042719,-0.05512 -0.088194,-0.08957 -0.044097,-0.03445 -0.096463,-0.04961 -0.050987,-0.01654 -0.1157552,-0.01654 H 5.5590063 v 0.840603 H 5.3274959 v -1.976107 h 0.5898003 q 0.1295356,0 0.2384006,0.03307 0.1102431,0.03169 0.1901693,0.09784 0.081304,0.06615 0.1267795,0.165364 0.045475,0.09784 0.045475,0.230133 0,0.103353 -0.031695,0.190169 -0.030317,0.08544 -0.088194,0.152962 -0.0565,0.06752 -0.1378039,0.115756 -0.079926,0.04685 -0.180523,0.07304 v 0.0055 q 0.049609,0.02205 0.085438,0.05099 0.037207,0.02756 0.07028,0.06615 0.033073,0.03859 0.064768,0.08819 0.033073,0.04823 0.073036,0.113 z M 5.5590063,20.722939 v 0.71658 H 5.873199 q 0.086816,0 0.1598524,-0.02618 0.074414,-0.02618 0.1281576,-0.07441 0.053743,-0.04961 0.08406,-0.119889 0.030317,-0.07166 0.030317,-0.159853 0,-0.158474 -0.1033529,-0.246669 -0.1019748,-0.08957 -0.2962782,-0.08957 z" />
      <path
         inkscape:connector-curvature="0"
         id="path1931"
         style="stroke-width:0.26458332"
         d="m 8.4597767,21.690322 q 0,0.832335 -0.7510309,0.832335 -0.7193359,0 -0.7193359,-0.80064 v -1.20854 h 0.2315104 v 1.193381 q 0,0.607715 0.5126302,0.607715 0.4947157,0 0.4947157,-0.587044 v -1.214052 h 0.2315105 z" />
      <path
         inkscape:connector-curvature="0"
         id="path1933"
         style="stroke-width:0.26458332"
         d="M 10.547505,22.489584 H 10.263629 L 9.2466365,20.914486 q -0.038585,-0.05926 -0.06339,-0.124023 h -0.00827 q 0.011024,0.06339 0.011024,0.271473 v 1.427648 H 8.9544924 v -1.976107 h 0.3004123 l 0.9894313,1.550293 q 0.06201,0.09646 0.07993,0.132292 h 0.0055 q -0.01378,-0.08544 -0.01378,-0.290766 v -1.391819 h 0.231511 z" />
    </g>
    <path
       style="fill:none;stroke:#000000;stroke-width:0.2;stroke-linecap:square;stroke-linejoin:miter;stroke-miterlimit:4;stroke-dasharray:none;stroke-opacity:1"
       d="m 5.2429635,235.27129 v -1.78491 h 3.9193256 v 1.78491 h 1.4697469"
       id="path1937"
       inkscape:connector-curvature="0" />
    <path
       style="fill:none;stroke:#000000;stroke-width:0.2;stroke-linecap:square;stroke-linejoin:miter;stroke-miterlimit:4;stroke-dasharray:none;stroke-opacity:1"
       d="m 5.24296,249.85111 v -1.7849 h 0.489916 v 1.7849 h 3.429415 v -1.7849 h 0.489917 v 1.7849 h 0.979832"
       id="path1939"
       inkscape:connector-curvature="0" />
    <g
       transform="translate(-3.6435326,29.558887)"
       id="g1967"
       style="font-style:normal;font-variant:normal;font-weight:normal;font-stretch:normal;font-size:2.82222223px;line-height:1.25;font-family:'Yu Gothic UI';-inkscape-font-specification:'Yu Gothic UI';letter-spacing:0px;word-spacing:0px;fill:#000000;fill-opacity:1;stroke:none;stroke-width:0.26458332"
       aria-label="FADING">
      <path
         inkscape:connector-curvature="0"
         id="path1955"
         style="stroke-width:0.26458332"
         d="M 7.876866,245.49167 H 7.1051646 v 0.68351 h 0.7138238 v 0.20808 H 7.1051646 v 0.87506 H 6.8736542 v -1.97611 H 7.876866 Z" />
      <path
         inkscape:connector-curvature="0"
         id="path1957"
         style="stroke-width:0.26458332"
         d="M 9.682096,247.25832 H 9.4257809 L 9.2163191,246.70434 H 8.3784719 l -0.1970595,0.55398 H 7.9237193 l 0.757921,-1.97611 H 8.921419 Z m -0.541569,-0.76206 -0.3100586,-0.84198 q -0.015158,-0.0413 -0.030317,-0.13229 h -0.00551 q -0.01378,0.0841 -0.031695,0.13229 l -0.3073026,0.84198 z" />
      <path
         inkscape:connector-curvature="0"
         id="path1959"
         style="stroke-width:0.26458332"
         d="m 9.971484,247.25832 v -1.97611 h 0.545703 q 1.044553,0 1.044553,0.96325 0,0.45751 -0.290766,0.73587 -0.289388,0.27699 -0.775835,0.27699 z m 0.23151,-1.76665 v 1.55718 h 0.294901 q 0.388606,0 0.604958,-0.20808 0.216352,-0.20808 0.216352,-0.5898 0,-0.7593 -0.80753,-0.7593 z" />
      <path
         inkscape:connector-curvature="0"
         id="path1961"
         style="stroke-width:0.26458332"
         d="m 12.181857,247.25832 h -0.23151 v -1.97611 h 0.23151 z" />
      <path
         inkscape:connector-curvature="0"
         id="path1963"
         style="stroke-width:0.26458332"
         d="m 14.293012,247.25832 h -0.283876 l -1.016992,-1.5751 q -0.03858,-0.0593 -0.06339,-0.12403 h -0.0083 q 0.01102,0.0634 0.01102,0.27148 v 1.42765 H 12.7 v -1.97611 h 0.300412 l 0.989431,1.55029 q 0.06201,0.0965 0.07993,0.13229 h 0.0055 q -0.01378,-0.0854 -0.01378,-0.29076 v -1.39182 h 0.231511 z" />
      <path
         inkscape:connector-curvature="0"
         id="path1965"
         style="stroke-width:0.26458332"
         d="m 16.288411,247.12327 q -0.297656,0.16812 -0.661458,0.16812 -0.423058,0 -0.684885,-0.27285 -0.260449,-0.27285 -0.260449,-0.72209 0,-0.45889 0.289388,-0.75241 0.290766,-0.2949 0.735872,-0.2949 0.322461,0 0.541569,0.10473 v 0.25631 q -0.239779,-0.15158 -0.567752,-0.15158 -0.332107,0 -0.544325,0.22875 -0.212218,0.22876 -0.212218,0.59256 0,0.37483 0.19706,0.5898 0.197059,0.2136 0.534679,0.2136 0.23151,0 0.401009,-0.0923 v -0.55397 h -0.432704 v -0.20947 h 0.664214 z" />
    </g>
    <g
       aria-label="START/STOP"
       style="font-style:normal;font-variant:normal;font-weight:normal;font-stretch:normal;font-size:2.82222223px;line-height:1.25;font-family:'Yu Gothic UI';-inkscape-font-specification:'Yu Gothic UI';letter-spacing:0px;word-spacing:0px;fill:#000000;fill-opacity:1;stroke:none;stroke-width:0.26458332"
       id="text1971"
       transform="matrix(0.8654886,0,0,1,-4.3172489,15.221039)">
      <path
         d="m 6.5167425,232.36172 v -0.27285 q 0.046853,0.0413 0.1116211,0.0744 0.066146,0.0331 0.1378038,0.0565 0.073036,0.022 0.1460721,0.0345 0.073036,0.0124 0.1350477,0.0124 0.213596,0 0.3183269,-0.0786 0.1061089,-0.0799 0.1061089,-0.22875 0,-0.0799 -0.035829,-0.13918 -0.034451,-0.0593 -0.096463,-0.10749 -0.062012,-0.0496 -0.1474501,-0.0937 -0.08406,-0.0455 -0.181901,-0.0951 -0.1033529,-0.0524 -0.1929253,-0.10611 -0.089573,-0.0537 -0.1557184,-0.11851 -0.066146,-0.0648 -0.1047309,-0.14608 -0.037207,-0.0827 -0.037207,-0.19292 0,-0.13505 0.059256,-0.23427 0.059256,-0.10059 0.1557184,-0.16536 0.096463,-0.0648 0.219108,-0.0965 0.1240235,-0.0317 0.252181,-0.0317 0.2921441,0 0.4258138,0.0703 v 0.26045 q -0.1750108,-0.12127 -0.4492404,-0.12127 -0.075792,0 -0.1515842,0.0165 -0.075792,0.0152 -0.1350478,0.051 -0.059256,0.0358 -0.096463,0.0923 -0.037207,0.0565 -0.037207,0.13781 0,0.0758 0.027561,0.13091 0.028939,0.0551 0.08406,0.1006 0.055121,0.0455 0.1336697,0.0882 0.079926,0.0427 0.1832791,0.0937 0.1061089,0.0524 0.2011936,0.11024 0.095085,0.0579 0.1667426,0.12816 0.071658,0.0703 0.1129991,0.15572 0.042719,0.0854 0.042719,0.19568 0,0.14607 -0.057878,0.24805 -0.0565,0.10059 -0.1543403,0.16398 -0.096463,0.0634 -0.2232421,0.091 -0.1267796,0.0289 -0.2673395,0.0289 -0.046853,0 -0.1157552,-0.008 -0.068902,-0.007 -0.1405599,-0.0221 -0.071658,-0.0138 -0.1364257,-0.0344 -0.06339,-0.0221 -0.1019749,-0.0482 z"
         style="stroke-width:0.26458332"
         id="path1973"
         inkscape:connector-curvature="0" />
      <path
         d="M 9.2493923,230.67501 H 8.6788844 v 1.76664 H 8.447374 v -1.76664 H 7.8782442 v -0.20947 h 1.3711481 z"
         style="stroke-width:0.26458332"
         id="path1975"
         inkscape:connector-curvature="0" />
      <path
         d="M 10.988476,232.44165 H 10.732161 L 10.5227,231.88768 H 9.6848523 l -0.1970595,0.55397 H 9.2300997 l 0.757921,-1.97611 h 0.2397783 z m -0.541569,-0.76205 -0.310058,-0.84199 q -0.01516,-0.0413 -0.03032,-0.13229 h -0.0055 q -0.01378,0.0841 -0.0317,0.13229 l -0.3073026,0.84199 z"
         style="stroke-width:0.26458332"
         id="path1977"
         inkscape:connector-curvature="0" />
      <path
         d="M 12.694488,232.44165 H 12.41888 l -0.330729,-0.55397 q -0.04548,-0.0772 -0.0882,-0.13091 -0.04272,-0.0551 -0.08819,-0.0896 -0.0441,-0.0344 -0.09646,-0.0496 -0.05099,-0.0165 -0.115755,-0.0165 h -0.190169 v 0.8406 h -0.231511 v -1.97611 h 0.589801 q 0.129535,0 0.2384,0.0331 0.110243,0.0317 0.19017,0.0978 0.0813,0.0661 0.126779,0.16536 0.04547,0.0978 0.04547,0.23013 0,0.10336 -0.03169,0.19017 -0.03032,0.0854 -0.08819,0.15297 -0.0565,0.0675 -0.137804,0.11575 -0.07993,0.0469 -0.180523,0.073 v 0.006 q 0.04961,0.0221 0.08544,0.051 0.03721,0.0276 0.07028,0.0661 0.03307,0.0386 0.06477,0.0882 0.03307,0.0482 0.07304,0.113 z m -1.185113,-1.76664 v 0.71658 h 0.314192 q 0.08682,0 0.159853,-0.0262 0.07441,-0.0262 0.128157,-0.0744 0.05374,-0.0496 0.08406,-0.11989 0.03032,-0.0717 0.03032,-0.15985 0,-0.15848 -0.103353,-0.24667 -0.101975,-0.0896 -0.296279,-0.0896 z"
         style="stroke-width:0.26458332"
         id="path1979"
         inkscape:connector-curvature="0" />
      <path
         d="m 14.13316,230.67501 h -0.570508 v 1.76664 h -0.231511 v -1.76664 h -0.569129 v -0.20947 h 1.371148 z"
         style="stroke-width:0.26458332"
         id="path1981"
         inkscape:connector-curvature="0" />
      <path
         d="m 15.303114,230.46554 -0.94809,2.30408 h -0.21084 l 0.945334,-2.30408 z"
         style="stroke-width:0.26458332"
         id="path1983"
         inkscape:connector-curvature="0" />
      <path
         d="m 15.451942,232.36172 v -0.27285 q 0.04685,0.0413 0.111621,0.0744 0.06615,0.0331 0.137804,0.0565 0.07304,0.022 0.146072,0.0345 0.07304,0.0124 0.135048,0.0124 0.213596,0 0.318327,-0.0786 0.106109,-0.0799 0.106109,-0.22875 0,-0.0799 -0.03583,-0.13918 -0.03445,-0.0593 -0.09646,-0.10749 -0.06201,-0.0496 -0.14745,-0.0937 -0.08406,-0.0455 -0.181901,-0.0951 -0.103353,-0.0524 -0.192925,-0.10611 -0.08957,-0.0537 -0.155719,-0.11851 -0.06615,-0.0648 -0.104731,-0.14608 -0.03721,-0.0827 -0.03721,-0.19292 0,-0.13505 0.05926,-0.23427 0.05926,-0.10059 0.155718,-0.16536 0.09646,-0.0648 0.219108,-0.0965 0.124024,-0.0317 0.252181,-0.0317 0.292144,0 0.425814,0.0703 v 0.26045 q -0.175011,-0.12127 -0.44924,-0.12127 -0.07579,0 -0.151584,0.0165 -0.07579,0.0152 -0.135048,0.051 -0.05926,0.0358 -0.09646,0.0923 -0.03721,0.0565 -0.03721,0.13781 0,0.0758 0.02756,0.13091 0.02894,0.0551 0.08406,0.1006 0.05512,0.0455 0.13367,0.0882 0.07993,0.0427 0.183279,0.0937 0.106109,0.0524 0.201194,0.11024 0.09508,0.0579 0.166742,0.12816 0.07166,0.0703 0.112999,0.15572 0.04272,0.0854 0.04272,0.19568 0,0.14607 -0.05788,0.24805 -0.0565,0.10059 -0.15434,0.16398 -0.09646,0.0634 -0.223243,0.091 -0.126779,0.0289 -0.267339,0.0289 -0.04685,0 -0.115755,-0.008 -0.0689,-0.007 -0.14056,-0.0221 -0.07166,-0.0138 -0.136426,-0.0344 -0.06339,-0.0221 -0.101975,-0.0482 z"
         style="stroke-width:0.26458332"
         id="path1985"
         inkscape:connector-curvature="0" />
      <path
         d="m 18.184592,230.67501 h -0.570508 v 1.76664 h -0.23151 v -1.76664 h -0.56913 v -0.20947 h 1.371148 z"
         style="stroke-width:0.26458332"
         id="path1987"
         inkscape:connector-curvature="0" />
      <path
         d="m 19.262218,232.47472 q -0.420302,0 -0.673861,-0.27698 -0.252181,-0.27699 -0.252181,-0.72072 0,-0.4768 0.257693,-0.76067 0.257694,-0.28388 0.701422,-0.28388 0.409277,0 0.658702,0.27561 0.250803,0.27561 0.250803,0.72071 0,0.48369 -0.256315,0.76481 -0.256315,0.28112 -0.686263,0.28112 z m 0.01654,-1.83279 q -0.311436,0 -0.50574,0.22462 -0.194303,0.22462 -0.194303,0.5898 0,0.36518 0.188791,0.58843 0.19017,0.22186 0.494716,0.22186 0.325217,0 0.51263,-0.21222 0.187413,-0.21222 0.187413,-0.59393 0,-0.39137 -0.181901,-0.60496 -0.181901,-0.2136 -0.501606,-0.2136 z"
         style="stroke-width:0.26458332"
         id="path1989"
         inkscape:connector-curvature="0" />
      <path
         d="m 20.824913,231.69475 v 0.7469 h -0.231511 v -1.97611 h 0.542947 q 0.316949,0 0.490582,0.15434 0.175011,0.15434 0.175011,0.43546 0,0.28112 -0.194304,0.46027 -0.192925,0.17914 -0.522276,0.17914 z m 0,-1.01974 v 0.81028 h 0.242534 q 0.239779,0 0.36518,-0.10886 0.12678,-0.11025 0.12678,-0.31006 0,-0.39136 -0.463021,-0.39136 z"
         style="stroke-width:0.26458332"
         id="path1991"
         inkscape:connector-curvature="0" />
    </g>
    <g
       aria-label="INVERTED"
       style="font-style:normal;font-variant:normal;font-weight:normal;font-stretch:normal;font-size:2.82222223px;line-height:1.25;font-family:'Yu Gothic UI';-inkscape-font-specification:'Yu Gothic UI';letter-spacing:0px;word-spacing:0px;fill:#000000;fill-opacity:1;stroke:none;stroke-width:0.26458332"
       id="text904"
       transform="translate(-5.0477536,-0.70298987)">
      <path
         d="M 7.1051646,221.59373 H 6.8736542 v -1.9761 h 0.2315104 z"
         style="stroke-width:0.26458332"
         id="path906"
         inkscape:connector-curvature="0" />
      <path
         d="M 9.2163192,221.59373 H 8.9324433 l -1.0169922,-1.57509 q -0.038585,-0.0593 -0.06339,-0.12403 h -0.00827 q 0.011024,0.0634 0.011024,0.27148 v 1.42764 H 7.623307 v -1.9761 h 0.3004123 l 0.9894315,1.55029 q 0.062012,0.0965 0.079926,0.13229 h 0.00551 q -0.01378,-0.0854 -0.01378,-0.29076 v -1.39182 h 0.2315105 z"
         style="stroke-width:0.26458332"
         id="path908"
         inkscape:connector-curvature="0" />
      <path
         d="m 11.20345,219.61763 -0.731738,1.9761 h -0.254937 l -0.7165799,-1.9761 h 0.2576932 l 0.5470807,1.56683 q 0.02618,0.0758 0.03996,0.17501 h 0.0055 q 0.01102,-0.0827 0.04547,-0.17777 l 0.558105,-1.56407 z"
         style="stroke-width:0.26458332"
         id="path910"
         inkscape:connector-curvature="0" />
      <path
         d="m 12.534635,221.59373 h -1.047309 v -1.9761 h 1.003212 v 0.20946 h -0.771702 v 0.65732 h 0.713824 v 0.20809 h -0.713824 v 0.69177 h 0.815799 z"
         style="stroke-width:0.26458332"
         id="path912"
         inkscape:connector-curvature="0" />
      <path
         d="m 14.331597,221.59373 h -0.275608 l -0.330729,-0.55397 q -0.04547,-0.0772 -0.08819,-0.13091 -0.04272,-0.0551 -0.0882,-0.0896 -0.0441,-0.0344 -0.09646,-0.0496 -0.05099,-0.0165 -0.115755,-0.0165 h -0.190169 v 0.8406 h -0.23151 v -1.9761 h 0.5898 q 0.129536,0 0.238401,0.0331 0.110243,0.0317 0.190169,0.0978 0.0813,0.0662 0.126779,0.16537 0.04548,0.0978 0.04548,0.23013 0,0.10335 -0.03169,0.19017 -0.03032,0.0854 -0.0882,0.15296 -0.0565,0.0675 -0.137804,0.11576 -0.07993,0.0469 -0.180523,0.073 v 0.006 q 0.04961,0.0221 0.08544,0.051 0.03721,0.0276 0.07028,0.0661 0.03307,0.0386 0.06477,0.0882 0.03307,0.0482 0.07304,0.113 z m -1.185113,-1.76664 v 0.71658 h 0.314193 q 0.08682,0 0.159852,-0.0262 0.07441,-0.0262 0.128158,-0.0744 0.05374,-0.0496 0.08406,-0.11989 0.03032,-0.0717 0.03032,-0.15985 0,-0.15847 -0.103353,-0.24667 -0.101975,-0.0896 -0.296278,-0.0896 z"
         style="stroke-width:0.26458332"
         id="path914"
         inkscape:connector-curvature="0" />
      <path
         d="m 15.770269,219.82709 h -0.570508 v 1.76664 h -0.23151 v -1.76664 h -0.56913 v -0.20946 h 1.371148 z"
         style="stroke-width:0.26458332"
         id="path916"
         inkscape:connector-curvature="0" />
      <path
         d="M 17.126259,221.59373 H 16.07895 v -1.9761 h 1.003212 v 0.20946 H 16.31046 v 0.65732 h 0.713824 v 0.20809 H 16.31046 v 0.69177 h 0.815799 z"
         style="stroke-width:0.26458332"
         id="path918"
         inkscape:connector-curvature="0" />
      <path
         d="m 17.506597,221.59373 v -1.9761 H 18.0523 q 1.044553,0 1.044553,0.96325 0,0.45751 -0.290766,0.73587 -0.289388,0.27698 -0.775835,0.27698 z m 0.231511,-1.76664 v 1.55718 h 0.2949 q 0.388607,0 0.604959,-0.20808 0.216352,-0.20808 0.216352,-0.5898 0,-0.7593 -0.807531,-0.7593 z"
         style="stroke-width:0.26458332"
         id="path920"
         inkscape:connector-curvature="0" />
    </g>
  </g>
  <g
     inkscape:groupmode="layer"
     id="layer2"
     inkscape:label="Grid6"
     style="display:none"
     sodipodi:insensitive="true">
    <g
       transform="translate(0,3.333209e-6)"
       style="display:inline"
       id="g1112">
      <path
         style="fill:none;stroke:#000000;stroke-width:0.05;stroke-linecap:butt;stroke-linejoin:miter;stroke-miterlimit:4;stroke-dasharray:none;stroke-opacity:1"
         d="m 7.9375,-1e-5 -3e-6,100.54167"
         id="path881-8-8"
         inkscape:connector-curvature="0"
         sodipodi:nodetypes="cc" />
      <path
         sodipodi:nodetypes="cc"
         inkscape:connector-curvature="0"
         id="path890-2-5"
         d="m 3.968752,0 -4e-6,100.54167"
         style="fill:none;stroke:#000000;stroke-width:0.05;stroke-linecap:butt;stroke-linejoin:miter;stroke-miterlimit:4;stroke-dasharray:none;stroke-opacity:1" />
      <path
         style="fill:none;stroke:#000000;stroke-width:0.05;stroke-linecap:butt;stroke-linejoin:miter;stroke-miterlimit:4;stroke-dasharray:none;stroke-opacity:1"
         d="m 11.906253,0 -4e-6,100.54167"
         id="path895-1-5"
         inkscape:connector-curvature="0"
         sodipodi:nodetypes="cc" />
      <path
         sodipodi:nodetypes="cc"
         inkscape:connector-curvature="0"
         id="path905-6-4"
         d="m 0,14.022551 15.875,3.66e-4"
         style="fill:none;stroke:#000000;stroke-width:0.05;stroke-linecap:butt;stroke-linejoin:miter;stroke-miterlimit:4;stroke-dasharray:none;stroke-opacity:1" />
      <path
         sodipodi:nodetypes="cc"
         style="fill:none;stroke:#000000;stroke-width:0.05;stroke-linecap:butt;stroke-linejoin:miter;stroke-miterlimit:4;stroke-dasharray:none;stroke-opacity:1"
         d="M 0,28.57465 15.875,28.575"
         id="path1103"
         inkscape:connector-curvature="0" />
      <path
         sodipodi:nodetypes="cc"
         inkscape:connector-curvature="0"
         id="path1107"
         d="m 0,43.126622 15.875,4.61e-4"
         style="fill:none;stroke:#000000;stroke-width:0.05;stroke-linecap:butt;stroke-linejoin:miter;stroke-miterlimit:4;stroke-dasharray:none;stroke-opacity:1" />
      <path
         sodipodi:nodetypes="cc"
         style="fill:none;stroke:#000000;stroke-width:0.05;stroke-linecap:butt;stroke-linejoin:miter;stroke-miterlimit:4;stroke-dasharray:none;stroke-opacity:1"
         d="m 0,57.678723 15.875,4.44e-4"
         id="path1111"
         inkscape:connector-curvature="0" />
      <path
         sodipodi:nodetypes="cc"
         inkscape:connector-curvature="0"
         id="path1115"
         d="m 0,72.230955 15.875,2.95e-4"
         style="fill:none;stroke:#000000;stroke-width:0.05;stroke-linecap:butt;stroke-linejoin:miter;stroke-miterlimit:4;stroke-dasharray:none;stroke-opacity:1" />
      <path
         sodipodi:nodetypes="cc"
         style="fill:none;stroke:#000000;stroke-width:0.05;stroke-linecap:butt;stroke-linejoin:miter;stroke-miterlimit:4;stroke-dasharray:none;stroke-opacity:1"
         d="m 0,86.782927 15.875,4.06e-4"
         id="path1119"
         inkscape:connector-curvature="0" />
      <circle
         r="4.0999999"
         cy="28.574995"
         cx="7.9523039"
         id="circle1014"
         style="display:inline;opacity:1;fill:none;fill-opacity:1;stroke:#000000;stroke-width:0.05;stroke-linecap:square;stroke-linejoin:round;stroke-miterlimit:4;stroke-dasharray:none;stroke-dashoffset:0;stroke-opacity:1;paint-order:markers fill stroke" />
      <circle
         r="4.0999999"
         cy="43.127026"
         cx="7.9523039"
         id="circle1018"
         style="display:inline;opacity:1;fill:none;fill-opacity:1;stroke:#000000;stroke-width:0.05;stroke-linecap:square;stroke-linejoin:round;stroke-miterlimit:4;stroke-dasharray:none;stroke-dashoffset:0;stroke-opacity:1;paint-order:markers fill stroke" />
      <circle
         style="display:inline;opacity:1;fill:none;fill-opacity:1;stroke:#000000;stroke-width:0.05;stroke-linecap:square;stroke-linejoin:round;stroke-miterlimit:4;stroke-dasharray:none;stroke-dashoffset:0;stroke-opacity:1;paint-order:markers fill stroke"
         id="circle1022"
         cx="7.9523039"
         cy="57.679188"
         r="4.0999999" />
      <circle
         style="display:inline;opacity:1;fill:none;fill-opacity:1;stroke:#000000;stroke-width:0.05;stroke-linecap:square;stroke-linejoin:round;stroke-miterlimit:4;stroke-dasharray:none;stroke-dashoffset:0;stroke-opacity:1;paint-order:markers fill stroke"
         id="circle1026"
         cx="7.9523039"
         cy="72.231216"
         r="4.0999999" />
      <circle
         r="4.0999999"
         cy="86.783379"
         cx="7.9523039"
         id="circle1030"
         style="display:inline;opacity:1;fill:none;fill-opacity:1;stroke:#000000;stroke-width:0.05;stroke-linecap:square;stroke-linejoin:round;stroke-miterlimit:4;stroke-dasharray:none;stroke-dashoffset:0;stroke-opacity:1;paint-order:markers fill stroke" />
      <circle
         r="5.4741378"
         cy="14.023303"
         cx="7.9360795"
         id="circle943"
         style="display:inline;opacity:1;fill:none;fill-opacity:1;stroke:#000000;stroke-width:0.05172414;stroke-linecap:square;stroke-linejoin:round;stroke-miterlimit:4;stroke-dasharray:none;stroke-dashoffset:0;stroke-opacity:1;paint-order:markers fill stroke" />
      <circle
         style="display:inline;opacity:1;fill:none;fill-opacity:1;stroke:#000000;stroke-width:0.05172414;stroke-linecap:square;stroke-linejoin:round;stroke-miterlimit:4;stroke-dasharray:none;stroke-dashoffset:0;stroke-opacity:1;paint-order:markers fill stroke"
         id="circle975"
         cx="7.9360795"
         cy="28.575275"
         r="5.4741378" />
      <circle
         style="display:inline;opacity:1;fill:none;fill-opacity:1;stroke:#000000;stroke-width:0.05172414;stroke-linecap:square;stroke-linejoin:round;stroke-miterlimit:4;stroke-dasharray:none;stroke-dashoffset:0;stroke-opacity:1;paint-order:markers fill stroke"
         id="circle977"
         cx="7.9360795"
         cy="43.127495"
         r="5.4741378" />
      <circle
         r="5.4741378"
         cy="57.67947"
         cx="7.9360795"
         id="circle979"
         style="display:inline;opacity:1;fill:none;fill-opacity:1;stroke:#000000;stroke-width:0.05172414;stroke-linecap:square;stroke-linejoin:round;stroke-miterlimit:4;stroke-dasharray:none;stroke-dashoffset:0;stroke-opacity:1;paint-order:markers fill stroke" />
      <circle
         r="5.4741378"
         cy="72.231689"
         cx="7.9360795"
         id="circle981"
         style="display:inline;opacity:1;fill:none;fill-opacity:1;stroke:#000000;stroke-width:0.05172414;stroke-linecap:square;stroke-linejoin:round;stroke-miterlimit:4;stroke-dasharray:none;stroke-dashoffset:0;stroke-opacity:1;paint-order:markers fill stroke" />
      <circle
         style="display:inline;opacity:1;fill:none;fill-opacity:1;stroke:#000000;stroke-width:0.05172414;stroke-linecap:square;stroke-linejoin:round;stroke-miterlimit:4;stroke-dasharray:none;stroke-dashoffset:0;stroke-opacity:1;paint-order:markers fill stroke"
         id="circle983"
         cx="7.9360795"
         cy="86.783661"
         r="5.4741378" />
      <circle
         style="display:inline;opacity:1;fill:none;fill-opacity:1;stroke:#000000;stroke-width:0.05;stroke-linecap:square;stroke-linejoin:round;stroke-miterlimit:4;stroke-dasharray:none;stroke-dashoffset:0;stroke-opacity:1;paint-order:markers fill stroke"
         id="circle1089"
         cx="7.9523039"
         cy="14.022678"
         r="4.0999999" />
    </g>
  </g>
</svg>
