<?xml version="1.0" encoding="UTF-8" standalone="no"?>
<!-- Created with Inkscape (http://www.inkscape.org/) -->

<svg
   xmlns:dc="http://purl.org/dc/elements/1.1/"
   xmlns:cc="http://creativecommons.org/ns#"
   xmlns:rdf="http://www.w3.org/1999/02/22-rdf-syntax-ns#"
   xmlns:svg="http://www.w3.org/2000/svg"
   xmlns="http://www.w3.org/2000/svg"
   xmlns:sodipodi="http://sodipodi.sourceforge.net/DTD/sodipodi-0.dtd"
   xmlns:inkscape="http://www.inkscape.org/namespaces/inkscape"
   width="120"
   height="380"
   viewBox="0 0 31.750002 100.54167"
   version="1.1"
   id="svg8"
   inkscape:version="0.92.5 (2060ec1f9f, 2020-04-08)"
   sodipodi:docname="OctetTriggerSequencerGateExpander.svg">
  <defs
     id="defs2">
    <pattern
       y="0"
       x="0"
       height="6"
       width="6"
       patternUnits="userSpaceOnUse"
       id="EMFhbasepattern" />
  </defs>
  <sodipodi:namedview
     id="base"
     pagecolor="#ffffff"
     bordercolor="#666666"
     borderopacity="1.0"
     inkscape:pageopacity="0.0"
     inkscape:pageshadow="2"
     inkscape:zoom="4.5578948"
     inkscape:cx="46.420299"
     inkscape:cy="332.81281"
     inkscape:document-units="mm"
     inkscape:current-layer="layer1"
     showgrid="true"
     units="px"
     inkscape:snap-bbox="true"
     inkscape:snap-page="true"
     inkscape:bbox-nodes="true"
     inkscape:snap-bbox-edge-midpoints="true"
     inkscape:window-width="1920"
     inkscape:window-height="1017"
     inkscape:window-x="-8"
     inkscape:window-y="-8"
     inkscape:window-maximized="1"
     inkscape:snap-intersection-paths="true">
    <inkscape:grid
       type="xygrid"
       id="grid116" />
  </sodipodi:namedview>
  <metadata
     id="metadata5">
    <rdf:RDF>
      <cc:Work
         rdf:about="">
        <dc:format>image/svg+xml</dc:format>
        <dc:type
           rdf:resource="http://purl.org/dc/dcmitype/StillImage" />
        <dc:title />
      </cc:Work>
    </rdf:RDF>
  </metadata>
  <g
     inkscape:groupmode="layer"
     id="layer3"
     inkscape:label="Panel"
     style="display:inline"
     sodipodi:insensitive="true">
    <path
       transform="matrix(2,0,0,1,0,-196.45832)"
       sodipodi:type="inkscape:offset"
       inkscape:radius="0"
       inkscape:original="M 0 196.45898 L 0 297 L 15.875 297 L 15.875 196.45898 L 0 196.45898 z "
       style="display:inline;fill:#cccccc;stroke-width:0.3310422"
       id="rect3855"
       d="M 0,196.45898 V 297 H 15.875 V 196.45898 Z" />
  </g>
  <g
     inkscape:label="Layer 1"
     inkscape:groupmode="layer"
     id="layer1"
     transform="translate(0,-196.45832)"
     style="display:inline">
    <text
       xml:space="preserve"
       style="font-style:normal;font-weight:normal;font-size:2.82222223px;line-height:1.25;font-family:sans-serif;letter-spacing:0px;word-spacing:0px;fill:#000000;fill-opacity:1;stroke:none;stroke-width:0.26458332"
       x="17.197916"
       y="201.74998"
       id="text3821"><tspan
         sodipodi:role="line"
         id="tspan3819"
         x="17.197916"
         y="204.24699"
         style="stroke-width:0.26458332" /></text>
    <rect
       style="fill:#b3b3b3;stroke-width:0.10104816"
       id="rect897-2-1-8"
       width="9.5249996"
       height="10.583333"
       x="3.175"
       y="-289.59164"
       transform="scale(1,-1)" />
    <g
       aria-label="/^M^\"
       style="font-style:normal;font-variant:normal;font-weight:normal;font-stretch:normal;font-size:2.82222223px;line-height:1.25;font-family:'Copperplate Gothic Light';-inkscape-font-specification:'Copperplate Gothic Light, ';letter-spacing:0px;word-spacing:0px;fill:#000000;fill-opacity:1;stroke:#000000;stroke-width:0.2;stroke-miterlimit:4;stroke-dasharray:none;stroke-opacity:1"
       id="text956"
       transform="translate(-9.481569,3.7456238)">
      <path
         d="m 21.203855,291.40545 v 0.0386 h -0.434082 v -0.0386 q 0.09509,-0.006 0.224621,-0.17088 l 1.094162,-1.4621 q 0.07441,-0.1006 0.07441,-0.12402 0,-0.0372 -0.06615,-0.0482 v -0.0372 h 0.423058 v 0.0372 q -0.09508,0.006 -0.22462,0.17087 l -1.08176,1.46348 q -0.07579,0.10197 -0.07579,0.12402 0,0.0358 0.06615,0.0469 z"
         style="font-style:normal;font-variant:normal;font-weight:normal;font-stretch:normal;font-size:2.82222223px;line-height:1.25;font-family:'Copperplate Gothic Light';-inkscape-font-specification:'Copperplate Gothic Light, ';stroke:#000000;stroke-width:0.2;stroke-miterlimit:4;stroke-dasharray:none;stroke-opacity:1"
         id="path958"
         inkscape:connector-curvature="0" />
      <path
         d="M 22.940183,290.3857 H 22.73899 l 0.493338,-0.8282 h 0.243912 l 0.493338,0.8282 h -0.20395 l -0.413411,-0.68075 z"
         style="font-style:normal;font-variant:normal;font-weight:normal;font-stretch:normal;font-size:2.82222223px;line-height:1.25;font-family:'Copperplate Gothic Light';-inkscape-font-specification:'Copperplate Gothic Light, ';stroke:#000000;stroke-width:0.2;stroke-miterlimit:4;stroke-dasharray:none;stroke-opacity:1"
         id="path960"
         inkscape:connector-curvature="0" />
      <path
         d="m 25.342104,291.44403 -0.789616,-1.58061 v 1.418 q 0,0.0565 0.01791,0.0813 0.01791,0.0234 0.07028,0.0372 v 0.0441 h -0.373449 v -0.0441 q 0.05237,-0.0138 0.07028,-0.0372 0.01792,-0.0234 0.01792,-0.0813 v -1.5558 q 0,-0.0579 -0.01792,-0.0813 -0.01791,-0.0248 -0.07028,-0.0372 v -0.0441 h 0.487826 v 0.0441 q -0.06752,0.0234 -0.06752,0.0579 0,0.0165 0.04547,0.10611 l 0.62563,1.24161 0.628385,-1.25263 q 0.03307,-0.0661 0.03307,-0.0937 0,-0.0358 -0.06752,-0.0593 v -0.0441 h 0.49196 v 0.0441 q -0.05237,0.0138 -0.07028,0.0372 -0.01792,0.0234 -0.01792,0.0813 v 1.5558 q 0,0.0565 0.01792,0.0813 0.01791,0.0234 0.07028,0.0372 v 0.0441 h -0.392741 v -0.0441 q 0.05374,-0.0138 0.07028,-0.0372 0.01791,-0.0234 0.01791,-0.0813 v -1.418 z"
         style="font-style:normal;font-variant:normal;font-weight:normal;font-stretch:normal;font-size:2.82222223px;line-height:1.25;font-family:'Copperplate Gothic Light';-inkscape-font-specification:'Copperplate Gothic Light, ';stroke:#000000;stroke-width:0.2;stroke-miterlimit:4;stroke-dasharray:none;stroke-opacity:1"
         id="path962"
         inkscape:connector-curvature="0" />
      <path
         d="m 26.942006,290.3857 h -0.201193 l 0.493338,-0.8282 h 0.243912 l 0.493338,0.8282 h -0.20395 l -0.413411,-0.68075 z"
         style="font-style:normal;font-variant:normal;font-weight:normal;font-stretch:normal;font-size:2.82222223px;line-height:1.25;font-family:'Copperplate Gothic Light';-inkscape-font-specification:'Copperplate Gothic Light, ';stroke:#000000;stroke-width:0.2;stroke-miterlimit:4;stroke-dasharray:none;stroke-opacity:1"
         id="path964"
         inkscape:connector-curvature="0" />
      <path
         d="m 28.617701,289.56301 v 0.0372 q -0.06615,0.011 -0.06615,0.0482 0,0.0234 0.07441,0.12402 l 1.092784,1.4621 q 0.129536,0.16536 0.22462,0.17088 v 0.0386 h -0.434082 v -0.0386 q 0.06615,-0.011 0.06615,-0.0469 0,-0.0207 -0.07579,-0.12402 l -1.080382,-1.46348 q -0.129535,-0.16536 -0.22462,-0.17087 v -0.0372 z"
         style="font-style:normal;font-variant:normal;font-weight:normal;font-stretch:normal;font-size:2.82222223px;line-height:1.25;font-family:'Copperplate Gothic Light';-inkscape-font-specification:'Copperplate Gothic Light, ';stroke:#000000;stroke-width:0.2;stroke-miterlimit:4;stroke-dasharray:none;stroke-opacity:1"
         id="path966"
         inkscape:connector-curvature="0" />
    </g>
    <rect
       transform="scale(1,-1)"
       y="-222.84578"
       x="3.175"
       height="10.512457"
       width="9.5249996"
       id="rect1094"
       style="fill:#b3b3b3;stroke-width:0.10070922" />
    <rect
       style="fill:#b3b3b3;stroke-width:0.10104816"
       id="rect1092"
       width="9.5249996"
       height="10.583333"
       x="3.175"
       y="-245.14165"
       transform="scale(1,-1)" />
    <rect
       transform="scale(1,-1)"
       y="-267.36664"
       x="3.175"
       height="10.583333"
       width="9.5249996"
       id="rect1090"
       style="fill:#b3b3b3;stroke-width:0.10104816" />
    <rect
       transform="scale(1,-1)"
       y="-278.47916"
       x="3.175"
       height="10.583334"
       width="9.5249996"
       id="rect899"
       style="fill:#b3b3b3;stroke-width:0.10104816" />
    <rect
       style="fill:#b3b3b3;stroke-width:0.10104816"
       id="rect901"
       width="9.5249996"
       height="10.583333"
       x="3.175"
       y="-211.80415"
       transform="scale(1,-1)" />
    <rect
       transform="scale(1,-1)"
       y="-234.02916"
       x="3.175"
       height="10.583333"
       width="9.5249996"
       id="rect903"
       style="fill:#b3b3b3;stroke-width:0.10104816" />
    <rect
       style="fill:#b3b3b3;stroke-width:0.10104813"
       id="rect905"
       width="9.5249996"
       height="10.583333"
       x="3.175"
       y="-256.25415"
       transform="scale(1,-1)" />
    <g
       aria-label="1"
       style="font-style:normal;font-variant:normal;font-weight:normal;font-stretch:normal;font-size:2.82222223px;line-height:1.25;font-family:'Yu Gothic UI';-inkscape-font-specification:'Yu Gothic UI';letter-spacing:0px;word-spacing:0px;fill:#000000;fill-opacity:1;stroke:none;stroke-width:0.26458332"
       id="text906"
       transform="translate(0.55810543,0.65230815)">
      <path
         d="M 5.0753144,203.07291 H 4.8493162 v -1.70739 q -0.026183,0.0262 -0.07717,0.0606 -0.049609,0.0331 -0.1129991,0.0661 -0.062012,0.0331 -0.1322917,0.062 -0.068902,0.0289 -0.1350477,0.0455 v -0.22875 q 0.074414,-0.0207 0.1570963,-0.0551 0.08406,-0.0358 0.1639866,-0.0786 0.081304,-0.0441 0.1529622,-0.0909 0.071658,-0.0482 0.1240235,-0.0937 h 0.085438 z"
         style="stroke-width:0.26458332"
         id="path957"
         inkscape:connector-curvature="0" />
    </g>
    <g
       aria-label="2"
       style="font-style:normal;font-variant:normal;font-weight:normal;font-stretch:normal;font-size:2.82222223px;line-height:1.25;font-family:'Yu Gothic UI';-inkscape-font-specification:'Yu Gothic UI';letter-spacing:0px;word-spacing:0px;fill:#000000;fill-opacity:1;stroke:none;stroke-width:0.26458332"
       id="text910"
       transform="translate(0.55810553,-0.16635742)">
      <path
         d="m 5.0374187,213.52119 q 0,-0.0909 -0.028939,-0.15847 -0.027561,-0.0675 -0.07717,-0.11162 -0.048231,-0.0455 -0.1143772,-0.0675 -0.066146,-0.0221 -0.143316,-0.0221 -0.066146,0 -0.1295356,0.0179 -0.06339,0.0179 -0.1240234,0.0496 -0.059256,0.0317 -0.1157552,0.0758 -0.055122,0.0441 -0.1033529,0.0978 v -0.24253 q 0.095085,-0.0923 0.2122179,-0.14056 0.1185113,-0.0496 0.28801,-0.0496 0.1212673,0 0.2246202,0.0358 0.1033529,0.0344 0.179145,0.10197 0.075792,0.0675 0.1185113,0.16674 0.044097,0.0992 0.044097,0.22738 0,0.11713 -0.027561,0.21222 -0.026183,0.0951 -0.081304,0.17914 -0.053743,0.0841 -0.1364258,0.16123 -0.082682,0.0772 -0.1943034,0.1571 -0.1391819,0.0992 -0.2301324,0.1695 -0.089573,0.0703 -0.143316,0.13229 -0.052365,0.0606 -0.074414,0.12264 -0.020671,0.0606 -0.020671,0.14056 h 0.9839193 v 0.20258 H 4.1237794 v -0.0978 q 0,-0.12678 0.027561,-0.22325 0.027561,-0.0965 0.090951,-0.18328 0.06339,-0.0868 0.1653645,-0.17363 0.1033529,-0.0868 0.252181,-0.19568 0.107487,-0.0772 0.179145,-0.14745 0.073036,-0.0703 0.1171332,-0.14056 0.044097,-0.0703 0.062012,-0.14194 0.019292,-0.073 0.019292,-0.15434 z"
         style="stroke-width:0.26458332"
         id="path954"
         inkscape:connector-curvature="0" />
    </g>
    <g
       aria-label="3"
       style="font-style:normal;font-variant:normal;font-weight:normal;font-stretch:normal;font-size:2.82222223px;line-height:1.25;font-family:'Yu Gothic UI';-inkscape-font-specification:'Yu Gothic UI';letter-spacing:0px;word-spacing:0px;fill:#000000;fill-opacity:1;stroke:none;stroke-width:0.26458332"
       id="text914"
       transform="translate(0.55810513,-0.97125896)">
      <path
         d="m 5.3054469,226.32592 q 0,0.13367 -0.050987,0.24392 -0.049609,0.10886 -0.1419379,0.18741 -0.09095,0.0772 -0.2191081,0.11989 -0.1281575,0.0427 -0.2824978,0.0427 -0.2824978,0 -0.4492405,-0.10749 v -0.24253 q 0.1998156,0.15709 0.4575087,0.15709 0.1033529,0 0.1860352,-0.0262 0.08406,-0.0262 0.1433159,-0.0758 0.060634,-0.0496 0.092329,-0.11989 0.033073,-0.0703 0.033073,-0.15848 0,-0.38723 -0.5512153,-0.38723 H 4.3587347 v -0.19154 H 4.514453 q 0.4878255,0 0.4878255,-0.3638 0,-0.33625 -0.3720703,-0.33625 -0.2094618,0 -0.3927409,0.14056 v -0.2191 q 0.1887913,-0.113 0.4492405,-0.113 0.1240234,0 0.2246202,0.0345 0.1005968,0.0344 0.1722548,0.0965 0.071658,0.062 0.110243,0.14883 0.039963,0.0868 0.039963,0.19155 0,0.38998 -0.394119,0.5016 v 0.006 q 0.1005968,0.011 0.1860352,0.0496 0.085438,0.0372 0.1474501,0.0978 0.062012,0.0606 0.096463,0.14332 0.035829,0.0813 0.035829,0.18052 z"
         style="stroke-width:0.26458332"
         id="path951"
         inkscape:connector-curvature="0" />
    </g>
    <g
       aria-label="4"
       style="font-style:normal;font-variant:normal;font-weight:normal;font-stretch:normal;font-size:2.82222223px;line-height:1.25;font-family:'Yu Gothic UI';-inkscape-font-specification:'Yu Gothic UI';letter-spacing:0px;word-spacing:0px;fill:#000000;fill-opacity:1;stroke:none;stroke-width:0.26458332"
       id="text918"
       transform="translate(0.55810513,-0.41306771)">
      <path
         d="m 5.1828018,235.49263 v 1.305 h 0.2535591 v 0.20671 H 5.1828018 v 0.46439 H 4.9595596 v -0.46439 H 4.0307619 v -0.19569 q 0.1295356,-0.14607 0.2618273,-0.31143 0.1322916,-0.16674 0.2521809,-0.33762 0.1212674,-0.17088 0.2232422,-0.34038 0.1033529,-0.17087 0.1736328,-0.32659 z m -0.8971028,1.305 h 0.6738606 v -0.96738 q -0.1033528,0.18052 -0.1956814,0.32246 -0.092328,0.14194 -0.1763889,0.25769 -0.082682,0.11576 -0.1584744,0.20946 -0.075792,0.0937 -0.1433159,0.17777 z"
         style="stroke-width:0.26458332"
         id="path948"
         inkscape:connector-curvature="0" />
    </g>
    <g
       aria-label="5"
       style="font-style:normal;font-variant:normal;font-weight:normal;font-stretch:normal;font-size:2.82222223px;line-height:1.25;font-family:'Yu Gothic UI';-inkscape-font-specification:'Yu Gothic UI';letter-spacing:0px;word-spacing:0px;fill:#000000;fill-opacity:1;stroke:none;stroke-width:0.26458332"
       id="text922"
       transform="translate(0.55810473,0.07256185)">
      <path
         d="m 5.2882216,247.44848 q 0,0.1447 -0.049609,0.26183 -0.049609,0.11713 -0.1419379,0.20119 -0.090951,0.0841 -0.2204862,0.12954 -0.1295355,0.0455 -0.2880099,0.0455 -0.2756077,0 -0.4092774,-0.0827 v -0.23978 q 0.2011936,0.12954 0.4120334,0.12954 0.107487,0 0.1929254,-0.0317 0.086816,-0.0317 0.1474501,-0.0882 0.060634,-0.0565 0.092328,-0.13643 0.033073,-0.0799 0.033073,-0.17501 0,-0.19292 -0.1295356,-0.30179 -0.1295356,-0.11024 -0.3762045,-0.11024 -0.039963,0 -0.08406,0.001 -0.044097,0.001 -0.088194,0.004 -0.044097,0.001 -0.086816,0.004 -0.041341,0.003 -0.075792,0.007 l 0.067524,-0.99081 h 0.913638 v 0.20395 H 4.4793131 l -0.039963,0.58015 q 0.044097,-0.003 0.093707,-0.004 0.049609,-0.003 0.088195,-0.003 0.1570963,0 0.2811198,0.0413 0.1240234,0.0413 0.2094618,0.11851 0.086816,0.0758 0.1309136,0.18742 0.045475,0.11024 0.045475,0.24804 z"
         style="stroke-width:0.26458332"
         id="path945"
         inkscape:connector-curvature="0" />
    </g>
    <g
       aria-label="6"
       style="font-style:normal;font-variant:normal;font-weight:normal;font-stretch:normal;font-size:2.82222223px;line-height:1.25;font-family:'Yu Gothic UI';-inkscape-font-specification:'Yu Gothic UI';letter-spacing:0px;word-spacing:0px;fill:#000000;fill-opacity:1;stroke:none;stroke-width:0.26458332"
       id="text926"
       transform="translate(0.55810503,-0.7256185)">
      <path
         d="m 5.3612576,259.33131 q 0,0.14469 -0.046853,0.26596 -0.046853,0.12126 -0.1295356,0.20946 -0.082682,0.0882 -0.1970595,0.1378 -0.1143771,0.0482 -0.2480468,0.0482 -0.1488282,0 -0.2673394,-0.062 -0.1171333,-0.062 -0.1998156,-0.17776 -0.081304,-0.11714 -0.1240234,-0.28526 -0.042719,-0.16812 -0.042719,-0.37896 0,-0.25769 0.0565,-0.46715 0.057878,-0.21084 0.1626085,-0.35967 0.1061089,-0.15021 0.254937,-0.23151 0.1488282,-0.0813 0.3321072,-0.0813 0.2039497,0 0.3279731,0.0565 v 0.2136 q -0.1529622,-0.0786 -0.3224609,-0.0786 -0.1322917,0 -0.2384006,0.0593 -0.106109,0.0592 -0.1819011,0.16812 -0.075792,0.10748 -0.1171332,0.26045 -0.039963,0.15296 -0.039963,0.34037 h 0.00551 q 0.1364258,-0.24667 0.4506185,-0.24667 0.1295356,0 0.2328885,0.0441 0.1047309,0.0441 0.1777669,0.1254 0.074414,0.0799 0.1143772,0.19155 0.039963,0.11162 0.039963,0.24805 z m -0.2315104,0.0289 q 0,-0.10335 -0.026183,-0.18603 -0.026183,-0.0827 -0.075792,-0.14056 -0.048231,-0.0579 -0.1198894,-0.0882 -0.071658,-0.0317 -0.1626085,-0.0317 -0.08406,0 -0.1557183,0.0317 -0.071658,0.0317 -0.1240234,0.0868 -0.052366,0.0537 -0.082682,0.12678 -0.028939,0.0717 -0.028939,0.15296 0,0.10198 0.028939,0.19155 0.028939,0.0882 0.081304,0.15434 0.052366,0.0661 0.1240235,0.10473 0.073036,0.0372 0.1612304,0.0372 0.085438,0 0.1557184,-0.0317 0.07028,-0.0331 0.1198893,-0.091 0.049609,-0.0579 0.07717,-0.1378 0.027561,-0.0813 0.027561,-0.17915 z"
         style="stroke-width:0.26458332"
         id="path942"
         inkscape:connector-curvature="0" />
    </g>
    <g
       aria-label="7"
       style="font-style:normal;font-variant:normal;font-weight:normal;font-stretch:normal;font-size:2.82222223px;line-height:1.25;font-family:'Yu Gothic UI';-inkscape-font-specification:'Yu Gothic UI';letter-spacing:0px;word-spacing:0px;fill:#000000;fill-opacity:1;stroke:none;stroke-width:0.26458332"
       id="text930"
       transform="translate(0.55810533,-1.4859132)">
      <path
         d="m 5.3619466,270.01937 q -0.045475,0.0786 -0.110243,0.19568 -0.06339,0.11713 -0.1350478,0.26321 -0.071658,0.14607 -0.146072,0.31419 -0.074414,0.16812 -0.1391819,0.34726 -0.064768,0.17915 -0.1143771,0.36381 -0.048231,0.18328 -0.07028,0.36104 H 4.4042101 q 0.024805,-0.17639 0.075792,-0.35966 0.052365,-0.18466 0.1171332,-0.36105 0.066146,-0.17777 0.1391819,-0.34175 0.073036,-0.16399 0.1419379,-0.30179 0.068902,-0.13781 0.1254015,-0.24254 0.057878,-0.10611 0.092329,-0.16536 H 4.1051758 v -0.20395 h 1.2567708 z"
         style="stroke-width:0.26458332"
         id="path939"
         inkscape:connector-curvature="0" />
    </g>
    <g
       aria-label="8"
       style="font-style:normal;font-variant:normal;font-weight:normal;font-stretch:normal;font-size:2.82222223px;line-height:1.25;font-family:'Yu Gothic UI';-inkscape-font-specification:'Yu Gothic UI';letter-spacing:0px;word-spacing:0px;fill:#000000;fill-opacity:1;stroke:none;stroke-width:0.26458332"
       id="text934"
       transform="translate(0.55810513,-0.98577133)">
      <path
         d="m 4.0927734,281.89669 q 0,-0.0785 0.024805,-0.1571 0.024805,-0.0799 0.07028,-0.14882 0.046853,-0.0689 0.1143771,-0.1254 0.068902,-0.0565 0.1557184,-0.0896 -0.1281576,-0.0717 -0.2039497,-0.18328 -0.075792,-0.113 -0.075792,-0.24942 0,-0.10887 0.041341,-0.20119 0.042719,-0.0923 0.1171332,-0.15986 0.074414,-0.0675 0.1763889,-0.10473 0.1019748,-0.0386 0.2204861,-0.0386 0.1198893,0 0.2218642,0.0386 0.1019748,0.0386 0.1763888,0.10611 0.074414,0.0675 0.1157552,0.15985 0.041341,0.0923 0.041341,0.19982 0,0.13642 -0.075792,0.24942 -0.075792,0.11162 -0.2011936,0.18328 0.085438,0.0331 0.1529623,0.0896 0.067524,0.0565 0.1129991,0.1254 0.046853,0.0689 0.071658,0.14882 0.024805,0.0786 0.024805,0.1571 0,0.12954 -0.046853,0.23702 -0.046853,0.10749 -0.1322917,0.18466 -0.08406,0.0758 -0.2025716,0.11851 -0.1171333,0.0427 -0.2590712,0.0427 -0.1405599,0 -0.2576931,-0.0427 -0.1171333,-0.0427 -0.2025717,-0.11851 -0.085438,-0.0772 -0.1336697,-0.18466 -0.046853,-0.10748 -0.046854,-0.23702 z m 0.2452908,-0.0193 q 0,0.0923 0.027561,0.16674 0.028939,0.0744 0.079926,0.12678 0.052366,0.0524 0.1254015,0.0813 0.074414,0.0276 0.1639865,0.0276 0.086816,0 0.1598525,-0.0289 0.073036,-0.0289 0.1254014,-0.0813 0.053743,-0.0524 0.082682,-0.12678 0.030317,-0.0744 0.030317,-0.16536 0,-0.0827 -0.028939,-0.15434 -0.027561,-0.073 -0.079926,-0.12816 -0.052366,-0.0551 -0.1254015,-0.0868 -0.073036,-0.0317 -0.1639866,-0.0317 -0.085438,0 -0.1584744,0.0303 -0.071658,0.0289 -0.1254014,0.0827 -0.052365,0.0524 -0.082682,0.12678 -0.030317,0.073 -0.030317,0.16123 z m 0.07028,-0.9164 q 0,0.0703 0.024805,0.13092 0.026183,0.0592 0.07028,0.10473 0.045475,0.0441 0.1047309,0.0703 0.059256,0.0248 0.1267795,0.0248 0.067524,0 0.1267796,-0.0262 0.060634,-0.0262 0.1047309,-0.0703 0.044097,-0.0455 0.07028,-0.10473 0.026183,-0.0606 0.026183,-0.12954 0,-0.0717 -0.026183,-0.13229 -0.024805,-0.0606 -0.068902,-0.10473 -0.044097,-0.0441 -0.1047309,-0.0689 -0.059256,-0.0262 -0.1281576,-0.0262 -0.073036,0 -0.1336697,0.0262 -0.059256,0.0262 -0.1033528,0.0717 -0.042719,0.0441 -0.066146,0.10473 -0.023427,0.0606 -0.023427,0.12953 z"
         style="stroke-width:0.26458332"
         id="path936"
         inkscape:connector-curvature="0" />
    </g>
    <rect
       transform="scale(1,-1)"
       y="-289.59164"
       x="19.049999"
       height="10.583333"
       width="9.5250006"
       id="rect945"
       style="fill:#b3b3b3;stroke-width:0.10104816" />
    <rect
       style="fill:#b3b3b3;stroke-width:0.10070923"
       id="rect947"
       width="9.5250006"
       height="10.512457"
       x="19.049999"
       y="-222.84578"
       transform="scale(1,-1)" />
    <rect
       transform="scale(1,-1)"
       y="-245.14165"
       x="19.049999"
       height="10.583333"
       width="9.5250006"
       id="rect949"
       style="fill:#b3b3b3;stroke-width:0.10104816" />
    <rect
       style="fill:#b3b3b3;stroke-width:0.10104817"
       id="rect951"
       width="9.5250006"
       height="10.583333"
       x="19.049999"
       y="-267.36664"
       transform="scale(1,-1)" />
    <rect
       style="fill:#b3b3b3;stroke-width:0.10104816"
       id="rect953"
       width="9.5250006"
       height="10.583334"
       x="19.049999"
       y="-278.47916"
       transform="scale(1,-1)" />
    <rect
       transform="scale(1,-1)"
       y="-211.80415"
       x="19.049999"
       height="10.583333"
       width="9.5250006"
       id="rect955"
       style="fill:#b3b3b3;stroke-width:0.10104816" />
    <rect
       style="fill:#b3b3b3;stroke-width:0.10104816"
       id="rect957"
       width="9.5250006"
       height="10.583333"
       x="19.049999"
       y="-234.02916"
       transform="scale(1,-1)" />
    <rect
       transform="scale(1,-1)"
       y="-256.25415"
       x="19.049999"
       height="10.583333"
       width="9.5250006"
       id="rect959"
       style="fill:#b3b3b3;stroke-width:0.10104814" />
    <g
       transform="translate(16.433105,0.65230815)"
       id="g971"
       style="font-style:normal;font-variant:normal;font-weight:normal;font-stretch:normal;font-size:2.82222223px;line-height:1.25;font-family:'Yu Gothic UI';-inkscape-font-specification:'Yu Gothic UI';letter-spacing:0px;word-spacing:0px;fill:#000000;fill-opacity:1;stroke:none;stroke-width:0.26458332"
       aria-label="1">
      <path
         inkscape:connector-curvature="0"
         id="path969"
         style="stroke-width:0.26458332"
         d="M 5.0753144,203.07291 H 4.8493162 v -1.70739 q -0.026183,0.0262 -0.07717,0.0606 -0.049609,0.0331 -0.1129991,0.0661 -0.062012,0.0331 -0.1322917,0.062 -0.068902,0.0289 -0.1350477,0.0455 v -0.22875 q 0.074414,-0.0207 0.1570963,-0.0551 0.08406,-0.0358 0.1639866,-0.0786 0.081304,-0.0441 0.1529622,-0.0909 0.071658,-0.0482 0.1240235,-0.0937 h 0.085438 z" />
    </g>
    <g
       transform="translate(16.433105,-0.16635742)"
       id="g975"
       style="font-style:normal;font-variant:normal;font-weight:normal;font-stretch:normal;font-size:2.82222223px;line-height:1.25;font-family:'Yu Gothic UI';-inkscape-font-specification:'Yu Gothic UI';letter-spacing:0px;word-spacing:0px;fill:#000000;fill-opacity:1;stroke:none;stroke-width:0.26458332"
       aria-label="2">
      <path
         inkscape:connector-curvature="0"
         id="path973"
         style="stroke-width:0.26458332"
         d="m 5.0374187,213.52119 q 0,-0.0909 -0.028939,-0.15847 -0.027561,-0.0675 -0.07717,-0.11162 -0.048231,-0.0455 -0.1143772,-0.0675 -0.066146,-0.0221 -0.143316,-0.0221 -0.066146,0 -0.1295356,0.0179 -0.06339,0.0179 -0.1240234,0.0496 -0.059256,0.0317 -0.1157552,0.0758 -0.055122,0.0441 -0.1033529,0.0978 v -0.24253 q 0.095085,-0.0923 0.2122179,-0.14056 0.1185113,-0.0496 0.28801,-0.0496 0.1212673,0 0.2246202,0.0358 0.1033529,0.0344 0.179145,0.10197 0.075792,0.0675 0.1185113,0.16674 0.044097,0.0992 0.044097,0.22738 0,0.11713 -0.027561,0.21222 -0.026183,0.0951 -0.081304,0.17914 -0.053743,0.0841 -0.1364258,0.16123 -0.082682,0.0772 -0.1943034,0.1571 -0.1391819,0.0992 -0.2301324,0.1695 -0.089573,0.0703 -0.143316,0.13229 -0.052365,0.0606 -0.074414,0.12264 -0.020671,0.0606 -0.020671,0.14056 h 0.9839193 v 0.20258 H 4.1237794 v -0.0978 q 0,-0.12678 0.027561,-0.22325 0.027561,-0.0965 0.090951,-0.18328 0.06339,-0.0868 0.1653645,-0.17363 0.1033529,-0.0868 0.252181,-0.19568 0.107487,-0.0772 0.179145,-0.14745 0.073036,-0.0703 0.1171332,-0.14056 0.044097,-0.0703 0.062012,-0.14194 0.019292,-0.073 0.019292,-0.15434 z" />
    </g>
    <g
       transform="translate(16.433105,-0.97125896)"
       id="g979"
       style="font-style:normal;font-variant:normal;font-weight:normal;font-stretch:normal;font-size:2.82222223px;line-height:1.25;font-family:'Yu Gothic UI';-inkscape-font-specification:'Yu Gothic UI';letter-spacing:0px;word-spacing:0px;fill:#000000;fill-opacity:1;stroke:none;stroke-width:0.26458332"
       aria-label="3">
      <path
         inkscape:connector-curvature="0"
         id="path977"
         style="stroke-width:0.26458332"
         d="m 5.3054469,226.32592 q 0,0.13367 -0.050987,0.24392 -0.049609,0.10886 -0.1419379,0.18741 -0.09095,0.0772 -0.2191081,0.11989 -0.1281575,0.0427 -0.2824978,0.0427 -0.2824978,0 -0.4492405,-0.10749 v -0.24253 q 0.1998156,0.15709 0.4575087,0.15709 0.1033529,0 0.1860352,-0.0262 0.08406,-0.0262 0.1433159,-0.0758 0.060634,-0.0496 0.092329,-0.11989 0.033073,-0.0703 0.033073,-0.15848 0,-0.38723 -0.5512153,-0.38723 H 4.3587347 v -0.19154 H 4.514453 q 0.4878255,0 0.4878255,-0.3638 0,-0.33625 -0.3720703,-0.33625 -0.2094618,0 -0.3927409,0.14056 v -0.2191 q 0.1887913,-0.113 0.4492405,-0.113 0.1240234,0 0.2246202,0.0345 0.1005968,0.0344 0.1722548,0.0965 0.071658,0.062 0.110243,0.14883 0.039963,0.0868 0.039963,0.19155 0,0.38998 -0.394119,0.5016 v 0.006 q 0.1005968,0.011 0.1860352,0.0496 0.085438,0.0372 0.1474501,0.0978 0.062012,0.0606 0.096463,0.14332 0.035829,0.0813 0.035829,0.18052 z" />
    </g>
    <g
       transform="translate(16.433105,-0.41306771)"
       id="g983"
       style="font-style:normal;font-variant:normal;font-weight:normal;font-stretch:normal;font-size:2.82222223px;line-height:1.25;font-family:'Yu Gothic UI';-inkscape-font-specification:'Yu Gothic UI';letter-spacing:0px;word-spacing:0px;fill:#000000;fill-opacity:1;stroke:none;stroke-width:0.26458332"
       aria-label="4">
      <path
         inkscape:connector-curvature="0"
         id="path981"
         style="stroke-width:0.26458332"
         d="m 5.1828018,235.49263 v 1.305 h 0.2535591 v 0.20671 H 5.1828018 v 0.46439 H 4.9595596 v -0.46439 H 4.0307619 v -0.19569 q 0.1295356,-0.14607 0.2618273,-0.31143 0.1322916,-0.16674 0.2521809,-0.33762 0.1212674,-0.17088 0.2232422,-0.34038 0.1033529,-0.17087 0.1736328,-0.32659 z m -0.8971028,1.305 h 0.6738606 v -0.96738 q -0.1033528,0.18052 -0.1956814,0.32246 -0.092328,0.14194 -0.1763889,0.25769 -0.082682,0.11576 -0.1584744,0.20946 -0.075792,0.0937 -0.1433159,0.17777 z" />
    </g>
    <g
       transform="translate(16.433104,0.07256185)"
       id="g987"
       style="font-style:normal;font-variant:normal;font-weight:normal;font-stretch:normal;font-size:2.82222223px;line-height:1.25;font-family:'Yu Gothic UI';-inkscape-font-specification:'Yu Gothic UI';letter-spacing:0px;word-spacing:0px;fill:#000000;fill-opacity:1;stroke:none;stroke-width:0.26458332"
       aria-label="5">
      <path
         inkscape:connector-curvature="0"
         id="path985"
         style="stroke-width:0.26458332"
         d="m 5.2882216,247.44848 q 0,0.1447 -0.049609,0.26183 -0.049609,0.11713 -0.1419379,0.20119 -0.090951,0.0841 -0.2204862,0.12954 -0.1295355,0.0455 -0.2880099,0.0455 -0.2756077,0 -0.4092774,-0.0827 v -0.23978 q 0.2011936,0.12954 0.4120334,0.12954 0.107487,0 0.1929254,-0.0317 0.086816,-0.0317 0.1474501,-0.0882 0.060634,-0.0565 0.092328,-0.13643 0.033073,-0.0799 0.033073,-0.17501 0,-0.19292 -0.1295356,-0.30179 -0.1295356,-0.11024 -0.3762045,-0.11024 -0.039963,0 -0.08406,0.001 -0.044097,0.001 -0.088194,0.004 -0.044097,0.001 -0.086816,0.004 -0.041341,0.003 -0.075792,0.007 l 0.067524,-0.99081 h 0.913638 v 0.20395 H 4.4793131 l -0.039963,0.58015 q 0.044097,-0.003 0.093707,-0.004 0.049609,-0.003 0.088195,-0.003 0.1570963,0 0.2811198,0.0413 0.1240234,0.0413 0.2094618,0.11851 0.086816,0.0758 0.1309136,0.18742 0.045475,0.11024 0.045475,0.24804 z" />
    </g>
    <g
       transform="translate(16.433104,-0.7256185)"
       id="g991"
       style="font-style:normal;font-variant:normal;font-weight:normal;font-stretch:normal;font-size:2.82222223px;line-height:1.25;font-family:'Yu Gothic UI';-inkscape-font-specification:'Yu Gothic UI';letter-spacing:0px;word-spacing:0px;fill:#000000;fill-opacity:1;stroke:none;stroke-width:0.26458332"
       aria-label="6">
      <path
         inkscape:connector-curvature="0"
         id="path989"
         style="stroke-width:0.26458332"
         d="m 5.3612576,259.33131 q 0,0.14469 -0.046853,0.26596 -0.046853,0.12126 -0.1295356,0.20946 -0.082682,0.0882 -0.1970595,0.1378 -0.1143771,0.0482 -0.2480468,0.0482 -0.1488282,0 -0.2673394,-0.062 -0.1171333,-0.062 -0.1998156,-0.17776 -0.081304,-0.11714 -0.1240234,-0.28526 -0.042719,-0.16812 -0.042719,-0.37896 0,-0.25769 0.0565,-0.46715 0.057878,-0.21084 0.1626085,-0.35967 0.1061089,-0.15021 0.254937,-0.23151 0.1488282,-0.0813 0.3321072,-0.0813 0.2039497,0 0.3279731,0.0565 v 0.2136 q -0.1529622,-0.0786 -0.3224609,-0.0786 -0.1322917,0 -0.2384006,0.0593 -0.106109,0.0592 -0.1819011,0.16812 -0.075792,0.10748 -0.1171332,0.26045 -0.039963,0.15296 -0.039963,0.34037 h 0.00551 q 0.1364258,-0.24667 0.4506185,-0.24667 0.1295356,0 0.2328885,0.0441 0.1047309,0.0441 0.1777669,0.1254 0.074414,0.0799 0.1143772,0.19155 0.039963,0.11162 0.039963,0.24805 z m -0.2315104,0.0289 q 0,-0.10335 -0.026183,-0.18603 -0.026183,-0.0827 -0.075792,-0.14056 -0.048231,-0.0579 -0.1198894,-0.0882 -0.071658,-0.0317 -0.1626085,-0.0317 -0.08406,0 -0.1557183,0.0317 -0.071658,0.0317 -0.1240234,0.0868 -0.052366,0.0537 -0.082682,0.12678 -0.028939,0.0717 -0.028939,0.15296 0,0.10198 0.028939,0.19155 0.028939,0.0882 0.081304,0.15434 0.052366,0.0661 0.1240235,0.10473 0.073036,0.0372 0.1612304,0.0372 0.085438,0 0.1557184,-0.0317 0.07028,-0.0331 0.1198893,-0.091 0.049609,-0.0579 0.07717,-0.1378 0.027561,-0.0813 0.027561,-0.17915 z" />
    </g>
    <g
       transform="translate(16.433105,-1.4859132)"
       id="g995"
       style="font-style:normal;font-variant:normal;font-weight:normal;font-stretch:normal;font-size:2.82222223px;line-height:1.25;font-family:'Yu Gothic UI';-inkscape-font-specification:'Yu Gothic UI';letter-spacing:0px;word-spacing:0px;fill:#000000;fill-opacity:1;stroke:none;stroke-width:0.26458332"
       aria-label="7">
      <path
         inkscape:connector-curvature="0"
         id="path993"
         style="stroke-width:0.26458332"
         d="m 5.3619466,270.01937 q -0.045475,0.0786 -0.110243,0.19568 -0.06339,0.11713 -0.1350478,0.26321 -0.071658,0.14607 -0.146072,0.31419 -0.074414,0.16812 -0.1391819,0.34726 -0.064768,0.17915 -0.1143771,0.36381 -0.048231,0.18328 -0.07028,0.36104 H 4.4042101 q 0.024805,-0.17639 0.075792,-0.35966 0.052365,-0.18466 0.1171332,-0.36105 0.066146,-0.17777 0.1391819,-0.34175 0.073036,-0.16399 0.1419379,-0.30179 0.068902,-0.13781 0.1254015,-0.24254 0.057878,-0.10611 0.092329,-0.16536 H 4.1051758 v -0.20395 h 1.2567708 z" />
    </g>
    <g
       transform="translate(16.433105,-0.98577133)"
       id="g999"
       style="font-style:normal;font-variant:normal;font-weight:normal;font-stretch:normal;font-size:2.82222223px;line-height:1.25;font-family:'Yu Gothic UI';-inkscape-font-specification:'Yu Gothic UI';letter-spacing:0px;word-spacing:0px;fill:#000000;fill-opacity:1;stroke:none;stroke-width:0.26458332"
       aria-label="8">
      <path
         inkscape:connector-curvature="0"
         id="path997"
         style="stroke-width:0.26458332"
         d="m 4.0927734,281.89669 q 0,-0.0785 0.024805,-0.1571 0.024805,-0.0799 0.07028,-0.14882 0.046853,-0.0689 0.1143771,-0.1254 0.068902,-0.0565 0.1557184,-0.0896 -0.1281576,-0.0717 -0.2039497,-0.18328 -0.075792,-0.113 -0.075792,-0.24942 0,-0.10887 0.041341,-0.20119 0.042719,-0.0923 0.1171332,-0.15986 0.074414,-0.0675 0.1763889,-0.10473 0.1019748,-0.0386 0.2204861,-0.0386 0.1198893,0 0.2218642,0.0386 0.1019748,0.0386 0.1763888,0.10611 0.074414,0.0675 0.1157552,0.15985 0.041341,0.0923 0.041341,0.19982 0,0.13642 -0.075792,0.24942 -0.075792,0.11162 -0.2011936,0.18328 0.085438,0.0331 0.1529623,0.0896 0.067524,0.0565 0.1129991,0.1254 0.046853,0.0689 0.071658,0.14882 0.024805,0.0786 0.024805,0.1571 0,0.12954 -0.046853,0.23702 -0.046853,0.10749 -0.1322917,0.18466 -0.08406,0.0758 -0.2025716,0.11851 -0.1171333,0.0427 -0.2590712,0.0427 -0.1405599,0 -0.2576931,-0.0427 -0.1171333,-0.0427 -0.2025717,-0.11851 -0.085438,-0.0772 -0.1336697,-0.18466 -0.046853,-0.10748 -0.046854,-0.23702 z m 0.2452908,-0.0193 q 0,0.0923 0.027561,0.16674 0.028939,0.0744 0.079926,0.12678 0.052366,0.0524 0.1254015,0.0813 0.074414,0.0276 0.1639865,0.0276 0.086816,0 0.1598525,-0.0289 0.073036,-0.0289 0.1254014,-0.0813 0.053743,-0.0524 0.082682,-0.12678 0.030317,-0.0744 0.030317,-0.16536 0,-0.0827 -0.028939,-0.15434 -0.027561,-0.073 -0.079926,-0.12816 -0.052366,-0.0551 -0.1254015,-0.0868 -0.073036,-0.0317 -0.1639866,-0.0317 -0.085438,0 -0.1584744,0.0303 -0.071658,0.0289 -0.1254014,0.0827 -0.052365,0.0524 -0.082682,0.12678 -0.030317,0.073 -0.030317,0.16123 z m 0.07028,-0.9164 q 0,0.0703 0.024805,0.13092 0.026183,0.0592 0.07028,0.10473 0.045475,0.0441 0.1047309,0.0703 0.059256,0.0248 0.1267795,0.0248 0.067524,0 0.1267796,-0.0262 0.060634,-0.0262 0.1047309,-0.0703 0.044097,-0.0455 0.07028,-0.10473 0.026183,-0.0606 0.026183,-0.12954 0,-0.0717 -0.026183,-0.13229 -0.024805,-0.0606 -0.068902,-0.10473 -0.044097,-0.0441 -0.1047309,-0.0689 -0.059256,-0.0262 -0.1281576,-0.0262 -0.073036,0 -0.1336697,0.0262 -0.059256,0.0262 -0.1033528,0.0717 -0.042719,0.0441 -0.066146,0.10473 -0.023427,0.0606 -0.023427,0.12953 z" />
    </g>
    <path
       style="fill:none;stroke:#000000;stroke-width:0.26458332px;stroke-linecap:butt;stroke-linejoin:miter;stroke-opacity:1"
       d="m 15.875,201.74999 v 87.3125"
       id="path1013"
       inkscape:connector-curvature="0" />
    <g
       transform="translate(-12.778549,1.1022582)"
       id="g1017"
       style="font-style:normal;font-variant:normal;font-weight:normal;font-stretch:normal;font-size:3.52777767px;line-height:1.25;font-family:'Yu Gothic UI';-inkscape-font-specification:'Yu Gothic UI';letter-spacing:0px;word-spacing:0px;display:inline;fill:#000000;fill-opacity:1;stroke:none;stroke-width:0.26458332"
       aria-label="A">
      <path
         inkscape:connector-curvature="0"
         id="path1015"
         style="font-size:3.52777767px;stroke-width:0.26458332"
         d="m 15.465033,203.07291 h -0.320394 l -0.261827,-0.69247 h -1.047309 l -0.246325,0.69247 h -0.322116 l 0.947401,-2.47014 h 0.299724 z m -0.676961,-0.95257 -0.387574,-1.05248 q -0.01895,-0.0517 -0.0379,-0.16536 h -0.0069 q -0.01722,0.10507 -0.03962,0.16536 l -0.384129,1.05248 z" />
    </g>
    <g
       transform="translate(-13.751966,1.1022082)"
       id="g1021"
       style="font-style:normal;font-variant:normal;font-weight:normal;font-stretch:normal;font-size:3.52777767px;line-height:1.25;font-family:'Yu Gothic UI';-inkscape-font-specification:'Yu Gothic UI';letter-spacing:0px;word-spacing:0px;display:inline;fill:#000000;fill-opacity:1;stroke:none;stroke-width:0.26458332"
       aria-label="B">
      <path
         inkscape:connector-curvature="0"
         id="path1019"
         style="font-size:3.52777767px;stroke-width:0.26458332"
         d="m 30.750921,203.07291 v -2.47014 h 0.702799 q 0.320394,0 0.508152,0.15675 0.187758,0.15676 0.187758,0.40825 0,0.21015 -0.113688,0.36518 -0.113689,0.15503 -0.313504,0.22048 v 0.007 q 0.249769,0.0293 0.399631,0.18948 0.149862,0.15847 0.149862,0.41341 0,0.31695 -0.227377,0.51332 -0.227376,0.19637 -0.573608,0.19637 z m 0.289388,-2.20831 v 0.79754 h 0.296278 q 0.237712,0 0.373793,-0.11369 0.136081,-0.11541 0.136081,-0.32384 0,-0.36001 -0.4737,-0.36001 z m 0,1.05764 v 0.88884 h 0.392741 q 0.254937,0 0.394463,-0.12058 0.141249,-0.12058 0.141249,-0.33073 0,-0.43753 -0.596001,-0.43753 z" />
    </g>
    <g
       aria-label="OCTET SEQ. GX"
       transform="matrix(0.96281325,0,0,1.038623,0.52916667,0)"
       style="font-style:normal;font-variant:normal;font-weight:600;font-stretch:normal;font-size:3.39659119px;line-height:1.25;font-family:'Yu Gothic UI';-inkscape-font-specification:'Yu Gothic UI Semi-Bold';letter-spacing:0px;word-spacing:0px;fill:#000000;fill-opacity:1;stroke:none;stroke-width:0.25474435"
       id="text944">
      <path
         d="m 9.3768196,192.62953 q -0.5141324,0 -0.8242704,-0.33336 -0.3084795,-0.33336 -0.3084795,-0.86739 0,-0.57384 0.3151135,-0.91549 0.3151134,-0.34165 0.8557817,-0.34165 0.5008645,0 0.8060271,0.3317 0.306821,0.3317 0.306821,0.86739 0,0.58213 -0.313455,0.92046 -0.313455,0.33834 -0.8375384,0.33834 z m 0.018243,-2.11126 q -0.3267229,0 -0.5323758,0.24379 -0.2039945,0.2438 -0.2039945,0.64184 0,0.39638 0.199019,0.63852 0.199019,0.24214 0.5207664,0.24214 0.3416493,0 0.5390098,-0.23053 0.1973605,-0.23053 0.1973605,-0.64515 0,-0.42624 -0.192385,-0.65843 -0.1907265,-0.23218 -0.5274004,-0.23218 z"
         style="font-style:normal;font-variant:normal;font-weight:600;font-stretch:normal;font-size:3.39659119px;font-family:'Yu Gothic UI';-inkscape-font-specification:'Yu Gothic UI Semi-Bold';stroke-width:0.25474435"
         id="path946"
         inkscape:connector-curvature="0" />
      <path
         d="m 12.622488,192.49021 q -0.268676,0.13932 -0.668372,0.13932 -0.517449,0 -0.829246,-0.32673 -0.311796,-0.32672 -0.311796,-0.85744 0,-0.57052 0.349941,-0.92212 0.351601,-0.3516 0.887293,-0.3516 0.344967,0 0.57218,0.0978 v 0.39141 q -0.240481,-0.14263 -0.530717,-0.14263 -0.386429,0 -0.62691,0.24711 -0.238823,0.24712 -0.238823,0.66008 0,0.39306 0.223896,0.62691 0.223897,0.23219 0.588765,0.23219 0.336674,0 0.583789,-0.15922 z"
         style="font-style:normal;font-variant:normal;font-weight:600;font-stretch:normal;font-size:3.39659119px;font-family:'Yu Gothic UI';-inkscape-font-specification:'Yu Gothic UI Semi-Bold';stroke-width:0.25474435"
         id="path949"
         inkscape:connector-curvature="0" />
      <path
         d="m 14.59941,190.54646 h -0.683299 v 2.04326 H 13.52139 v -2.04326 h -0.68164 v -0.33502 h 1.75966 z"
         style="font-style:normal;font-variant:normal;font-weight:600;font-stretch:normal;font-size:3.39659119px;font-family:'Yu Gothic UI';-inkscape-font-specification:'Yu Gothic UI Semi-Bold';stroke-width:0.25474435"
         id="path952"
         inkscape:connector-curvature="0" />
      <path
         d="M 16.286096,192.58972 H 14.95101 v -2.37828 h 1.282015 v 0.33502 h -0.887294 v 0.67335 h 0.817637 v 0.33335 h -0.817637 v 0.7032 h 0.940365 z"
         style="font-style:normal;font-variant:normal;font-weight:600;font-stretch:normal;font-size:3.39659119px;font-family:'Yu Gothic UI';-inkscape-font-specification:'Yu Gothic UI Semi-Bold';stroke-width:0.25474435"
         id="path955"
         inkscape:connector-curvature="0" />
      <path
         d="m 18.234824,190.54646 h -0.683298 v 2.04326 h -0.394721 v -2.04326 h -0.681641 v -0.33502 h 1.75966 z"
         style="font-style:normal;font-variant:normal;font-weight:600;font-stretch:normal;font-size:3.39659119px;font-family:'Yu Gothic UI';-inkscape-font-specification:'Yu Gothic UI Semi-Bold';stroke-width:0.25474435"
         id="path959"
         inkscape:connector-curvature="0" />
      <path
         d="m 19.412354,192.49519 v -0.40633 q 0.05473,0.0497 0.129362,0.0896 0.07629,0.0398 0.160874,0.068 0.08458,0.0265 0.169166,0.0415 0.08458,0.0149 0.155898,0.0149 0.248774,0 0.369844,-0.0829 0.122728,-0.0829 0.122728,-0.24048 0,-0.0846 -0.04146,-0.14595 -0.0398,-0.063 -0.112778,-0.11444 -0.07297,-0.0514 -0.172483,-0.0978 -0.09785,-0.0481 -0.210628,-0.0995 -0.12107,-0.0647 -0.225555,-0.13102 -0.104485,-0.0663 -0.182434,-0.14595 -0.07629,-0.0813 -0.12107,-0.18243 -0.04312,-0.10117 -0.04312,-0.23716 0,-0.16751 0.07463,-0.29024 0.07629,-0.12439 0.199019,-0.20399 0.124387,-0.0813 0.281944,-0.11942 0.157557,-0.0398 0.321747,-0.0398 0.373161,0 0.543986,0.0846 v 0.38975 q -0.202336,-0.14595 -0.520767,-0.14595 -0.0879,0 -0.1758,0.0166 -0.08624,0.0166 -0.155898,0.0547 -0.068,0.0381 -0.111119,0.0978 -0.04312,0.0597 -0.04312,0.14429 0,0.0796 0.03317,0.13765 0.03317,0.058 0.09619,0.10615 0.06468,0.0481 0.155899,0.0945 0.09287,0.0448 0.213945,0.0978 0.124387,0.0647 0.233847,0.136 0.111119,0.0713 0.194044,0.15755 0.08458,0.0862 0.132679,0.19239 0.04976,0.10448 0.04976,0.23882 0,0.18078 -0.07297,0.30516 -0.07297,0.12439 -0.19736,0.20234 -0.122729,0.0779 -0.283602,0.11278 -0.160874,0.0348 -0.339991,0.0348 -0.05971,0 -0.147606,-0.01 -0.08624,-0.008 -0.177458,-0.0265 -0.09122,-0.0166 -0.172484,-0.0415 -0.08127,-0.0249 -0.13102,-0.0564 z"
         style="font-style:normal;font-variant:normal;font-weight:600;font-stretch:normal;font-size:3.39659119px;font-family:'Yu Gothic UI';-inkscape-font-specification:'Yu Gothic UI Semi-Bold';stroke-width:0.25474435"
         id="path961"
         inkscape:connector-curvature="0" />
      <path
         d="m 22.707777,192.58972 h -1.335086 v -2.37828 h 1.282014 v 0.33502 h -0.887293 v 0.67335 h 0.817636 v 0.33335 h -0.817636 v 0.7032 h 0.940365 z"
         style="font-style:normal;font-variant:normal;font-weight:600;font-stretch:normal;font-size:3.39659119px;font-family:'Yu Gothic UI';-inkscape-font-specification:'Yu Gothic UI Semi-Bold';stroke-width:0.25474435"
         id="path963"
         inkscape:connector-curvature="0" />
      <path
         d="m 24.110861,192.62953 q -0.257066,0 -0.466036,-0.0879 -0.20897,-0.0879 -0.356576,-0.24546 -0.147606,-0.15922 -0.228872,-0.3798 -0.08127,-0.22058 -0.08127,-0.48759 0,-0.28526 0.08127,-0.51745 0.08292,-0.23219 0.233847,-0.39638 0.152582,-0.16419 0.369844,-0.25375 0.217262,-0.0896 0.485938,-0.0896 0.248774,0 0.454427,0.0879 0.205653,0.0879 0.3516,0.24712 0.145947,0.15755 0.225555,0.37813 0.08127,0.22058 0.08127,0.48594 0,0.3516 -0.117753,0.61696 -0.117753,0.2637 -0.331698,0.42457 l 0.689932,0.49755 h -0.600374 l -0.424573,-0.33004 q -0.08458,0.0232 -0.175801,0.0365 -0.09122,0.0133 -0.190726,0.0133 z m 0.01824,-2.11126 q -0.162532,0 -0.298528,0.0647 -0.134338,0.063 -0.232189,0.18077 -0.09785,0.1161 -0.152581,0.27863 -0.05307,0.16253 -0.05307,0.36155 0,0.19736 0.05141,0.35989 0.05307,0.16253 0.147606,0.27863 0.09453,0.11444 0.227213,0.17912 0.13268,0.063 0.293553,0.063 0.170825,0 0.306821,-0.0597 0.135997,-0.0597 0.230531,-0.17082 0.09619,-0.11278 0.147605,-0.27531 0.05141,-0.16253 0.05141,-0.36984 0,-0.21229 -0.04976,-0.37814 -0.04976,-0.16585 -0.14263,-0.27863 -0.09288,-0.11443 -0.227214,-0.17414 -0.132679,-0.0597 -0.300187,-0.0597 z"
         style="font-style:normal;font-variant:normal;font-weight:600;font-stretch:normal;font-size:3.39659119px;font-family:'Yu Gothic UI';-inkscape-font-specification:'Yu Gothic UI Semi-Bold';stroke-width:0.25474435"
         id="path965"
         inkscape:connector-curvature="0" />
      <path
         d="m 25.814131,192.62621 q -0.09951,0 -0.169166,-0.0647 -0.06966,-0.0663 -0.06966,-0.15756 0,-0.0929 0.06966,-0.15921 0.06966,-0.0663 0.169166,-0.0663 0.101168,0 0.170825,0.0663 0.07131,0.0663 0.07131,0.15921 0,0.0912 -0.07131,0.15756 -0.06966,0.0647 -0.170825,0.0647 z"
         style="font-style:normal;font-variant:normal;font-weight:600;font-stretch:normal;font-size:3.39659119px;font-family:'Yu Gothic UI';-inkscape-font-specification:'Yu Gothic UI Semi-Bold';stroke-width:0.25474435"
         id="path967"
         inkscape:connector-curvature="0" />
      <path
         d="m 29.31189,192.42719 q -0.371502,0.20234 -0.827587,0.20234 -0.5274,0 -0.854123,-0.32839 -0.326723,-0.32838 -0.326723,-0.86905 0,-0.55227 0.356576,-0.90553 0.358234,-0.35492 0.908853,-0.35492 0.39638,0 0.666714,0.1161 v 0.40633 q -0.273651,-0.18244 -0.651787,-0.18244 -0.379795,0 -0.623593,0.25043 -0.24214,0.25044 -0.24214,0.64847 0,0.40965 0.20897,0.64516 0.20897,0.23384 0.567204,0.23384 0.245457,0 0.424574,-0.0945 v -0.56555 h -0.500865 v -0.33169 h 0.893927 z"
         style="font-style:normal;font-variant:normal;font-weight:600;font-stretch:normal;font-size:3.39659119px;font-family:'Yu Gothic UI';-inkscape-font-specification:'Yu Gothic UI Semi-Bold';stroke-width:0.25474435"
         id="path970"
         inkscape:connector-curvature="0" />
      <path
         d="m 31.602268,192.58972 h -0.472671 l -0.487596,-0.87237 q -0.02156,-0.0398 -0.0481,-0.11277 h -0.0066 q -0.01493,0.0365 -0.04976,0.11277 l -0.502523,0.87237 h -0.475987 l 0.779491,-1.19577 -0.716469,-1.18251 h 0.482621 l 0.42955,0.80271 q 0.04146,0.0796 0.07463,0.15922 h 0.005 q 0.0481,-0.10449 0.08292,-0.16585 l 0.446134,-0.79608 h 0.444476 l -0.733053,1.17919 z"
         style="font-style:normal;font-variant:normal;font-weight:600;font-stretch:normal;font-size:3.39659119px;font-family:'Yu Gothic UI';-inkscape-font-specification:'Yu Gothic UI Semi-Bold';stroke-width:0.25474435"
         id="path972"
         inkscape:connector-curvature="0" />
    </g>
  </g>
  <g
     inkscape:groupmode="layer"
     id="layer2"
     inkscape:label="Grid8"
     style="display:none"
     sodipodi:insensitive="true">
    <g
       id="g1088"
       transform="translate(1.5433068e-5,1.6666045e-6)">
      <path
         style="fill:none;stroke:#000000;stroke-width:0.05;stroke-linecap:butt;stroke-linejoin:miter;stroke-miterlimit:4;stroke-dasharray:none;stroke-opacity:1"
         d="M 7.9375,-6.666791e-6 7.937497,100.54166"
         id="path881"
         inkscape:connector-curvature="0"
         sodipodi:nodetypes="cc" />
      <path
         sodipodi:nodetypes="cc"
         inkscape:connector-curvature="0"
         id="path890"
         d="M 3.968752,3.333209e-6 3.968748,100.54167"
         style="fill:none;stroke:#000000;stroke-width:0.05;stroke-linecap:butt;stroke-linejoin:miter;stroke-miterlimit:4;stroke-dasharray:none;stroke-opacity:1" />
      <path
         style="fill:none;stroke:#000000;stroke-width:0.05;stroke-linecap:butt;stroke-linejoin:miter;stroke-miterlimit:4;stroke-dasharray:none;stroke-opacity:1"
         d="M 11.906253,3.333209e-6 11.906249,100.54167"
         id="path895"
         inkscape:connector-curvature="0"
         sodipodi:nodetypes="cc" />
      <path
         sodipodi:nodetypes="cc"
         inkscape:connector-curvature="0"
         id="path905"
         d="m 0,11.386483 15.875,-0.0094"
         style="fill:none;stroke:#000000;stroke-width:0.05;stroke-linecap:butt;stroke-linejoin:miter;stroke-miterlimit:4;stroke-dasharray:none;stroke-opacity:1" />
      <path
         sodipodi:nodetypes="cc"
         style="fill:none;stroke:#000000;stroke-width:0.05;stroke-linecap:butt;stroke-linejoin:miter;stroke-miterlimit:4;stroke-dasharray:none;stroke-opacity:1"
         d="m 0,22.499053 15.875,-0.0095"
         id="path907"
         inkscape:connector-curvature="0" />
      <path
         sodipodi:nodetypes="cc"
         inkscape:connector-curvature="0"
         id="path911"
         d="m 0,33.611623 15.875,-0.0095"
         style="fill:none;stroke:#000000;stroke-width:0.05;stroke-linecap:butt;stroke-linejoin:miter;stroke-miterlimit:4;stroke-dasharray:none;stroke-opacity:1" />
      <path
         sodipodi:nodetypes="cc"
         style="fill:none;stroke:#000000;stroke-width:0.05;stroke-linecap:butt;stroke-linejoin:miter;stroke-miterlimit:4;stroke-dasharray:none;stroke-opacity:1"
         d="m 0,44.724193 15.875,-0.0096"
         id="path917"
         inkscape:connector-curvature="0" />
      <path
         sodipodi:nodetypes="cc"
         inkscape:connector-curvature="0"
         id="path925"
         d="m 0,55.836763 15.875,-0.0097"
         style="fill:none;stroke:#000000;stroke-width:0.05;stroke-linecap:butt;stroke-linejoin:miter;stroke-miterlimit:4;stroke-dasharray:none;stroke-opacity:1" />
      <path
         sodipodi:nodetypes="cc"
         style="fill:none;stroke:#000000;stroke-width:0.05;stroke-linecap:butt;stroke-linejoin:miter;stroke-miterlimit:4;stroke-dasharray:none;stroke-opacity:1"
         d="m 0,66.949333 15.875,-0.0097"
         id="path935"
         inkscape:connector-curvature="0" />
      <path
         sodipodi:nodetypes="cc"
         inkscape:connector-curvature="0"
         id="path947"
         d="m 0,78.061903 15.875,-0.0098"
         style="fill:none;stroke:#000000;stroke-width:0.05;stroke-linecap:butt;stroke-linejoin:miter;stroke-miterlimit:4;stroke-dasharray:none;stroke-opacity:1" />
      <circle
         r="4.0999999"
         cy="22.489223"
         cx="7.9347644"
         id="path1041"
         style="display:inline;opacity:1;fill:none;fill-opacity:1;stroke:#000000;stroke-width:0.05;stroke-linecap:square;stroke-linejoin:round;stroke-miterlimit:4;stroke-dasharray:none;stroke-dashoffset:0;stroke-opacity:1;paint-order:markers fill stroke" />
      <circle
         style="display:inline;opacity:1;fill:none;fill-opacity:1;stroke:#000000;stroke-width:0.05;stroke-linecap:square;stroke-linejoin:round;stroke-miterlimit:4;stroke-dasharray:none;stroke-dashoffset:0;stroke-opacity:1;paint-order:markers fill stroke"
         id="circle1054"
         cx="7.9347644"
         cy="44.720119"
         r="4.0999999" />
      <circle
         r="4.0999999"
         cy="33.60759"
         cx="7.9347644"
         id="circle1056"
         style="display:inline;opacity:1;fill:none;fill-opacity:1;stroke:#000000;stroke-width:0.05;stroke-linecap:square;stroke-linejoin:round;stroke-miterlimit:4;stroke-dasharray:none;stroke-dashoffset:0;stroke-opacity:1;paint-order:markers fill stroke" />
      <circle
         style="display:inline;opacity:1;fill:none;fill-opacity:1;stroke:#000000;stroke-width:0.05;stroke-linecap:square;stroke-linejoin:round;stroke-miterlimit:4;stroke-dasharray:none;stroke-dashoffset:0;stroke-opacity:1;paint-order:markers fill stroke"
         id="circle1058"
         cx="7.9347644"
         cy="66.939285"
         r="4.0999999" />
      <circle
         r="4.0999999"
         cy="55.83263"
         cx="7.9347644"
         id="circle1060"
         style="display:inline;opacity:1;fill:none;fill-opacity:1;stroke:#000000;stroke-width:0.05;stroke-linecap:square;stroke-linejoin:round;stroke-miterlimit:4;stroke-dasharray:none;stroke-dashoffset:0;stroke-opacity:1;paint-order:markers fill stroke" />
      <circle
         style="display:inline;opacity:1;fill:none;fill-opacity:1;stroke:#000000;stroke-width:0.05;stroke-linecap:square;stroke-linejoin:round;stroke-miterlimit:4;stroke-dasharray:none;stroke-dashoffset:0;stroke-opacity:1;paint-order:markers fill stroke"
         id="circle1064"
         cx="7.9347644"
         cy="78.05764"
         r="4.0999999" />
      <circle
         style="display:inline;opacity:1;fill:none;fill-opacity:1;stroke:#000000;stroke-width:0.05;stroke-linecap:square;stroke-linejoin:round;stroke-miterlimit:4;stroke-dasharray:none;stroke-dashoffset:0;stroke-opacity:1;paint-order:markers fill stroke"
         id="circle1052"
         cx="7.9347644"
         cy="11.382563"
         r="4.0999999" />
      <circle
         r="5.4741378"
         cy="11.377258"
         cx="7.9360795"
         id="circle924"
         style="display:inline;opacity:1;fill:none;fill-opacity:1;stroke:#000000;stroke-width:0.05172414;stroke-linecap:square;stroke-linejoin:round;stroke-miterlimit:4;stroke-dasharray:none;stroke-dashoffset:0;stroke-opacity:1;paint-order:markers fill stroke" />
      <circle
         style="display:inline;opacity:1;fill:none;fill-opacity:1;stroke:#000000;stroke-width:0.05172414;stroke-linecap:square;stroke-linejoin:round;stroke-miterlimit:4;stroke-dasharray:none;stroke-dashoffset:0;stroke-opacity:1;paint-order:markers fill stroke"
         id="circle955"
         cx="7.9360795"
         cy="22.490795"
         r="5.4741378" />
      <circle
         r="5.4741378"
         cy="33.603306"
         cx="7.9360795"
         id="circle957"
         style="display:inline;opacity:1;fill:none;fill-opacity:1;stroke:#000000;stroke-width:0.05172414;stroke-linecap:square;stroke-linejoin:round;stroke-miterlimit:4;stroke-dasharray:none;stroke-dashoffset:0;stroke-opacity:1;paint-order:markers fill stroke" />
      <circle
         style="display:inline;opacity:1;fill:none;fill-opacity:1;stroke:#000000;stroke-width:0.05172414;stroke-linecap:square;stroke-linejoin:round;stroke-miterlimit:4;stroke-dasharray:none;stroke-dashoffset:0;stroke-opacity:1;paint-order:markers fill stroke"
         id="circle959"
         cx="7.9360795"
         cy="44.715816"
         r="5.4741378" />
      <circle
         r="5.4741378"
         cy="55.828327"
         cx="7.9360795"
         id="circle961"
         style="display:inline;opacity:1;fill:none;fill-opacity:1;stroke:#000000;stroke-width:0.05172414;stroke-linecap:square;stroke-linejoin:round;stroke-miterlimit:4;stroke-dasharray:none;stroke-dashoffset:0;stroke-opacity:1;paint-order:markers fill stroke" />
      <circle
         style="display:inline;opacity:1;fill:none;fill-opacity:1;stroke:#000000;stroke-width:0.05172414;stroke-linecap:square;stroke-linejoin:round;stroke-miterlimit:4;stroke-dasharray:none;stroke-dashoffset:0;stroke-opacity:1;paint-order:markers fill stroke"
         id="circle963"
         cx="7.9360795"
         cy="66.940834"
         r="5.4741378" />
      <circle
         r="5.4741378"
         cy="78.053345"
         cx="7.9360795"
         id="circle965"
         style="display:inline;opacity:1;fill:none;fill-opacity:1;stroke:#000000;stroke-width:0.05172414;stroke-linecap:square;stroke-linejoin:round;stroke-miterlimit:4;stroke-dasharray:none;stroke-dashoffset:0;stroke-opacity:1;paint-order:markers fill stroke" />
      <path
         style="fill:none;stroke:#000000;stroke-width:0.05;stroke-linecap:butt;stroke-linejoin:miter;stroke-miterlimit:4;stroke-dasharray:none;stroke-opacity:1"
         d="m 0,89.17441 15.875,-0.0098"
         id="path1055"
         inkscape:connector-curvature="0"
         sodipodi:nodetypes="cc" />
      <circle
         r="4.0999999"
         cy="89.170151"
         cx="7.9347644"
         id="circle1057"
         style="display:inline;opacity:1;fill:none;fill-opacity:1;stroke:#000000;stroke-width:0.05;stroke-linecap:square;stroke-linejoin:round;stroke-miterlimit:4;stroke-dasharray:none;stroke-dashoffset:0;stroke-opacity:1;paint-order:markers fill stroke" />
      <circle
         style="display:inline;opacity:1;fill:none;fill-opacity:1;stroke:#000000;stroke-width:0.05172414;stroke-linecap:square;stroke-linejoin:round;stroke-miterlimit:4;stroke-dasharray:none;stroke-dashoffset:0;stroke-opacity:1;paint-order:markers fill stroke"
         id="circle1059"
         cx="7.9360795"
         cy="89.165855"
         r="5.4741378" />
    </g>
    <g
       transform="translate(15.874985,1.6666045e-6)"
       id="g939">
      <path
         sodipodi:nodetypes="cc"
         inkscape:connector-curvature="0"
         id="path882"
         d="M 7.9375,-6.666791e-6 7.937497,100.54166"
         style="fill:none;stroke:#000000;stroke-width:0.05;stroke-linecap:butt;stroke-linejoin:miter;stroke-miterlimit:4;stroke-dasharray:none;stroke-opacity:1" />
      <path
         style="fill:none;stroke:#000000;stroke-width:0.05;stroke-linecap:butt;stroke-linejoin:miter;stroke-miterlimit:4;stroke-dasharray:none;stroke-opacity:1"
         d="M 3.968752,3.333209e-6 3.968748,100.54167"
         id="path884"
         inkscape:connector-curvature="0"
         sodipodi:nodetypes="cc" />
      <path
         sodipodi:nodetypes="cc"
         inkscape:connector-curvature="0"
         id="path886"
         d="M 11.906253,3.333209e-6 11.906249,100.54167"
         style="fill:none;stroke:#000000;stroke-width:0.05;stroke-linecap:butt;stroke-linejoin:miter;stroke-miterlimit:4;stroke-dasharray:none;stroke-opacity:1" />
      <path
         style="fill:none;stroke:#000000;stroke-width:0.05;stroke-linecap:butt;stroke-linejoin:miter;stroke-miterlimit:4;stroke-dasharray:none;stroke-opacity:1"
         d="m 0,11.386483 15.875,-0.0094"
         id="path888"
         inkscape:connector-curvature="0"
         sodipodi:nodetypes="cc" />
      <path
         inkscape:connector-curvature="0"
         id="path891"
         d="m 0,22.499053 15.875,-0.0095"
         style="fill:none;stroke:#000000;stroke-width:0.05;stroke-linecap:butt;stroke-linejoin:miter;stroke-miterlimit:4;stroke-dasharray:none;stroke-opacity:1"
         sodipodi:nodetypes="cc" />
      <path
         style="fill:none;stroke:#000000;stroke-width:0.05;stroke-linecap:butt;stroke-linejoin:miter;stroke-miterlimit:4;stroke-dasharray:none;stroke-opacity:1"
         d="m 0,33.611623 15.875,-0.0095"
         id="path893"
         inkscape:connector-curvature="0"
         sodipodi:nodetypes="cc" />
      <path
         inkscape:connector-curvature="0"
         id="path896"
         d="m 0,44.724193 15.875,-0.0096"
         style="fill:none;stroke:#000000;stroke-width:0.05;stroke-linecap:butt;stroke-linejoin:miter;stroke-miterlimit:4;stroke-dasharray:none;stroke-opacity:1"
         sodipodi:nodetypes="cc" />
      <path
         style="fill:none;stroke:#000000;stroke-width:0.05;stroke-linecap:butt;stroke-linejoin:miter;stroke-miterlimit:4;stroke-dasharray:none;stroke-opacity:1"
         d="m 0,55.836763 15.875,-0.0097"
         id="path898"
         inkscape:connector-curvature="0"
         sodipodi:nodetypes="cc" />
      <path
         inkscape:connector-curvature="0"
         id="path900"
         d="m 0,66.949333 15.875,-0.0097"
         style="fill:none;stroke:#000000;stroke-width:0.05;stroke-linecap:butt;stroke-linejoin:miter;stroke-miterlimit:4;stroke-dasharray:none;stroke-opacity:1"
         sodipodi:nodetypes="cc" />
      <path
         style="fill:none;stroke:#000000;stroke-width:0.05;stroke-linecap:butt;stroke-linejoin:miter;stroke-miterlimit:4;stroke-dasharray:none;stroke-opacity:1"
         d="m 0,78.061903 15.875,-0.0098"
         id="path902"
         inkscape:connector-curvature="0"
         sodipodi:nodetypes="cc" />
      <circle
         style="display:inline;opacity:1;fill:none;fill-opacity:1;stroke:#000000;stroke-width:0.05;stroke-linecap:square;stroke-linejoin:round;stroke-miterlimit:4;stroke-dasharray:none;stroke-dashoffset:0;stroke-opacity:1;paint-order:markers fill stroke"
         id="circle904"
         cx="7.9347644"
         cy="22.489223"
         r="4.0999999" />
      <circle
         r="4.0999999"
         cy="44.720119"
         cx="7.9347644"
         id="circle906"
         style="display:inline;opacity:1;fill:none;fill-opacity:1;stroke:#000000;stroke-width:0.05;stroke-linecap:square;stroke-linejoin:round;stroke-miterlimit:4;stroke-dasharray:none;stroke-dashoffset:0;stroke-opacity:1;paint-order:markers fill stroke" />
      <circle
         style="display:inline;opacity:1;fill:none;fill-opacity:1;stroke:#000000;stroke-width:0.05;stroke-linecap:square;stroke-linejoin:round;stroke-miterlimit:4;stroke-dasharray:none;stroke-dashoffset:0;stroke-opacity:1;paint-order:markers fill stroke"
         id="circle908"
         cx="7.9347644"
         cy="33.60759"
         r="4.0999999" />
      <circle
         r="4.0999999"
         cy="66.939285"
         cx="7.9347644"
         id="circle910"
         style="display:inline;opacity:1;fill:none;fill-opacity:1;stroke:#000000;stroke-width:0.05;stroke-linecap:square;stroke-linejoin:round;stroke-miterlimit:4;stroke-dasharray:none;stroke-dashoffset:0;stroke-opacity:1;paint-order:markers fill stroke" />
      <circle
         style="display:inline;opacity:1;fill:none;fill-opacity:1;stroke:#000000;stroke-width:0.05;stroke-linecap:square;stroke-linejoin:round;stroke-miterlimit:4;stroke-dasharray:none;stroke-dashoffset:0;stroke-opacity:1;paint-order:markers fill stroke"
         id="circle912"
         cx="7.9347644"
         cy="55.83263"
         r="4.0999999" />
      <circle
         r="4.0999999"
         cy="78.05764"
         cx="7.9347644"
         id="circle914"
         style="display:inline;opacity:1;fill:none;fill-opacity:1;stroke:#000000;stroke-width:0.05;stroke-linecap:square;stroke-linejoin:round;stroke-miterlimit:4;stroke-dasharray:none;stroke-dashoffset:0;stroke-opacity:1;paint-order:markers fill stroke" />
      <circle
         r="4.0999999"
         cy="11.382563"
         cx="7.9347644"
         id="circle916"
         style="display:inline;opacity:1;fill:none;fill-opacity:1;stroke:#000000;stroke-width:0.05;stroke-linecap:square;stroke-linejoin:round;stroke-miterlimit:4;stroke-dasharray:none;stroke-dashoffset:0;stroke-opacity:1;paint-order:markers fill stroke" />
      <circle
         style="display:inline;opacity:1;fill:none;fill-opacity:1;stroke:#000000;stroke-width:0.05172414;stroke-linecap:square;stroke-linejoin:round;stroke-miterlimit:4;stroke-dasharray:none;stroke-dashoffset:0;stroke-opacity:1;paint-order:markers fill stroke"
         id="circle918"
         cx="7.9360795"
         cy="11.377258"
         r="5.4741378" />
      <circle
         r="5.4741378"
         cy="22.490795"
         cx="7.9360795"
         id="circle920"
         style="display:inline;opacity:1;fill:none;fill-opacity:1;stroke:#000000;stroke-width:0.05172414;stroke-linecap:square;stroke-linejoin:round;stroke-miterlimit:4;stroke-dasharray:none;stroke-dashoffset:0;stroke-opacity:1;paint-order:markers fill stroke" />
      <circle
         style="display:inline;opacity:1;fill:none;fill-opacity:1;stroke:#000000;stroke-width:0.05172414;stroke-linecap:square;stroke-linejoin:round;stroke-miterlimit:4;stroke-dasharray:none;stroke-dashoffset:0;stroke-opacity:1;paint-order:markers fill stroke"
         id="circle922"
         cx="7.9360795"
         cy="33.603306"
         r="5.4741378" />
      <circle
         r="5.4741378"
         cy="44.715816"
         cx="7.9360795"
         id="circle925"
         style="display:inline;opacity:1;fill:none;fill-opacity:1;stroke:#000000;stroke-width:0.05172414;stroke-linecap:square;stroke-linejoin:round;stroke-miterlimit:4;stroke-dasharray:none;stroke-dashoffset:0;stroke-opacity:1;paint-order:markers fill stroke" />
      <circle
         style="display:inline;opacity:1;fill:none;fill-opacity:1;stroke:#000000;stroke-width:0.05172414;stroke-linecap:square;stroke-linejoin:round;stroke-miterlimit:4;stroke-dasharray:none;stroke-dashoffset:0;stroke-opacity:1;paint-order:markers fill stroke"
         id="circle927"
         cx="7.9360795"
         cy="55.828327"
         r="5.4741378" />
      <circle
         r="5.4741378"
         cy="66.940834"
         cx="7.9360795"
         id="circle929"
         style="display:inline;opacity:1;fill:none;fill-opacity:1;stroke:#000000;stroke-width:0.05172414;stroke-linecap:square;stroke-linejoin:round;stroke-miterlimit:4;stroke-dasharray:none;stroke-dashoffset:0;stroke-opacity:1;paint-order:markers fill stroke" />
      <circle
         style="display:inline;opacity:1;fill:none;fill-opacity:1;stroke:#000000;stroke-width:0.05172414;stroke-linecap:square;stroke-linejoin:round;stroke-miterlimit:4;stroke-dasharray:none;stroke-dashoffset:0;stroke-opacity:1;paint-order:markers fill stroke"
         id="circle931"
         cx="7.9360795"
         cy="78.053345"
         r="5.4741378" />
      <path
         sodipodi:nodetypes="cc"
         inkscape:connector-curvature="0"
         id="path933"
         d="m 0,89.17441 15.875,-0.0098"
         style="fill:none;stroke:#000000;stroke-width:0.05;stroke-linecap:butt;stroke-linejoin:miter;stroke-miterlimit:4;stroke-dasharray:none;stroke-opacity:1" />
      <circle
         style="display:inline;opacity:1;fill:none;fill-opacity:1;stroke:#000000;stroke-width:0.05;stroke-linecap:square;stroke-linejoin:round;stroke-miterlimit:4;stroke-dasharray:none;stroke-dashoffset:0;stroke-opacity:1;paint-order:markers fill stroke"
         id="circle935"
         cx="7.9347644"
         cy="89.170151"
         r="4.0999999" />
      <circle
         r="5.4741378"
         cy="89.165855"
         cx="7.9360795"
         id="circle937"
         style="display:inline;opacity:1;fill:none;fill-opacity:1;stroke:#000000;stroke-width:0.05172414;stroke-linecap:square;stroke-linejoin:round;stroke-miterlimit:4;stroke-dasharray:none;stroke-dashoffset:0;stroke-opacity:1;paint-order:markers fill stroke" />
    </g>
  </g>
</svg>
