<?xml version="1.0" encoding="UTF-8" standalone="no"?>
<!-- Created with Inkscape (http://www.inkscape.org/) -->

<svg
   xmlns:dc="http://purl.org/dc/elements/1.1/"
   xmlns:cc="http://creativecommons.org/ns#"
   xmlns:rdf="http://www.w3.org/1999/02/22-rdf-syntax-ns#"
   xmlns:svg="http://www.w3.org/2000/svg"
   xmlns="http://www.w3.org/2000/svg"
   xmlns:sodipodi="http://sodipodi.sourceforge.net/DTD/sodipodi-0.dtd"
   xmlns:inkscape="http://www.inkscape.org/namespaces/inkscape"
   width="150"
   height="380"
   viewBox="0 0 39.687503 100.54167"
   version="1.1"
   id="svg8"
   inkscape:version="0.92.4 (5da689c313, 2019-01-14)"
   sodipodi:docname="ClockedRandomGateExpanderLog.svg">
  <defs
     id="defs2">
    <pattern
       y="0"
       x="0"
       height="6"
       width="6"
       patternUnits="userSpaceOnUse"
       id="EMFhbasepattern" />
  </defs>
  <sodipodi:namedview
     id="base"
     pagecolor="#ffffff"
     bordercolor="#666666"
     borderopacity="1.0"
     inkscape:pageopacity="0.0"
     inkscape:pageshadow="2"
     inkscape:zoom="2.2789474"
     inkscape:cx="75"
     inkscape:cy="190"
     inkscape:document-units="mm"
     inkscape:current-layer="layer1"
     showgrid="true"
     units="px"
     inkscape:snap-bbox="true"
     inkscape:snap-page="true"
     inkscape:bbox-nodes="true"
     inkscape:snap-bbox-edge-midpoints="true"
     inkscape:window-width="1920"
     inkscape:window-height="1017"
     inkscape:window-x="-8"
     inkscape:window-y="-8"
     inkscape:window-maximized="1">
    <inkscape:grid
       type="xygrid"
       id="grid116" />
  </sodipodi:namedview>
  <metadata
     id="metadata5">
    <rdf:RDF>
      <cc:Work
         rdf:about="">
        <dc:format>image/svg+xml</dc:format>
        <dc:type
           rdf:resource="http://purl.org/dc/dcmitype/StillImage" />
        <dc:title />
      </cc:Work>
    </rdf:RDF>
  </metadata>
  <g
     inkscape:groupmode="layer"
     id="layer4"
     inkscape:label="Panel"
     style="display:inline"
     sodipodi:insensitive="true">
    <path
       sodipodi:type="inkscape:offset"
       inkscape:radius="0"
       inkscape:original="M 0 196.45898 L 0 297 L 15.875 297 L 15.875 196.45898 L 0 196.45898 z "
       style="display:inline;fill:#162d50;stroke-width:0.3310422"
       id="rect3855"
       d="M 0,196.45898 V 297 H 15.875 V 196.45898 Z"
       transform="matrix(2.5,0,0,1.0000064,0,-196.46023)" />
  </g>
  <g
     inkscape:label="Layer 1"
     inkscape:groupmode="layer"
     id="layer1"
     transform="translate(0,-196.45832)"
     style="display:inline">
    <text
       id="text1355"
       y="201.48538"
       x="17.462492"
       style="font-style:normal;font-weight:normal;font-size:2.82222223px;line-height:1.25;font-family:sans-serif;letter-spacing:0px;word-spacing:0px;fill:#ffffff;fill-opacity:1;stroke:none;stroke-width:0.26458332"
       xml:space="preserve"><tspan
         style="stroke-width:0.26458332"
         y="203.98239"
         x="17.462492"
         id="tspan1353"
         sodipodi:role="line" /></text>
    <g
       style="display:inline"
       id="g1405"
       transform="translate(-19.847052,1.1526333e-4)">
      <g
         transform="translate(14.334233,3.7455086)"
         id="text956"
         style="font-style:normal;font-variant:normal;font-weight:normal;font-stretch:normal;font-size:2.82222223px;line-height:1.25;font-family:'Copperplate Gothic Light';-inkscape-font-specification:'Copperplate Gothic Light, ';letter-spacing:0px;word-spacing:0px;fill:#ffffff;fill-opacity:1;stroke:#ffffff;stroke-width:0.2;stroke-miterlimit:4;stroke-dasharray:none;stroke-opacity:1"
         aria-label="/^M^\">
        <path
           inkscape:connector-curvature="0"
           id="path958"
           style="font-style:normal;font-variant:normal;font-weight:normal;font-stretch:normal;font-size:2.82222223px;line-height:1.25;font-family:'Copperplate Gothic Light';-inkscape-font-specification:'Copperplate Gothic Light, ';stroke:#ffffff;stroke-width:0.2;stroke-miterlimit:4;stroke-dasharray:none;stroke-opacity:1"
           d="m 21.203855,291.40545 v 0.0386 h -0.434082 v -0.0386 q 0.09509,-0.006 0.224621,-0.17088 l 1.094162,-1.4621 q 0.07441,-0.1006 0.07441,-0.12402 0,-0.0372 -0.06615,-0.0482 v -0.0372 h 0.423058 v 0.0372 q -0.09508,0.006 -0.22462,0.17087 l -1.08176,1.46348 q -0.07579,0.10197 -0.07579,0.12402 0,0.0358 0.06615,0.0469 z" />
        <path
           inkscape:connector-curvature="0"
           id="path960"
           style="font-style:normal;font-variant:normal;font-weight:normal;font-stretch:normal;font-size:2.82222223px;line-height:1.25;font-family:'Copperplate Gothic Light';-inkscape-font-specification:'Copperplate Gothic Light, ';stroke:#ffffff;stroke-width:0.2;stroke-miterlimit:4;stroke-dasharray:none;stroke-opacity:1"
           d="M 22.940183,290.3857 H 22.73899 l 0.493338,-0.8282 h 0.243912 l 0.493338,0.8282 h -0.20395 l -0.413411,-0.68075 z" />
        <path
           inkscape:connector-curvature="0"
           id="path962"
           style="font-style:normal;font-variant:normal;font-weight:normal;font-stretch:normal;font-size:2.82222223px;line-height:1.25;font-family:'Copperplate Gothic Light';-inkscape-font-specification:'Copperplate Gothic Light, ';stroke:#ffffff;stroke-width:0.2;stroke-miterlimit:4;stroke-dasharray:none;stroke-opacity:1"
           d="m 25.342104,291.44403 -0.789616,-1.58061 v 1.418 q 0,0.0565 0.01791,0.0813 0.01791,0.0234 0.07028,0.0372 v 0.0441 h -0.373449 v -0.0441 q 0.05237,-0.0138 0.07028,-0.0372 0.01792,-0.0234 0.01792,-0.0813 v -1.5558 q 0,-0.0579 -0.01792,-0.0813 -0.01791,-0.0248 -0.07028,-0.0372 v -0.0441 h 0.487826 v 0.0441 q -0.06752,0.0234 -0.06752,0.0579 0,0.0165 0.04547,0.10611 l 0.62563,1.24161 0.628385,-1.25263 q 0.03307,-0.0661 0.03307,-0.0937 0,-0.0358 -0.06752,-0.0593 v -0.0441 h 0.49196 v 0.0441 q -0.05237,0.0138 -0.07028,0.0372 -0.01792,0.0234 -0.01792,0.0813 v 1.5558 q 0,0.0565 0.01792,0.0813 0.01791,0.0234 0.07028,0.0372 v 0.0441 h -0.392741 v -0.0441 q 0.05374,-0.0138 0.07028,-0.0372 0.01791,-0.0234 0.01791,-0.0813 v -1.418 z" />
        <path
           inkscape:connector-curvature="0"
           id="path964"
           style="font-style:normal;font-variant:normal;font-weight:normal;font-stretch:normal;font-size:2.82222223px;line-height:1.25;font-family:'Copperplate Gothic Light';-inkscape-font-specification:'Copperplate Gothic Light, ';stroke:#ffffff;stroke-width:0.2;stroke-miterlimit:4;stroke-dasharray:none;stroke-opacity:1"
           d="m 26.942006,290.3857 h -0.201193 l 0.493338,-0.8282 h 0.243912 l 0.493338,0.8282 h -0.20395 l -0.413411,-0.68075 z" />
        <path
           inkscape:connector-curvature="0"
           id="path966"
           style="font-style:normal;font-variant:normal;font-weight:normal;font-stretch:normal;font-size:2.82222223px;line-height:1.25;font-family:'Copperplate Gothic Light';-inkscape-font-specification:'Copperplate Gothic Light, ';stroke:#ffffff;stroke-width:0.2;stroke-miterlimit:4;stroke-dasharray:none;stroke-opacity:1"
           d="m 28.617701,289.56301 v 0.0372 q -0.06615,0.011 -0.06615,0.0482 0,0.0234 0.07441,0.12402 l 1.092784,1.4621 q 0.129536,0.16536 0.22462,0.17088 v 0.0386 h -0.434082 v -0.0386 q 0.06615,-0.011 0.06615,-0.0469 0,-0.0207 -0.07579,-0.12402 l -1.080382,-1.46348 q -0.129535,-0.16536 -0.22462,-0.17087 v -0.0372 z" />
      </g>
    </g>
    <g
       aria-label="1"
       style="font-style:normal;font-variant:normal;font-weight:normal;font-stretch:normal;font-size:2.82222223px;line-height:1.25;font-family:'Yu Gothic UI';-inkscape-font-specification:'Yu Gothic UI';letter-spacing:0px;word-spacing:0px;fill:#ffffff;fill-opacity:1;stroke:none;stroke-width:0.26458332"
       id="text1989"
       transform="translate(-24.468447,-2.1724801)">
      <path
         d="m 44.65395,211.01041 h -0.225999 v -1.70739 q -0.02618,0.0262 -0.07717,0.0606 -0.04961,0.0331 -0.112999,0.0661 -0.06201,0.0331 -0.132292,0.062 -0.0689,0.0289 -0.135047,0.0455 v -0.22875 q 0.07441,-0.0207 0.157096,-0.0551 0.08406,-0.0358 0.163987,-0.0786 0.0813,-0.0441 0.152962,-0.0909 0.07166,-0.0482 0.124023,-0.0937 h 0.08544 z"
         style="stroke-width:0.26458332"
         id="path1991"
         inkscape:connector-curvature="0" />
    </g>
    <g
       aria-label="5"
       style="font-style:normal;font-variant:normal;font-weight:normal;font-stretch:normal;font-size:2.82222223px;line-height:1.25;font-family:'Yu Gothic UI';-inkscape-font-specification:'Yu Gothic UI';letter-spacing:0px;word-spacing:0px;fill:#ffffff;fill-opacity:1;stroke:none;stroke-width:0.26458332"
       id="text1996"
       transform="translate(-56.364978,42.247167)">
      <path
         d="m 76.763387,210.40683 q 0,0.14469 -0.04961,0.26182 -0.04961,0.11714 -0.141938,0.2012 -0.09095,0.0841 -0.220486,0.12953 -0.129536,0.0455 -0.28801,0.0455 -0.275608,0 -0.409278,-0.0827 v -0.23978 q 0.201194,0.12953 0.412034,0.12953 0.107487,0 0.192925,-0.0317 0.08682,-0.0317 0.14745,-0.0882 0.06063,-0.0565 0.09233,-0.13642 0.03307,-0.0799 0.03307,-0.17501 0,-0.19293 -0.129536,-0.30179 -0.129536,-0.11025 -0.376204,-0.11025 -0.03996,0 -0.08406,0.001 -0.0441,0.001 -0.08819,0.004 -0.0441,10e-4 -0.08682,0.004 -0.04134,0.003 -0.07579,0.007 l 0.06752,-0.99081 h 0.913639 v 0.20395 h -0.717957 l -0.03996,0.58015 q 0.0441,-0.003 0.09371,-0.004 0.04961,-0.003 0.0882,-0.003 0.157096,0 0.281119,0.0413 0.124024,0.0414 0.209462,0.11852 0.08682,0.0758 0.130914,0.18741 0.04547,0.11024 0.04547,0.24805 z"
         style="stroke-width:0.26458332"
         id="path1998"
         inkscape:connector-curvature="0" />
    </g>
    <g
       aria-label="2"
       style="font-style:normal;font-variant:normal;font-weight:normal;font-stretch:normal;font-size:2.82222223px;line-height:1.25;font-family:'Yu Gothic UI';-inkscape-font-specification:'Yu Gothic UI';letter-spacing:0px;word-spacing:0px;fill:#ffffff;fill-opacity:1;stroke:none;stroke-width:0.26458332"
       id="text2019"
       transform="translate(-32.509998,7.6285417)">
      <path
         d="m 52.657595,210.87535 q 0,-0.0909 -0.02894,-0.15848 -0.02756,-0.0675 -0.07717,-0.11162 -0.04823,-0.0455 -0.114378,-0.0675 -0.06614,-0.0221 -0.143316,-0.0221 -0.06614,0 -0.129535,0.0179 -0.06339,0.0179 -0.124024,0.0496 -0.05926,0.0317 -0.115755,0.0758 -0.05512,0.0441 -0.103353,0.0978 v -0.24254 q 0.09508,-0.0923 0.212218,-0.14056 0.118511,-0.0496 0.28801,-0.0496 0.121268,0 0.22462,0.0358 0.103353,0.0344 0.179145,0.10198 0.07579,0.0675 0.118512,0.16674 0.0441,0.0992 0.0441,0.22738 0,0.11713 -0.02756,0.21221 -0.02618,0.0951 -0.0813,0.17915 -0.05374,0.0841 -0.136426,0.16123 -0.08268,0.0772 -0.194303,0.1571 -0.139182,0.0992 -0.230133,0.16949 -0.08957,0.0703 -0.143316,0.1323 -0.05237,0.0606 -0.07441,0.12264 -0.02067,0.0606 -0.02067,0.14056 h 0.983919 v 0.20257 h -1.219564 v -0.0978 q 0,-0.12678 0.02756,-0.22324 0.02756,-0.0965 0.09095,-0.18328 0.06339,-0.0868 0.165365,-0.17363 0.103353,-0.0868 0.252181,-0.19568 0.107487,-0.0772 0.179145,-0.14745 0.07304,-0.0703 0.117133,-0.14056 0.0441,-0.0703 0.06201,-0.14194 0.01929,-0.073 0.01929,-0.15434 z"
         style="stroke-width:0.26458332"
         id="path2035"
         inkscape:connector-curvature="0" />
    </g>
    <g
       aria-label="3"
       style="font-style:normal;font-variant:normal;font-weight:normal;font-stretch:normal;font-size:2.82222223px;line-height:1.25;font-family:'Yu Gothic UI';-inkscape-font-specification:'Yu Gothic UI';letter-spacing:0px;word-spacing:0px;fill:#ffffff;fill-opacity:1;stroke:none;stroke-width:0.26458332"
       id="text2023"
       transform="translate(-40.428883,18.714358)">
      <path
         d="m 60.84452,211.77383 q 0,0.13367 -0.05099,0.24391 -0.04961,0.10887 -0.141938,0.18742 -0.09095,0.0772 -0.219108,0.11988 -0.128158,0.0427 -0.282498,0.0427 -0.282498,0 -0.44924,-0.10748 v -0.24254 q 0.199815,0.1571 0.457508,0.1571 0.103353,0 0.186036,-0.0262 0.08406,-0.0262 0.143316,-0.0758 0.06063,-0.0496 0.09233,-0.11989 0.03307,-0.0703 0.03307,-0.15847 0,-0.38723 -0.551215,-0.38723 h -0.163987 v -0.19155 h 0.155718 q 0.487826,0 0.487826,-0.3638 0,-0.33624 -0.37207,-0.33624 -0.209462,0 -0.392741,0.14056 v -0.21911 q 0.188791,-0.113 0.44924,-0.113 0.124024,0 0.22462,0.0344 0.100597,0.0345 0.172255,0.0965 0.07166,0.062 0.110243,0.14883 0.03996,0.0868 0.03996,0.19154 0,0.38999 -0.394119,0.50161 v 0.006 q 0.100597,0.011 0.186036,0.0496 0.08544,0.0372 0.14745,0.0978 0.06201,0.0606 0.09646,0.14332 0.03583,0.0813 0.03583,0.18052 z"
         style="stroke-width:0.26458332"
         id="path2032"
         inkscape:connector-curvature="0" />
    </g>
    <g
       aria-label="4"
       style="font-style:normal;font-variant:normal;font-weight:normal;font-stretch:normal;font-size:2.82222223px;line-height:1.25;font-family:'Yu Gothic UI';-inkscape-font-specification:'Yu Gothic UI';letter-spacing:0px;word-spacing:0px;fill:#ffffff;fill-opacity:1;stroke:none;stroke-width:0.26458332"
       id="text2027"
       transform="translate(-48.347092,29.819474)">
      <path
         d="m 68.640082,210.35721 v 1.305 h 0.253559 v 0.2067 h -0.253559 v 0.4644 H 68.41684 v -0.4644 h -0.928797 v -0.19568 q 0.129535,-0.14607 0.261827,-0.31143 0.132291,-0.16675 0.252181,-0.33762 0.121267,-0.17088 0.223242,-0.34038 0.103353,-0.17088 0.173633,-0.32659 z m -0.897102,1.305 h 0.67386 v -0.96738 q -0.103353,0.18052 -0.195681,0.32246 -0.09233,0.14193 -0.176389,0.25769 -0.08268,0.11575 -0.158474,0.20946 -0.07579,0.0937 -0.143316,0.17777 z"
         style="stroke-width:0.26458332"
         id="path2029"
         inkscape:connector-curvature="0" />
    </g>
    <g
       aria-label="6"
       style="font-style:normal;font-variant:normal;font-weight:normal;font-stretch:normal;font-size:2.82222223px;line-height:1.25;font-family:'Yu Gothic UI';-inkscape-font-specification:'Yu Gothic UI';letter-spacing:0px;word-spacing:0px;fill:#ffffff;fill-opacity:1;stroke:none;stroke-width:0.26458332"
       id="text2040"
       transform="translate(-63.486844,52.087684)">
      <path
         d="m 83.958289,211.67322 q 0,0.1447 -0.04685,0.26597 -0.04685,0.12126 -0.129535,0.20946 -0.08268,0.0882 -0.19706,0.1378 -0.114377,0.0482 -0.248047,0.0482 -0.148828,0 -0.267339,-0.062 -0.117133,-0.062 -0.199816,-0.17777 -0.0813,-0.11713 -0.124023,-0.28525 -0.04272,-0.16812 -0.04272,-0.37896 0,-0.25769 0.0565,-0.46716 0.05788,-0.21083 0.162609,-0.35966 0.106109,-0.15021 0.254937,-0.23151 0.148828,-0.0813 0.332107,-0.0813 0.20395,0 0.327973,0.0565 v 0.2136 q -0.152962,-0.0786 -0.322461,-0.0786 -0.132292,0 -0.2384,0.0593 -0.106109,0.0592 -0.181902,0.16812 -0.07579,0.10748 -0.117133,0.26045 -0.03996,0.15296 -0.03996,0.34037 h 0.0055 q 0.136426,-0.24667 0.450619,-0.24667 0.129535,0 0.232888,0.0441 0.104731,0.0441 0.177767,0.1254 0.07441,0.0799 0.114377,0.19155 0.03996,0.11162 0.03996,0.24804 z m -0.23151,0.0289 q 0,-0.10335 -0.02618,-0.18603 -0.02618,-0.0827 -0.07579,-0.14056 -0.04823,-0.0579 -0.119889,-0.0882 -0.07166,-0.0317 -0.162609,-0.0317 -0.08406,0 -0.155718,0.0317 -0.07166,0.0317 -0.124023,0.0868 -0.05237,0.0537 -0.08268,0.12678 -0.02894,0.0717 -0.02894,0.15296 0,0.10198 0.02894,0.19155 0.02894,0.0882 0.08131,0.15434 0.05236,0.0661 0.124023,0.10473 0.07304,0.0372 0.16123,0.0372 0.08544,0 0.155719,-0.0317 0.07028,-0.0331 0.119889,-0.0909 0.04961,-0.0579 0.07717,-0.1378 0.02756,-0.0813 0.02756,-0.17915 z"
         style="stroke-width:0.26458332"
         id="path2056"
         inkscape:connector-curvature="0" />
    </g>
    <g
       aria-label="7"
       style="font-style:normal;font-variant:normal;font-weight:normal;font-stretch:normal;font-size:2.82222223px;line-height:1.25;font-family:'Yu Gothic UI';-inkscape-font-specification:'Yu Gothic UI';letter-spacing:0px;word-spacing:0px;fill:#ffffff;fill-opacity:1;stroke:none;stroke-width:0.26458332"
       id="text2044"
       transform="translate(-71.423658,63.176613)">
      <path
         d="m 91.895793,210.48812 q -0.04547,0.0785 -0.110243,0.19568 -0.06339,0.11713 -0.135047,0.26321 -0.07166,0.14607 -0.146072,0.31419 -0.07441,0.16812 -0.139182,0.34726 -0.06477,0.17915 -0.114377,0.36381 -0.04823,0.18328 -0.07028,0.36104 h -0.242535 q 0.02481,-0.17639 0.07579,-0.35966 0.05237,-0.18466 0.117133,-0.36105 0.06615,-0.17777 0.139182,-0.34175 0.07304,-0.16399 0.141938,-0.30179 0.0689,-0.13781 0.125402,-0.24254 0.05788,-0.10611 0.09233,-0.16536 h -0.990809 v -0.20395 h 1.25677 z"
         style="stroke-width:0.26458332"
         id="path2053"
         inkscape:connector-curvature="0" />
    </g>
    <g
       aria-label="8"
       style="font-style:normal;font-variant:normal;font-weight:normal;font-stretch:normal;font-size:2.82222223px;line-height:1.25;font-family:'Yu Gothic UI';-inkscape-font-specification:'Yu Gothic UI';letter-spacing:0px;word-spacing:0px;fill:#ffffff;fill-opacity:1;stroke:none;stroke-width:0.26458332"
       id="text2048"
       transform="translate(-79.358457,74.317337)">
      <path
         d="m 98.561432,211.74906 q 0,-0.0786 0.02481,-0.1571 0.02481,-0.0799 0.07028,-0.14883 0.04685,-0.0689 0.114377,-0.1254 0.0689,-0.0565 0.155719,-0.0896 -0.128158,-0.0717 -0.20395,-0.18328 -0.07579,-0.113 -0.07579,-0.24942 0,-0.10887 0.04134,-0.2012 0.04272,-0.0923 0.117133,-0.15985 0.07441,-0.0675 0.176389,-0.10473 0.101975,-0.0386 0.220486,-0.0386 0.119893,0 0.221873,0.0386 0.10197,0.0386 0.17638,0.10611 0.0744,0.0675 0.11576,0.15985 0.0413,0.0923 0.0413,0.19982 0,0.13642 -0.07579,0.24942 -0.0758,0.11162 -0.2012,0.18328 0.0854,0.0331 0.15297,0.0896 0.0675,0.0565 0.113,0.1254 0.04689,0.0689 0.07169,0.14883 0.0248,0.0786 0.0248,0.1571 0,0.12953 -0.04689,0.23702 -0.04689,0.10749 -0.132288,0.18466 -0.0841,0.0758 -0.20257,0.11851 -0.11713,0.0427 -0.259073,0.0427 -0.14056,0 -0.257693,-0.0427 -0.117133,-0.0427 -0.202572,-0.11851 -0.08544,-0.0772 -0.133669,-0.18466 -0.04685,-0.10749 -0.04685,-0.23702 z m 0.245291,-0.0193 q 0,0.0923 0.02756,0.16674 0.02894,0.0744 0.07993,0.12678 0.05237,0.0524 0.125402,0.0813 0.07441,0.0276 0.163986,0.0276 0.08682,0 0.159848,-0.0289 0.073,-0.0289 0.1254,-0.0813 0.0537,-0.0524 0.0827,-0.12678 0.0303,-0.0744 0.0303,-0.16536 0,-0.0827 -0.0289,-0.15435 -0.0276,-0.073 -0.0799,-0.12815 -0.0524,-0.0551 -0.1254,-0.0868 -0.073,-0.0317 -0.163988,-0.0317 -0.08544,0 -0.158474,0.0303 -0.07166,0.0289 -0.125402,0.0827 -0.05237,0.0524 -0.08268,0.12677 -0.03032,0.073 -0.03032,0.16124 z m 0.07028,-0.9164 q 0,0.0703 0.02481,0.13091 0.02618,0.0593 0.07028,0.10473 0.04547,0.0441 0.104731,0.0703 0.05926,0.0248 0.126779,0.0248 0.06752,0 0.126776,-0.0262 0.0606,-0.0262 0.10473,-0.0703 0.0441,-0.0455 0.0703,-0.10473 0.0262,-0.0606 0.0262,-0.12954 0,-0.0717 -0.0262,-0.13229 -0.0248,-0.0606 -0.0689,-0.10473 -0.0441,-0.0441 -0.10473,-0.0689 -0.0593,-0.0262 -0.128156,-0.0262 -0.07304,0 -0.133669,0.0262 -0.05926,0.0262 -0.103353,0.0717 -0.04272,0.0441 -0.06615,0.10473 -0.02343,0.0606 -0.02343,0.12954 z"
         style="stroke-width:0.26458332"
         id="path2050"
         inkscape:connector-curvature="0" />
    </g>
    <text
       xml:space="preserve"
       style="font-style:normal;font-variant:normal;font-weight:normal;font-stretch:normal;font-size:2.82222223px;line-height:1.25;font-family:'Yu Gothic UI';-inkscape-font-specification:'Yu Gothic UI';letter-spacing:0px;word-spacing:0px;fill:#ffffff;fill-opacity:1;stroke:none;stroke-width:0.26458332"
       x="125.67708"
       y="200.42706"
       id="text2037"><tspan
         sodipodi:role="line"
         id="tspan2035"
         x="125.67708"
         y="202.96919"
         style="stroke-width:0.26458332" /></text>
    <text
       xml:space="preserve"
       style="font-style:normal;font-variant:normal;font-weight:normal;font-stretch:normal;font-size:2.82222223px;line-height:1.25;font-family:'Yu Gothic UI';-inkscape-font-specification:'Yu Gothic UI';letter-spacing:0px;word-spacing:0px;fill:#ffffff;fill-opacity:1;stroke:none;stroke-width:0.26458332"
       x="202.40625"
       y="207.04166"
       id="text1435"><tspan
         sodipodi:role="line"
         id="tspan1433"
         x="202.40625"
         y="209.58379"
         style="stroke-width:0.26458332" /></text>
    <text
       xml:space="preserve"
       style="font-style:normal;font-variant:normal;font-weight:normal;font-stretch:normal;font-size:2.82222223px;line-height:1.25;font-family:'Yu Gothic UI';-inkscape-font-specification:'Yu Gothic UI';letter-spacing:0px;word-spacing:0px;fill:#ffffff;fill-opacity:1;stroke:none;stroke-width:0.26458332"
       x="17.197916"
       y="205.71873"
       id="text1967"><tspan
         sodipodi:role="line"
         id="tspan1965"
         x="17.197916"
         y="208.26086"
         style="stroke-width:0.26458332" /></text>
    <text
       xml:space="preserve"
       style="font-style:normal;font-variant:normal;font-weight:normal;font-stretch:normal;font-size:2.82222223px;line-height:1.25;font-family:'Yu Gothic UI';-inkscape-font-specification:'Yu Gothic UI';letter-spacing:0px;word-spacing:0px;fill:#ffffff;fill-opacity:1;stroke:none;stroke-width:0.26458332"
       x="-2.6458333"
       y="230.85416"
       id="text998"><tspan
         sodipodi:role="line"
         id="tspan996"
         x="-2.6458333"
         y="233.39629"
         style="stroke-width:0.26458332" /></text>
    <g
       aria-label="G"
       style="font-style:normal;font-variant:normal;font-weight:normal;font-stretch:normal;font-size:2.11666656px;line-height:1.25;font-family:'Yu Gothic UI';-inkscape-font-specification:'Yu Gothic UI';letter-spacing:0px;word-spacing:0px;fill:#ffffff;fill-opacity:1;stroke:none;stroke-width:0.26458332"
       id="text3977"
       transform="translate(-4.0859271,0.42712247)">
      <path
         d="m 8.1814126,208.52786 q -0.2232421,0.1261 -0.4960937,0.1261 -0.3172933,0 -0.5136637,-0.20464 -0.1953369,-0.20464 -0.1953369,-0.54157 0,-0.34417 0.217041,-0.56431 0.2180745,-0.22117 0.5519043,-0.22117 0.2418457,0 0.4061767,0.0785 v 0.19224 q -0.179834,-0.11369 -0.4258138,-0.11369 -0.2490804,0 -0.4082438,0.17157 -0.1591634,0.17156 -0.1591634,0.44442 0,0.28111 0.1477946,0.44235 0.1477946,0.16019 0.4010091,0.16019 0.1736328,0 0.3007568,-0.0692 v -0.41548 h -0.324528 v -0.1571 h 0.4981608 z"
         style="font-size:2.11666656px;stroke-width:0.26458332"
         id="path3998"
         inkscape:connector-curvature="0" />
    </g>
    <g
       aria-label="T"
       style="font-style:normal;font-variant:normal;font-weight:normal;font-stretch:normal;font-size:2.11666656px;line-height:1.25;font-family:'Yu Gothic UI';-inkscape-font-specification:'Yu Gothic UI';letter-spacing:0px;word-spacing:0px;fill:#ffffff;fill-opacity:1;stroke:none;stroke-width:0.26458332"
       id="text3981"
       transform="translate(-3.466797,-1.3214868)">
      <path
         sodipodi:type="inkscape:offset"
         inkscape:radius="0"
         inkscape:original="M 10.890625 207.41211 L 10.890625 207.56836 L 11.316406 207.56836 L 11.316406 208.89453 L 11.490234 208.89453 L 11.490234 207.56836 L 11.917969 207.56836 L 11.917969 207.41211 L 10.890625 207.41211 z "
         style="font-size:2.11666656px;stroke-width:0.26458332"
         id="path4001"
         d="m 10.890625,207.41211 v 0.15625 h 0.425781 v 1.32617 h 0.173828 v -1.32617 h 0.427735 v -0.15625 z" />
    </g>
    <g
       aria-label="GC"
       style="font-style:normal;font-variant:normal;font-weight:normal;font-stretch:normal;font-size:2.11666656px;line-height:1.25;font-family:'Yu Gothic UI';-inkscape-font-specification:'Yu Gothic UI';letter-spacing:0px;word-spacing:0px;fill:#ffffff;fill-opacity:1;stroke:none;stroke-width:0.26458332"
       id="text3989"
       transform="translate(-2.9952088,1.4854725)">
      <path
         d="m 15.589745,207.46953 q -0.223242,0.12609 -0.496093,0.12609 -0.317294,0 -0.513664,-0.20464 -0.195337,-0.20464 -0.195337,-0.54157 0,-0.34416 0.217041,-0.5643 0.218075,-0.22118 0.551904,-0.22118 0.241846,0 0.406177,0.0786 v 0.19224 q -0.179834,-0.11369 -0.425814,-0.11369 -0.24908,0 -0.408243,0.17156 -0.159164,0.17157 -0.159164,0.44442 0,0.28112 0.147795,0.44235 0.147794,0.1602 0.401009,0.1602 0.173633,0 0.300757,-0.0693 v -0.41548 h -0.324528 v -0.15709 h 0.49816 z"
         style="font-size:2.11666656px;stroke-width:0.26458332"
         id="path4004"
         inkscape:connector-curvature="0" />
      <path
         d="m 16.941601,207.5088 q -0.164331,0.0868 -0.409277,0.0868 -0.31626,0 -0.50643,-0.2036 -0.190169,-0.20361 -0.190169,-0.53434 0,-0.35553 0.213941,-0.57464 0.21394,-0.21911 0.542602,-0.21911 0.21084,0 0.349333,0.061 v 0.185 q -0.159164,-0.0889 -0.3514,-0.0889 -0.255281,0 -0.414445,0.17053 -0.15813,0.17053 -0.15813,0.45579 0,0.27078 0.147795,0.43201 0.148828,0.1602 0.38964,0.1602 0.223242,0 0.38654,-0.0992 z"
         style="font-size:2.11666656px;stroke-width:0.26458332"
         id="path4006"
         inkscape:connector-curvature="0" />
    </g>
    <path
       id="path2151"
       d="m 1.6717373,231.65921 c 0,-0.0423 0,-0.0847 -0.02117,-0.127 0,-0.0212 -0.02117,-0.0423 -0.04233,-0.0847 -0.04233,-0.0212 -0.0635,-0.0212 -0.08467,-0.0423 -0.04233,0 -0.08467,-0.0212 -0.126999,-0.0212 -0.02117,0 -0.0635,0.0212 -0.08467,0.0212 -0.04233,0 -0.0635,0.0212 -0.1058321,0.0423 -0.02117,0 -0.04233,0.0212 -0.08467,0.0423 -0.02117,0.0212 -0.04233,0.0635 -0.0635,0.0847 v -0.1905 c 0.04233,-0.0423 0.08467,-0.0847 0.148166,-0.10584 0.0635,-0.0212 0.1269991,-0.0212 0.2116651,-0.0212 0.0635,0 0.126999,0 0.169332,0.0212 0.0635,0.0212 0.105832,0.0423 0.148165,0.0635 0.04233,0.0423 0.0635,0.0847 0.08467,0.127 0.02117,0.0635 0.04233,0.10584 0.04233,0.16934 0,0.0635 -0.02117,0.12699 -0.02117,0.16933 -0.02117,0.0423 -0.04233,0.0847 -0.0635,0.127 -0.04233,0.0423 -0.0635,0.0847 -0.105832,0.127 -0.04233,0.0423 -0.08467,0.0847 -0.148166,0.12699 -0.0635,0.0423 -0.126999,0.0847 -0.169332,0.127 -0.04233,0.0212 -0.08467,0.0635 -0.105832,0.0847 -0.04233,0.0423 -0.04233,0.0635 -0.0635,0.10583 0,0.0212 -0.02117,0.0635 -0.02117,0.10583 h 0.740827 v 0.14817 H 0.99438901 v -0.0847 c 0,-0.0635 0,-0.10583 0.02117,-0.16933 0.02117,-0.0423 0.04233,-0.0847 0.0635,-0.127 0.04233,-0.0423 0.08467,-0.0847 0.1269991,-0.127 0.0635,-0.0423 0.1058331,-0.10583 0.1904991,-0.14816 0.0635,-0.0423 0.105833,-0.0847 0.126999,-0.10583 0.04233,-0.0423 0.0635,-0.0847 0.08467,-0.10584 0.04233,-0.0423 0.04233,-0.0847 0.0635,-0.10583 0,-0.0423 0,-0.0847 0,-0.127 z"
       style="display:inline;fill:#ffffff;fill-opacity:1;fill-rule:nonzero;stroke:none;stroke-width:0.26458332"
       inkscape:connector-curvature="0" />
    <path
       id="path2153"
       d="m 5.5452084,222.87511 v 0.99483 h 0.1904979 v 0.14816 H 5.5452084 v 0.33867 H 5.3758764 V 224.0181 H 4.6773815 v -0.14816 c 0.0635,-0.0635 0.1269989,-0.14817 0.1904989,-0.23284 0.0635,-0.0847 0.1269989,-0.16933 0.1904982,-0.25399 0.0635,-0.0847 0.1269989,-0.16934 0.169332,-0.254 0.0635,-0.0847 0.1058328,-0.16933 0.1269989,-0.254 z m -0.677328,0.99483 h 0.507996 v -0.74083 c -0.0635,0.10583 -0.105833,0.16933 -0.1481658,0.254 -0.04233,0.0635 -0.08467,0.127 -0.1269992,0.19049 -0.04233,0.0635 -0.08467,0.10584 -0.126999,0.14817 -0.04233,0.0635 -0.0635,0.10583 -0.105832,0.14817 z"
       style="display:inline;fill:#ffffff;fill-opacity:1;fill-rule:nonzero;stroke:none;stroke-width:0.26458332"
       inkscape:connector-curvature="0" />
    <path
       id="path2155"
       d="m 14.54098,227.44708 c 0,0.0847 0,0.14816 -0.02117,0.21166 -0.04233,0.0423 -0.0635,0.10583 -0.105833,0.14817 -0.04233,0.0423 -0.08467,0.0847 -0.148165,0.10583 -0.0635,0.0212 -0.126999,0.0423 -0.190499,0.0423 -0.0635,0 -0.148165,-0.0212 -0.190499,-0.0635 -0.0635,-0.0212 -0.105832,-0.0635 -0.148165,-0.127 -0.04233,-0.0635 -0.08467,-0.127 -0.105833,-0.21166 -0.02117,-0.0847 -0.02117,-0.1905 -0.02117,-0.27517 0,-0.14816 0,-0.25399 0.04233,-0.35983 0.02117,-0.10583 0.0635,-0.19049 0.105833,-0.27516 0.0635,-0.0635 0.126998,-0.127 0.190498,-0.16933 0.08467,-0.0423 0.169332,-0.0635 0.253998,-0.0635 0.105833,0 0.190499,0.0212 0.253998,0.0423 v 0.16933 c -0.08467,-0.0423 -0.169332,-0.0635 -0.253998,-0.0635 -0.0635,0 -0.105832,0.0212 -0.169332,0.0423 -0.04233,0.0212 -0.105832,0.0635 -0.126999,0.127 -0.04233,0.0635 -0.08467,0.12699 -0.105833,0.19049 -0.02117,0.0847 -0.02117,0.16934 -0.02117,0.254 v 0 c 0.0635,-0.127 0.190499,-0.16933 0.338664,-0.16933 0.0635,0 0.126999,0 0.169332,0.0212 0.0635,0.0212 0.105833,0.0635 0.148166,0.10583 0.02117,0.0212 0.0635,0.0847 0.08467,0.127 0.02117,0.0635 0.02117,0.127 0.02117,0.1905 z m -0.169332,0.0212 c 0,-0.0423 0,-0.10583 -0.02117,-0.127 -0.02117,-0.0423 -0.02117,-0.0847 -0.0635,-0.10583 -0.02117,-0.0423 -0.04233,-0.0635 -0.08467,-0.0847 -0.04233,0 -0.0635,-0.0212 -0.126999,-0.0212 -0.04233,0 -0.0635,0.0212 -0.105832,0.0212 -0.04233,0.0212 -0.0635,0.0423 -0.105833,0.0847 -0.02117,0.0212 -0.04233,0.0423 -0.04233,0.0847 -0.02117,0.0423 -0.04233,0.0635 -0.04233,0.10583 0,0.0635 0.02117,0.10583 0.04233,0.14817 0,0.0423 0.02117,0.0847 0.04233,0.12699 0.04233,0.0212 0.0635,0.0423 0.105833,0.0635 0.04233,0.0212 0.0635,0.0423 0.126999,0.0423 0.04233,0 0.0635,-0.0212 0.105832,-0.0212 0.04233,-0.0212 0.0635,-0.0423 0.08467,-0.0847 0.02117,-0.0212 0.04233,-0.0635 0.0635,-0.10583 0.02117,-0.0212 0.02117,-0.0847 0.02117,-0.127 z"
       style="display:inline;fill:#ffffff;fill-opacity:1;fill-rule:nonzero;stroke:none;stroke-width:0.26458332"
       inkscape:connector-curvature="0" />
    <path
       id="path2157"
       d="m 10.667508,236.50634 c 0,-0.0423 0.02117,-0.0847 0.02117,-0.127 0.02117,-0.0423 0.04233,-0.0635 0.0635,-0.10583 0.02117,-0.0423 0.04233,-0.0635 0.08467,-0.0847 0.02117,-0.0423 0.0635,-0.0635 0.105833,-0.0847 -0.0635,-0.0212 -0.105833,-0.0635 -0.148165,-0.127 -0.04233,-0.0635 -0.0635,-0.127 -0.0635,-0.1905 0,-0.0635 0.02117,-0.10583 0.04233,-0.14816 0.02117,-0.0423 0.04233,-0.0847 0.08467,-0.127 0.04233,-0.0212 0.08467,-0.0635 0.126999,-0.0635 0.0635,-0.0212 0.105832,-0.0423 0.169332,-0.0423 0.0635,0 0.105832,0.0212 0.169332,0.0423 0.04233,0 0.08467,0.0423 0.126999,0.0635 0.04233,0.0423 0.0635,0.0847 0.08467,0.127 0.02117,0.0423 0.04233,0.10583 0.04233,0.14816 0,0.0635 -0.02117,0.127 -0.0635,0.1905 -0.04233,0.0635 -0.08467,0.10583 -0.148165,0.127 0.04233,0.0212 0.08467,0.0423 0.105832,0.0847 0.04233,0.0212 0.0635,0.0423 0.08467,0.0847 0.02117,0.0423 0.04233,0.0635 0.0635,0.10583 0,0.0423 0.02117,0.0847 0.02117,0.127 0,0.0635 -0.02117,0.127 -0.04233,0.16933 -0.02117,0.0635 -0.0635,0.10584 -0.105832,0.14817 -0.04233,0.0423 -0.08467,0.0635 -0.148166,0.0847 -0.0635,0.0212 -0.126999,0.0212 -0.190498,0.0212 -0.0635,0 -0.126999,0 -0.1905,-0.0212 -0.0635,-0.0212 -0.105832,-0.0423 -0.148165,-0.0847 -0.04233,-0.0423 -0.08467,-0.0847 -0.105833,-0.14817 -0.02117,-0.0423 -0.04233,-0.10583 -0.04233,-0.16933 z m 0.190499,-0.0212 c 0,0.0423 0,0.0847 0.02117,0.127 0.02117,0.0423 0.04233,0.0635 0.0635,0.10583 0.02117,0.0212 0.04233,0.0423 0.08467,0.0423 0.04233,0.0212 0.08467,0.0212 0.126999,0.0212 0.04233,0 0.08467,0 0.126999,-0.0212 0.02117,0 0.0635,-0.0212 0.08467,-0.0635 0.02117,-0.0212 0.04233,-0.0423 0.0635,-0.0847 0.02117,-0.0423 0.02117,-0.0847 0.02117,-0.127 0,-0.0423 0,-0.0847 -0.02117,-0.10584 -0.02117,-0.0423 -0.02117,-0.0847 -0.0635,-0.10583 -0.02117,-0.0212 -0.04233,-0.0423 -0.08467,-0.0635 -0.04233,-0.0212 -0.08467,-0.0212 -0.126999,-0.0212 -0.04233,0 -0.08467,0 -0.126999,0.0212 -0.02117,0.0212 -0.0635,0.0423 -0.08467,0.0635 -0.02117,0.0212 -0.04233,0.0635 -0.0635,0.0847 -0.02117,0.0423 -0.02117,0.0847 -0.02117,0.127 z m 0.04233,-0.67733 c 0,0.0212 0.02117,0.0635 0.02117,0.0847 0.02117,0.0423 0.04233,0.0635 0.0635,0.0847 0.02117,0.0212 0.04233,0.0423 0.08467,0.0635 0.02117,0 0.04233,0 0.08467,0 0.04233,0 0.0635,0 0.105832,-0.0212 0.02117,0 0.04233,-0.0212 0.0635,-0.0423 0.02117,-0.0212 0.04233,-0.0423 0.0635,-0.0847 0,-0.0212 0.02117,-0.0635 0.02117,-0.0847 0,-0.0423 -0.02117,-0.0847 -0.02117,-0.10583 -0.02117,-0.0212 -0.04233,-0.0635 -0.0635,-0.0847 -0.02117,-0.0212 -0.04233,-0.0423 -0.0635,-0.0423 -0.04233,-0.0212 -0.0635,-0.0212 -0.105832,-0.0212 -0.04233,0 -0.0635,0 -0.105833,0.0212 -0.02117,0 -0.04233,0.0212 -0.0635,0.0423 -0.02117,0.0212 -0.04233,0.0635 -0.0635,0.0847 0,0.0423 -0.02117,0.0635 -0.02117,0.10583 z"
       style="display:inline;fill:#ffffff;fill-opacity:1;fill-rule:nonzero;stroke:none;stroke-width:0.26458332"
       inkscape:connector-curvature="0" />
    <path
       id="path2159"
       d="m 4.8043804,236.90851 h -0.169332 v -1.29116 c -0.021169,0.0212 -0.04233,0.0423 -0.0635,0.0423 -0.021169,0.0212 -0.04233,0.0423 -0.08467,0.0635 -0.021169,0.0212 -0.0635,0.0212 -0.1058331,0.0423 -0.021169,0.0212 -0.0635,0.0212 -0.08467,0.0423 v -0.16933 c 0.021169,-0.0212 0.0635,-0.0423 0.105833,-0.0423 0.04233,-0.0212 0.08467,-0.0423 0.126999,-0.0635 0.04233,-0.0212 0.08467,-0.0423 0.105832,-0.0635 0.04233,-0.0423 0.08467,-0.0635 0.1058331,-0.0847 h 0.0635 z"
       style="display:inline;fill:#ffffff;fill-opacity:1;fill-rule:nonzero;stroke:none;stroke-width:0.26458332"
       inkscape:connector-curvature="0" />
    <path
       id="path2161"
       d="m 2.2855653,227.57408 c 0,0.0635 0,0.12699 -0.04233,0.16933 -0.02117,0.0635 -0.04233,0.10583 -0.105832,0.14816 -0.04233,0.0423 -0.08467,0.0635 -0.148166,0.0847 -0.0635,0.0212 -0.148165,0.0423 -0.211665,0.0423 -0.148165,0 -0.2539981,-0.0423 -0.3386641,-0.0847 v -0.1905 c 0.08467,0.0847 0.211665,0.127 0.3386641,0.127 0.04233,0 0.105833,-0.0212 0.148166,-0.0212 0.02117,-0.0212 0.0635,-0.0423 0.105832,-0.0635 0.02117,-0.0212 0.04233,-0.0423 0.0635,-0.0847 0.02117,-0.0423 0.02117,-0.0847 0.02117,-0.12699 0,-0.1905 -0.126998,-0.27517 -0.423329,-0.27517 h -0.105833 v -0.14816 h 0.105832 c 0.253998,0 0.359831,-0.10584 0.359831,-0.27517 0,-0.16933 -0.08467,-0.254 -0.275165,-0.254 -0.105832,0 -0.190498,0.0423 -0.296331,0.10584 v -0.16934 c 0.105833,-0.0423 0.211665,-0.0847 0.338664,-0.0847 0.0635,0 0.126999,0.0212 0.169332,0.0212 0.0635,0.0212 0.105832,0.0423 0.126998,0.0847 0.04233,0.0212 0.0635,0.0635 0.08467,0.10583 0.02117,0.0423 0.04233,0.0847 0.04233,0.14817 0,0.1905 -0.105832,0.3175 -0.29633,0.38099 v 0 c 0.04233,0 0.08467,0.0212 0.126998,0.0423 0.04233,0 0.08467,0.0423 0.126999,0.0635 0.02117,0.0212 0.04233,0.0635 0.0635,0.10583 0.02117,0.0423 0.02117,0.0847 0.02117,0.14817 z"
       style="display:inline;fill:#ffffff;fill-opacity:1;fill-rule:nonzero;stroke:none;stroke-width:0.26458332"
       inkscape:connector-curvature="0" />
    <path
       id="path2163"
       d="m 10.942673,223.91227 c 0,0.0847 0,0.14816 -0.02117,0.1905 -0.04233,0.0635 -0.0635,0.127 -0.126999,0.16933 -0.04233,0.0423 -0.08467,0.0635 -0.148166,0.0847 -0.0635,0.0212 -0.148165,0.0423 -0.232831,0.0423 -0.126999,0 -0.232833,-0.0212 -0.296333,-0.0635 v -0.1905 c 0.105834,0.0635 0.211667,0.10583 0.317499,0.10583 0.04233,0 0.08467,0 0.126999,-0.0212 0.04233,-0.0212 0.08467,-0.0423 0.126999,-0.0635 0.02117,-0.0423 0.04233,-0.0635 0.0635,-0.10584 0.02117,-0.0423 0.02117,-0.0847 0.02117,-0.12699 0,-0.10584 -0.02117,-0.16934 -0.105832,-0.23284 -0.0635,-0.0635 -0.148166,-0.0847 -0.275165,-0.0847 -0.02117,0 -0.04233,0 -0.0635,0 -0.02117,0 -0.04233,0 -0.0635,0 -0.02117,0 -0.04233,0 -0.0635,0 -0.02117,0 -0.04233,0.0212 -0.0635,0.0212 l 0.0635,-0.74082 h 0.677328 v 0.14816 h -0.529161 l -0.04233,0.42333 c 0.02117,0 0.04233,0 0.08467,0 0.02117,0 0.04233,0 0.0635,0 0.0635,0 0.148165,0.0212 0.211665,0.0423 0.0635,0.0212 0.105832,0.0423 0.148165,0.0847 0.04233,0.0423 0.08467,0.0847 0.105833,0.127 0.02117,0.0635 0.02117,0.127 0.02117,0.1905 z"
       style="display:inline;fill:#ffffff;fill-opacity:1;fill-rule:nonzero;stroke:none;stroke-width:0.26458332"
       inkscape:connector-curvature="0" />
    <path
       id="path2165"
       d="m 14.816145,231.38405 c -0.02117,0.0423 -0.0635,0.0847 -0.08467,0.14816 -0.04233,0.0635 -0.0635,0.127 -0.105833,0.1905 -0.04233,0.0847 -0.0635,0.14817 -0.105832,0.23283 -0.04233,0.0847 -0.08467,0.16933 -0.105833,0.27517 -0.04233,0.0847 -0.0635,0.16933 -0.08467,0.254 -0.02117,0.10583 -0.04233,0.19049 -0.0635,0.27516 h -0.169323 c 0,-0.0847 0.02117,-0.16933 0.04233,-0.254 0.04233,-0.10583 0.0635,-0.1905 0.105832,-0.27516 0.02117,-0.0847 0.0635,-0.1905 0.105833,-0.254 0.02117,-0.0847 0.0635,-0.16933 0.105832,-0.23283 0.02117,-0.0635 0.0635,-0.127 0.08467,-0.1905 0.02117,-0.0423 0.04233,-0.0847 0.0635,-0.127 h -0.740828 v -0.14817 h 0.952493 z"
       style="display:inline;fill:#ffffff;fill-opacity:1;fill-rule:nonzero;stroke:none;stroke-width:0.26458332"
       inkscape:connector-curvature="0" />
    <path
       d="m 14.609187,212.25756 q -0.164332,0.0868 -0.409278,0.0868 -0.31626,0 -0.506429,-0.2036 -0.190169,-0.20361 -0.190169,-0.53434 0,-0.35553 0.21394,-0.57464 0.213941,-0.21911 0.542603,-0.21911 0.21084,0 0.349333,0.061 v 0.185 q -0.159164,-0.0889 -0.3514,-0.0889 -0.255282,0 -0.414445,0.17053 -0.15813,0.17054 -0.15813,0.45579 0,0.27078 0.147795,0.43201 0.148828,0.1602 0.38964,0.1602 0.223242,0 0.38654,-0.0992 z"
       style="font-style:normal;font-variant:normal;font-weight:normal;font-stretch:normal;font-size:2.11666656px;line-height:1.25;font-family:'Yu Gothic UI';-inkscape-font-specification:'Yu Gothic UI';letter-spacing:0px;word-spacing:0px;fill:#ffffff;fill-opacity:1;stroke:none;stroke-width:0.26458332"
       id="path4136"
       inkscape:connector-curvature="0" />
    <g
       aria-label="O"
       style="font-style:normal;font-variant:normal;font-weight:normal;font-stretch:normal;font-size:2.11666656px;line-height:1.25;font-family:'Yu Gothic UI';-inkscape-font-specification:'Yu Gothic UI';letter-spacing:0px;word-spacing:0px;fill:#ffffff;fill-opacity:1;stroke:none;stroke-width:0.26458332"
       id="text4154"
       transform="translate(1.0583333,2.3674763)">
      <path
         d="m 0.52709958,209.97688 q -0.31522622,0 -0.50539548,-0.20774 -0.18913573,-0.20774 -0.18913573,-0.54054 0,-0.3576 0.19326984,-0.57051 0.19326985,-0.2129 0.52606606,-0.2129 0.30695799,0 0.49402663,0.2067 0.1881022,0.20671 0.1881022,0.54054 0,0.36277 -0.1922363,0.57361 -0.1922363,0.21084 -0.51469722,0.21084 z m 0.0124023,-1.3746 q -0.23357746,0 -0.37930499,0.16847 -0.14572753,0.16846 -0.14572753,0.44235 0,0.27388 0.14159342,0.44132 0.14262694,0.16639 0.37103676,0.16639 0.24391275,0 0.38447264,-0.15916 0.14055992,-0.15916 0.14055992,-0.44545 0,-0.29352 -0.13642581,-0.45372 -0.13642577,-0.1602 -0.37620441,-0.1602 z"
         style="font-size:2.11666656px;stroke-width:0.26458332"
         id="path4156"
         inkscape:connector-curvature="0" />
    </g>
    <text
       xml:space="preserve"
       style="font-style:normal;font-variant:normal;font-weight:normal;font-stretch:normal;font-size:2.82222223px;line-height:1.25;font-family:'Yu Gothic UI';-inkscape-font-specification:'Yu Gothic UI';letter-spacing:0px;word-spacing:0px;fill:#ffffff;fill-opacity:1;stroke:none;stroke-width:0.26458332"
       x="5.2916665"
       y="218.94791"
       id="text4276"><tspan
         sodipodi:role="line"
         id="tspan4274"
         x="5.2916665"
         y="221.49004"
         style="stroke-width:0.26458332" /></text>
    <g
       id="g1114"
       transform="translate(-2.9361501)">
      <path
         d="m 6.4594456,221.52415 v -0.24789 q 0.040784,0.0375 0.09717,0.0676 0.057586,0.0301 0.1199625,0.0513 0.063584,0.02 0.1271601,0.0312 0.063584,0.0113 0.1175624,0.0113 0.1859418,0 0.2771132,-0.0714 0.092371,-0.0726 0.092371,-0.20783 0,-0.0726 -0.031191,-0.12645 -0.02999,-0.0539 -0.083971,-0.0977 -0.053982,-0.0451 -0.1283605,-0.0851 -0.073177,-0.0413 -0.1583503,-0.0864 -0.089971,-0.0476 -0.167947,-0.0964 -0.077973,-0.0488 -0.1355572,-0.10766 -0.057586,-0.0589 -0.091171,-0.13271 -0.032392,-0.0751 -0.032392,-0.17527 0,-0.12269 0.051579,-0.21284 0.051588,-0.0914 0.1355581,-0.15024 0.083971,-0.0589 0.19074,-0.0877 0.1079658,-0.0288 0.2195312,-0.0288 0.2543201,0 0.3706838,0.0639 v 0.23662 q -0.1523523,-0.11017 -0.3910777,-0.11017 -0.065978,0 -0.1319585,0.015 -0.065977,0.0138 -0.1175633,0.0463 -0.051588,0.0325 -0.083971,0.0839 -0.032392,0.0513 -0.032392,0.12519 0,0.0689 0.023992,0.11894 0.025193,0.0501 0.073177,0.0914 0.047984,0.0413 0.1163629,0.0801 0.069581,0.0388 0.1595499,0.0851 0.092371,0.0476 0.1751454,0.10015 0.082779,0.0526 0.1451548,0.11644 0.062382,0.0639 0.098369,0.14147 0.037189,0.0776 0.037189,0.17778 0,0.1327 -0.050386,0.22534 -0.049185,0.0914 -0.1343576,0.14899 -0.083971,0.0576 -0.1943389,0.0827 -0.1103658,0.0263 -0.2327275,0.0263 -0.040784,0 -0.1007682,-0.007 -0.059979,-0.006 -0.1223617,-0.0201 -0.062382,-0.0125 -0.1187621,-0.0313 -0.055183,-0.0201 -0.088772,-0.0438 z"
         style="font-style:normal;font-variant:normal;font-weight:normal;font-stretch:normal;font-size:2.82222223px;line-height:1.25;font-family:'Yu Gothic UI';-inkscape-font-specification:'Yu Gothic UI';letter-spacing:0px;word-spacing:0px;fill:#ffffff;fill-opacity:1;stroke:none;stroke-width:0.23529874"
         id="path4345"
         inkscape:connector-curvature="0" />
      <path
         d="m 8.5383932,221.62681 q -0.3658855,0 -0.5866162,-0.25165 -0.2195312,-0.25163 -0.2195312,-0.65477 0,-0.43318 0.2243304,-0.69109 0.2243295,-0.25789 0.610608,-0.25789 0.356288,0 0.5734199,0.25038 0.2183316,0.2504 0.2183316,0.65478 0,0.43944 -0.2231299,0.69484 -0.22313,0.2554 -0.5974126,0.2554 z m 0.014399,-1.66511 q -0.2711153,0 -0.4402619,0.20407 -0.1691474,0.20407 -0.1691474,0.53584 0,0.33177 0.1643482,0.53459 0.1655487,0.20157 0.4306651,0.20157 0.2831112,0 0.4462598,-0.1928 0.1631495,-0.19281 0.1631495,-0.53961 0,-0.35555 -0.1583502,-0.54961 -0.1583512,-0.19405 -0.4366631,-0.19405 z"
         style="font-style:normal;font-variant:normal;font-weight:normal;font-stretch:normal;font-size:2.82222223px;line-height:1.25;font-family:'Yu Gothic UI';-inkscape-font-specification:'Yu Gothic UI';letter-spacing:0px;word-spacing:0px;fill:#ffffff;fill-opacity:1;stroke:none;stroke-width:0.23529874"
         id="path4347"
         inkscape:connector-curvature="0" />
      <path
         d="m 10.955635,220.87062 q 0,0.75619 -0.653794,0.75619 -0.6262039,0 -0.6262039,-0.72739 v -1.09797 h 0.2015364 v 1.0842 q 0,0.55212 0.4462595,0.55212 0.430665,0 0.430665,-0.53334 v -1.10298 h 0.201537 z"
         style="font-style:normal;font-variant:normal;font-weight:normal;font-stretch:normal;font-size:2.82222223px;line-height:1.25;font-family:'Yu Gothic UI';-inkscape-font-specification:'Yu Gothic UI';letter-spacing:0px;word-spacing:0px;fill:#ffffff;fill-opacity:1;stroke:none;stroke-width:0.23529874"
         id="path4349"
         inkscape:connector-curvature="0" />
      <path
         d="m 12.619514,221.59677 h -0.239925 l -0.28791,-0.50329 q -0.03958,-0.0701 -0.07677,-0.11894 -0.03719,-0.0501 -0.07677,-0.0814 -0.03839,-0.0313 -0.08397,-0.0451 -0.04439,-0.015 -0.100768,-0.015 h -0.165548 v 0.76371 H 11.38631 v -1.79532 h 0.51344 q 0.112764,0 0.207534,0.0301 0.09597,0.0288 0.165549,0.0889 0.07077,0.06 0.110365,0.15024 0.03958,0.0889 0.03958,0.20908 0,0.0939 -0.02759,0.17277 -0.0264,0.0776 -0.07677,0.13897 -0.04918,0.0613 -0.119963,0.10517 -0.06958,0.0426 -0.15715,0.0663 v 0.005 q 0.04319,0.02 0.07438,0.0463 0.03239,0.0251 0.06118,0.0601 0.02879,0.0351 0.05639,0.0801 0.02879,0.0438 0.06358,0.10266 z m -1.031677,-1.60502 v 0.65102 h 0.273515 q 0.07558,0 0.139156,-0.0238 0.06478,-0.0238 0.111564,-0.0676 0.04678,-0.0451 0.07318,-0.10891 0.02639,-0.0651 0.02639,-0.14524 0,-0.14397 -0.08997,-0.2241 -0.08877,-0.0814 -0.257918,-0.0814 z"
         style="font-style:normal;font-variant:normal;font-weight:normal;font-stretch:normal;font-size:2.82222223px;line-height:1.25;font-family:'Yu Gothic UI';-inkscape-font-specification:'Yu Gothic UI';letter-spacing:0px;word-spacing:0px;fill:#ffffff;fill-opacity:1;stroke:none;stroke-width:0.23529874"
         id="path4351"
         inkscape:connector-curvature="0" />
      <path
         d="m 14.001479,221.52164 q -0.19074,0.10517 -0.475051,0.10517 -0.367084,0 -0.587815,-0.24663 -0.22073,-0.24664 -0.22073,-0.64727 0,-0.43068 0.248321,-0.69609 0.248322,-0.26541 0.629803,-0.26541 0.244723,0 0.405472,0.0739 v 0.2241 q -0.184741,-0.10767 -0.407872,-0.10767 -0.296306,0 -0.481049,0.20657 -0.183542,0.20658 -0.183542,0.55212 0,0.32802 0.171546,0.52332 0.172746,0.19406 0.452258,0.19406 0.259119,0 0.448659,-0.1202 z"
         style="font-style:normal;font-variant:normal;font-weight:normal;font-stretch:normal;font-size:2.82222223px;line-height:1.25;font-family:'Yu Gothic UI';-inkscape-font-specification:'Yu Gothic UI';letter-spacing:0px;word-spacing:0px;fill:#ffffff;fill-opacity:1;stroke:none;stroke-width:0.23529874"
         id="path4353"
         inkscape:connector-curvature="0" />
      <path
         d="M 15.263484,221.59677 H 14.35177 v -1.79532 h 0.873326 v 0.1903 h -0.67179 v 0.59719 h 0.621406 v 0.18904 h -0.621406 v 0.62848 h 0.710178 z"
         style="font-style:normal;font-variant:normal;font-weight:normal;font-stretch:normal;font-size:2.82222223px;line-height:1.25;font-family:'Yu Gothic UI';-inkscape-font-specification:'Yu Gothic UI';letter-spacing:0px;word-spacing:0px;fill:#ffffff;fill-opacity:1;stroke:none;stroke-width:0.23529874"
         id="path4355"
         inkscape:connector-curvature="0" />
    </g>
    <path
       style="fill:none;stroke:#ffffff;stroke-width:0.26458332px;stroke-linecap:butt;stroke-linejoin:miter;stroke-opacity:1"
       d="M 3.96875,204.13124 H 1.3229166 v 1.5875"
       id="path4362"
       inkscape:connector-curvature="0" />
    <path
       style="fill:none;stroke:#ffffff;stroke-width:0.26458332px;stroke-linecap:butt;stroke-linejoin:miter;stroke-opacity:1"
       d="m 11.90625,204.13124 h 2.645833 v 1.5875"
       id="path4364"
       inkscape:connector-curvature="0" />
    <path
       inkscape:connector-curvature="0"
       id="path4376"
       d="m 10.583333,239.11118 -9.2141635,0.0156 v -1.55975"
       style="fill:none;stroke:#ffffff;stroke-width:0.3ffffff1;stroke-linecap:butt;stroke-linejoin:miter;stroke-miterlimit:4;stroke-dasharray:none;stroke-opacity:1"
       sodipodi:nodetypes="ccc" />
    <path
       inkscape:connector-curvature="0"
       id="path4378"
       d="m 10.583333,239.11118 3.922497,0.0156 v -1.55975"
       style="fill:none;stroke:#ffffff;stroke-width:0.3ffffff1;stroke-linecap:butt;stroke-linejoin:miter;stroke-miterlimit:4;stroke-dasharray:none;stroke-opacity:1"
       sodipodi:nodetypes="ccc" />
    <g
       aria-label="CRGX-LOG"
       style="font-style:normal;font-variant:normal;font-weight:600;font-stretch:normal;font-size:3.52777767px;line-height:1.25;font-family:'Yu Gothic UI';-inkscape-font-specification:'Yu Gothic UI Semi-Bold';letter-spacing:0px;word-spacing:0px;fill:#ffffff;fill-opacity:1;stroke:none;stroke-width:0.26458332"
       id="text1019"
       transform="translate(-27.062946,-3.0447766)">
      <path
         d="m 40.392021,202.96955 q -0.279053,0.1447 -0.694187,0.1447 -0.537435,0 -0.861274,-0.33934 -0.323839,-0.33935 -0.323839,-0.89056 0,-0.59256 0.363458,-0.95774 0.36518,-0.36518 0.921563,-0.36518 0.35829,0 0.594279,0.10163 v 0.40652 q -0.24977,-0.14814 -0.551216,-0.14814 -0.401353,0 -0.651123,0.25666 -0.248046,0.25666 -0.248046,0.68558 0,0.40824 0.232543,0.65112 0.232544,0.24116 0.611505,0.24116 0.349677,0 0.606337,-0.16537 z"
         style="font-style:normal;font-variant:normal;font-weight:600;font-stretch:normal;font-size:3.52777767px;font-family:'Yu Gothic UI';-inkscape-font-specification:'Yu Gothic UI Semi-Bold';stroke-width:0.26458332"
         id="path1022"
         inkscape:connector-curvature="0" />
      <path
         d="m 42.769136,203.07291 h -0.478868 l -0.394463,-0.66146 q -0.0534,-0.0913 -0.105076,-0.15503 -0.04995,-0.0655 -0.103353,-0.1068 -0.05168,-0.0413 -0.113688,-0.0603 -0.06201,-0.0189 -0.139526,-0.0189 h -0.165365 v 1.00253 h -0.408243 v -2.47014 h 0.813042 q 0.173977,0 0.320394,0.0413 0.146417,0.0413 0.254937,0.12575 0.108521,0.0827 0.16881,0.20843 0.06201,0.12402 0.06201,0.29111 0,0.13091 -0.03962,0.24116 -0.0379,0.10852 -0.110243,0.19464 -0.07062,0.0844 -0.172255,0.1447 -0.09991,0.0603 -0.225654,0.093 v 0.007 q 0.06718,0.0379 0.117133,0.0844 0.04995,0.0448 0.09474,0.093 0.04479,0.0482 0.08785,0.11024 0.04479,0.0603 0.09819,0.14125 z m -1.500339,-2.13769 v 0.80271 h 0.341065 q 0.09474,0 0.173977,-0.0293 0.08096,-0.0293 0.139526,-0.0844 0.05857,-0.0551 0.0913,-0.13435 0.03273,-0.0792 0.03273,-0.17743 0,-0.17742 -0.111966,-0.27733 -0.111965,-0.0999 -0.322116,-0.0999 z"
         style="font-style:normal;font-variant:normal;font-weight:600;font-stretch:normal;font-size:3.52777767px;font-family:'Yu Gothic UI';-inkscape-font-specification:'Yu Gothic UI Semi-Bold';stroke-width:0.26458332"
         id="path1024"
         inkscape:connector-curvature="0" />
      <path
         d="m 44.951604,202.9041 q -0.38585,0.21015 -0.859551,0.21015 -0.54777,0 -0.887112,-0.34107 -0.339342,-0.34106 -0.339342,-0.90261 0,-0.57361 0.370348,-0.94051 0.37207,-0.36863 0.943956,-0.36863 0.411689,0 0.692464,0.12058 v 0.42202 q -0.28422,-0.18948 -0.676961,-0.18948 -0.394464,0 -0.647678,0.26011 -0.251492,0.2601 -0.251492,0.67352 0,0.42546 0.217041,0.67007 0.217041,0.24288 0.589111,0.24288 0.254937,0 0.440972,-0.0982 v -0.58739 h -0.520209 v -0.34451 h 0.928453 z"
         style="font-style:normal;font-variant:normal;font-weight:600;font-stretch:normal;font-size:3.52777767px;font-family:'Yu Gothic UI';-inkscape-font-specification:'Yu Gothic UI Semi-Bold';stroke-width:0.26458332"
         id="path1026"
         inkscape:connector-curvature="0" />
      <path
         d="m 47.330443,203.07291 h -0.490926 l -0.506429,-0.90606 q -0.02239,-0.0413 -0.04995,-0.11714 h -0.0069 q -0.0155,0.0379 -0.05168,0.11714 l -0.521932,0.90606 h -0.494371 l 0.809598,-1.24196 -0.744141,-1.22818 h 0.501261 l 0.44614,0.83372 q 0.04306,0.0827 0.07751,0.16536 h 0.0052 q 0.04995,-0.10852 0.08613,-0.17225 l 0.463365,-0.82683 h 0.461643 l -0.761366,1.22473 z"
         style="font-style:normal;font-variant:normal;font-weight:600;font-stretch:normal;font-size:3.52777767px;font-family:'Yu Gothic UI';-inkscape-font-specification:'Yu Gothic UI Semi-Bold';stroke-width:0.26458332"
         id="path1028"
         inkscape:connector-curvature="0" />
      <path
         d="m 48.482827,202.25642 h -0.940511 v -0.29456 h 0.940511 z"
         style="font-style:normal;font-variant:normal;font-weight:600;font-stretch:normal;font-size:3.52777767px;font-family:'Yu Gothic UI';-inkscape-font-specification:'Yu Gothic UI Semi-Bold';stroke-width:0.26458332"
         id="path1030"
         inkscape:connector-curvature="0" />
      <path
         d="M 50.386243,203.07291 H 49.01854 v -2.47014 h 0.409966 v 2.1239 h 0.957737 z"
         style="font-style:normal;font-variant:normal;font-weight:600;font-stretch:normal;font-size:3.52777767px;font-family:'Yu Gothic UI';-inkscape-font-specification:'Yu Gothic UI Semi-Bold';stroke-width:0.26458332"
         id="path1032"
         inkscape:connector-curvature="0" />
      <path
         d="m 51.724661,203.11425 q -0.533989,0 -0.856106,-0.34623 -0.320394,-0.34624 -0.320394,-0.9009 0,-0.596 0.327284,-0.95084 0.327285,-0.35485 0.888835,-0.35485 0.520209,0 0.837158,0.34451 0.318672,0.34451 0.318672,0.90089 0,0.60462 -0.325562,0.95602 -0.325561,0.3514 -0.869887,0.3514 z m 0.01895,-2.19281 q -0.339341,0 -0.552937,0.25322 -0.211874,0.25321 -0.211874,0.66662 0,0.41169 0.206706,0.66319 0.206706,0.25149 0.54088,0.25149 0.354845,0 0.559828,-0.23944 0.204983,-0.23943 0.204983,-0.67007 0,-0.44269 -0.199815,-0.68385 -0.198093,-0.24116 -0.547771,-0.24116 z"
         style="font-style:normal;font-variant:normal;font-weight:600;font-stretch:normal;font-size:3.52777767px;font-family:'Yu Gothic UI';-inkscape-font-specification:'Yu Gothic UI Semi-Bold';stroke-width:0.26458332"
         id="path1034"
         inkscape:connector-curvature="0" />
      <path
         d="m 55.300671,202.9041 q -0.385851,0.21015 -0.859552,0.21015 -0.54777,0 -0.887112,-0.34107 -0.339342,-0.34106 -0.339342,-0.90261 0,-0.57361 0.370348,-0.94051 0.37207,-0.36863 0.943956,-0.36863 0.411689,0 0.692464,0.12058 v 0.42202 q -0.28422,-0.18948 -0.676961,-0.18948 -0.394463,0 -0.647678,0.26011 -0.251492,0.2601 -0.251492,0.67352 0,0.42546 0.217041,0.67007 0.217041,0.24288 0.589112,0.24288 0.254937,0 0.440972,-0.0982 v -0.58739 h -0.52021 v -0.34451 h 0.928454 z"
         style="font-style:normal;font-variant:normal;font-weight:600;font-stretch:normal;font-size:3.52777767px;font-family:'Yu Gothic UI';-inkscape-font-specification:'Yu Gothic UI Semi-Bold';stroke-width:0.26458332"
         id="path1036"
         inkscape:connector-curvature="0" />
    </g>
    <g
       aria-label="SYNC"
       style="font-style:normal;font-variant:normal;font-weight:normal;font-stretch:normal;font-size:2.82222223px;line-height:1.25;font-family:'Yu Gothic UI';-inkscape-font-specification:'Yu Gothic UI';letter-spacing:0px;word-spacing:0px;fill:#ffffff;fill-opacity:1;stroke:none;stroke-width:0.26458332"
       id="text1041"
       transform="translate(0.49975375,2.036874)">
      <path
         d="m 4.1354926,202.99298 v -0.27285 q 0.046853,0.0413 0.1116211,0.0744 0.066146,0.0331 0.1378038,0.0565 0.073036,0.022 0.1460721,0.0344 0.073036,0.0124 0.1350477,0.0124 0.2135959,0 0.3183269,-0.0786 0.1061089,-0.0799 0.1061089,-0.22876 0,-0.0799 -0.035829,-0.13918 -0.034451,-0.0593 -0.096463,-0.10749 -0.062012,-0.0496 -0.1474501,-0.0937 -0.08406,-0.0455 -0.181901,-0.0951 -0.1033529,-0.0524 -0.1929254,-0.10611 -0.089572,-0.0537 -0.1557183,-0.11851 -0.066146,-0.0648 -0.1047309,-0.14607 -0.037207,-0.0827 -0.037207,-0.19292 0,-0.13505 0.059256,-0.23427 0.059256,-0.1006 0.1557184,-0.16537 0.096463,-0.0648 0.219108,-0.0965 0.1240235,-0.0317 0.252181,-0.0317 0.2921441,0 0.4258138,0.0703 v 0.26045 q -0.1750108,-0.12127 -0.4492404,-0.12127 -0.075792,0 -0.1515842,0.0165 -0.075792,0.0152 -0.1350478,0.051 -0.059256,0.0358 -0.096463,0.0923 -0.037207,0.0565 -0.037207,0.1378 0,0.0758 0.027561,0.13092 0.028939,0.0551 0.08406,0.1006 0.055122,0.0455 0.1336697,0.0882 0.079926,0.0427 0.1832791,0.0937 0.1061089,0.0524 0.2011936,0.11024 0.095085,0.0579 0.1667426,0.12816 0.071658,0.0703 0.1129991,0.15572 0.042719,0.0854 0.042719,0.19568 0,0.14607 -0.057878,0.24804 -0.0565,0.1006 -0.1543403,0.16399 -0.096463,0.0634 -0.2232422,0.091 -0.1267795,0.0289 -0.2673394,0.0289 -0.046853,0 -0.1157552,-0.008 -0.068902,-0.007 -0.1405599,-0.0221 -0.071658,-0.0138 -0.1364258,-0.0344 -0.06339,-0.0221 -0.1019748,-0.0482 z"
         style="stroke-width:0.26458332"
         id="path1043"
         inkscape:connector-curvature="0" />
      <path
         d="m 6.9838976,201.0968 -0.6518121,1.24575 v 0.73036 H 6.1005751 v -0.72485 L 5.4652995,201.0968 h 0.2632053 l 0.4423502,0.89297 q 0.00827,0.0165 0.048231,0.12127 h 0.00413 q 0.01378,-0.0469 0.052365,-0.12127 l 0.4630209,-0.89297 z"
         style="stroke-width:0.26458332"
         id="path1045"
         inkscape:connector-curvature="0" />
      <path
         d="M 8.8525173,203.07291 H 8.5686414 l -1.0169922,-1.5751 q -0.038585,-0.0593 -0.06339,-0.12402 h -0.00827 q 0.011024,0.0634 0.011024,0.27147 v 1.42765 H 7.2595051 v -1.97611 h 0.3004123 l 0.9894315,1.55029 q 0.062012,0.0965 0.079926,0.13229 h 0.00551 q -0.01378,-0.0854 -0.01378,-0.29076 v -1.39182 h 0.2315105 z"
         style="stroke-width:0.26458332"
         id="path1047"
         inkscape:connector-curvature="0" />
      <path
         d="m 10.715625,202.99022 q -0.219108,0.11576 -0.545703,0.11576 -0.4216799,0 -0.6752389,-0.27147 -0.253559,-0.27148 -0.253559,-0.71245 0,-0.47405 0.2852539,-0.76619 0.2852539,-0.29214 0.72347,-0.29214 0.28112,0 0.465777,0.0813 v 0.24667 q -0.212218,-0.11851 -0.468533,-0.11851 -0.3403755,0 -0.5525934,0.22737 -0.2108398,0.22738 -0.2108398,0.60772 0,0.36105 0.1970595,0.57602 0.1984375,0.2136 0.5195207,0.2136 0.297656,0 0.515386,-0.1323 z"
         style="stroke-width:0.26458332"
         id="path1050"
         inkscape:connector-curvature="0" />
    </g>
    <rect
       style="display:inline;opacity:1;fill:#214478;fill-opacity:1;stroke:none;stroke-width:0.37246022;stroke-linecap:round;stroke-linejoin:round;stroke-miterlimit:4;stroke-dasharray:none;stroke-dashoffset:0.79370081;stroke-opacity:1;paint-order:markers fill stroke"
       id="rect2027"
       width="10.583333"
       height="14.274066"
       x="2.6466918"
       y="253.6465"
       ry="0.015770774" />
    <rect
       ry="0.015785405"
       y="275.8642"
       x="2.6375232"
       height="14.287311"
       width="10.583333"
       id="rect2033"
       style="display:inline;opacity:1;fill:#214478;fill-opacity:1;stroke:none;stroke-width:0.37263298;stroke-linecap:round;stroke-linejoin:round;stroke-miterlimit:4;stroke-dasharray:none;stroke-dashoffset:0.79370081;stroke-opacity:1;paint-order:markers fill stroke" />
    <g
       aria-label="AND"
       style="font-style:normal;font-variant:normal;font-weight:normal;font-stretch:normal;font-size:2.82222223px;line-height:1.25;font-family:'Yu Gothic UI';-inkscape-font-specification:'Yu Gothic UI';letter-spacing:0px;word-spacing:0px;display:inline;fill:#ffffff;fill-opacity:1;stroke:none;stroke-width:0.26458332"
       id="text1059"
       transform="translate(-1.8717465,25.418758)">
      <path
         d="M 8.6678602,230.85416 H 8.4115451 L 8.2020833,230.30019 H 7.364236 l -0.1970594,0.55397 H 6.9094834 l 0.7579211,-1.97611 h 0.2397786 z m -0.541569,-0.76206 -0.3100586,-0.84198 q -0.015158,-0.0413 -0.030317,-0.13229 h -0.00551 q -0.01378,0.0841 -0.031695,0.13229 l -0.3073025,0.84198 z"
         style="stroke-width:0.26458332"
         id="path1061"
         inkscape:connector-curvature="0" />
      <path
         d="m 10.55026,230.85416 h -0.283876 l -1.0169917,-1.5751 q -0.038585,-0.0593 -0.06339,-0.12402 h -0.00827 q 0.011024,0.0634 0.011024,0.27147 v 1.42765 H 8.9572482 v -1.97611 h 0.3004123 l 0.9894315,1.55029 q 0.06201,0.0965 0.07993,0.13229 h 0.0055 q -0.01378,-0.0854 -0.01378,-0.29076 v -1.39182 h 0.23151 z"
         style="stroke-width:0.26458332"
         id="path1063"
         inkscape:connector-curvature="0" />
      <path
         d="m 11.068403,230.85416 v -1.97611 h 0.545703 q 1.044553,0 1.044553,0.96325 0,0.45751 -0.290766,0.73587 -0.289388,0.27699 -0.775836,0.27699 z m 0.23151,-1.76665 v 1.55718 h 0.2949 q 0.388607,0 0.604959,-0.20808 0.216352,-0.20808 0.216352,-0.5898 0,-0.7593 -0.80753,-0.7593 z"
         style="stroke-width:0.26458332"
         id="path1065"
         inkscape:connector-curvature="0" />
    </g>
    <g
       aria-label="OR"
       style="font-style:normal;font-variant:normal;font-weight:normal;font-stretch:normal;font-size:2.82222223px;line-height:1.25;font-family:'Yu Gothic UI';-inkscape-font-specification:'Yu Gothic UI';letter-spacing:0px;word-spacing:0px;display:inline;fill:#ffffff;fill-opacity:1;stroke:none;stroke-width:0.26458332"
       id="text1070"
       transform="translate(-0.93592085,25.96272)">
      <path
         d="m 7.9347439,252.58306 q -0.4203017,0 -0.6738607,-0.27698 -0.252181,-0.27699 -0.252181,-0.72072 0,-0.4768 0.2576931,-0.76068 0.2576932,-0.28387 0.7014215,-0.28387 0.4092773,0 0.6587022,0.27561 0.250803,0.2756 0.250803,0.72071 0,0.48369 -0.2563151,0.76481 -0.2563151,0.28112 -0.686263,0.28112 z m 0.016536,-1.83279 q -0.3114366,0 -0.50574,0.22462 -0.1943034,0.22462 -0.1943034,0.5898 0,0.36518 0.1887913,0.58842 0.1901692,0.22187 0.4947157,0.22187 0.325217,0 0.5126302,-0.21222 0.1874132,-0.21222 0.1874132,-0.59394 0,-0.39136 -0.1819011,-0.60495 -0.181901,-0.2136 -0.5016059,-0.2136 z"
         style="stroke-width:0.26458332"
         id="path1072"
         inkscape:connector-curvature="0" />
      <path
         d="m 10.682552,252.54999 h -0.275608 l -0.330729,-0.55397 Q 10.030745,251.91882 9.988021,251.8651 9.945302,251.81 9.899827,251.7755 9.85573,251.7411 9.803364,251.7259 9.752377,251.7094 9.6876088,251.7094 H 9.4974392 v 0.84061 H 9.2659288 v -1.97611 h 0.5898004 q 0.1295356,0 0.2384008,0.0331 0.110243,0.0317 0.190169,0.0978 0.0813,0.0661 0.12678,0.16537 0.04547,0.0978 0.04547,0.23013 0,0.10335 -0.0317,0.19017 -0.03032,0.0854 -0.08819,0.15296 -0.0565,0.0675 -0.137803,0.11576 -0.07993,0.0469 -0.180523,0.073 v 0.006 q 0.04961,0.0221 0.08544,0.051 0.03721,0.0276 0.07028,0.0662 0.03307,0.0386 0.06477,0.0882 0.03307,0.0482 0.07304,0.113 z m -1.1851128,-1.76665 v 0.71658 h 0.3141927 q 0.086816,0 0.1598525,-0.0262 0.074414,-0.0262 0.1281576,-0.0744 0.05374,-0.0496 0.08406,-0.11989 0.03032,-0.0717 0.03032,-0.15986 0,-0.15847 -0.103353,-0.24666 -0.101975,-0.0896 -0.296278,-0.0896 z"
         style="stroke-width:0.26458332"
         id="path1074-6"
         inkscape:connector-curvature="0" />
    </g>
  </g>
  <g
     inkscape:groupmode="layer"
     id="layer3"
     inkscape:label="Grid8"
     style="display:none"
     sodipodi:insensitive="true">
    <g
       transform="translate(23.812485,3.333209e-6)"
       style="display:inline"
       id="g1107">
      <path
         style="fill:none;stroke:#ffffff;stroke-width:0.05;stroke-linecap:butt;stroke-linejoin:miter;stroke-miterlimit:4;stroke-dasharray:none;stroke-opacity:1"
         d="m 7.9375,-1e-5 -3e-6,100.54167"
         id="path881"
         inkscape:connector-curvature="0"
         sodipodi:nodetypes="cc" />
      <path
         sodipodi:nodetypes="cc"
         inkscape:connector-curvature="0"
         id="path890"
         d="m 3.968752,0 -4e-6,100.54167"
         style="fill:none;stroke:#ffffff;stroke-width:0.05;stroke-linecap:butt;stroke-linejoin:miter;stroke-miterlimit:4;stroke-dasharray:none;stroke-opacity:1" />
      <path
         style="fill:none;stroke:#ffffff;stroke-width:0.05;stroke-linecap:butt;stroke-linejoin:miter;stroke-miterlimit:4;stroke-dasharray:none;stroke-opacity:1"
         d="m 11.906253,0 -4e-6,100.54167"
         id="path895"
         inkscape:connector-curvature="0"
         sodipodi:nodetypes="cc" />
      <path
         sodipodi:nodetypes="cc"
         inkscape:connector-curvature="0"
         id="path905"
         d="m 0,11.38648 15.875,-0.0094"
         style="fill:none;stroke:#ffffff;stroke-width:0.05;stroke-linecap:butt;stroke-linejoin:miter;stroke-miterlimit:4;stroke-dasharray:none;stroke-opacity:1" />
      <path
         sodipodi:nodetypes="cc"
         style="fill:none;stroke:#ffffff;stroke-width:0.05;stroke-linecap:butt;stroke-linejoin:miter;stroke-miterlimit:4;stroke-dasharray:none;stroke-opacity:1"
         d="m 0,22.49905 15.875,-0.0095"
         id="path907"
         inkscape:connector-curvature="0" />
      <path
         sodipodi:nodetypes="cc"
         inkscape:connector-curvature="0"
         id="path911"
         d="m 0,33.61162 15.875,-0.0095"
         style="fill:none;stroke:#ffffff;stroke-width:0.05;stroke-linecap:butt;stroke-linejoin:miter;stroke-miterlimit:4;stroke-dasharray:none;stroke-opacity:1" />
      <path
         sodipodi:nodetypes="cc"
         style="fill:none;stroke:#ffffff;stroke-width:0.05;stroke-linecap:butt;stroke-linejoin:miter;stroke-miterlimit:4;stroke-dasharray:none;stroke-opacity:1"
         d="m 0,44.72419 15.875,-0.0096"
         id="path917"
         inkscape:connector-curvature="0" />
      <path
         sodipodi:nodetypes="cc"
         inkscape:connector-curvature="0"
         id="path925"
         d="m 0,55.83676 15.875,-0.0097"
         style="fill:none;stroke:#ffffff;stroke-width:0.05;stroke-linecap:butt;stroke-linejoin:miter;stroke-miterlimit:4;stroke-dasharray:none;stroke-opacity:1" />
      <path
         sodipodi:nodetypes="cc"
         style="fill:none;stroke:#ffffff;stroke-width:0.05;stroke-linecap:butt;stroke-linejoin:miter;stroke-miterlimit:4;stroke-dasharray:none;stroke-opacity:1"
         d="m 0,66.94933 15.875,-0.0097"
         id="path935"
         inkscape:connector-curvature="0" />
      <path
         sodipodi:nodetypes="cc"
         inkscape:connector-curvature="0"
         id="path947"
         d="M 0,78.0619 15.875,78.0521"
         style="fill:none;stroke:#ffffff;stroke-width:0.05;stroke-linecap:butt;stroke-linejoin:miter;stroke-miterlimit:4;stroke-dasharray:none;stroke-opacity:1" />
      <circle
         r="4.0999999"
         cy="22.48922"
         cx="7.9347644"
         id="path1041"
         style="display:inline;opacity:1;fill:none;fill-opacity:1;stroke:#ffffff;stroke-width:0.05;stroke-linecap:square;stroke-linejoin:round;stroke-miterlimit:4;stroke-dasharray:none;stroke-dashoffset:0;stroke-opacity:1;paint-order:markers fill stroke" />
      <circle
         style="display:inline;opacity:1;fill:none;fill-opacity:1;stroke:#ffffff;stroke-width:0.05;stroke-linecap:square;stroke-linejoin:round;stroke-miterlimit:4;stroke-dasharray:none;stroke-dashoffset:0;stroke-opacity:1;paint-order:markers fill stroke"
         id="circle1054"
         cx="7.9347644"
         cy="44.720116"
         r="4.0999999" />
      <circle
         r="4.0999999"
         cy="33.607586"
         cx="7.9347644"
         id="circle1056"
         style="display:inline;opacity:1;fill:none;fill-opacity:1;stroke:#ffffff;stroke-width:0.05;stroke-linecap:square;stroke-linejoin:round;stroke-miterlimit:4;stroke-dasharray:none;stroke-dashoffset:0;stroke-opacity:1;paint-order:markers fill stroke" />
      <circle
         style="display:inline;opacity:1;fill:none;fill-opacity:1;stroke:#ffffff;stroke-width:0.05;stroke-linecap:square;stroke-linejoin:round;stroke-miterlimit:4;stroke-dasharray:none;stroke-dashoffset:0;stroke-opacity:1;paint-order:markers fill stroke"
         id="circle1058"
         cx="7.9347644"
         cy="66.939285"
         r="4.0999999" />
      <circle
         r="4.0999999"
         cy="55.832626"
         cx="7.9347644"
         id="circle1060"
         style="display:inline;opacity:1;fill:none;fill-opacity:1;stroke:#ffffff;stroke-width:0.05;stroke-linecap:square;stroke-linejoin:round;stroke-miterlimit:4;stroke-dasharray:none;stroke-dashoffset:0;stroke-opacity:1;paint-order:markers fill stroke" />
      <circle
         style="display:inline;opacity:1;fill:none;fill-opacity:1;stroke:#ffffff;stroke-width:0.05;stroke-linecap:square;stroke-linejoin:round;stroke-miterlimit:4;stroke-dasharray:none;stroke-dashoffset:0;stroke-opacity:1;paint-order:markers fill stroke"
         id="circle1064"
         cx="7.9347644"
         cy="78.05764"
         r="4.0999999" />
      <circle
         style="display:inline;opacity:1;fill:none;fill-opacity:1;stroke:#ffffff;stroke-width:0.05;stroke-linecap:square;stroke-linejoin:round;stroke-miterlimit:4;stroke-dasharray:none;stroke-dashoffset:0;stroke-opacity:1;paint-order:markers fill stroke"
         id="circle1052"
         cx="7.9347644"
         cy="11.38256"
         r="4.0999999" />
      <circle
         r="5.4741378"
         cy="11.377255"
         cx="7.9360795"
         id="circle924"
         style="display:inline;opacity:1;fill:none;fill-opacity:1;stroke:#ffffff;stroke-width:0.05172414;stroke-linecap:square;stroke-linejoin:round;stroke-miterlimit:4;stroke-dasharray:none;stroke-dashoffset:0;stroke-opacity:1;paint-order:markers fill stroke" />
      <circle
         style="display:inline;opacity:1;fill:none;fill-opacity:1;stroke:#ffffff;stroke-width:0.05172414;stroke-linecap:square;stroke-linejoin:round;stroke-miterlimit:4;stroke-dasharray:none;stroke-dashoffset:0;stroke-opacity:1;paint-order:markers fill stroke"
         id="circle955"
         cx="7.9360795"
         cy="22.490791"
         r="5.4741378" />
      <circle
         r="5.4741378"
         cy="33.603302"
         cx="7.9360795"
         id="circle957"
         style="display:inline;opacity:1;fill:none;fill-opacity:1;stroke:#ffffff;stroke-width:0.05172414;stroke-linecap:square;stroke-linejoin:round;stroke-miterlimit:4;stroke-dasharray:none;stroke-dashoffset:0;stroke-opacity:1;paint-order:markers fill stroke" />
      <circle
         style="display:inline;opacity:1;fill:none;fill-opacity:1;stroke:#ffffff;stroke-width:0.05172414;stroke-linecap:square;stroke-linejoin:round;stroke-miterlimit:4;stroke-dasharray:none;stroke-dashoffset:0;stroke-opacity:1;paint-order:markers fill stroke"
         id="circle959"
         cx="7.9360795"
         cy="44.715813"
         r="5.4741378" />
      <circle
         r="5.4741378"
         cy="55.828323"
         cx="7.9360795"
         id="circle961"
         style="display:inline;opacity:1;fill:none;fill-opacity:1;stroke:#ffffff;stroke-width:0.05172414;stroke-linecap:square;stroke-linejoin:round;stroke-miterlimit:4;stroke-dasharray:none;stroke-dashoffset:0;stroke-opacity:1;paint-order:markers fill stroke" />
      <circle
         style="display:inline;opacity:1;fill:none;fill-opacity:1;stroke:#ffffff;stroke-width:0.05172414;stroke-linecap:square;stroke-linejoin:round;stroke-miterlimit:4;stroke-dasharray:none;stroke-dashoffset:0;stroke-opacity:1;paint-order:markers fill stroke"
         id="circle963"
         cx="7.9360795"
         cy="66.940834"
         r="5.4741378" />
      <circle
         r="5.4741378"
         cy="78.053345"
         cx="7.9360795"
         id="circle965"
         style="display:inline;opacity:1;fill:none;fill-opacity:1;stroke:#ffffff;stroke-width:0.05172414;stroke-linecap:square;stroke-linejoin:round;stroke-miterlimit:4;stroke-dasharray:none;stroke-dashoffset:0;stroke-opacity:1;paint-order:markers fill stroke" />
      <path
         style="fill:none;stroke:#ffffff;stroke-width:0.05;stroke-linecap:butt;stroke-linejoin:miter;stroke-miterlimit:4;stroke-dasharray:none;stroke-opacity:1"
         d="m 0,89.174407 15.875,-0.0098"
         id="path1074"
         inkscape:connector-curvature="0"
         sodipodi:nodetypes="cc" />
      <circle
         r="4.0999999"
         cy="89.170151"
         cx="7.9347644"
         id="circle1076"
         style="display:inline;opacity:1;fill:none;fill-opacity:1;stroke:#ffffff;stroke-width:0.05;stroke-linecap:square;stroke-linejoin:round;stroke-miterlimit:4;stroke-dasharray:none;stroke-dashoffset:0;stroke-opacity:1;paint-order:markers fill stroke" />
      <circle
         style="display:inline;opacity:1;fill:none;fill-opacity:1;stroke:#ffffff;stroke-width:0.05172414;stroke-linecap:square;stroke-linejoin:round;stroke-miterlimit:4;stroke-dasharray:none;stroke-dashoffset:0;stroke-opacity:1;paint-order:markers fill stroke"
         id="circle1078"
         cx="7.9360795"
         cy="89.165855"
         r="5.4741378" />
    </g>
    <g
       id="g2361"
       style="display:inline"
       transform="translate(1.5433068e-5,3.333209e-6)">
      <path
         sodipodi:nodetypes="cc"
         inkscape:connector-curvature="0"
         id="path2307"
         d="m 7.9375,-1e-5 -3e-6,100.54167"
         style="fill:none;stroke:#ffffff;stroke-width:0.05;stroke-linecap:butt;stroke-linejoin:miter;stroke-miterlimit:4;stroke-dasharray:none;stroke-opacity:1" />
      <path
         style="fill:none;stroke:#ffffff;stroke-width:0.05;stroke-linecap:butt;stroke-linejoin:miter;stroke-miterlimit:4;stroke-dasharray:none;stroke-opacity:1"
         d="m 3.968752,0 -4e-6,100.54167"
         id="path2309"
         inkscape:connector-curvature="0"
         sodipodi:nodetypes="cc" />
      <path
         sodipodi:nodetypes="cc"
         inkscape:connector-curvature="0"
         id="path2311"
         d="m 11.906253,0 -4e-6,100.54167"
         style="fill:none;stroke:#ffffff;stroke-width:0.05;stroke-linecap:butt;stroke-linejoin:miter;stroke-miterlimit:4;stroke-dasharray:none;stroke-opacity:1" />
      <path
         style="fill:none;stroke:#ffffff;stroke-width:0.05;stroke-linecap:butt;stroke-linejoin:miter;stroke-miterlimit:4;stroke-dasharray:none;stroke-opacity:1"
         d="m 0,11.38648 15.875,-0.0094"
         id="path2313"
         inkscape:connector-curvature="0"
         sodipodi:nodetypes="cc" />
      <path
         inkscape:connector-curvature="0"
         id="path2315"
         d="m 0,22.49905 15.875,-0.0095"
         style="fill:none;stroke:#ffffff;stroke-width:0.05;stroke-linecap:butt;stroke-linejoin:miter;stroke-miterlimit:4;stroke-dasharray:none;stroke-opacity:1"
         sodipodi:nodetypes="cc" />
      <path
         style="fill:none;stroke:#ffffff;stroke-width:0.05;stroke-linecap:butt;stroke-linejoin:miter;stroke-miterlimit:4;stroke-dasharray:none;stroke-opacity:1"
         d="m 0,33.61162 15.875,-0.0095"
         id="path2317"
         inkscape:connector-curvature="0"
         sodipodi:nodetypes="cc" />
      <path
         inkscape:connector-curvature="0"
         id="path2319"
         d="m 0,44.72419 15.875,-0.0096"
         style="fill:none;stroke:#ffffff;stroke-width:0.05;stroke-linecap:butt;stroke-linejoin:miter;stroke-miterlimit:4;stroke-dasharray:none;stroke-opacity:1"
         sodipodi:nodetypes="cc" />
      <path
         style="fill:none;stroke:#ffffff;stroke-width:0.05;stroke-linecap:butt;stroke-linejoin:miter;stroke-miterlimit:4;stroke-dasharray:none;stroke-opacity:1"
         d="m 0,55.83676 15.875,-0.0097"
         id="path2321"
         inkscape:connector-curvature="0"
         sodipodi:nodetypes="cc" />
      <path
         inkscape:connector-curvature="0"
         id="path2323"
         d="m 0,66.94933 15.875,-0.0097"
         style="fill:none;stroke:#ffffff;stroke-width:0.05;stroke-linecap:butt;stroke-linejoin:miter;stroke-miterlimit:4;stroke-dasharray:none;stroke-opacity:1"
         sodipodi:nodetypes="cc" />
      <path
         style="fill:none;stroke:#ffffff;stroke-width:0.05;stroke-linecap:butt;stroke-linejoin:miter;stroke-miterlimit:4;stroke-dasharray:none;stroke-opacity:1"
         d="M 0,78.0619 15.875,78.0521"
         id="path2325"
         inkscape:connector-curvature="0"
         sodipodi:nodetypes="cc" />
      <circle
         style="display:inline;opacity:1;fill:none;fill-opacity:1;stroke:#ffffff;stroke-width:0.05;stroke-linecap:square;stroke-linejoin:round;stroke-miterlimit:4;stroke-dasharray:none;stroke-dashoffset:0;stroke-opacity:1;paint-order:markers fill stroke"
         id="circle2327"
         cx="7.9347644"
         cy="22.48922"
         r="4.0999999" />
      <circle
         r="4.0999999"
         cy="44.720116"
         cx="7.9347644"
         id="circle2329"
         style="display:inline;opacity:1;fill:none;fill-opacity:1;stroke:#ffffff;stroke-width:0.05;stroke-linecap:square;stroke-linejoin:round;stroke-miterlimit:4;stroke-dasharray:none;stroke-dashoffset:0;stroke-opacity:1;paint-order:markers fill stroke" />
      <circle
         style="display:inline;opacity:1;fill:none;fill-opacity:1;stroke:#ffffff;stroke-width:0.05;stroke-linecap:square;stroke-linejoin:round;stroke-miterlimit:4;stroke-dasharray:none;stroke-dashoffset:0;stroke-opacity:1;paint-order:markers fill stroke"
         id="circle2331"
         cx="7.9347644"
         cy="33.607586"
         r="4.0999999" />
      <circle
         r="4.0999999"
         cy="66.939285"
         cx="7.9347644"
         id="circle2333"
         style="display:inline;opacity:1;fill:none;fill-opacity:1;stroke:#ffffff;stroke-width:0.05;stroke-linecap:square;stroke-linejoin:round;stroke-miterlimit:4;stroke-dasharray:none;stroke-dashoffset:0;stroke-opacity:1;paint-order:markers fill stroke" />
      <circle
         style="display:inline;opacity:1;fill:none;fill-opacity:1;stroke:#ffffff;stroke-width:0.05;stroke-linecap:square;stroke-linejoin:round;stroke-miterlimit:4;stroke-dasharray:none;stroke-dashoffset:0;stroke-opacity:1;paint-order:markers fill stroke"
         id="circle2335"
         cx="7.9347644"
         cy="55.832626"
         r="4.0999999" />
      <circle
         r="4.0999999"
         cy="78.05764"
         cx="7.9347644"
         id="circle2337"
         style="display:inline;opacity:1;fill:none;fill-opacity:1;stroke:#ffffff;stroke-width:0.05;stroke-linecap:square;stroke-linejoin:round;stroke-miterlimit:4;stroke-dasharray:none;stroke-dashoffset:0;stroke-opacity:1;paint-order:markers fill stroke" />
      <circle
         r="4.0999999"
         cy="11.38256"
         cx="7.9347644"
         id="circle2339"
         style="display:inline;opacity:1;fill:none;fill-opacity:1;stroke:#ffffff;stroke-width:0.05;stroke-linecap:square;stroke-linejoin:round;stroke-miterlimit:4;stroke-dasharray:none;stroke-dashoffset:0;stroke-opacity:1;paint-order:markers fill stroke" />
      <circle
         style="display:inline;opacity:1;fill:none;fill-opacity:1;stroke:#ffffff;stroke-width:0.05172414;stroke-linecap:square;stroke-linejoin:round;stroke-miterlimit:4;stroke-dasharray:none;stroke-dashoffset:0;stroke-opacity:1;paint-order:markers fill stroke"
         id="circle2341"
         cx="7.9360795"
         cy="11.377255"
         r="5.4741378" />
      <circle
         r="5.4741378"
         cy="22.490791"
         cx="7.9360795"
         id="circle2343"
         style="display:inline;opacity:1;fill:none;fill-opacity:1;stroke:#ffffff;stroke-width:0.05172414;stroke-linecap:square;stroke-linejoin:round;stroke-miterlimit:4;stroke-dasharray:none;stroke-dashoffset:0;stroke-opacity:1;paint-order:markers fill stroke" />
      <circle
         style="display:inline;opacity:1;fill:none;fill-opacity:1;stroke:#ffffff;stroke-width:0.05172414;stroke-linecap:square;stroke-linejoin:round;stroke-miterlimit:4;stroke-dasharray:none;stroke-dashoffset:0;stroke-opacity:1;paint-order:markers fill stroke"
         id="circle2345"
         cx="7.9360795"
         cy="33.603302"
         r="5.4741378" />
      <circle
         r="5.4741378"
         cy="44.715813"
         cx="7.9360795"
         id="circle2347"
         style="display:inline;opacity:1;fill:none;fill-opacity:1;stroke:#ffffff;stroke-width:0.05172414;stroke-linecap:square;stroke-linejoin:round;stroke-miterlimit:4;stroke-dasharray:none;stroke-dashoffset:0;stroke-opacity:1;paint-order:markers fill stroke" />
      <circle
         style="display:inline;opacity:1;fill:none;fill-opacity:1;stroke:#ffffff;stroke-width:0.05172414;stroke-linecap:square;stroke-linejoin:round;stroke-miterlimit:4;stroke-dasharray:none;stroke-dashoffset:0;stroke-opacity:1;paint-order:markers fill stroke"
         id="circle2349"
         cx="7.9360795"
         cy="55.828323"
         r="5.4741378" />
      <circle
         r="5.4741378"
         cy="66.940834"
         cx="7.9360795"
         id="circle2351"
         style="display:inline;opacity:1;fill:none;fill-opacity:1;stroke:#ffffff;stroke-width:0.05172414;stroke-linecap:square;stroke-linejoin:round;stroke-miterlimit:4;stroke-dasharray:none;stroke-dashoffset:0;stroke-opacity:1;paint-order:markers fill stroke" />
      <circle
         style="display:inline;opacity:1;fill:none;fill-opacity:1;stroke:#ffffff;stroke-width:0.05172414;stroke-linecap:square;stroke-linejoin:round;stroke-miterlimit:4;stroke-dasharray:none;stroke-dashoffset:0;stroke-opacity:1;paint-order:markers fill stroke"
         id="circle2353"
         cx="7.9360795"
         cy="78.053345"
         r="5.4741378" />
      <path
         sodipodi:nodetypes="cc"
         inkscape:connector-curvature="0"
         id="path2355"
         d="m 0,89.174407 15.875,-0.0098"
         style="fill:none;stroke:#ffffff;stroke-width:0.05;stroke-linecap:butt;stroke-linejoin:miter;stroke-miterlimit:4;stroke-dasharray:none;stroke-opacity:1" />
      <circle
         style="display:inline;opacity:1;fill:none;fill-opacity:1;stroke:#ffffff;stroke-width:0.05;stroke-linecap:square;stroke-linejoin:round;stroke-miterlimit:4;stroke-dasharray:none;stroke-dashoffset:0;stroke-opacity:1;paint-order:markers fill stroke"
         id="circle2357"
         cx="7.9347644"
         cy="89.170151"
         r="4.0999999" />
      <circle
         r="5.4741378"
         cy="89.165855"
         cx="7.9360795"
         id="circle2359"
         style="display:inline;opacity:1;fill:none;fill-opacity:1;stroke:#ffffff;stroke-width:0.05172414;stroke-linecap:square;stroke-linejoin:round;stroke-miterlimit:4;stroke-dasharray:none;stroke-dashoffset:0;stroke-opacity:1;paint-order:markers fill stroke" />
    </g>
    <path
       style="fill:none;stroke:#ffffff;stroke-width:0.05;stroke-linecap:butt;stroke-linejoin:miter;stroke-miterlimit:4;stroke-dasharray:none;stroke-opacity:1"
       d="M 1.5433068e-5,5.826872 15.875015,5.817472"
       id="path4059"
       inkscape:connector-curvature="0"
       sodipodi:nodetypes="cc" />
    <path
       inkscape:connector-curvature="0"
       id="path4061"
       d="M 1.5433068e-5,16.939442 15.875015,16.929942"
       style="fill:none;stroke:#ffffff;stroke-width:0.05;stroke-linecap:butt;stroke-linejoin:miter;stroke-miterlimit:4;stroke-dasharray:none;stroke-opacity:1"
       sodipodi:nodetypes="cc" />
    <path
       style="fill:none;stroke:#ffffff;stroke-width:0.05;stroke-linecap:butt;stroke-linejoin:miter;stroke-miterlimit:4;stroke-dasharray:none;stroke-opacity:1"
       d="M 1.5433068e-5,28.052012 15.875015,28.042512"
       id="path4063"
       inkscape:connector-curvature="0"
       sodipodi:nodetypes="cc" />
    <path
       inkscape:connector-curvature="0"
       id="path4065"
       d="M 1.5433068e-5,39.164582 15.875015,39.154982"
       style="fill:none;stroke:#ffffff;stroke-width:0.05;stroke-linecap:butt;stroke-linejoin:miter;stroke-miterlimit:4;stroke-dasharray:none;stroke-opacity:1"
       sodipodi:nodetypes="cc" />
    <path
       style="fill:none;stroke:#ffffff;stroke-width:0.05;stroke-linecap:butt;stroke-linejoin:miter;stroke-miterlimit:4;stroke-dasharray:none;stroke-opacity:1"
       d="M 1.5433068e-5,50.277152 15.875015,50.267452"
       id="path4067"
       inkscape:connector-curvature="0"
       sodipodi:nodetypes="cc" />
    <path
       inkscape:connector-curvature="0"
       id="path4069"
       d="M 1.5433068e-5,61.389722 15.875015,61.380022"
       style="fill:none;stroke:#ffffff;stroke-width:0.05;stroke-linecap:butt;stroke-linejoin:miter;stroke-miterlimit:4;stroke-dasharray:none;stroke-opacity:1"
       sodipodi:nodetypes="cc" />
    <path
       style="fill:none;stroke:#ffffff;stroke-width:0.05;stroke-linecap:butt;stroke-linejoin:miter;stroke-miterlimit:4;stroke-dasharray:none;stroke-opacity:1"
       d="M 1.5433068e-5,72.502292 15.875015,72.492492"
       id="path4071"
       inkscape:connector-curvature="0"
       sodipodi:nodetypes="cc" />
    <circle
       style="display:inline;opacity:1;fill:none;fill-opacity:1;stroke:#ffffff;stroke-width:0.05;stroke-linecap:square;stroke-linejoin:round;stroke-miterlimit:4;stroke-dasharray:none;stroke-dashoffset:0;stroke-opacity:1;paint-order:markers fill stroke"
       id="circle4073"
       cx="7.9347796"
       cy="16.929611"
       r="4.0999999" />
    <circle
       r="4.0999999"
       cy="39.160507"
       cx="7.9347796"
       id="circle4075"
       style="display:inline;opacity:1;fill:none;fill-opacity:1;stroke:#ffffff;stroke-width:0.05;stroke-linecap:square;stroke-linejoin:round;stroke-miterlimit:4;stroke-dasharray:none;stroke-dashoffset:0;stroke-opacity:1;paint-order:markers fill stroke" />
    <circle
       style="display:inline;opacity:1;fill:none;fill-opacity:1;stroke:#ffffff;stroke-width:0.05;stroke-linecap:square;stroke-linejoin:round;stroke-miterlimit:4;stroke-dasharray:none;stroke-dashoffset:0;stroke-opacity:1;paint-order:markers fill stroke"
       id="circle4077"
       cx="7.9347796"
       cy="28.047977"
       r="4.0999999" />
    <circle
       r="4.0999999"
       cy="61.379677"
       cx="7.9347796"
       id="circle4079"
       style="display:inline;opacity:1;fill:none;fill-opacity:1;stroke:#ffffff;stroke-width:0.05;stroke-linecap:square;stroke-linejoin:round;stroke-miterlimit:4;stroke-dasharray:none;stroke-dashoffset:0;stroke-opacity:1;paint-order:markers fill stroke" />
    <circle
       style="display:inline;opacity:1;fill:none;fill-opacity:1;stroke:#ffffff;stroke-width:0.05;stroke-linecap:square;stroke-linejoin:round;stroke-miterlimit:4;stroke-dasharray:none;stroke-dashoffset:0;stroke-opacity:1;paint-order:markers fill stroke"
       id="circle4081"
       cx="7.9347796"
       cy="50.273018"
       r="4.0999999" />
    <circle
       r="4.0999999"
       cy="72.498032"
       cx="7.9347796"
       id="circle4083"
       style="display:inline;opacity:1;fill:none;fill-opacity:1;stroke:#ffffff;stroke-width:0.05;stroke-linecap:square;stroke-linejoin:round;stroke-miterlimit:4;stroke-dasharray:none;stroke-dashoffset:0;stroke-opacity:1;paint-order:markers fill stroke" />
    <circle
       r="5.4741378"
       cy="16.931183"
       cx="7.9360948"
       id="circle4089"
       style="display:inline;opacity:1;fill:none;fill-opacity:1;stroke:#ffffff;stroke-width:0.05172414;stroke-linecap:square;stroke-linejoin:round;stroke-miterlimit:4;stroke-dasharray:none;stroke-dashoffset:0;stroke-opacity:1;paint-order:markers fill stroke" />
    <circle
       style="display:inline;opacity:1;fill:none;fill-opacity:1;stroke:#ffffff;stroke-width:0.05172414;stroke-linecap:square;stroke-linejoin:round;stroke-miterlimit:4;stroke-dasharray:none;stroke-dashoffset:0;stroke-opacity:1;paint-order:markers fill stroke"
       id="circle4091"
       cx="7.9360948"
       cy="28.043694"
       r="5.4741378" />
    <circle
       r="5.4741378"
       cy="39.156204"
       cx="7.9360948"
       id="circle4093"
       style="display:inline;opacity:1;fill:none;fill-opacity:1;stroke:#ffffff;stroke-width:0.05172414;stroke-linecap:square;stroke-linejoin:round;stroke-miterlimit:4;stroke-dasharray:none;stroke-dashoffset:0;stroke-opacity:1;paint-order:markers fill stroke" />
    <circle
       style="display:inline;opacity:1;fill:none;fill-opacity:1;stroke:#ffffff;stroke-width:0.05172414;stroke-linecap:square;stroke-linejoin:round;stroke-miterlimit:4;stroke-dasharray:none;stroke-dashoffset:0;stroke-opacity:1;paint-order:markers fill stroke"
       id="circle4095"
       cx="7.9360948"
       cy="50.268715"
       r="5.4741378" />
    <circle
       r="5.4741378"
       cy="61.381226"
       cx="7.9360948"
       id="circle4097"
       style="display:inline;opacity:1;fill:none;fill-opacity:1;stroke:#ffffff;stroke-width:0.05172414;stroke-linecap:square;stroke-linejoin:round;stroke-miterlimit:4;stroke-dasharray:none;stroke-dashoffset:0;stroke-opacity:1;paint-order:markers fill stroke" />
    <circle
       style="display:inline;opacity:1;fill:none;fill-opacity:1;stroke:#ffffff;stroke-width:0.05172414;stroke-linecap:square;stroke-linejoin:round;stroke-miterlimit:4;stroke-dasharray:none;stroke-dashoffset:0;stroke-opacity:1;paint-order:markers fill stroke"
       id="circle4099"
       cx="7.9360948"
       cy="72.493736"
       r="5.4741378" />
    <path
       sodipodi:nodetypes="cc"
       inkscape:connector-curvature="0"
       id="path4101"
       d="M 1.5433068e-5,83.614799 15.875015,83.604999"
       style="fill:none;stroke:#ffffff;stroke-width:0.05;stroke-linecap:butt;stroke-linejoin:miter;stroke-miterlimit:4;stroke-dasharray:none;stroke-opacity:1" />
    <circle
       style="display:inline;opacity:1;fill:none;fill-opacity:1;stroke:#ffffff;stroke-width:0.05;stroke-linecap:square;stroke-linejoin:round;stroke-miterlimit:4;stroke-dasharray:none;stroke-dashoffset:0;stroke-opacity:1;paint-order:markers fill stroke"
       id="circle4103"
       cx="7.9347796"
       cy="83.610542"
       r="4.0999999" />
    <circle
       r="5.4741378"
       cy="83.606247"
       cx="7.9360948"
       id="circle4105"
       style="display:inline;opacity:1;fill:none;fill-opacity:1;stroke:#ffffff;stroke-width:0.05172414;stroke-linecap:square;stroke-linejoin:round;stroke-miterlimit:4;stroke-dasharray:none;stroke-dashoffset:0;stroke-opacity:1;paint-order:markers fill stroke" />
  </g>
</svg>
