<?xml version="1.0" encoding="UTF-8" standalone="no"?>
<!-- Created with Inkscape (http://www.inkscape.org/) -->

<svg
   xmlns:dc="http://purl.org/dc/elements/1.1/"
   xmlns:cc="http://creativecommons.org/ns#"
   xmlns:rdf="http://www.w3.org/1999/02/22-rdf-syntax-ns#"
   xmlns:svg="http://www.w3.org/2000/svg"
   xmlns="http://www.w3.org/2000/svg"
   xmlns:sodipodi="http://sodipodi.sourceforge.net/DTD/sodipodi-0.dtd"
   xmlns:inkscape="http://www.inkscape.org/namespaces/inkscape"
   width="120"
   height="380"
   viewBox="0 0 31.750002 100.54167"
   version="1.1"
   id="svg8"
   inkscape:version="0.92.5 (2060ec1f9f, 2020-04-08)"
   sodipodi:docname="PolyGateModifier.svg">
  <defs
     id="defs2" />
  <sodipodi:namedview
     id="base"
     pagecolor="#ffffff"
     bordercolor="#666666"
     borderopacity="1.0"
     inkscape:pageopacity="0.0"
     inkscape:pageshadow="2"
     inkscape:zoom="3.0442808"
     inkscape:cx="62.84285"
     inkscape:cy="255.55139"
     inkscape:document-units="mm"
     inkscape:current-layer="layer1"
     showgrid="true"
     units="px"
     inkscape:snap-bbox="true"
     inkscape:snap-page="true"
     inkscape:bbox-nodes="true"
     inkscape:snap-bbox-edge-midpoints="true"
     inkscape:window-width="1920"
     inkscape:window-height="1017"
     inkscape:window-x="-8"
     inkscape:window-y="-8"
     inkscape:window-maximized="1">
    <inkscape:grid
       type="xygrid"
       id="grid116" />
  </sodipodi:namedview>
  <metadata
     id="metadata5">
    <rdf:RDF>
      <cc:Work
         rdf:about="">
        <dc:format>image/svg+xml</dc:format>
        <dc:type
           rdf:resource="http://purl.org/dc/dcmitype/StillImage" />
        <dc:title />
      </cc:Work>
    </rdf:RDF>
  </metadata>
  <g
     inkscape:groupmode="layer"
     id="layer3"
     inkscape:label="Panel"
     style="display:inline"
     sodipodi:insensitive="true">
    <rect
       id="rect3855"
       width="31.75"
       height="100.54167"
       x="-3.3306691e-16"
       y="-7.0117189e-06"
       style="fill:#f36a1f;stroke-width:0.46816435" />
  </g>
  <g
     inkscape:label="Layer 1"
     inkscape:groupmode="layer"
     id="layer1"
     transform="translate(0,-196.45832)"
     style="display:inline">
    <rect
       y="276.62708"
       x="1.322917"
       height="12.435422"
       width="29.104166"
       id="rect1225"
       style="fill:#f3861f;stroke-width:0.19146641" />
    <g
       aria-label="/^M^\"
       style="font-style:normal;font-variant:normal;font-weight:normal;font-stretch:normal;font-size:2.82222223px;line-height:1.25;font-family:'Copperplate Gothic Light';-inkscape-font-specification:'Copperplate Gothic Light, ';letter-spacing:0px;word-spacing:0px;fill:#000000;fill-opacity:1;stroke:#000000;stroke-width:0.2;stroke-miterlimit:4;stroke-dasharray:none;stroke-opacity:1"
       id="text956"
       transform="translate(-9.481569,3.7456238)">
      <path
         d="m 21.203855,291.40545 v 0.0386 h -0.434082 v -0.0386 q 0.09509,-0.006 0.224621,-0.17088 l 1.094162,-1.4621 q 0.07441,-0.1006 0.07441,-0.12402 0,-0.0372 -0.06615,-0.0482 v -0.0372 h 0.423058 v 0.0372 q -0.09508,0.006 -0.22462,0.17087 l -1.08176,1.46348 q -0.07579,0.10197 -0.07579,0.12402 0,0.0358 0.06615,0.0469 z"
         style="font-style:normal;font-variant:normal;font-weight:normal;font-stretch:normal;font-size:2.82222223px;line-height:1.25;font-family:'Copperplate Gothic Light';-inkscape-font-specification:'Copperplate Gothic Light, ';stroke:#000000;stroke-width:0.2;stroke-miterlimit:4;stroke-dasharray:none;stroke-opacity:1"
         id="path958"
         inkscape:connector-curvature="0" />
      <path
         d="M 22.940183,290.3857 H 22.73899 l 0.493338,-0.8282 h 0.243912 l 0.493338,0.8282 h -0.20395 l -0.413411,-0.68075 z"
         style="font-style:normal;font-variant:normal;font-weight:normal;font-stretch:normal;font-size:2.82222223px;line-height:1.25;font-family:'Copperplate Gothic Light';-inkscape-font-specification:'Copperplate Gothic Light, ';stroke:#000000;stroke-width:0.2;stroke-miterlimit:4;stroke-dasharray:none;stroke-opacity:1"
         id="path960"
         inkscape:connector-curvature="0" />
      <path
         d="m 25.342104,291.44403 -0.789616,-1.58061 v 1.418 q 0,0.0565 0.01791,0.0813 0.01791,0.0234 0.07028,0.0372 v 0.0441 h -0.373449 v -0.0441 q 0.05237,-0.0138 0.07028,-0.0372 0.01792,-0.0234 0.01792,-0.0813 v -1.5558 q 0,-0.0579 -0.01792,-0.0813 -0.01791,-0.0248 -0.07028,-0.0372 v -0.0441 h 0.487826 v 0.0441 q -0.06752,0.0234 -0.06752,0.0579 0,0.0165 0.04547,0.10611 l 0.62563,1.24161 0.628385,-1.25263 q 0.03307,-0.0661 0.03307,-0.0937 0,-0.0358 -0.06752,-0.0593 v -0.0441 h 0.49196 v 0.0441 q -0.05237,0.0138 -0.07028,0.0372 -0.01792,0.0234 -0.01792,0.0813 v 1.5558 q 0,0.0565 0.01792,0.0813 0.01791,0.0234 0.07028,0.0372 v 0.0441 h -0.392741 v -0.0441 q 0.05374,-0.0138 0.07028,-0.0372 0.01791,-0.0234 0.01791,-0.0813 v -1.418 z"
         style="font-style:normal;font-variant:normal;font-weight:normal;font-stretch:normal;font-size:2.82222223px;line-height:1.25;font-family:'Copperplate Gothic Light';-inkscape-font-specification:'Copperplate Gothic Light, ';stroke:#000000;stroke-width:0.2;stroke-miterlimit:4;stroke-dasharray:none;stroke-opacity:1"
         id="path962"
         inkscape:connector-curvature="0" />
      <path
         d="m 26.942006,290.3857 h -0.201193 l 0.493338,-0.8282 h 0.243912 l 0.493338,0.8282 h -0.20395 l -0.413411,-0.68075 z"
         style="font-style:normal;font-variant:normal;font-weight:normal;font-stretch:normal;font-size:2.82222223px;line-height:1.25;font-family:'Copperplate Gothic Light';-inkscape-font-specification:'Copperplate Gothic Light, ';stroke:#000000;stroke-width:0.2;stroke-miterlimit:4;stroke-dasharray:none;stroke-opacity:1"
         id="path964"
         inkscape:connector-curvature="0" />
      <path
         d="m 28.617701,289.56301 v 0.0372 q -0.06615,0.011 -0.06615,0.0482 0,0.0234 0.07441,0.12402 l 1.092784,1.4621 q 0.129536,0.16536 0.22462,0.17088 v 0.0386 h -0.434082 v -0.0386 q 0.06615,-0.011 0.06615,-0.0469 0,-0.0207 -0.07579,-0.12402 l -1.080382,-1.46348 q -0.129535,-0.16536 -0.22462,-0.17087 v -0.0372 z"
         style="font-style:normal;font-variant:normal;font-weight:normal;font-stretch:normal;font-size:2.82222223px;line-height:1.25;font-family:'Copperplate Gothic Light';-inkscape-font-specification:'Copperplate Gothic Light, ';stroke:#000000;stroke-width:0.2;stroke-miterlimit:4;stroke-dasharray:none;stroke-opacity:1"
         id="path966"
         inkscape:connector-curvature="0" />
    </g>
    <g
       aria-label="CV"
       style="font-style:normal;font-variant:normal;font-weight:normal;font-stretch:normal;font-size:2.82222223px;line-height:1.25;font-family:'Yu Gothic UI';-inkscape-font-specification:'Yu Gothic UI';letter-spacing:0px;word-spacing:0px;fill:#000000;fill-opacity:1;stroke:none;stroke-width:0.26458332"
       id="text969"
       transform="translate(11.586542,18.36925)">
      <path
         d="m 3.7592906,218.53035 q -0.2191081,0.11576 -0.5457031,0.11576 -0.4216797,0 -0.6752388,-0.27147 -0.253559,-0.27148 -0.253559,-0.71245 0,-0.47404 0.2852539,-0.76619 0.2852539,-0.29214 0.7234701,-0.29214 0.2811198,0 0.4657769,0.0813 v 0.24667 q -0.2122179,-0.11851 -0.468533,-0.11851 -0.3403754,0 -0.5525933,0.22738 -0.2108399,0.22737 -0.2108399,0.60771 0,0.36105 0.1970595,0.57602 0.1984375,0.2136 0.5195204,0.2136 0.2976563,0 0.5153863,-0.1323 z"
         style="stroke-width:0.26458332"
         id="path987"
         inkscape:connector-curvature="0" />
      <path
         d="m 5.6306665,216.63693 -0.7317383,1.97611 h -0.254937 l -0.7165799,-1.97611 h 0.2576931 l 0.5470812,1.56683 q 0.026183,0.0758 0.039963,0.17501 h 0.00551 q 0.011024,-0.0827 0.045475,-0.17777 l 0.5581055,-1.56407 z"
         style="stroke-width:0.26458332"
         id="path989"
         inkscape:connector-curvature="0" />
    </g>
    <g
       aria-label="LENGTH"
       style="font-style:normal;font-variant:normal;font-weight:normal;font-stretch:normal;font-size:2.82222223px;line-height:1.25;font-family:'Yu Gothic UI';-inkscape-font-specification:'Yu Gothic UI';letter-spacing:0px;word-spacing:0px;fill:#000000;fill-opacity:1;stroke:none;stroke-width:0.26458332"
       id="text893"
       transform="translate(2.8180888,-15.309261)">
      <path
         d="m 17.159332,234.82291 h -1.025261 v -1.97611 h 0.231511 v 1.76664 h 0.79375 z"
         style="stroke-width:0.26458332"
         id="path895"
         inkscape:connector-curvature="0" />
      <path
         d="M 18.509809,234.82291 H 17.4625 v -1.97611 h 1.003212 v 0.20946 H 17.69401 v 0.65733 h 0.713824 v 0.20808 H 17.69401 v 0.69177 h 0.815799 z"
         style="stroke-width:0.26458332"
         id="path897"
         inkscape:connector-curvature="0" />
      <path
         d="m 20.48316,234.82291 h -0.283876 l -1.016992,-1.5751 q -0.03859,-0.0593 -0.06339,-0.12402 h -0.0083 q 0.01102,0.0634 0.01102,0.27147 v 1.42765 h -0.23151 v -1.97611 h 0.300412 l 0.989431,1.55029 q 0.06201,0.0965 0.07993,0.13229 h 0.0055 q -0.01378,-0.0854 -0.01378,-0.29076 v -1.39182 h 0.231511 z"
         style="stroke-width:0.26458332"
         id="path899"
         inkscape:connector-curvature="0" />
      <path
         d="m 22.478559,234.68786 q -0.297656,0.16812 -0.661458,0.16812 -0.423058,0 -0.684885,-0.27285 -0.26045,-0.27285 -0.26045,-0.72209 0,-0.45889 0.289389,-0.75241 0.290766,-0.2949 0.735872,-0.2949 0.322461,0 0.541569,0.10473 v 0.25631 q -0.239779,-0.15158 -0.567752,-0.15158 -0.332107,0 -0.544325,0.22875 -0.212218,0.22876 -0.212218,0.59256 0,0.37483 0.19706,0.5898 0.197059,0.2136 0.534678,0.2136 0.231511,0 0.40101,-0.0923 v -0.55397 h -0.432704 v -0.20947 h 0.664214 z"
         style="stroke-width:0.26458332"
         id="path901"
         inkscape:connector-curvature="0" />
      <path
         d="m 24.060547,233.05626 h -0.570508 v 1.76665 h -0.23151 v -1.76665 h -0.56913 v -0.20946 h 1.371148 z"
         style="stroke-width:0.26458332"
         id="path903"
         inkscape:connector-curvature="0" />
      <path
         d="m 25.854752,234.82291 h -0.23151 v -0.90124 h -1.022504 v 0.90124 h -0.231511 v -1.97611 h 0.231511 v 0.86679 h 1.022504 v -0.86679 h 0.23151 z"
         style="stroke-width:0.26458332"
         id="path905"
         inkscape:connector-curvature="0" />
    </g>
    <rect
       style="fill:#f3861f;stroke-width:0.19146641"
       id="rect1087"
       width="29.104166"
       height="12.435422"
       x="1.322917"
       y="262.07498" />
    <g
       aria-label="OUTPUT"
       style="font-style:normal;font-variant:normal;font-weight:normal;font-stretch:normal;font-size:2.82222223px;line-height:1.25;font-family:'Yu Gothic UI';-inkscape-font-specification:'Yu Gothic UI';letter-spacing:0px;word-spacing:0px;fill:#000000;fill-opacity:1;stroke:none;stroke-width:0.26458332"
       id="text929"
       transform="translate(-14.571059,-15.251048)">
      <path
         d="m 18.253493,279.83514 q -0.420301,0 -0.67386,-0.27699 -0.252181,-0.27699 -0.252181,-0.72071 0,-0.4768 0.257693,-0.76068 0.257693,-0.28388 0.701421,-0.28388 0.409278,0 0.658702,0.27561 0.250803,0.27561 0.250803,0.72071 0,0.4837 -0.256315,0.76482 -0.256315,0.28112 -0.686263,0.28112 z m 0.01654,-1.83279 q -0.311437,0 -0.50574,0.22462 -0.194304,0.22462 -0.194304,0.5898 0,0.36518 0.188792,0.58842 0.190169,0.22186 0.494715,0.22186 0.325217,0 0.512631,-0.21222 0.187413,-0.21221 0.187413,-0.59393 0,-0.39136 -0.181901,-0.60496 -0.181901,-0.21359 -0.501606,-0.21359 z"
         style="stroke-width:0.26458332"
         id="path946"
         inkscape:connector-curvature="0" />
      <path
         d="m 21.03024,279.0028 q 0,0.83234 -0.751031,0.83234 -0.719335,0 -0.719335,-0.80064 v -1.20854 h 0.23151 v 1.19338 q 0,0.60771 0.51263,0.60771 0.494716,0 0.494716,-0.58704 v -1.21405 h 0.23151 z"
         style="stroke-width:0.26458332"
         id="path948"
         inkscape:connector-curvature="0" />
      <path
         d="m 22.693532,278.03542 h -0.570507 v 1.76664 h -0.231511 v -1.76664 h -0.56913 v -0.20946 h 1.371148 z"
         style="stroke-width:0.26458332"
         id="path950"
         inkscape:connector-curvature="0" />
      <path
         d="m 23.233723,279.05517 v 0.74689 h -0.23151 v -1.9761 h 0.542947 q 0.316949,0 0.490581,0.15434 0.175011,0.15434 0.175011,0.43546 0,0.28112 -0.194303,0.46026 -0.192925,0.17915 -0.522277,0.17915 z m 0,-1.01975 v 0.81028 h 0.242535 q 0.239779,0 0.36518,-0.10886 0.12678,-0.11024 0.12678,-0.31006 0,-0.39136 -0.463021,-0.39136 z"
         style="stroke-width:0.26458332"
         id="path952"
         inkscape:connector-curvature="0" />
      <path
         d="m 26.029763,279.0028 q 0,0.83234 -0.751031,0.83234 -0.719336,0 -0.719336,-0.80064 v -1.20854 h 0.23151 v 1.19338 q 0,0.60771 0.512631,0.60771 0.494715,0 0.494715,-0.58704 v -1.21405 h 0.231511 z"
         style="stroke-width:0.26458332"
         id="path954"
         inkscape:connector-curvature="0" />
      <path
         d="m 27.693055,278.03542 h -0.570508 v 1.76664 h -0.23151 v -1.76664 h -0.56913 v -0.20946 h 1.371148 z"
         style="stroke-width:0.26458332"
         id="path956"
         inkscape:connector-curvature="0" />
    </g>
    <g
       aria-label="RESET"
       style="font-style:normal;font-variant:normal;font-weight:normal;font-stretch:normal;font-size:2.82222223px;line-height:1.25;font-family:'Yu Gothic UI';-inkscape-font-specification:'Yu Gothic UI';letter-spacing:0px;word-spacing:0px;fill:#000000;fill-opacity:1;stroke:none;stroke-width:0.26458332"
       id="text933"
       transform="translate(-14.451494,-43.050858)">
      <path
         d="m 20.196528,263.92706 h -0.275607 l -0.330729,-0.55397 q -0.04548,-0.0772 -0.08819,-0.13091 -0.04272,-0.0551 -0.08819,-0.0896 -0.0441,-0.0345 -0.09646,-0.0496 -0.05099,-0.0165 -0.115755,-0.0165 h -0.190169 v 0.8406 h -0.231511 v -1.9761 h 0.589801 q 0.129535,0 0.2384,0.0331 0.110243,0.0317 0.190169,0.0978 0.08131,0.0661 0.12678,0.16536 0.04547,0.0978 0.04547,0.23014 0,0.10335 -0.03169,0.19017 -0.03032,0.0854 -0.08819,0.15296 -0.0565,0.0675 -0.137804,0.11575 -0.07993,0.0469 -0.180523,0.073 v 0.006 q 0.04961,0.0221 0.08544,0.051 0.03721,0.0276 0.07028,0.0661 0.03307,0.0386 0.06477,0.0882 0.03307,0.0482 0.07304,0.113 z m -1.185112,-1.76664 v 0.71658 h 0.314192 q 0.08682,0 0.159853,-0.0262 0.07441,-0.0262 0.128157,-0.0744 0.05374,-0.0496 0.08406,-0.11989 0.03032,-0.0717 0.03032,-0.15985 0,-0.15848 -0.103352,-0.24667 -0.101975,-0.0896 -0.296279,-0.0896 z"
         style="stroke-width:0.26458332"
         id="path935"
         inkscape:connector-curvature="0" />
      <path
         d="m 21.513933,263.92706 h -1.047309 v -1.9761 h 1.003212 v 0.20946 h -0.771702 v 0.65732 h 0.713824 v 0.20809 h -0.713824 v 0.69177 h 0.815799 z"
         style="stroke-width:0.26458332"
         id="path937"
         inkscape:connector-curvature="0" />
      <path
         d="m 21.801943,263.84714 v -0.27285 q 0.04685,0.0413 0.111621,0.0744 0.06615,0.0331 0.137804,0.0565 0.07304,0.0221 0.146072,0.0344 0.07304,0.0124 0.135048,0.0124 0.213596,0 0.318326,-0.0786 0.106109,-0.0799 0.106109,-0.22875 0,-0.0799 -0.03583,-0.13918 -0.03445,-0.0593 -0.09646,-0.10749 -0.06201,-0.0496 -0.14745,-0.0937 -0.08406,-0.0455 -0.181901,-0.0951 -0.103353,-0.0524 -0.192926,-0.10611 -0.08957,-0.0537 -0.155718,-0.11851 -0.06615,-0.0648 -0.104731,-0.14607 -0.03721,-0.0827 -0.03721,-0.19293 0,-0.13505 0.05926,-0.23426 0.05926,-0.1006 0.155718,-0.16537 0.09646,-0.0648 0.219108,-0.0965 0.124023,-0.0317 0.252181,-0.0317 0.292144,0 0.425814,0.0703 v 0.26045 q -0.175011,-0.12126 -0.449241,-0.12126 -0.07579,0 -0.151584,0.0165 -0.07579,0.0152 -0.135048,0.051 -0.05926,0.0358 -0.09646,0.0923 -0.03721,0.0565 -0.03721,0.1378 0,0.0758 0.02756,0.13091 0.02894,0.0551 0.08406,0.1006 0.05512,0.0455 0.133669,0.0882 0.07993,0.0427 0.18328,0.0937 0.106109,0.0524 0.201193,0.11025 0.09509,0.0579 0.166743,0.12815 0.07166,0.0703 0.112999,0.15572 0.04272,0.0854 0.04272,0.19568 0,0.14608 -0.05788,0.24805 -0.0565,0.1006 -0.15434,0.16399 -0.09646,0.0634 -0.223242,0.0909 -0.12678,0.0289 -0.267339,0.0289 -0.04685,0 -0.115756,-0.008 -0.0689,-0.007 -0.14056,-0.022 -0.07166,-0.0138 -0.136425,-0.0344 -0.06339,-0.0221 -0.101975,-0.0482 z"
         style="stroke-width:0.26458332"
         id="path939"
         inkscape:connector-curvature="0" />
      <path
         d="m 24.440886,263.92706 h -1.047309 v -1.9761 h 1.003212 v 0.20946 h -0.771702 v 0.65732 h 0.713824 v 0.20809 h -0.713824 v 0.69177 h 0.815799 z"
         style="stroke-width:0.26458332"
         id="path941"
         inkscape:connector-curvature="0" />
      <path
         d="m 25.989801,262.16042 h -0.570508 v 1.76664 h -0.23151 v -1.76664 h -0.56913 v -0.20946 h 1.371148 z"
         style="stroke-width:0.26458332"
         id="path943"
         inkscape:connector-curvature="0" />
    </g>
    <g
       aria-label="TRIGGER"
       style="font-style:normal;font-variant:normal;font-weight:normal;font-stretch:normal;font-size:2.82222223px;line-height:1.25;font-family:'Yu Gothic UI';-inkscape-font-specification:'Yu Gothic UI';letter-spacing:0px;word-spacing:0px;fill:#000000;fill-opacity:1;stroke:none;stroke-width:0.26458332"
       id="text890"
       transform="translate(-5.4777016,-58.922711)">
      <path
         d="M 9.3651476,263.48336 H 8.7946398 V 265.25 H 8.5631293 v -1.76664 H 7.9939996 v -0.20947 h 1.371148 z"
         style="stroke-width:0.26458332"
         id="path892"
         inkscape:connector-curvature="0" />
      <path
         d="m 11.090451,265.25 h -0.275607 l -0.330729,-0.55397 q -0.04548,-0.0772 -0.08819,-0.13091 -0.04272,-0.0551 -0.08819,-0.0896 -0.0441,-0.0345 -0.09646,-0.0496 -0.05099,-0.0165 -0.115755,-0.0165 H 9.9053385 V 265.25 H 9.6738281 v -1.97611 h 0.5897999 q 0.129536,0 0.238401,0.0331 0.110243,0.0317 0.190169,0.0978 0.08131,0.0661 0.12678,0.16536 0.04547,0.0978 0.04547,0.23013 0,0.10336 -0.03169,0.19017 -0.03032,0.0854 -0.08819,0.15297 -0.0565,0.0675 -0.137804,0.11575 -0.07993,0.0469 -0.180523,0.073 v 0.006 q 0.04961,0.022 0.08544,0.051 0.03721,0.0276 0.07028,0.0661 0.03307,0.0386 0.06477,0.0882 0.03307,0.0482 0.07304,0.113 z m -1.1851125,-1.76664 v 0.71657 h 0.3141925 q 0.08682,0 0.159853,-0.0262 0.07441,-0.0262 0.128157,-0.0744 0.05374,-0.0496 0.08406,-0.11989 0.03032,-0.0717 0.03032,-0.15985 0,-0.15848 -0.103353,-0.24667 -0.101974,-0.0896 -0.296278,-0.0896 z"
         style="stroke-width:0.26458332"
         id="path894"
         inkscape:connector-curvature="0" />
      <path
         d="m 11.592057,265.25 h -0.23151 v -1.97611 h 0.23151 z"
         style="stroke-width:0.26458332"
         id="path896"
         inkscape:connector-curvature="0" />
      <path
         d="m 13.587456,265.11495 q -0.297656,0.16812 -0.661458,0.16812 -0.423058,0 -0.684885,-0.27285 -0.260449,-0.27285 -0.260449,-0.72209 0,-0.45889 0.289388,-0.75241 0.290766,-0.2949 0.735872,-0.2949 0.322461,0 0.541569,0.10473 v 0.25632 q -0.239778,-0.15159 -0.567751,-0.15159 -0.332108,0 -0.544325,0.22876 -0.212218,0.22875 -0.212218,0.59255 0,0.37483 0.197059,0.5898 0.19706,0.2136 0.534679,0.2136 0.23151,0 0.401009,-0.0923 v -0.55397 h -0.432704 v -0.20946 h 0.664214 z"
         style="stroke-width:0.26458332"
         id="path898"
         inkscape:connector-curvature="0" />
      <path
         d="m 15.522222,265.11495 q -0.297656,0.16812 -0.661458,0.16812 -0.423058,0 -0.684885,-0.27285 -0.260449,-0.27285 -0.260449,-0.72209 0,-0.45889 0.289388,-0.75241 0.290766,-0.2949 0.735872,-0.2949 0.322461,0 0.541569,0.10473 v 0.25632 q -0.239779,-0.15159 -0.567752,-0.15159 -0.332107,0 -0.544325,0.22876 -0.212218,0.22875 -0.212218,0.59255 0,0.37483 0.19706,0.5898 0.197059,0.2136 0.534679,0.2136 0.23151,0 0.401009,-0.0923 v -0.55397 h -0.432704 v -0.20946 h 0.664214 z"
         style="stroke-width:0.26458332"
         id="path900"
         inkscape:connector-curvature="0" />
      <path
         d="m 17.02704,265.25 h -1.047309 v -1.97611 h 1.003212 v 0.20947 h -0.771702 v 0.65732 h 0.713824 v 0.20808 h -0.713824 v 0.69178 h 0.815799 z"
         style="stroke-width:0.26458332"
         id="path902"
         inkscape:connector-curvature="0" />
      <path
         d="m 18.824001,265.25 h -0.275607 l -0.33073,-0.55397 q -0.04547,-0.0772 -0.08819,-0.13091 -0.04272,-0.0551 -0.08819,-0.0896 -0.0441,-0.0345 -0.09646,-0.0496 -0.05099,-0.0165 -0.115755,-0.0165 h -0.19017 v 0.8406 h -0.23151 v -1.97611 h 0.5898 q 0.129536,0 0.238401,0.0331 0.110243,0.0317 0.190169,0.0978 0.08131,0.0661 0.12678,0.16536 0.04547,0.0978 0.04547,0.23013 0,0.10336 -0.03169,0.19017 -0.03032,0.0854 -0.08819,0.15297 -0.0565,0.0675 -0.137804,0.11575 -0.07993,0.0469 -0.180523,0.073 v 0.006 q 0.04961,0.022 0.08544,0.051 0.03721,0.0276 0.07028,0.0661 0.03307,0.0386 0.06477,0.0882 0.03307,0.0482 0.07304,0.113 z m -1.185113,-1.76664 v 0.71657 h 0.314193 q 0.08682,0 0.159853,-0.0262 0.07441,-0.0262 0.128157,-0.0744 0.05374,-0.0496 0.08406,-0.11989 0.03032,-0.0717 0.03032,-0.15985 0,-0.15848 -0.103353,-0.24667 -0.101974,-0.0896 -0.296278,-0.0896 z"
         style="stroke-width:0.26458332"
         id="path904"
         inkscape:connector-curvature="0" />
    </g>
    <text
       xml:space="preserve"
       style="font-style:normal;font-variant:normal;font-weight:normal;font-stretch:normal;font-size:2.82222223px;line-height:1.25;font-family:'Yu Gothic UI';-inkscape-font-specification:'Yu Gothic UI';letter-spacing:0px;word-spacing:0px;fill:#000000;fill-opacity:1;stroke:none;stroke-width:0.26458332"
       x="29.104166"
       y="236.14581"
       id="text1043"><tspan
         sodipodi:role="line"
         id="tspan1041"
         x="29.104166"
         y="238.68794"
         style="stroke-width:0.26458332" /></text>
    <g
       aria-label="FAST"
       style="font-style:normal;font-variant:normal;font-weight:normal;font-stretch:normal;font-size:2.11666656px;line-height:1.25;font-family:'Yu Gothic UI';-inkscape-font-specification:'Yu Gothic UI';letter-spacing:0px;word-spacing:0px;fill:#000000;fill-opacity:1;stroke:none;stroke-width:0.26458332"
       id="text1106"
       transform="translate(6.9163778,11.225503)">
      <path
         d="m 15.498795,237.46667 h -0.578776 v 0.51263 h 0.535368 v 0.15607 h -0.535368 v 0.65629 h -0.173633 v -1.48208 h 0.752409 z"
         style="stroke-width:0.26458332"
         id="path1116"
         inkscape:connector-curvature="0" />
      <path
         d="m 16.852718,238.79166 h -0.192237 l -0.157096,-0.41548 H 15.875 l -0.147795,0.41548 h -0.19327 l 0.568441,-1.48208 h 0.179834 z m -0.406177,-0.57154 -0.232544,-0.63149 q -0.01137,-0.031 -0.02274,-0.0992 h -0.0041 q -0.01034,0.0631 -0.02377,0.0992 l -0.230477,0.63149 z"
         style="stroke-width:0.26458332"
         id="path1118"
         inkscape:connector-curvature="0" />
      <path
         d="m 17.000512,238.73171 v -0.20464 q 0.03514,0.031 0.08372,0.0558 0.04961,0.0248 0.103353,0.0424 0.05478,0.0165 0.109554,0.0258 0.05478,0.009 0.101286,0.009 0.160197,0 0.238745,-0.0589 0.07958,-0.06 0.07958,-0.17157 0,-0.0599 -0.02687,-0.10438 -0.02584,-0.0444 -0.07235,-0.0806 -0.04651,-0.0372 -0.110588,-0.0703 -0.06305,-0.0341 -0.136425,-0.0713 -0.07751,-0.0393 -0.144694,-0.0796 -0.06718,-0.0403 -0.116789,-0.0889 -0.04961,-0.0486 -0.07855,-0.10955 -0.02791,-0.062 -0.02791,-0.1447 0,-0.10128 0.04444,-0.1757 0.04444,-0.0754 0.116789,-0.12402 0.07235,-0.0486 0.164331,-0.0724 0.09302,-0.0238 0.189136,-0.0238 0.219108,0 0.31936,0.0527 v 0.19534 q -0.131258,-0.0909 -0.33693,-0.0909 -0.05684,0 -0.113688,0.0124 -0.05685,0.0114 -0.101286,0.0382 -0.04444,0.0269 -0.07235,0.0692 -0.02791,0.0424 -0.02791,0.10335 0,0.0568 0.02067,0.0982 0.0217,0.0413 0.06304,0.0754 0.04134,0.0341 0.100253,0.0661 0.05994,0.032 0.137459,0.0703 0.07958,0.0393 0.150895,0.0827 0.07131,0.0434 0.125057,0.0961 0.05374,0.0527 0.08475,0.11679 0.03204,0.0641 0.03204,0.14676 0,0.10955 -0.04341,0.18603 -0.04237,0.0754 -0.115755,0.12299 -0.07235,0.0476 -0.167431,0.0682 -0.09509,0.0217 -0.200505,0.0217 -0.03514,0 -0.08682,-0.006 -0.05168,-0.005 -0.10542,-0.0165 -0.05374,-0.0103 -0.10232,-0.0258 -0.04754,-0.0165 -0.07648,-0.0362 z"
         style="stroke-width:0.26458332"
         id="path1120"
         inkscape:connector-curvature="0" />
      <path
         d="m 19.049999,237.46667 h -0.42788 v 1.32499 h -0.173633 v -1.32499 h -0.426848 v -0.15709 h 1.028361 z"
         style="stroke-width:0.26458332"
         id="path1122"
         inkscape:connector-curvature="0" />
    </g>
    <g
       aria-label="MED"
       style="font-style:normal;font-variant:normal;font-weight:normal;font-stretch:normal;font-size:2.11666656px;line-height:1.25;font-family:'Yu Gothic UI';-inkscape-font-specification:'Yu Gothic UI';letter-spacing:0px;word-spacing:0px;fill:#000000;fill-opacity:1;stroke:none;stroke-width:0.26458332"
       id="text1110"
       transform="translate(0.76304953,12.101446)">
      <path
         d="m 16.257405,242.76041 h -0.172599 v -0.99426 q 0,-0.11782 0.01447,-0.28835 h -0.0041 q -0.0248,0.10025 -0.04444,0.14366 l -0.506429,1.13895 h -0.08475 l -0.505395,-1.13068 q -0.0217,-0.0496 -0.04444,-0.15193 h -0.0041 q 0.0083,0.0889 0.0083,0.29042 v 0.99219 H 14.74649 v -1.48208 h 0.229444 l 0.454752,1.03353 q 0.05271,0.11885 0.06821,0.17776 h 0.0062 q 0.04444,-0.12195 0.07131,-0.1819 l 0.464054,-1.02939 h 0.217041 z"
         style="stroke-width:0.26458332"
         id="path1125"
         inkscape:connector-curvature="0" />
      <path
         d="m 17.433561,242.76041 h -0.785482 v -1.48208 h 0.752409 v 0.15709 h -0.578776 v 0.493 h 0.535368 v 0.15606 h -0.535368 v 0.51883 h 0.611849 z"
         style="stroke-width:0.26458332"
         id="path1127"
         inkscape:connector-curvature="0" />
      <path
         d="m 17.718815,242.76041 v -1.48208 h 0.409277 q 0.783415,0 0.783415,0.72243 0,0.34313 -0.218075,0.55191 -0.217041,0.20774 -0.581876,0.20774 z m 0.173633,-1.32499 v 1.16789 h 0.221175 q 0.291455,0 0.453719,-0.15606 0.162264,-0.15607 0.162264,-0.44235 0,-0.56948 -0.605648,-0.56948 z"
         style="stroke-width:0.26458332"
         id="path1129"
         inkscape:connector-curvature="0" />
    </g>
    <g
       aria-label="SLOW"
       style="font-style:normal;font-variant:normal;font-weight:normal;font-stretch:normal;font-size:2.11666656px;line-height:1.25;font-family:'Yu Gothic UI';-inkscape-font-specification:'Yu Gothic UI';letter-spacing:0px;word-spacing:0px;fill:#000000;fill-opacity:1;stroke:none;stroke-width:0.26458332"
       id="text1114"
       transform="translate(6.3903256,13.011168)">
      <path
         d="m 14.67714,246.66921 v -0.20464 q 0.03514,0.031 0.08372,0.0558 0.04961,0.0248 0.103353,0.0424 0.05478,0.0165 0.109554,0.0258 0.05478,0.009 0.101285,0.009 0.160197,0 0.238746,-0.0589 0.07958,-0.06 0.07958,-0.17157 0,-0.0599 -0.02687,-0.10438 -0.02584,-0.0444 -0.07235,-0.0806 -0.04651,-0.0372 -0.110588,-0.0703 -0.06305,-0.0341 -0.136426,-0.0713 -0.07751,-0.0393 -0.144694,-0.0796 -0.06718,-0.0403 -0.116789,-0.0889 -0.04961,-0.0486 -0.07855,-0.10955 -0.02791,-0.062 -0.02791,-0.1447 0,-0.10128 0.04444,-0.1757 0.04444,-0.0754 0.116788,-0.12402 0.07235,-0.0486 0.164332,-0.0724 0.09302,-0.0238 0.189135,-0.0238 0.219108,0 0.319361,0.0527 v 0.19534 q -0.131259,-0.0909 -0.336931,-0.0909 -0.05684,0 -0.113688,0.0124 -0.05684,0.0114 -0.101286,0.0382 -0.04444,0.0269 -0.07235,0.0692 -0.02791,0.0424 -0.02791,0.10335 0,0.0568 0.02067,0.0982 0.0217,0.0413 0.06305,0.0754 0.04134,0.0341 0.100252,0.0661 0.05995,0.032 0.137459,0.0703 0.07958,0.0393 0.150896,0.0827 0.07131,0.0434 0.125057,0.0961 0.05374,0.0527 0.08475,0.11679 0.03204,0.0641 0.03204,0.14676 0,0.10955 -0.04341,0.18603 -0.04237,0.0754 -0.115755,0.12299 -0.07235,0.0476 -0.167432,0.0682 -0.09508,0.0217 -0.200504,0.0217 -0.03514,0 -0.08682,-0.006 -0.05168,-0.005 -0.10542,-0.0165 -0.05374,-0.0103 -0.102319,-0.0258 -0.04754,-0.0165 -0.07648,-0.0362 z"
         style="stroke-width:0.26458332"
         id="path1132"
         inkscape:connector-curvature="0" />
      <path
         d="m 16.639811,246.72916 h -0.768946 v -1.48208 h 0.173633 v 1.32498 h 0.595313 z"
         style="stroke-width:0.26458332"
         id="path1134"
         inkscape:connector-curvature="0" />
      <path
         d="m 17.443896,246.75396 q -0.315226,0 -0.505395,-0.20774 -0.189136,-0.20774 -0.189136,-0.54053 0,-0.3576 0.19327,-0.57051 0.193269,-0.21291 0.526066,-0.21291 0.306958,0 0.494026,0.20671 0.188103,0.2067 0.188103,0.54053 0,0.36277 -0.192237,0.57361 -0.192236,0.21084 -0.514697,0.21084 z m 0.0124,-1.37459 q -0.233577,0 -0.379305,0.16846 -0.145727,0.16847 -0.145727,0.44235 0,0.27389 0.141593,0.44132 0.142627,0.1664 0.371037,0.1664 0.243913,0 0.384473,-0.15917 0.14056,-0.15916 0.14056,-0.44545 0,-0.29352 -0.136426,-0.45371 -0.136426,-0.1602 -0.376205,-0.1602 z"
         style="stroke-width:0.26458332"
         id="path1136"
         inkscape:connector-curvature="0" />
      <path
         d="m 20.16621,245.24708 -0.418579,1.48208 h -0.203605 l -0.304891,-1.08314 q -0.01964,-0.0692 -0.02377,-0.1509 h -0.0041 q -0.0062,0.0765 -0.02687,0.14883 l -0.306958,1.08521 h -0.201538 l -0.434082,-1.48208 h 0.191203 l 0.315226,1.13688 q 0.01964,0.0713 0.02481,0.14883 h 0.0052 q 0.0052,-0.0548 0.03204,-0.14883 l 0.327628,-1.13688 h 0.166398 l 0.314193,1.14515 q 0.01654,0.0589 0.02481,0.13849 h 0.0041 q 0.0041,-0.0537 0.02791,-0.14263 l 0.302824,-1.14101 z"
         style="stroke-width:0.26458332"
         id="path1138"
         inkscape:connector-curvature="0" />
    </g>
    <path
       style="display:inline;fill:none;stroke:#000000;stroke-width:0.29104277;stroke-linecap:butt;stroke-linejoin:miter;stroke-miterlimit:4;stroke-dasharray:none;stroke-opacity:1"
       d="m 11.1125,239.5854 h 8.466666"
       id="path1081"
       inkscape:connector-curvature="0" />
    <g
       aria-label="RETRIGGER"
       style="font-style:normal;font-variant:normal;font-weight:normal;font-stretch:normal;font-size:2.11666656px;line-height:1.25;font-family:'Yu Gothic UI';-inkscape-font-specification:'Yu Gothic UI';letter-spacing:0px;word-spacing:0px;fill:#000000;fill-opacity:1;stroke:none;stroke-width:0.26458332"
       id="text1159"
       transform="translate(-17.252031,-4.1896577)">
      <path
         d="m 21.100521,263.92706 h -0.206706 l -0.248047,-0.41548 q -0.03411,-0.0579 -0.06615,-0.0982 -0.03204,-0.0413 -0.06614,-0.0672 -0.03307,-0.0258 -0.07235,-0.0372 -0.03824,-0.0124 -0.08682,-0.0124 h -0.142627 v 0.63045 h -0.173633 v -1.48208 h 0.442351 q 0.09715,0 0.1788,0.0248 0.08268,0.0238 0.142627,0.0734 0.06098,0.0496 0.09509,0.12402 0.03411,0.0734 0.03411,0.1726 0,0.0775 -0.02377,0.14263 -0.02274,0.0641 -0.06615,0.11472 -0.04237,0.0506 -0.103353,0.0868 -0.05994,0.0351 -0.135392,0.0548 v 0.004 q 0.03721,0.0165 0.06408,0.0382 0.02791,0.0207 0.05271,0.0496 0.0248,0.0289 0.04858,0.0661 0.0248,0.0362 0.05478,0.0847 z m -0.888835,-1.32498 v 0.53743 h 0.235645 q 0.06511,0 0.119889,-0.0196 0.05581,-0.0196 0.09612,-0.0558 0.04031,-0.0372 0.06304,-0.0899 0.02274,-0.0537 0.02274,-0.11989 0,-0.11886 -0.07751,-0.185 -0.07648,-0.0672 -0.222208,-0.0672 z"
         style="stroke-width:0.26458332"
         id="path1161"
         inkscape:connector-curvature="0" />
      <path
         d="m 22.088574,263.92706 h -0.785482 v -1.48208 h 0.752409 v 0.1571 h -0.578776 v 0.49299 h 0.535368 v 0.15607 h -0.535368 v 0.51883 h 0.611849 z"
         style="stroke-width:0.26458332"
         id="path1163"
         inkscape:connector-curvature="0" />
      <path
         d="m 23.25026,262.60208 h -0.427881 v 1.32498 h -0.173633 v -1.32498 h -0.426847 v -0.1571 h 1.028361 z"
         style="stroke-width:0.26458332"
         id="path1165"
         inkscape:connector-curvature="0" />
      <path
         d="m 24.544238,263.92706 h -0.206706 l -0.248047,-0.41548 q -0.03411,-0.0579 -0.06614,-0.0982 -0.03204,-0.0413 -0.06615,-0.0672 -0.03307,-0.0258 -0.07235,-0.0372 -0.03824,-0.0124 -0.08682,-0.0124 h -0.142627 v 0.63045 h -0.173632 v -1.48208 h 0.44235 q 0.09715,0 0.1788,0.0248 0.08268,0.0238 0.142627,0.0734 0.06098,0.0496 0.09509,0.12402 0.03411,0.0734 0.03411,0.1726 0,0.0775 -0.02377,0.14263 -0.02274,0.0641 -0.06615,0.11472 -0.04237,0.0506 -0.103353,0.0868 -0.05994,0.0351 -0.135392,0.0548 v 0.004 q 0.03721,0.0165 0.06408,0.0382 0.02791,0.0207 0.05271,0.0496 0.02481,0.0289 0.04858,0.0661 0.0248,0.0362 0.05478,0.0847 z m -0.888835,-1.32498 v 0.53743 h 0.235645 q 0.06511,0 0.119889,-0.0196 0.05581,-0.0196 0.09612,-0.0558 0.04031,-0.0372 0.06305,-0.0899 0.02274,-0.0537 0.02274,-0.11989 0,-0.11886 -0.07751,-0.185 -0.07648,-0.0672 -0.222209,-0.0672 z"
         style="stroke-width:0.26458332"
         id="path1167"
         inkscape:connector-curvature="0" />
      <path
         d="M 24.920443,263.92706 H 24.74681 v -1.48208 h 0.173633 z"
         style="stroke-width:0.26458332"
         id="path1169"
         inkscape:connector-curvature="0" />
      <path
         d="m 26.416992,263.82578 q -0.223243,0.12609 -0.496094,0.12609 -0.317293,0 -0.513664,-0.20464 -0.195337,-0.20464 -0.195337,-0.54157 0,-0.34416 0.217041,-0.56431 0.218075,-0.22117 0.551905,-0.22117 0.241845,0 0.406176,0.0786 v 0.19223 q -0.179834,-0.11369 -0.425813,-0.11369 -0.249081,0 -0.408244,0.17157 -0.159164,0.17157 -0.159164,0.44442 0,0.28112 0.147795,0.44235 0.147795,0.16019 0.401009,0.16019 0.173633,0 0.300757,-0.0692 v -0.41548 h -0.324528 v -0.1571 h 0.498161 z"
         style="stroke-width:0.26458332"
         id="path1171"
         inkscape:connector-curvature="0" />
      <path
         d="m 27.868066,263.82578 q -0.223242,0.12609 -0.496094,0.12609 -0.317293,0 -0.513664,-0.20464 -0.195337,-0.20464 -0.195337,-0.54157 0,-0.34416 0.217041,-0.56431 0.218075,-0.22117 0.551905,-0.22117 0.241845,0 0.406176,0.0786 v 0.19223 q -0.179834,-0.11369 -0.425813,-0.11369 -0.249081,0 -0.408244,0.17157 -0.159164,0.17157 -0.159164,0.44442 0,0.28112 0.147795,0.44235 0.147795,0.16019 0.401009,0.16019 0.173633,0 0.300757,-0.0692 v -0.41548 h -0.324528 v -0.1571 h 0.498161 z"
         style="stroke-width:0.26458332"
         id="path1173"
         inkscape:connector-curvature="0" />
      <path
         d="m 28.996679,263.92706 h -0.785481 v -1.48208 h 0.752409 v 0.1571 h -0.578776 v 0.49299 h 0.535367 v 0.15607 h -0.535367 v 0.51883 h 0.611848 z"
         style="stroke-width:0.26458332"
         id="path1175"
         inkscape:connector-curvature="0" />
      <path
         d="m 30.3444,263.92706 h -0.206706 l -0.248046,-0.41548 q -0.03411,-0.0579 -0.06615,-0.0982 -0.03204,-0.0413 -0.06615,-0.0672 -0.03307,-0.0258 -0.07235,-0.0372 -0.03824,-0.0124 -0.08682,-0.0124 h -0.142627 v 0.63045 h -0.173632 v -1.48208 h 0.44235 q 0.09715,0 0.1788,0.0248 0.08268,0.0238 0.142627,0.0734 0.06098,0.0496 0.09509,0.12402 0.03411,0.0734 0.03411,0.1726 0,0.0775 -0.02377,0.14263 -0.02274,0.0641 -0.06615,0.11472 -0.04237,0.0506 -0.103352,0.0868 -0.05995,0.0351 -0.135393,0.0548 v 0.004 q 0.03721,0.0165 0.06408,0.0382 0.02791,0.0207 0.05271,0.0496 0.0248,0.0289 0.04858,0.0661 0.02481,0.0362 0.05478,0.0847 z m -0.888835,-1.32498 v 0.53743 h 0.235645 q 0.06511,0 0.119889,-0.0196 0.05581,-0.0196 0.09612,-0.0558 0.04031,-0.0372 0.06305,-0.0899 0.02274,-0.0537 0.02274,-0.11989 0,-0.11886 -0.07751,-0.185 -0.07648,-0.0672 -0.222209,-0.0672 z"
         style="stroke-width:0.26458332"
         id="path1177"
         inkscape:connector-curvature="0" />
    </g>
    <g
       aria-label="ONE-SHOT"
       style="font-style:normal;font-variant:normal;font-weight:normal;font-stretch:normal;font-size:2.11666656px;line-height:1.25;font-family:'Yu Gothic UI';-inkscape-font-specification:'Yu Gothic UI';letter-spacing:0px;word-spacing:0px;fill:#000000;fill-opacity:1;stroke:none;stroke-width:0.26458332"
       id="text1182"
       transform="translate(-18.47123,-24.52368)">
      <path
         d="m 21.958349,274.53521 q -0.315226,0 -0.505396,-0.20774 -0.189135,-0.20774 -0.189135,-0.54053 0,-0.3576 0.19327,-0.57051 0.193269,-0.21291 0.526066,-0.21291 0.306958,0 0.494026,0.20671 0.188102,0.2067 0.188102,0.54053 0,0.36277 -0.192236,0.57361 -0.192236,0.21084 -0.514697,0.21084 z m 0.0124,-1.37459 q -0.233577,0 -0.379305,0.16846 -0.145727,0.16847 -0.145727,0.44235 0,0.27389 0.141593,0.44132 0.142627,0.1664 0.371037,0.1664 0.243913,0 0.384473,-0.15917 0.140559,-0.15916 0.140559,-0.44545 0,-0.29352 -0.136425,-0.45371 -0.136426,-0.1602 -0.376205,-0.1602 z"
         style="stroke-width:0.26458332"
         id="path1184"
         inkscape:connector-curvature="0" />
      <path
         d="M 24.151497,274.51041 H 23.93859 l -0.762744,-1.18133 q -0.02894,-0.0444 -0.04754,-0.093 h -0.0062 q 0.0083,0.0475 0.0083,0.2036 v 1.07074 h -0.173632 v -1.48208 h 0.225309 l 0.742073,1.16272 q 0.04651,0.0723 0.05995,0.0992 h 0.0041 q -0.01034,-0.0641 -0.01034,-0.21807 v -1.04386 h 0.173633 z"
         style="stroke-width:0.26458332"
         id="path1186"
         inkscape:connector-curvature="0" />
      <path
         d="m 25.325585,274.51041 h -0.785482 v -1.48208 h 0.752409 v 0.15709 h -0.578776 v 0.493 h 0.535368 v 0.15606 h -0.535368 v 0.51883 h 0.611849 z"
         style="stroke-width:0.26458332"
         id="path1188"
         inkscape:connector-curvature="0" />
      <path
         d="m 26.12967,273.98744 h -0.564307 v -0.13332 h 0.564307 z"
         style="stroke-width:0.26458332"
         id="path1190"
         inkscape:connector-curvature="0" />
      <path
         d="m 26.389086,274.45046 v -0.20464 q 0.03514,0.031 0.08372,0.0558 0.04961,0.0248 0.103353,0.0424 0.05478,0.0165 0.109554,0.0258 0.05478,0.009 0.101285,0.009 0.160197,0 0.238746,-0.0589 0.07958,-0.06 0.07958,-0.17157 0,-0.0599 -0.02687,-0.10438 -0.02584,-0.0444 -0.07235,-0.0806 -0.04651,-0.0372 -0.110588,-0.0703 -0.06304,-0.0341 -0.136426,-0.0713 -0.07751,-0.0393 -0.144694,-0.0796 -0.06718,-0.0403 -0.116789,-0.0889 -0.04961,-0.0486 -0.07855,-0.10955 -0.02791,-0.062 -0.02791,-0.1447 0,-0.10128 0.04444,-0.1757 0.04444,-0.0754 0.116789,-0.12402 0.07235,-0.0486 0.164331,-0.0724 0.09302,-0.0238 0.189135,-0.0238 0.219108,0 0.319361,0.0527 v 0.19534 q -0.131259,-0.091 -0.336931,-0.091 -0.05684,0 -0.113688,0.0124 -0.05684,0.0114 -0.101286,0.0382 -0.04444,0.0269 -0.07235,0.0693 -0.02791,0.0424 -0.02791,0.10335 0,0.0568 0.02067,0.0982 0.0217,0.0413 0.06305,0.0754 0.04134,0.0341 0.100252,0.0662 0.05995,0.032 0.137459,0.0703 0.07958,0.0393 0.150896,0.0827 0.07131,0.0434 0.125057,0.0961 0.05374,0.0527 0.08475,0.11679 0.03204,0.0641 0.03204,0.14676 0,0.10955 -0.04341,0.18603 -0.04237,0.0754 -0.115755,0.12299 -0.07235,0.0476 -0.167432,0.0682 -0.09508,0.0217 -0.200504,0.0217 -0.03514,0 -0.08682,-0.006 -0.05168,-0.005 -0.10542,-0.0165 -0.05374,-0.0103 -0.102319,-0.0258 -0.04754,-0.0165 -0.07648,-0.0362 z"
         style="stroke-width:0.26458332"
         id="path1192"
         inkscape:connector-curvature="0" />
      <path
         d="m 28.696955,274.51041 h -0.173633 v -0.67593 h -0.766878 v 0.67593 h -0.173633 v -1.48208 h 0.173633 v 0.65009 h 0.766878 v -0.65009 h 0.173633 z"
         style="stroke-width:0.26458332"
         id="path1194"
         inkscape:connector-curvature="0" />
      <path
         d="m 29.685009,274.53521 q -0.315227,0 -0.505396,-0.20774 -0.189136,-0.20774 -0.189136,-0.54053 0,-0.3576 0.19327,-0.57051 0.19327,-0.21291 0.526066,-0.21291 0.306958,0 0.494027,0.20671 0.188102,0.2067 0.188102,0.54053 0,0.36277 -0.192236,0.57361 -0.192236,0.21084 -0.514697,0.21084 z m 0.0124,-1.37459 q -0.233577,0 -0.379305,0.16846 -0.145727,0.16847 -0.145727,0.44235 0,0.27389 0.141593,0.44132 0.142627,0.1664 0.371037,0.1664 0.243912,0 0.384472,-0.15917 0.14056,-0.15916 0.14056,-0.44545 0,-0.29352 -0.136426,-0.45371 -0.136425,-0.1602 -0.376204,-0.1602 z"
         style="stroke-width:0.26458332"
         id="path1196"
         inkscape:connector-curvature="0" />
      <path
         d="m 31.539159,273.18542 h -0.427881 v 1.32499 h -0.173633 v -1.32499 h -0.426847 v -0.15709 h 1.028361 z"
         style="stroke-width:0.26458332"
         id="path1198"
         inkscape:connector-curvature="0" />
    </g>
    <g
       aria-label="END"
       style="font-style:normal;font-variant:normal;font-weight:normal;font-stretch:normal;font-size:2.82222223px;line-height:1.25;font-family:'Yu Gothic UI';-inkscape-font-specification:'Yu Gothic UI';letter-spacing:0px;word-spacing:0px;fill:#000000;fill-opacity:1;stroke:none;stroke-width:0.26458332"
       id="text1214"
       transform="translate(-1.5048182,16.456248)">
      <path
         d="m 7.9209632,262.60416 h -1.047309 v -1.97611 H 7.876866 v 0.20946 H 7.1051646 v 0.65733 h 0.7138238 v 0.20808 H 7.1051646 v 0.69177 h 0.8157986 z"
         style="stroke-width:0.26458332"
         id="path1216"
         inkscape:connector-curvature="0" />
      <path
         d="M 9.8943139,262.60416 H 9.6104381 l -1.0169922,-1.5751 q -0.038585,-0.0593 -0.06339,-0.12402 h -0.00827 q 0.011024,0.0634 0.011024,0.27147 v 1.42765 H 8.3013018 v -1.97611 h 0.3004123 l 0.9894314,1.55029 q 0.062012,0.0965 0.079926,0.13229 h 0.00551 q -0.01378,-0.0854 -0.01378,-0.29076 v -1.39182 h 0.2315104 z"
         style="stroke-width:0.26458332"
         id="path1218"
         inkscape:connector-curvature="0" />
      <path
         d="m 10.412456,262.60416 v -1.97611 h 0.545703 q 1.044553,0 1.044553,0.96325 0,0.45751 -0.290766,0.73587 -0.289388,0.27699 -0.775835,0.27699 z m 0.231511,-1.76665 v 1.55718 h 0.2949 q 0.388607,0 0.604959,-0.20808 0.216352,-0.20808 0.216352,-0.5898 0,-0.7593 -0.807531,-0.7593 z"
         style="stroke-width:0.26458332"
         id="path1220"
         inkscape:connector-curvature="0" />
    </g>
    <rect
       style="display:inline;opacity:1;fill:none;fill-opacity:1;stroke:#000000;stroke-width:0.25325936;stroke-linecap:round;stroke-linejoin:miter;stroke-miterlimit:4;stroke-dasharray:none;stroke-dashoffset:0;stroke-opacity:1;paint-order:markers fill stroke"
       id="rect947"
       width="28.871614"
       height="14.827996"
       x="1.4495465"
       y="201.87662" />
    <g
       aria-label="POLY GATE MOD."
       style="font-style:normal;font-variant:normal;font-weight:600;font-stretch:normal;font-size:3.52777767px;line-height:1.25;font-family:'Yu Gothic UI';-inkscape-font-specification:'Yu Gothic UI Semi-Bold';letter-spacing:0px;word-spacing:0px;fill:#000000;fill-opacity:1;stroke:none;stroke-width:0.26458332"
       id="text1141"
       transform="matrix(0.84395607,0,0,1,-19.11542,-0.39893166)">
      <path
         d="m 32.463135,199.53134 v 0.89572 h -0.408244 v -2.47013 h 0.749308 q 0.425469,0 0.659736,0.19809 0.234266,0.1981 0.234266,0.55811 0,0.36001 -0.244601,0.58911 -0.244602,0.2291 -0.661459,0.2291 z m 0,-1.23679 v 0.90261 h 0.265272 q 0.26355,0 0.401354,-0.1223 0.137804,-0.1223 0.137804,-0.34451 0,-0.4358 -0.50643,-0.4358 z"
         style="font-style:normal;font-variant:normal;font-weight:600;font-stretch:normal;font-size:3.52777767px;font-family:'Yu Gothic UI';-inkscape-font-specification:'Yu Gothic UI Semi-Bold';stroke-width:0.26458332"
         id="path1143"
         inkscape:connector-curvature="0" />
      <path
         d="m 35.133084,200.4684 q -0.53399,0 -0.856107,-0.34623 -0.320393,-0.34623 -0.320393,-0.90089 0,-0.596 0.327284,-0.95085 0.327284,-0.35484 0.888834,-0.35484 0.52021,0 0.837158,0.34451 0.318672,0.34451 0.318672,0.90089 0,0.60461 -0.325562,0.95601 -0.325561,0.3514 -0.869886,0.3514 z m 0.01895,-2.1928 q -0.339342,0 -0.552938,0.25322 -0.211873,0.25321 -0.211873,0.66662 0,0.41169 0.206705,0.66318 0.206706,0.25149 0.54088,0.25149 0.354845,0 0.559828,-0.23943 0.204983,-0.23943 0.204983,-0.67007 0,-0.4427 -0.199815,-0.68385 -0.198093,-0.24116 -0.54777,-0.24116 z"
         style="font-style:normal;font-variant:normal;font-weight:600;font-stretch:normal;font-size:3.52777767px;font-family:'Yu Gothic UI';-inkscape-font-specification:'Yu Gothic UI Semi-Bold';stroke-width:0.26458332"
         id="path1145"
         inkscape:connector-curvature="0" />
      <path
         d="m 38.149265,200.42706 h -1.367703 v -2.47013 h 0.409967 v 2.1239 h 0.957736 z"
         style="font-style:normal;font-variant:normal;font-weight:600;font-stretch:normal;font-size:3.52777767px;font-family:'Yu Gothic UI';-inkscape-font-specification:'Yu Gothic UI Semi-Bold';stroke-width:0.26458332"
         id="path1147"
         inkscape:connector-curvature="0" />
      <path
         d="m 40.087131,197.95693 -0.809598,1.57269 v 0.89744 h -0.409966 v -0.88883 l -0.788927,-1.5813 h 0.466811 l 0.485758,1.05937 q 0.0086,0.0189 0.05168,0.14297 h 0.0052 q 0.0155,-0.0551 0.05684,-0.14297 l 0.508152,-1.05937 z"
         style="font-style:normal;font-variant:normal;font-weight:600;font-stretch:normal;font-size:3.52777767px;font-family:'Yu Gothic UI';-inkscape-font-specification:'Yu Gothic UI Semi-Bold';stroke-width:0.26458332"
         id="path1149"
         inkscape:connector-curvature="0" />
      <path
         d="m 43.30485,200.25825 q -0.385851,0.21015 -0.859552,0.21015 -0.54777,0 -0.887112,-0.34106 -0.339342,-0.34106 -0.339342,-0.90262 0,-0.5736 0.370348,-0.94051 0.37207,-0.36862 0.943956,-0.36862 0.411689,0 0.692464,0.12058 v 0.42202 q -0.28422,-0.18948 -0.676961,-0.18948 -0.394463,0 -0.647678,0.26011 -0.251492,0.2601 -0.251492,0.67351 0,0.42547 0.217041,0.67007 0.217041,0.24288 0.589112,0.24288 0.254937,0 0.440972,-0.0982 v -0.58739 h -0.52021 v -0.34451 h 0.928454 z"
         style="font-style:normal;font-variant:normal;font-weight:600;font-stretch:normal;font-size:3.52777767px;font-family:'Yu Gothic UI';-inkscape-font-specification:'Yu Gothic UI Semi-Bold';stroke-width:0.26458332"
         id="path1151"
         inkscape:connector-curvature="0" />
      <path
         d="m 45.866279,200.42706 h -0.449585 l -0.222209,-0.62873 h -0.971517 l -0.213596,0.62873 H 43.56151 l 0.925008,-2.47013 h 0.461643 z m -0.780314,-0.9629 -0.342787,-0.9853 q -0.0155,-0.0482 -0.03273,-0.15503 h -0.0069 q -0.0155,0.0982 -0.03445,0.15503 l -0.339342,0.9853 z"
         style="font-style:normal;font-variant:normal;font-weight:600;font-stretch:normal;font-size:3.52777767px;font-family:'Yu Gothic UI';-inkscape-font-specification:'Yu Gothic UI Semi-Bold';stroke-width:0.26458332"
         id="path1153"
         inkscape:connector-curvature="0" />
      <path
         d="m 47.654283,198.30488 h -0.709689 v 2.12218 h -0.409967 v -2.12218 H 45.82666 v -0.34795 h 1.827623 z"
         style="font-style:normal;font-variant:normal;font-weight:600;font-stretch:normal;font-size:3.52777767px;font-family:'Yu Gothic UI';-inkscape-font-specification:'Yu Gothic UI Semi-Bold';stroke-width:0.26458332"
         id="path1155"
         inkscape:connector-curvature="0" />
      <path
         d="m 49.406114,200.42706 h -1.386651 v -2.47013 h 1.331529 v 0.34795 h -0.921563 v 0.69936 h 0.849216 v 0.34623 h -0.849216 v 0.73036 h 0.976685 z"
         style="font-style:normal;font-variant:normal;font-weight:600;font-stretch:normal;font-size:3.52777767px;font-family:'Yu Gothic UI';-inkscape-font-specification:'Yu Gothic UI Semi-Bold';stroke-width:0.26458332"
         id="path1157"
         inkscape:connector-curvature="0" />
      <path
         d="m 53.469604,200.42706 h -0.406521 v -1.59852 q 0,-0.19637 0.02412,-0.48059 h -0.0069 q -0.0379,0.16192 -0.06718,0.23254 l -0.737251,1.84657 h -0.282497 l -0.738973,-1.83279 q -0.03101,-0.081 -0.06546,-0.24632 h -0.0069 q 0.01378,0.14814 0.01378,0.48403 v 1.59508 h -0.37896 v -2.47013 h 0.577053 l 0.6494,1.64503 q 0.07407,0.18948 0.09646,0.2825 h 0.0086 q 0.06373,-0.19465 0.103353,-0.28939 l 0.661458,-1.63814 h 0.556383 z"
         style="font-style:normal;font-variant:normal;font-weight:600;font-stretch:normal;font-size:3.52777767px;font-family:'Yu Gothic UI';-inkscape-font-specification:'Yu Gothic UI Semi-Bold';stroke-width:0.26458332"
         id="path1159"
         inkscape:connector-curvature="0" />
      <path
         d="m 55.093966,200.4684 q -0.53399,0 -0.856106,-0.34623 -0.320394,-0.34623 -0.320394,-0.90089 0,-0.596 0.327284,-0.95085 0.327284,-0.35484 0.888835,-0.35484 0.520209,0 0.837158,0.34451 0.318671,0.34451 0.318671,0.90089 0,0.60461 -0.325561,0.95601 -0.325562,0.3514 -0.869887,0.3514 z m 0.01895,-2.1928 q -0.339342,0 -0.552938,0.25322 -0.211873,0.25321 -0.211873,0.66662 0,0.41169 0.206706,0.66318 0.206705,0.25149 0.54088,0.25149 0.354844,0 0.559828,-0.23943 0.204983,-0.23943 0.204983,-0.67007 0,-0.4427 -0.199816,-0.68385 -0.198093,-0.24116 -0.54777,-0.24116 z"
         style="font-style:normal;font-variant:normal;font-weight:600;font-stretch:normal;font-size:3.52777767px;font-family:'Yu Gothic UI';-inkscape-font-specification:'Yu Gothic UI Semi-Bold';stroke-width:0.26458332"
         id="path1162"
         inkscape:connector-curvature="0" />
      <path
         d="m 56.742444,200.42706 v -2.47013 h 0.713135 q 1.36598,0 1.36598,1.20406 0,0.57189 -0.37896,0.91984 -0.378961,0.34623 -1.016303,0.34623 z m 0.408244,-2.12218 v 1.77595 h 0.327284 q 0.43236,0 0.671794,-0.23771 0.241156,-0.23771 0.241156,-0.67179 0,-0.86645 -0.897447,-0.86645 z"
         style="font-style:normal;font-variant:normal;font-weight:600;font-stretch:normal;font-size:3.52777767px;font-family:'Yu Gothic UI';-inkscape-font-specification:'Yu Gothic UI Semi-Bold';stroke-width:0.26458332"
         id="path1164"
         inkscape:connector-curvature="0" />
      <path
         d="m 59.391723,200.46496 q -0.103353,0 -0.1757,-0.0672 -0.07235,-0.0689 -0.07235,-0.16364 0,-0.0965 0.07235,-0.16537 0.07235,-0.0689 0.1757,-0.0689 0.105075,0 0.177422,0.0689 0.07407,0.0689 0.07407,0.16537 0,0.0947 -0.07407,0.16364 -0.07235,0.0672 -0.177422,0.0672 z"
         style="font-style:normal;font-variant:normal;font-weight:600;font-stretch:normal;font-size:3.52777767px;font-family:'Yu Gothic UI';-inkscape-font-specification:'Yu Gothic UI Semi-Bold';stroke-width:0.26458332"
         id="path1166"
         inkscape:connector-curvature="0" />
    </g>
    <g
       aria-label="STATUS"
       style="font-style:normal;font-variant:normal;font-weight:normal;font-stretch:normal;font-size:2.11666656px;line-height:1.25;font-family:'Yu Gothic UI';-inkscape-font-specification:'Yu Gothic UI';letter-spacing:0px;word-spacing:0px;fill:#000000;fill-opacity:1;stroke:none;stroke-width:0.26458332"
       id="text962"
       transform="translate(1.7223908)">
      <path
         d="m 18.645891,204.33587 v -0.20464 q 0.03514,0.031 0.08372,0.0558 0.04961,0.0248 0.103353,0.0424 0.05478,0.0165 0.109554,0.0258 0.05478,0.009 0.101285,0.009 0.160197,0 0.238746,-0.0589 0.07958,-0.0599 0.07958,-0.17156 0,-0.0599 -0.02687,-0.10439 -0.02584,-0.0444 -0.07235,-0.0806 -0.04651,-0.0372 -0.110587,-0.0703 -0.06304,-0.0341 -0.136426,-0.0713 -0.07751,-0.0393 -0.144694,-0.0796 -0.06718,-0.0403 -0.116789,-0.0889 -0.04961,-0.0486 -0.07855,-0.10956 -0.02791,-0.062 -0.02791,-0.14469 0,-0.10129 0.04444,-0.1757 0.04444,-0.0754 0.116788,-0.12402 0.07235,-0.0486 0.164331,-0.0724 0.09302,-0.0238 0.189136,-0.0238 0.219108,0 0.319361,0.0527 v 0.19534 q -0.131259,-0.091 -0.336931,-0.091 -0.05684,0 -0.113688,0.0124 -0.05684,0.0114 -0.101286,0.0382 -0.04444,0.0269 -0.07235,0.0692 -0.02791,0.0424 -0.02791,0.10336 0,0.0568 0.02067,0.0982 0.0217,0.0413 0.06305,0.0755 0.04134,0.0341 0.100252,0.0661 0.05995,0.032 0.137459,0.0703 0.07958,0.0393 0.150896,0.0827 0.07131,0.0434 0.125057,0.0961 0.05374,0.0527 0.08475,0.11678 0.03204,0.0641 0.03204,0.14677 0,0.10955 -0.04341,0.18603 -0.04237,0.0755 -0.115755,0.12299 -0.07235,0.0475 -0.167432,0.0682 -0.09508,0.0217 -0.200504,0.0217 -0.03514,0 -0.08682,-0.006 -0.05168,-0.005 -0.10542,-0.0165 -0.05374,-0.0103 -0.102319,-0.0258 -0.04754,-0.0165 -0.07648,-0.0362 z"
         style="font-size:2.11666656px;stroke-width:0.26458332"
         id="path965"
         inkscape:connector-curvature="0" />
      <path
         d="m 20.695378,203.07083 h -0.427881 v 1.32498 h -0.173633 v -1.32498 h -0.426847 v -0.1571 h 1.028361 z"
         style="font-size:2.11666656px;stroke-width:0.26458332"
         id="path967"
         inkscape:connector-curvature="0" />
      <path
         d="m 21.999691,204.39581 h -0.192236 l -0.157096,-0.41548 h -0.628386 l -0.147794,0.41548 h -0.19327 l 0.568441,-1.48208 h 0.179834 z m -0.406176,-0.57154 -0.232544,-0.63148 q -0.01137,-0.031 -0.02274,-0.0992 h -0.0041 q -0.01033,0.063 -0.02377,0.0992 l -0.230477,0.63148 z"
         style="font-size:2.11666656px;stroke-width:0.26458332"
         id="path969"
         inkscape:connector-curvature="0" />
      <path
         d="m 23.01875,203.07083 h -0.42788 v 1.32498 h -0.173633 v -1.32498 h -0.426848 v -0.1571 h 1.028361 z"
         style="font-size:2.11666656px;stroke-width:0.26458332"
         id="path971"
         inkscape:connector-curvature="0" />
      <path
         d="m 24.334432,203.79637 q 0,0.62425 -0.563273,0.62425 -0.539502,0 -0.539502,-0.60048 v -0.90641 h 0.173633 v 0.89504 q 0,0.45578 0.384473,0.45578 0.371036,0 0.371036,-0.44028 v -0.91054 h 0.173633 z"
         style="font-size:2.11666656px;stroke-width:0.26458332"
         id="path973"
         inkscape:connector-curvature="0" />
      <path
         d="m 24.636223,204.33587 v -0.20464 q 0.03514,0.031 0.08371,0.0558 0.04961,0.0248 0.103353,0.0424 0.05478,0.0165 0.109554,0.0258 0.05478,0.009 0.101286,0.009 0.160197,0 0.238745,-0.0589 0.07958,-0.0599 0.07958,-0.17156 0,-0.0599 -0.02687,-0.10439 -0.02584,-0.0444 -0.07235,-0.0806 -0.04651,-0.0372 -0.110587,-0.0703 -0.06305,-0.0341 -0.136426,-0.0713 -0.07752,-0.0393 -0.144694,-0.0796 -0.06718,-0.0403 -0.116789,-0.0889 -0.04961,-0.0486 -0.07855,-0.10956 -0.0279,-0.062 -0.0279,-0.14469 0,-0.10129 0.04444,-0.1757 0.04444,-0.0754 0.116789,-0.12402 0.07235,-0.0486 0.164331,-0.0724 0.09302,-0.0238 0.189136,-0.0238 0.219108,0 0.31936,0.0527 v 0.19534 q -0.131258,-0.091 -0.33693,-0.091 -0.05684,0 -0.113688,0.0124 -0.05684,0.0114 -0.101286,0.0382 -0.04444,0.0269 -0.07235,0.0692 -0.02791,0.0424 -0.02791,0.10336 0,0.0568 0.02067,0.0982 0.0217,0.0413 0.06304,0.0755 0.04134,0.0341 0.100253,0.0661 0.05994,0.032 0.137459,0.0703 0.07958,0.0393 0.150895,0.0827 0.07131,0.0434 0.125057,0.0961 0.05374,0.0527 0.08475,0.11678 0.03204,0.0641 0.03204,0.14677 0,0.10955 -0.04341,0.18603 -0.04237,0.0755 -0.115755,0.12299 -0.07235,0.0475 -0.167432,0.0682 -0.09509,0.0217 -0.200505,0.0217 -0.03514,0 -0.08682,-0.006 -0.05168,-0.005 -0.10542,-0.0165 -0.05374,-0.0103 -0.102319,-0.0258 -0.04754,-0.0165 -0.07648,-0.0362 z"
         style="font-size:2.11666656px;stroke-width:0.26458332"
         id="path975"
         inkscape:connector-curvature="0" />
    </g>
  </g>
  <g
     inkscape:groupmode="layer"
     id="layer2"
     inkscape:label="Grid6"
     style="display:none"
     sodipodi:insensitive="true">
    <g
       transform="translate(7.2598426e-7,3.333209e-6)"
       style="display:inline"
       id="g1112">
      <path
         style="fill:none;stroke:#000000;stroke-width:0.05;stroke-linecap:butt;stroke-linejoin:miter;stroke-miterlimit:4;stroke-dasharray:none;stroke-opacity:1"
         d="m 7.9375,-1e-5 -3e-6,100.54167"
         id="path881-8-8"
         inkscape:connector-curvature="0"
         sodipodi:nodetypes="cc" />
      <path
         sodipodi:nodetypes="cc"
         inkscape:connector-curvature="0"
         id="path890-2-5"
         d="m 3.968752,0 -4e-6,100.54167"
         style="fill:none;stroke:#000000;stroke-width:0.05;stroke-linecap:butt;stroke-linejoin:miter;stroke-miterlimit:4;stroke-dasharray:none;stroke-opacity:1" />
      <path
         style="fill:none;stroke:#000000;stroke-width:0.05;stroke-linecap:butt;stroke-linejoin:miter;stroke-miterlimit:4;stroke-dasharray:none;stroke-opacity:1"
         d="m 11.906253,0 -4e-6,100.54167"
         id="path895-1-5"
         inkscape:connector-curvature="0"
         sodipodi:nodetypes="cc" />
      <path
         sodipodi:nodetypes="cc"
         inkscape:connector-curvature="0"
         id="path905-6-4"
         d="m 0,14.022551 15.875,3.66e-4"
         style="fill:none;stroke:#000000;stroke-width:0.05;stroke-linecap:butt;stroke-linejoin:miter;stroke-miterlimit:4;stroke-dasharray:none;stroke-opacity:1" />
      <path
         sodipodi:nodetypes="cc"
         style="fill:none;stroke:#000000;stroke-width:0.05;stroke-linecap:butt;stroke-linejoin:miter;stroke-miterlimit:4;stroke-dasharray:none;stroke-opacity:1"
         d="M 0,28.57465 15.875,28.575"
         id="path1103"
         inkscape:connector-curvature="0" />
      <path
         sodipodi:nodetypes="cc"
         inkscape:connector-curvature="0"
         id="path1107"
         d="m 0,43.126622 15.875,4.61e-4"
         style="fill:none;stroke:#000000;stroke-width:0.05;stroke-linecap:butt;stroke-linejoin:miter;stroke-miterlimit:4;stroke-dasharray:none;stroke-opacity:1" />
      <path
         sodipodi:nodetypes="cc"
         style="fill:none;stroke:#000000;stroke-width:0.05;stroke-linecap:butt;stroke-linejoin:miter;stroke-miterlimit:4;stroke-dasharray:none;stroke-opacity:1"
         d="m 0,57.678723 15.875,4.44e-4"
         id="path1111"
         inkscape:connector-curvature="0" />
      <path
         sodipodi:nodetypes="cc"
         inkscape:connector-curvature="0"
         id="path1115"
         d="m 0,72.230955 15.875,2.95e-4"
         style="fill:none;stroke:#000000;stroke-width:0.05;stroke-linecap:butt;stroke-linejoin:miter;stroke-miterlimit:4;stroke-dasharray:none;stroke-opacity:1" />
      <path
         sodipodi:nodetypes="cc"
         style="fill:none;stroke:#000000;stroke-width:0.05;stroke-linecap:butt;stroke-linejoin:miter;stroke-miterlimit:4;stroke-dasharray:none;stroke-opacity:1"
         d="m 0,86.782927 15.875,4.06e-4"
         id="path1119"
         inkscape:connector-curvature="0" />
      <circle
         r="4.0999999"
         cy="28.574995"
         cx="7.9523039"
         id="circle1014"
         style="display:inline;opacity:1;fill:none;fill-opacity:1;stroke:#000000;stroke-width:0.05;stroke-linecap:square;stroke-linejoin:round;stroke-miterlimit:4;stroke-dasharray:none;stroke-dashoffset:0;stroke-opacity:1;paint-order:markers fill stroke" />
      <circle
         r="4.0999999"
         cy="43.127026"
         cx="7.9523039"
         id="circle1018"
         style="display:inline;opacity:1;fill:none;fill-opacity:1;stroke:#000000;stroke-width:0.05;stroke-linecap:square;stroke-linejoin:round;stroke-miterlimit:4;stroke-dasharray:none;stroke-dashoffset:0;stroke-opacity:1;paint-order:markers fill stroke" />
      <circle
         style="display:inline;opacity:1;fill:none;fill-opacity:1;stroke:#000000;stroke-width:0.05;stroke-linecap:square;stroke-linejoin:round;stroke-miterlimit:4;stroke-dasharray:none;stroke-dashoffset:0;stroke-opacity:1;paint-order:markers fill stroke"
         id="circle1022"
         cx="7.9523039"
         cy="57.679188"
         r="4.0999999" />
      <circle
         style="display:inline;opacity:1;fill:none;fill-opacity:1;stroke:#000000;stroke-width:0.05;stroke-linecap:square;stroke-linejoin:round;stroke-miterlimit:4;stroke-dasharray:none;stroke-dashoffset:0;stroke-opacity:1;paint-order:markers fill stroke"
         id="circle1026"
         cx="7.9523039"
         cy="72.231216"
         r="4.0999999" />
      <circle
         r="4.0999999"
         cy="86.783379"
         cx="7.9523039"
         id="circle1030"
         style="display:inline;opacity:1;fill:none;fill-opacity:1;stroke:#000000;stroke-width:0.05;stroke-linecap:square;stroke-linejoin:round;stroke-miterlimit:4;stroke-dasharray:none;stroke-dashoffset:0;stroke-opacity:1;paint-order:markers fill stroke" />
      <circle
         r="5.4741378"
         cy="14.023303"
         cx="7.9360795"
         id="circle943"
         style="display:inline;opacity:1;fill:none;fill-opacity:1;stroke:#000000;stroke-width:0.05172414;stroke-linecap:square;stroke-linejoin:round;stroke-miterlimit:4;stroke-dasharray:none;stroke-dashoffset:0;stroke-opacity:1;paint-order:markers fill stroke" />
      <circle
         style="display:inline;opacity:1;fill:none;fill-opacity:1;stroke:#000000;stroke-width:0.05172414;stroke-linecap:square;stroke-linejoin:round;stroke-miterlimit:4;stroke-dasharray:none;stroke-dashoffset:0;stroke-opacity:1;paint-order:markers fill stroke"
         id="circle975"
         cx="7.9360795"
         cy="28.575275"
         r="5.4741378" />
      <circle
         style="display:inline;opacity:1;fill:none;fill-opacity:1;stroke:#000000;stroke-width:0.05172414;stroke-linecap:square;stroke-linejoin:round;stroke-miterlimit:4;stroke-dasharray:none;stroke-dashoffset:0;stroke-opacity:1;paint-order:markers fill stroke"
         id="circle977"
         cx="7.9360795"
         cy="43.127495"
         r="5.4741378" />
      <circle
         r="5.4741378"
         cy="57.67947"
         cx="7.9360795"
         id="circle979"
         style="display:inline;opacity:1;fill:none;fill-opacity:1;stroke:#000000;stroke-width:0.05172414;stroke-linecap:square;stroke-linejoin:round;stroke-miterlimit:4;stroke-dasharray:none;stroke-dashoffset:0;stroke-opacity:1;paint-order:markers fill stroke" />
      <circle
         r="5.4741378"
         cy="72.231689"
         cx="7.9360795"
         id="circle981"
         style="display:inline;opacity:1;fill:none;fill-opacity:1;stroke:#000000;stroke-width:0.05172414;stroke-linecap:square;stroke-linejoin:round;stroke-miterlimit:4;stroke-dasharray:none;stroke-dashoffset:0;stroke-opacity:1;paint-order:markers fill stroke" />
      <circle
         style="display:inline;opacity:1;fill:none;fill-opacity:1;stroke:#000000;stroke-width:0.05172414;stroke-linecap:square;stroke-linejoin:round;stroke-miterlimit:4;stroke-dasharray:none;stroke-dashoffset:0;stroke-opacity:1;paint-order:markers fill stroke"
         id="circle983"
         cx="7.9360795"
         cy="86.783661"
         r="5.4741378" />
      <circle
         style="display:inline;opacity:1;fill:none;fill-opacity:1;stroke:#000000;stroke-width:0.05;stroke-linecap:square;stroke-linejoin:round;stroke-miterlimit:4;stroke-dasharray:none;stroke-dashoffset:0;stroke-opacity:1;paint-order:markers fill stroke"
         id="circle1089"
         cx="7.9523039"
         cy="14.022678"
         r="4.0999999" />
    </g>
    <g
       transform="translate(15.875,3.333209e-6)"
       style="display:inline"
       id="g1085">
      <path
         style="fill:none;stroke:#000000;stroke-width:0.05;stroke-linecap:butt;stroke-linejoin:miter;stroke-miterlimit:4;stroke-dasharray:none;stroke-opacity:1"
         d="m 7.9375,-1e-5 -3e-6,100.54167"
         id="path1043"
         inkscape:connector-curvature="0"
         sodipodi:nodetypes="cc" />
      <path
         sodipodi:nodetypes="cc"
         inkscape:connector-curvature="0"
         id="path1045"
         d="m 3.968752,0 -4e-6,100.54167"
         style="fill:none;stroke:#000000;stroke-width:0.05;stroke-linecap:butt;stroke-linejoin:miter;stroke-miterlimit:4;stroke-dasharray:none;stroke-opacity:1" />
      <path
         style="fill:none;stroke:#000000;stroke-width:0.05;stroke-linecap:butt;stroke-linejoin:miter;stroke-miterlimit:4;stroke-dasharray:none;stroke-opacity:1"
         d="m 11.906253,0 -4e-6,100.54167"
         id="path1047"
         inkscape:connector-curvature="0"
         sodipodi:nodetypes="cc" />
      <path
         sodipodi:nodetypes="cc"
         inkscape:connector-curvature="0"
         id="path1049"
         d="m 0,14.022551 15.875,3.66e-4"
         style="fill:none;stroke:#000000;stroke-width:0.05;stroke-linecap:butt;stroke-linejoin:miter;stroke-miterlimit:4;stroke-dasharray:none;stroke-opacity:1" />
      <path
         sodipodi:nodetypes="cc"
         style="fill:none;stroke:#000000;stroke-width:0.05;stroke-linecap:butt;stroke-linejoin:miter;stroke-miterlimit:4;stroke-dasharray:none;stroke-opacity:1"
         d="M 0,28.57465 15.875,28.575"
         id="path1051"
         inkscape:connector-curvature="0" />
      <path
         sodipodi:nodetypes="cc"
         inkscape:connector-curvature="0"
         id="path1053"
         d="m 0,43.126622 15.875,4.61e-4"
         style="fill:none;stroke:#000000;stroke-width:0.05;stroke-linecap:butt;stroke-linejoin:miter;stroke-miterlimit:4;stroke-dasharray:none;stroke-opacity:1" />
      <path
         sodipodi:nodetypes="cc"
         style="fill:none;stroke:#000000;stroke-width:0.05;stroke-linecap:butt;stroke-linejoin:miter;stroke-miterlimit:4;stroke-dasharray:none;stroke-opacity:1"
         d="m 0,57.678723 15.875,4.44e-4"
         id="path1055"
         inkscape:connector-curvature="0" />
      <path
         sodipodi:nodetypes="cc"
         inkscape:connector-curvature="0"
         id="path1057"
         d="m 0,72.230955 15.875,2.95e-4"
         style="fill:none;stroke:#000000;stroke-width:0.05;stroke-linecap:butt;stroke-linejoin:miter;stroke-miterlimit:4;stroke-dasharray:none;stroke-opacity:1" />
      <path
         sodipodi:nodetypes="cc"
         style="fill:none;stroke:#000000;stroke-width:0.05;stroke-linecap:butt;stroke-linejoin:miter;stroke-miterlimit:4;stroke-dasharray:none;stroke-opacity:1"
         d="m 0,86.782927 15.875,4.06e-4"
         id="path1059"
         inkscape:connector-curvature="0" />
      <circle
         r="4.0999999"
         cy="28.574995"
         cx="7.9523039"
         id="circle1061"
         style="display:inline;opacity:1;fill:none;fill-opacity:1;stroke:#000000;stroke-width:0.05;stroke-linecap:square;stroke-linejoin:round;stroke-miterlimit:4;stroke-dasharray:none;stroke-dashoffset:0;stroke-opacity:1;paint-order:markers fill stroke" />
      <circle
         r="4.0999999"
         cy="43.127026"
         cx="7.9523039"
         id="circle1063"
         style="display:inline;opacity:1;fill:none;fill-opacity:1;stroke:#000000;stroke-width:0.05;stroke-linecap:square;stroke-linejoin:round;stroke-miterlimit:4;stroke-dasharray:none;stroke-dashoffset:0;stroke-opacity:1;paint-order:markers fill stroke" />
      <circle
         style="display:inline;opacity:1;fill:none;fill-opacity:1;stroke:#000000;stroke-width:0.05;stroke-linecap:square;stroke-linejoin:round;stroke-miterlimit:4;stroke-dasharray:none;stroke-dashoffset:0;stroke-opacity:1;paint-order:markers fill stroke"
         id="circle1065"
         cx="7.9523039"
         cy="57.679188"
         r="4.0999999" />
      <circle
         style="display:inline;opacity:1;fill:none;fill-opacity:1;stroke:#000000;stroke-width:0.05;stroke-linecap:square;stroke-linejoin:round;stroke-miterlimit:4;stroke-dasharray:none;stroke-dashoffset:0;stroke-opacity:1;paint-order:markers fill stroke"
         id="circle1067"
         cx="7.9523039"
         cy="72.231216"
         r="4.0999999" />
      <circle
         r="4.0999999"
         cy="86.783379"
         cx="7.9523039"
         id="circle1069"
         style="display:inline;opacity:1;fill:none;fill-opacity:1;stroke:#000000;stroke-width:0.05;stroke-linecap:square;stroke-linejoin:round;stroke-miterlimit:4;stroke-dasharray:none;stroke-dashoffset:0;stroke-opacity:1;paint-order:markers fill stroke" />
      <circle
         r="5.4741378"
         cy="14.023303"
         cx="7.9360795"
         id="circle1071"
         style="display:inline;opacity:1;fill:none;fill-opacity:1;stroke:#000000;stroke-width:0.05172414;stroke-linecap:square;stroke-linejoin:round;stroke-miterlimit:4;stroke-dasharray:none;stroke-dashoffset:0;stroke-opacity:1;paint-order:markers fill stroke" />
      <circle
         style="display:inline;opacity:1;fill:none;fill-opacity:1;stroke:#000000;stroke-width:0.05172414;stroke-linecap:square;stroke-linejoin:round;stroke-miterlimit:4;stroke-dasharray:none;stroke-dashoffset:0;stroke-opacity:1;paint-order:markers fill stroke"
         id="circle1073"
         cx="7.9360795"
         cy="28.575275"
         r="5.4741378" />
      <circle
         style="display:inline;opacity:1;fill:none;fill-opacity:1;stroke:#000000;stroke-width:0.05172414;stroke-linecap:square;stroke-linejoin:round;stroke-miterlimit:4;stroke-dasharray:none;stroke-dashoffset:0;stroke-opacity:1;paint-order:markers fill stroke"
         id="circle1075"
         cx="7.9360795"
         cy="43.127495"
         r="5.4741378" />
      <circle
         r="5.4741378"
         cy="57.67947"
         cx="7.9360795"
         id="circle1077"
         style="display:inline;opacity:1;fill:none;fill-opacity:1;stroke:#000000;stroke-width:0.05172414;stroke-linecap:square;stroke-linejoin:round;stroke-miterlimit:4;stroke-dasharray:none;stroke-dashoffset:0;stroke-opacity:1;paint-order:markers fill stroke" />
      <circle
         r="5.4741378"
         cy="72.231689"
         cx="7.9360795"
         id="circle1079"
         style="display:inline;opacity:1;fill:none;fill-opacity:1;stroke:#000000;stroke-width:0.05172414;stroke-linecap:square;stroke-linejoin:round;stroke-miterlimit:4;stroke-dasharray:none;stroke-dashoffset:0;stroke-opacity:1;paint-order:markers fill stroke" />
      <circle
         style="display:inline;opacity:1;fill:none;fill-opacity:1;stroke:#000000;stroke-width:0.05172414;stroke-linecap:square;stroke-linejoin:round;stroke-miterlimit:4;stroke-dasharray:none;stroke-dashoffset:0;stroke-opacity:1;paint-order:markers fill stroke"
         id="circle1081"
         cx="7.9360795"
         cy="86.783661"
         r="5.4741378" />
      <circle
         style="display:inline;opacity:1;fill:none;fill-opacity:1;stroke:#000000;stroke-width:0.05;stroke-linecap:square;stroke-linejoin:round;stroke-miterlimit:4;stroke-dasharray:none;stroke-dashoffset:0;stroke-opacity:1;paint-order:markers fill stroke"
         id="circle1083"
         cx="7.9523039"
         cy="14.022678"
         r="4.0999999" />
    </g>
  </g>
</svg>
