<?xml version="1.0" encoding="UTF-8" standalone="no"?>
<!-- Created with Inkscape (http://www.inkscape.org/) -->

<svg
   xmlns:dc="http://purl.org/dc/elements/1.1/"
   xmlns:cc="http://creativecommons.org/ns#"
   xmlns:rdf="http://www.w3.org/1999/02/22-rdf-syntax-ns#"
   xmlns:svg="http://www.w3.org/2000/svg"
   xmlns="http://www.w3.org/2000/svg"
   xmlns:sodipodi="http://sodipodi.sourceforge.net/DTD/sodipodi-0.dtd"
   xmlns:inkscape="http://www.inkscape.org/namespaces/inkscape"
   width="120"
   height="380"
   viewBox="0 0 31.750002 100.54167"
   version="1.1"
   id="svg8"
   inkscape:version="0.92.5 (2060ec1f9f, 2020-04-08)"
   sodipodi:docname="SampleAndHold2.svg">
  <defs
     id="defs2" />
  <sodipodi:namedview
     id="base"
     pagecolor="#ffffff"
     bordercolor="#666666"
     borderopacity="1.0"
     inkscape:pageopacity="0.0"
     inkscape:pageshadow="2"
     inkscape:zoom="2.1526316"
     inkscape:cx="41.489384"
     inkscape:cy="114.80433"
     inkscape:document-units="mm"
     inkscape:current-layer="layer1"
     showgrid="true"
     units="px"
     inkscape:snap-bbox="true"
     inkscape:snap-page="true"
     inkscape:bbox-nodes="true"
     inkscape:snap-bbox-edge-midpoints="true"
     inkscape:window-width="1920"
     inkscape:window-height="1017"
     inkscape:window-x="-8"
     inkscape:window-y="-8"
     inkscape:window-maximized="1"
     inkscape:lockguides="false">
    <inkscape:grid
       type="xygrid"
       id="grid116" />
  </sodipodi:namedview>
  <metadata
     id="metadata5">
    <rdf:RDF>
      <cc:Work
         rdf:about="">
        <dc:format>image/svg+xml</dc:format>
        <dc:type
           rdf:resource="http://purl.org/dc/dcmitype/StillImage" />
        <dc:title />
      </cc:Work>
    </rdf:RDF>
  </metadata>
  <g
     inkscape:groupmode="layer"
     id="layer4"
     inkscape:label="Panel"
     sodipodi:insensitive="true">
    <path
       transform="matrix(2,0,0,1,0,-196.45832)"
       sodipodi:type="inkscape:offset"
       inkscape:radius="0"
       inkscape:original="M 0 196.45898 L 0 297 L 15.875 297 L 15.875 196.45898 L 0 196.45898 z "
       style="fill:#f36a1f;stroke-width:0.3310422"
       id="rect3855"
       d="M 0,196.45898 V 297 H 15.875 V 196.45898 Z" />
  </g>
  <g
     inkscape:label="Layer 1"
     inkscape:groupmode="layer"
     id="layer1"
     transform="translate(0,-196.45832)"
     style="display:inline">
    <rect
       style="fill:#f3861f;stroke-width:0.13752697"
       id="rect897"
       width="15.345833"
       height="12.167906"
       x="0.26458332"
       y="-288.26492"
       transform="scale(1,-1)" />
    <text
       xml:space="preserve"
       style="font-style:normal;font-weight:normal;font-size:2.82222223px;line-height:1.25;font-family:sans-serif;letter-spacing:0px;word-spacing:0px;fill:#000000;fill-opacity:1;stroke:none;stroke-width:0.26458332"
       x="17.197916"
       y="201.74998"
       id="text3821"><tspan
         sodipodi:role="line"
         id="tspan3819"
         x="17.197916"
         y="204.32478"
         style="stroke-width:0.26458332" /></text>
    <rect
       style="fill:#f3861f;stroke-width:0.13752699"
       id="rect897-74"
       width="15.345834"
       height="12.167907"
       x="16.139578"
       y="-288.26492"
       transform="scale(1,-1)" />
    <g
       aria-label="INPUT"
       style="font-style:normal;font-variant:normal;font-weight:normal;font-stretch:normal;font-size:2.82222223px;line-height:1.25;font-family:'Yu Gothic UI';-inkscape-font-specification:'Yu Gothic UI';letter-spacing:0px;word-spacing:0px;fill:#000000;fill-opacity:1;stroke:none;stroke-width:0.26458332"
       id="text1733"
       transform="translate(0,43.623888)">
      <path
         d="M 4.3931857,206.34715 H 4.1616753 v -1.9761 h 0.2315104 z"
         style="stroke-width:0.26458332"
         id="path1799"
         inkscape:connector-curvature="0" />
      <path
         d="M 6.5043402,206.34715 H 6.2204644 l -1.0169922,-1.57509 q -0.038585,-0.0593 -0.06339,-0.12403 h -0.00827 q 0.011024,0.0634 0.011024,0.27148 v 1.42764 H 4.9113281 v -1.9761 h 0.3004123 l 0.9894314,1.55029 q 0.062012,0.0965 0.079926,0.13229 h 0.00551 q -0.01378,-0.0854 -0.01378,-0.29077 v -1.39181 h 0.2315104 z"
         style="stroke-width:0.26458332"
         id="path1801"
         inkscape:connector-curvature="0" />
      <path
         d="m 7.2539931,205.60026 v 0.74689 H 7.0224827 v -1.9761 h 0.5429471 q 0.3169487,0 0.4905816,0.15434 0.1750108,0.15434 0.1750108,0.43546 0,0.28112 -0.1943034,0.46026 -0.1929253,0.17915 -0.5222765,0.17915 z m 0,-1.01975 v 0.81028 h 0.2425347 q 0.2397787,0 0.3651802,-0.10886 0.1267795,-0.11024 0.1267795,-0.31006 0,-0.39136 -0.4630209,-0.39136 z"
         style="stroke-width:0.26458332"
         id="path1803"
         inkscape:connector-curvature="0" />
      <path
         d="m 10.050033,205.54789 q 0,0.83234 -0.7510312,0.83234 -0.7193359,0 -0.7193359,-0.80064 v -1.20854 h 0.2315104 v 1.19338 q 0,0.60771 0.5126302,0.60771 0.4947157,0 0.4947157,-0.58704 v -1.21405 h 0.2315108 z"
         style="stroke-width:0.26458332"
         id="path1805"
         inkscape:connector-curvature="0" />
      <path
         d="m 11.713325,204.58051 h -0.570508 v 1.76664 h -0.231511 v -1.76664 h -0.569129 v -0.20946 h 1.371148 z"
         style="stroke-width:0.26458332"
         id="path1807"
         inkscape:connector-curvature="0" />
    </g>
    <g
       aria-label="TRIGGER"
       style="font-style:normal;font-variant:normal;font-weight:normal;font-stretch:normal;font-size:2.82222223px;line-height:1.25;font-family:'Yu Gothic UI';-inkscape-font-specification:'Yu Gothic UI';letter-spacing:0px;word-spacing:0px;fill:#000000;fill-opacity:1;stroke:none;stroke-width:0.26458332"
       id="text1737"
       transform="translate(0,-13.195077)">
      <path
         d="M 3.8936472,217.74816 H 3.3231394 v 1.76664 H 3.0916289 v -1.76664 H 2.5224992 v -0.20947 h 1.371148 z"
         style="stroke-width:0.26458332"
         id="path1810"
         inkscape:connector-curvature="0" />
      <path
         d="M 5.6189509,219.5148 H 5.3433433 l -0.3307292,-0.55397 q -0.045475,-0.0772 -0.088194,-0.13091 -0.042719,-0.0551 -0.088194,-0.0896 -0.044097,-0.0344 -0.096463,-0.0496 -0.050987,-0.0165 -0.1157552,-0.0165 H 4.4338381 v 0.8406 H 4.2023277 v -1.97611 H 4.792128 q 0.1295356,0 0.2384006,0.0331 0.1102431,0.0317 0.1901693,0.0978 0.081304,0.0661 0.1267795,0.16536 0.045475,0.0978 0.045475,0.23013 0,0.10336 -0.031695,0.19017 -0.030317,0.0854 -0.088194,0.15297 -0.0565,0.0675 -0.1378039,0.11575 -0.079926,0.0469 -0.180523,0.073 v 0.006 q 0.049609,0.0221 0.085438,0.051 0.037207,0.0276 0.07028,0.0661 0.033073,0.0386 0.064768,0.0882 0.033073,0.0482 0.073036,0.113 z m -1.1851128,-1.76664 v 0.71658 h 0.3141927 q 0.086816,0 0.1598524,-0.0262 0.074414,-0.0262 0.1281576,-0.0744 0.053743,-0.0496 0.08406,-0.11989 0.030317,-0.0717 0.030317,-0.15985 0,-0.15848 -0.1033529,-0.24667 -0.1019748,-0.0896 -0.2962782,-0.0896 z"
         style="stroke-width:0.26458332"
         id="path1812"
         inkscape:connector-curvature="0" />
      <path
         d="M 6.1205569,219.5148 H 5.8890465 v -1.97611 h 0.2315104 z"
         style="stroke-width:0.26458332"
         id="path1814"
         inkscape:connector-curvature="0" />
      <path
         d="m 8.1159561,219.37975 q -0.2976563,0.16812 -0.6614584,0.16812 -0.4230577,0 -0.6848849,-0.27285 -0.2604493,-0.27285 -0.2604493,-0.72209 0,-0.45889 0.2893881,-0.75241 0.290766,-0.2949 0.7358724,-0.2949 0.3224609,0 0.541569,0.10473 v 0.25632 q -0.2397787,-0.15159 -0.5677518,-0.15159 -0.3321072,0 -0.5443251,0.22876 -0.2122178,0.22875 -0.2122178,0.59255 0,0.37483 0.1970594,0.5898 0.1970595,0.2136 0.5346788,0.2136 0.2315105,0 0.4010092,-0.0923 v -0.55397 h -0.432704 v -0.20946 h 0.6642144 z"
         style="stroke-width:0.26458332"
         id="path1816"
         inkscape:connector-curvature="0" />
      <path
         d="m 10.050722,219.37975 q -0.2976566,0.16812 -0.6614587,0.16812 -0.4230577,0 -0.684885,-0.27285 -0.2604492,-0.27285 -0.2604492,-0.72209 0,-0.45889 0.289388,-0.75241 0.2907661,-0.2949 0.7358724,-0.2949 0.322461,0 0.5415695,0.10473 v 0.25632 q -0.2397791,-0.15159 -0.5677522,-0.15159 -0.3321072,0 -0.5443251,0.22876 -0.2122179,0.22875 -0.2122179,0.59255 0,0.37483 0.1970595,0.5898 0.1970595,0.2136 0.5346788,0.2136 0.2315104,0 0.4010091,-0.0923 v -0.55397 h -0.432704 v -0.20946 h 0.6642148 z"
         style="stroke-width:0.26458332"
         id="path1818"
         inkscape:connector-curvature="0" />
      <path
         d="m 11.55554,219.5148 h -1.047309 v -1.97611 h 1.003211 v 0.20947 h -0.771701 v 0.65732 h 0.713824 v 0.20808 h -0.713824 v 0.69178 h 0.815799 z"
         style="stroke-width:0.26458332"
         id="path1820"
         inkscape:connector-curvature="0" />
      <path
         d="m 13.352501,219.5148 h -0.275608 l -0.330729,-0.55397 q -0.04547,-0.0772 -0.08819,-0.13091 -0.04272,-0.0551 -0.0882,-0.0896 -0.0441,-0.0344 -0.09646,-0.0496 -0.05099,-0.0165 -0.115756,-0.0165 h -0.190169 v 0.8406 h -0.23151 v -1.97611 h 0.5898 q 0.129536,0 0.238401,0.0331 0.110243,0.0317 0.190169,0.0978 0.0813,0.0661 0.126779,0.16536 0.04548,0.0978 0.04548,0.23013 0,0.10336 -0.03169,0.19017 -0.03032,0.0854 -0.0882,0.15297 -0.0565,0.0675 -0.137804,0.11575 -0.07993,0.0469 -0.180523,0.073 v 0.006 q 0.04961,0.0221 0.08544,0.051 0.03721,0.0276 0.07028,0.0661 0.03307,0.0386 0.06477,0.0882 0.03307,0.0482 0.07304,0.113 z m -1.185113,-1.76664 v 0.71658 h 0.314193 q 0.08682,0 0.159852,-0.0262 0.07441,-0.0262 0.128158,-0.0744 0.05374,-0.0496 0.08406,-0.11989 0.03032,-0.0717 0.03032,-0.15985 0,-0.15848 -0.103353,-0.24667 -0.101975,-0.0896 -0.296278,-0.0896 z"
         style="stroke-width:0.26458332"
         id="path1822"
         inkscape:connector-curvature="0" />
    </g>
    <g
       aria-label="OUTPUT"
       style="font-style:normal;font-variant:normal;font-weight:normal;font-stretch:normal;font-size:2.82222223px;line-height:1.25;font-family:'Yu Gothic UI';-inkscape-font-specification:'Yu Gothic UI';letter-spacing:0px;word-spacing:0px;fill:#000000;fill-opacity:1;stroke:none;stroke-width:0.26458332"
       id="text1749"
       transform="translate(0,15.92676)">
      <path
         d="m 3.6807399,263.20818 q -0.4203017,0 -0.6738607,-0.27698 -0.252181,-0.27699 -0.252181,-0.72072 0,-0.4768 0.2576931,-0.76067 0.2576932,-0.28388 0.7014215,-0.28388 0.4092773,0 0.6587022,0.27561 0.250803,0.27561 0.250803,0.72071 0,0.48369 -0.2563151,0.76481 -0.2563151,0.28112 -0.686263,0.28112 z m 0.016536,-1.83279 q -0.3114366,0 -0.50574,0.22462 -0.1943034,0.22462 -0.1943034,0.5898 0,0.36518 0.1887912,0.58842 0.1901693,0.22187 0.4947158,0.22187 0.325217,0 0.5126302,-0.21222 0.1874132,-0.21222 0.1874132,-0.59393 0,-0.39137 -0.1819011,-0.60496 -0.181901,-0.2136 -0.5016059,-0.2136 z"
         style="stroke-width:0.26458332"
         id="path1772"
         inkscape:connector-curvature="0" />
      <path
         d="m 6.4574869,262.37585 q 0,0.83233 -0.7510308,0.83233 -0.719336,0 -0.719336,-0.80064 V 261.199 h 0.2315104 v 1.19338 q 0,0.60772 0.5126303,0.60772 0.4947157,0 0.4947157,-0.58705 V 261.199 h 0.2315104 z"
         style="stroke-width:0.26458332"
         id="path1774"
         inkscape:connector-curvature="0" />
      <path
         d="M 8.120779,261.40846 H 7.5502712 v 1.76665 H 7.3187608 v -1.76665 H 6.749631 V 261.199 h 1.371148 z"
         style="stroke-width:0.26458332"
         id="path1776"
         inkscape:connector-curvature="0" />
      <path
         d="m 8.6609698,262.42821 v 0.7469 H 8.4294594 V 261.199 h 0.5429471 q 0.3169487,0 0.4905816,0.15434 0.1750108,0.15434 0.1750108,0.43546 0,0.28112 -0.1943034,0.46027 -0.1929253,0.17914 -0.5222765,0.17914 z m 0,-1.01975 v 0.81029 h 0.2425347 q 0.2397787,0 0.3651802,-0.10886 0.1267795,-0.11025 0.1267795,-0.31006 0,-0.39137 -0.4630209,-0.39137 z"
         style="stroke-width:0.26458332"
         id="path1778"
         inkscape:connector-curvature="0" />
      <path
         d="m 11.457009,262.37585 q 0,0.83233 -0.75103,0.83233 -0.7193364,0 -0.7193364,-0.80064 V 261.199 h 0.2315104 v 1.19338 q 0,0.60772 0.51263,0.60772 0.494716,0 0.494716,-0.58705 V 261.199 h 0.23151 z"
         style="stroke-width:0.26458332"
         id="path1780"
         inkscape:connector-curvature="0" />
      <path
         d="m 13.120302,261.40846 h -0.570508 v 1.76665 h -0.231511 v -1.76665 H 11.749154 V 261.199 h 1.371148 z"
         style="stroke-width:0.26458332"
         id="path1782"
         inkscape:connector-curvature="0" />
    </g>
    <g
       aria-label="INVERTED"
       style="font-style:normal;font-variant:normal;font-weight:normal;font-stretch:normal;font-size:2.82222223px;line-height:1.25;font-family:'Yu Gothic UI';-inkscape-font-specification:'Yu Gothic UI';letter-spacing:0px;word-spacing:0px;fill:#000000;fill-opacity:1;stroke:none;stroke-width:0.26458332"
       id="text1753"
       transform="translate(15.854334,-0.6741334)">
      <path
         d="M 2.0780812,279.80206 H 1.8465708 v -1.9761 h 0.2315104 z"
         style="stroke-width:0.26458332"
         id="path1755"
         inkscape:connector-curvature="0" />
      <path
         d="M 4.1892358,279.80206 H 3.9053599 l -1.0169922,-1.57509 q -0.038585,-0.0593 -0.06339,-0.12403 h -0.00827 q 0.011024,0.0634 0.011024,0.27148 v 1.42764 H 2.5962236 v -1.9761 h 0.3004123 l 0.9894315,1.55029 q 0.062012,0.0965 0.079926,0.13229 h 0.00551 q -0.01378,-0.0854 -0.01378,-0.29077 v -1.39181 h 0.2315105 z"
         style="stroke-width:0.26458332"
         id="path1757"
         inkscape:connector-curvature="0" />
      <path
         d="m 6.1763669,277.82596 -0.7317382,1.9761 H 5.1896916 l -0.7165799,-1.9761 h 0.2576932 l 0.5470811,1.56683 q 0.026183,0.0758 0.039963,0.17501 h 0.00551 q 0.011024,-0.0827 0.045475,-0.17777 l 0.5581054,-1.56407 z"
         style="stroke-width:0.26458332"
         id="path1759"
         inkscape:connector-curvature="0" />
      <path
         d="m 7.5075516,279.80206 h -1.047309 v -1.9761 h 1.0032118 v 0.20946 H 6.691753 v 0.65732 h 0.7138238 v 0.20809 H 6.691753 v 0.69177 h 0.8157986 z"
         style="stroke-width:0.26458332"
         id="path1761"
         inkscape:connector-curvature="0" />
      <path
         d="M 9.3045134,279.80206 H 9.0289058 l -0.3307292,-0.55397 q -0.045475,-0.0772 -0.088194,-0.13091 -0.042719,-0.0551 -0.088194,-0.0896 -0.044097,-0.0345 -0.096463,-0.0496 -0.050987,-0.0165 -0.1157552,-0.0165 H 8.1194006 v 0.8406 H 7.8878902 v -1.9761 h 0.5898003 q 0.1295356,0 0.2384006,0.0331 0.1102431,0.0317 0.1901693,0.0978 0.081304,0.0661 0.1267795,0.16536 0.045475,0.0978 0.045475,0.23014 0,0.10335 -0.031695,0.19017 -0.030317,0.0854 -0.088194,0.15296 -0.0565,0.0675 -0.1378039,0.11575 -0.079926,0.0469 -0.180523,0.073 v 0.006 q 0.049609,0.0221 0.085438,0.051 0.037207,0.0276 0.07028,0.0661 0.033073,0.0386 0.064768,0.0882 0.033073,0.0482 0.073036,0.113 z m -1.1851128,-1.76664 v 0.71658 h 0.3141927 q 0.086816,0 0.1598524,-0.0262 0.074414,-0.0262 0.1281576,-0.0744 0.053743,-0.0496 0.08406,-0.11989 0.030317,-0.0717 0.030317,-0.15985 0,-0.15848 -0.1033529,-0.24667 -0.1019748,-0.0896 -0.2962782,-0.0896 z"
         style="stroke-width:0.26458332"
         id="path1763"
         inkscape:connector-curvature="0" />
      <path
         d="m 10.743186,278.03542 h -0.570508 v 1.76664 H 9.9411673 v -1.76664 H 9.3720375 v -0.20946 h 1.3711485 z"
         style="stroke-width:0.26458332"
         id="path1765"
         inkscape:connector-curvature="0" />
      <path
         d="m 12.099175,279.80206 h -1.047309 v -1.9761 h 1.003212 v 0.20946 h -0.771701 v 0.65732 h 0.713824 v 0.20809 h -0.713824 v 0.69177 h 0.815798 z"
         style="stroke-width:0.26458332"
         id="path1767"
         inkscape:connector-curvature="0" />
      <path
         d="m 12.479514,279.80206 v -1.9761 h 0.545703 q 1.044553,0 1.044553,0.96324 0,0.45751 -0.290766,0.73588 -0.289388,0.27698 -0.775836,0.27698 z m 0.23151,-1.76664 v 1.55718 h 0.294901 q 0.388606,0 0.604958,-0.20808 0.216352,-0.20809 0.216352,-0.5898 0,-0.7593 -0.80753,-0.7593 z"
         style="stroke-width:0.26458332"
         id="path1769"
         inkscape:connector-curvature="0" />
    </g>
    <g
       aria-label="MODE"
       style="font-style:normal;font-variant:normal;font-weight:normal;font-stretch:normal;font-size:2.82222223px;line-height:1.25;font-family:'Yu Gothic UI';-inkscape-font-specification:'Yu Gothic UI';letter-spacing:0px;word-spacing:0px;fill:#000000;fill-opacity:1;stroke:none;stroke-width:0.26458332"
       id="text1827"
       transform="translate(-4.1037976,-29.439613)">
      <path
         d="M 10.211263,248.05206 H 9.9811307 v -1.32567 q 0,-0.1571 0.019292,-0.38447 h -0.00551 q -0.033073,0.13367 -0.059256,0.19154 l -0.6752387,1.5186 H 9.1474175 l -0.6738606,-1.50757 q -0.028939,-0.0661 -0.059256,-0.20257 h -0.00551 q 0.011024,0.11851 0.011024,0.38723 v 1.32291 H 8.1965712 v -1.9761 h 0.3059245 l 0.6063368,1.37803 q 0.07028,0.15848 0.09095,0.23703 h 0.00827 q 0.059256,-0.16261 0.095085,-0.24254 l 0.6187391,-1.37252 h 0.2893884 z"
         style="stroke-width:0.26458332"
         id="path1829"
         inkscape:connector-curvature="0" />
      <path
         d="m 11.528667,248.08514 q -0.420301,0 -0.67386,-0.27699 -0.252181,-0.27699 -0.252181,-0.72071 0,-0.4768 0.257693,-0.76068 0.257693,-0.28388 0.701421,-0.28388 0.409278,0 0.658703,0.27561 0.250803,0.27561 0.250803,0.72071 0,0.4837 -0.256316,0.76482 -0.256315,0.28112 -0.686263,0.28112 z m 0.01654,-1.83279 q -0.311437,0 -0.50574,0.22462 -0.194304,0.22462 -0.194304,0.5898 0,0.36518 0.188792,0.58842 0.190169,0.22186 0.494715,0.22186 0.325217,0 0.512631,-0.21222 0.187413,-0.21221 0.187413,-0.59393 0,-0.39136 -0.181901,-0.60496 -0.181901,-0.21359 -0.501606,-0.21359 z"
         style="stroke-width:0.26458332"
         id="path1831"
         inkscape:connector-curvature="0" />
      <path
         d="m 12.859853,248.05206 v -1.9761 h 0.545703 q 1.044553,0 1.044553,0.96324 0,0.45751 -0.290766,0.73588 -0.289388,0.27698 -0.775836,0.27698 z m 0.23151,-1.76664 v 1.55718 h 0.2949 q 0.388607,0 0.604959,-0.20808 0.216352,-0.20809 0.216352,-0.5898 0,-0.7593 -0.80753,-0.7593 z"
         style="stroke-width:0.26458332"
         id="path1833"
         inkscape:connector-curvature="0" />
      <path
         d="m 15.886024,248.05206 h -1.047309 v -1.9761 h 1.003212 v 0.20946 h -0.771701 v 0.65732 h 0.713824 v 0.20809 h -0.713824 v 0.69177 h 0.815798 z"
         style="stroke-width:0.26458332"
         id="path1835"
         inkscape:connector-curvature="0" />
    </g>
    <path
       style="fill:none;stroke:#000000;stroke-width:0.32539567;stroke-linecap:butt;stroke-linejoin:miter;stroke-miterlimit:4;stroke-dasharray:none;stroke-opacity:1"
       d="m 7.9374999,236.41249 v -5.29167"
       id="path925"
       inkscape:connector-curvature="0" />
    <rect
       style="opacity:1;fill:none;fill-opacity:1;stroke:#000000;stroke-width:0.3;stroke-linecap:round;stroke-linejoin:round;stroke-miterlimit:4;stroke-dasharray:none;stroke-dashoffset:0.79370081;stroke-opacity:1;paint-order:markers fill stroke"
       id="rect927"
       width="13.437766"
       height="28.254436"
       x="1.2186168"
       y="215.93579"
       ry="0.013144201" />
    <text
       xml:space="preserve"
       style="font-style:normal;font-variant:normal;font-weight:normal;font-stretch:normal;font-size:2.82222223px;line-height:1.25;font-family:'Yu Gothic UI';-inkscape-font-specification:'Yu Gothic UI';letter-spacing:0px;word-spacing:0px;fill:#000000;fill-opacity:1;stroke:none;stroke-width:0.26458332"
       x="3.96875"
       y="237.46873"
       id="text931"><tspan
         sodipodi:role="line"
         id="tspan929"
         x="3.96875"
         y="240.01086"
         style="stroke-width:0.26458332" /></text>
    <g
       aria-label="P"
       style="font-style:normal;font-variant:normal;font-weight:normal;font-stretch:normal;font-size:2.11666656px;line-height:1.25;font-family:'Yu Gothic UI';-inkscape-font-specification:'Yu Gothic UI';letter-spacing:0px;word-spacing:0px;fill:#000000;fill-opacity:1;stroke:none;stroke-width:0.26458332"
       id="text989"
       transform="translate(10.464994,-17.635101)">
      <path
         d="m -2.8070638,237.9669 v 0.56017 h -0.1736328 v -1.48208 h 0.4072103 q 0.2377116,0 0.3679362,0.11575 0.1312581,0.11576 0.1312581,0.3266 0,0.21084 -0.1457275,0.3452 -0.144694,0.13436 -0.3917074,0.13436 z m 0,-0.76481 v 0.60771 h 0.1819011 q 0.1798339,0 0.273885,-0.0816 0.095085,-0.0827 0.095085,-0.23254 0,-0.29352 -0.3472656,-0.29352 z"
         style="font-size:2.11666656px;stroke-width:0.26458332"
         id="path1005"
         inkscape:connector-curvature="0" />
    </g>
    <g
       aria-label="T"
       style="font-style:normal;font-variant:normal;font-weight:normal;font-stretch:normal;font-size:2.11666656px;line-height:1.25;font-family:'Yu Gothic UI';-inkscape-font-specification:'Yu Gothic UI';letter-spacing:0px;word-spacing:0px;fill:#000000;fill-opacity:1;stroke:none;stroke-width:0.26458332"
       id="text993"
       transform="translate(5.1520564,-15.694566)">
      <path
         d="m -1.3105143,240.1125 h -0.4278808 v 1.32498 h -0.1736328 v -1.32498 h -0.4268473 v -0.1571 h 1.0283609 z"
         style="font-size:2.11666656px;stroke-width:0.26458332"
         id="path1002"
         inkscape:connector-curvature="0" />
    </g>
    <g
       aria-label="S"
       style="font-style:normal;font-variant:normal;font-weight:normal;font-stretch:normal;font-size:2.11666656px;line-height:1.25;font-family:'Yu Gothic UI';-inkscape-font-specification:'Yu Gothic UI';letter-spacing:0px;word-spacing:0px;fill:#000000;fill-opacity:1;stroke:none;stroke-width:0.26458332"
       id="text997"
       transform="translate(9.2154576,-12.379428)">
      <path
         d="m -1.7270264,242.96503 v -0.20463 q 0.03514,0.031 0.083716,0.0558 0.049609,0.0248 0.1033528,0.0424 0.054777,0.0165 0.109554,0.0258 0.054777,0.009 0.1012858,0.009 0.160197,0 0.2387451,-0.0589 0.079582,-0.06 0.079582,-0.17157 0,-0.0599 -0.026872,-0.10438 -0.025838,-0.0444 -0.072347,-0.0806 -0.046509,-0.0372 -0.1105876,-0.0703 -0.063045,-0.0341 -0.1364257,-0.0713 -0.077515,-0.0393 -0.144694,-0.0796 -0.067179,-0.0403 -0.1167888,-0.0889 -0.049609,-0.0486 -0.078548,-0.10955 -0.027905,-0.062 -0.027905,-0.14469 0,-0.10129 0.044442,-0.1757 0.044442,-0.0754 0.1167888,-0.12403 0.072347,-0.0486 0.164331,-0.0723 0.093018,-0.0238 0.1891357,-0.0238 0.21910809,0 0.31936036,0.0527 v 0.19534 q -0.13125816,-0.091 -0.33693036,-0.091 -0.056844,0 -0.1136881,0.0124 -0.056844,0.0114 -0.1012858,0.0382 -0.044442,0.0269 -0.072347,0.0693 -0.027905,0.0424 -0.027905,0.10335 0,0.0568 0.020671,0.0982 0.021704,0.0413 0.063045,0.0754 0.041341,0.0341 0.1002523,0.0661 0.059945,0.032 0.1374593,0.0703 0.079582,0.0393 0.1508952,0.0827 0.0713135,0.0434 0.12505695,0.0961 0.0537435,0.0527 0.0847493,0.11679 0.0320394,0.0641 0.0320394,0.14676 0,0.10956 -0.0434082,0.18604 -0.0423747,0.0754 -0.1157552,0.12299 -0.0723469,0.0475 -0.16743165,0.0682 -0.095085,0.0217 -0.2005045,0.0217 -0.03514,0 -0.086816,-0.006 -0.051676,-0.005 -0.1054199,-0.0165 -0.053743,-0.0103 -0.1023194,-0.0258 -0.047542,-0.0165 -0.076481,-0.0362 z"
         style="font-size:2.11666656px;stroke-width:0.26458332"
         id="path999"
         inkscape:connector-curvature="0" />
    </g>
    <g
       transform="translate(10.464994,-17.635101)"
       id="g1010"
       style="font-style:normal;font-variant:normal;font-weight:normal;font-stretch:normal;font-size:2.11666656px;line-height:1.25;font-family:'Yu Gothic UI';-inkscape-font-specification:'Yu Gothic UI';letter-spacing:0px;word-spacing:0px;fill:#000000;fill-opacity:1;stroke:none;stroke-width:0.26458332"
       aria-label="P">
      <path
         inkscape:connector-curvature="0"
         id="path1008"
         style="font-size:2.11666656px;stroke-width:0.26458332"
         d="m -2.8070638,237.9669 v 0.56017 h -0.1736328 v -1.48208 h 0.4072103 q 0.2377116,0 0.3679362,0.11575 0.1312581,0.11576 0.1312581,0.3266 0,0.21084 -0.1457275,0.3452 -0.144694,0.13436 -0.3917074,0.13436 z m 0,-0.76481 v 0.60771 h 0.1819011 q 0.1798339,0 0.273885,-0.0816 0.095085,-0.0827 0.095085,-0.23254 0,-0.29352 -0.3472656,-0.29352 z" />
    </g>
    <g
       aria-label="CV"
       style="font-style:normal;font-variant:normal;font-weight:normal;font-stretch:normal;font-size:2.82222223px;line-height:1.25;font-family:'Yu Gothic UI';-inkscape-font-specification:'Yu Gothic UI';letter-spacing:0px;word-spacing:0px;fill:#000000;fill-opacity:1;stroke:none;stroke-width:0.26458332"
       id="text1000"
       transform="translate(14.072531,-0.79711079)">
      <path
         d="m 9.5415365,220.18813 q -0.2191081,0.11576 -0.5457032,0.11576 -0.4216797,0 -0.6752387,-0.27148 -0.253559,-0.27147 -0.253559,-0.71244 0,-0.47405 0.2852539,-0.76619 0.2852539,-0.29215 0.7234701,-0.29215 0.2811197,0 0.4657769,0.0813 v 0.24667 q -0.2122179,-0.11851 -0.468533,-0.11851 -0.3403755,0 -0.5525933,0.22737 -0.2108399,0.22738 -0.2108399,0.60772 0,0.36104 0.1970595,0.57602 0.1984375,0.21359 0.5195204,0.21359 0.2976562,0 0.5153863,-0.13229 z"
         style="stroke-width:0.26458332"
         id="path1003"
         inkscape:connector-curvature="0" />
      <path
         d="m 11.412912,218.29471 -0.731738,1.9761 h -0.254937 l -0.7165798,-1.9761 h 0.2576931 l 0.5470807,1.56683 q 0.02618,0.0758 0.03996,0.17501 h 0.0055 q 0.01102,-0.0827 0.04547,-0.17777 l 0.558105,-1.56407 z"
         style="stroke-width:0.26458332"
         id="path1006"
         inkscape:connector-curvature="0" />
    </g>
    <path
       inkscape:connector-curvature="0"
       id="path1013"
       d="m 23.812509,236.41249 -9e-6,-7.14584"
       style="fill:none;stroke:#000000;stroke-width:0.32539567;stroke-linecap:butt;stroke-linejoin:miter;stroke-miterlimit:4;stroke-dasharray:none;stroke-opacity:1"
       sodipodi:nodetypes="cc" />
    <g
       aria-label="PROB."
       style="font-style:normal;font-variant:normal;font-weight:normal;font-stretch:normal;font-size:2.82222223px;line-height:1.25;font-family:'Yu Gothic UI';-inkscape-font-specification:'Yu Gothic UI';letter-spacing:0px;word-spacing:0px;fill:#000000;fill-opacity:1;stroke:none;stroke-width:0.26458332"
       id="text1017"
       transform="translate(-2.5328322,-0.75937246)">
      <path
         d="m 22.980166,204.97184 v 0.74689 h -0.231511 v -1.9761 h 0.542947 q 0.316949,0 0.490582,0.15434 0.175011,0.15434 0.175011,0.43546 0,0.28112 -0.194304,0.46026 -0.192925,0.17915 -0.522276,0.17915 z m 0,-1.01975 v 0.81029 H 23.2227 q 0.239779,0 0.36518,-0.10887 0.12678,-0.11024 0.12678,-0.31006 0,-0.39136 -0.463021,-0.39136 z"
         style="stroke-width:0.26458332"
         id="path1019"
         inkscape:connector-curvature="0" />
      <path
         d="m 25.747266,205.71873 h -0.275607 l -0.33073,-0.55397 q -0.04547,-0.0772 -0.08819,-0.13091 -0.04272,-0.0551 -0.08819,-0.0896 -0.0441,-0.0344 -0.09646,-0.0496 -0.05099,-0.0165 -0.115755,-0.0165 h -0.19017 v 0.8406 h -0.23151 v -1.9761 h 0.5898 q 0.129536,0 0.238401,0.0331 0.110243,0.0317 0.190169,0.0978 0.0813,0.0662 0.12678,0.16537 0.04547,0.0978 0.04547,0.23013 0,0.10335 -0.03169,0.19017 -0.03032,0.0854 -0.08819,0.15296 -0.0565,0.0675 -0.137804,0.11576 -0.07993,0.0469 -0.180523,0.073 v 0.006 q 0.04961,0.0221 0.08544,0.051 0.03721,0.0276 0.07028,0.0661 0.03307,0.0386 0.06477,0.0882 0.03307,0.0482 0.07304,0.113 z m -1.185113,-1.76664 v 0.71658 h 0.314193 q 0.08682,0 0.159853,-0.0262 0.07441,-0.0262 0.128157,-0.0744 0.05374,-0.0496 0.08406,-0.11989 0.03032,-0.0717 0.03032,-0.15985 0,-0.15847 -0.103353,-0.24667 -0.101974,-0.0896 -0.296278,-0.0896 z"
         style="stroke-width:0.26458332"
         id="path1021"
         inkscape:connector-curvature="0" />
      <path
         d="m 26.786307,205.75181 q -0.420302,0 -0.673861,-0.27699 -0.252181,-0.27698 -0.252181,-0.72071 0,-0.4768 0.257694,-0.76068 0.257693,-0.28387 0.701421,-0.28387 0.409277,0 0.658702,0.2756 0.250803,0.27561 0.250803,0.72072 0,0.48369 -0.256315,0.76481 -0.256315,0.28112 -0.686263,0.28112 z m 0.01654,-1.83279 q -0.311437,0 -0.50574,0.22462 -0.194304,0.22462 -0.194304,0.5898 0,0.36518 0.188791,0.58842 0.19017,0.22186 0.494716,0.22186 0.325217,0 0.51263,-0.21221 0.187413,-0.21222 0.187413,-0.59394 0,-0.39136 -0.181901,-0.60496 -0.181901,-0.21359 -0.501605,-0.21359 z"
         style="stroke-width:0.26458332"
         id="path1023"
         inkscape:connector-curvature="0" />
      <path
         d="m 28.117492,205.71873 v -1.9761 h 0.56224 q 0.256315,0 0.406521,0.1254 0.150206,0.1254 0.150206,0.32659 0,0.16813 -0.09095,0.29215 -0.09095,0.12402 -0.250803,0.17639 v 0.006 q 0.199815,0.0234 0.319704,0.15158 0.11989,0.12678 0.11989,0.33073 0,0.25356 -0.181901,0.41066 -0.181901,0.15709 -0.458887,0.15709 z m 0.23151,-1.76664 v 0.63803 h 0.237023 q 0.190169,0 0.299034,-0.091 0.108865,-0.0923 0.108865,-0.25907 0,-0.28801 -0.37896,-0.28801 z m 0,0.84612 v 0.71106 h 0.314193 q 0.20395,0 0.315571,-0.0965 0.112999,-0.0965 0.112999,-0.26458 0,-0.35002 -0.476801,-0.35002 z"
         style="stroke-width:0.26458332"
         id="path1025"
         inkscape:connector-curvature="0" />
      <path
         d="m 29.786296,205.74905 q -0.06339,0 -0.108865,-0.0455 -0.0441,-0.0455 -0.0441,-0.10887 0,-0.0634 0.0441,-0.10886 0.04548,-0.0469 0.108865,-0.0469 0.06477,0 0.110243,0.0469 0.04548,0.0455 0.04548,0.10886 0,0.0634 -0.04548,0.10887 -0.04547,0.0455 -0.110243,0.0455 z"
         style="stroke-width:0.26458332"
         id="path1027"
         inkscape:connector-curvature="0" />
    </g>
    <rect
       style="fill:none;fill-opacity:1;stroke:#000000;stroke-width:0.3;stroke-linecap:round;stroke-linejoin:round;stroke-miterlimit:4;stroke-dasharray:none;stroke-dashoffset:0;stroke-opacity:1"
       id="rect1032"
       width="13.046349"
       height="41.826706"
       x="17.289324"
       y="202.37056" />
    <g
       aria-label="LEVEL"
       style="font-style:normal;font-variant:normal;font-weight:normal;font-stretch:normal;font-size:2.82222223px;line-height:1.25;font-family:'Yu Gothic UI';-inkscape-font-specification:'Yu Gothic UI';letter-spacing:0px;word-spacing:0px;fill:#000000;fill-opacity:1;stroke:none;stroke-width:0.26458332"
       id="text1036"
       transform="translate(-3.2108241,-1.007294)">
      <path
         d="m 24.567664,249.63957 h -1.02526 v -1.9761 h 0.23151 v 1.76664 h 0.79375 z"
         style="stroke-width:0.26458332"
         id="path1038"
         inkscape:connector-curvature="0" />
      <path
         d="m 25.918142,249.63957 h -1.047309 v -1.9761 h 1.003212 v 0.20946 h -0.771702 v 0.65732 h 0.713824 v 0.20809 h -0.713824 v 0.69177 h 0.815799 z"
         style="stroke-width:0.26458332"
         id="path1040"
         inkscape:connector-curvature="0" />
      <path
         d="m 27.767469,247.66347 -0.731738,1.9761 h -0.254937 l -0.71658,-1.9761 h 0.257693 l 0.547081,1.56682 q 0.02618,0.0758 0.03996,0.17502 h 0.0055 q 0.01103,-0.0827 0.04548,-0.17777 l 0.558105,-1.56407 z"
         style="stroke-width:0.26458332"
         id="path1042"
         inkscape:connector-curvature="0" />
      <path
         d="m 29.098654,249.63957 h -1.047309 v -1.9761 h 1.003212 v 0.20946 h -0.771701 v 0.65732 h 0.713823 v 0.20809 h -0.713823 v 0.69177 h 0.815798 z"
         style="stroke-width:0.26458332"
         id="path1044"
         inkscape:connector-curvature="0" />
      <path
         d="m 30.504253,249.63957 h -1.02526 v -1.9761 h 0.23151 v 1.76664 h 0.79375 z"
         style="stroke-width:0.26458332"
         id="path1046"
         inkscape:connector-curvature="0" />
    </g>
    <g
       aria-label="OFFSET"
       style="font-style:normal;font-variant:normal;font-weight:normal;font-stretch:normal;font-size:2.82222223px;line-height:1.25;font-family:'Yu Gothic UI';-inkscape-font-specification:'Yu Gothic UI';letter-spacing:0px;word-spacing:0px;fill:#000000;fill-opacity:1;stroke:none;stroke-width:0.26458332"
       id="text1051"
       transform="translate(2.7243817,0.08707422)">
      <path
         d="m 7.9347439,264.48931 q -0.4203017,0 -0.6738607,-0.27698 -0.252181,-0.27699 -0.252181,-0.72072 0,-0.4768 0.2576931,-0.76068 0.2576932,-0.28387 0.7014215,-0.28387 0.4092773,0 0.6587022,0.27561 0.250803,0.2756 0.250803,0.72071 0,0.48369 -0.2563151,0.76481 -0.2563151,0.28112 -0.686263,0.28112 z m 0.016536,-1.83279 q -0.3114366,0 -0.50574,0.22462 -0.1943034,0.22462 -0.1943034,0.5898 0,0.36518 0.1887913,0.58842 0.1901692,0.22187 0.4947157,0.22187 0.325217,0 0.5126302,-0.21222 0.1874132,-0.21222 0.1874132,-0.59394 0,-0.39136 -0.1819011,-0.60495 -0.181901,-0.2136 -0.5016059,-0.2136 z"
         style="stroke-width:0.26458332"
         id="path1053"
         inkscape:connector-curvature="0" />
      <path
         d="M 10.269141,262.68959 H 9.4974392 v 0.68351 h 0.7138238 v 0.20808 H 9.4974392 v 0.87506 H 9.2659288 v -1.97611 h 1.0032122 z"
         style="stroke-width:0.26458332"
         id="path1055"
         inkscape:connector-curvature="0" />
      <path
         d="m 11.647179,262.68959 h -0.771702 v 0.68351 h 0.713824 v 0.20808 h -0.713824 v 0.87506 h -0.23151 v -1.97611 h 1.003212 z"
         style="stroke-width:0.26458332"
         id="path1057"
         inkscape:connector-curvature="0" />
      <path
         d="m 11.929676,264.37631 v -0.27285 q 0.04685,0.0413 0.111621,0.0744 0.06615,0.0331 0.137804,0.0565 0.07304,0.022 0.146072,0.0344 0.07304,0.0124 0.135048,0.0124 0.213596,0 0.318327,-0.0786 0.106109,-0.0799 0.106109,-0.22876 0,-0.0799 -0.03583,-0.13918 -0.03445,-0.0593 -0.09646,-0.10748 -0.06201,-0.0496 -0.14745,-0.0937 -0.08406,-0.0455 -0.181901,-0.0951 -0.103353,-0.0524 -0.192925,-0.1061 -0.08957,-0.0538 -0.155719,-0.11852 -0.06615,-0.0648 -0.104731,-0.14607 -0.03721,-0.0827 -0.03721,-0.19292 0,-0.13505 0.05926,-0.23427 0.05926,-0.1006 0.155718,-0.16536 0.09646,-0.0648 0.219108,-0.0965 0.124024,-0.0317 0.252181,-0.0317 0.292145,0 0.425814,0.0703 v 0.26045 q -0.175011,-0.12127 -0.44924,-0.12127 -0.07579,0 -0.151584,0.0165 -0.07579,0.0152 -0.135048,0.051 -0.05926,0.0358 -0.09646,0.0923 -0.03721,0.0565 -0.03721,0.13781 0,0.0758 0.02756,0.13091 0.02894,0.0551 0.08406,0.1006 0.05512,0.0455 0.13367,0.0882 0.07993,0.0427 0.183279,0.0937 0.106109,0.0524 0.201194,0.11024 0.09508,0.0579 0.166742,0.12816 0.07166,0.0703 0.112999,0.15572 0.04272,0.0854 0.04272,0.19568 0,0.14607 -0.05788,0.24804 -0.0565,0.1006 -0.15434,0.16399 -0.09646,0.0634 -0.223243,0.091 -0.126779,0.0289 -0.267339,0.0289 -0.04685,0 -0.115755,-0.008 -0.0689,-0.007 -0.14056,-0.0221 -0.07166,-0.0138 -0.136426,-0.0344 -0.06339,-0.022 -0.101975,-0.0482 z"
         style="stroke-width:0.26458332"
         id="path1059"
         inkscape:connector-curvature="0" />
      <path
         d="m 14.56862,264.45624 h -1.047309 v -1.97611 h 1.003211 v 0.20946 h -0.771701 v 0.65733 h 0.713824 v 0.20808 h -0.713824 v 0.69178 h 0.815799 z"
         style="stroke-width:0.26458332"
         id="path1061"
         inkscape:connector-curvature="0" />
      <path
         d="m 16.117535,262.68959 h -0.570508 v 1.76665 h -0.231511 v -1.76665 h -0.569129 v -0.20946 h 1.371148 z"
         style="stroke-width:0.26458332"
         id="path1063"
         inkscape:connector-curvature="0" />
    </g>
    <path
       style="fill:none;stroke:#000000;stroke-width:0.30000001;stroke-linecap:butt;stroke-linejoin:miter;stroke-miterlimit:4;stroke-dasharray:none;stroke-opacity:1"
       d="m 11.1125,268.68957 h 8.73125"
       id="path1066"
       inkscape:connector-curvature="0"
       sodipodi:nodetypes="cc" />
    <path
       inkscape:connector-curvature="0"
       id="path1068"
       d="m 11.1125,254.13749 8.73125,0"
       style="fill:none;stroke:#000000;stroke-width:0.30000001;stroke-linecap:butt;stroke-linejoin:miter;stroke-miterlimit:4;stroke-dasharray:none;stroke-opacity:1"
       sodipodi:nodetypes="cc" />
    <text
       xml:space="preserve"
       style="font-style:normal;font-variant:normal;font-weight:normal;font-stretch:normal;font-size:2.82222223px;line-height:1.25;font-family:'Yu Gothic UI';-inkscape-font-specification:'Yu Gothic UI';letter-spacing:0px;word-spacing:0px;fill:#000000;fill-opacity:1;stroke:none;stroke-width:0.26458332"
       x="21.166666"
       y="199.10416"
       id="text1074"><tspan
         sodipodi:role="line"
         id="tspan1072"
         x="21.166666"
         y="201.64629"
         style="stroke-width:0.26458332" /></text>
    <g
       aria-label="SUPER S&amp;H"
       style="font-style:normal;font-variant:normal;font-weight:600;font-stretch:normal;font-size:3.52777767px;line-height:1.25;font-family:'Yu Gothic UI';-inkscape-font-specification:'Yu Gothic UI Semi-Bold';letter-spacing:0px;word-spacing:0px;fill:#000000;fill-opacity:1;stroke:none;stroke-width:0.26458332"
       id="text1078"
       transform="translate(-11.307318,0.92389334)">
      <path
         d="m 21.357869,199.00597 v -0.42202 q 0.05684,0.0517 0.134359,0.093 0.07924,0.0413 0.167087,0.0706 0.08785,0.0276 0.1757,0.0431 0.08785,0.0155 0.161919,0.0155 0.258382,0 0.384128,-0.0861 0.127469,-0.0861 0.127469,-0.24977 0,-0.0879 -0.04306,-0.15159 -0.04134,-0.0654 -0.117133,-0.11885 -0.07579,-0.0534 -0.179145,-0.10163 -0.101631,-0.05 -0.218764,-0.10335 -0.125746,-0.0672 -0.234266,-0.13609 -0.108521,-0.0689 -0.189481,-0.15158 -0.07924,-0.0844 -0.125745,-0.18948 -0.04479,-0.10508 -0.04479,-0.24632 0,-0.17398 0.07752,-0.30145 0.07924,-0.12919 0.206706,-0.21187 0.129191,-0.0844 0.292833,-0.12403 0.163642,-0.0413 0.334174,-0.0413 0.387573,0 0.564996,0.0879 v 0.4048 q -0.210151,-0.15158 -0.54088,-0.15158 -0.09129,0 -0.18259,0.0172 -0.08957,0.0172 -0.16192,0.0568 -0.07062,0.0396 -0.115411,0.10163 -0.04479,0.062 -0.04479,0.14986 0,0.0827 0.03445,0.14297 0.03445,0.0603 0.09991,0.11024 0.06718,0.05 0.161919,0.0982 0.09646,0.0465 0.222209,0.10163 0.129191,0.0672 0.242879,0.14125 0.115411,0.0741 0.201538,0.16364 0.08785,0.0896 0.137804,0.19981 0.05168,0.10852 0.05168,0.24805 0,0.18776 -0.07579,0.31695 -0.07579,0.12919 -0.204984,0.21015 -0.127468,0.081 -0.294555,0.11713 -0.167087,0.0362 -0.353123,0.0362 -0.06201,0 -0.153306,-0.0103 -0.08957,-0.009 -0.184313,-0.0276 -0.09474,-0.0172 -0.179145,-0.0431 -0.08441,-0.0258 -0.136081,-0.0586 z"
         style="font-style:normal;font-variant:normal;font-weight:600;font-stretch:normal;font-size:3.52777767px;font-family:'Yu Gothic UI';-inkscape-font-specification:'Yu Gothic UI Semi-Bold';stroke-width:0.26458332"
         id="path1080"
         inkscape:connector-curvature="0" />
      <path
         d="m 25.29389,198.10508 q 0,1.04042 -0.985297,1.04042 -0.943956,0 -0.943956,-1.0008 v -1.51068 h 0.409966 v 1.42627 q 0,0.72692 0.564996,0.72692 0.544325,0 0.544325,-0.70108 v -1.45211 h 0.409966 z"
         style="font-style:normal;font-variant:normal;font-weight:600;font-stretch:normal;font-size:3.52777767px;font-family:'Yu Gothic UI';-inkscape-font-specification:'Yu Gothic UI Semi-Bold';stroke-width:0.26458332"
         id="path1082"
         inkscape:connector-curvature="0" />
      <path
         d="m 26.282633,198.20843 v 0.89573 h -0.408244 v -2.47014 h 0.749308 q 0.42547,0 0.659736,0.1981 0.234267,0.19809 0.234267,0.5581 0,0.36001 -0.244602,0.58911 -0.244602,0.2291 -0.661459,0.2291 z m 0,-1.23679 v 0.90262 h 0.265272 q 0.26355,0 0.401354,-0.1223 0.137804,-0.1223 0.137804,-0.34451 0,-0.43581 -0.506429,-0.43581 z"
         style="font-style:normal;font-variant:normal;font-weight:600;font-stretch:normal;font-size:3.52777767px;font-family:'Yu Gothic UI';-inkscape-font-specification:'Yu Gothic UI Semi-Bold';stroke-width:0.26458332"
         id="path1084"
         inkscape:connector-curvature="0" />
      <path
         d="m 29.321207,199.10416 h -1.386651 v -2.47014 h 1.33153 v 0.34796 h -0.921563 v 0.69935 h 0.849216 v 0.34623 h -0.849216 v 0.73036 h 0.976684 z"
         style="font-style:normal;font-variant:normal;font-weight:600;font-stretch:normal;font-size:3.52777767px;font-family:'Yu Gothic UI';-inkscape-font-specification:'Yu Gothic UI Semi-Bold';stroke-width:0.26458332"
         id="path1086"
         inkscape:connector-curvature="0" />
      <path
         d="m 31.669039,199.10416 h -0.478868 l -0.394463,-0.66146 q -0.0534,-0.0913 -0.105076,-0.15503 -0.04995,-0.0655 -0.103353,-0.1068 -0.05168,-0.0413 -0.113688,-0.0603 -0.06201,-0.0189 -0.139526,-0.0189 H 30.1687 v 1.00253 h -0.408244 v -2.47014 h 0.813043 q 0.173977,0 0.320394,0.0413 0.146416,0.0413 0.254937,0.12575 0.10852,0.0827 0.16881,0.20843 0.06201,0.12402 0.06201,0.29111 0,0.13091 -0.03962,0.24116 -0.0379,0.10852 -0.110243,0.19464 -0.07062,0.0844 -0.172255,0.1447 -0.09991,0.0603 -0.225654,0.093 v 0.007 q 0.06718,0.0379 0.117133,0.0844 0.04995,0.0448 0.09474,0.093 0.04479,0.0482 0.08785,0.11024 0.04479,0.0603 0.09819,0.14125 z M 30.1687,196.96647 v 0.80271 h 0.341065 q 0.09474,0 0.173977,-0.0293 0.08096,-0.0293 0.139526,-0.0844 0.05857,-0.0551 0.0913,-0.13435 0.03273,-0.0792 0.03273,-0.17743 0,-0.17742 -0.111966,-0.27733 -0.111965,-0.0999 -0.322116,-0.0999 z"
         style="font-style:normal;font-variant:normal;font-weight:600;font-stretch:normal;font-size:3.52777767px;font-family:'Yu Gothic UI';-inkscape-font-specification:'Yu Gothic UI Semi-Bold';stroke-width:0.26458332"
         id="path1088"
         inkscape:connector-curvature="0" />
      <path
         d="m 32.816256,199.00597 v -0.42202 q 0.05684,0.0517 0.134359,0.093 0.07924,0.0413 0.167087,0.0706 0.08785,0.0276 0.1757,0.0431 0.08785,0.0155 0.161919,0.0155 0.258383,0 0.384129,-0.0861 0.127468,-0.0861 0.127468,-0.24977 0,-0.0879 -0.04306,-0.15159 -0.04134,-0.0654 -0.117133,-0.11885 -0.07579,-0.0534 -0.179145,-0.10163 -0.10163,-0.05 -0.218763,-0.10335 -0.125746,-0.0672 -0.234267,-0.13609 -0.10852,-0.0689 -0.18948,-0.15158 -0.07924,-0.0844 -0.125746,-0.18948 -0.04479,-0.10508 -0.04479,-0.24632 0,-0.17398 0.07751,-0.30145 0.07924,-0.12919 0.206706,-0.21187 0.129191,-0.0844 0.292833,-0.12403 0.163642,-0.0413 0.334174,-0.0413 0.387574,0 0.564996,0.0879 v 0.4048 q -0.210151,-0.15158 -0.54088,-0.15158 -0.09129,0 -0.18259,0.0172 -0.08957,0.0172 -0.161919,0.0568 -0.07062,0.0396 -0.115411,0.10163 -0.04479,0.062 -0.04479,0.14986 0,0.0827 0.03445,0.14297 0.03445,0.0603 0.09991,0.11024 0.06718,0.05 0.16192,0.0982 0.09646,0.0465 0.222208,0.10163 0.129192,0.0672 0.24288,0.14125 0.11541,0.0741 0.201538,0.16364 0.08785,0.0896 0.137804,0.19981 0.05168,0.10852 0.05168,0.24805 0,0.18776 -0.07579,0.31695 -0.07579,0.12919 -0.204983,0.21015 -0.127469,0.081 -0.294556,0.11713 -0.167087,0.0362 -0.353122,0.0362 -0.06201,0 -0.153307,-0.0103 -0.08957,-0.009 -0.184313,-0.0276 -0.09474,-0.0172 -0.179145,-0.0431 -0.0844,-0.0258 -0.136081,-0.0586 z"
         style="font-style:normal;font-variant:normal;font-weight:600;font-stretch:normal;font-size:3.52777767px;font-family:'Yu Gothic UI';-inkscape-font-specification:'Yu Gothic UI Semi-Bold';stroke-width:0.26458332"
         id="path1090"
         inkscape:connector-curvature="0" />
      <path
         d="m 36.543849,199.10588 -0.225653,-0.23944 q -0.07407,0.0655 -0.165365,0.11886 -0.08957,0.0517 -0.191203,0.0879 -0.09991,0.0362 -0.208428,0.0551 -0.10852,0.019 -0.218763,0.019 -0.186036,0 -0.335897,-0.0482 -0.149862,-0.0482 -0.25666,-0.13608 -0.105075,-0.0896 -0.163642,-0.2136 -0.05684,-0.12402 -0.05684,-0.27561 0,-0.42547 0.564996,-0.71658 -0.260105,-0.32211 -0.260105,-0.57188 0,-0.12919 0.04995,-0.23771 0.05168,-0.10852 0.142971,-0.18604 0.0913,-0.0792 0.217041,-0.12402 0.127469,-0.0448 0.27733,-0.0448 0.142972,0 0.258383,0.0396 0.117133,0.0396 0.199815,0.11024 0.08268,0.0706 0.127469,0.16881 0.04479,0.0965 0.04479,0.21015 0,0.11197 -0.02928,0.20326 -0.02756,0.0896 -0.0913,0.16881 -0.06201,0.0792 -0.165365,0.15159 -0.10163,0.0724 -0.249769,0.14469 0.136081,0.14642 0.273885,0.29111 0.139526,0.1447 0.282498,0.29111 0.03617,-0.0551 0.06546,-0.12402 0.03101,-0.0689 0.05168,-0.14469 0.02239,-0.0758 0.03445,-0.15676 0.01206,-0.081 0.01206,-0.15847 h 0.349677 q 0,0.4737 -0.299724,0.82855 0.07751,0.0827 0.194648,0.20326 0.118856,0.12057 0.279053,0.28594 z m -0.559828,-1.95337 q 0,-0.0568 -0.02239,-0.1068 -0.02067,-0.05 -0.05684,-0.0861 -0.03617,-0.0379 -0.0844,-0.0586 -0.04823,-0.0224 -0.103352,-0.0224 -0.07235,0 -0.132637,0.0224 -0.05857,0.0207 -0.10163,0.062 -0.04134,0.0396 -0.06546,0.0947 -0.02239,0.0551 -0.02239,0.1223 0,0.15848 0.225654,0.40997 0.363457,-0.18604 0.363457,-0.43753 z m 0.125746,1.49 q -0.201538,-0.20842 -0.630452,-0.67179 -0.18948,0.0982 -0.273885,0.21015 -0.08268,0.11197 -0.08268,0.26183 0,0.0913 0.03273,0.16536 0.03445,0.0724 0.09302,0.12403 0.05857,0.0517 0.137803,0.0792 0.08096,0.0276 0.173978,0.0276 0.323839,0 0.549492,-0.19637 z"
         style="font-style:normal;font-variant:normal;font-weight:600;font-stretch:normal;font-size:3.52777767px;font-family:'Yu Gothic UI';-inkscape-font-specification:'Yu Gothic UI Semi-Bold';stroke-width:0.26458332"
         id="path1092"
         inkscape:connector-curvature="0" />
      <path
         d="m 39.358492,199.10416 h -0.411689 v -1.07143 h -1.162719 v 1.07143 h -0.409967 v -2.47014 h 0.409967 v 1.0387 h 1.162719 v -1.0387 h 0.411689 z"
         style="font-style:normal;font-variant:normal;font-weight:600;font-stretch:normal;font-size:3.52777767px;font-family:'Yu Gothic UI';-inkscape-font-specification:'Yu Gothic UI Semi-Bold';stroke-width:0.26458332"
         id="path1094"
         inkscape:connector-curvature="0" />
    </g>
    <g
       aria-label="/^M^\"
       style="font-style:normal;font-variant:normal;font-weight:normal;font-stretch:normal;font-size:2.82222223px;line-height:1.25;font-family:'Copperplate Gothic Light';-inkscape-font-specification:'Copperplate Gothic Light, ';letter-spacing:0px;word-spacing:0px;display:inline;fill:#000000;fill-opacity:1;stroke:#000000;stroke-width:0.2;stroke-miterlimit:4;stroke-dasharray:none;stroke-opacity:1"
       id="text956-6"
       transform="translate(-9.481569,3.7456238)">
      <path
         d="m 21.203855,291.40545 v 0.0386 h -0.434082 v -0.0386 q 0.09509,-0.006 0.224621,-0.17088 l 1.094162,-1.4621 q 0.07441,-0.1006 0.07441,-0.12402 0,-0.0372 -0.06615,-0.0482 v -0.0372 h 0.423058 v 0.0372 q -0.09508,0.006 -0.22462,0.17087 l -1.08176,1.46348 q -0.07579,0.10197 -0.07579,0.12402 0,0.0358 0.06615,0.0469 z"
         style="font-style:normal;font-variant:normal;font-weight:normal;font-stretch:normal;font-size:2.82222223px;line-height:1.25;font-family:'Copperplate Gothic Light';-inkscape-font-specification:'Copperplate Gothic Light, ';stroke:#000000;stroke-width:0.2;stroke-miterlimit:4;stroke-dasharray:none;stroke-opacity:1"
         id="path958-8"
         inkscape:connector-curvature="0" />
      <path
         d="M 22.940183,290.3857 H 22.73899 l 0.493338,-0.8282 h 0.243912 l 0.493338,0.8282 h -0.20395 l -0.413411,-0.68075 z"
         style="font-style:normal;font-variant:normal;font-weight:normal;font-stretch:normal;font-size:2.82222223px;line-height:1.25;font-family:'Copperplate Gothic Light';-inkscape-font-specification:'Copperplate Gothic Light, ';stroke:#000000;stroke-width:0.2;stroke-miterlimit:4;stroke-dasharray:none;stroke-opacity:1"
         id="path960-0"
         inkscape:connector-curvature="0" />
      <path
         d="m 25.342104,291.44403 -0.789616,-1.58061 v 1.418 q 0,0.0565 0.01791,0.0813 0.01791,0.0234 0.07028,0.0372 v 0.0441 h -0.373449 v -0.0441 q 0.05237,-0.0138 0.07028,-0.0372 0.01792,-0.0234 0.01792,-0.0813 v -1.5558 q 0,-0.0579 -0.01792,-0.0813 -0.01791,-0.0248 -0.07028,-0.0372 v -0.0441 h 0.487826 v 0.0441 q -0.06752,0.0234 -0.06752,0.0579 0,0.0165 0.04547,0.10611 l 0.62563,1.24161 0.628385,-1.25263 q 0.03307,-0.0661 0.03307,-0.0937 0,-0.0358 -0.06752,-0.0593 v -0.0441 h 0.49196 v 0.0441 q -0.05237,0.0138 -0.07028,0.0372 -0.01792,0.0234 -0.01792,0.0813 v 1.5558 q 0,0.0565 0.01792,0.0813 0.01791,0.0234 0.07028,0.0372 v 0.0441 h -0.392741 v -0.0441 q 0.05374,-0.0138 0.07028,-0.0372 0.01791,-0.0234 0.01791,-0.0813 v -1.418 z"
         style="font-style:normal;font-variant:normal;font-weight:normal;font-stretch:normal;font-size:2.82222223px;line-height:1.25;font-family:'Copperplate Gothic Light';-inkscape-font-specification:'Copperplate Gothic Light, ';stroke:#000000;stroke-width:0.2;stroke-miterlimit:4;stroke-dasharray:none;stroke-opacity:1"
         id="path962-7"
         inkscape:connector-curvature="0" />
      <path
         d="m 26.942006,290.3857 h -0.201193 l 0.493338,-0.8282 h 0.243912 l 0.493338,0.8282 h -0.20395 l -0.413411,-0.68075 z"
         style="font-style:normal;font-variant:normal;font-weight:normal;font-stretch:normal;font-size:2.82222223px;line-height:1.25;font-family:'Copperplate Gothic Light';-inkscape-font-specification:'Copperplate Gothic Light, ';stroke:#000000;stroke-width:0.2;stroke-miterlimit:4;stroke-dasharray:none;stroke-opacity:1"
         id="path964-7"
         inkscape:connector-curvature="0" />
      <path
         d="m 28.617701,289.56301 v 0.0372 q -0.06615,0.011 -0.06615,0.0482 0,0.0234 0.07441,0.12402 l 1.092784,1.4621 q 0.129536,0.16536 0.22462,0.17088 v 0.0386 h -0.434082 v -0.0386 q 0.06615,-0.011 0.06615,-0.0469 0,-0.0207 -0.07579,-0.12402 l -1.080382,-1.46348 q -0.129535,-0.16536 -0.22462,-0.17087 v -0.0372 z"
         style="font-style:normal;font-variant:normal;font-weight:normal;font-stretch:normal;font-size:2.82222223px;line-height:1.25;font-family:'Copperplate Gothic Light';-inkscape-font-specification:'Copperplate Gothic Light, ';stroke:#000000;stroke-width:0.2;stroke-miterlimit:4;stroke-dasharray:none;stroke-opacity:1"
         id="path966-9"
         inkscape:connector-curvature="0" />
    </g>
  </g>
  <g
     inkscape:groupmode="layer"
     id="layer2"
     inkscape:label="Grid"
     style="display:none"
     sodipodi:insensitive="true">
    <g
       transform="translate(0,3.333209e-6)"
       style="display:inline"
       id="g1112">
      <path
         style="fill:none;stroke:#000000;stroke-width:0.05;stroke-linecap:butt;stroke-linejoin:miter;stroke-miterlimit:4;stroke-dasharray:none;stroke-opacity:1"
         d="m 7.9375,-1e-5 -3e-6,100.54167"
         id="path881-8-8"
         inkscape:connector-curvature="0"
         sodipodi:nodetypes="cc" />
      <path
         sodipodi:nodetypes="cc"
         inkscape:connector-curvature="0"
         id="path890-2-5"
         d="m 3.968752,0 -4e-6,100.54167"
         style="fill:none;stroke:#000000;stroke-width:0.05;stroke-linecap:butt;stroke-linejoin:miter;stroke-miterlimit:4;stroke-dasharray:none;stroke-opacity:1" />
      <path
         style="fill:none;stroke:#000000;stroke-width:0.05;stroke-linecap:butt;stroke-linejoin:miter;stroke-miterlimit:4;stroke-dasharray:none;stroke-opacity:1"
         d="m 11.906253,0 -4e-6,100.54167"
         id="path895-1-5"
         inkscape:connector-curvature="0"
         sodipodi:nodetypes="cc" />
      <path
         sodipodi:nodetypes="cc"
         inkscape:connector-curvature="0"
         id="path905-6-4"
         d="m 0,14.022551 15.875,3.66e-4"
         style="fill:none;stroke:#000000;stroke-width:0.05;stroke-linecap:butt;stroke-linejoin:miter;stroke-miterlimit:4;stroke-dasharray:none;stroke-opacity:1" />
      <path
         sodipodi:nodetypes="cc"
         style="fill:none;stroke:#000000;stroke-width:0.05;stroke-linecap:butt;stroke-linejoin:miter;stroke-miterlimit:4;stroke-dasharray:none;stroke-opacity:1"
         d="M 0,28.57465 15.875,28.575"
         id="path1103"
         inkscape:connector-curvature="0" />
      <path
         sodipodi:nodetypes="cc"
         inkscape:connector-curvature="0"
         id="path1107"
         d="m 0,43.126622 15.875,4.61e-4"
         style="fill:none;stroke:#000000;stroke-width:0.05;stroke-linecap:butt;stroke-linejoin:miter;stroke-miterlimit:4;stroke-dasharray:none;stroke-opacity:1" />
      <path
         sodipodi:nodetypes="cc"
         style="fill:none;stroke:#000000;stroke-width:0.05;stroke-linecap:butt;stroke-linejoin:miter;stroke-miterlimit:4;stroke-dasharray:none;stroke-opacity:1"
         d="m 0,57.678723 15.875,4.44e-4"
         id="path1111"
         inkscape:connector-curvature="0" />
      <path
         sodipodi:nodetypes="cc"
         inkscape:connector-curvature="0"
         id="path1115"
         d="m 0,72.230955 15.875,2.95e-4"
         style="fill:none;stroke:#000000;stroke-width:0.05;stroke-linecap:butt;stroke-linejoin:miter;stroke-miterlimit:4;stroke-dasharray:none;stroke-opacity:1" />
      <path
         sodipodi:nodetypes="cc"
         style="fill:none;stroke:#000000;stroke-width:0.05;stroke-linecap:butt;stroke-linejoin:miter;stroke-miterlimit:4;stroke-dasharray:none;stroke-opacity:1"
         d="m 0,86.782927 15.875,4.06e-4"
         id="path1119"
         inkscape:connector-curvature="0" />
      <circle
         r="4.0999999"
         cy="28.574995"
         cx="7.9523039"
         id="circle1014"
         style="display:inline;opacity:1;fill:none;fill-opacity:1;stroke:#000000;stroke-width:0.05;stroke-linecap:square;stroke-linejoin:round;stroke-miterlimit:4;stroke-dasharray:none;stroke-dashoffset:0;stroke-opacity:1;paint-order:markers fill stroke" />
      <circle
         r="4.0999999"
         cy="43.127026"
         cx="7.9523039"
         id="circle1018"
         style="display:inline;opacity:1;fill:none;fill-opacity:1;stroke:#000000;stroke-width:0.05;stroke-linecap:square;stroke-linejoin:round;stroke-miterlimit:4;stroke-dasharray:none;stroke-dashoffset:0;stroke-opacity:1;paint-order:markers fill stroke" />
      <circle
         style="display:inline;opacity:1;fill:none;fill-opacity:1;stroke:#000000;stroke-width:0.05;stroke-linecap:square;stroke-linejoin:round;stroke-miterlimit:4;stroke-dasharray:none;stroke-dashoffset:0;stroke-opacity:1;paint-order:markers fill stroke"
         id="circle1022"
         cx="7.9523039"
         cy="57.679188"
         r="4.0999999" />
      <circle
         style="display:inline;opacity:1;fill:none;fill-opacity:1;stroke:#000000;stroke-width:0.05;stroke-linecap:square;stroke-linejoin:round;stroke-miterlimit:4;stroke-dasharray:none;stroke-dashoffset:0;stroke-opacity:1;paint-order:markers fill stroke"
         id="circle1026"
         cx="7.9523039"
         cy="72.231216"
         r="4.0999999" />
      <circle
         r="4.0999999"
         cy="86.783379"
         cx="7.9523039"
         id="circle1030"
         style="display:inline;opacity:1;fill:none;fill-opacity:1;stroke:#000000;stroke-width:0.05;stroke-linecap:square;stroke-linejoin:round;stroke-miterlimit:4;stroke-dasharray:none;stroke-dashoffset:0;stroke-opacity:1;paint-order:markers fill stroke" />
      <circle
         r="5.4741378"
         cy="14.023303"
         cx="7.9360795"
         id="circle943"
         style="display:inline;opacity:1;fill:none;fill-opacity:1;stroke:#000000;stroke-width:0.05172414;stroke-linecap:square;stroke-linejoin:round;stroke-miterlimit:4;stroke-dasharray:none;stroke-dashoffset:0;stroke-opacity:1;paint-order:markers fill stroke" />
      <circle
         style="display:inline;opacity:1;fill:none;fill-opacity:1;stroke:#000000;stroke-width:0.05172414;stroke-linecap:square;stroke-linejoin:round;stroke-miterlimit:4;stroke-dasharray:none;stroke-dashoffset:0;stroke-opacity:1;paint-order:markers fill stroke"
         id="circle975"
         cx="7.9360795"
         cy="28.575275"
         r="5.4741378" />
      <circle
         style="display:inline;opacity:1;fill:none;fill-opacity:1;stroke:#000000;stroke-width:0.05172414;stroke-linecap:square;stroke-linejoin:round;stroke-miterlimit:4;stroke-dasharray:none;stroke-dashoffset:0;stroke-opacity:1;paint-order:markers fill stroke"
         id="circle977"
         cx="7.9360795"
         cy="43.127495"
         r="5.4741378" />
      <circle
         r="5.4741378"
         cy="57.67947"
         cx="7.9360795"
         id="circle979"
         style="display:inline;opacity:1;fill:none;fill-opacity:1;stroke:#000000;stroke-width:0.05172414;stroke-linecap:square;stroke-linejoin:round;stroke-miterlimit:4;stroke-dasharray:none;stroke-dashoffset:0;stroke-opacity:1;paint-order:markers fill stroke" />
      <circle
         r="5.4741378"
         cy="72.231689"
         cx="7.9360795"
         id="circle981"
         style="display:inline;opacity:1;fill:none;fill-opacity:1;stroke:#000000;stroke-width:0.05172414;stroke-linecap:square;stroke-linejoin:round;stroke-miterlimit:4;stroke-dasharray:none;stroke-dashoffset:0;stroke-opacity:1;paint-order:markers fill stroke" />
      <circle
         style="display:inline;opacity:1;fill:none;fill-opacity:1;stroke:#000000;stroke-width:0.05172414;stroke-linecap:square;stroke-linejoin:round;stroke-miterlimit:4;stroke-dasharray:none;stroke-dashoffset:0;stroke-opacity:1;paint-order:markers fill stroke"
         id="circle983"
         cx="7.9360795"
         cy="86.783661"
         r="5.4741378" />
      <circle
         style="display:inline;opacity:1;fill:none;fill-opacity:1;stroke:#000000;stroke-width:0.05;stroke-linecap:square;stroke-linejoin:round;stroke-miterlimit:4;stroke-dasharray:none;stroke-dashoffset:0;stroke-opacity:1;paint-order:markers fill stroke"
         id="circle1089"
         cx="7.9523039"
         cy="14.022678"
         r="4.0999999" />
    </g>
    <g
       id="g969"
       style="display:inline"
       transform="translate(15.874999,3.333209e-6)">
      <path
         sodipodi:nodetypes="cc"
         inkscape:connector-curvature="0"
         id="path927"
         d="m 7.9375,-1e-5 -3e-6,100.54167"
         style="fill:none;stroke:#000000;stroke-width:0.05;stroke-linecap:butt;stroke-linejoin:miter;stroke-miterlimit:4;stroke-dasharray:none;stroke-opacity:1" />
      <path
         style="fill:none;stroke:#000000;stroke-width:0.05;stroke-linecap:butt;stroke-linejoin:miter;stroke-miterlimit:4;stroke-dasharray:none;stroke-opacity:1"
         d="m 3.968752,0 -4e-6,100.54167"
         id="path929"
         inkscape:connector-curvature="0"
         sodipodi:nodetypes="cc" />
      <path
         sodipodi:nodetypes="cc"
         inkscape:connector-curvature="0"
         id="path931"
         d="m 11.906253,0 -4e-6,100.54167"
         style="fill:none;stroke:#000000;stroke-width:0.05;stroke-linecap:butt;stroke-linejoin:miter;stroke-miterlimit:4;stroke-dasharray:none;stroke-opacity:1" />
      <path
         style="fill:none;stroke:#000000;stroke-width:0.05;stroke-linecap:butt;stroke-linejoin:miter;stroke-miterlimit:4;stroke-dasharray:none;stroke-opacity:1"
         d="m 0,14.022551 15.875,3.66e-4"
         id="path933"
         inkscape:connector-curvature="0"
         sodipodi:nodetypes="cc" />
      <path
         inkscape:connector-curvature="0"
         id="path935"
         d="M 0,28.57465 15.875,28.575"
         style="fill:none;stroke:#000000;stroke-width:0.05;stroke-linecap:butt;stroke-linejoin:miter;stroke-miterlimit:4;stroke-dasharray:none;stroke-opacity:1"
         sodipodi:nodetypes="cc" />
      <path
         style="fill:none;stroke:#000000;stroke-width:0.05;stroke-linecap:butt;stroke-linejoin:miter;stroke-miterlimit:4;stroke-dasharray:none;stroke-opacity:1"
         d="m 0,43.126622 15.875,4.61e-4"
         id="path937"
         inkscape:connector-curvature="0"
         sodipodi:nodetypes="cc" />
      <path
         inkscape:connector-curvature="0"
         id="path939"
         d="m 0,57.678723 15.875,4.44e-4"
         style="fill:none;stroke:#000000;stroke-width:0.05;stroke-linecap:butt;stroke-linejoin:miter;stroke-miterlimit:4;stroke-dasharray:none;stroke-opacity:1"
         sodipodi:nodetypes="cc" />
      <path
         style="fill:none;stroke:#000000;stroke-width:0.05;stroke-linecap:butt;stroke-linejoin:miter;stroke-miterlimit:4;stroke-dasharray:none;stroke-opacity:1"
         d="m 0,72.230955 15.875,2.95e-4"
         id="path941"
         inkscape:connector-curvature="0"
         sodipodi:nodetypes="cc" />
      <path
         inkscape:connector-curvature="0"
         id="path943"
         d="m 0,86.782927 15.875,4.06e-4"
         style="fill:none;stroke:#000000;stroke-width:0.05;stroke-linecap:butt;stroke-linejoin:miter;stroke-miterlimit:4;stroke-dasharray:none;stroke-opacity:1"
         sodipodi:nodetypes="cc" />
      <circle
         style="display:inline;opacity:1;fill:none;fill-opacity:1;stroke:#000000;stroke-width:0.05;stroke-linecap:square;stroke-linejoin:round;stroke-miterlimit:4;stroke-dasharray:none;stroke-dashoffset:0;stroke-opacity:1;paint-order:markers fill stroke"
         id="circle945"
         cx="7.9523039"
         cy="28.574995"
         r="4.0999999" />
      <circle
         style="display:inline;opacity:1;fill:none;fill-opacity:1;stroke:#000000;stroke-width:0.05;stroke-linecap:square;stroke-linejoin:round;stroke-miterlimit:4;stroke-dasharray:none;stroke-dashoffset:0;stroke-opacity:1;paint-order:markers fill stroke"
         id="circle947"
         cx="7.9523039"
         cy="43.127026"
         r="4.0999999" />
      <circle
         r="4.0999999"
         cy="57.679188"
         cx="7.9523039"
         id="circle949"
         style="display:inline;opacity:1;fill:none;fill-opacity:1;stroke:#000000;stroke-width:0.05;stroke-linecap:square;stroke-linejoin:round;stroke-miterlimit:4;stroke-dasharray:none;stroke-dashoffset:0;stroke-opacity:1;paint-order:markers fill stroke" />
      <circle
         r="4.0999999"
         cy="72.231216"
         cx="7.9523039"
         id="circle951"
         style="display:inline;opacity:1;fill:none;fill-opacity:1;stroke:#000000;stroke-width:0.05;stroke-linecap:square;stroke-linejoin:round;stroke-miterlimit:4;stroke-dasharray:none;stroke-dashoffset:0;stroke-opacity:1;paint-order:markers fill stroke" />
      <circle
         style="display:inline;opacity:1;fill:none;fill-opacity:1;stroke:#000000;stroke-width:0.05;stroke-linecap:square;stroke-linejoin:round;stroke-miterlimit:4;stroke-dasharray:none;stroke-dashoffset:0;stroke-opacity:1;paint-order:markers fill stroke"
         id="circle953"
         cx="7.9523039"
         cy="86.783379"
         r="4.0999999" />
      <circle
         style="display:inline;opacity:1;fill:none;fill-opacity:1;stroke:#000000;stroke-width:0.05172414;stroke-linecap:square;stroke-linejoin:round;stroke-miterlimit:4;stroke-dasharray:none;stroke-dashoffset:0;stroke-opacity:1;paint-order:markers fill stroke"
         id="circle955"
         cx="7.9360795"
         cy="14.023303"
         r="5.4741378" />
      <circle
         r="5.4741378"
         cy="28.575275"
         cx="7.9360795"
         id="circle957"
         style="display:inline;opacity:1;fill:none;fill-opacity:1;stroke:#000000;stroke-width:0.05172414;stroke-linecap:square;stroke-linejoin:round;stroke-miterlimit:4;stroke-dasharray:none;stroke-dashoffset:0;stroke-opacity:1;paint-order:markers fill stroke" />
      <circle
         r="5.4741378"
         cy="43.127495"
         cx="7.9360795"
         id="circle959"
         style="display:inline;opacity:1;fill:none;fill-opacity:1;stroke:#000000;stroke-width:0.05172414;stroke-linecap:square;stroke-linejoin:round;stroke-miterlimit:4;stroke-dasharray:none;stroke-dashoffset:0;stroke-opacity:1;paint-order:markers fill stroke" />
      <circle
         style="display:inline;opacity:1;fill:none;fill-opacity:1;stroke:#000000;stroke-width:0.05172414;stroke-linecap:square;stroke-linejoin:round;stroke-miterlimit:4;stroke-dasharray:none;stroke-dashoffset:0;stroke-opacity:1;paint-order:markers fill stroke"
         id="circle961"
         cx="7.9360795"
         cy="57.67947"
         r="5.4741378" />
      <circle
         style="display:inline;opacity:1;fill:none;fill-opacity:1;stroke:#000000;stroke-width:0.05172414;stroke-linecap:square;stroke-linejoin:round;stroke-miterlimit:4;stroke-dasharray:none;stroke-dashoffset:0;stroke-opacity:1;paint-order:markers fill stroke"
         id="circle963"
         cx="7.9360795"
         cy="72.231689"
         r="5.4741378" />
      <circle
         r="5.4741378"
         cy="86.783661"
         cx="7.9360795"
         id="circle965"
         style="display:inline;opacity:1;fill:none;fill-opacity:1;stroke:#000000;stroke-width:0.05172414;stroke-linecap:square;stroke-linejoin:round;stroke-miterlimit:4;stroke-dasharray:none;stroke-dashoffset:0;stroke-opacity:1;paint-order:markers fill stroke" />
      <circle
         r="4.0999999"
         cy="14.022678"
         cx="7.9523039"
         id="circle967"
         style="display:inline;opacity:1;fill:none;fill-opacity:1;stroke:#000000;stroke-width:0.05;stroke-linecap:square;stroke-linejoin:round;stroke-miterlimit:4;stroke-dasharray:none;stroke-dashoffset:0;stroke-opacity:1;paint-order:markers fill stroke" />
    </g>
  </g>
</svg>
