<?xml version="1.0" encoding="UTF-8" standalone="no"?>
<!-- Created with Inkscape (http://www.inkscape.org/) -->

<svg
   xmlns:dc="http://purl.org/dc/elements/1.1/"
   xmlns:cc="http://creativecommons.org/ns#"
   xmlns:rdf="http://www.w3.org/1999/02/22-rdf-syntax-ns#"
   xmlns:svg="http://www.w3.org/2000/svg"
   xmlns="http://www.w3.org/2000/svg"
   xmlns:sodipodi="http://sodipodi.sourceforge.net/DTD/sodipodi-0.dtd"
   xmlns:inkscape="http://www.inkscape.org/namespaces/inkscape"
   width="120"
   height="380"
   viewBox="0 0 31.750001 100.54167"
   version="1.1"
   id="svg8"
   inkscape:version="0.92.4 (5da689c313, 2019-01-14)"
   sodipodi:docname="VCPolarizer.svg">
  <defs
     id="defs2" />
  <sodipodi:namedview
     id="base"
     pagecolor="#ffffff"
     bordercolor="#666666"
     borderopacity="1.0"
     inkscape:pageopacity="0.0"
     inkscape:pageshadow="2"
     inkscape:zoom="2.2789474"
     inkscape:cx="59.999999"
     inkscape:cy="190"
     inkscape:document-units="mm"
     inkscape:current-layer="layer1"
     showgrid="true"
     units="px"
     inkscape:snap-bbox="true"
     inkscape:snap-page="true"
     inkscape:bbox-nodes="true"
     inkscape:snap-bbox-edge-midpoints="true"
     inkscape:window-width="1920"
     inkscape:window-height="1017"
     inkscape:window-x="-8"
     inkscape:window-y="-8"
     inkscape:window-maximized="1">
    <inkscape:grid
       type="xygrid"
       id="grid116" />
  </sodipodi:namedview>
  <metadata
     id="metadata5">
    <rdf:RDF>
      <cc:Work
         rdf:about="">
        <dc:format>image/svg+xml</dc:format>
        <dc:type
           rdf:resource="http://purl.org/dc/dcmitype/StillImage" />
        <dc:title />
      </cc:Work>
    </rdf:RDF>
  </metadata>
  <g
     inkscape:groupmode="layer"
     id="layer3"
     inkscape:label="Panel"
     sodipodi:insensitive="true"
     style="display:inline">
    <rect
       transform="translate(0,-196.45832)"
       id="rect3855"
       width="31.75"
       height="100.54167"
       x="-3.3306691e-16"
       y="196.45831"
       style="display:inline;fill:#f36a1f;stroke-width:0.46816438" />
  </g>
  <g
     inkscape:label="Layer 1"
     inkscape:groupmode="layer"
     id="layer1"
     transform="translate(0,-196.45832)"
     style="display:inline">
    <rect
       style="fill:#f3861f;stroke-width:0.1339225"
       id="rect897"
       width="13.148918"
       height="13.46628"
       x="1.370092"
       y="231.77469" />
    <path
       style="fill:none;stroke:#000000;stroke-width:0.30000001;stroke-linecap:butt;stroke-linejoin:miter;stroke-miterlimit:4;stroke-dasharray:none;stroke-opacity:1"
       d="M 11.112499,225.03335 H 19.84375"
       id="path118"
       inkscape:connector-curvature="0" />
    <g
       aria-label="+"
       style="font-style:normal;font-weight:normal;font-size:2.82222223px;line-height:1.25;font-family:sans-serif;letter-spacing:0px;word-spacing:0px;fill:#000000;fill-opacity:1;stroke:none;stroke-width:0.26458332"
       id="text100-5-2"
       transform="translate(-10.25055,-5.3178502)">
      <path
         d="m 38.33978,211.88683 v 0.76757 h 0.767567 v 0.23427 H 38.33978 v 0.76756 h -0.23151 v -0.76756 h -0.767568 v -0.23427 h 0.767568 v -0.76757 z"
         style="stroke-width:0.26458332"
         id="path111-9-4"
         inkscape:connector-curvature="0" />
    </g>
    <g
       aria-label="_"
       style="font-style:normal;font-weight:normal;font-size:2.82222223px;line-height:1.25;font-family:sans-serif;letter-spacing:0px;word-spacing:0px;fill:#000000;fill-opacity:1;stroke:none;stroke-width:0.26458332"
       id="text104-0-5-1"
       transform="translate(-26.21532,-5.3225732)">
      <path
         d="m 46.417842,212.68492 v 0.19706 h -1.466233 v -0.19706 z"
         style="stroke-width:0.26458332"
         id="path115-0-4-6"
         inkscape:connector-curvature="0" />
    </g>
    <path
       style="fill:none;stroke:#000000;stroke-width:0.30000001;stroke-linecap:butt;stroke-linejoin:miter;stroke-miterlimit:4;stroke-dasharray:none;stroke-opacity:1"
       d="M 1.3229166,246.72915 H 30.427083"
       id="path331"
       inkscape:connector-curvature="0" />
    <g
       aria-label="/^M^\"
       style="font-style:normal;font-variant:normal;font-weight:normal;font-stretch:normal;font-size:2.82222223px;line-height:1.25;font-family:'Copperplate Gothic Light';-inkscape-font-specification:'Copperplate Gothic Light, ';letter-spacing:0px;word-spacing:0px;fill:#000000;fill-opacity:1;stroke:#000000;stroke-width:0.2;stroke-miterlimit:4;stroke-dasharray:none;stroke-opacity:1"
       id="text956"
       transform="translate(-9.481569,3.7456238)">
      <path
         d="m 21.203855,291.40545 v 0.0386 h -0.434082 v -0.0386 q 0.09509,-0.006 0.224621,-0.17088 l 1.094162,-1.4621 q 0.07441,-0.1006 0.07441,-0.12402 0,-0.0372 -0.06615,-0.0482 v -0.0372 h 0.423058 v 0.0372 q -0.09508,0.006 -0.22462,0.17087 l -1.08176,1.46348 q -0.07579,0.10197 -0.07579,0.12402 0,0.0358 0.06615,0.0469 z"
         style="font-style:normal;font-variant:normal;font-weight:normal;font-stretch:normal;font-size:2.82222223px;line-height:1.25;font-family:'Copperplate Gothic Light';-inkscape-font-specification:'Copperplate Gothic Light, ';stroke:#000000;stroke-width:0.2;stroke-miterlimit:4;stroke-dasharray:none;stroke-opacity:1"
         id="path958"
         inkscape:connector-curvature="0" />
      <path
         d="M 22.940183,290.3857 H 22.73899 l 0.493338,-0.8282 h 0.243912 l 0.493338,0.8282 h -0.20395 l -0.413411,-0.68075 z"
         style="font-style:normal;font-variant:normal;font-weight:normal;font-stretch:normal;font-size:2.82222223px;line-height:1.25;font-family:'Copperplate Gothic Light';-inkscape-font-specification:'Copperplate Gothic Light, ';stroke:#000000;stroke-width:0.2;stroke-miterlimit:4;stroke-dasharray:none;stroke-opacity:1"
         id="path960"
         inkscape:connector-curvature="0" />
      <path
         d="m 25.342104,291.44403 -0.789616,-1.58061 v 1.418 q 0,0.0565 0.01791,0.0813 0.01791,0.0234 0.07028,0.0372 v 0.0441 h -0.373449 v -0.0441 q 0.05237,-0.0138 0.07028,-0.0372 0.01792,-0.0234 0.01792,-0.0813 v -1.5558 q 0,-0.0579 -0.01792,-0.0813 -0.01791,-0.0248 -0.07028,-0.0372 v -0.0441 h 0.487826 v 0.0441 q -0.06752,0.0234 -0.06752,0.0579 0,0.0165 0.04547,0.10611 l 0.62563,1.24161 0.628385,-1.25263 q 0.03307,-0.0661 0.03307,-0.0937 0,-0.0358 -0.06752,-0.0593 v -0.0441 h 0.49196 v 0.0441 q -0.05237,0.0138 -0.07028,0.0372 -0.01792,0.0234 -0.01792,0.0813 v 1.5558 q 0,0.0565 0.01792,0.0813 0.01791,0.0234 0.07028,0.0372 v 0.0441 h -0.392741 v -0.0441 q 0.05374,-0.0138 0.07028,-0.0372 0.01791,-0.0234 0.01791,-0.0813 v -1.418 z"
         style="font-style:normal;font-variant:normal;font-weight:normal;font-stretch:normal;font-size:2.82222223px;line-height:1.25;font-family:'Copperplate Gothic Light';-inkscape-font-specification:'Copperplate Gothic Light, ';stroke:#000000;stroke-width:0.2;stroke-miterlimit:4;stroke-dasharray:none;stroke-opacity:1"
         id="path962"
         inkscape:connector-curvature="0" />
      <path
         d="m 26.942006,290.3857 h -0.201193 l 0.493338,-0.8282 h 0.243912 l 0.493338,0.8282 h -0.20395 l -0.413411,-0.68075 z"
         style="font-style:normal;font-variant:normal;font-weight:normal;font-stretch:normal;font-size:2.82222223px;line-height:1.25;font-family:'Copperplate Gothic Light';-inkscape-font-specification:'Copperplate Gothic Light, ';stroke:#000000;stroke-width:0.2;stroke-miterlimit:4;stroke-dasharray:none;stroke-opacity:1"
         id="path964"
         inkscape:connector-curvature="0" />
      <path
         d="m 28.617701,289.56301 v 0.0372 q -0.06615,0.011 -0.06615,0.0482 0,0.0234 0.07441,0.12402 l 1.092784,1.4621 q 0.129536,0.16536 0.22462,0.17088 v 0.0386 h -0.434082 v -0.0386 q 0.06615,-0.011 0.06615,-0.0469 0,-0.0207 -0.07579,-0.12402 l -1.080382,-1.46348 q -0.129535,-0.16536 -0.22462,-0.17087 v -0.0372 z"
         style="font-style:normal;font-variant:normal;font-weight:normal;font-stretch:normal;font-size:2.82222223px;line-height:1.25;font-family:'Copperplate Gothic Light';-inkscape-font-specification:'Copperplate Gothic Light, ';stroke:#000000;stroke-width:0.2;stroke-miterlimit:4;stroke-dasharray:none;stroke-opacity:1"
         id="path966"
         inkscape:connector-curvature="0" />
    </g>
    <g
       aria-label="VC POLARIZER"
       style="font-style:normal;font-variant:normal;font-weight:bold;font-stretch:normal;font-size:3.52777767px;line-height:1.25;font-family:'Yu Gothic UI';-inkscape-font-specification:'Yu Gothic UI Bold';letter-spacing:0px;word-spacing:0px;display:inline;fill:#000000;fill-opacity:1;stroke:none;stroke-width:0.26458332"
       id="text1002"
       transform="matrix(0.96599711,0,0,1,-1.9854849,201.35105)">
      <path
         d="m 13.036984,-3.79305 -0.887112,2.4701334 H 11.691674 L 10.820065,-3.79305 h 0.447862 l 0.609782,1.8741319 q 0.02928,0.089573 0.04479,0.2084282 h 0.0069 q 0.01206,-0.098185 0.04995,-0.2118733 L 12.602902,-3.79305 Z"
         style="font-style:normal;font-variant:normal;font-weight:bold;font-stretch:normal;font-size:3.52777767px;font-family:'Yu Gothic UI';-inkscape-font-specification:'Yu Gothic UI Bold';stroke-width:0.26458332"
         id="path1036"
         inkscape:connector-curvature="0" />
      <path
         d="m 15.021359,-1.4262695 q -0.279053,0.144694 -0.694187,0.144694 -0.537435,0 -0.861274,-0.3393419 -0.323839,-0.3393419 -0.323839,-0.8905571 0,-0.5925564 0.363458,-0.9577366 0.36518,-0.3651801 0.921563,-0.3651801 0.358289,0 0.594279,0.1016304 v 0.4065212 q -0.24977,-0.1481391 -0.551216,-0.1481391 -0.401353,0 -0.651123,0.2566596 -0.248047,0.2566596 -0.248047,0.685574 0,0.4082438 0.232544,0.651123 0.232544,0.2411567 0.611505,0.2411567 0.349677,0 0.606337,-0.1653646 z"
         style="font-style:normal;font-variant:normal;font-weight:bold;font-stretch:normal;font-size:3.52777767px;font-family:'Yu Gothic UI';-inkscape-font-specification:'Yu Gothic UI Bold';stroke-width:0.26458332"
         id="path1038"
         inkscape:connector-curvature="0" />
      <path
         d="m 16.657036,-2.2186414 v 0.8957248 H 16.248792 V -3.79305 h 0.749309 q 0.425469,0 0.659735,0.198093 0.234267,0.198093 0.234267,0.5581054 0,0.3600125 -0.244602,0.5891113 -0.244602,0.2290989 -0.661458,0.2290989 z m 0,-1.2367893 v 0.902615 h 0.265273 q 0.263549,0 0.401353,-0.1223009 0.137804,-0.1223009 0.137804,-0.3445095 0,-0.4358046 -0.506429,-0.4358046 z"
         style="font-style:normal;font-variant:normal;font-weight:bold;font-stretch:normal;font-size:3.52777767px;font-family:'Yu Gothic UI';-inkscape-font-specification:'Yu Gothic UI Bold';stroke-width:0.26458332"
         id="path1040"
         inkscape:connector-curvature="0" />
      <path
         d="m 19.326985,-1.2815755 q -0.53399,0 -0.856106,-0.3462321 -0.320394,-0.3462321 -0.320394,-0.9008924 0,-0.5960015 0.327284,-0.9508463 0.327284,-0.3548449 0.888835,-0.3548449 0.520209,0 0.837158,0.3445096 0.318671,0.3445095 0.318671,0.9008924 0,0.6046143 -0.325561,0.956014 -0.325562,0.3513997 -0.869887,0.3513997 z m 0.01895,-2.1928032 q -0.339342,0 -0.552938,0.2532145 -0.211873,0.2532145 -0.211873,0.666626 0,0.4116889 0.206706,0.6631808 0.206705,0.251492 0.54088,0.251492 0.354844,0 0.559828,-0.2394341 0.204983,-0.2394342 0.204983,-0.6700711 0,-0.4426947 -0.199816,-0.6838514 -0.198093,-0.2411567 -0.54777,-0.2411567 z"
         style="font-style:normal;font-variant:normal;font-weight:bold;font-stretch:normal;font-size:3.52777767px;font-family:'Yu Gothic UI';-inkscape-font-specification:'Yu Gothic UI Bold';stroke-width:0.26458332"
         id="path1042"
         inkscape:connector-curvature="0" />
      <path
         d="M 22.343166,-1.3229166 H 20.975463 V -3.79305 h 0.409967 v 2.1239013 h 0.957736 z"
         style="font-style:normal;font-variant:normal;font-weight:bold;font-stretch:normal;font-size:3.52777767px;font-family:'Yu Gothic UI';-inkscape-font-specification:'Yu Gothic UI Bold';stroke-width:0.26458332"
         id="path1044"
         inkscape:connector-curvature="0" />
      <path
         d="m 24.727172,-1.3229166 h -0.449585 l -0.222209,-0.6287299 h -0.971517 l -0.213595,0.6287299 H 22.422403 L 23.347411,-3.79305 h 0.461643 z m -0.780314,-0.9629042 -0.342787,-0.9852973 q -0.0155,-0.048231 -0.03273,-0.1550293 h -0.0069 q -0.0155,0.098185 -0.03445,0.1550293 l -0.339342,0.9852973 z"
         style="font-style:normal;font-variant:normal;font-weight:bold;font-stretch:normal;font-size:3.52777767px;font-family:'Yu Gothic UI';-inkscape-font-specification:'Yu Gothic UI Bold';stroke-width:0.26458332"
         id="path1046"
         inkscape:connector-curvature="0" />
      <path
         d="m 26.97682,-1.3229166 h -0.478869 l -0.394463,-0.6614583 q -0.0534,-0.091295 -0.105076,-0.1550293 -0.04995,-0.065457 -0.103352,-0.106798 -0.05168,-0.041341 -0.113689,-0.060289 -0.06201,-0.018948 -0.139526,-0.018948 H 25.47648 v 1.0025228 H 25.068237 V -3.79305 h 0.813042 q 0.173977,0 0.320394,0.041341 0.146417,0.041341 0.254937,0.125746 0.108521,0.082682 0.16881,0.2084283 0.06201,0.1240234 0.06201,0.2911105 0,0.1309137 -0.03962,0.2411567 -0.0379,0.1085205 -0.110243,0.1946479 -0.07062,0.084405 -0.172255,0.144694 -0.09991,0.060289 -0.225654,0.093018 v 0.00689 q 0.06718,0.037896 0.117134,0.084405 0.04995,0.044786 0.09474,0.093018 0.04479,0.048231 0.08785,0.110243 0.04479,0.060289 0.09818,0.141249 z m -1.50034,-2.1376817 v 0.8027072 h 0.341065 q 0.09474,0 0.173977,-0.029283 0.08096,-0.029283 0.139527,-0.084405 0.05857,-0.055122 0.09129,-0.1343588 0.03273,-0.079237 0.03273,-0.1774224 0,-0.1774224 -0.111966,-0.2773301 -0.111965,-0.099908 -0.322116,-0.099908 z"
         style="font-style:normal;font-variant:normal;font-weight:bold;font-stretch:normal;font-size:3.52777767px;font-family:'Yu Gothic UI';-inkscape-font-specification:'Yu Gothic UI Bold';stroke-width:0.26458332"
         id="path1048"
         inkscape:connector-curvature="0" />
      <path
         d="M 27.686509,-1.3229166 H 27.264485 V -3.79305 h 0.422024 z"
         style="font-style:normal;font-variant:normal;font-weight:bold;font-stretch:normal;font-size:3.52777767px;font-family:'Yu Gothic UI';-inkscape-font-specification:'Yu Gothic UI Bold';stroke-width:0.26458332"
         id="path1050"
         inkscape:connector-curvature="0" />
      <path
         d="m 29.977497,-3.6139051 -1.353923,1.9447564 h 1.336697 v 0.3462321 h -1.910305 v -0.1877577 l 1.35909,-1.9344211 H 28.155041 V -3.79305 h 1.822456 z"
         style="font-style:normal;font-variant:normal;font-weight:bold;font-stretch:normal;font-size:3.52777767px;font-family:'Yu Gothic UI';-inkscape-font-specification:'Yu Gothic UI Bold';stroke-width:0.26458332"
         id="path1052"
         inkscape:connector-curvature="0" />
      <path
         d="M 31.753444,-1.3229166 H 30.366793 V -3.79305 h 1.331529 v 0.3479546 h -0.921563 v 0.6993544 h 0.849216 v 0.3462321 h -0.849216 v 0.7303602 h 0.976685 z"
         style="font-style:normal;font-variant:normal;font-weight:bold;font-stretch:normal;font-size:3.52777767px;font-family:'Yu Gothic UI';-inkscape-font-specification:'Yu Gothic UI Bold';stroke-width:0.26458332"
         id="path1054"
         inkscape:connector-curvature="0" />
      <path
         d="m 34.101277,-1.3229166 h -0.478868 l -0.394464,-0.6614583 q -0.0534,-0.091295 -0.105075,-0.1550293 -0.04995,-0.065457 -0.103353,-0.106798 -0.05168,-0.041341 -0.113688,-0.060289 -0.06201,-0.018948 -0.139527,-0.018948 h -0.165364 v 1.0025228 H 32.192694 V -3.79305 h 0.813043 q 0.173977,0 0.320393,0.041341 0.146417,0.041341 0.254937,0.125746 0.108521,0.082682 0.16881,0.2084283 0.06201,0.1240234 0.06201,0.2911105 0,0.1309137 -0.03962,0.2411567 -0.0379,0.1085205 -0.110243,0.1946479 -0.07062,0.084405 -0.172255,0.144694 -0.09991,0.060289 -0.225653,0.093018 v 0.00689 q 0.06718,0.037896 0.117133,0.084405 0.04995,0.044786 0.09474,0.093018 0.04479,0.048231 0.08785,0.110243 0.04479,0.060289 0.09819,0.141249 z m -1.500339,-2.1376817 v 0.8027072 h 0.341064 q 0.09474,0 0.173978,-0.029283 0.08096,-0.029283 0.139526,-0.084405 0.05857,-0.055122 0.0913,-0.1343588 0.03273,-0.079237 0.03273,-0.1774224 0,-0.1774224 -0.111965,-0.2773301 -0.111966,-0.099908 -0.322117,-0.099908 z"
         style="font-style:normal;font-variant:normal;font-weight:bold;font-stretch:normal;font-size:3.52777767px;font-family:'Yu Gothic UI';-inkscape-font-specification:'Yu Gothic UI Bold';stroke-width:0.26458332"
         id="path1056"
         inkscape:connector-curvature="0" />
    </g>
    <g
       aria-label="INPUT"
       style="font-style:normal;font-variant:normal;font-weight:normal;font-stretch:normal;font-size:2.82222223px;line-height:1.25;font-family:'Yu Gothic UI';-inkscape-font-specification:'Yu Gothic UI';letter-spacing:0px;word-spacing:0px;display:inline;fill:#000000;fill-opacity:1;stroke:none;stroke-width:0.26458332"
       id="text1006"
       transform="translate(-1.3866999,198.39545)">
      <path
         d="M 5.7822481,7.9375 H 5.5507377 V 5.9613932 h 0.2315104 z"
         style="stroke-width:0.26458332"
         id="path1059"
         inkscape:connector-curvature="0" />
      <path
         d="M 7.8934027,7.9375 H 7.6095268 L 6.5925346,6.3624023 q -0.038585,-0.059256 -0.06339,-0.1240234 h -0.00827 q 0.011024,0.06339 0.011024,0.2714735 V 7.9375 H 6.3003905 V 5.9613932 h 0.3004123 l 0.9894314,1.550293 q 0.062012,0.096463 0.079926,0.1322917 h 0.00551 q -0.01378,-0.085438 -0.01378,-0.2907661 V 5.9613932 h 0.2315105 z"
         style="stroke-width:0.26458332"
         id="path1061"
         inkscape:connector-curvature="0" />
      <path
         d="M 8.6430555,7.1906033 V 7.9375 H 8.4115451 V 5.9613932 h 0.5429471 q 0.3169487,0 0.4905816,0.1543403 0.1750108,0.1543403 0.1750108,0.4354601 0,0.2811198 -0.1943034,0.4602647 -0.1929253,0.179145 -0.5222765,0.179145 z m 0,-1.0197483 v 0.8102865 h 0.2425347 q 0.2397787,0 0.3651802,-0.108865 0.1267795,-0.1102431 0.1267795,-0.3100586 0,-0.3913629 -0.4630208,-0.3913629 z"
         style="stroke-width:0.26458332"
         id="path1063"
         inkscape:connector-curvature="0" />
      <path
         d="m 11.439095,7.1382378 q 0,0.8323351 -0.751031,0.8323351 -0.7193357,0 -0.7193357,-0.8006402 V 5.9613932 h 0.2315107 v 1.1933811 q 0,0.6077148 0.51263,0.6077148 0.494716,0 0.494716,-0.5870442 V 5.9613932 h 0.23151 z"
         style="stroke-width:0.26458332"
         id="path1065"
         inkscape:connector-curvature="0" />
      <path
         d="M 13.102387,6.170855 H 12.531879 V 7.9375 h -0.23151 V 6.170855 h -0.56913 V 5.9613932 h 1.371148 z"
         style="stroke-width:0.26458332"
         id="path1067"
         inkscape:connector-curvature="0" />
    </g>
    <g
       aria-label="CV"
       transform="translate(6.4001134,201.85022)"
       style="font-style:normal;font-variant:normal;font-weight:normal;font-stretch:normal;font-size:2.82222223px;line-height:1.25;font-family:'Yu Gothic UI';-inkscape-font-specification:'Yu Gothic UI';letter-spacing:0px;word-spacing:0px;display:inline;fill:#000000;fill-opacity:1;stroke:none;stroke-width:0.26458332"
       id="text1010">
      <path
         d="m 8.2186195,21.083984 q -0.2191081,0.115755 -0.5457031,0.115755 -0.4216797,0 -0.6752388,-0.271474 -0.253559,-0.271473 -0.253559,-0.712445 0,-0.474045 0.2852539,-0.76619 0.2852539,-0.292144 0.7234701,-0.292144 0.2811198,0 0.4657769,0.08131 v 0.246668 q -0.2122179,-0.118511 -0.468533,-0.118511 -0.3403754,0 -0.5525933,0.227376 -0.2108399,0.227377 -0.2108399,0.607715 0,0.361046 0.1970595,0.57602 0.1984375,0.213596 0.5195204,0.213596 0.2976562,0 0.5153863,-0.132291 z"
         style="stroke-width:0.26458332"
         id="path1102"
         inkscape:connector-curvature="0" />
      <path
         d="M 10.089995,19.190559 9.3582571,21.166666 H 9.10332 L 8.3867402,19.190559 h 0.2576931 l 0.5470812,1.56683 q 0.026183,0.07579 0.039963,0.175011 h 0.00551 q 0.011024,-0.08268 0.045475,-0.177767 L 9.840568,19.190559 Z"
         style="stroke-width:0.26458332"
         id="path1104"
         inkscape:connector-curvature="0" />
    </g>
    <g
       aria-label="OUTPUT"
       style="font-style:normal;font-variant:normal;font-weight:normal;font-stretch:normal;font-size:2.82222223px;line-height:1.25;font-family:'Yu Gothic UI';-inkscape-font-specification:'Yu Gothic UI';letter-spacing:0px;word-spacing:0px;display:inline;fill:#000000;fill-opacity:1;stroke:none;stroke-width:0.26458332"
       id="text1014">
      <path
         d="m 3.6795153,235.4818 q -0.4203016,0 -0.6738606,-0.27698 -0.252181,-0.27699 -0.252181,-0.72072 0,-0.4768 0.2576931,-0.76067 0.2576932,-0.28388 0.7014215,-0.28388 0.4092773,0 0.6587022,0.27561 0.250803,0.27561 0.250803,0.72071 0,0.48369 -0.2563151,0.76481 -0.2563151,0.28112 -0.6862631,0.28112 z m 0.016537,-1.83279 q -0.3114366,0 -0.50574,0.22462 -0.1943034,0.22462 -0.1943034,0.5898 0,0.36518 0.1887912,0.58843 0.1901693,0.22186 0.4947157,0.22186 0.3252171,0 0.5126303,-0.21222 0.1874131,-0.21222 0.1874131,-0.59393 0,-0.39137 -0.181901,-0.60496 -0.181901,-0.2136 -0.5016059,-0.2136 z"
         style="stroke-width:0.26458332"
         id="path1139"
         inkscape:connector-curvature="0" />
      <path
         d="m 6.4562624,234.64947 q 0,0.83233 -0.7510309,0.83233 -0.7193359,0 -0.7193359,-0.80064 v -1.20854 H 5.217406 v 1.19338 q 0,0.60772 0.5126302,0.60772 0.4947157,0 0.4947157,-0.58704 v -1.21406 h 0.2315105 z"
         style="stroke-width:0.26458332"
         id="path1141"
         inkscape:connector-curvature="0" />
      <path
         d="M 8.1195545,233.68209 H 7.5490467 v 1.76664 H 7.3175363 v -1.76664 H 6.7484065 v -0.20947 h 1.371148 z"
         style="stroke-width:0.26458332"
         id="path1143"
         inkscape:connector-curvature="0" />
      <path
         d="m 8.6597453,234.70183 v 0.7469 H 8.4282349 v -1.97611 h 0.542947 q 0.3169488,0 0.4905816,0.15434 0.1750109,0.15434 0.1750109,0.43546 0,0.28112 -0.1943034,0.46027 -0.1929253,0.17914 -0.5222765,0.17914 z m 0,-1.01974 v 0.81028 H 8.90228 q 0.2397787,0 0.3651801,-0.10886 0.1267796,-0.11025 0.1267796,-0.31006 0,-0.39136 -0.4630209,-0.39136 z"
         style="stroke-width:0.26458332"
         id="path1145"
         inkscape:connector-curvature="0" />
      <path
         d="m 11.455785,234.64947 q 0,0.83233 -0.751031,0.83233 -0.7193359,0 -0.7193359,-0.80064 v -1.20854 h 0.2315099 v 1.19338 q 0,0.60772 0.512631,0.60772 0.494715,0 0.494715,-0.58704 v -1.21406 h 0.231511 z"
         style="stroke-width:0.26458332"
         id="path1147"
         inkscape:connector-curvature="0" />
      <path
         d="m 13.119077,233.68209 h -0.570508 v 1.76664 h -0.23151 v -1.76664 h -0.56913 v -0.20947 h 1.371148 z"
         style="stroke-width:0.26458332"
         id="path1149"
         inkscape:connector-curvature="0" />
    </g>
    <g
       aria-label="0"
       style="font-style:normal;font-variant:normal;font-weight:normal;font-stretch:normal;font-size:2.11666656px;line-height:1.25;font-family:'Yu Gothic UI';-inkscape-font-specification:'Yu Gothic UI';letter-spacing:0px;word-spacing:0px;display:inline;fill:#000000;fill-opacity:1;stroke:none;stroke-width:0.26458332"
       id="text1022"
       transform="translate(1.0583333,0.84335953)">
      <path
         d="m 19.831345,229.62472 q 0,0.18604 -0.03411,0.3297 -0.03307,0.14366 -0.09715,0.24288 -0.06304,0.0982 -0.156062,0.14986 -0.09198,0.0506 -0.209807,0.0506 -0.111621,0 -0.199471,-0.0486 -0.08682,-0.0496 -0.146761,-0.14366 -0.05994,-0.0941 -0.09095,-0.23048 -0.03101,-0.13746 -0.03101,-0.31419 0,-0.19431 0.03204,-0.34314 0.03307,-0.14882 0.09612,-0.24908 0.06305,-0.10128 0.156063,-0.15192 0.09405,-0.0517 0.214974,-0.0517 0.466122,0 0.466122,0.75964 z m -0.173633,0.0165 q 0,-0.63252 -0.300757,-0.63252 -0.317293,0 -0.317293,0.64389 0,0.60048 0.311092,0.60048 0.306958,0 0.306958,-0.61185 z"
         style="font-size:2.11666656px;stroke-width:0.26458332"
         id="path1126"
         inkscape:connector-curvature="0" />
    </g>
    <g
       aria-label="10"
       style="font-style:normal;font-variant:normal;font-weight:normal;font-stretch:normal;font-size:2.11666656px;line-height:1.25;font-family:'Yu Gothic UI';-inkscape-font-specification:'Yu Gothic UI';letter-spacing:0px;word-spacing:0px;display:inline;fill:#000000;fill-opacity:1;stroke:none;stroke-width:0.26458332"
       id="text1026"
       transform="translate(-1.0583333,0.85162776)">
      <path
         d="m 28.289746,230.37605 h -0.169499 v -1.28054 q -0.01964,0.0196 -0.05788,0.0455 -0.03721,0.0248 -0.08475,0.0496 -0.04651,0.0248 -0.09922,0.0465 -0.05168,0.0217 -0.101286,0.0341 v -0.17156 q 0.05581,-0.0155 0.117822,-0.0413 0.06305,-0.0269 0.12299,-0.0589 0.06098,-0.0331 0.114722,-0.0682 0.05374,-0.0362 0.09302,-0.0703 h 0.06408 z"
         style="font-size:2.11666656px;stroke-width:0.26458332"
         id="path1121"
         inkscape:connector-curvature="0" />
      <path
         d="m 29.736686,229.62881 q 0,0.18604 -0.03411,0.3297 -0.03307,0.14366 -0.09715,0.24288 -0.06304,0.0982 -0.156063,0.14986 -0.09198,0.0506 -0.209806,0.0506 -0.111621,0 -0.199471,-0.0486 -0.08682,-0.0496 -0.146761,-0.14367 -0.05994,-0.0941 -0.09095,-0.23047 -0.03101,-0.13746 -0.03101,-0.31419 0,-0.19431 0.03204,-0.34314 0.03307,-0.14882 0.09612,-0.24908 0.06304,-0.10128 0.156063,-0.15193 0.09405,-0.0517 0.214974,-0.0517 0.466121,0 0.466121,0.75964 z m -0.173633,0.0165 q 0,-0.63252 -0.300756,-0.63252 -0.317294,0 -0.317294,0.64389 0,0.60048 0.311092,0.60048 0.306958,0 0.306958,-0.61185 z"
         style="font-size:2.11666656px;stroke-width:0.26458332"
         id="path1123"
         inkscape:connector-curvature="0" />
    </g>
    <rect
       y="275.43924"
       x="1.370092"
       height="13.46628"
       width="13.148918"
       id="rect1152"
       style="fill:#f3861f;stroke-width:0.1339225" />
    <path
       inkscape:connector-curvature="0"
       id="path1154"
       d="M 11.112499,268.6982 H 19.84375"
       style="fill:none;stroke:#000000;stroke-width:0.30000001;stroke-linecap:butt;stroke-linejoin:miter;stroke-miterlimit:4;stroke-dasharray:none;stroke-opacity:1" />
    <g
       transform="translate(-10.25055,38.346679)"
       id="g1158"
       style="font-style:normal;font-weight:normal;font-size:2.82222223px;line-height:1.25;font-family:sans-serif;letter-spacing:0px;word-spacing:0px;fill:#000000;fill-opacity:1;stroke:none;stroke-width:0.26458332"
       aria-label="+">
      <path
         inkscape:connector-curvature="0"
         id="path1156"
         style="stroke-width:0.26458332"
         d="m 38.33978,211.88683 v 0.76757 h 0.767567 v 0.23427 H 38.33978 v 0.76756 h -0.23151 v -0.76756 h -0.767568 v -0.23427 h 0.767568 v -0.76757 z" />
    </g>
    <g
       transform="translate(-26.21532,38.341956)"
       id="g1162"
       style="font-style:normal;font-weight:normal;font-size:2.82222223px;line-height:1.25;font-family:sans-serif;letter-spacing:0px;word-spacing:0px;fill:#000000;fill-opacity:1;stroke:none;stroke-width:0.26458332"
       aria-label="_">
      <path
         inkscape:connector-curvature="0"
         id="path1160"
         style="stroke-width:0.26458332"
         d="m 46.417842,212.68492 v 0.19706 h -1.466233 v -0.19706 z" />
    </g>
    <g
       transform="translate(-1.3866999,242.0603)"
       id="g1174"
       style="font-style:normal;font-variant:normal;font-weight:normal;font-stretch:normal;font-size:2.82222223px;line-height:1.25;font-family:'Yu Gothic UI';-inkscape-font-specification:'Yu Gothic UI';letter-spacing:0px;word-spacing:0px;display:inline;fill:#000000;fill-opacity:1;stroke:none;stroke-width:0.26458332"
       aria-label="INPUT">
      <path
         inkscape:connector-curvature="0"
         id="path1164"
         style="stroke-width:0.26458332"
         d="M 5.7822481,7.9375 H 5.5507377 V 5.9613932 h 0.2315104 z" />
      <path
         inkscape:connector-curvature="0"
         id="path1166"
         style="stroke-width:0.26458332"
         d="M 7.8934027,7.9375 H 7.6095268 L 6.5925346,6.3624023 q -0.038585,-0.059256 -0.06339,-0.1240234 h -0.00827 q 0.011024,0.06339 0.011024,0.2714735 V 7.9375 H 6.3003905 V 5.9613932 h 0.3004123 l 0.9894314,1.550293 q 0.062012,0.096463 0.079926,0.1322917 h 0.00551 q -0.01378,-0.085438 -0.01378,-0.2907661 V 5.9613932 h 0.2315105 z" />
      <path
         inkscape:connector-curvature="0"
         id="path1168"
         style="stroke-width:0.26458332"
         d="M 8.6430555,7.1906033 V 7.9375 H 8.4115451 V 5.9613932 h 0.5429471 q 0.3169487,0 0.4905816,0.1543403 0.1750108,0.1543403 0.1750108,0.4354601 0,0.2811198 -0.1943034,0.4602647 -0.1929253,0.179145 -0.5222765,0.179145 z m 0,-1.0197483 v 0.8102865 h 0.2425347 q 0.2397787,0 0.3651802,-0.108865 0.1267795,-0.1102431 0.1267795,-0.3100586 0,-0.3913629 -0.4630208,-0.3913629 z" />
      <path
         inkscape:connector-curvature="0"
         id="path1170"
         style="stroke-width:0.26458332"
         d="m 11.439095,7.1382378 q 0,0.8323351 -0.751031,0.8323351 -0.7193357,0 -0.7193357,-0.8006402 V 5.9613932 h 0.2315107 v 1.1933811 q 0,0.6077148 0.51263,0.6077148 0.494716,0 0.494716,-0.5870442 V 5.9613932 h 0.23151 z" />
      <path
         inkscape:connector-curvature="0"
         id="path1172"
         style="stroke-width:0.26458332"
         d="M 13.102387,6.170855 H 12.531879 V 7.9375 h -0.23151 V 6.170855 h -0.56913 V 5.9613932 h 1.371148 z" />
    </g>
    <g
       id="g1180"
       style="font-style:normal;font-variant:normal;font-weight:normal;font-stretch:normal;font-size:2.82222223px;line-height:1.25;font-family:'Yu Gothic UI';-inkscape-font-specification:'Yu Gothic UI';letter-spacing:0px;word-spacing:0px;display:inline;fill:#000000;fill-opacity:1;stroke:none;stroke-width:0.26458332"
       transform="translate(6.4001134,245.51507)"
       aria-label="CV">
      <path
         inkscape:connector-curvature="0"
         id="path1176"
         style="stroke-width:0.26458332"
         d="m 8.2186195,21.083984 q -0.2191081,0.115755 -0.5457031,0.115755 -0.4216797,0 -0.6752388,-0.271474 -0.253559,-0.271473 -0.253559,-0.712445 0,-0.474045 0.2852539,-0.76619 0.2852539,-0.292144 0.7234701,-0.292144 0.2811198,0 0.4657769,0.08131 v 0.246668 q -0.2122179,-0.118511 -0.468533,-0.118511 -0.3403754,0 -0.5525933,0.227376 -0.2108399,0.227377 -0.2108399,0.607715 0,0.361046 0.1970595,0.57602 0.1984375,0.213596 0.5195204,0.213596 0.2976562,0 0.5153863,-0.132291 z" />
      <path
         inkscape:connector-curvature="0"
         id="path1178"
         style="stroke-width:0.26458332"
         d="M 10.089995,19.190559 9.3582571,21.166666 H 9.10332 L 8.3867402,19.190559 h 0.2576931 l 0.5470812,1.56683 q 0.026183,0.07579 0.039963,0.175011 h 0.00551 q 0.011024,-0.08268 0.045475,-0.177767 L 9.840568,19.190559 Z" />
    </g>
    <g
       id="g1194"
       style="font-style:normal;font-variant:normal;font-weight:normal;font-stretch:normal;font-size:2.82222223px;line-height:1.25;font-family:'Yu Gothic UI';-inkscape-font-specification:'Yu Gothic UI';letter-spacing:0px;word-spacing:0px;display:inline;fill:#000000;fill-opacity:1;stroke:none;stroke-width:0.26458332"
       aria-label="OUTPUT"
       transform="translate(0,43.664532)">
      <path
         id="path1182"
         style="stroke-width:0.26458332"
         d="m 3.6795153,235.4818 q -0.4203016,0 -0.6738606,-0.27698 -0.252181,-0.27699 -0.252181,-0.72072 0,-0.4768 0.2576931,-0.76067 0.2576932,-0.28388 0.7014215,-0.28388 0.4092773,0 0.6587022,0.27561 0.250803,0.27561 0.250803,0.72071 0,0.48369 -0.2563151,0.76481 -0.2563151,0.28112 -0.6862631,0.28112 z m 0.016537,-1.83279 q -0.3114366,0 -0.50574,0.22462 -0.1943034,0.22462 -0.1943034,0.5898 0,0.36518 0.1887912,0.58843 0.1901693,0.22186 0.4947157,0.22186 0.3252171,0 0.5126303,-0.21222 0.1874131,-0.21222 0.1874131,-0.59393 0,-0.39137 -0.181901,-0.60496 -0.181901,-0.2136 -0.5016059,-0.2136 z"
         inkscape:connector-curvature="0" />
      <path
         id="path1184"
         style="stroke-width:0.26458332"
         d="m 6.4562624,234.64947 q 0,0.83233 -0.7510309,0.83233 -0.7193359,0 -0.7193359,-0.80064 v -1.20854 H 5.217406 v 1.19338 q 0,0.60772 0.5126302,0.60772 0.4947157,0 0.4947157,-0.58704 v -1.21406 h 0.2315105 z"
         inkscape:connector-curvature="0" />
      <path
         id="path1186"
         style="stroke-width:0.26458332"
         d="M 8.1195545,233.68209 H 7.5490467 v 1.76664 H 7.3175363 v -1.76664 H 6.7484065 v -0.20947 h 1.371148 z"
         inkscape:connector-curvature="0" />
      <path
         id="path1188"
         style="stroke-width:0.26458332"
         d="m 8.6597453,234.70183 v 0.7469 H 8.4282349 v -1.97611 h 0.542947 q 0.3169488,0 0.4905816,0.15434 0.1750109,0.15434 0.1750109,0.43546 0,0.28112 -0.1943034,0.46027 -0.1929253,0.17914 -0.5222765,0.17914 z m 0,-1.01974 v 0.81028 H 8.90228 q 0.2397787,0 0.3651801,-0.10886 0.1267796,-0.11025 0.1267796,-0.31006 0,-0.39136 -0.4630209,-0.39136 z"
         inkscape:connector-curvature="0" />
      <path
         id="path1190"
         style="stroke-width:0.26458332"
         d="m 11.455785,234.64947 q 0,0.83233 -0.751031,0.83233 -0.7193359,0 -0.7193359,-0.80064 v -1.20854 h 0.2315099 v 1.19338 q 0,0.60772 0.512631,0.60772 0.494715,0 0.494715,-0.58704 v -1.21406 h 0.231511 z"
         inkscape:connector-curvature="0" />
      <path
         id="path1192"
         style="stroke-width:0.26458332"
         d="m 13.119077,233.68209 h -0.570508 v 1.76664 h -0.23151 v -1.76664 h -0.56913 v -0.20947 h 1.371148 z"
         inkscape:connector-curvature="0" />
    </g>
    <g
       transform="translate(1.0583333,44.507892)"
       id="g1212"
       style="font-style:normal;font-variant:normal;font-weight:normal;font-stretch:normal;font-size:2.11666656px;line-height:1.25;font-family:'Yu Gothic UI';-inkscape-font-specification:'Yu Gothic UI';letter-spacing:0px;word-spacing:0px;display:inline;fill:#000000;fill-opacity:1;stroke:none;stroke-width:0.26458332"
       aria-label="0">
      <path
         inkscape:connector-curvature="0"
         id="path1210"
         style="font-size:2.11666656px;stroke-width:0.26458332"
         d="m 19.831345,229.62472 q 0,0.18604 -0.03411,0.3297 -0.03307,0.14366 -0.09715,0.24288 -0.06304,0.0982 -0.156062,0.14986 -0.09198,0.0506 -0.209807,0.0506 -0.111621,0 -0.199471,-0.0486 -0.08682,-0.0496 -0.146761,-0.14366 -0.05994,-0.0941 -0.09095,-0.23048 -0.03101,-0.13746 -0.03101,-0.31419 0,-0.19431 0.03204,-0.34314 0.03307,-0.14882 0.09612,-0.24908 0.06305,-0.10128 0.156063,-0.15192 0.09405,-0.0517 0.214974,-0.0517 0.466122,0 0.466122,0.75964 z m -0.173633,0.0165 q 0,-0.63252 -0.300757,-0.63252 -0.317293,0 -0.317293,0.64389 0,0.60048 0.311092,0.60048 0.306958,0 0.306958,-0.61185 z" />
    </g>
    <g
       transform="translate(-1.0583333,44.51616)"
       id="g1218"
       style="font-style:normal;font-variant:normal;font-weight:normal;font-stretch:normal;font-size:2.11666656px;line-height:1.25;font-family:'Yu Gothic UI';-inkscape-font-specification:'Yu Gothic UI';letter-spacing:0px;word-spacing:0px;display:inline;fill:#000000;fill-opacity:1;stroke:none;stroke-width:0.26458332"
       aria-label="10">
      <path
         inkscape:connector-curvature="0"
         id="path1214"
         style="font-size:2.11666656px;stroke-width:0.26458332"
         d="m 28.289746,230.37605 h -0.169499 v -1.28054 q -0.01964,0.0196 -0.05788,0.0455 -0.03721,0.0248 -0.08475,0.0496 -0.04651,0.0248 -0.09922,0.0465 -0.05168,0.0217 -0.101286,0.0341 v -0.17156 q 0.05581,-0.0155 0.117822,-0.0413 0.06305,-0.0269 0.12299,-0.0589 0.06098,-0.0331 0.114722,-0.0682 0.05374,-0.0362 0.09302,-0.0703 h 0.06408 z" />
      <path
         inkscape:connector-curvature="0"
         id="path1216"
         style="font-size:2.11666656px;stroke-width:0.26458332"
         d="m 29.736686,229.62881 q 0,0.18604 -0.03411,0.3297 -0.03307,0.14366 -0.09715,0.24288 -0.06304,0.0982 -0.156063,0.14986 -0.09198,0.0506 -0.209806,0.0506 -0.111621,0 -0.199471,-0.0486 -0.08682,-0.0496 -0.146761,-0.14367 -0.05994,-0.0941 -0.09095,-0.23047 -0.03101,-0.13746 -0.03101,-0.31419 0,-0.19431 0.03204,-0.34314 0.03307,-0.14882 0.09612,-0.24908 0.06304,-0.10128 0.156063,-0.15193 0.09405,-0.0517 0.214974,-0.0517 0.466121,0 0.466121,0.75964 z m -0.173633,0.0165 q 0,-0.63252 -0.300756,-0.63252 -0.317294,0 -0.317294,0.64389 0,0.60048 0.311092,0.60048 0.306958,0 0.306958,-0.61185 z" />
    </g>
    <path
       id="path932"
       d="m 18.196861,238.07938 5.609121,1.50282"
       style="display:inline;fill:none;stroke:#000000;stroke-width:0.19049859px;stroke-linecap:round;stroke-linejoin:miter;stroke-miterlimit:4;stroke-dasharray:none;stroke-opacity:1"
       inkscape:connector-curvature="0" />
    <path
       id="path934"
       d="m 20.92734,244.61983 2.899809,-5.03763"
       style="display:inline;fill:none;stroke:#000000;stroke-width:0.19049859px;stroke-linecap:round;stroke-linejoin:miter;stroke-miterlimit:4;stroke-dasharray:none;stroke-opacity:1"
       inkscape:connector-curvature="0" />
    <path
       id="path936"
       d="m 29.45744,238.03704 -5.609125,1.52399"
       style="display:inline;fill:none;stroke:#000000;stroke-width:0.19049859px;stroke-linecap:round;stroke-linejoin:miter;stroke-miterlimit:4;stroke-dasharray:none;stroke-opacity:1"
       inkscape:connector-curvature="0" />
    <path
       id="path938"
       d="M 26.79046,244.59866 23.848315,239.5822"
       style="display:inline;fill:none;stroke:#000000;stroke-width:0.19049859px;stroke-linecap:round;stroke-linejoin:miter;stroke-miterlimit:4;stroke-dasharray:none;stroke-opacity:1"
       inkscape:connector-curvature="0" />
    <g
       aria-label="2"
       style="font-style:normal;font-variant:normal;font-weight:normal;font-stretch:normal;font-size:2.11666656px;line-height:1.25;font-family:'Yu Gothic UI';-inkscape-font-specification:'Yu Gothic UI';letter-spacing:0px;word-spacing:0px;display:inline;fill:#000000;fill-opacity:1;stroke:none;stroke-width:0.26458332"
       id="text972"
       transform="translate(10.341502,-20.493844)">
      <path
         d="m 17.9958,265.47943 q 0,-0.0682 -0.0217,-0.11885 -0.02067,-0.0507 -0.05788,-0.0837 -0.03617,-0.0341 -0.08578,-0.0506 -0.04961,-0.0165 -0.107487,-0.0165 -0.04961,0 -0.09715,0.0134 -0.04754,0.0134 -0.09302,0.0372 -0.04444,0.0238 -0.08682,0.0568 -0.04134,0.0331 -0.07751,0.0734 v -0.1819 q 0.07131,-0.0692 0.159164,-0.10542 0.08888,-0.0372 0.216007,-0.0372 0.09095,0 0.168465,0.0269 0.07751,0.0258 0.134359,0.0765 0.05684,0.0506 0.08888,0.12506 0.03307,0.0744 0.03307,0.17053 0,0.0879 -0.02067,0.15917 -0.01964,0.0713 -0.06098,0.13436 -0.04031,0.063 -0.10232,0.12092 -0.06201,0.0579 -0.145727,0.11782 -0.104387,0.0744 -0.1726,0.12713 -0.06718,0.0527 -0.107486,0.0992 -0.03927,0.0455 -0.05581,0.092 -0.0155,0.0455 -0.0155,0.10542 h 0.737939 v 0.15193 h -0.914672 v -0.0734 q 0,-0.0951 0.02067,-0.16744 0.02067,-0.0723 0.06821,-0.13745 0.04754,-0.0651 0.124024,-0.13023 0.07751,-0.0651 0.189135,-0.14676 0.08061,-0.0579 0.134359,-0.11059 0.05478,-0.0527 0.08785,-0.10542 0.03307,-0.0527 0.04651,-0.10645 0.01447,-0.0548 0.01447,-0.11576 z"
         style="stroke-width:0.26458332"
         id="path977"
         inkscape:connector-curvature="0" />
    </g>
    <g
       transform="translate(19.337336,-27.90218)"
       id="g982"
       style="font-style:normal;font-variant:normal;font-weight:normal;font-stretch:normal;font-size:2.11666656px;line-height:1.25;font-family:'Yu Gothic UI';-inkscape-font-specification:'Yu Gothic UI';letter-spacing:0px;word-spacing:0px;display:inline;fill:#000000;fill-opacity:1;stroke:none;stroke-width:0.26458332"
       aria-label="1">
      <path
         inkscape:connector-curvature="0"
         id="path980"
         style="stroke-width:0.26458332"
         d="m 11.331608,266.57291 h -0.169499 v -1.28055 q -0.01964,0.0196 -0.05788,0.0455 -0.03721,0.0248 -0.08475,0.0496 -0.04651,0.0248 -0.09922,0.0465 -0.05168,0.0217 -0.101285,0.0341 v -0.17156 q 0.05581,-0.0155 0.117822,-0.0413 0.06305,-0.0269 0.12299,-0.0589 0.06098,-0.0331 0.114721,-0.0682 0.05374,-0.0362 0.09302,-0.0703 h 0.06408 z" />
    </g>
    <g
       aria-label="POLARITY"
       style="font-style:normal;font-variant:normal;font-weight:normal;font-stretch:normal;font-size:2.82222223px;line-height:1.25;font-family:'Yu Gothic UI';-inkscape-font-specification:'Yu Gothic UI';letter-spacing:0px;word-spacing:0px;display:inline;fill:#000000;fill-opacity:1;stroke:none;stroke-width:0.26458332"
       id="text1848"
       transform="translate(3.49195,-20.050452)">
      <path
         d="m 14.513498,253.39058 v 0.7469 h -0.23151 v -1.97611 h 0.542947 q 0.316949,0 0.490582,0.15435 0.17501,0.15434 0.17501,0.43546 0,0.28112 -0.194303,0.46026 -0.192925,0.17914 -0.522276,0.17914 z m 0,-1.01974 v 0.81028 h 0.242535 q 0.239779,0 0.36518,-0.10886 0.12678,-0.11024 0.12678,-0.31006 0,-0.39136 -0.463021,-0.39136 z"
         style="stroke-width:0.26458332"
         id="path1850"
         inkscape:connector-curvature="0" />
      <path
         d="m 16.660482,254.17055 q -0.420302,0 -0.673861,-0.27698 -0.252181,-0.27699 -0.252181,-0.72072 0,-0.4768 0.257693,-0.76067 0.257694,-0.28388 0.701422,-0.28388 0.409277,0 0.658702,0.27561 0.250803,0.27561 0.250803,0.72071 0,0.4837 -0.256315,0.76481 -0.256315,0.28112 -0.686263,0.28112 z m 0.01654,-1.83279 q -0.311436,0 -0.50574,0.22462 -0.194303,0.22462 -0.194303,0.5898 0,0.36518 0.188791,0.58843 0.190169,0.22186 0.494716,0.22186 0.325217,0 0.51263,-0.21222 0.187413,-0.21221 0.187413,-0.59393 0,-0.39136 -0.181901,-0.60496 -0.181901,-0.2136 -0.501606,-0.2136 z"
         style="stroke-width:0.26458332"
         id="path1852"
         inkscape:connector-curvature="0" />
      <path
         d="m 19.016927,254.13748 h -1.02526 v -1.97611 h 0.23151 v 1.76665 h 0.79375 z"
         style="stroke-width:0.26458332"
         id="path1854"
         inkscape:connector-curvature="0" />
      <path
         d="m 20.849718,254.13748 h -0.256315 l -0.209462,-0.55397 h -0.837847 l -0.197059,0.55397 h -0.257693 l 0.757921,-1.97611 h 0.239778 z m -0.541569,-0.76205 -0.310058,-0.84198 q -0.01516,-0.0413 -0.03032,-0.1323 h -0.0055 q -0.01378,0.0841 -0.03169,0.1323 l -0.307303,0.84198 z"
         style="stroke-width:0.26458332"
         id="path1856"
         inkscape:connector-curvature="0" />
      <path
         d="m 22.555729,254.13748 h -0.275607 l -0.330729,-0.55397 q -0.04548,-0.0772 -0.08819,-0.13091 -0.04272,-0.0551 -0.08819,-0.0896 -0.0441,-0.0344 -0.09646,-0.0496 -0.05099,-0.0165 -0.115755,-0.0165 h -0.190169 v 0.8406 h -0.231511 v -1.97611 h 0.5898 q 0.129536,0 0.238401,0.0331 0.110243,0.0317 0.190169,0.0978 0.08131,0.0661 0.12678,0.16536 0.04547,0.0978 0.04547,0.23014 0,0.10335 -0.03169,0.19016 -0.03032,0.0854 -0.08819,0.15297 -0.0565,0.0675 -0.137804,0.11575 -0.07993,0.0469 -0.180523,0.073 v 0.006 q 0.04961,0.022 0.08544,0.051 0.03721,0.0276 0.07028,0.0661 0.03307,0.0386 0.06477,0.0882 0.03307,0.0482 0.07304,0.113 z m -1.185112,-1.76664 v 0.71658 h 0.314192 q 0.08682,0 0.159853,-0.0262 0.07441,-0.0262 0.128157,-0.0744 0.05374,-0.0496 0.08406,-0.11989 0.03032,-0.0717 0.03032,-0.15985 0,-0.15848 -0.103352,-0.24667 -0.101975,-0.0896 -0.296279,-0.0896 z"
         style="stroke-width:0.26458332"
         id="path1858"
         inkscape:connector-curvature="0" />
      <path
         d="m 23.057335,254.13748 h -0.23151 v -1.97611 h 0.23151 z"
         style="stroke-width:0.26458332"
         id="path1860"
         inkscape:connector-curvature="0" />
      <path
         d="m 24.744054,252.37084 h -0.570508 v 1.76664 h -0.23151 v -1.76664 h -0.56913 v -0.20947 h 1.371148 z"
         style="stroke-width:0.26458332"
         id="path1862"
         inkscape:connector-curvature="0" />
      <path
         d="m 26.337066,252.16137 -0.651812,1.24575 v 0.73036 h -0.231511 v -0.72485 l -0.635275,-1.25126 h 0.263205 l 0.44235,0.89297 q 0.0083,0.0165 0.04823,0.12127 h 0.0041 q 0.01378,-0.0469 0.05237,-0.12127 l 0.463021,-0.89297 z"
         style="stroke-width:0.26458332"
         id="path1864"
         inkscape:connector-curvature="0" />
    </g>
    <path
       inkscape:connector-curvature="0"
       style="display:inline;fill:none;stroke:#000000;stroke-width:0.19049859px;stroke-linecap:round;stroke-linejoin:miter;stroke-miterlimit:4;stroke-dasharray:none;stroke-opacity:1"
       d="m 18.196861,281.72782 5.609121,1.50282"
       id="path1024" />
    <path
       inkscape:connector-curvature="0"
       style="display:inline;fill:none;stroke:#000000;stroke-width:0.19049859px;stroke-linecap:round;stroke-linejoin:miter;stroke-miterlimit:4;stroke-dasharray:none;stroke-opacity:1"
       d="m 20.92734,288.26827 2.899809,-5.03763"
       id="path1026" />
    <path
       inkscape:connector-curvature="0"
       style="display:inline;fill:none;stroke:#000000;stroke-width:0.19049859px;stroke-linecap:round;stroke-linejoin:miter;stroke-miterlimit:4;stroke-dasharray:none;stroke-opacity:1"
       d="m 29.45744,281.68548 -5.609125,1.52399"
       id="path1028" />
    <path
       inkscape:connector-curvature="0"
       style="display:inline;fill:none;stroke:#000000;stroke-width:0.19049859px;stroke-linecap:round;stroke-linejoin:miter;stroke-miterlimit:4;stroke-dasharray:none;stroke-opacity:1"
       d="m 26.79046,288.2471 -2.942145,-5.01646"
       id="path1030" />
    <g
       transform="translate(10.341502,23.154388)"
       id="g1034"
       style="font-style:normal;font-variant:normal;font-weight:normal;font-stretch:normal;font-size:2.11666656px;line-height:1.25;font-family:'Yu Gothic UI';-inkscape-font-specification:'Yu Gothic UI';letter-spacing:0px;word-spacing:0px;display:inline;fill:#000000;fill-opacity:1;stroke:none;stroke-width:0.26458332"
       aria-label="2">
      <path
         inkscape:connector-curvature="0"
         id="path1032"
         style="stroke-width:0.26458332"
         d="m 17.9958,265.47943 q 0,-0.0682 -0.0217,-0.11885 -0.02067,-0.0507 -0.05788,-0.0837 -0.03617,-0.0341 -0.08578,-0.0506 -0.04961,-0.0165 -0.107487,-0.0165 -0.04961,0 -0.09715,0.0134 -0.04754,0.0134 -0.09302,0.0372 -0.04444,0.0238 -0.08682,0.0568 -0.04134,0.0331 -0.07751,0.0734 v -0.1819 q 0.07131,-0.0692 0.159164,-0.10542 0.08888,-0.0372 0.216007,-0.0372 0.09095,0 0.168465,0.0269 0.07751,0.0258 0.134359,0.0765 0.05684,0.0506 0.08888,0.12506 0.03307,0.0744 0.03307,0.17053 0,0.0879 -0.02067,0.15917 -0.01964,0.0713 -0.06098,0.13436 -0.04031,0.063 -0.10232,0.12092 -0.06201,0.0579 -0.145727,0.11782 -0.104387,0.0744 -0.1726,0.12713 -0.06718,0.0527 -0.107486,0.0992 -0.03927,0.0455 -0.05581,0.092 -0.0155,0.0455 -0.0155,0.10542 h 0.737939 v 0.15193 h -0.914672 v -0.0734 q 0,-0.0951 0.02067,-0.16744 0.02067,-0.0723 0.06821,-0.13745 0.04754,-0.0651 0.124024,-0.13023 0.07751,-0.0651 0.189135,-0.14676 0.08061,-0.0579 0.134359,-0.11059 0.05478,-0.0527 0.08785,-0.10542 0.03307,-0.0527 0.04651,-0.10645 0.01447,-0.0548 0.01447,-0.11576 z" />
    </g>
    <g
       aria-label="1"
       style="font-style:normal;font-variant:normal;font-weight:normal;font-stretch:normal;font-size:2.11666656px;line-height:1.25;font-family:'Yu Gothic UI';-inkscape-font-specification:'Yu Gothic UI';letter-spacing:0px;word-spacing:0px;display:inline;fill:#000000;fill-opacity:1;stroke:none;stroke-width:0.26458332"
       id="g1039"
       transform="translate(19.337336,15.746052)">
      <path
         d="m 11.331608,266.57291 h -0.169499 v -1.28055 q -0.01964,0.0196 -0.05788,0.0455 -0.03721,0.0248 -0.08475,0.0496 -0.04651,0.0248 -0.09922,0.0465 -0.05168,0.0217 -0.101285,0.0341 v -0.17156 q 0.05581,-0.0155 0.117822,-0.0413 0.06305,-0.0269 0.12299,-0.0589 0.06098,-0.0331 0.114721,-0.0682 0.05374,-0.0362 0.09302,-0.0703 h 0.06408 z"
         style="stroke-width:0.26458332"
         id="path1037"
         inkscape:connector-curvature="0" />
    </g>
    <g
       transform="translate(3.49195,23.59778)"
       id="g1070"
       style="font-style:normal;font-variant:normal;font-weight:normal;font-stretch:normal;font-size:2.82222223px;line-height:1.25;font-family:'Yu Gothic UI';-inkscape-font-specification:'Yu Gothic UI';letter-spacing:0px;word-spacing:0px;display:inline;fill:#000000;fill-opacity:1;stroke:none;stroke-width:0.26458332"
       aria-label="POLARITY">
      <path
         inkscape:connector-curvature="0"
         id="path1053"
         style="stroke-width:0.26458332"
         d="m 14.513498,253.39058 v 0.7469 h -0.23151 v -1.97611 h 0.542947 q 0.316949,0 0.490582,0.15435 0.17501,0.15434 0.17501,0.43546 0,0.28112 -0.194303,0.46026 -0.192925,0.17914 -0.522276,0.17914 z m 0,-1.01974 v 0.81028 h 0.242535 q 0.239779,0 0.36518,-0.10886 0.12678,-0.11024 0.12678,-0.31006 0,-0.39136 -0.463021,-0.39136 z" />
      <path
         inkscape:connector-curvature="0"
         id="path1055"
         style="stroke-width:0.26458332"
         d="m 16.660482,254.17055 q -0.420302,0 -0.673861,-0.27698 -0.252181,-0.27699 -0.252181,-0.72072 0,-0.4768 0.257693,-0.76067 0.257694,-0.28388 0.701422,-0.28388 0.409277,0 0.658702,0.27561 0.250803,0.27561 0.250803,0.72071 0,0.4837 -0.256315,0.76481 -0.256315,0.28112 -0.686263,0.28112 z m 0.01654,-1.83279 q -0.311436,0 -0.50574,0.22462 -0.194303,0.22462 -0.194303,0.5898 0,0.36518 0.188791,0.58843 0.190169,0.22186 0.494716,0.22186 0.325217,0 0.51263,-0.21222 0.187413,-0.21221 0.187413,-0.59393 0,-0.39136 -0.181901,-0.60496 -0.181901,-0.2136 -0.501606,-0.2136 z" />
      <path
         inkscape:connector-curvature="0"
         id="path1057"
         style="stroke-width:0.26458332"
         d="m 19.016927,254.13748 h -1.02526 v -1.97611 h 0.23151 v 1.76665 h 0.79375 z" />
      <path
         inkscape:connector-curvature="0"
         id="path1060"
         style="stroke-width:0.26458332"
         d="m 20.849718,254.13748 h -0.256315 l -0.209462,-0.55397 h -0.837847 l -0.197059,0.55397 h -0.257693 l 0.757921,-1.97611 h 0.239778 z m -0.541569,-0.76205 -0.310058,-0.84198 q -0.01516,-0.0413 -0.03032,-0.1323 h -0.0055 q -0.01378,0.0841 -0.03169,0.1323 l -0.307303,0.84198 z" />
      <path
         inkscape:connector-curvature="0"
         id="path1062"
         style="stroke-width:0.26458332"
         d="m 22.555729,254.13748 h -0.275607 l -0.330729,-0.55397 q -0.04548,-0.0772 -0.08819,-0.13091 -0.04272,-0.0551 -0.08819,-0.0896 -0.0441,-0.0344 -0.09646,-0.0496 -0.05099,-0.0165 -0.115755,-0.0165 h -0.190169 v 0.8406 h -0.231511 v -1.97611 h 0.5898 q 0.129536,0 0.238401,0.0331 0.110243,0.0317 0.190169,0.0978 0.08131,0.0661 0.12678,0.16536 0.04547,0.0978 0.04547,0.23014 0,0.10335 -0.03169,0.19016 -0.03032,0.0854 -0.08819,0.15297 -0.0565,0.0675 -0.137804,0.11575 -0.07993,0.0469 -0.180523,0.073 v 0.006 q 0.04961,0.022 0.08544,0.051 0.03721,0.0276 0.07028,0.0661 0.03307,0.0386 0.06477,0.0882 0.03307,0.0482 0.07304,0.113 z m -1.185112,-1.76664 v 0.71658 h 0.314192 q 0.08682,0 0.159853,-0.0262 0.07441,-0.0262 0.128157,-0.0744 0.05374,-0.0496 0.08406,-0.11989 0.03032,-0.0717 0.03032,-0.15985 0,-0.15848 -0.103352,-0.24667 -0.101975,-0.0896 -0.296279,-0.0896 z" />
      <path
         inkscape:connector-curvature="0"
         id="path1064"
         style="stroke-width:0.26458332"
         d="m 23.057335,254.13748 h -0.23151 v -1.97611 h 0.23151 z" />
      <path
         inkscape:connector-curvature="0"
         id="path1066"
         style="stroke-width:0.26458332"
         d="m 24.744054,252.37084 h -0.570508 v 1.76664 h -0.23151 v -1.76664 h -0.56913 v -0.20947 h 1.371148 z" />
      <path
         inkscape:connector-curvature="0"
         id="path1068"
         style="stroke-width:0.26458332"
         d="m 26.337066,252.16137 -0.651812,1.24575 v 0.73036 h -0.231511 v -0.72485 l -0.635275,-1.25126 h 0.263205 l 0.44235,0.89297 q 0.0083,0.0165 0.04823,0.12127 h 0.0041 q 0.01378,-0.0469 0.05237,-0.12127 l 0.463021,-0.89297 z" />
    </g>
    <g
       aria-label="+"
       style="font-style:normal;font-weight:normal;font-size:2.82222223px;line-height:1.25;font-family:sans-serif;letter-spacing:0px;word-spacing:0px;fill:#000000;fill-opacity:1;stroke:none;stroke-width:0.26458332"
       id="g1074"
       transform="translate(-10.25055,22.471669)">
      <path
         d="m 38.33978,211.88683 v 0.76757 h 0.767567 v 0.23427 H 38.33978 v 0.76756 h -0.23151 v -0.76756 h -0.767568 v -0.23427 h 0.767568 v -0.76757 z"
         style="stroke-width:0.26458332"
         id="path1072"
         inkscape:connector-curvature="0" />
    </g>
    <g
       aria-label="_"
       style="font-style:normal;font-weight:normal;font-size:2.82222223px;line-height:1.25;font-family:sans-serif;letter-spacing:0px;word-spacing:0px;fill:#000000;fill-opacity:1;stroke:none;stroke-width:0.26458332"
       id="g1078"
       transform="translate(-26.21532,22.466946)">
      <path
         d="m 46.417842,212.68492 v 0.19706 h -1.466233 v -0.19706 z"
         style="stroke-width:0.26458332"
         id="path1076"
         inkscape:connector-curvature="0" />
    </g>
    <g
       aria-label="1"
       style="font-style:normal;font-variant:normal;font-weight:normal;font-stretch:normal;font-size:2.11666656px;line-height:1.25;font-family:'Yu Gothic UI';-inkscape-font-specification:'Yu Gothic UI';letter-spacing:0px;word-spacing:0px;display:inline;fill:#000000;fill-opacity:1;stroke:none;stroke-width:0.26458332"
       id="g1082"
       transform="translate(6.1081631,-27.90218)">
      <path
         d="m 11.331608,266.57291 h -0.169499 v -1.28055 q -0.01964,0.0196 -0.05788,0.0455 -0.03721,0.0248 -0.08475,0.0496 -0.04651,0.0248 -0.09922,0.0465 -0.05168,0.0217 -0.101285,0.0341 v -0.17156 q 0.05581,-0.0155 0.117822,-0.0413 0.06305,-0.0269 0.12299,-0.0589 0.06098,-0.0331 0.114721,-0.0682 0.05374,-0.0362 0.09302,-0.0703 h 0.06408 z"
         style="stroke-width:0.26458332"
         id="path1080"
         inkscape:connector-curvature="0" />
    </g>
    <g
       transform="translate(1.8748301,-20.493844)"
       id="g1086"
       style="font-style:normal;font-variant:normal;font-weight:normal;font-stretch:normal;font-size:2.11666656px;line-height:1.25;font-family:'Yu Gothic UI';-inkscape-font-specification:'Yu Gothic UI';letter-spacing:0px;word-spacing:0px;display:inline;fill:#000000;fill-opacity:1;stroke:none;stroke-width:0.26458332"
       aria-label="2">
      <path
         inkscape:connector-curvature="0"
         id="path1084"
         style="stroke-width:0.26458332"
         d="m 17.9958,265.47943 q 0,-0.0682 -0.0217,-0.11885 -0.02067,-0.0507 -0.05788,-0.0837 -0.03617,-0.0341 -0.08578,-0.0506 -0.04961,-0.0165 -0.107487,-0.0165 -0.04961,0 -0.09715,0.0134 -0.04754,0.0134 -0.09302,0.0372 -0.04444,0.0238 -0.08682,0.0568 -0.04134,0.0331 -0.07751,0.0734 v -0.1819 q 0.07131,-0.0692 0.159164,-0.10542 0.08888,-0.0372 0.216007,-0.0372 0.09095,0 0.168465,0.0269 0.07751,0.0258 0.134359,0.0765 0.05684,0.0506 0.08888,0.12506 0.03307,0.0744 0.03307,0.17053 0,0.0879 -0.02067,0.15917 -0.01964,0.0713 -0.06098,0.13436 -0.04031,0.063 -0.10232,0.12092 -0.06201,0.0579 -0.145727,0.11782 -0.104387,0.0744 -0.1726,0.12713 -0.06718,0.0527 -0.107486,0.0992 -0.03927,0.0455 -0.05581,0.092 -0.0155,0.0455 -0.0155,0.10542 h 0.737939 v 0.15193 h -0.914672 v -0.0734 q 0,-0.0951 0.02067,-0.16744 0.02067,-0.0723 0.06821,-0.13745 0.04754,-0.0651 0.124024,-0.13023 0.07751,-0.0651 0.189135,-0.14676 0.08061,-0.0579 0.134359,-0.11059 0.05478,-0.0527 0.08785,-0.10542 0.03307,-0.0527 0.04651,-0.10645 0.01447,-0.0548 0.01447,-0.11576 z" />
    </g>
    <g
       transform="translate(-10.25055,66.125718)"
       id="g1120"
       style="font-style:normal;font-weight:normal;font-size:2.82222223px;line-height:1.25;font-family:sans-serif;letter-spacing:0px;word-spacing:0px;fill:#000000;fill-opacity:1;stroke:none;stroke-width:0.26458332"
       aria-label="+">
      <path
         inkscape:connector-curvature="0"
         id="path1118"
         style="stroke-width:0.26458332"
         d="m 38.33978,211.88683 v 0.76757 h 0.767567 v 0.23427 H 38.33978 v 0.76756 h -0.23151 v -0.76756 h -0.767568 v -0.23427 h 0.767568 v -0.76757 z" />
    </g>
    <g
       transform="translate(-26.21532,66.120995)"
       id="g1124"
       style="font-style:normal;font-weight:normal;font-size:2.82222223px;line-height:1.25;font-family:sans-serif;letter-spacing:0px;word-spacing:0px;fill:#000000;fill-opacity:1;stroke:none;stroke-width:0.26458332"
       aria-label="_">
      <path
         inkscape:connector-curvature="0"
         id="path1122"
         style="stroke-width:0.26458332"
         d="m 46.417842,212.68492 v 0.19706 h -1.466233 v -0.19706 z" />
    </g>
    <g
       transform="translate(6.1081631,15.746052)"
       id="g1129"
       style="font-style:normal;font-variant:normal;font-weight:normal;font-stretch:normal;font-size:2.11666656px;line-height:1.25;font-family:'Yu Gothic UI';-inkscape-font-specification:'Yu Gothic UI';letter-spacing:0px;word-spacing:0px;display:inline;fill:#000000;fill-opacity:1;stroke:none;stroke-width:0.26458332"
       aria-label="1">
      <path
         inkscape:connector-curvature="0"
         id="path1127"
         style="stroke-width:0.26458332"
         d="m 11.331608,266.57291 h -0.169499 v -1.28055 q -0.01964,0.0196 -0.05788,0.0455 -0.03721,0.0248 -0.08475,0.0496 -0.04651,0.0248 -0.09922,0.0465 -0.05168,0.0217 -0.101285,0.0341 v -0.17156 q 0.05581,-0.0155 0.117822,-0.0413 0.06305,-0.0269 0.12299,-0.0589 0.06098,-0.0331 0.114721,-0.0682 0.05374,-0.0362 0.09302,-0.0703 h 0.06408 z" />
    </g>
    <g
       aria-label="2"
       style="font-style:normal;font-variant:normal;font-weight:normal;font-stretch:normal;font-size:2.11666656px;line-height:1.25;font-family:'Yu Gothic UI';-inkscape-font-specification:'Yu Gothic UI';letter-spacing:0px;word-spacing:0px;display:inline;fill:#000000;fill-opacity:1;stroke:none;stroke-width:0.26458332"
       id="g1133"
       transform="translate(1.8748301,23.154388)">
      <path
         d="m 17.9958,265.47943 q 0,-0.0682 -0.0217,-0.11885 -0.02067,-0.0507 -0.05788,-0.0837 -0.03617,-0.0341 -0.08578,-0.0506 -0.04961,-0.0165 -0.107487,-0.0165 -0.04961,0 -0.09715,0.0134 -0.04754,0.0134 -0.09302,0.0372 -0.04444,0.0238 -0.08682,0.0568 -0.04134,0.0331 -0.07751,0.0734 v -0.1819 q 0.07131,-0.0692 0.159164,-0.10542 0.08888,-0.0372 0.216007,-0.0372 0.09095,0 0.168465,0.0269 0.07751,0.0258 0.134359,0.0765 0.05684,0.0506 0.08888,0.12506 0.03307,0.0744 0.03307,0.17053 0,0.0879 -0.02067,0.15917 -0.01964,0.0713 -0.06098,0.13436 -0.04031,0.063 -0.10232,0.12092 -0.06201,0.0579 -0.145727,0.11782 -0.104387,0.0744 -0.1726,0.12713 -0.06718,0.0527 -0.107486,0.0992 -0.03927,0.0455 -0.05581,0.092 -0.0155,0.0455 -0.0155,0.10542 h 0.737939 v 0.15193 h -0.914672 v -0.0734 q 0,-0.0951 0.02067,-0.16744 0.02067,-0.0723 0.06821,-0.13745 0.04754,-0.0651 0.124024,-0.13023 0.07751,-0.0651 0.189135,-0.14676 0.08061,-0.0579 0.134359,-0.11059 0.05478,-0.0527 0.08785,-0.10542 0.03307,-0.0527 0.04651,-0.10645 0.01447,-0.0548 0.01447,-0.11576 z"
         style="stroke-width:0.26458332"
         id="path1131"
         inkscape:connector-curvature="0" />
    </g>
  </g>
  <g
     inkscape:groupmode="layer"
     id="layer2"
     inkscape:label="Grid6"
     style="display:none"
     sodipodi:insensitive="true">
    <g
       transform="translate(0,3.3334577e-6)"
       style="display:inline"
       id="g1181">
      <path
         style="fill:none;stroke:#000000;stroke-width:0.05;stroke-linecap:butt;stroke-linejoin:miter;stroke-miterlimit:4;stroke-dasharray:none;stroke-opacity:1"
         d="m 7.9375,-1e-5 -3e-6,100.54167"
         id="path881-8-8"
         inkscape:connector-curvature="0"
         sodipodi:nodetypes="cc" />
      <path
         style="fill:none;stroke:#000000;stroke-width:0.05;stroke-linecap:butt;stroke-linejoin:miter;stroke-miterlimit:4;stroke-dasharray:none;stroke-opacity:1"
         d="m 23.8125,-1e-5 5e-6,100.54167"
         id="path883-2-9"
         inkscape:connector-curvature="0"
         sodipodi:nodetypes="cc" />
      <path
         sodipodi:nodetypes="cc"
         inkscape:connector-curvature="0"
         id="path890-2-5"
         d="m 3.968752,0 -4e-6,100.54167"
         style="fill:none;stroke:#000000;stroke-width:0.05;stroke-linecap:butt;stroke-linejoin:miter;stroke-miterlimit:4;stroke-dasharray:none;stroke-opacity:1" />
      <path
         style="fill:none;stroke:#000000;stroke-width:0.05;stroke-linecap:butt;stroke-linejoin:miter;stroke-miterlimit:4;stroke-dasharray:none;stroke-opacity:1"
         d="m 11.906253,0 -4e-6,100.54167"
         id="path895-1-5"
         inkscape:connector-curvature="0"
         sodipodi:nodetypes="cc" />
      <path
         style="fill:none;stroke:#000000;stroke-width:0.05;stroke-linecap:butt;stroke-linejoin:miter;stroke-miterlimit:4;stroke-dasharray:none;stroke-opacity:1"
         d="m 19.843758,0 -4e-6,100.54167"
         id="path899-0-8"
         inkscape:connector-curvature="0"
         sodipodi:nodetypes="cc" />
      <path
         sodipodi:nodetypes="cc"
         inkscape:connector-curvature="0"
         id="path903-0-0"
         d="m 27.781263,0 -2e-6,100.54167"
         style="fill:none;stroke:#000000;stroke-width:0.05;stroke-linecap:butt;stroke-linejoin:miter;stroke-miterlimit:4;stroke-dasharray:none;stroke-opacity:1" />
      <path
         inkscape:connector-curvature="0"
         id="path905-6-4"
         d="M 0,14.022551 H 31.75"
         style="fill:none;stroke:#000000;stroke-width:0.05;stroke-linecap:butt;stroke-linejoin:miter;stroke-miterlimit:4;stroke-dasharray:none;stroke-opacity:1" />
      <path
         style="fill:none;stroke:#000000;stroke-width:0.05;stroke-linecap:butt;stroke-linejoin:miter;stroke-miterlimit:4;stroke-dasharray:none;stroke-opacity:1"
         d="M 0,28.57465 H 31.75"
         id="path1103"
         inkscape:connector-curvature="0" />
      <path
         inkscape:connector-curvature="0"
         id="path1107"
         d="M 0,43.126622 H 31.75"
         style="fill:none;stroke:#000000;stroke-width:0.05;stroke-linecap:butt;stroke-linejoin:miter;stroke-miterlimit:4;stroke-dasharray:none;stroke-opacity:1" />
      <path
         style="fill:none;stroke:#000000;stroke-width:0.05;stroke-linecap:butt;stroke-linejoin:miter;stroke-miterlimit:4;stroke-dasharray:none;stroke-opacity:1"
         d="M 0,57.678723 H 31.75"
         id="path1111"
         inkscape:connector-curvature="0" />
      <path
         inkscape:connector-curvature="0"
         id="path1115"
         d="M 0,72.230955 H 31.75"
         style="fill:none;stroke:#000000;stroke-width:0.05;stroke-linecap:butt;stroke-linejoin:miter;stroke-miterlimit:4;stroke-dasharray:none;stroke-opacity:1" />
      <path
         style="fill:none;stroke:#000000;stroke-width:0.05;stroke-linecap:butt;stroke-linejoin:miter;stroke-miterlimit:4;stroke-dasharray:none;stroke-opacity:1"
         d="M 0,86.782927 H 31.75"
         id="path1119"
         inkscape:connector-curvature="0" />
      <circle
         r="4.0999999"
         cy="14.022837"
         cx="23.827299"
         id="circle1006"
         style="display:inline;opacity:1;fill:none;fill-opacity:1;stroke:#000000;stroke-width:0.05;stroke-linecap:square;stroke-linejoin:round;stroke-miterlimit:4;stroke-dasharray:none;stroke-dashoffset:0;stroke-opacity:1;paint-order:markers fill stroke" />
      <circle
         style="display:inline;opacity:1;fill:none;fill-opacity:1;stroke:#000000;stroke-width:0.05;stroke-linecap:square;stroke-linejoin:round;stroke-miterlimit:4;stroke-dasharray:none;stroke-dashoffset:0;stroke-opacity:1;paint-order:markers fill stroke"
         id="circle1008"
         cx="7.9523039"
         cy="14.022837"
         r="4.0999999" />
      <circle
         style="display:inline;opacity:1;fill:none;fill-opacity:1;stroke:#000000;stroke-width:0.05;stroke-linecap:square;stroke-linejoin:round;stroke-miterlimit:4;stroke-dasharray:none;stroke-dashoffset:0;stroke-opacity:1;paint-order:markers fill stroke"
         id="circle1012"
         cx="23.827299"
         cy="28.574995"
         r="4.0999999" />
      <circle
         r="4.0999999"
         cy="28.574995"
         cx="7.9523039"
         id="circle1014"
         style="display:inline;opacity:1;fill:none;fill-opacity:1;stroke:#000000;stroke-width:0.05;stroke-linecap:square;stroke-linejoin:round;stroke-miterlimit:4;stroke-dasharray:none;stroke-dashoffset:0;stroke-opacity:1;paint-order:markers fill stroke" />
      <circle
         style="display:inline;opacity:1;fill:none;fill-opacity:1;stroke:#000000;stroke-width:0.05;stroke-linecap:square;stroke-linejoin:round;stroke-miterlimit:4;stroke-dasharray:none;stroke-dashoffset:0;stroke-opacity:1;paint-order:markers fill stroke"
         id="circle1016"
         cx="23.827299"
         cy="43.127026"
         r="4.0999999" />
      <circle
         r="4.0999999"
         cy="43.127026"
         cx="7.9523039"
         id="circle1018"
         style="display:inline;opacity:1;fill:none;fill-opacity:1;stroke:#000000;stroke-width:0.05;stroke-linecap:square;stroke-linejoin:round;stroke-miterlimit:4;stroke-dasharray:none;stroke-dashoffset:0;stroke-opacity:1;paint-order:markers fill stroke" />
      <circle
         r="4.0999999"
         cy="57.679188"
         cx="23.827299"
         id="circle1020"
         style="display:inline;opacity:1;fill:none;fill-opacity:1;stroke:#000000;stroke-width:0.05;stroke-linecap:square;stroke-linejoin:round;stroke-miterlimit:4;stroke-dasharray:none;stroke-dashoffset:0;stroke-opacity:1;paint-order:markers fill stroke" />
      <circle
         style="display:inline;opacity:1;fill:none;fill-opacity:1;stroke:#000000;stroke-width:0.05;stroke-linecap:square;stroke-linejoin:round;stroke-miterlimit:4;stroke-dasharray:none;stroke-dashoffset:0;stroke-opacity:1;paint-order:markers fill stroke"
         id="circle1022"
         cx="7.9523039"
         cy="57.679188"
         r="4.0999999" />
      <circle
         r="4.0999999"
         cy="72.231216"
         cx="23.827299"
         id="circle1024"
         style="display:inline;opacity:1;fill:none;fill-opacity:1;stroke:#000000;stroke-width:0.05;stroke-linecap:square;stroke-linejoin:round;stroke-miterlimit:4;stroke-dasharray:none;stroke-dashoffset:0;stroke-opacity:1;paint-order:markers fill stroke" />
      <circle
         style="display:inline;opacity:1;fill:none;fill-opacity:1;stroke:#000000;stroke-width:0.05;stroke-linecap:square;stroke-linejoin:round;stroke-miterlimit:4;stroke-dasharray:none;stroke-dashoffset:0;stroke-opacity:1;paint-order:markers fill stroke"
         id="circle1026"
         cx="7.9523039"
         cy="72.231216"
         r="4.0999999" />
      <circle
         style="display:inline;opacity:1;fill:none;fill-opacity:1;stroke:#000000;stroke-width:0.05;stroke-linecap:square;stroke-linejoin:round;stroke-miterlimit:4;stroke-dasharray:none;stroke-dashoffset:0;stroke-opacity:1;paint-order:markers fill stroke"
         id="circle1028"
         cx="23.827299"
         cy="86.783379"
         r="4.0999999" />
      <circle
         r="4.0999999"
         cy="86.783379"
         cx="7.9523039"
         id="circle1030"
         style="display:inline;opacity:1;fill:none;fill-opacity:1;stroke:#000000;stroke-width:0.05;stroke-linecap:square;stroke-linejoin:round;stroke-miterlimit:4;stroke-dasharray:none;stroke-dashoffset:0;stroke-opacity:1;paint-order:markers fill stroke" />
      <circle
         style="display:inline;opacity:1;fill:none;fill-opacity:1;stroke:#000000;stroke-width:0.05172414;stroke-linecap:square;stroke-linejoin:round;stroke-miterlimit:4;stroke-dasharray:none;stroke-dashoffset:0;stroke-opacity:1;paint-order:markers fill stroke"
         id="circle1039"
         cx="23.811087"
         cy="14.023285"
         r="5.4741378" />
      <circle
         r="5.4741378"
         cy="14.023285"
         cx="7.9360862"
         id="circle1086"
         style="display:inline;opacity:1;fill:none;fill-opacity:1;stroke:#000000;stroke-width:0.05172414;stroke-linecap:square;stroke-linejoin:round;stroke-miterlimit:4;stroke-dasharray:none;stroke-dashoffset:0;stroke-opacity:1;paint-order:markers fill stroke" />
      <circle
         r="5.4741378"
         cy="28.573866"
         cx="23.811087"
         id="circle1088"
         style="display:inline;opacity:1;fill:none;fill-opacity:1;stroke:#000000;stroke-width:0.05172414;stroke-linecap:square;stroke-linejoin:round;stroke-miterlimit:4;stroke-dasharray:none;stroke-dashoffset:0;stroke-opacity:1;paint-order:markers fill stroke" />
      <circle
         style="display:inline;opacity:1;fill:none;fill-opacity:1;stroke:#000000;stroke-width:0.05172414;stroke-linecap:square;stroke-linejoin:round;stroke-miterlimit:4;stroke-dasharray:none;stroke-dashoffset:0;stroke-opacity:1;paint-order:markers fill stroke"
         id="circle1090"
         cx="7.9360862"
         cy="28.573866"
         r="5.4741378" />
      <circle
         r="5.4741378"
         cy="43.127476"
         cx="23.811087"
         id="circle1092"
         style="display:inline;opacity:1;fill:none;fill-opacity:1;stroke:#000000;stroke-width:0.05172414;stroke-linecap:square;stroke-linejoin:round;stroke-miterlimit:4;stroke-dasharray:none;stroke-dashoffset:0;stroke-opacity:1;paint-order:markers fill stroke" />
      <circle
         style="display:inline;opacity:1;fill:none;fill-opacity:1;stroke:#000000;stroke-width:0.05172414;stroke-linecap:square;stroke-linejoin:round;stroke-miterlimit:4;stroke-dasharray:none;stroke-dashoffset:0;stroke-opacity:1;paint-order:markers fill stroke"
         id="circle1094"
         cx="7.9360862"
         cy="43.127476"
         r="5.4741378" />
      <circle
         style="display:inline;opacity:1;fill:none;fill-opacity:1;stroke:#000000;stroke-width:0.05172414;stroke-linecap:square;stroke-linejoin:round;stroke-miterlimit:4;stroke-dasharray:none;stroke-dashoffset:0;stroke-opacity:1;paint-order:markers fill stroke"
         id="circle1096"
         cx="23.811087"
         cy="57.678059"
         r="5.4741378" />
      <circle
         r="5.4741378"
         cy="57.678059"
         cx="7.9360862"
         id="circle1098"
         style="display:inline;opacity:1;fill:none;fill-opacity:1;stroke:#000000;stroke-width:0.05172414;stroke-linecap:square;stroke-linejoin:round;stroke-miterlimit:4;stroke-dasharray:none;stroke-dashoffset:0;stroke-opacity:1;paint-order:markers fill stroke" />
      <circle
         style="display:inline;opacity:1;fill:none;fill-opacity:1;stroke:#000000;stroke-width:0.05172414;stroke-linecap:square;stroke-linejoin:round;stroke-miterlimit:4;stroke-dasharray:none;stroke-dashoffset:0;stroke-opacity:1;paint-order:markers fill stroke"
         id="circle1100"
         cx="23.811087"
         cy="72.231667"
         r="5.4741378" />
      <circle
         r="5.4741378"
         cy="72.231667"
         cx="7.9360862"
         id="circle1102"
         style="display:inline;opacity:1;fill:none;fill-opacity:1;stroke:#000000;stroke-width:0.05172414;stroke-linecap:square;stroke-linejoin:round;stroke-miterlimit:4;stroke-dasharray:none;stroke-dashoffset:0;stroke-opacity:1;paint-order:markers fill stroke" />
      <circle
         r="5.4741378"
         cy="86.782249"
         cx="23.811087"
         id="circle1104"
         style="display:inline;opacity:1;fill:none;fill-opacity:1;stroke:#000000;stroke-width:0.05172414;stroke-linecap:square;stroke-linejoin:round;stroke-miterlimit:4;stroke-dasharray:none;stroke-dashoffset:0;stroke-opacity:1;paint-order:markers fill stroke" />
      <circle
         style="display:inline;opacity:1;fill:none;fill-opacity:1;stroke:#000000;stroke-width:0.05172414;stroke-linecap:square;stroke-linejoin:round;stroke-miterlimit:4;stroke-dasharray:none;stroke-dashoffset:0;stroke-opacity:1;paint-order:markers fill stroke"
         id="circle1106"
         cx="7.9360862"
         cy="86.782249"
         r="5.4741378" />
      <path
         sodipodi:nodetypes="cc"
         inkscape:connector-curvature="0"
         id="path1142"
         d="m 15.875002,0 -4e-6,100.54167"
         style="fill:none;stroke:#000000;stroke-width:0.05;stroke-linecap:butt;stroke-linejoin:miter;stroke-miterlimit:4;stroke-dasharray:none;stroke-opacity:1" />
    </g>
  </g>
</svg>
