<?xml version="1.0" encoding="UTF-8" standalone="no"?>
<!-- Created with Inkscape (http://www.inkscape.org/) -->

<svg
   xmlns:dc="http://purl.org/dc/elements/1.1/"
   xmlns:cc="http://creativecommons.org/ns#"
   xmlns:rdf="http://www.w3.org/1999/02/22-rdf-syntax-ns#"
   xmlns:svg="http://www.w3.org/2000/svg"
   xmlns="http://www.w3.org/2000/svg"
   xmlns:sodipodi="http://sodipodi.sourceforge.net/DTD/sodipodi-0.dtd"
   xmlns:inkscape="http://www.inkscape.org/namespaces/inkscape"
   width="60"
   height="380"
   viewBox="0 0 15.875001 100.54167"
   version="1.1"
   id="svg8"
   inkscape:version="0.92.5 (2060ec1f9f, 2020-04-08)"
   sodipodi:docname="MiniMix.svg">
  <defs
     id="defs2">
    <inkscape:path-effect
       effect="powerstroke"
       id="path-effect969"
       is_visible="true"
       offset_points="0,0.13229166"
       sort_points="true"
       interpolator_type="CubicBezierJohan"
       interpolator_beta="0.2"
       start_linecap_type="zerowidth"
       linejoin_type="extrp_arc"
       miter_limit="4"
       end_linecap_type="zerowidth" />
  </defs>
  <sodipodi:namedview
     id="base"
     pagecolor="#ffffff"
     bordercolor="#666666"
     borderopacity="1.0"
     inkscape:pageopacity="0.0"
     inkscape:pageshadow="2"
     inkscape:zoom="25.783346"
     inkscape:cx="42.747949"
     inkscape:cy="180.78931"
     inkscape:document-units="mm"
     inkscape:current-layer="layer1"
     showgrid="true"
     units="px"
     inkscape:snap-bbox="true"
     inkscape:snap-page="true"
     inkscape:bbox-nodes="true"
     inkscape:snap-bbox-edge-midpoints="true"
     inkscape:window-width="1920"
     inkscape:window-height="1009"
     inkscape:window-x="-8"
     inkscape:window-y="-8"
     inkscape:window-maximized="1"
     showguides="true">
    <inkscape:grid
       type="xygrid"
       id="grid23" />
  </sodipodi:namedview>
  <metadata
     id="metadata5">
    <rdf:RDF>
      <cc:Work
         rdf:about="">
        <dc:format>image/svg+xml</dc:format>
        <dc:type
           rdf:resource="http://purl.org/dc/dcmitype/StillImage" />
        <dc:title />
      </cc:Work>
    </rdf:RDF>
  </metadata>
  <g
     inkscape:groupmode="layer"
     id="layer3"
     inkscape:label="Panel"
     style="display:inline"
     sodipodi:insensitive="true">
    <rect
       id="rect3855"
       width="15.875"
       height="100.54166"
       x="-3.3306691e-16"
       y="-7.0117189e-06"
       style="fill:#520000;stroke-width:0.33104217" />
  </g>
  <g
     inkscape:label="Layer 1"
     inkscape:groupmode="layer"
     id="layer1"
     transform="translate(0,-196.45832)"
     style="display:inline">
    <rect
       y="276.09537"
       x="1.3229165"
       height="12.435422"
       width="13.229167"
       id="rect1311"
       style="fill:#6f1e00;stroke-width:0.55194974" />
    <text
       xml:space="preserve"
       style="font-style:normal;font-weight:normal;font-size:3.17499995px;line-height:1.25;font-family:sans-serif;letter-spacing:0px;word-spacing:0px;fill:#ffffff;fill-opacity:1;stroke:none;stroke-width:0.26458332"
       x="29.104166"
       y="266.57291"
       id="text35"><tspan
         sodipodi:role="line"
         id="tspan33"
         x="29.104166"
         y="269.46954"
         style="stroke-width:0.26458332" /></text>
    <g
       aria-label="/^M^\"
       style="font-style:normal;font-variant:normal;font-weight:normal;font-stretch:normal;font-size:2.82222223px;line-height:1.25;font-family:'Copperplate Gothic Light';-inkscape-font-specification:'Copperplate Gothic Light, ';letter-spacing:0px;word-spacing:0px;fill:#ffffff;fill-opacity:1;stroke:#ffffff;stroke-width:0.2;stroke-miterlimit:4;stroke-dasharray:none;stroke-opacity:1"
       id="text956"
       transform="translate(-17.419069,1.0997903)">
      <path
         d="m 21.203855,291.40545 v 0.0386 h -0.434082 v -0.0386 q 0.09509,-0.006 0.224621,-0.17088 l 1.094162,-1.4621 q 0.07441,-0.1006 0.07441,-0.12402 0,-0.0372 -0.06615,-0.0482 v -0.0372 h 0.423058 v 0.0372 q -0.09508,0.006 -0.22462,0.17087 l -1.08176,1.46348 q -0.07579,0.10197 -0.07579,0.12402 0,0.0358 0.06615,0.0469 z"
         style="font-style:normal;font-variant:normal;font-weight:normal;font-stretch:normal;font-size:2.82222223px;line-height:1.25;font-family:'Copperplate Gothic Light';-inkscape-font-specification:'Copperplate Gothic Light, ';stroke:#ffffff;stroke-width:0.2;stroke-miterlimit:4;stroke-dasharray:none;stroke-opacity:1"
         id="path958"
         inkscape:connector-curvature="0" />
      <path
         d="M 22.940183,290.3857 H 22.73899 l 0.493338,-0.8282 h 0.243912 l 0.493338,0.8282 h -0.20395 l -0.413411,-0.68075 z"
         style="font-style:normal;font-variant:normal;font-weight:normal;font-stretch:normal;font-size:2.82222223px;line-height:1.25;font-family:'Copperplate Gothic Light';-inkscape-font-specification:'Copperplate Gothic Light, ';stroke:#ffffff;stroke-width:0.2;stroke-miterlimit:4;stroke-dasharray:none;stroke-opacity:1"
         id="path960"
         inkscape:connector-curvature="0" />
      <path
         d="m 25.342104,291.44403 -0.789616,-1.58061 v 1.418 q 0,0.0565 0.01791,0.0813 0.01791,0.0234 0.07028,0.0372 v 0.0441 h -0.373449 v -0.0441 q 0.05237,-0.0138 0.07028,-0.0372 0.01792,-0.0234 0.01792,-0.0813 v -1.5558 q 0,-0.0579 -0.01792,-0.0813 -0.01791,-0.0248 -0.07028,-0.0372 v -0.0441 h 0.487826 v 0.0441 q -0.06752,0.0234 -0.06752,0.0579 0,0.0165 0.04547,0.10611 l 0.62563,1.24161 0.628385,-1.25263 q 0.03307,-0.0661 0.03307,-0.0937 0,-0.0358 -0.06752,-0.0593 v -0.0441 h 0.49196 v 0.0441 q -0.05237,0.0138 -0.07028,0.0372 -0.01792,0.0234 -0.01792,0.0813 v 1.5558 q 0,0.0565 0.01792,0.0813 0.01791,0.0234 0.07028,0.0372 v 0.0441 h -0.392741 v -0.0441 q 0.05374,-0.0138 0.07028,-0.0372 0.01791,-0.0234 0.01791,-0.0813 v -1.418 z"
         style="font-style:normal;font-variant:normal;font-weight:normal;font-stretch:normal;font-size:2.82222223px;line-height:1.25;font-family:'Copperplate Gothic Light';-inkscape-font-specification:'Copperplate Gothic Light, ';stroke:#ffffff;stroke-width:0.2;stroke-miterlimit:4;stroke-dasharray:none;stroke-opacity:1"
         id="path962"
         inkscape:connector-curvature="0" />
      <path
         d="m 26.942006,290.3857 h -0.201193 l 0.493338,-0.8282 h 0.243912 l 0.493338,0.8282 h -0.20395 l -0.413411,-0.68075 z"
         style="font-style:normal;font-variant:normal;font-weight:normal;font-stretch:normal;font-size:2.82222223px;line-height:1.25;font-family:'Copperplate Gothic Light';-inkscape-font-specification:'Copperplate Gothic Light, ';stroke:#ffffff;stroke-width:0.2;stroke-miterlimit:4;stroke-dasharray:none;stroke-opacity:1"
         id="path964"
         inkscape:connector-curvature="0" />
      <path
         d="m 28.617701,289.56301 v 0.0372 q -0.06615,0.011 -0.06615,0.0482 0,0.0234 0.07441,0.12402 l 1.092784,1.4621 q 0.129536,0.16536 0.22462,0.17088 v 0.0386 h -0.434082 v -0.0386 q 0.06615,-0.011 0.06615,-0.0469 0,-0.0207 -0.07579,-0.12402 l -1.080382,-1.46348 q -0.129535,-0.16536 -0.22462,-0.17087 v -0.0372 z"
         style="font-style:normal;font-variant:normal;font-weight:normal;font-stretch:normal;font-size:2.82222223px;line-height:1.25;font-family:'Copperplate Gothic Light';-inkscape-font-specification:'Copperplate Gothic Light, ';stroke:#ffffff;stroke-width:0.2;stroke-miterlimit:4;stroke-dasharray:none;stroke-opacity:1"
         id="path966"
         inkscape:connector-curvature="0" />
    </g>
    <g
       aria-label="OUTPUT"
       style="font-style:normal;font-variant:normal;font-weight:normal;font-stretch:normal;font-size:2.82222223px;line-height:1.25;font-family:'Yu Gothic UI';-inkscape-font-specification:'Yu Gothic UI';letter-spacing:0px;word-spacing:0px;fill:#ffffff;fill-opacity:1;stroke:none;stroke-width:0.26458332"
       id="text1176"
       transform="matrix(1,0,0,-1,0.00624475,544.29336)">
      <path
         d="m 3.6744952,267.77843 q -0.4203016,0 -0.6738607,-0.27698 -0.252181,-0.27699 -0.252181,-0.72072 0,-0.4768 0.2576932,-0.76067 0.2576931,-0.28388 0.7014214,-0.28388 0.4092774,0 0.6587023,0.27561 0.2508029,0.27561 0.2508029,0.72071 0,0.48369 -0.2563151,0.76481 -0.2563151,0.28112 -0.686263,0.28112 z m 0.016536,-1.83279 q -0.3114367,0 -0.5057401,0.22462 -0.1943033,0.22462 -0.1943033,0.5898 0,0.36518 0.1887912,0.58843 0.1901693,0.22186 0.4947157,0.22186 0.325217,0 0.5126302,-0.21222 0.1874132,-0.21222 0.1874132,-0.59393 0,-0.39136 -0.181901,-0.60496 -0.1819011,-0.2136 -0.5016059,-0.2136 z"
         style="stroke-width:0.26458332"
         id="path1201"
         inkscape:connector-curvature="0" />
      <path
         d="m 6.4512422,266.9461 q 0,0.83233 -0.7510308,0.83233 -0.7193359,0 -0.7193359,-0.80064 v -1.20854 h 0.2315104 v 1.19339 q 0,0.60771 0.5126302,0.60771 0.4947157,0 0.4947157,-0.58704 v -1.21406 h 0.2315104 z"
         style="stroke-width:0.26458332"
         id="path1203"
         inkscape:connector-curvature="0" />
      <path
         d="M 8.1145344,265.97872 H 7.5440265 v 1.76664 H 7.3125161 v -1.76664 H 6.7433864 v -0.20947 h 1.371148 z"
         style="stroke-width:0.26458332"
         id="path1205"
         inkscape:connector-curvature="0" />
      <path
         d="m 8.6547252,266.99846 v 0.7469 H 8.4232147 v -1.97611 h 0.5429471 q 0.3169488,0 0.4905816,0.15434 0.1750108,0.15435 0.1750108,0.43546 0,0.28112 -0.1943033,0.46027 -0.1929254,0.17914 -0.5222765,0.17914 z m 0,-1.01974 v 0.81028 h 0.2425347 q 0.2397786,0 0.3651801,-0.10886 0.1267795,-0.11025 0.1267795,-0.31006 0,-0.39136 -0.4630208,-0.39136 z"
         style="stroke-width:0.26458332"
         id="path1207"
         inkscape:connector-curvature="0" />
      <path
         d="m 11.450765,266.9461 q 0,0.83233 -0.751031,0.83233 -0.7193361,0 -0.7193361,-0.80064 v -1.20854 h 0.2315101 v 1.19339 q 0,0.60771 0.512631,0.60771 0.494715,0 0.494715,-0.58704 v -1.21406 h 0.231511 z"
         style="stroke-width:0.26458332"
         id="path1209"
         inkscape:connector-curvature="0" />
      <path
         d="m 13.114057,265.97872 h -0.570508 v 1.76664 h -0.23151 v -1.76664 h -0.56913 v -0.20947 h 1.371148 z"
         style="stroke-width:0.26458332"
         id="path1211"
         inkscape:connector-curvature="0" />
    </g>
    <g
       aria-label="IN A"
       style="font-style:normal;font-variant:normal;font-weight:normal;font-stretch:normal;font-size:2.82222223px;line-height:1.25;font-family:'Yu Gothic UI';-inkscape-font-specification:'Yu Gothic UI';letter-spacing:0px;word-spacing:0px;fill:#ffffff;fill-opacity:1;stroke:none;stroke-width:0.26458332"
       id="text1793">
      <path
         d="M 5.5879451,205.5412 H 5.3564347 v -1.97611 h 0.2315104 z"
         style="stroke-width:0.26458332"
         id="path1925" />
      <path
         d="M 7.6990996,205.5412 H 7.4152237 l -1.0169921,-1.5751 q -0.038585,-0.0593 -0.06339,-0.12402 h -0.00827 q 0.011024,0.0634 0.011024,0.27147 v 1.42765 H 6.1060875 v -1.97611 h 0.3004123 l 0.9894314,1.55029 q 0.062012,0.0965 0.079926,0.1323 h 0.00551 q -0.01378,-0.0854 -0.01378,-0.29077 v -1.39182 h 0.2315104 z"
         style="stroke-width:0.26458332"
         id="path1927" />
      <path
         d="m 10.518566,205.5412 h -0.256315 l -0.209462,-0.55397 H 9.2149417 L 9.0178822,205.5412 H 8.7601891 l 0.757921,-1.97611 h 0.2397786 z m -0.5415692,-0.76206 -0.3100586,-0.84198 q -0.015158,-0.0413 -0.030317,-0.13229 h -0.00551 q -0.01378,0.0841 -0.031695,0.13229 l -0.3073025,0.84198 z"
         style="stroke-width:0.26458332"
         id="path1929" />
    </g>
    <g
       aria-label="IN B"
       style="font-style:normal;font-variant:normal;font-weight:normal;font-stretch:normal;font-size:2.82222223px;line-height:1.25;font-family:'Yu Gothic UI';-inkscape-font-specification:'Yu Gothic UI';letter-spacing:0px;word-spacing:0px;fill:#ffffff;fill-opacity:1;stroke:none;stroke-width:0.26458332"
       id="text1797">
      <path
         d="M 5.744352,217.7478 H 5.5128415 v -1.9761 H 5.744352 Z"
         style="stroke-width:0.26458332"
         id="path1918" />
      <path
         d="M 7.8555065,217.7478 H 7.5716306 l -1.0169922,-1.57509 q -0.038585,-0.0593 -0.06339,-0.12403 h -0.00827 q 0.011024,0.0634 0.011024,0.27148 v 1.42764 H 6.2624943 v -1.9761 h 0.3004124 l 0.9894314,1.55029 q 0.062012,0.0965 0.079926,0.13229 h 0.00551 q -0.01378,-0.0854 -0.01378,-0.29077 v -1.39181 h 0.2315104 z"
         style="stroke-width:0.26458332"
         id="path1920" />
      <path
         d="m 9.1453503,217.7478 v -1.9761 h 0.5622396 q 0.2563151,0 0.4065211,0.1254 0.150206,0.1254 0.150206,0.32659 0,0.16812 -0.09095,0.29215 -0.09095,0.12402 -0.2508032,0.17639 v 0.006 q 0.1998152,0.0234 0.3197052,0.15158 0.119889,0.12678 0.119889,0.33073 0,0.25356 -0.181901,0.41066 -0.1819011,0.15709 -0.4588867,0.15709 z m 0.2315104,-1.76664 v 0.63803 h 0.2370226 q 0.1901692,0 0.2990343,-0.0909 0.1088654,-0.0923 0.1088654,-0.25907 0,-0.28801 -0.3789609,-0.28801 z m 0,0.84611 v 0.71107 h 0.3141927 q 0.2039497,0 0.3155706,-0.0965 0.112999,-0.0965 0.112999,-0.26459 0,-0.35002 -0.4768009,-0.35002 z"
         style="stroke-width:0.26458332"
         id="path1922" />
    </g>
    <g
       aria-label="IN C"
       style="font-style:normal;font-variant:normal;font-weight:normal;font-stretch:normal;font-size:2.82222223px;line-height:1.25;font-family:'Yu Gothic UI';-inkscape-font-specification:'Yu Gothic UI';letter-spacing:0px;word-spacing:0px;fill:#ffffff;fill-opacity:1;stroke:none;stroke-width:0.26458332"
       id="text1801"
       transform="translate(0,1.3001696)">
      <path
         d="M 5.6802736,228.50529 H 5.4487632 v -1.9761 h 0.2315104 z"
         style="stroke-width:0.26458332"
         id="path1911"
         inkscape:connector-curvature="0" />
      <path
         d="M 7.7914282,228.50529 H 7.5075523 L 6.4905601,226.9302 q -0.038585,-0.0593 -0.06339,-0.12403 h -0.00827 q 0.011024,0.0634 0.011024,0.27148 v 1.42764 H 6.198416 v -1.9761 h 0.3004123 l 0.9894315,1.55029 q 0.062012,0.0965 0.079926,0.13229 h 0.00551 q -0.01378,-0.0854 -0.01378,-0.29076 v -1.39182 h 0.2315105 z"
         style="stroke-width:0.26458332"
         id="path1913"
         inkscape:connector-curvature="0" />
      <path
         d="m 10.426237,228.42261 q -0.219108,0.11576 -0.5457029,0.11576 -0.4216797,0 -0.6752387,-0.27148 -0.253559,-0.27147 -0.253559,-0.71244 0,-0.47405 0.2852539,-0.76619 0.2852539,-0.29214 0.72347,-0.29214 0.2811197,0 0.4657767,0.0813 v 0.24667 q -0.212218,-0.11851 -0.4685327,-0.11851 -0.3403755,0 -0.5525934,0.22737 -0.2108398,0.22738 -0.2108398,0.60772 0,0.36104 0.1970595,0.57602 0.1984375,0.21359 0.5195204,0.21359 0.297656,0 0.515386,-0.13229 z"
         style="stroke-width:0.26458332"
         id="path1915"
         inkscape:connector-curvature="0" />
    </g>
    <g
       aria-label="IN D"
       style="font-style:normal;font-variant:normal;font-weight:normal;font-stretch:normal;font-size:2.82222223px;line-height:1.25;font-family:'Yu Gothic UI';-inkscape-font-specification:'Yu Gothic UI';letter-spacing:0px;word-spacing:0px;fill:#ffffff;fill-opacity:1;stroke:none;stroke-width:0.26458332"
       id="text1805">
      <path
         d="M 5.5576278,242.05707 H 5.3261173 v -1.97611 h 0.2315105 z"
         style="stroke-width:0.26458332"
         id="path1904" />
      <path
         d="M 7.6687823,242.05707 H 7.3849064 l -1.0169922,-1.5751 q -0.038585,-0.0593 -0.06339,-0.12402 h -0.00827 q 0.011024,0.0634 0.011024,0.27147 v 1.42765 H 6.0757701 v -1.97611 h 0.3004124 l 0.9894314,1.55029 q 0.062012,0.0965 0.079926,0.1323 h 0.00551 q -0.01378,-0.0854 -0.01378,-0.29077 v -1.39182 h 0.2315104 z"
         style="stroke-width:0.26458332"
         id="path1906" />
      <path
         d="m 8.9586261,242.05707 v -1.97611 h 0.5457031 q 1.0445528,0 1.0445528,0.96325 0,0.45751 -0.290766,0.73587 -0.2893879,0.27699 -0.7758354,0.27699 z m 0.2315104,-1.76665 v 1.55719 h 0.2949002 q 0.3886068,0 0.6049583,-0.20809 0.216352,-0.20808 0.216352,-0.5898 0,-0.7593 -0.8075299,-0.7593 z"
         style="stroke-width:0.26458332"
         id="path1908" />
    </g>
    <text
       xml:space="preserve"
       style="font-style:normal;font-variant:normal;font-weight:normal;font-stretch:normal;font-size:2.11666656px;line-height:1.25;font-family:'Yu Gothic UI';-inkscape-font-specification:'Yu Gothic UI';letter-spacing:0px;word-spacing:0px;fill:#ffffff;fill-opacity:1;stroke:none;stroke-width:0.26458332"
       x="1.3229166"
       y="265.25"
       id="text1809"><tspan
         sodipodi:role="line"
         id="tspan1807"
         x="1.3229166"
         y="267.15659"
         style="font-size:2.11666656px;stroke-width:0.26458332" /></text>
    <text
       xml:space="preserve"
       style="font-style:normal;font-variant:normal;font-weight:normal;font-stretch:normal;font-size:2.11666656px;line-height:1.25;font-family:'Yu Gothic UI';-inkscape-font-specification:'Yu Gothic UI';letter-spacing:0px;word-spacing:0px;fill:#ffffff;fill-opacity:1;stroke:none;stroke-width:0.26458332"
       x="15.875"
       y="274.51041"
       id="text1817"><tspan
         sodipodi:role="line"
         id="tspan1815"
         x="15.875"
         y="276.41699"
         style="stroke-width:0.26458332" /></text>
    <g
       aria-label="LEVEL"
       style="font-style:normal;font-variant:normal;font-weight:normal;font-stretch:normal;font-size:2.82222223px;line-height:1.25;font-family:'Yu Gothic UI';-inkscape-font-specification:'Yu Gothic UI';letter-spacing:0px;word-spacing:0px;fill:#ffffff;fill-opacity:1;stroke:none;stroke-width:0.26458332"
       id="text1821"
       transform="translate(0,-10.784117)">
      <path
         d="M 5.4818356,265.04703 H 4.4565752 v -1.97611 h 0.2315104 v 1.76665 h 0.79375 z"
         style="font-size:2.82222223px;stroke-width:0.26458332"
         id="path1865"
         inkscape:connector-curvature="0" />
      <path
         d="m 6.8323131,265.04703 h -1.047309 v -1.97611 h 1.0032118 v 0.20946 H 6.0165145 v 0.65733 h 0.7138238 v 0.20808 H 6.0165145 v 0.69178 h 0.8157986 z"
         style="font-size:2.82222223px;stroke-width:0.26458332"
         id="path1867"
         inkscape:connector-curvature="0" />
      <path
         d="M 8.6816403,263.07092 7.949902,265.04703 H 7.6949649 l -0.7165798,-1.97611 h 0.2576931 l 0.5470812,1.56683 q 0.026183,0.0758 0.039963,0.17501 h 0.00551 q 0.011024,-0.0827 0.045475,-0.17777 l 0.5581055,-1.56407 z"
         style="font-size:2.82222223px;stroke-width:0.26458332"
         id="path1869"
         inkscape:connector-curvature="0" />
      <path
         d="M 10.012825,265.04703 H 8.9655164 v -1.97611 h 1.0032118 v 0.20946 H 9.1970268 v 0.65733 h 0.7138238 v 0.20808 H 9.1970268 v 0.69178 h 0.8157982 z"
         style="font-size:2.82222223px;stroke-width:0.26458332"
         id="path1871"
         inkscape:connector-curvature="0" />
      <path
         d="m 11.418424,265.04703 h -1.02526 v -1.97611 h 0.23151 v 1.76665 h 0.79375 z"
         style="font-size:2.82222223px;stroke-width:0.26458332"
         id="path1873"
         inkscape:connector-curvature="0" />
    </g>
    <text
       xml:space="preserve"
       style="font-style:normal;font-variant:normal;font-weight:normal;font-stretch:normal;font-size:2.11666667px;line-height:1.25;font-family:'Yu Gothic UI';-inkscape-font-specification:'Yu Gothic UI';letter-spacing:0px;word-spacing:0px;fill:#ffffff;fill-opacity:1;stroke:none;stroke-width:0.26458332;"
       x="3.7041667"
       y="258.10623"
       id="text1825"><tspan
         sodipodi:role="line"
         x="3.7041667"
         y="260.01282"
         style="stroke-width:0.26458332;font-size:2.11666667px;"
         id="tspan1827" /></text>
    <text
       xml:space="preserve"
       style="font-style:normal;font-variant:normal;font-weight:normal;font-stretch:normal;font-size:2.11666656px;line-height:1.25;font-family:'Yu Gothic UI';-inkscape-font-specification:'Yu Gothic UI';letter-spacing:0px;word-spacing:0px;fill:#ffffff;fill-opacity:1;stroke:none;stroke-width:0.26458332"
       x="13.229166"
       y="204.39581"
       id="text1851"><tspan
         sodipodi:role="line"
         id="tspan1849"
         x="13.229166"
         y="206.30241"
         style="stroke-width:0.26458332" /></text>
    <g
       aria-label="O/L"
       style="font-style:normal;font-variant:normal;font-weight:normal;font-stretch:normal;font-size:2.11666656px;line-height:1.25;font-family:'Yu Gothic UI';-inkscape-font-specification:'Yu Gothic UI';letter-spacing:0px;word-spacing:0px;fill:#ffffff;fill-opacity:1;stroke:none;stroke-width:0.26458332"
       id="text1863"
       transform="translate(0.11287969,-12.170835)">
      <path
         d="m 12.697935,263.42269 q -0.315226,0 -0.505396,-0.20774 -0.189135,-0.20774 -0.189135,-0.54053 0,-0.3576 0.193269,-0.57051 0.19327,-0.21291 0.526066,-0.21291 0.306958,0 0.494027,0.20671 0.188102,0.2067 0.188102,0.54053 0,0.36277 -0.192236,0.57361 -0.192236,0.21084 -0.514697,0.21084 z m 0.0124,-1.37459 q -0.233577,0 -0.379305,0.16847 -0.145727,0.16846 -0.145727,0.44235 0,0.27388 0.141593,0.44131 0.142627,0.1664 0.371037,0.1664 0.243913,0 0.384472,-0.15916 0.14056,-0.15917 0.14056,-0.44545 0,-0.29353 -0.136425,-0.45372 -0.136426,-0.1602 -0.376205,-0.1602 z"
         style="font-size:2.11666656px;stroke-width:0.26458332"
         id="path1888"
         inkscape:connector-curvature="0" />
      <path
         d="m 14.342279,261.91581 -0.711068,1.72806 h -0.15813 l 0.709001,-1.72806 z"
         style="font-size:2.11666656px;stroke-width:0.26458332"
         id="path1890"
         inkscape:connector-curvature="0" />
      <path
         d="m 15.292092,263.39789 h -0.768946 v -1.48208 h 0.173633 v 1.32498 h 0.595313 z"
         style="font-size:2.11666656px;stroke-width:0.26458332"
         id="path1892"
         inkscape:connector-curvature="0" />
    </g>
    <g
       aria-label="MINIMIX"
       style="font-style:normal;font-variant:normal;font-weight:600;font-stretch:normal;font-size:3.52777767px;line-height:1.25;font-family:'Yu Gothic UI';-inkscape-font-specification:'Yu Gothic UI Semi-Bold';letter-spacing:0px;word-spacing:0px;fill:#ffffff;fill-opacity:1;stroke:none;stroke-width:0.26458332"
       id="text1941"
       transform="translate(-2.0894501,1.0583333)">
      <path
         d="M 5.6034476,201.74998 H 5.1969264 v -1.59852 q 0,-0.19637 0.024116,-0.48059 h -0.00689 q -0.037896,0.16192 -0.067179,0.23254 L 4.409723,201.74998 H 4.1272243 l -0.738973,-1.83279 q -0.031006,-0.081 -0.065457,-0.24632 h -0.00689 q 0.01378,0.14814 0.01378,0.48404 v 1.59507 H 2.9507242 v -2.47013 h 0.5770535 l 0.6494005,1.64503 q 0.07407,0.18948 0.096463,0.2825 h 0.00861 q 0.063734,-0.19465 0.1033528,-0.28939 l 0.6614583,-1.63814 h 0.5563829 z"
         style="font-style:normal;font-variant:normal;font-weight:600;font-stretch:normal;font-size:3.52777767px;font-family:'Yu Gothic UI';-inkscape-font-specification:'Yu Gothic UI Semi-Bold';stroke-width:0.26458332"
         id="path1943"
         inkscape:connector-curvature="0" />
      <path
         d="M 6.630086,201.74998 H 6.2080618 v -2.47013 H 6.630086 Z"
         style="font-style:normal;font-variant:normal;font-weight:600;font-stretch:normal;font-size:3.52777767px;font-family:'Yu Gothic UI';-inkscape-font-specification:'Yu Gothic UI Semi-Bold';stroke-width:0.26458332"
         id="path1945"
         inkscape:connector-curvature="0" />
      <path
         d="M 9.3310406,201.74998 H 8.8831782 L 7.703233,199.93442 q -0.044786,-0.0689 -0.07407,-0.14297 H 7.618828 q 0.01378,0.0792 0.01378,0.33934 v 1.61919 H 7.236422 v -2.47013 h 0.4771457 l 1.1403266,1.7725 q 0.072347,0.11025 0.093018,0.15159 h 0.00689 q -0.017226,-0.0982 -0.017226,-0.33245 v -1.59164 h 0.3944634 z"
         style="font-style:normal;font-variant:normal;font-weight:600;font-stretch:normal;font-size:3.52777767px;font-family:'Yu Gothic UI';-inkscape-font-specification:'Yu Gothic UI Semi-Bold';stroke-width:0.26458332"
         id="path1947"
         inkscape:connector-curvature="0" />
      <path
         d="M 10.364569,201.74998 H 9.9425453 v -2.47013 h 0.4220237 z"
         style="font-style:normal;font-variant:normal;font-weight:600;font-stretch:normal;font-size:3.52777767px;font-family:'Yu Gothic UI';-inkscape-font-specification:'Yu Gothic UI Semi-Bold';stroke-width:0.26458332"
         id="path1949"
         inkscape:connector-curvature="0" />
      <path
         d="m 13.623629,201.74998 h -0.406521 v -1.59852 q 0,-0.19637 0.02412,-0.48059 h -0.0069 q -0.0379,0.16192 -0.06718,0.23254 l -0.73725,1.84657 H 12.1474 l -0.738973,-1.83279 q -0.03101,-0.081 -0.06546,-0.24632 h -0.0069 q 0.01378,0.14814 0.01378,0.48404 v 1.59507 h -0.37896 v -2.47013 h 0.577053 l 0.649401,1.64503 q 0.07407,0.18948 0.09646,0.2825 h 0.0086 q 0.06373,-0.19465 0.103353,-0.28939 l 0.661458,-1.63814 h 0.556383 z"
         style="font-style:normal;font-variant:normal;font-weight:600;font-stretch:normal;font-size:3.52777767px;font-family:'Yu Gothic UI';-inkscape-font-specification:'Yu Gothic UI Semi-Bold';stroke-width:0.26458332"
         id="path1951"
         inkscape:connector-curvature="0" />
      <path
         d="m 14.650267,201.74998 h -0.422024 v -2.47013 h 0.422024 z"
         style="font-style:normal;font-variant:normal;font-weight:600;font-stretch:normal;font-size:3.52777767px;font-family:'Yu Gothic UI';-inkscape-font-specification:'Yu Gothic UI Semi-Bold';stroke-width:0.26458332"
         id="path1953"
         inkscape:connector-curvature="0" />
      <path
         d="M 17.103176,201.74998 H 16.61225 l -0.506429,-0.90606 q -0.02239,-0.0413 -0.04995,-0.11713 h -0.0069 q -0.0155,0.0379 -0.05168,0.11713 l -0.521932,0.90606 h -0.494371 l 0.809598,-1.24195 -0.744141,-1.22818 h 0.501261 l 0.44614,0.83371 q 0.04306,0.0827 0.07752,0.16537 h 0.0052 q 0.04995,-0.10852 0.08613,-0.17226 l 0.463365,-0.82682 h 0.461643 l -0.761366,1.22473 z"
         style="font-style:normal;font-variant:normal;font-weight:600;font-stretch:normal;font-size:3.52777767px;font-family:'Yu Gothic UI';-inkscape-font-specification:'Yu Gothic UI Semi-Bold';stroke-width:0.26458332"
         id="path1955"
         inkscape:connector-curvature="0" />
    </g>
    <rect
       style="fill:#6f1e00;stroke-width:0.55194974"
       id="rect916"
       width="13.229167"
       height="12.435422"
       x="1.3229165"
       y="263.92435" />
    <g
       transform="translate(0.00624475,-1.3920892)"
       id="g930"
       style="font-style:normal;font-variant:normal;font-weight:normal;font-stretch:normal;font-size:2.82222223px;line-height:1.25;font-family:'Yu Gothic UI';-inkscape-font-specification:'Yu Gothic UI';letter-spacing:0px;word-spacing:0px;fill:#ffffff;fill-opacity:1;stroke:none;stroke-width:0.26458332"
       aria-label="OUTPUT">
      <path
         inkscape:connector-curvature="0"
         id="path918"
         style="stroke-width:0.26458332"
         d="m 3.6744952,267.77843 q -0.4203016,0 -0.6738607,-0.27698 -0.252181,-0.27699 -0.252181,-0.72072 0,-0.4768 0.2576932,-0.76067 0.2576931,-0.28388 0.7014214,-0.28388 0.4092774,0 0.6587023,0.27561 0.2508029,0.27561 0.2508029,0.72071 0,0.48369 -0.2563151,0.76481 -0.2563151,0.28112 -0.686263,0.28112 z m 0.016536,-1.83279 q -0.3114367,0 -0.5057401,0.22462 -0.1943033,0.22462 -0.1943033,0.5898 0,0.36518 0.1887912,0.58843 0.1901693,0.22186 0.4947157,0.22186 0.325217,0 0.5126302,-0.21222 0.1874132,-0.21222 0.1874132,-0.59393 0,-0.39136 -0.181901,-0.60496 -0.1819011,-0.2136 -0.5016059,-0.2136 z" />
      <path
         inkscape:connector-curvature="0"
         id="path920"
         style="stroke-width:0.26458332"
         d="m 6.4512422,266.9461 q 0,0.83233 -0.7510308,0.83233 -0.7193359,0 -0.7193359,-0.80064 v -1.20854 h 0.2315104 v 1.19339 q 0,0.60771 0.5126302,0.60771 0.4947157,0 0.4947157,-0.58704 v -1.21406 h 0.2315104 z" />
      <path
         inkscape:connector-curvature="0"
         id="path922"
         style="stroke-width:0.26458332"
         d="M 8.1145344,265.97872 H 7.5440265 v 1.76664 H 7.3125161 v -1.76664 H 6.7433864 v -0.20947 h 1.371148 z" />
      <path
         inkscape:connector-curvature="0"
         id="path924"
         style="stroke-width:0.26458332"
         d="m 8.6547252,266.99846 v 0.7469 H 8.4232147 v -1.97611 h 0.5429471 q 0.3169488,0 0.4905816,0.15434 0.1750108,0.15435 0.1750108,0.43546 0,0.28112 -0.1943033,0.46027 -0.1929254,0.17914 -0.5222765,0.17914 z m 0,-1.01974 v 0.81028 h 0.2425347 q 0.2397786,0 0.3651801,-0.10886 0.1267795,-0.11025 0.1267795,-0.31006 0,-0.39136 -0.4630208,-0.39136 z" />
      <path
         inkscape:connector-curvature="0"
         id="path926"
         style="stroke-width:0.26458332"
         d="m 11.450765,266.9461 q 0,0.83233 -0.751031,0.83233 -0.7193361,0 -0.7193361,-0.80064 v -1.20854 h 0.2315101 v 1.19339 q 0,0.60771 0.512631,0.60771 0.494715,0 0.494715,-0.58704 v -1.21406 h 0.231511 z" />
      <path
         inkscape:connector-curvature="0"
         id="path928"
         style="stroke-width:0.26458332"
         d="m 13.114057,265.97872 h -0.570508 v 1.76664 h -0.23151 v -1.76664 h -0.56913 v -0.20947 h 1.371148 z" />
    </g>
  </g>
  <g
     inkscape:groupmode="layer"
     id="layer2"
     inkscape:label="Grid"
     style="display:none"
     sodipodi:insensitive="true">
    <text
       xml:space="preserve"
       style="font-style:normal;font-weight:normal;font-size:2.82222223px;line-height:1.25;font-family:sans-serif;letter-spacing:0px;word-spacing:0px;fill:#ffffff;fill-opacity:1;stroke:none;stroke-width:0.26458332"
       x="17.462486"
       y="5.0270619"
       id="text3821"><tspan
         sodipodi:role="line"
         id="tspan3819"
         x="17.462486"
         y="7.601861"
         style="stroke-width:0.26458332" /></text>
    <g
       transform="translate(3.1496063e-6,3.333209e-6)"
       style="display:inline"
       id="g953">
      <circle
         style="display:inline;opacity:1;fill:none;fill-opacity:1;stroke:#ffffff;stroke-width:0.05172414;stroke-linecap:square;stroke-linejoin:round;stroke-miterlimit:4;stroke-dasharray:none;stroke-dashoffset:0;stroke-opacity:1;paint-order:markers fill stroke"
         id="circle1336"
         cx="7.9360795"
         cy="13.229558"
         r="5.4741378" />
      <circle
         r="5.4741378"
         cy="25.400398"
         cx="7.9360795"
         id="circle881"
         style="display:inline;opacity:1;fill:none;fill-opacity:1;stroke:#ffffff;stroke-width:0.05172414;stroke-linecap:square;stroke-linejoin:round;stroke-miterlimit:4;stroke-dasharray:none;stroke-dashoffset:0;stroke-opacity:1;paint-order:markers fill stroke" />
      <circle
         style="display:inline;opacity:1;fill:none;fill-opacity:1;stroke:#ffffff;stroke-width:0.05172414;stroke-linecap:square;stroke-linejoin:round;stroke-miterlimit:4;stroke-dasharray:none;stroke-dashoffset:0;stroke-opacity:1;paint-order:markers fill stroke"
         id="circle883"
         cx="7.9360795"
         cy="37.571243"
         r="5.4741378" />
      <circle
         r="5.4741378"
         cy="49.742088"
         cx="7.9360795"
         id="circle885"
         style="display:inline;opacity:1;fill:none;fill-opacity:1;stroke:#ffffff;stroke-width:0.05172414;stroke-linecap:square;stroke-linejoin:round;stroke-miterlimit:4;stroke-dasharray:none;stroke-dashoffset:0;stroke-opacity:1;paint-order:markers fill stroke" />
      <circle
         style="display:inline;opacity:1;fill:none;fill-opacity:1;stroke:#ffffff;stroke-width:0.05172414;stroke-linecap:square;stroke-linejoin:round;stroke-miterlimit:4;stroke-dasharray:none;stroke-dashoffset:0;stroke-opacity:1;paint-order:markers fill stroke"
         id="circle887"
         cx="7.9360795"
         cy="61.912933"
         r="5.4741378" />
      <circle
         r="5.4741378"
         cy="74.083778"
         cx="7.9360795"
         id="circle889"
         style="display:inline;opacity:1;fill:none;fill-opacity:1;stroke:#ffffff;stroke-width:0.05172414;stroke-linecap:square;stroke-linejoin:round;stroke-miterlimit:4;stroke-dasharray:none;stroke-dashoffset:0;stroke-opacity:1;paint-order:markers fill stroke" />
      <circle
         style="display:inline;opacity:1;fill:none;fill-opacity:1;stroke:#ffffff;stroke-width:0.05172414;stroke-linecap:square;stroke-linejoin:round;stroke-miterlimit:4;stroke-dasharray:none;stroke-dashoffset:0;stroke-opacity:1;paint-order:markers fill stroke"
         id="circle891"
         cx="7.9360795"
         cy="86.254623"
         r="5.4741378" />
      <text
         id="text3821-5"
         y="5.2916646"
         x="17.197916"
         style="font-style:normal;font-weight:normal;font-size:2.82222223px;line-height:1.25;font-family:sans-serif;letter-spacing:0px;word-spacing:0px;display:inline;fill:#ffffff;fill-opacity:1;stroke:none;stroke-width:0.26458332"
         xml:space="preserve"><tspan
           style="stroke-width:0.26458332"
           y="7.8664637"
           x="17.197916"
           id="tspan3819-5"
           sodipodi:role="line" /></text>
      <path
         style="display:inline;fill:none;stroke:#ffffff;stroke-width:0.05;stroke-linecap:butt;stroke-linejoin:miter;stroke-miterlimit:4;stroke-dasharray:none;stroke-opacity:1"
         d="m 7.9375,-1e-5 -3e-6,100.54167"
         id="path881-8"
         inkscape:connector-curvature="0"
         sodipodi:nodetypes="cc" />
      <path
         sodipodi:nodetypes="cc"
         inkscape:connector-curvature="0"
         id="path890-2"
         d="m 3.968752,0 -4e-6,100.54167"
         style="display:inline;fill:none;stroke:#ffffff;stroke-width:0.05;stroke-linecap:butt;stroke-linejoin:miter;stroke-miterlimit:4;stroke-dasharray:none;stroke-opacity:1" />
      <path
         style="display:inline;fill:none;stroke:#ffffff;stroke-width:0.05;stroke-linecap:butt;stroke-linejoin:miter;stroke-miterlimit:4;stroke-dasharray:none;stroke-opacity:1"
         d="m 11.906253,0 -4e-6,100.54167"
         id="path895-1"
         inkscape:connector-curvature="0"
         sodipodi:nodetypes="cc" />
      <path
         sodipodi:nodetypes="cc"
         inkscape:connector-curvature="0"
         id="path905-6"
         d="m 0,13.22881 15.875,3.6e-4"
         style="display:inline;fill:none;stroke:#ffffff;stroke-width:0.05;stroke-linecap:butt;stroke-linejoin:miter;stroke-miterlimit:4;stroke-dasharray:none;stroke-opacity:1" />
      <path
         sodipodi:nodetypes="cc"
         style="display:inline;fill:none;stroke:#ffffff;stroke-width:0.05;stroke-linecap:butt;stroke-linejoin:miter;stroke-miterlimit:4;stroke-dasharray:none;stroke-opacity:1"
         d="M 0,25.40004 15.875,25.4"
         id="path931"
         inkscape:connector-curvature="0" />
      <path
         sodipodi:nodetypes="cc"
         inkscape:connector-curvature="0"
         id="path933"
         d="m 0,37.56925 15.875,0.002"
         style="display:inline;fill:none;stroke:#ffffff;stroke-width:0.05;stroke-linecap:butt;stroke-linejoin:miter;stroke-miterlimit:4;stroke-dasharray:none;stroke-opacity:1" />
      <path
         sodipodi:nodetypes="cc"
         inkscape:connector-curvature="0"
         id="path940"
         d="m 0,49.74009 15.875,0.002"
         style="display:inline;fill:none;stroke:#ffffff;stroke-width:0.05;stroke-linecap:butt;stroke-linejoin:miter;stroke-miterlimit:4;stroke-dasharray:none;stroke-opacity:1" />
      <path
         sodipodi:nodetypes="cc"
         style="display:inline;fill:none;stroke:#ffffff;stroke-width:0.05;stroke-linecap:butt;stroke-linejoin:miter;stroke-miterlimit:4;stroke-dasharray:none;stroke-opacity:1"
         d="m 0,61.91093 15.875,0.002"
         id="path950"
         inkscape:connector-curvature="0" />
      <path
         sodipodi:nodetypes="cc"
         inkscape:connector-curvature="0"
         id="path973"
         d="m 0,74.08177 15.875,0.002"
         style="display:inline;fill:none;stroke:#ffffff;stroke-width:0.05;stroke-linecap:butt;stroke-linejoin:miter;stroke-miterlimit:4;stroke-dasharray:none;stroke-opacity:1" />
      <path
         sodipodi:nodetypes="cc"
         style="display:inline;fill:none;stroke:#ffffff;stroke-width:0.05;stroke-linecap:butt;stroke-linejoin:miter;stroke-miterlimit:4;stroke-dasharray:none;stroke-opacity:1"
         d="m 0,86.25261 15.875,0.002"
         id="path1013"
         inkscape:connector-curvature="0" />
      <circle
         r="4.0999999"
         cy="13.227975"
         cx="7.9523039"
         id="circle958"
         style="display:inline;opacity:1;fill:none;fill-opacity:1;stroke:#ffffff;stroke-width:0.05;stroke-linecap:square;stroke-linejoin:round;stroke-miterlimit:4;stroke-dasharray:none;stroke-dashoffset:0;stroke-opacity:1;paint-order:markers fill stroke" />
      <circle
         style="display:inline;opacity:1;fill:none;fill-opacity:1;stroke:#ffffff;stroke-width:0.05;stroke-linecap:square;stroke-linejoin:round;stroke-miterlimit:4;stroke-dasharray:none;stroke-dashoffset:0;stroke-opacity:1;paint-order:markers fill stroke"
         id="circle964"
         cx="7.9523039"
         cy="25.398811"
         r="4.0999999" />
      <circle
         r="4.0999999"
         cy="37.569649"
         cx="7.9523039"
         id="circle972"
         style="display:inline;opacity:1;fill:none;fill-opacity:1;stroke:#ffffff;stroke-width:0.05;stroke-linecap:square;stroke-linejoin:round;stroke-miterlimit:4;stroke-dasharray:none;stroke-dashoffset:0;stroke-opacity:1;paint-order:markers fill stroke" />
      <circle
         style="display:inline;opacity:1;fill:none;fill-opacity:1;stroke:#ffffff;stroke-width:0.05;stroke-linecap:square;stroke-linejoin:round;stroke-miterlimit:4;stroke-dasharray:none;stroke-dashoffset:0;stroke-opacity:1;paint-order:markers fill stroke"
         id="circle980"
         cx="7.9523039"
         cy="49.740501"
         r="4.0999999" />
      <circle
         r="4.0999999"
         cy="61.911339"
         cx="7.9523039"
         id="circle988"
         style="display:inline;opacity:1;fill:none;fill-opacity:1;stroke:#ffffff;stroke-width:0.05;stroke-linecap:square;stroke-linejoin:round;stroke-miterlimit:4;stroke-dasharray:none;stroke-dashoffset:0;stroke-opacity:1;paint-order:markers fill stroke" />
      <circle
         style="display:inline;opacity:1;fill:none;fill-opacity:1;stroke:#ffffff;stroke-width:0.05;stroke-linecap:square;stroke-linejoin:round;stroke-miterlimit:4;stroke-dasharray:none;stroke-dashoffset:0;stroke-opacity:1;paint-order:markers fill stroke"
         id="circle996"
         cx="7.9523039"
         cy="74.082176"
         r="4.0999999" />
      <circle
         r="4.0999999"
         cy="86.253014"
         cx="7.9523039"
         id="circle1004"
         style="display:inline;opacity:1;fill:none;fill-opacity:1;stroke:#ffffff;stroke-width:0.05;stroke-linecap:square;stroke-linejoin:round;stroke-miterlimit:4;stroke-dasharray:none;stroke-dashoffset:0;stroke-opacity:1;paint-order:markers fill stroke" />
    </g>
  </g>
</svg>
