<?xml version="1.0" encoding="UTF-8" standalone="no"?>
<!-- Created with Inkscape (http://www.inkscape.org/) -->

<svg
   xmlns:dc="http://purl.org/dc/elements/1.1/"
   xmlns:cc="http://creativecommons.org/ns#"
   xmlns:rdf="http://www.w3.org/1999/02/22-rdf-syntax-ns#"
   xmlns:svg="http://www.w3.org/2000/svg"
   xmlns="http://www.w3.org/2000/svg"
   xmlns:sodipodi="http://sodipodi.sourceforge.net/DTD/sodipodi-0.dtd"
   xmlns:inkscape="http://www.inkscape.org/namespaces/inkscape"
   width="120"
   height="380"
   viewBox="0 0 31.750001 100.54167"
   version="1.1"
   id="svg8"
   inkscape:version="0.92.4 (5da689c313, 2019-01-14)"
   sodipodi:docname="Mixer.svg">
  <defs
     id="defs2">
    <inkscape:path-effect
       effect="powerstroke"
       id="path-effect969"
       is_visible="true"
       offset_points="0,0.13229166"
       sort_points="true"
       interpolator_type="CubicBezierJohan"
       interpolator_beta="0.2"
       start_linecap_type="zerowidth"
       linejoin_type="extrp_arc"
       miter_limit="4"
       end_linecap_type="zerowidth" />
  </defs>
  <sodipodi:namedview
     id="base"
     pagecolor="#ffffff"
     bordercolor="#666666"
     borderopacity="1.0"
     inkscape:pageopacity="0.0"
     inkscape:pageshadow="2"
     inkscape:zoom="2.2789474"
     inkscape:cx="60"
     inkscape:cy="190"
     inkscape:document-units="mm"
     inkscape:current-layer="layer3"
     showgrid="true"
     units="px"
     inkscape:snap-bbox="true"
     inkscape:snap-page="true"
     inkscape:bbox-nodes="true"
     inkscape:snap-bbox-edge-midpoints="true"
     inkscape:window-width="1920"
     inkscape:window-height="1017"
     inkscape:window-x="-8"
     inkscape:window-y="-8"
     inkscape:window-maximized="1"
     showguides="true">
    <inkscape:grid
       type="xygrid"
       id="grid23" />
  </sodipodi:namedview>
  <metadata
     id="metadata5">
    <rdf:RDF>
      <cc:Work
         rdf:about="">
        <dc:format>image/svg+xml</dc:format>
        <dc:type
           rdf:resource="http://purl.org/dc/dcmitype/StillImage" />
        <dc:title />
      </cc:Work>
    </rdf:RDF>
  </metadata>
  <g
     inkscape:groupmode="layer"
     id="layer3"
     inkscape:label="Panel"
     style="display:inline"
     sodipodi:insensitive="true">
    <rect
       id="rect3855"
       width="31.75"
       height="100.54166"
       x="-3.3306691e-16"
       y="-7.0117189e-06"
       style="fill:#520000;fill-opacity:1;stroke-width:0.46816432" />
  </g>
  <g
     inkscape:label="Layer 1"
     inkscape:groupmode="layer"
     id="layer1"
     transform="translate(0,-196.45832)"
     style="display:inline"
     sodipodi:insensitive="true">
    <rect
       y="276.62454"
       x="1.3229166"
       height="12.435422"
       width="13.229167"
       id="rect1311"
       style="fill:#6f1e00;fill-opacity:1;stroke-width:0.55194974" />
    <text
       xml:space="preserve"
       style="font-style:normal;font-weight:normal;font-size:3.17499995px;line-height:1.25;font-family:sans-serif;letter-spacing:0px;word-spacing:0px;fill:#000000;fill-opacity:1;stroke:none;stroke-width:0.26458332"
       x="29.104166"
       y="266.57291"
       id="text35"><tspan
         sodipodi:role="line"
         id="tspan33"
         x="29.104166"
         y="269.38205"
         style="stroke-width:0.26458332" /></text>
    <g
       aria-label="A"
       style="font-style:normal;font-weight:normal;font-size:3.52777767px;line-height:1.25;font-family:sans-serif;letter-spacing:0px;word-spacing:0px;fill:#ffffff;fill-opacity:1;stroke:none;stroke-width:0.26458332"
       id="text152"
       transform="translate(-40.875785,-8.5080082)">
      <path
         d="m 56.768283,218.04184 -0.471978,1.27985 h 0.945679 z m -0.19637,-0.34279 h 0.394463 l 0.98013,2.57176 h -0.361735 l -0.234266,-0.65973 H 56.19123 l -0.234267,0.65973 h -0.366902 z"
         style="font-size:3.52777767px;fill:#ffffff;stroke-width:0.26458332"
         id="path275"
         inkscape:connector-curvature="0" />
    </g>
    <g
       aria-label="B"
       style="font-style:normal;font-weight:normal;font-size:3.52777767px;line-height:1.25;font-family:sans-serif;letter-spacing:0px;word-spacing:0px;fill:#ffffff;fill-opacity:1;stroke:none;stroke-width:0.26458332"
       id="text156"
       transform="translate(-42.252705,0.7556285)">
      <path
         d="m 57.579601,224.33431 v 0.94223 h 0.558105 q 0.280776,0 0.415134,-0.11541 0.136082,-0.11713 0.136082,-0.35657 0,-0.24115 -0.136082,-0.35484 -0.134358,-0.11541 -0.415134,-0.11541 z m 0,-1.05765 v 0.77515 h 0.515042 q 0.254937,0 0.37896,-0.0947 0.125746,-0.0965 0.125746,-0.29283 0,-0.19465 -0.125746,-0.29111 -0.124023,-0.0965 -0.37896,-0.0965 z m -0.347955,-0.28594 h 0.888835 q 0.397908,0 0.613227,0.16537 0.215318,0.16536 0.215318,0.47025 0,0.23599 -0.110243,0.37552 -0.110243,0.13952 -0.323839,0.17397 0.25666,0.0551 0.397909,0.23083 0.142971,0.17397 0.142971,0.4358 0,0.34451 -0.234266,0.53227 -0.234267,0.18775 -0.666626,0.18775 h -0.923286 z"
         style="font-size:3.52777767px;fill:#ffffff;stroke-width:0.26458332"
         id="path278"
         inkscape:connector-curvature="0" />
    </g>
    <g
       aria-label="C"
       style="font-style:normal;font-weight:normal;font-size:3.52777767px;line-height:1.25;font-family:sans-serif;letter-spacing:0px;word-spacing:0px;fill:#ffffff;fill-opacity:1;stroke:none;stroke-width:0.26458332"
       id="text160"
       transform="translate(-39.588784,6.0456954)">
      <path
         d="m 56.511622,232.44924 v 0.3669 q -0.175699,-0.16364 -0.375515,-0.2446 -0.198093,-0.081 -0.422024,-0.081 -0.440972,0 -0.675239,0.27044 -0.234266,0.26871 -0.234266,0.77859 0,0.50815 0.234266,0.77859 0.234267,0.26872 0.675239,0.26872 0.223931,0 0.422024,-0.081 0.199816,-0.081 0.375515,-0.2446 v 0.36345 q -0.18259,0.12403 -0.387573,0.18604 -0.20326,0.062 -0.430637,0.062 -0.583943,0 -0.91984,-0.35657 -0.335897,-0.35829 -0.335897,-0.97668 0,-0.62012 0.335897,-0.97669 0.335897,-0.35829 0.91984,-0.35829 0.230822,0 0.434082,0.062 0.204984,0.0603 0.384128,0.18259 z"
         style="font-size:3.52777767px;fill:#ffffff;stroke-width:0.26458332"
         id="path281"
         inkscape:connector-curvature="0" />
    </g>
    <g
       aria-label="D"
       style="font-style:normal;font-weight:normal;font-size:3.52777767px;line-height:1.25;font-family:sans-serif;letter-spacing:0px;word-spacing:0px;fill:#ffffff;fill-opacity:1;stroke:none;stroke-width:0.26458332"
       id="text164"
       transform="translate(-42.433756,11.337113)">
      <path
         d="m 57.579601,241.79749 v 1.99988 h 0.420301 q 0.532268,0 0.778592,-0.24116 0.248047,-0.24115 0.248047,-0.76136 0,-0.51677 -0.248047,-0.7562 -0.246324,-0.24116 -0.778592,-0.24116 z m -0.347955,-0.28594 h 0.714858 q 0.747585,0 1.097262,0.31178 0.349678,0.31006 0.349678,0.97152 0,0.6649 -0.3514,0.97668 -0.3514,0.31178 -1.09554,0.31178 h -0.714858 z"
         style="font-size:3.52777767px;fill:#ffffff;stroke-width:0.26458332"
         id="path284"
         inkscape:connector-curvature="0" />
    </g>
    <rect
       style="fill:#6f1e00;fill-opacity:1;stroke-width:0.81867379"
       id="rect134-0"
       width="29.104168"
       height="12.435422"
       x="1.3229166"
       y="262.07498" />
    <g
       aria-label="O/L"
       style="font-style:normal;font-weight:normal;font-size:2.11666656px;line-height:1.25;font-family:sans-serif;letter-spacing:0px;word-spacing:0px;fill:#ffffff;fill-opacity:1;stroke:none;stroke-width:0.26458332"
       id="text4004"
       transform="translate(-22.99592,5.024399)">
      <path
         d="m 37.875726,259.87979 q -0.227377,0 -0.361735,0.16949 -0.133326,0.1695 -0.133326,0.46199 0,0.29146 0.133326,0.46095 0.134358,0.1695 0.361735,0.1695 0.227376,0 0.359667,-0.1695 0.133326,-0.16949 0.133326,-0.46095 0,-0.29249 -0.133326,-0.46199 -0.132291,-0.16949 -0.359667,-0.16949 z m 0,-0.1695 q 0.324527,0 0.518831,0.21807 0.194303,0.21704 0.194303,0.58291 0,0.36484 -0.194303,0.58291 -0.194304,0.21704 -0.518831,0.21704 -0.325562,0 -0.520899,-0.21704 -0.194303,-0.21704 -0.194303,-0.58291 0,-0.36587 0.194303,-0.58291 0.195337,-0.21807 0.520899,-0.21807 z"
         style="font-size:2.11666656px;fill:#ffffff;stroke-width:0.26458332"
         id="path4006"
         inkscape:connector-curvature="0" />
      <path
         d="m 39.245151,259.73819 h 0.1757 l -0.537435,1.73943 h -0.1757 z"
         style="font-size:2.11666656px;fill:#ffffff;stroke-width:0.26458332"
         id="path4008"
         inkscape:connector-curvature="0" />
      <path
         d="m 39.630657,259.73819 h 0.208773 v 1.36736 h 0.751375 v 0.1757 h -0.960148 z"
         style="font-size:2.11666656px;fill:#ffffff;stroke-width:0.26458332"
         id="path4010"
         inkscape:connector-curvature="0" />
    </g>
    <g
       aria-label="/^M^\"
       style="font-style:normal;font-variant:normal;font-weight:normal;font-stretch:normal;font-size:2.82222223px;line-height:1.25;font-family:'Copperplate Gothic Light';-inkscape-font-specification:'Copperplate Gothic Light, ';letter-spacing:0px;word-spacing:0px;fill:#ffffff;fill-opacity:1;stroke:#ffffff;stroke-width:0.2;stroke-miterlimit:4;stroke-dasharray:none;stroke-opacity:1"
       id="text956"
       transform="translate(-9.481569,3.7459278)">
      <path
         d="m 21.203855,291.40545 v 0.0386 h -0.434082 v -0.0386 q 0.09509,-0.006 0.224621,-0.17088 l 1.094162,-1.4621 q 0.07441,-0.1006 0.07441,-0.12402 0,-0.0372 -0.06615,-0.0482 v -0.0372 h 0.423058 v 0.0372 q -0.09508,0.006 -0.22462,0.17087 l -1.08176,1.46348 q -0.07579,0.10197 -0.07579,0.12402 0,0.0358 0.06615,0.0469 z"
         style="font-style:normal;font-variant:normal;font-weight:normal;font-stretch:normal;font-size:2.82222223px;line-height:1.25;font-family:'Copperplate Gothic Light';-inkscape-font-specification:'Copperplate Gothic Light, ';fill:#ffffff;stroke:#ffffff;stroke-width:0.2;stroke-miterlimit:4;stroke-dasharray:none;stroke-opacity:1"
         id="path958"
         inkscape:connector-curvature="0" />
      <path
         d="M 22.940183,290.3857 H 22.73899 l 0.493338,-0.8282 h 0.243912 l 0.493338,0.8282 h -0.20395 l -0.413411,-0.68075 z"
         style="font-style:normal;font-variant:normal;font-weight:normal;font-stretch:normal;font-size:2.82222223px;line-height:1.25;font-family:'Copperplate Gothic Light';-inkscape-font-specification:'Copperplate Gothic Light, ';fill:#ffffff;stroke:#ffffff;stroke-width:0.2;stroke-miterlimit:4;stroke-dasharray:none;stroke-opacity:1"
         id="path960"
         inkscape:connector-curvature="0" />
      <path
         d="m 25.342104,291.44403 -0.789616,-1.58061 v 1.418 q 0,0.0565 0.01791,0.0813 0.01791,0.0234 0.07028,0.0372 v 0.0441 h -0.373449 v -0.0441 q 0.05237,-0.0138 0.07028,-0.0372 0.01792,-0.0234 0.01792,-0.0813 v -1.5558 q 0,-0.0579 -0.01792,-0.0813 -0.01791,-0.0248 -0.07028,-0.0372 v -0.0441 h 0.487826 v 0.0441 q -0.06752,0.0234 -0.06752,0.0579 0,0.0165 0.04547,0.10611 l 0.62563,1.24161 0.628385,-1.25263 q 0.03307,-0.0661 0.03307,-0.0937 0,-0.0358 -0.06752,-0.0593 v -0.0441 h 0.49196 v 0.0441 q -0.05237,0.0138 -0.07028,0.0372 -0.01792,0.0234 -0.01792,0.0813 v 1.5558 q 0,0.0565 0.01792,0.0813 0.01791,0.0234 0.07028,0.0372 v 0.0441 h -0.392741 v -0.0441 q 0.05374,-0.0138 0.07028,-0.0372 0.01791,-0.0234 0.01791,-0.0813 v -1.418 z"
         style="font-style:normal;font-variant:normal;font-weight:normal;font-stretch:normal;font-size:2.82222223px;line-height:1.25;font-family:'Copperplate Gothic Light';-inkscape-font-specification:'Copperplate Gothic Light, ';fill:#ffffff;stroke:#ffffff;stroke-width:0.2;stroke-miterlimit:4;stroke-dasharray:none;stroke-opacity:1"
         id="path962"
         inkscape:connector-curvature="0" />
      <path
         d="m 26.942006,290.3857 h -0.201193 l 0.493338,-0.8282 h 0.243912 l 0.493338,0.8282 h -0.20395 l -0.413411,-0.68075 z"
         style="font-style:normal;font-variant:normal;font-weight:normal;font-stretch:normal;font-size:2.82222223px;line-height:1.25;font-family:'Copperplate Gothic Light';-inkscape-font-specification:'Copperplate Gothic Light, ';fill:#ffffff;stroke:#ffffff;stroke-width:0.2;stroke-miterlimit:4;stroke-dasharray:none;stroke-opacity:1"
         id="path964"
         inkscape:connector-curvature="0" />
      <path
         d="m 28.617701,289.56301 v 0.0372 q -0.06615,0.011 -0.06615,0.0482 0,0.0234 0.07441,0.12402 l 1.092784,1.4621 q 0.129536,0.16536 0.22462,0.17088 v 0.0386 h -0.434082 v -0.0386 q 0.06615,-0.011 0.06615,-0.0469 0,-0.0207 -0.07579,-0.12402 l -1.080382,-1.46348 q -0.129535,-0.16536 -0.22462,-0.17087 v -0.0372 z"
         style="font-style:normal;font-variant:normal;font-weight:normal;font-stretch:normal;font-size:2.82222223px;line-height:1.25;font-family:'Copperplate Gothic Light';-inkscape-font-specification:'Copperplate Gothic Light, ';fill:#ffffff;stroke:#ffffff;stroke-width:0.2;stroke-miterlimit:4;stroke-dasharray:none;stroke-opacity:1"
         id="path966"
         inkscape:connector-curvature="0" />
    </g>
    <g
       aria-label="INPUTS"
       style="font-style:normal;font-variant:normal;font-weight:normal;font-stretch:normal;font-size:2.82222223px;line-height:1.25;font-family:'Yu Gothic UI';-inkscape-font-specification:'Yu Gothic UI';letter-spacing:0px;word-spacing:0px;fill:#ffffff;fill-opacity:1;stroke:none;stroke-width:0.26458332"
       id="text1132">
      <path
         d="M 3.6892084,204.39581 H 3.4576979 v -1.9761 h 0.2315105 z"
         style="fill:#ffffff;stroke-width:0.26458332"
         id="path1134"
         inkscape:connector-curvature="0" />
      <path
         d="M 5.8003629,204.39581 H 5.516487 l -1.0169922,-1.57509 q -0.038585,-0.0593 -0.06339,-0.12403 h -0.00827 q 0.011024,0.0634 0.011024,0.27148 v 1.42764 H 4.2073507 v -1.9761 H 4.5077631 L 5.4971945,203.97 q 0.062012,0.0965 0.079926,0.13229 h 0.00551 q -0.01378,-0.0854 -0.01378,-0.29077 v -1.39181 h 0.2315104 z"
         style="fill:#ffffff;stroke-width:0.26458332"
         id="path1136"
         inkscape:connector-curvature="0" />
      <path
         d="m 6.5500158,203.64892 v 0.74689 H 6.3185054 v -1.9761 h 0.542947 q 0.3169488,0 0.4905816,0.15434 0.1750109,0.15434 0.1750109,0.43546 0,0.28112 -0.1943034,0.46026 -0.1929254,0.17915 -0.5222765,0.17915 z m 0,-1.01975 v 0.81028 h 0.2425347 q 0.2397786,0 0.3651801,-0.10886 0.1267795,-0.11024 0.1267795,-0.31006 0,-0.39136 -0.4630208,-0.39136 z"
         style="fill:#ffffff;stroke-width:0.26458332"
         id="path1138"
         inkscape:connector-curvature="0" />
      <path
         d="m 9.3460553,203.59655 q 0,0.83234 -0.7510308,0.83234 -0.719336,0 -0.719336,-0.80064 v -1.20854 h 0.2315104 v 1.19338 q 0,0.60771 0.5126303,0.60771 0.4947157,0 0.4947157,-0.58704 v -1.21405 h 0.2315104 z"
         style="fill:#ffffff;stroke-width:0.26458332"
         id="path1140"
         inkscape:connector-curvature="0" />
      <path
         d="m 11.009347,202.62917 h -0.570508 v 1.76664 h -0.23151 v -1.76664 H 9.6381992 v -0.20946 h 1.3711478 z"
         style="fill:#ffffff;stroke-width:0.26458332"
         id="path1142"
         inkscape:connector-curvature="0" />
      <path
         d="m 11.198139,204.31589 v -0.27285 q 0.04685,0.0413 0.111621,0.0744 0.06615,0.0331 0.137804,0.0565 0.07304,0.0221 0.146072,0.0345 0.07304,0.0124 0.135047,0.0124 0.213596,0 0.318327,-0.0786 0.106109,-0.0799 0.106109,-0.22875 0,-0.0799 -0.03583,-0.13918 -0.03445,-0.0593 -0.09646,-0.10749 -0.06201,-0.0496 -0.147451,-0.0937 -0.08406,-0.0455 -0.181901,-0.0951 -0.103352,-0.0524 -0.192925,-0.10611 -0.08957,-0.0537 -0.155718,-0.11851 -0.06615,-0.0648 -0.104731,-0.14607 -0.03721,-0.0827 -0.03721,-0.19293 0,-0.13505 0.05926,-0.23426 0.05926,-0.1006 0.155719,-0.16537 0.09646,-0.0648 0.219108,-0.0965 0.124023,-0.0317 0.252181,-0.0317 0.292144,0 0.425814,0.0703 v 0.26045 q -0.175011,-0.12126 -0.449241,-0.12126 -0.07579,0 -0.151584,0.0165 -0.07579,0.0152 -0.135048,0.051 -0.05926,0.0358 -0.09646,0.0923 -0.03721,0.0565 -0.03721,0.1378 0,0.0758 0.02756,0.13091 0.02894,0.0551 0.08406,0.1006 0.05512,0.0455 0.133669,0.0882 0.07993,0.0427 0.183279,0.0937 0.106109,0.0524 0.201194,0.11025 0.09509,0.0579 0.166743,0.12815 0.07166,0.0703 0.112999,0.15572 0.04272,0.0854 0.04272,0.19568 0,0.14608 -0.05788,0.24805 -0.0565,0.1006 -0.15434,0.16399 -0.09646,0.0634 -0.223242,0.0909 -0.12678,0.0289 -0.26734,0.0289 -0.04685,0 -0.115755,-0.008 -0.0689,-0.007 -0.14056,-0.0221 -0.07166,-0.0138 -0.136425,-0.0344 -0.06339,-0.0221 -0.101975,-0.0482 z"
         style="fill:#ffffff;stroke-width:0.26458332"
         id="path1144"
         inkscape:connector-curvature="0" />
    </g>
    <g
       id="g1309"
       transform="translate(-7.8368955)"
       style="fill:#ffffff">
      <path
         d="m 21.262442,200.42706 h -0.406521 v -1.59852 q 0,-0.19637 0.02412,-0.48059 h -0.0069 q -0.0379,0.16192 -0.06718,0.23254 l -0.73725,1.84657 h -0.282498 l -0.738973,-1.83279 q -0.03101,-0.081 -0.06546,-0.24632 h -0.0069 q 0.01378,0.14814 0.01378,0.48403 v 1.59508 H 18.6097 v -2.47013 h 0.577053 l 0.649401,1.64503 q 0.07407,0.18948 0.09646,0.2825 h 0.0086 q 0.06374,-0.19465 0.103353,-0.28939 l 0.661459,-1.63814 h 0.556382 z"
         style="font-style:normal;font-variant:normal;font-weight:bold;font-stretch:normal;font-size:3.52777767px;line-height:1.25;font-family:'Yu Gothic UI';-inkscape-font-specification:'Yu Gothic UI Bold';letter-spacing:0px;word-spacing:0px;fill:#ffffff;fill-opacity:1;stroke:none;stroke-width:0.26458332"
         id="path1163"
         inkscape:connector-curvature="0" />
      <path
         d="m 22.28908,200.42706 h -0.422025 v -2.47013 h 0.422025 z"
         style="font-style:normal;font-variant:normal;font-weight:bold;font-stretch:normal;font-size:3.52777767px;line-height:1.25;font-family:'Yu Gothic UI';-inkscape-font-specification:'Yu Gothic UI Bold';letter-spacing:0px;word-spacing:0px;fill:#ffffff;fill-opacity:1;stroke:none;stroke-width:0.26458332"
         id="path1165"
         inkscape:connector-curvature="0" />
      <path
         d="M 24.741989,200.42706 H 24.251063 L 23.744634,199.521 q -0.02239,-0.0413 -0.04995,-0.11713 h -0.0069 q -0.0155,0.0379 -0.05168,0.11713 l -0.521932,0.90606 h -0.494371 l 0.809598,-1.24195 -0.744141,-1.22818 h 0.501261 l 0.44614,0.83371 q 0.04306,0.0827 0.07751,0.16537 h 0.0052 q 0.04995,-0.10852 0.08613,-0.17226 l 0.463365,-0.82682 h 0.461643 l -0.761366,1.22473 z"
         style="font-style:normal;font-variant:normal;font-weight:bold;font-stretch:normal;font-size:3.52777767px;line-height:1.25;font-family:'Yu Gothic UI';-inkscape-font-specification:'Yu Gothic UI Bold';letter-spacing:0px;word-spacing:0px;fill:#ffffff;fill-opacity:1;stroke:none;stroke-width:0.26458332"
         id="path1167"
         inkscape:connector-curvature="0" />
      <path
         d="m 26.46626,200.42706 h -1.386651 v -2.47013 h 1.331529 v 0.34795 h -0.921563 v 0.69936 h 0.849216 v 0.34623 h -0.849216 v 0.73036 h 0.976685 z"
         style="font-style:normal;font-variant:normal;font-weight:bold;font-stretch:normal;font-size:3.52777767px;line-height:1.25;font-family:'Yu Gothic UI';-inkscape-font-specification:'Yu Gothic UI Bold';letter-spacing:0px;word-spacing:0px;fill:#ffffff;fill-opacity:1;stroke:none;stroke-width:0.26458332"
         id="path1169"
         inkscape:connector-curvature="0" />
      <path
         d="m 28.814091,200.42706 h -0.478869 l -0.394463,-0.66146 q -0.0534,-0.0913 -0.105075,-0.15502 -0.04995,-0.0655 -0.103353,-0.1068 -0.05168,-0.0413 -0.113689,-0.0603 -0.06201,-0.0189 -0.139526,-0.0189 h -0.165364 v 1.00252 h -0.408244 v -2.47013 h 0.813042 q 0.173978,0 0.320394,0.0413 0.146417,0.0413 0.254937,0.12575 0.108521,0.0827 0.16881,0.20842 0.06201,0.12403 0.06201,0.29112 0,0.13091 -0.03962,0.24115 -0.0379,0.10852 -0.110243,0.19465 -0.07062,0.0844 -0.172255,0.14469 -0.09991,0.0603 -0.225654,0.093 v 0.007 q 0.06718,0.0379 0.117134,0.0844 0.04995,0.0448 0.09474,0.093 0.04479,0.0482 0.08785,0.11025 0.04479,0.0603 0.09819,0.14125 z m -1.500339,-2.13768 v 0.80271 h 0.341064 q 0.09474,0 0.173977,-0.0293 0.08096,-0.0293 0.139527,-0.0844 0.05857,-0.0551 0.09129,-0.13436 0.03273,-0.0792 0.03273,-0.17742 0,-0.17742 -0.111965,-0.27733 -0.111966,-0.0999 -0.322117,-0.0999 z"
         style="font-style:normal;font-variant:normal;font-weight:bold;font-stretch:normal;font-size:3.52777767px;line-height:1.25;font-family:'Yu Gothic UI';-inkscape-font-specification:'Yu Gothic UI Bold';letter-spacing:0px;word-spacing:0px;fill:#ffffff;fill-opacity:1;stroke:none;stroke-width:0.26458332"
         id="path1171"
         inkscape:connector-curvature="0" />
    </g>
    <g
       aria-label="OUTPUT"
       style="font-style:normal;font-variant:normal;font-weight:normal;font-stretch:normal;font-size:2.82222223px;line-height:1.25;font-family:'Yu Gothic UI';-inkscape-font-specification:'Yu Gothic UI';letter-spacing:0px;word-spacing:0px;fill:#ffffff;fill-opacity:1;stroke:none;stroke-width:0.26458332"
       id="text1176"
       transform="translate(-5.3666667e-7,-3.1803726)">
      <path
         d="m 3.6744952,267.77843 q -0.4203016,0 -0.6738607,-0.27698 -0.252181,-0.27699 -0.252181,-0.72072 0,-0.4768 0.2576932,-0.76067 0.2576931,-0.28388 0.7014214,-0.28388 0.4092774,0 0.6587023,0.27561 0.2508029,0.27561 0.2508029,0.72071 0,0.48369 -0.2563151,0.76481 -0.2563151,0.28112 -0.686263,0.28112 z m 0.016536,-1.83279 q -0.3114367,0 -0.5057401,0.22462 -0.1943033,0.22462 -0.1943033,0.5898 0,0.36518 0.1887912,0.58843 0.1901693,0.22186 0.4947157,0.22186 0.325217,0 0.5126302,-0.21222 0.1874132,-0.21222 0.1874132,-0.59393 0,-0.39136 -0.181901,-0.60496 -0.1819011,-0.2136 -0.5016059,-0.2136 z"
         style="fill:#ffffff;stroke-width:0.26458332"
         id="path1201"
         inkscape:connector-curvature="0" />
      <path
         d="m 6.4512422,266.9461 q 0,0.83233 -0.7510308,0.83233 -0.7193359,0 -0.7193359,-0.80064 v -1.20854 h 0.2315104 v 1.19339 q 0,0.60771 0.5126302,0.60771 0.4947157,0 0.4947157,-0.58704 v -1.21406 h 0.2315104 z"
         style="fill:#ffffff;stroke-width:0.26458332"
         id="path1203"
         inkscape:connector-curvature="0" />
      <path
         d="M 8.1145344,265.97872 H 7.5440265 v 1.76664 H 7.3125161 v -1.76664 H 6.7433864 v -0.20947 h 1.371148 z"
         style="fill:#ffffff;stroke-width:0.26458332"
         id="path1205"
         inkscape:connector-curvature="0" />
      <path
         d="m 8.6547252,266.99846 v 0.7469 H 8.4232147 v -1.97611 h 0.5429471 q 0.3169488,0 0.4905816,0.15434 0.1750108,0.15435 0.1750108,0.43546 0,0.28112 -0.1943033,0.46027 -0.1929254,0.17914 -0.5222765,0.17914 z m 0,-1.01974 v 0.81028 h 0.2425347 q 0.2397786,0 0.3651801,-0.10886 0.1267795,-0.11025 0.1267795,-0.31006 0,-0.39136 -0.4630208,-0.39136 z"
         style="fill:#ffffff;stroke-width:0.26458332"
         id="path1207"
         inkscape:connector-curvature="0" />
      <path
         d="m 11.450765,266.9461 q 0,0.83233 -0.751031,0.83233 -0.7193361,0 -0.7193361,-0.80064 v -1.20854 h 0.2315101 v 1.19339 q 0,0.60771 0.512631,0.60771 0.494715,0 0.494715,-0.58704 v -1.21406 h 0.231511 z"
         style="fill:#ffffff;stroke-width:0.26458332"
         id="path1209"
         inkscape:connector-curvature="0" />
      <path
         d="m 13.114057,265.97872 h -0.570508 v 1.76664 h -0.23151 v -1.76664 h -0.56913 v -0.20947 h 1.371148 z"
         style="fill:#ffffff;stroke-width:0.26458332"
         id="path1211"
         inkscape:connector-curvature="0" />
    </g>
    <g
       aria-label="BIPOLAR"
       transform="matrix(1.0307442,0,0,1.0366493,2.6373993,-1.2184619)"
       style="font-style:normal;font-variant:normal;font-weight:normal;font-stretch:normal;font-size:2.04183459px;line-height:1.25;font-family:'Yu Gothic UI';-inkscape-font-specification:'Yu Gothic UI';letter-spacing:0px;word-spacing:0px;fill:#ffffff;fill-opacity:1;stroke:none;stroke-width:0.25522932"
       id="text1227">
      <path
         d="m 16.720637,269.88354 v -1.42968 h 0.406772 q 0.18544,0 0.294112,0.0907 0.108672,0.0907 0.108672,0.23628 0,0.12164 -0.0658,0.21137 -0.0658,0.0897 -0.181452,0.12761 v 0.004 q 0.144564,0.017 0.231302,0.10967 0.08674,0.0917 0.08674,0.23928 0,0.18344 -0.131603,0.2971 -0.131602,0.11365 -0.331997,0.11365 z m 0.167494,-1.27814 v 0.46161 h 0.171483 q 0.137584,0 0.216346,-0.0658 0.07876,-0.0668 0.07876,-0.18743 0,-0.20838 -0.274173,-0.20838 z m 0,0.61216 v 0.51444 h 0.227314 q 0.147554,0 0.228311,-0.0698 0.08175,-0.0698 0.08175,-0.19142 0,-0.25323 -0.344959,-0.25323 z"
         style="font-size:2.04183459px;fill:#ffffff;stroke-width:0.25522932"
         id="path1233"
         inkscape:connector-curvature="0" />
      <path
         d="m 18.060591,269.88354 h -0.167494 v -1.42968 h 0.167494 z"
         style="font-size:2.04183459px;fill:#ffffff;stroke-width:0.25522932"
         id="path1235"
         inkscape:connector-curvature="0" />
      <path
         d="m 18.602953,269.34318 v 0.54036 h -0.167494 v -1.42968 h 0.392814 q 0.229308,0 0.354928,0.11166 0.126618,0.11167 0.126618,0.31505 0,0.20339 -0.140575,0.333 -0.139579,0.12961 -0.37786,0.12961 z m 0,-0.73778 v 0.58623 h 0.175471 q 0.173476,0 0.264202,-0.0788 0.09172,-0.0798 0.09172,-0.22432 0,-0.28315 -0.334989,-0.28315 z"
         style="font-size:2.04183459px;fill:#ffffff;stroke-width:0.25522932"
         id="path1237"
         inkscape:connector-curvature="0" />
      <path
         d="m 20.156263,269.90747 q -0.304082,0 -0.487528,-0.20039 -0.182449,-0.2004 -0.182449,-0.52143 0,-0.34496 0.186437,-0.55034 0.186437,-0.20538 0.507468,-0.20538 0.296106,0 0.476561,0.1994 0.181452,0.1994 0.181452,0.52143 0,0.34994 -0.18544,0.55333 -0.18544,0.20338 -0.496501,0.20338 z m 0.01196,-1.32599 q -0.22532,0 -0.365895,0.16251 -0.140576,0.16251 -0.140576,0.42671 0,0.2642 0.136588,0.42571 0.137584,0.16052 0.357919,0.16052 0.23529,0 0.37088,-0.15354 0.135591,-0.15354 0.135591,-0.4297 0,-0.28315 -0.131603,-0.43768 -0.131602,-0.15453 -0.362904,-0.15453 z"
         style="font-size:2.04183459px;fill:#ffffff;stroke-width:0.25522932"
         id="path1239"
         inkscape:connector-curvature="0" />
      <path
         d="m 21.861115,269.88354 h -0.74176 v -1.42968 h 0.167494 v 1.27814 h 0.574266 z"
         style="font-size:2.04183459px;fill:#ffffff;stroke-width:0.25522932"
         id="path1241"
         inkscape:connector-curvature="0" />
      <path
         d="m 23.187111,269.88354 h -0.18544 l -0.151542,-0.40078 h -0.60617 l -0.142569,0.40078 h -0.186438 l 0.548345,-1.42968 h 0.173476 z m -0.391817,-0.55133 -0.224322,-0.60916 q -0.01097,-0.0299 -0.02193,-0.0957 h -0.004 q -0.01,0.0608 -0.02293,0.0957 l -0.222329,0.60916 z"
         style="font-size:2.04183459px;fill:#ffffff;stroke-width:0.25522932"
         id="path1243"
         inkscape:connector-curvature="0" />
      <path
         d="m 24.421384,269.88354 h -0.199398 l -0.239277,-0.40078 q -0.0329,-0.0558 -0.06381,-0.0947 -0.03091,-0.0399 -0.06381,-0.0648 -0.0319,-0.0249 -0.06979,-0.0359 -0.03689,-0.012 -0.08375,-0.012 h -0.137585 v 0.60816 H 23.39647 v -1.42968 h 0.426711 q 0.09372,0 0.17248,0.0239 0.07976,0.0229 0.137584,0.0708 0.05882,0.0478 0.09172,0.11963 0.0329,0.0708 0.0329,0.1665 0,0.0748 -0.02293,0.13759 -0.02193,0.0618 -0.06381,0.11066 -0.04088,0.0488 -0.0997,0.0838 -0.05783,0.0339 -0.130606,0.0528 v 0.004 q 0.03589,0.0159 0.06181,0.0369 0.02692,0.0199 0.05085,0.0479 0.02393,0.0279 0.04686,0.0638 0.02393,0.0349 0.05284,0.0817 z m -0.857411,-1.27814 v 0.51844 h 0.227314 q 0.06281,0 0.115651,-0.0189 0.05384,-0.0189 0.09272,-0.0538 0.03888,-0.0359 0.06082,-0.0867 0.02193,-0.0518 0.02193,-0.11565 0,-0.11465 -0.07477,-0.17846 -0.07378,-0.0648 -0.214353,-0.0648 z"
         style="font-size:2.04183459px;fill:#ffffff;stroke-width:0.25522932"
         id="path1245"
         inkscape:connector-curvature="0" />
    </g>
    <g
       aria-label="UNIPOLAR"
       transform="matrix(0.97868081,0,0,1.0217836,3.9970988,-1.2184619)"
       style="font-style:normal;font-variant:normal;font-weight:normal;font-stretch:normal;font-size:2.07154107px;line-height:1.25;font-family:'Yu Gothic UI';-inkscape-font-specification:'Yu Gothic UI';letter-spacing:0px;word-spacing:0px;fill:#ffffff;fill-opacity:1;stroke:none;stroke-width:0.25894263"
       id="text1231">
      <path
         d="m 16.542814,283.84262 q 0,0.61095 -0.551264,0.61095 -0.528,0 -0.528,-0.58768 v -0.88708 h 0.169931 v 0.87595 q 0,0.44607 0.376276,0.44607 0.363126,0 0.363126,-0.4309 v -0.89112 h 0.169931 z"
         style="font-size:2.07154107px;fill:#ffffff;stroke-width:0.25894263"
         id="path1248"
         inkscape:connector-curvature="0" />
      <path
         d="m 18.075229,284.42929 h -0.208368 l -0.746483,-1.15614 q -0.02832,-0.0435 -0.04653,-0.091 h -0.0061 q 0.0081,0.0465 0.0081,0.19926 v 1.04791 h -0.169931 v -1.45048 h 0.220506 l 0.726253,1.13793 q 0.04552,0.0708 0.05867,0.0971 h 0.004 q -0.01012,-0.0627 -0.01012,-0.21342 v -1.02161 h 0.169931 z"
         style="font-size:2.07154107px;fill:#ffffff;stroke-width:0.25894263"
         id="path1250"
         inkscape:connector-curvature="0" />
      <path
         d="m 18.625482,284.42929 h -0.169931 v -1.45048 h 0.169931 z"
         style="font-size:2.07154107px;fill:#ffffff;stroke-width:0.25894263"
         id="path1252"
         inkscape:connector-curvature="0" />
      <path
         d="m 19.175735,283.88106 v 0.54823 h -0.169931 v -1.45048 h 0.398529 q 0.232644,0 0.360092,0.11328 0.12846,0.11329 0.12846,0.31964 0,0.20634 -0.142621,0.33784 -0.141609,0.13149 -0.383357,0.13149 z m 0,-0.74851 v 0.59476 h 0.178023 q 0.176,0 0.268046,-0.0799 0.09306,-0.0809 0.09306,-0.22759 0,-0.28727 -0.339863,-0.28727 z"
         style="font-size:2.07154107px;fill:#ffffff;stroke-width:0.25894263"
         id="path1254"
         inkscape:connector-curvature="0" />
      <path
         d="m 20.751644,284.45357 q -0.308506,0 -0.494621,-0.20331 -0.185104,-0.20331 -0.185104,-0.52902 0,-0.34997 0.18915,-0.55834 0.189149,-0.20837 0.51485,-0.20837 0.300414,0 0.483495,0.2023 0.184092,0.2023 0.184092,0.52901 0,0.35504 -0.188138,0.56138 -0.188138,0.20635 -0.503724,0.20635 z m 0.01214,-1.34529 q -0.228597,0 -0.371218,0.16487 -0.142621,0.16488 -0.142621,0.43292 0,0.26805 0.138575,0.43191 0.139586,0.16285 0.363127,0.16285 0.238712,0 0.376276,-0.15577 0.137563,-0.15577 0.137563,-0.43595 0,-0.28727 -0.133518,-0.44405 -0.133517,-0.15678 -0.368184,-0.15678 z"
         style="font-size:2.07154107px;fill:#ffffff;stroke-width:0.25894263"
         id="path1256"
         inkscape:connector-curvature="0" />
      <path
         d="m 22.4813,284.42929 h -0.752552 v -1.45048 h 0.169931 v 1.29673 H 22.4813 Z"
         style="font-size:2.07154107px;fill:#ffffff;stroke-width:0.25894263"
         id="path1258"
         inkscape:connector-curvature="0" />
      <path
         d="m 23.826587,284.42929 h -0.188138 l -0.153747,-0.40662 h -0.614989 l -0.144644,0.40662 H 22.53592 l 0.556322,-1.45048 h 0.176 z m -0.397517,-0.55936 -0.227587,-0.61802 q -0.01113,-0.0303 -0.02225,-0.0971 h -0.004 q -0.01011,0.0617 -0.02326,0.0971 l -0.225563,0.61802 z"
         style="font-size:2.07154107px;fill:#ffffff;stroke-width:0.25894263"
         id="path1260"
         inkscape:connector-curvature="0" />
      <path
         d="m 25.078818,284.42929 h -0.202299 l -0.242758,-0.40662 q -0.03338,-0.0566 -0.06474,-0.0961 -0.03136,-0.0405 -0.06474,-0.0657 -0.03237,-0.0253 -0.0708,-0.0364 -0.03743,-0.0121 -0.08497,-0.0121 h -0.139586 v 0.61701 h -0.169931 v -1.45048 h 0.432919 q 0.09508,0 0.174989,0.0243 0.08092,0.0233 0.139586,0.0718 0.05968,0.0485 0.09306,0.12138 0.03338,0.0718 0.03338,0.16892 0,0.0759 -0.02326,0.13958 -0.02225,0.0627 -0.06474,0.11228 -0.04147,0.0496 -0.101149,0.085 -0.05867,0.0344 -0.132506,0.0536 v 0.004 q 0.03641,0.0162 0.06271,0.0374 0.02731,0.0202 0.05159,0.0486 0.02428,0.0283 0.04754,0.0647 0.02428,0.0354 0.05361,0.0829 z m -0.869885,-1.29674 v 0.52598 h 0.230621 q 0.06372,0 0.117333,-0.0192 0.05462,-0.0192 0.09407,-0.0546 0.03945,-0.0364 0.0617,-0.088 0.02225,-0.0526 0.02225,-0.11733 0,-0.11632 -0.07586,-0.18106 -0.07485,-0.0658 -0.217471,-0.0658 z"
         style="font-size:2.07154107px;fill:#ffffff;stroke-width:0.25894263"
         id="path1262"
         inkscape:connector-curvature="0" />
    </g>
    <g
       aria-label="INVERTED"
       style="font-style:normal;font-variant:normal;font-weight:normal;font-stretch:normal;font-size:2.82222223px;line-height:1.25;font-family:'Yu Gothic UI';-inkscape-font-specification:'Yu Gothic UI';letter-spacing:0px;word-spacing:0px;fill:#ffffff;fill-opacity:1;stroke:none;stroke-width:0.26458332"
       id="text1104"
       transform="translate(-3.7375755,1.9830319)">
      <path
         d="M 5.7822481,277.15625 H 5.5507377 v -1.97611 h 0.2315104 z"
         style="fill:#ffffff;stroke-width:0.26458332"
         id="path1106"
         inkscape:connector-curvature="0" />
      <path
         d="M 7.8934027,277.15625 H 7.6095268 l -1.0169922,-1.5751 q -0.038585,-0.0592 -0.06339,-0.12402 h -0.00827 q 0.011024,0.0634 0.011024,0.27147 v 1.42765 H 6.3003905 v -1.97611 h 0.3004123 l 0.9894314,1.5503 q 0.062012,0.0965 0.079926,0.13229 h 0.00551 q -0.01378,-0.0854 -0.01378,-0.29077 v -1.39182 h 0.2315105 z"
         style="fill:#ffffff;stroke-width:0.26458332"
         id="path1108"
         inkscape:connector-curvature="0" />
      <path
         d="m 9.8805338,275.18014 -0.7317383,1.97611 h -0.254937 l -0.7165799,-1.97611 h 0.2576932 l 0.5470811,1.56683 q 0.026183,0.0758 0.039963,0.17501 h 0.00551 q 0.011024,-0.0827 0.045475,-0.17776 l 0.5581055,-1.56408 z"
         style="fill:#ffffff;stroke-width:0.26458332"
         id="path1110"
         inkscape:connector-curvature="0" />
      <path
         d="m 11.211719,277.15625 h -1.04731 v -1.97611 h 1.003212 v 0.20947 H 10.39592 v 0.65732 h 0.713824 v 0.20808 H 10.39592 v 0.69178 h 0.815799 z"
         style="fill:#ffffff;stroke-width:0.26458332"
         id="path1112"
         inkscape:connector-curvature="0" />
      <path
         d="m 13.00868,277.15625 h -0.275607 l -0.330729,-0.55397 q -0.04548,-0.0772 -0.08819,-0.13091 -0.04272,-0.0551 -0.08819,-0.0896 -0.0441,-0.0345 -0.09646,-0.0496 -0.05099,-0.0165 -0.115755,-0.0165 h -0.19017 v 0.8406 h -0.23151 v -1.97611 h 0.5898 q 0.129536,0 0.238401,0.0331 0.110243,0.0317 0.190169,0.0978 0.08131,0.0661 0.12678,0.16536 0.04547,0.0978 0.04547,0.23013 0,0.10336 -0.03169,0.19017 -0.03032,0.0854 -0.08819,0.15297 -0.0565,0.0675 -0.137804,0.11575 -0.07993,0.0469 -0.180523,0.073 v 0.006 q 0.04961,0.022 0.08544,0.051 0.03721,0.0276 0.07028,0.0661 0.03307,0.0386 0.06477,0.0882 0.03307,0.0482 0.07304,0.113 z m -1.185113,-1.76664 v 0.71657 h 0.314193 q 0.08682,0 0.159853,-0.0262 0.07441,-0.0262 0.128157,-0.0744 0.05374,-0.0496 0.08406,-0.11989 0.03032,-0.0717 0.03032,-0.15985 0,-0.15848 -0.103353,-0.24667 -0.101974,-0.0896 -0.296278,-0.0896 z"
         style="fill:#ffffff;stroke-width:0.26458332"
         id="path1114"
         inkscape:connector-curvature="0" />
      <path
         d="m 14.447352,275.38961 h -0.570507 v 1.76664 h -0.231511 v -1.76664 h -0.56913 v -0.20947 h 1.371148 z"
         style="fill:#ffffff;stroke-width:0.26458332"
         id="path1116"
         inkscape:connector-curvature="0" />
      <path
         d="m 15.803342,277.15625 h -1.047309 v -1.97611 h 1.003212 v 0.20947 h -0.771701 v 0.65732 h 0.713823 v 0.20808 h -0.713823 v 0.69178 h 0.815798 z"
         style="fill:#ffffff;stroke-width:0.26458332"
         id="path1118"
         inkscape:connector-curvature="0" />
      <path
         d="m 16.183681,277.15625 v -1.97611 h 0.545703 q 1.044553,0 1.044553,0.96325 0,0.45751 -0.290766,0.73587 -0.289388,0.27699 -0.775836,0.27699 z m 0.23151,-1.76664 v 1.55718 h 0.2949 q 0.388607,0 0.604959,-0.20809 0.216352,-0.20808 0.216352,-0.5898 0,-0.75929 -0.80753,-0.75929 z"
         style="fill:#ffffff;stroke-width:0.26458332"
         id="path1120"
         inkscape:connector-curvature="0" />
    </g>
  </g>
  <g
     inkscape:groupmode="layer"
     id="layer2"
     inkscape:label="Grid6"
     style="display:none"
     sodipodi:insensitive="true">
    <text
       xml:space="preserve"
       style="font-style:normal;font-weight:normal;font-size:2.82222223px;line-height:1.25;font-family:sans-serif;letter-spacing:0px;word-spacing:0px;fill:#000000;fill-opacity:1;stroke:none;stroke-width:0.26458332"
       x="17.462486"
       y="5.0270619"
       id="text3821"><tspan
         sodipodi:role="line"
         id="tspan3819"
         x="17.462486"
         y="7.5240669"
         style="stroke-width:0.26458332" /></text>
    <g
       transform="translate(0,3.3334577e-6)"
       style="display:inline"
       id="g1181">
      <path
         style="fill:none;stroke:#000000;stroke-width:0.05;stroke-linecap:butt;stroke-linejoin:miter;stroke-miterlimit:4;stroke-dasharray:none;stroke-opacity:1"
         d="m 7.9375,-1e-5 -3e-6,100.54167"
         id="path881-8-8"
         inkscape:connector-curvature="0"
         sodipodi:nodetypes="cc" />
      <path
         style="fill:none;stroke:#000000;stroke-width:0.05;stroke-linecap:butt;stroke-linejoin:miter;stroke-miterlimit:4;stroke-dasharray:none;stroke-opacity:1"
         d="m 23.8125,-1e-5 5e-6,100.54167"
         id="path883-2-9"
         inkscape:connector-curvature="0"
         sodipodi:nodetypes="cc" />
      <path
         sodipodi:nodetypes="cc"
         inkscape:connector-curvature="0"
         id="path890-2-5"
         d="m 3.968752,0 -4e-6,100.54167"
         style="fill:none;stroke:#000000;stroke-width:0.05;stroke-linecap:butt;stroke-linejoin:miter;stroke-miterlimit:4;stroke-dasharray:none;stroke-opacity:1" />
      <path
         style="fill:none;stroke:#000000;stroke-width:0.05;stroke-linecap:butt;stroke-linejoin:miter;stroke-miterlimit:4;stroke-dasharray:none;stroke-opacity:1"
         d="m 11.906253,0 -4e-6,100.54167"
         id="path895-1-5"
         inkscape:connector-curvature="0"
         sodipodi:nodetypes="cc" />
      <path
         style="fill:none;stroke:#000000;stroke-width:0.05;stroke-linecap:butt;stroke-linejoin:miter;stroke-miterlimit:4;stroke-dasharray:none;stroke-opacity:1"
         d="m 19.843758,0 -4e-6,100.54167"
         id="path899-0-8"
         inkscape:connector-curvature="0"
         sodipodi:nodetypes="cc" />
      <path
         sodipodi:nodetypes="cc"
         inkscape:connector-curvature="0"
         id="path903-0-0"
         d="m 27.781263,0 -2e-6,100.54167"
         style="fill:none;stroke:#000000;stroke-width:0.05;stroke-linecap:butt;stroke-linejoin:miter;stroke-miterlimit:4;stroke-dasharray:none;stroke-opacity:1" />
      <path
         inkscape:connector-curvature="0"
         id="path905-6-4"
         d="M 0,14.022551 H 31.75"
         style="fill:none;stroke:#000000;stroke-width:0.05;stroke-linecap:butt;stroke-linejoin:miter;stroke-miterlimit:4;stroke-dasharray:none;stroke-opacity:1" />
      <path
         style="fill:none;stroke:#000000;stroke-width:0.05;stroke-linecap:butt;stroke-linejoin:miter;stroke-miterlimit:4;stroke-dasharray:none;stroke-opacity:1"
         d="M 0,28.57465 H 31.75"
         id="path1103"
         inkscape:connector-curvature="0" />
      <path
         inkscape:connector-curvature="0"
         id="path1107"
         d="M 0,43.126622 H 31.75"
         style="fill:none;stroke:#000000;stroke-width:0.05;stroke-linecap:butt;stroke-linejoin:miter;stroke-miterlimit:4;stroke-dasharray:none;stroke-opacity:1" />
      <path
         style="fill:none;stroke:#000000;stroke-width:0.05;stroke-linecap:butt;stroke-linejoin:miter;stroke-miterlimit:4;stroke-dasharray:none;stroke-opacity:1"
         d="M 0,57.678723 H 31.75"
         id="path1111"
         inkscape:connector-curvature="0" />
      <path
         inkscape:connector-curvature="0"
         id="path1115"
         d="M 0,72.230955 H 31.75"
         style="fill:none;stroke:#000000;stroke-width:0.05;stroke-linecap:butt;stroke-linejoin:miter;stroke-miterlimit:4;stroke-dasharray:none;stroke-opacity:1" />
      <path
         style="fill:none;stroke:#000000;stroke-width:0.05;stroke-linecap:butt;stroke-linejoin:miter;stroke-miterlimit:4;stroke-dasharray:none;stroke-opacity:1"
         d="M 0,86.782927 H 31.75"
         id="path1119"
         inkscape:connector-curvature="0" />
      <circle
         r="4.0999999"
         cy="14.022837"
         cx="23.827299"
         id="circle1006"
         style="display:inline;opacity:1;fill:none;fill-opacity:1;stroke:#000000;stroke-width:0.05;stroke-linecap:square;stroke-linejoin:round;stroke-miterlimit:4;stroke-dasharray:none;stroke-dashoffset:0;stroke-opacity:1;paint-order:markers fill stroke" />
      <circle
         style="display:inline;opacity:1;fill:none;fill-opacity:1;stroke:#000000;stroke-width:0.05;stroke-linecap:square;stroke-linejoin:round;stroke-miterlimit:4;stroke-dasharray:none;stroke-dashoffset:0;stroke-opacity:1;paint-order:markers fill stroke"
         id="circle1008"
         cx="7.9523039"
         cy="14.022837"
         r="4.0999999" />
      <circle
         style="display:inline;opacity:1;fill:none;fill-opacity:1;stroke:#000000;stroke-width:0.05;stroke-linecap:square;stroke-linejoin:round;stroke-miterlimit:4;stroke-dasharray:none;stroke-dashoffset:0;stroke-opacity:1;paint-order:markers fill stroke"
         id="circle1012"
         cx="23.827299"
         cy="28.574995"
         r="4.0999999" />
      <circle
         r="4.0999999"
         cy="28.574995"
         cx="7.9523039"
         id="circle1014"
         style="display:inline;opacity:1;fill:none;fill-opacity:1;stroke:#000000;stroke-width:0.05;stroke-linecap:square;stroke-linejoin:round;stroke-miterlimit:4;stroke-dasharray:none;stroke-dashoffset:0;stroke-opacity:1;paint-order:markers fill stroke" />
      <circle
         style="display:inline;opacity:1;fill:none;fill-opacity:1;stroke:#000000;stroke-width:0.05;stroke-linecap:square;stroke-linejoin:round;stroke-miterlimit:4;stroke-dasharray:none;stroke-dashoffset:0;stroke-opacity:1;paint-order:markers fill stroke"
         id="circle1016"
         cx="23.827299"
         cy="43.127026"
         r="4.0999999" />
      <circle
         r="4.0999999"
         cy="43.127026"
         cx="7.9523039"
         id="circle1018"
         style="display:inline;opacity:1;fill:none;fill-opacity:1;stroke:#000000;stroke-width:0.05;stroke-linecap:square;stroke-linejoin:round;stroke-miterlimit:4;stroke-dasharray:none;stroke-dashoffset:0;stroke-opacity:1;paint-order:markers fill stroke" />
      <circle
         r="4.0999999"
         cy="57.679188"
         cx="23.827299"
         id="circle1020"
         style="display:inline;opacity:1;fill:none;fill-opacity:1;stroke:#000000;stroke-width:0.05;stroke-linecap:square;stroke-linejoin:round;stroke-miterlimit:4;stroke-dasharray:none;stroke-dashoffset:0;stroke-opacity:1;paint-order:markers fill stroke" />
      <circle
         style="display:inline;opacity:1;fill:none;fill-opacity:1;stroke:#000000;stroke-width:0.05;stroke-linecap:square;stroke-linejoin:round;stroke-miterlimit:4;stroke-dasharray:none;stroke-dashoffset:0;stroke-opacity:1;paint-order:markers fill stroke"
         id="circle1022"
         cx="7.9523039"
         cy="57.679188"
         r="4.0999999" />
      <circle
         r="4.0999999"
         cy="72.231216"
         cx="23.827299"
         id="circle1024"
         style="display:inline;opacity:1;fill:none;fill-opacity:1;stroke:#000000;stroke-width:0.05;stroke-linecap:square;stroke-linejoin:round;stroke-miterlimit:4;stroke-dasharray:none;stroke-dashoffset:0;stroke-opacity:1;paint-order:markers fill stroke" />
      <circle
         style="display:inline;opacity:1;fill:none;fill-opacity:1;stroke:#000000;stroke-width:0.05;stroke-linecap:square;stroke-linejoin:round;stroke-miterlimit:4;stroke-dasharray:none;stroke-dashoffset:0;stroke-opacity:1;paint-order:markers fill stroke"
         id="circle1026"
         cx="7.9523039"
         cy="72.231216"
         r="4.0999999" />
      <circle
         style="display:inline;opacity:1;fill:none;fill-opacity:1;stroke:#000000;stroke-width:0.05;stroke-linecap:square;stroke-linejoin:round;stroke-miterlimit:4;stroke-dasharray:none;stroke-dashoffset:0;stroke-opacity:1;paint-order:markers fill stroke"
         id="circle1028"
         cx="23.827299"
         cy="86.783379"
         r="4.0999999" />
      <circle
         r="4.0999999"
         cy="86.783379"
         cx="7.9523039"
         id="circle1030"
         style="display:inline;opacity:1;fill:none;fill-opacity:1;stroke:#000000;stroke-width:0.05;stroke-linecap:square;stroke-linejoin:round;stroke-miterlimit:4;stroke-dasharray:none;stroke-dashoffset:0;stroke-opacity:1;paint-order:markers fill stroke" />
      <circle
         style="display:inline;opacity:1;fill:none;fill-opacity:1;stroke:#000000;stroke-width:0.05172414;stroke-linecap:square;stroke-linejoin:round;stroke-miterlimit:4;stroke-dasharray:none;stroke-dashoffset:0;stroke-opacity:1;paint-order:markers fill stroke"
         id="circle1039"
         cx="23.811087"
         cy="14.023285"
         r="5.4741378" />
      <circle
         r="5.4741378"
         cy="14.023285"
         cx="7.9360862"
         id="circle1086"
         style="display:inline;opacity:1;fill:none;fill-opacity:1;stroke:#000000;stroke-width:0.05172414;stroke-linecap:square;stroke-linejoin:round;stroke-miterlimit:4;stroke-dasharray:none;stroke-dashoffset:0;stroke-opacity:1;paint-order:markers fill stroke" />
      <circle
         r="5.4741378"
         cy="28.573866"
         cx="23.811087"
         id="circle1088"
         style="display:inline;opacity:1;fill:none;fill-opacity:1;stroke:#000000;stroke-width:0.05172414;stroke-linecap:square;stroke-linejoin:round;stroke-miterlimit:4;stroke-dasharray:none;stroke-dashoffset:0;stroke-opacity:1;paint-order:markers fill stroke" />
      <circle
         style="display:inline;opacity:1;fill:none;fill-opacity:1;stroke:#000000;stroke-width:0.05172414;stroke-linecap:square;stroke-linejoin:round;stroke-miterlimit:4;stroke-dasharray:none;stroke-dashoffset:0;stroke-opacity:1;paint-order:markers fill stroke"
         id="circle1090"
         cx="7.9360862"
         cy="28.573866"
         r="5.4741378" />
      <circle
         r="5.4741378"
         cy="43.127476"
         cx="23.811087"
         id="circle1092"
         style="display:inline;opacity:1;fill:none;fill-opacity:1;stroke:#000000;stroke-width:0.05172414;stroke-linecap:square;stroke-linejoin:round;stroke-miterlimit:4;stroke-dasharray:none;stroke-dashoffset:0;stroke-opacity:1;paint-order:markers fill stroke" />
      <circle
         style="display:inline;opacity:1;fill:none;fill-opacity:1;stroke:#000000;stroke-width:0.05172414;stroke-linecap:square;stroke-linejoin:round;stroke-miterlimit:4;stroke-dasharray:none;stroke-dashoffset:0;stroke-opacity:1;paint-order:markers fill stroke"
         id="circle1094"
         cx="7.9360862"
         cy="43.127476"
         r="5.4741378" />
      <circle
         style="display:inline;opacity:1;fill:none;fill-opacity:1;stroke:#000000;stroke-width:0.05172414;stroke-linecap:square;stroke-linejoin:round;stroke-miterlimit:4;stroke-dasharray:none;stroke-dashoffset:0;stroke-opacity:1;paint-order:markers fill stroke"
         id="circle1096"
         cx="23.811087"
         cy="57.678059"
         r="5.4741378" />
      <circle
         r="5.4741378"
         cy="57.678059"
         cx="7.9360862"
         id="circle1098"
         style="display:inline;opacity:1;fill:none;fill-opacity:1;stroke:#000000;stroke-width:0.05172414;stroke-linecap:square;stroke-linejoin:round;stroke-miterlimit:4;stroke-dasharray:none;stroke-dashoffset:0;stroke-opacity:1;paint-order:markers fill stroke" />
      <circle
         style="display:inline;opacity:1;fill:none;fill-opacity:1;stroke:#000000;stroke-width:0.05172414;stroke-linecap:square;stroke-linejoin:round;stroke-miterlimit:4;stroke-dasharray:none;stroke-dashoffset:0;stroke-opacity:1;paint-order:markers fill stroke"
         id="circle1100"
         cx="23.811087"
         cy="72.231667"
         r="5.4741378" />
      <circle
         r="5.4741378"
         cy="72.231667"
         cx="7.9360862"
         id="circle1102"
         style="display:inline;opacity:1;fill:none;fill-opacity:1;stroke:#000000;stroke-width:0.05172414;stroke-linecap:square;stroke-linejoin:round;stroke-miterlimit:4;stroke-dasharray:none;stroke-dashoffset:0;stroke-opacity:1;paint-order:markers fill stroke" />
      <circle
         r="5.4741378"
         cy="86.782249"
         cx="23.811087"
         id="circle1104"
         style="display:inline;opacity:1;fill:none;fill-opacity:1;stroke:#000000;stroke-width:0.05172414;stroke-linecap:square;stroke-linejoin:round;stroke-miterlimit:4;stroke-dasharray:none;stroke-dashoffset:0;stroke-opacity:1;paint-order:markers fill stroke" />
      <circle
         style="display:inline;opacity:1;fill:none;fill-opacity:1;stroke:#000000;stroke-width:0.05172414;stroke-linecap:square;stroke-linejoin:round;stroke-miterlimit:4;stroke-dasharray:none;stroke-dashoffset:0;stroke-opacity:1;paint-order:markers fill stroke"
         id="circle1106"
         cx="7.9360862"
         cy="86.782249"
         r="5.4741378" />
      <path
         sodipodi:nodetypes="cc"
         inkscape:connector-curvature="0"
         id="path1142-4"
         d="m 15.875002,0 -4e-6,100.54167"
         style="fill:none;stroke:#000000;stroke-width:0.05;stroke-linecap:butt;stroke-linejoin:miter;stroke-miterlimit:4;stroke-dasharray:none;stroke-opacity:1" />
    </g>
  </g>
</svg>
