<?xml version="1.0" encoding="UTF-8" standalone="no"?>
<!-- Created with Inkscape (http://www.inkscape.org/) -->

<svg
   xmlns:dc="http://purl.org/dc/elements/1.1/"
   xmlns:cc="http://creativecommons.org/ns#"
   xmlns:rdf="http://www.w3.org/1999/02/22-rdf-syntax-ns#"
   xmlns:svg="http://www.w3.org/2000/svg"
   xmlns="http://www.w3.org/2000/svg"
   xmlns:sodipodi="http://sodipodi.sourceforge.net/DTD/sodipodi-0.dtd"
   xmlns:inkscape="http://www.inkscape.org/namespaces/inkscape"
   width="180"
   height="380"
   viewBox="0 0 47.625003 100.54167"
   version="1.1"
   id="svg8"
   inkscape:version="0.92.4 (5da689c313, 2019-01-14)"
   sodipodi:docname="Mute-iple.svg">
  <defs
     id="defs2" />
  <sodipodi:namedview
     id="base"
     pagecolor="#ffffff"
     bordercolor="#666666"
     borderopacity="1.0"
     inkscape:pageopacity="0.0"
     inkscape:pageshadow="2"
     inkscape:zoom="2.2789474"
     inkscape:cx="15.184759"
     inkscape:cy="190"
     inkscape:document-units="mm"
     inkscape:current-layer="layer1"
     showgrid="true"
     units="px"
     inkscape:snap-bbox="true"
     inkscape:snap-page="true"
     inkscape:bbox-nodes="true"
     inkscape:snap-bbox-edge-midpoints="true"
     inkscape:window-width="1920"
     inkscape:window-height="1017"
     inkscape:window-x="-8"
     inkscape:window-y="-8"
     inkscape:window-maximized="1"
     inkscape:bbox-paths="true">
    <inkscape:grid
       type="xygrid"
       id="grid116" />
  </sodipodi:namedview>
  <metadata
     id="metadata5">
    <rdf:RDF>
      <cc:Work
         rdf:about="">
        <dc:format>image/svg+xml</dc:format>
        <dc:type
           rdf:resource="http://purl.org/dc/dcmitype/StillImage" />
        <dc:title />
      </cc:Work>
    </rdf:RDF>
  </metadata>
  <g
     inkscape:groupmode="layer"
     id="layer3"
     inkscape:label="Panel"
     sodipodi:insensitive="true">
    <path
       sodipodi:type="inkscape:offset"
       inkscape:radius="0"
       inkscape:original="M 0 196.45898 L 0 297 L 15.875 297 L 15.875 196.45898 L 0 196.45898 z "
       style="display:inline;fill:#520000;stroke-width:0.3310422"
       id="rect3855"
       d="M 0,196.45898 V 297 H 15.875 V 196.45898 Z"
       transform="matrix(3.ffffff1,0,0,1.0000064,0,-196.46023)" />
  </g>
  <g
     inkscape:label="Layer 1"
     inkscape:groupmode="layer"
     id="layer1"
     transform="translate(0,-196.45832)"
     style="display:inline">
    <text
       xml:space="preserve"
       style="font-style:normal;font-weight:normal;font-size:2.82222223px;line-height:1.25;font-family:sans-serif;letter-spacing:0px;word-spacing:0px;fill:#ffffff;fill-opacity:1;stroke:none;stroke-width:0.26458332"
       x="17.197916"
       y="201.74998"
       id="text3821"><tspan
         sodipodi:role="line"
         id="tspan3819"
         x="17.197916"
         y="204.24699"
         style="stroke-width:0.26458332" /></text>
    <rect
       style="fill:#6f1e00;stroke-width:0.34922984"
       id="rect897-74"
       width="13.229166"
       height="91.016663"
       x="31.75"
       y="-291.70831"
       transform="scale(1,-1)" />
    <g
       aria-label="/^M^\"
       style="font-style:normal;font-variant:normal;font-weight:normal;font-stretch:normal;font-size:2.82222223px;line-height:1.25;font-family:'Copperplate Gothic Light';-inkscape-font-specification:'Copperplate Gothic Light, ';letter-spacing:0px;word-spacing:0px;fill:#ffffff;fill-opacity:1;stroke:#ffffff;stroke-width:0.2;stroke-miterlimit:4;stroke-dasharray:none;stroke-opacity:1"
       id="text956"
       transform="translate(-1.5490311,3.7456238)">
      <path
         d="m 21.203855,291.40545 v 0.0386 h -0.434082 v -0.0386 q 0.09509,-0.006 0.224621,-0.17088 l 1.094162,-1.4621 q 0.07441,-0.1006 0.07441,-0.12402 0,-0.0372 -0.06615,-0.0482 v -0.0372 h 0.423058 v 0.0372 q -0.09508,0.006 -0.22462,0.17087 l -1.08176,1.46348 q -0.07579,0.10197 -0.07579,0.12402 0,0.0358 0.06615,0.0469 z"
         style="font-style:normal;font-variant:normal;font-weight:normal;font-stretch:normal;font-size:2.82222223px;line-height:1.25;font-family:'Copperplate Gothic Light';-inkscape-font-specification:'Copperplate Gothic Light, ';stroke:#ffffff;stroke-width:0.2;stroke-miterlimit:4;stroke-dasharray:none;stroke-opacity:1"
         id="path958"
         inkscape:connector-curvature="0" />
      <path
         d="M 22.940183,290.3857 H 22.73899 l 0.493338,-0.8282 h 0.243912 l 0.493338,0.8282 h -0.20395 l -0.413411,-0.68075 z"
         style="font-style:normal;font-variant:normal;font-weight:normal;font-stretch:normal;font-size:2.82222223px;line-height:1.25;font-family:'Copperplate Gothic Light';-inkscape-font-specification:'Copperplate Gothic Light, ';stroke:#ffffff;stroke-width:0.2;stroke-miterlimit:4;stroke-dasharray:none;stroke-opacity:1"
         id="path960"
         inkscape:connector-curvature="0" />
      <path
         d="m 25.342104,291.44403 -0.789616,-1.58061 v 1.418 q 0,0.0565 0.01791,0.0813 0.01791,0.0234 0.07028,0.0372 v 0.0441 h -0.373449 v -0.0441 q 0.05237,-0.0138 0.07028,-0.0372 0.01792,-0.0234 0.01792,-0.0813 v -1.5558 q 0,-0.0579 -0.01792,-0.0813 -0.01791,-0.0248 -0.07028,-0.0372 v -0.0441 h 0.487826 v 0.0441 q -0.06752,0.0234 -0.06752,0.0579 0,0.0165 0.04547,0.10611 l 0.62563,1.24161 0.628385,-1.25263 q 0.03307,-0.0661 0.03307,-0.0937 0,-0.0358 -0.06752,-0.0593 v -0.0441 h 0.49196 v 0.0441 q -0.05237,0.0138 -0.07028,0.0372 -0.01792,0.0234 -0.01792,0.0813 v 1.5558 q 0,0.0565 0.01792,0.0813 0.01791,0.0234 0.07028,0.0372 v 0.0441 h -0.392741 v -0.0441 q 0.05374,-0.0138 0.07028,-0.0372 0.01791,-0.0234 0.01791,-0.0813 v -1.418 z"
         style="font-style:normal;font-variant:normal;font-weight:normal;font-stretch:normal;font-size:2.82222223px;line-height:1.25;font-family:'Copperplate Gothic Light';-inkscape-font-specification:'Copperplate Gothic Light, ';stroke:#ffffff;stroke-width:0.2;stroke-miterlimit:4;stroke-dasharray:none;stroke-opacity:1"
         id="path962"
         inkscape:connector-curvature="0" />
      <path
         d="m 26.942006,290.3857 h -0.201193 l 0.493338,-0.8282 h 0.243912 l 0.493338,0.8282 h -0.20395 l -0.413411,-0.68075 z"
         style="font-style:normal;font-variant:normal;font-weight:normal;font-stretch:normal;font-size:2.82222223px;line-height:1.25;font-family:'Copperplate Gothic Light';-inkscape-font-specification:'Copperplate Gothic Light, ';stroke:#ffffff;stroke-width:0.2;stroke-miterlimit:4;stroke-dasharray:none;stroke-opacity:1"
         id="path964"
         inkscape:connector-curvature="0" />
      <path
         d="m 28.617701,289.56301 v 0.0372 q -0.06615,0.011 -0.06615,0.0482 0,0.0234 0.07441,0.12402 l 1.092784,1.4621 q 0.129536,0.16536 0.22462,0.17088 v 0.0386 h -0.434082 v -0.0386 q 0.06615,-0.011 0.06615,-0.0469 0,-0.0207 -0.07579,-0.12402 l -1.080382,-1.46348 q -0.129535,-0.16536 -0.22462,-0.17087 v -0.0372 z"
         style="font-style:normal;font-variant:normal;font-weight:normal;font-stretch:normal;font-size:2.82222223px;line-height:1.25;font-family:'Copperplate Gothic Light';-inkscape-font-specification:'Copperplate Gothic Light, ';stroke:#ffffff;stroke-width:0.2;stroke-miterlimit:4;stroke-dasharray:none;stroke-opacity:1"
         id="path966"
         inkscape:connector-curvature="0" />
    </g>
    <path
       style="fill:none;stroke:#ffffff;stroke-width:0.3ffffff1;stroke-linecap:butt;stroke-linejoin:miter;stroke-miterlimit:4;stroke-dasharray:none;stroke-opacity:1"
       d="m 27.436795,207.83528 h 0.999999 8.000001"
       id="path954"
       inkscape:connector-curvature="0" />
    <path
       style="fill:none;stroke:#ffffff;stroke-width:0.3ffffff1;stroke-linecap:butt;stroke-linejoin:miter;stroke-miterlimit:4;stroke-dasharray:none;stroke-opacity:1"
       d="m 11.368729,207.83729 h 0.999999 8.000001"
       id="path954-3"
       inkscape:connector-curvature="0" />
    <path
       inkscape:connector-curvature="0"
       id="path1006"
       d="m 27.436795,218.94785 h 0.999999 8.000001"
       style="fill:none;stroke:#ffffff;stroke-width:0.3ffffff1;stroke-linecap:butt;stroke-linejoin:miter;stroke-miterlimit:4;stroke-dasharray:none;stroke-opacity:1" />
    <path
       inkscape:connector-curvature="0"
       id="path1034"
       d="m 27.436795,230.04372 h 0.999999 8.000001"
       style="fill:none;stroke:#ffffff;stroke-width:0.3ffffff1;stroke-linecap:butt;stroke-linejoin:miter;stroke-miterlimit:4;stroke-dasharray:none;stroke-opacity:1" />
    <path
       style="fill:none;stroke:#ffffff;stroke-width:0.3ffffff1;stroke-linecap:butt;stroke-linejoin:miter;stroke-miterlimit:4;stroke-dasharray:none;stroke-opacity:1"
       d="m 27.436795,241.17299 h 0.999999 8.000001"
       id="path1062"
       inkscape:connector-curvature="0" />
    <path
       inkscape:connector-curvature="0"
       id="path1090"
       d="m 27.420091,252.28556 h 0.999999 8.000001"
       style="fill:none;stroke:#ffffff;stroke-width:0.3ffffff1;stroke-linecap:butt;stroke-linejoin:miter;stroke-miterlimit:4;stroke-dasharray:none;stroke-opacity:1" />
    <path
       inkscape:connector-curvature="0"
       id="path1092"
       d="m 11.354053,252.27576 h 0.999999 8.000001"
       style="fill:none;stroke:#ffffff;stroke-width:0.3ffffff1;stroke-linecap:butt;stroke-linejoin:miter;stroke-miterlimit:4;stroke-dasharray:none;stroke-opacity:1" />
    <path
       style="fill:none;stroke:#ffffff;stroke-width:0.3ffffff1;stroke-linecap:butt;stroke-linejoin:miter;stroke-miterlimit:4;stroke-dasharray:none;stroke-opacity:1"
       d="m 27.420091,263.39813 h 0.999999 8.000001"
       id="path1118"
       inkscape:connector-curvature="0" />
    <path
       style="fill:none;stroke:#ffffff;stroke-width:0.3ffffff1;stroke-linecap:butt;stroke-linejoin:miter;stroke-miterlimit:4;stroke-dasharray:none;stroke-opacity:1"
       d="m 27.425452,274.494 h 0.999999 8.000001"
       id="path1146"
       inkscape:connector-curvature="0" />
    <path
       inkscape:connector-curvature="0"
       id="path1174"
       d="m 27.425452,285.62327 h 0.999999 8.000001"
       style="fill:none;stroke:#ffffff;stroke-width:0.3ffffff1;stroke-linecap:butt;stroke-linejoin:miter;stroke-miterlimit:4;stroke-dasharray:none;stroke-opacity:1" />
    <path
       style="fill:none;stroke:#ffffff;stroke-width:0.3;stroke-linecap:butt;stroke-linejoin:miter;stroke-miterlimit:4;stroke-dasharray:none;stroke-opacity:1"
       d="m 17.429098,207.83524 0.0027,43.9211"
       id="path951"
       inkscape:connector-curvature="0"
       sodipodi:nodetypes="cc" />
    <path
       style="fill:none;stroke:#ffffff;stroke-width:0.3ffffff1;stroke-linecap:butt;stroke-linejoin:miter;stroke-miterlimit:4;stroke-dasharray:none;stroke-opacity:1"
       d="m 18.754699,250.43336 -1.322917,1.32292 -1.322917,-1.32292"
       id="path953"
       inkscape:connector-curvature="0" />
    <g
       transform="translate(-2.7068625,207.65349)"
       aria-label="OUTPUT"
       style="font-style:normal;font-variant:normal;font-weight:normal;font-stretch:normal;font-size:2.82222223px;line-height:1.25;font-family:'Yu Gothic UI';-inkscape-font-specification:'Yu Gothic UI';letter-spacing:0px;word-spacing:0px;fill:#ffffff;fill-opacity:1;stroke:none;stroke-width:0.26458332"
       id="text1462">
      <path
         d="m 38.097245,-3.9356771 q -0.420301,0 -0.67386,-0.2769857 -0.252181,-0.2769856 -0.252181,-0.7207139 0,-0.4768013 0.257693,-0.7606771 0.257693,-0.2838759 0.701421,-0.2838759 0.409277,0 0.658702,0.2756076 0.250803,0.2756077 0.250803,0.720714 0,0.4836914 -0.256315,0.7648112 -0.256315,0.2811198 -0.686263,0.2811198 z m 0.01654,-1.8327908 q -0.311437,0 -0.50574,0.2246202 -0.194304,0.2246203 -0.194304,0.5898004 0,0.3651801 0.188791,0.5884223 0.19017,0.2218641 0.494716,0.2218641 0.325217,0 0.51263,-0.2122178 0.187414,-0.2122179 0.187414,-0.5939345 0,-0.3913628 -0.181901,-0.6049588 -0.181901,-0.2135959 -0.501606,-0.2135959 z"
         style="stroke-width:0.26458332"
         id="path1496"
         inkscape:connector-curvature="0" />
      <path
         d="m 40.873992,-4.7680122 q 0,0.8323351 -0.751031,0.8323351 -0.719336,0 -0.719336,-0.8006402 v -1.2085395 h 0.231511 v 1.1933811 q 0,0.6077148 0.51263,0.6077148 0.494716,0 0.494716,-0.5870442 v -1.2140517 h 0.23151 z"
         style="stroke-width:0.26458332"
         id="path1498"
         inkscape:connector-curvature="0" />
      <path
         d="m 42.537284,-5.735395 h -0.570507 v 1.766645 h -0.231511 v -1.766645 h -0.56913 v -0.2094618 h 1.371148 z"
         style="stroke-width:0.26458332"
         id="path1500"
         inkscape:connector-curvature="0" />
      <path
         d="M 43.077475,-4.7156467 V -3.96875 h -0.23151 v -1.9761068 h 0.542947 q 0.316949,0 0.490581,0.1543403 0.175011,0.1543403 0.175011,0.4354601 0,0.2811198 -0.194303,0.4602647 -0.192925,0.179145 -0.522277,0.179145 z m 0,-1.0197483 v 0.8102865 h 0.242535 q 0.239779,0 0.36518,-0.108865 0.12678,-0.1102431 0.12678,-0.3100586 0,-0.3913629 -0.463021,-0.3913629 z"
         style="stroke-width:0.26458332"
         id="path1502"
         inkscape:connector-curvature="0" />
      <path
         d="m 45.873515,-4.7680122 q 0,0.8323351 -0.751031,0.8323351 -0.719336,0 -0.719336,-0.8006402 v -1.2085395 h 0.23151 v 1.1933811 q 0,0.6077148 0.512631,0.6077148 0.494715,0 0.494715,-0.5870442 v -1.2140517 h 0.231511 z"
         style="stroke-width:0.26458332"
         id="path1504"
         inkscape:connector-curvature="0" />
      <path
         d="m 47.536807,-5.735395 h -0.570508 v 1.766645 h -0.23151 v -1.766645 h -0.56913 v -0.2094618 h 1.371148 z"
         style="stroke-width:0.26458332"
         id="path1506"
         inkscape:connector-curvature="0" />
    </g>
    <g
       transform="translate(-31.575974,195.7496)"
       aria-label="MUTE"
       style="font-style:normal;font-variant:normal;font-weight:normal;font-stretch:normal;font-size:2.82222223px;line-height:1.25;font-family:'Yu Gothic UI';-inkscape-font-specification:'Yu Gothic UI';letter-spacing:0px;word-spacing:0px;fill:#ffffff;fill-opacity:1;stroke:none;stroke-width:0.26458332"
       id="text1466">
      <path
         d="M 53.867513,7.9375 H 53.637381 V 6.6118273 q 0,-0.1570964 0.01929,-0.3844727 h -0.0055 q -0.03307,0.1336697 -0.05926,0.1915473 L 52.916667,7.9375 H 52.803668 L 52.129807,6.4299262 q -0.02894,-0.066146 -0.05926,-0.2025716 h -0.0055 q 0.01102,0.1185113 0.01102,0.3872287 V 7.9375 H 51.852821 V 5.9613932 h 0.305925 l 0.606336,1.3780382 q 0.07028,0.1584744 0.09095,0.2370226 h 0.0083 q 0.05926,-0.1626085 0.09509,-0.2425347 l 0.618739,-1.3725261 h 0.289388 z"
         style="stroke-width:0.26458332"
         id="path1522"
         inkscape:connector-curvature="0" />
      <path
         d="m 55.833973,7.1382378 q 0,0.8323351 -0.75103,0.8323351 -0.719336,0 -0.719336,-0.8006402 V 5.9613932 h 0.23151 v 1.1933811 q 0,0.6077148 0.51263,0.6077148 0.494716,0 0.494716,-0.5870442 V 5.9613932 h 0.23151 z"
         style="stroke-width:0.26458332"
         id="path1524"
         inkscape:connector-curvature="0" />
      <path
         d="M 57.497266,6.170855 H 56.926758 V 7.9375 h -0.23151 V 6.170855 h -0.56913 V 5.9613932 h 1.371148 z"
         style="stroke-width:0.26458332"
         id="path1526"
         inkscape:connector-curvature="0" />
      <path
         d="M 58.853255,7.9375 H 57.805946 V 5.9613932 h 1.003212 V 6.170855 H 58.037457 V 6.8281792 H 58.75128 V 7.036263 h -0.713823 v 0.6917752 h 0.815798 z"
         style="stroke-width:0.26458332"
         id="path1528"
         inkscape:connector-curvature="0" />
    </g>
    <g
       transform="translate(15.798718,206.35851)"
       aria-label="INPUT A"
       style="font-style:normal;font-variant:normal;font-weight:normal;font-stretch:normal;font-size:2.82222223px;line-height:1.25;font-family:'Yu Gothic UI';-inkscape-font-specification:'Yu Gothic UI';letter-spacing:0px;word-spacing:0px;fill:#ffffff;fill-opacity:1;stroke:none;stroke-width:0.26458332"
       id="text1470">
      <path
         d="m -12.738584,-2.6458333 h -0.231511 V -4.62194 h 0.231511 z"
         style="stroke-width:0.26458332"
         id="path1509"
         inkscape:connector-curvature="0" />
      <path
         d="m -10.62743,-2.6458333 h -0.283876 l -1.016992,-1.5750976 q -0.03858,-0.059256 -0.06339,-0.1240235 h -0.0083 q 0.01102,0.06339 0.01102,0.2714736 v 1.4276475 h -0.23151 V -4.62194 h 0.300412 l 0.989432,1.5502929 q 0.06201,0.096463 0.07993,0.1322917 h 0.0055 q -0.01378,-0.085438 -0.01378,-0.2907661 V -4.62194 h 0.23151 z"
         style="stroke-width:0.26458332"
         id="path1511"
         inkscape:connector-curvature="0" />
      <path
         d="m -9.877777,-3.39273 v 0.7468967 h -0.23151 V -4.62194 h 0.5429466 q 0.3169488,0 0.4905816,0.1543402 0.1750109,0.1543403 0.1750109,0.4354601 0,0.2811198 -0.1943034,0.4602648 -0.1929254,0.1791449 -0.5222765,0.1791449 z m 0,-1.0197482 v 0.8102864 h 0.2425347 q 0.2397787,0 0.3651801,-0.108865 0.1267795,-0.110243 0.1267795,-0.3100586 0,-0.3913628 -0.4630208,-0.3913628 z"
         style="stroke-width:0.26458332"
         id="path1513"
         inkscape:connector-curvature="0" />
      <path
         d="m -7.0817375,-3.4450954 q 0,0.8323351 -0.7510308,0.8323351 -0.719336,0 -0.719336,-0.8006402 V -4.62194 h 0.2315105 v 1.193381 q 0,0.6077149 0.5126302,0.6077149 0.4947157,0 0.4947157,-0.5870443 V -4.62194 h 0.2315104 z"
         style="stroke-width:0.26458332"
         id="path1515"
         inkscape:connector-curvature="0" />
      <path
         d="m -5.4184456,-4.4124782 h -0.5705078 v 1.7666449 H -6.2204638 V -4.4124782 H -6.7895936 V -4.62194 h 1.371148 z"
         style="stroke-width:0.26458332"
         id="path1517"
         inkscape:connector-curvature="0" />
      <path
         d="m -2.808441,-2.6458333 h -0.2563151 l -0.2094618,-0.5539713 h -0.8378472 l -0.1970595,0.5539713 h -0.2576931 l 0.757921,-1.9761067 h 0.2397786 z M -3.35001,-3.4078884 -3.6600686,-4.2498697 q -0.015158,-0.041341 -0.030317,-0.1322917 h -0.00551 q -0.01378,0.08406 -0.031695,0.1322917 l -0.3073025,0.8419813 z"
         style="stroke-width:0.26458332"
         id="path1519"
         inkscape:connector-curvature="0" />
    </g>
    <g
       transform="translate(17.265941,215.07599)"
       aria-label="INPUT B"
       style="font-style:normal;font-variant:normal;font-weight:normal;font-stretch:normal;font-size:2.82222223px;line-height:1.25;font-family:'Yu Gothic UI';-inkscape-font-specification:'Yu Gothic UI';letter-spacing:0px;word-spacing:0px;fill:#ffffff;fill-opacity:1;stroke:none;stroke-width:0.26458332"
       id="text1474">
      <path
         d="m -14.061501,33.072918 h -0.231511 v -1.976107 h 0.231511 z"
         style="stroke-width:0.26458332"
         id="path1531"
         inkscape:connector-curvature="0" />
      <path
         d="m -11.950347,33.072918 h -0.283876 l -1.016992,-1.575098 q -0.03858,-0.05926 -0.06339,-0.124023 h -0.0083 q 0.01102,0.06339 0.01102,0.271473 v 1.427648 h -0.23151 v -1.976107 h 0.300412 l 0.989432,1.550293 q 0.06201,0.09646 0.07993,0.132292 h 0.0055 q -0.01378,-0.08544 -0.01378,-0.290766 v -1.391819 h 0.23151 z"
         style="stroke-width:0.26458332"
         id="path1533"
         inkscape:connector-curvature="0" />
      <path
         d="m -11.200694,32.326021 v 0.746897 h -0.23151 v -1.976107 h 0.542947 q 0.316948,0 0.490581,0.15434 0.175011,0.154341 0.175011,0.435461 0,0.281119 -0.194303,0.460264 -0.192926,0.179145 -0.522277,0.179145 z m 0,-1.019748 v 0.810286 h 0.242535 q 0.239778,0 0.36518,-0.108865 0.126779,-0.110243 0.126779,-0.310058 0,-0.391363 -0.46302,-0.391363 z"
         style="stroke-width:0.26458332"
         id="path1535"
         inkscape:connector-curvature="0" />
      <path
         d="m -8.4046545,32.273656 q 0,0.832335 -0.7510308,0.832335 -0.7193359,0 -0.7193359,-0.80064 v -1.20854 h 0.2315104 v 1.193381 q 0,0.607715 0.5126302,0.607715 0.4947157,0 0.4947157,-0.587044 v -1.214052 h 0.2315104 z"
         style="stroke-width:0.26458332"
         id="path1537"
         inkscape:connector-curvature="0" />
      <path
         d="m -6.7413626,31.306273 h -0.5705078 v 1.766645 h -0.2315104 v -1.766645 h -0.5691298 v -0.209462 h 1.371148 z"
         style="stroke-width:0.26458332"
         id="path1539"
         inkscape:connector-curvature="0" />
      <path
         d="m -5.6609804,33.072918 v -1.976107 h 0.5622396 q 0.2563151,0 0.4065213,0.125402 0.1502061,0.125401 0.1502061,0.326595 0,0.16812 -0.09095,0.292144 -0.09095,0.124023 -0.2508029,0.176389 v 0.0055 q 0.1998155,0.02343 0.3197048,0.151584 0.1198893,0.12678 0.1198893,0.330729 0,0.253559 -0.181901,0.410656 -0.181901,0.157096 -0.4588867,0.157096 z M -5.42947,31.306273 v 0.638032 h 0.2370226 q 0.1901693,0 0.2990343,-0.09095 0.108865,-0.09233 0.108865,-0.259071 0,-0.28801 -0.3789605,-0.28801 z m 0,0.846115 v 0.711068 h 0.3141927 q 0.2039497,0 0.3155708,-0.09646 0.1129991,-0.09646 0.1129991,-0.264583 0,-0.350022 -0.4768012,-0.350022 z"
         style="stroke-width:0.26458332"
         id="path1541"
         inkscape:connector-curvature="0" />
    </g>
    <g
       aria-label="MUTE-IPLE"
       style="font-style:normal;font-variant:normal;font-weight:bold;font-stretch:normal;font-size:3.52777767px;line-height:1.25;font-family:'Yu Gothic UI';-inkscape-font-specification:'Yu Gothic UI Bold';letter-spacing:0px;word-spacing:0px;fill:#ffffff;fill-opacity:1;stroke:none;stroke-width:0.26458332"
       id="text1546"
       transform="translate(-0.44564496,202.10346)">
      <path
         d="m 18.303447,-2.1166666 h -0.406521 v -1.5985242 q 0,-0.1963704 0.02412,-0.4805908 h -0.0069 q -0.0379,0.1619195 -0.06718,0.2325439 l -0.73725,1.8465711 h -0.282498 l -0.738973,-1.8327907 q -0.03101,-0.08096 -0.06546,-0.2463243 h -0.0069 q 0.01378,0.1481391 0.01378,0.4840359 v 1.5950791 h -0.37896 v -2.4701333 h 0.577053 l 0.649401,1.645033 q 0.07407,0.1894802 0.09646,0.2824978 h 0.0086 q 0.06373,-0.1946479 0.103353,-0.289388 l 0.661458,-1.6381428 h 0.556383 z"
         style="font-style:normal;font-variant:normal;font-weight:bold;font-stretch:normal;font-size:3.52777767px;font-family:'Yu Gothic UI';-inkscape-font-specification:'Yu Gothic UI Bold';stroke-width:0.26458332"
         id="path1548"
         inkscape:connector-curvature="0" />
      <path
         d="m 20.809754,-3.1157442 q 0,1.0404188 -0.985297,1.0404188 -0.943956,0 -0.943956,-1.0008002 v -1.5106743 h 0.409966 v 1.4262694 q 0,0.7269152 0.564996,0.7269152 0.544325,0 0.544325,-0.7010769 v -1.4521077 h 0.409966 z"
         style="font-style:normal;font-variant:normal;font-weight:bold;font-stretch:normal;font-size:3.52777767px;font-family:'Yu Gothic UI';-inkscape-font-specification:'Yu Gothic UI Bold';stroke-width:0.26458332"
         id="path1550"
         inkscape:connector-curvature="0" />
      <path
         d="m 22.974996,-4.2388453 h -0.709689 v 2.1221787 H 21.85534 v -2.1221787 h -0.707967 v -0.3479546 h 1.827623 z"
         style="font-style:normal;font-variant:normal;font-weight:bold;font-stretch:normal;font-size:3.52777767px;font-family:'Yu Gothic UI';-inkscape-font-specification:'Yu Gothic UI Bold';stroke-width:0.26458332"
         id="path1552"
         inkscape:connector-curvature="0" />
      <path
         d="m 24.726828,-2.1166666 h -1.386651 v -2.4701333 h 1.331529 v 0.3479546 h -0.921563 v 0.6993544 h 0.849216 v 0.346232 h -0.849216 v 0.7303603 h 0.976685 z"
         style="font-style:normal;font-variant:normal;font-weight:bold;font-stretch:normal;font-size:3.52777767px;font-family:'Yu Gothic UI';-inkscape-font-specification:'Yu Gothic UI Bold';stroke-width:0.26458332"
         id="path1554"
         inkscape:connector-curvature="0" />
      <path
         d="m 26.049744,-2.9331542 h -0.940511 v -0.2945556 h 0.940511 z"
         style="font-style:normal;font-variant:normal;font-weight:bold;font-stretch:normal;font-size:3.52777767px;font-family:'Yu Gothic UI';-inkscape-font-specification:'Yu Gothic UI Bold';stroke-width:0.26458332"
         id="path1556"
         inkscape:connector-curvature="0" />
      <path
         d="m 27.005758,-2.1166666 h -0.422024 v -2.4701333 h 0.422024 z"
         style="font-style:normal;font-variant:normal;font-weight:bold;font-stretch:normal;font-size:3.52777767px;font-family:'Yu Gothic UI';-inkscape-font-specification:'Yu Gothic UI Bold';stroke-width:0.26458332"
         id="path1558"
         inkscape:connector-curvature="0" />
      <path
         d="m 28.020339,-3.0123914 v 0.8957248 h -0.408244 v -2.4701333 h 0.749308 q 0.42547,0 0.659736,0.1980929 0.234267,0.198093 0.234267,0.5581055 0,0.3600125 -0.244602,0.5891113 -0.244602,0.2290988 -0.661458,0.2290988 z m 0,-1.2367892 v 0.902615 h 0.265272 q 0.26355,0 0.401354,-0.1223009 0.137804,-0.1223009 0.137804,-0.3445095 0,-0.4358046 -0.506429,-0.4358046 z"
         style="font-style:normal;font-variant:normal;font-weight:bold;font-stretch:normal;font-size:3.52777767px;font-family:'Yu Gothic UI';-inkscape-font-specification:'Yu Gothic UI Bold';stroke-width:0.26458332"
         id="path1560"
         inkscape:connector-curvature="0" />
      <path
         d="m 31.039964,-2.1166666 h -1.367702 v -2.4701333 h 0.409966 v 2.1239013 h 0.957736 z"
         style="font-style:normal;font-variant:normal;font-weight:bold;font-stretch:normal;font-size:3.52777767px;font-family:'Yu Gothic UI';-inkscape-font-specification:'Yu Gothic UI Bold';stroke-width:0.26458332"
         id="path1562"
         inkscape:connector-curvature="0" />
      <path
         d="M 32.781461,-2.1166666 H 31.39481 v -2.4701333 h 1.331529 v 0.3479546 h -0.921563 v 0.6993544 h 0.849216 v 0.346232 h -0.849216 v 0.7303603 h 0.976685 z"
         style="font-style:normal;font-variant:normal;font-weight:bold;font-stretch:normal;font-size:3.52777767px;font-family:'Yu Gothic UI';-inkscape-font-specification:'Yu Gothic UI Bold';stroke-width:0.26458332"
         id="path1564"
         inkscape:connector-curvature="0" />
    </g>
    <g
       id="g1615"
       style="font-style:normal;font-variant:normal;font-weight:normal;font-stretch:normal;font-size:2.82222223px;line-height:1.25;font-family:'Yu Gothic UI';-inkscape-font-specification:'Yu Gothic UI';letter-spacing:0px;word-spacing:0px;fill:#ffffff;fill-opacity:1;stroke:none;stroke-width:0.26458332"
       aria-label="OUTPUT"
       transform="translate(-2.7068625,218.76606)">
      <path
         inkscape:connector-curvature="0"
         id="path1603"
         style="stroke-width:0.26458332"
         d="m 38.097245,-3.9356771 q -0.420301,0 -0.67386,-0.2769857 -0.252181,-0.2769856 -0.252181,-0.7207139 0,-0.4768013 0.257693,-0.7606771 0.257693,-0.2838759 0.701421,-0.2838759 0.409277,0 0.658702,0.2756076 0.250803,0.2756077 0.250803,0.720714 0,0.4836914 -0.256315,0.7648112 -0.256315,0.2811198 -0.686263,0.2811198 z m 0.01654,-1.8327908 q -0.311437,0 -0.50574,0.2246202 -0.194304,0.2246203 -0.194304,0.5898004 0,0.3651801 0.188791,0.5884223 0.19017,0.2218641 0.494716,0.2218641 0.325217,0 0.51263,-0.2122178 0.187414,-0.2122179 0.187414,-0.5939345 0,-0.3913628 -0.181901,-0.6049588 -0.181901,-0.2135959 -0.501606,-0.2135959 z" />
      <path
         inkscape:connector-curvature="0"
         id="path1605"
         style="stroke-width:0.26458332"
         d="m 40.873992,-4.7680122 q 0,0.8323351 -0.751031,0.8323351 -0.719336,0 -0.719336,-0.8006402 v -1.2085395 h 0.231511 v 1.1933811 q 0,0.6077148 0.51263,0.6077148 0.494716,0 0.494716,-0.5870442 v -1.2140517 h 0.23151 z" />
      <path
         inkscape:connector-curvature="0"
         id="path1607"
         style="stroke-width:0.26458332"
         d="m 42.537284,-5.735395 h -0.570507 v 1.766645 h -0.231511 v -1.766645 h -0.56913 v -0.2094618 h 1.371148 z" />
      <path
         inkscape:connector-curvature="0"
         id="path1609"
         style="stroke-width:0.26458332"
         d="M 43.077475,-4.7156467 V -3.96875 h -0.23151 v -1.9761068 h 0.542947 q 0.316949,0 0.490581,0.1543403 0.175011,0.1543403 0.175011,0.4354601 0,0.2811198 -0.194303,0.4602647 -0.192925,0.179145 -0.522277,0.179145 z m 0,-1.0197483 v 0.8102865 h 0.242535 q 0.239779,0 0.36518,-0.108865 0.12678,-0.1102431 0.12678,-0.3100586 0,-0.3913629 -0.463021,-0.3913629 z" />
      <path
         inkscape:connector-curvature="0"
         id="path1611"
         style="stroke-width:0.26458332"
         d="m 45.873515,-4.7680122 q 0,0.8323351 -0.751031,0.8323351 -0.719336,0 -0.719336,-0.8006402 v -1.2085395 h 0.23151 v 1.1933811 q 0,0.6077148 0.512631,0.6077148 0.494715,0 0.494715,-0.5870442 v -1.2140517 h 0.231511 z" />
      <path
         inkscape:connector-curvature="0"
         id="path1613"
         style="stroke-width:0.26458332"
         d="m 47.536807,-5.735395 h -0.570508 v 1.766645 h -0.23151 v -1.766645 h -0.56913 v -0.2094618 h 1.371148 z" />
    </g>
    <g
       id="g1625"
       style="font-style:normal;font-variant:normal;font-weight:normal;font-stretch:normal;font-size:2.82222223px;line-height:1.25;font-family:'Yu Gothic UI';-inkscape-font-specification:'Yu Gothic UI';letter-spacing:0px;word-spacing:0px;fill:#ffffff;fill-opacity:1;stroke:none;stroke-width:0.26458332"
       aria-label="MUTE"
       transform="translate(-31.575974,206.86217)">
      <path
         inkscape:connector-curvature="0"
         id="path1617"
         style="stroke-width:0.26458332"
         d="M 53.867513,7.9375 H 53.637381 V 6.6118273 q 0,-0.1570964 0.01929,-0.3844727 h -0.0055 q -0.03307,0.1336697 -0.05926,0.1915473 L 52.916667,7.9375 H 52.803668 L 52.129807,6.4299262 q -0.02894,-0.066146 -0.05926,-0.2025716 h -0.0055 q 0.01102,0.1185113 0.01102,0.3872287 V 7.9375 H 51.852821 V 5.9613932 h 0.305925 l 0.606336,1.3780382 q 0.07028,0.1584744 0.09095,0.2370226 h 0.0083 q 0.05926,-0.1626085 0.09509,-0.2425347 l 0.618739,-1.3725261 h 0.289388 z" />
      <path
         inkscape:connector-curvature="0"
         id="path1619"
         style="stroke-width:0.26458332"
         d="m 55.833973,7.1382378 q 0,0.8323351 -0.75103,0.8323351 -0.719336,0 -0.719336,-0.8006402 V 5.9613932 h 0.23151 v 1.1933811 q 0,0.6077148 0.51263,0.6077148 0.494716,0 0.494716,-0.5870442 V 5.9613932 h 0.23151 z" />
      <path
         inkscape:connector-curvature="0"
         id="path1621"
         style="stroke-width:0.26458332"
         d="M 57.497266,6.170855 H 56.926758 V 7.9375 h -0.23151 V 6.170855 h -0.56913 V 5.9613932 h 1.371148 z" />
      <path
         inkscape:connector-curvature="0"
         id="path1623"
         style="stroke-width:0.26458332"
         d="M 58.853255,7.9375 H 57.805946 V 5.9613932 h 1.003212 V 6.170855 H 58.037457 V 6.8281792 H 58.75128 V 7.036263 h -0.713823 v 0.6917752 h 0.815798 z" />
    </g>
    <g
       transform="translate(-2.7068625,229.89044)"
       aria-label="OUTPUT"
       style="font-style:normal;font-variant:normal;font-weight:normal;font-stretch:normal;font-size:2.82222223px;line-height:1.25;font-family:'Yu Gothic UI';-inkscape-font-specification:'Yu Gothic UI';letter-spacing:0px;word-spacing:0px;fill:#ffffff;fill-opacity:1;stroke:none;stroke-width:0.26458332"
       id="g1639">
      <path
         d="m 38.097245,-3.9356771 q -0.420301,0 -0.67386,-0.2769857 -0.252181,-0.2769856 -0.252181,-0.7207139 0,-0.4768013 0.257693,-0.7606771 0.257693,-0.2838759 0.701421,-0.2838759 0.409277,0 0.658702,0.2756076 0.250803,0.2756077 0.250803,0.720714 0,0.4836914 -0.256315,0.7648112 -0.256315,0.2811198 -0.686263,0.2811198 z m 0.01654,-1.8327908 q -0.311437,0 -0.50574,0.2246202 -0.194304,0.2246203 -0.194304,0.5898004 0,0.3651801 0.188791,0.5884223 0.19017,0.2218641 0.494716,0.2218641 0.325217,0 0.51263,-0.2122178 0.187414,-0.2122179 0.187414,-0.5939345 0,-0.3913628 -0.181901,-0.6049588 -0.181901,-0.2135959 -0.501606,-0.2135959 z"
         style="stroke-width:0.26458332"
         id="path1627"
         inkscape:connector-curvature="0" />
      <path
         d="m 40.873992,-4.7680122 q 0,0.8323351 -0.751031,0.8323351 -0.719336,0 -0.719336,-0.8006402 v -1.2085395 h 0.231511 v 1.1933811 q 0,0.6077148 0.51263,0.6077148 0.494716,0 0.494716,-0.5870442 v -1.2140517 h 0.23151 z"
         style="stroke-width:0.26458332"
         id="path1629"
         inkscape:connector-curvature="0" />
      <path
         d="m 42.537284,-5.735395 h -0.570507 v 1.766645 h -0.231511 v -1.766645 h -0.56913 v -0.2094618 h 1.371148 z"
         style="stroke-width:0.26458332"
         id="path1631"
         inkscape:connector-curvature="0" />
      <path
         d="M 43.077475,-4.7156467 V -3.96875 h -0.23151 v -1.9761068 h 0.542947 q 0.316949,0 0.490581,0.1543403 0.175011,0.1543403 0.175011,0.4354601 0,0.2811198 -0.194303,0.4602647 -0.192925,0.179145 -0.522277,0.179145 z m 0,-1.0197483 v 0.8102865 h 0.242535 q 0.239779,0 0.36518,-0.108865 0.12678,-0.1102431 0.12678,-0.3100586 0,-0.3913629 -0.463021,-0.3913629 z"
         style="stroke-width:0.26458332"
         id="path1633"
         inkscape:connector-curvature="0" />
      <path
         d="m 45.873515,-4.7680122 q 0,0.8323351 -0.751031,0.8323351 -0.719336,0 -0.719336,-0.8006402 v -1.2085395 h 0.23151 v 1.1933811 q 0,0.6077148 0.512631,0.6077148 0.494715,0 0.494715,-0.5870442 v -1.2140517 h 0.231511 z"
         style="stroke-width:0.26458332"
         id="path1635"
         inkscape:connector-curvature="0" />
      <path
         d="m 47.536807,-5.735395 h -0.570508 v 1.766645 h -0.23151 v -1.766645 h -0.56913 v -0.2094618 h 1.371148 z"
         style="stroke-width:0.26458332"
         id="path1637"
         inkscape:connector-curvature="0" />
    </g>
    <g
       transform="translate(-31.575974,217.98655)"
       aria-label="MUTE"
       style="font-style:normal;font-variant:normal;font-weight:normal;font-stretch:normal;font-size:2.82222223px;line-height:1.25;font-family:'Yu Gothic UI';-inkscape-font-specification:'Yu Gothic UI';letter-spacing:0px;word-spacing:0px;fill:#ffffff;fill-opacity:1;stroke:none;stroke-width:0.26458332"
       id="g1649">
      <path
         d="M 53.867513,7.9375 H 53.637381 V 6.6118273 q 0,-0.1570964 0.01929,-0.3844727 h -0.0055 q -0.03307,0.1336697 -0.05926,0.1915473 L 52.916667,7.9375 H 52.803668 L 52.129807,6.4299262 q -0.02894,-0.066146 -0.05926,-0.2025716 h -0.0055 q 0.01102,0.1185113 0.01102,0.3872287 V 7.9375 H 51.852821 V 5.9613932 h 0.305925 l 0.606336,1.3780382 q 0.07028,0.1584744 0.09095,0.2370226 h 0.0083 q 0.05926,-0.1626085 0.09509,-0.2425347 l 0.618739,-1.3725261 h 0.289388 z"
         style="stroke-width:0.26458332"
         id="path1641"
         inkscape:connector-curvature="0" />
      <path
         d="m 55.833973,7.1382378 q 0,0.8323351 -0.75103,0.8323351 -0.719336,0 -0.719336,-0.8006402 V 5.9613932 h 0.23151 v 1.1933811 q 0,0.6077148 0.51263,0.6077148 0.494716,0 0.494716,-0.5870442 V 5.9613932 h 0.23151 z"
         style="stroke-width:0.26458332"
         id="path1643"
         inkscape:connector-curvature="0" />
      <path
         d="M 57.497266,6.170855 H 56.926758 V 7.9375 h -0.23151 V 6.170855 h -0.56913 V 5.9613932 h 1.371148 z"
         style="stroke-width:0.26458332"
         id="path1645"
         inkscape:connector-curvature="0" />
      <path
         d="M 58.853255,7.9375 H 57.805946 V 5.9613932 h 1.003212 V 6.170855 H 58.037457 V 6.8281792 H 58.75128 V 7.036263 h -0.713823 v 0.6917752 h 0.815798 z"
         style="stroke-width:0.26458332"
         id="path1647"
         inkscape:connector-curvature="0" />
    </g>
    <g
       id="g1663"
       style="font-style:normal;font-variant:normal;font-weight:normal;font-stretch:normal;font-size:2.82222223px;line-height:1.25;font-family:'Yu Gothic UI';-inkscape-font-specification:'Yu Gothic UI';letter-spacing:0px;word-spacing:0px;fill:#ffffff;fill-opacity:1;stroke:none;stroke-width:0.26458332"
       aria-label="OUTPUT"
       transform="translate(-2.7068625,241.00301)">
      <path
         inkscape:connector-curvature="0"
         id="path1651"
         style="stroke-width:0.26458332"
         d="m 38.097245,-3.9356771 q -0.420301,0 -0.67386,-0.2769857 -0.252181,-0.2769856 -0.252181,-0.7207139 0,-0.4768013 0.257693,-0.7606771 0.257693,-0.2838759 0.701421,-0.2838759 0.409277,0 0.658702,0.2756076 0.250803,0.2756077 0.250803,0.720714 0,0.4836914 -0.256315,0.7648112 -0.256315,0.2811198 -0.686263,0.2811198 z m 0.01654,-1.8327908 q -0.311437,0 -0.50574,0.2246202 -0.194304,0.2246203 -0.194304,0.5898004 0,0.3651801 0.188791,0.5884223 0.19017,0.2218641 0.494716,0.2218641 0.325217,0 0.51263,-0.2122178 0.187414,-0.2122179 0.187414,-0.5939345 0,-0.3913628 -0.181901,-0.6049588 -0.181901,-0.2135959 -0.501606,-0.2135959 z" />
      <path
         inkscape:connector-curvature="0"
         id="path1653"
         style="stroke-width:0.26458332"
         d="m 40.873992,-4.7680122 q 0,0.8323351 -0.751031,0.8323351 -0.719336,0 -0.719336,-0.8006402 v -1.2085395 h 0.231511 v 1.1933811 q 0,0.6077148 0.51263,0.6077148 0.494716,0 0.494716,-0.5870442 v -1.2140517 h 0.23151 z" />
      <path
         inkscape:connector-curvature="0"
         id="path1655"
         style="stroke-width:0.26458332"
         d="m 42.537284,-5.735395 h -0.570507 v 1.766645 h -0.231511 v -1.766645 h -0.56913 v -0.2094618 h 1.371148 z" />
      <path
         inkscape:connector-curvature="0"
         id="path1657"
         style="stroke-width:0.26458332"
         d="M 43.077475,-4.7156467 V -3.96875 h -0.23151 v -1.9761068 h 0.542947 q 0.316949,0 0.490581,0.1543403 0.175011,0.1543403 0.175011,0.4354601 0,0.2811198 -0.194303,0.4602647 -0.192925,0.179145 -0.522277,0.179145 z m 0,-1.0197483 v 0.8102865 h 0.242535 q 0.239779,0 0.36518,-0.108865 0.12678,-0.1102431 0.12678,-0.3100586 0,-0.3913629 -0.463021,-0.3913629 z" />
      <path
         inkscape:connector-curvature="0"
         id="path1659"
         style="stroke-width:0.26458332"
         d="m 45.873515,-4.7680122 q 0,0.8323351 -0.751031,0.8323351 -0.719336,0 -0.719336,-0.8006402 v -1.2085395 h 0.23151 v 1.1933811 q 0,0.6077148 0.512631,0.6077148 0.494715,0 0.494715,-0.5870442 v -1.2140517 h 0.231511 z" />
      <path
         inkscape:connector-curvature="0"
         id="path1661"
         style="stroke-width:0.26458332"
         d="m 47.536807,-5.735395 h -0.570508 v 1.766645 h -0.23151 v -1.766645 h -0.56913 v -0.2094618 h 1.371148 z" />
    </g>
    <g
       id="g1673"
       style="font-style:normal;font-variant:normal;font-weight:normal;font-stretch:normal;font-size:2.82222223px;line-height:1.25;font-family:'Yu Gothic UI';-inkscape-font-specification:'Yu Gothic UI';letter-spacing:0px;word-spacing:0px;fill:#ffffff;fill-opacity:1;stroke:none;stroke-width:0.26458332"
       aria-label="MUTE"
       transform="translate(-31.575974,229.09912)">
      <path
         inkscape:connector-curvature="0"
         id="path1665"
         style="stroke-width:0.26458332"
         d="M 53.867513,7.9375 H 53.637381 V 6.6118273 q 0,-0.1570964 0.01929,-0.3844727 h -0.0055 q -0.03307,0.1336697 -0.05926,0.1915473 L 52.916667,7.9375 H 52.803668 L 52.129807,6.4299262 q -0.02894,-0.066146 -0.05926,-0.2025716 h -0.0055 q 0.01102,0.1185113 0.01102,0.3872287 V 7.9375 H 51.852821 V 5.9613932 h 0.305925 l 0.606336,1.3780382 q 0.07028,0.1584744 0.09095,0.2370226 h 0.0083 q 0.05926,-0.1626085 0.09509,-0.2425347 l 0.618739,-1.3725261 h 0.289388 z" />
      <path
         inkscape:connector-curvature="0"
         id="path1667"
         style="stroke-width:0.26458332"
         d="m 55.833973,7.1382378 q 0,0.8323351 -0.75103,0.8323351 -0.719336,0 -0.719336,-0.8006402 V 5.9613932 h 0.23151 v 1.1933811 q 0,0.6077148 0.51263,0.6077148 0.494716,0 0.494716,-0.5870442 V 5.9613932 h 0.23151 z" />
      <path
         inkscape:connector-curvature="0"
         id="path1669"
         style="stroke-width:0.26458332"
         d="M 57.497266,6.170855 H 56.926758 V 7.9375 h -0.23151 V 6.170855 h -0.56913 V 5.9613932 h 1.371148 z" />
      <path
         inkscape:connector-curvature="0"
         id="path1671"
         style="stroke-width:0.26458332"
         d="M 58.853255,7.9375 H 57.805946 V 5.9613932 h 1.003212 V 6.170855 H 58.037457 V 6.8281792 H 58.75128 V 7.036263 h -0.713823 v 0.6917752 h 0.815798 z" />
    </g>
    <g
       transform="translate(-2.7068625,252.11558)"
       aria-label="OUTPUT"
       style="font-style:normal;font-variant:normal;font-weight:normal;font-stretch:normal;font-size:2.82222223px;line-height:1.25;font-family:'Yu Gothic UI';-inkscape-font-specification:'Yu Gothic UI';letter-spacing:0px;word-spacing:0px;fill:#ffffff;fill-opacity:1;stroke:none;stroke-width:0.26458332"
       id="g1687">
      <path
         d="m 38.097245,-3.9356771 q -0.420301,0 -0.67386,-0.2769857 -0.252181,-0.2769856 -0.252181,-0.7207139 0,-0.4768013 0.257693,-0.7606771 0.257693,-0.2838759 0.701421,-0.2838759 0.409277,0 0.658702,0.2756076 0.250803,0.2756077 0.250803,0.720714 0,0.4836914 -0.256315,0.7648112 -0.256315,0.2811198 -0.686263,0.2811198 z m 0.01654,-1.8327908 q -0.311437,0 -0.50574,0.2246202 -0.194304,0.2246203 -0.194304,0.5898004 0,0.3651801 0.188791,0.5884223 0.19017,0.2218641 0.494716,0.2218641 0.325217,0 0.51263,-0.2122178 0.187414,-0.2122179 0.187414,-0.5939345 0,-0.3913628 -0.181901,-0.6049588 -0.181901,-0.2135959 -0.501606,-0.2135959 z"
         style="stroke-width:0.26458332"
         id="path1675"
         inkscape:connector-curvature="0" />
      <path
         d="m 40.873992,-4.7680122 q 0,0.8323351 -0.751031,0.8323351 -0.719336,0 -0.719336,-0.8006402 v -1.2085395 h 0.231511 v 1.1933811 q 0,0.6077148 0.51263,0.6077148 0.494716,0 0.494716,-0.5870442 v -1.2140517 h 0.23151 z"
         style="stroke-width:0.26458332"
         id="path1677"
         inkscape:connector-curvature="0" />
      <path
         d="m 42.537284,-5.735395 h -0.570507 v 1.766645 h -0.231511 v -1.766645 h -0.56913 v -0.2094618 h 1.371148 z"
         style="stroke-width:0.26458332"
         id="path1679"
         inkscape:connector-curvature="0" />
      <path
         d="M 43.077475,-4.7156467 V -3.96875 h -0.23151 v -1.9761068 h 0.542947 q 0.316949,0 0.490581,0.1543403 0.175011,0.1543403 0.175011,0.4354601 0,0.2811198 -0.194303,0.4602647 -0.192925,0.179145 -0.522277,0.179145 z m 0,-1.0197483 v 0.8102865 h 0.242535 q 0.239779,0 0.36518,-0.108865 0.12678,-0.1102431 0.12678,-0.3100586 0,-0.3913629 -0.463021,-0.3913629 z"
         style="stroke-width:0.26458332"
         id="path1681"
         inkscape:connector-curvature="0" />
      <path
         d="m 45.873515,-4.7680122 q 0,0.8323351 -0.751031,0.8323351 -0.719336,0 -0.719336,-0.8006402 v -1.2085395 h 0.23151 v 1.1933811 q 0,0.6077148 0.512631,0.6077148 0.494715,0 0.494715,-0.5870442 v -1.2140517 h 0.231511 z"
         style="stroke-width:0.26458332"
         id="path1683"
         inkscape:connector-curvature="0" />
      <path
         d="m 47.536807,-5.735395 h -0.570508 v 1.766645 h -0.23151 v -1.766645 h -0.56913 v -0.2094618 h 1.371148 z"
         style="stroke-width:0.26458332"
         id="path1685"
         inkscape:connector-curvature="0" />
    </g>
    <g
       transform="translate(-31.575974,240.21169)"
       aria-label="MUTE"
       style="font-style:normal;font-variant:normal;font-weight:normal;font-stretch:normal;font-size:2.82222223px;line-height:1.25;font-family:'Yu Gothic UI';-inkscape-font-specification:'Yu Gothic UI';letter-spacing:0px;word-spacing:0px;fill:#ffffff;fill-opacity:1;stroke:none;stroke-width:0.26458332"
       id="g1697">
      <path
         d="M 53.867513,7.9375 H 53.637381 V 6.6118273 q 0,-0.1570964 0.01929,-0.3844727 h -0.0055 q -0.03307,0.1336697 -0.05926,0.1915473 L 52.916667,7.9375 H 52.803668 L 52.129807,6.4299262 q -0.02894,-0.066146 -0.05926,-0.2025716 h -0.0055 q 0.01102,0.1185113 0.01102,0.3872287 V 7.9375 H 51.852821 V 5.9613932 h 0.305925 l 0.606336,1.3780382 q 0.07028,0.1584744 0.09095,0.2370226 h 0.0083 q 0.05926,-0.1626085 0.09509,-0.2425347 l 0.618739,-1.3725261 h 0.289388 z"
         style="stroke-width:0.26458332"
         id="path1689"
         inkscape:connector-curvature="0" />
      <path
         d="m 55.833973,7.1382378 q 0,0.8323351 -0.75103,0.8323351 -0.719336,0 -0.719336,-0.8006402 V 5.9613932 h 0.23151 v 1.1933811 q 0,0.6077148 0.51263,0.6077148 0.494716,0 0.494716,-0.5870442 V 5.9613932 h 0.23151 z"
         style="stroke-width:0.26458332"
         id="path1691"
         inkscape:connector-curvature="0" />
      <path
         d="M 57.497266,6.170855 H 56.926758 V 7.9375 h -0.23151 V 6.170855 h -0.56913 V 5.9613932 h 1.371148 z"
         style="stroke-width:0.26458332"
         id="path1693"
         inkscape:connector-curvature="0" />
      <path
         d="M 58.853255,7.9375 H 57.805946 V 5.9613932 h 1.003212 V 6.170855 H 58.037457 V 6.8281792 H 58.75128 V 7.036263 h -0.713823 v 0.6917752 h 0.815798 z"
         style="stroke-width:0.26458332"
         id="path1695"
         inkscape:connector-curvature="0" />
    </g>
    <g
       id="g1711"
       style="font-style:normal;font-variant:normal;font-weight:normal;font-stretch:normal;font-size:2.82222223px;line-height:1.25;font-family:'Yu Gothic UI';-inkscape-font-specification:'Yu Gothic UI';letter-spacing:0px;word-spacing:0px;fill:#ffffff;fill-opacity:1;stroke:none;stroke-width:0.26458332"
       aria-label="OUTPUT"
       transform="translate(-2.7068625,263.22815)">
      <path
         inkscape:connector-curvature="0"
         id="path1699"
         style="stroke-width:0.26458332"
         d="m 38.097245,-3.9356771 q -0.420301,0 -0.67386,-0.2769857 -0.252181,-0.2769856 -0.252181,-0.7207139 0,-0.4768013 0.257693,-0.7606771 0.257693,-0.2838759 0.701421,-0.2838759 0.409277,0 0.658702,0.2756076 0.250803,0.2756077 0.250803,0.720714 0,0.4836914 -0.256315,0.7648112 -0.256315,0.2811198 -0.686263,0.2811198 z m 0.01654,-1.8327908 q -0.311437,0 -0.50574,0.2246202 -0.194304,0.2246203 -0.194304,0.5898004 0,0.3651801 0.188791,0.5884223 0.19017,0.2218641 0.494716,0.2218641 0.325217,0 0.51263,-0.2122178 0.187414,-0.2122179 0.187414,-0.5939345 0,-0.3913628 -0.181901,-0.6049588 -0.181901,-0.2135959 -0.501606,-0.2135959 z" />
      <path
         inkscape:connector-curvature="0"
         id="path1701"
         style="stroke-width:0.26458332"
         d="m 40.873992,-4.7680122 q 0,0.8323351 -0.751031,0.8323351 -0.719336,0 -0.719336,-0.8006402 v -1.2085395 h 0.231511 v 1.1933811 q 0,0.6077148 0.51263,0.6077148 0.494716,0 0.494716,-0.5870442 v -1.2140517 h 0.23151 z" />
      <path
         inkscape:connector-curvature="0"
         id="path1703"
         style="stroke-width:0.26458332"
         d="m 42.537284,-5.735395 h -0.570507 v 1.766645 h -0.231511 v -1.766645 h -0.56913 v -0.2094618 h 1.371148 z" />
      <path
         inkscape:connector-curvature="0"
         id="path1705"
         style="stroke-width:0.26458332"
         d="M 43.077475,-4.7156467 V -3.96875 h -0.23151 v -1.9761068 h 0.542947 q 0.316949,0 0.490581,0.1543403 0.175011,0.1543403 0.175011,0.4354601 0,0.2811198 -0.194303,0.4602647 -0.192925,0.179145 -0.522277,0.179145 z m 0,-1.0197483 v 0.8102865 h 0.242535 q 0.239779,0 0.36518,-0.108865 0.12678,-0.1102431 0.12678,-0.3100586 0,-0.3913629 -0.463021,-0.3913629 z" />
      <path
         inkscape:connector-curvature="0"
         id="path1707"
         style="stroke-width:0.26458332"
         d="m 45.873515,-4.7680122 q 0,0.8323351 -0.751031,0.8323351 -0.719336,0 -0.719336,-0.8006402 v -1.2085395 h 0.23151 v 1.1933811 q 0,0.6077148 0.512631,0.6077148 0.494715,0 0.494715,-0.5870442 v -1.2140517 h 0.231511 z" />
      <path
         inkscape:connector-curvature="0"
         id="path1709"
         style="stroke-width:0.26458332"
         d="m 47.536807,-5.735395 h -0.570508 v 1.766645 h -0.23151 v -1.766645 h -0.56913 v -0.2094618 h 1.371148 z" />
    </g>
    <g
       id="g1721"
       style="font-style:normal;font-variant:normal;font-weight:normal;font-stretch:normal;font-size:2.82222223px;line-height:1.25;font-family:'Yu Gothic UI';-inkscape-font-specification:'Yu Gothic UI';letter-spacing:0px;word-spacing:0px;fill:#ffffff;fill-opacity:1;stroke:none;stroke-width:0.26458332"
       aria-label="MUTE"
       transform="translate(-31.575974,251.32426)">
      <path
         inkscape:connector-curvature="0"
         id="path1713"
         style="stroke-width:0.26458332"
         d="M 53.867513,7.9375 H 53.637381 V 6.6118273 q 0,-0.1570964 0.01929,-0.3844727 h -0.0055 q -0.03307,0.1336697 -0.05926,0.1915473 L 52.916667,7.9375 H 52.803668 L 52.129807,6.4299262 q -0.02894,-0.066146 -0.05926,-0.2025716 h -0.0055 q 0.01102,0.1185113 0.01102,0.3872287 V 7.9375 H 51.852821 V 5.9613932 h 0.305925 l 0.606336,1.3780382 q 0.07028,0.1584744 0.09095,0.2370226 h 0.0083 q 0.05926,-0.1626085 0.09509,-0.2425347 l 0.618739,-1.3725261 h 0.289388 z" />
      <path
         inkscape:connector-curvature="0"
         id="path1715"
         style="stroke-width:0.26458332"
         d="m 55.833973,7.1382378 q 0,0.8323351 -0.75103,0.8323351 -0.719336,0 -0.719336,-0.8006402 V 5.9613932 h 0.23151 v 1.1933811 q 0,0.6077148 0.51263,0.6077148 0.494716,0 0.494716,-0.5870442 V 5.9613932 h 0.23151 z" />
      <path
         inkscape:connector-curvature="0"
         id="path1717"
         style="stroke-width:0.26458332"
         d="M 57.497266,6.170855 H 56.926758 V 7.9375 h -0.23151 V 6.170855 h -0.56913 V 5.9613932 h 1.371148 z" />
      <path
         inkscape:connector-curvature="0"
         id="path1719"
         style="stroke-width:0.26458332"
         d="M 58.853255,7.9375 H 57.805946 V 5.9613932 h 1.003212 V 6.170855 H 58.037457 V 6.8281792 H 58.75128 V 7.036263 h -0.713823 v 0.6917752 h 0.815798 z" />
    </g>
    <g
       transform="translate(-2.7068625,274.34072)"
       aria-label="OUTPUT"
       style="font-style:normal;font-variant:normal;font-weight:normal;font-stretch:normal;font-size:2.82222223px;line-height:1.25;font-family:'Yu Gothic UI';-inkscape-font-specification:'Yu Gothic UI';letter-spacing:0px;word-spacing:0px;fill:#ffffff;fill-opacity:1;stroke:none;stroke-width:0.26458332"
       id="g1735">
      <path
         d="m 38.097245,-3.9356771 q -0.420301,0 -0.67386,-0.2769857 -0.252181,-0.2769856 -0.252181,-0.7207139 0,-0.4768013 0.257693,-0.7606771 0.257693,-0.2838759 0.701421,-0.2838759 0.409277,0 0.658702,0.2756076 0.250803,0.2756077 0.250803,0.720714 0,0.4836914 -0.256315,0.7648112 -0.256315,0.2811198 -0.686263,0.2811198 z m 0.01654,-1.8327908 q -0.311437,0 -0.50574,0.2246202 -0.194304,0.2246203 -0.194304,0.5898004 0,0.3651801 0.188791,0.5884223 0.19017,0.2218641 0.494716,0.2218641 0.325217,0 0.51263,-0.2122178 0.187414,-0.2122179 0.187414,-0.5939345 0,-0.3913628 -0.181901,-0.6049588 -0.181901,-0.2135959 -0.501606,-0.2135959 z"
         style="stroke-width:0.26458332"
         id="path1723"
         inkscape:connector-curvature="0" />
      <path
         d="m 40.873992,-4.7680122 q 0,0.8323351 -0.751031,0.8323351 -0.719336,0 -0.719336,-0.8006402 v -1.2085395 h 0.231511 v 1.1933811 q 0,0.6077148 0.51263,0.6077148 0.494716,0 0.494716,-0.5870442 v -1.2140517 h 0.23151 z"
         style="stroke-width:0.26458332"
         id="path1725"
         inkscape:connector-curvature="0" />
      <path
         d="m 42.537284,-5.735395 h -0.570507 v 1.766645 h -0.231511 v -1.766645 h -0.56913 v -0.2094618 h 1.371148 z"
         style="stroke-width:0.26458332"
         id="path1727"
         inkscape:connector-curvature="0" />
      <path
         d="M 43.077475,-4.7156467 V -3.96875 h -0.23151 v -1.9761068 h 0.542947 q 0.316949,0 0.490581,0.1543403 0.175011,0.1543403 0.175011,0.4354601 0,0.2811198 -0.194303,0.4602647 -0.192925,0.179145 -0.522277,0.179145 z m 0,-1.0197483 v 0.8102865 h 0.242535 q 0.239779,0 0.36518,-0.108865 0.12678,-0.1102431 0.12678,-0.3100586 0,-0.3913629 -0.463021,-0.3913629 z"
         style="stroke-width:0.26458332"
         id="path1729"
         inkscape:connector-curvature="0" />
      <path
         d="m 45.873515,-4.7680122 q 0,0.8323351 -0.751031,0.8323351 -0.719336,0 -0.719336,-0.8006402 v -1.2085395 h 0.23151 v 1.1933811 q 0,0.6077148 0.512631,0.6077148 0.494715,0 0.494715,-0.5870442 v -1.2140517 h 0.231511 z"
         style="stroke-width:0.26458332"
         id="path1731"
         inkscape:connector-curvature="0" />
      <path
         d="m 47.536807,-5.735395 h -0.570508 v 1.766645 h -0.23151 v -1.766645 h -0.56913 v -0.2094618 h 1.371148 z"
         style="stroke-width:0.26458332"
         id="path1733"
         inkscape:connector-curvature="0" />
    </g>
    <g
       transform="translate(-31.575974,262.43683)"
       aria-label="MUTE"
       style="font-style:normal;font-variant:normal;font-weight:normal;font-stretch:normal;font-size:2.82222223px;line-height:1.25;font-family:'Yu Gothic UI';-inkscape-font-specification:'Yu Gothic UI';letter-spacing:0px;word-spacing:0px;fill:#ffffff;fill-opacity:1;stroke:none;stroke-width:0.26458332"
       id="g1745">
      <path
         d="M 53.867513,7.9375 H 53.637381 V 6.6118273 q 0,-0.1570964 0.01929,-0.3844727 h -0.0055 q -0.03307,0.1336697 -0.05926,0.1915473 L 52.916667,7.9375 H 52.803668 L 52.129807,6.4299262 q -0.02894,-0.066146 -0.05926,-0.2025716 h -0.0055 q 0.01102,0.1185113 0.01102,0.3872287 V 7.9375 H 51.852821 V 5.9613932 h 0.305925 l 0.606336,1.3780382 q 0.07028,0.1584744 0.09095,0.2370226 h 0.0083 q 0.05926,-0.1626085 0.09509,-0.2425347 l 0.618739,-1.3725261 h 0.289388 z"
         style="stroke-width:0.26458332"
         id="path1737"
         inkscape:connector-curvature="0" />
      <path
         d="m 55.833973,7.1382378 q 0,0.8323351 -0.75103,0.8323351 -0.719336,0 -0.719336,-0.8006402 V 5.9613932 h 0.23151 v 1.1933811 q 0,0.6077148 0.51263,0.6077148 0.494716,0 0.494716,-0.5870442 V 5.9613932 h 0.23151 z"
         style="stroke-width:0.26458332"
         id="path1739"
         inkscape:connector-curvature="0" />
      <path
         d="M 57.497266,6.170855 H 56.926758 V 7.9375 h -0.23151 V 6.170855 h -0.56913 V 5.9613932 h 1.371148 z"
         style="stroke-width:0.26458332"
         id="path1741"
         inkscape:connector-curvature="0" />
      <path
         d="M 58.853255,7.9375 H 57.805946 V 5.9613932 h 1.003212 V 6.170855 H 58.037457 V 6.8281792 H 58.75128 V 7.036263 h -0.713823 v 0.6917752 h 0.815798 z"
         style="stroke-width:0.26458332"
         id="path1743"
         inkscape:connector-curvature="0" />
    </g>
    <g
       id="g1759"
       style="font-style:normal;font-variant:normal;font-weight:normal;font-stretch:normal;font-size:2.82222223px;line-height:1.25;font-family:'Yu Gothic UI';-inkscape-font-specification:'Yu Gothic UI';letter-spacing:0px;word-spacing:0px;fill:#ffffff;fill-opacity:1;stroke:none;stroke-width:0.26458332"
       aria-label="OUTPUT"
       transform="translate(-2.7068625,285.45329)">
      <path
         inkscape:connector-curvature="0"
         id="path1747"
         style="stroke-width:0.26458332"
         d="m 38.097245,-3.9356771 q -0.420301,0 -0.67386,-0.2769857 -0.252181,-0.2769856 -0.252181,-0.7207139 0,-0.4768013 0.257693,-0.7606771 0.257693,-0.2838759 0.701421,-0.2838759 0.409277,0 0.658702,0.2756076 0.250803,0.2756077 0.250803,0.720714 0,0.4836914 -0.256315,0.7648112 -0.256315,0.2811198 -0.686263,0.2811198 z m 0.01654,-1.8327908 q -0.311437,0 -0.50574,0.2246202 -0.194304,0.2246203 -0.194304,0.5898004 0,0.3651801 0.188791,0.5884223 0.19017,0.2218641 0.494716,0.2218641 0.325217,0 0.51263,-0.2122178 0.187414,-0.2122179 0.187414,-0.5939345 0,-0.3913628 -0.181901,-0.6049588 -0.181901,-0.2135959 -0.501606,-0.2135959 z" />
      <path
         inkscape:connector-curvature="0"
         id="path1749"
         style="stroke-width:0.26458332"
         d="m 40.873992,-4.7680122 q 0,0.8323351 -0.751031,0.8323351 -0.719336,0 -0.719336,-0.8006402 v -1.2085395 h 0.231511 v 1.1933811 q 0,0.6077148 0.51263,0.6077148 0.494716,0 0.494716,-0.5870442 v -1.2140517 h 0.23151 z" />
      <path
         inkscape:connector-curvature="0"
         id="path1751"
         style="stroke-width:0.26458332"
         d="m 42.537284,-5.735395 h -0.570507 v 1.766645 h -0.231511 v -1.766645 h -0.56913 v -0.2094618 h 1.371148 z" />
      <path
         inkscape:connector-curvature="0"
         id="path1753"
         style="stroke-width:0.26458332"
         d="M 43.077475,-4.7156467 V -3.96875 h -0.23151 v -1.9761068 h 0.542947 q 0.316949,0 0.490581,0.1543403 0.175011,0.1543403 0.175011,0.4354601 0,0.2811198 -0.194303,0.4602647 -0.192925,0.179145 -0.522277,0.179145 z m 0,-1.0197483 v 0.8102865 h 0.242535 q 0.239779,0 0.36518,-0.108865 0.12678,-0.1102431 0.12678,-0.3100586 0,-0.3913629 -0.463021,-0.3913629 z" />
      <path
         inkscape:connector-curvature="0"
         id="path1755"
         style="stroke-width:0.26458332"
         d="m 45.873515,-4.7680122 q 0,0.8323351 -0.751031,0.8323351 -0.719336,0 -0.719336,-0.8006402 v -1.2085395 h 0.23151 v 1.1933811 q 0,0.6077148 0.512631,0.6077148 0.494715,0 0.494715,-0.5870442 v -1.2140517 h 0.231511 z" />
      <path
         inkscape:connector-curvature="0"
         id="path1757"
         style="stroke-width:0.26458332"
         d="m 47.536807,-5.735395 h -0.570508 v 1.766645 h -0.23151 v -1.766645 h -0.56913 v -0.2094618 h 1.371148 z" />
    </g>
    <g
       id="g1769"
       style="font-style:normal;font-variant:normal;font-weight:normal;font-stretch:normal;font-size:2.82222223px;line-height:1.25;font-family:'Yu Gothic UI';-inkscape-font-specification:'Yu Gothic UI';letter-spacing:0px;word-spacing:0px;fill:#ffffff;fill-opacity:1;stroke:none;stroke-width:0.26458332"
       aria-label="MUTE"
       transform="translate(-31.575974,273.5494)">
      <path
         inkscape:connector-curvature="0"
         id="path1761"
         style="stroke-width:0.26458332"
         d="M 53.867513,7.9375 H 53.637381 V 6.6118273 q 0,-0.1570964 0.01929,-0.3844727 h -0.0055 q -0.03307,0.1336697 -0.05926,0.1915473 L 52.916667,7.9375 H 52.803668 L 52.129807,6.4299262 q -0.02894,-0.066146 -0.05926,-0.2025716 h -0.0055 q 0.01102,0.1185113 0.01102,0.3872287 V 7.9375 H 51.852821 V 5.9613932 h 0.305925 l 0.606336,1.3780382 q 0.07028,0.1584744 0.09095,0.2370226 h 0.0083 q 0.05926,-0.1626085 0.09509,-0.2425347 l 0.618739,-1.3725261 h 0.289388 z" />
      <path
         inkscape:connector-curvature="0"
         id="path1763"
         style="stroke-width:0.26458332"
         d="m 55.833973,7.1382378 q 0,0.8323351 -0.75103,0.8323351 -0.719336,0 -0.719336,-0.8006402 V 5.9613932 h 0.23151 v 1.1933811 q 0,0.6077148 0.51263,0.6077148 0.494716,0 0.494716,-0.5870442 V 5.9613932 h 0.23151 z" />
      <path
         inkscape:connector-curvature="0"
         id="path1765"
         style="stroke-width:0.26458332"
         d="M 57.497266,6.170855 H 56.926758 V 7.9375 h -0.23151 V 6.170855 h -0.56913 V 5.9613932 h 1.371148 z" />
      <path
         inkscape:connector-curvature="0"
         id="path1767"
         style="stroke-width:0.26458332"
         d="M 58.853255,7.9375 H 57.805946 V 5.9613932 h 1.003212 V 6.170855 H 58.037457 V 6.8281792 H 58.75128 V 7.036263 h -0.713823 v 0.6917752 h 0.815798 z" />
    </g>
    <path
       inkscape:connector-curvature="0"
       id="path1771"
       d="m 17.4625,218.94986 h 0.352312 2.8185"
       style="fill:none;stroke:#ffffff;stroke-width:0.3;stroke-linecap:butt;stroke-linejoin:miter;stroke-miterlimit:4;stroke-dasharray:none;stroke-opacity:1" />
    <path
       style="fill:none;stroke:#ffffff;stroke-width:0.3;stroke-linecap:butt;stroke-linejoin:miter;stroke-miterlimit:4;stroke-dasharray:none;stroke-opacity:1"
       d="m 17.4625,230.06243 h 0.322914 2.583315"
       id="path1773"
       inkscape:connector-curvature="0" />
    <path
       inkscape:connector-curvature="0"
       id="path1775"
       d="m 17.4625,241.175 h 0.322914 2.583315"
       style="fill:none;stroke:#ffffff;stroke-width:0.3;stroke-linecap:butt;stroke-linejoin:miter;stroke-miterlimit:4;stroke-dasharray:none;stroke-opacity:1" />
    <path
       sodipodi:nodetypes="cc"
       inkscape:connector-curvature="0"
       id="path1032"
       d="m 17.429096,252.2857 0.0027,33.33712"
       style="fill:none;stroke:#ffffff;stroke-width:0.3;stroke-linecap:round;stroke-linejoin:miter;stroke-miterlimit:4;stroke-dasharray:none;stroke-opacity:1" />
    <path
       style="fill:none;stroke:#ffffff;stroke-width:0.3;stroke-linecap:butt;stroke-linejoin:miter;stroke-miterlimit:4;stroke-dasharray:none;stroke-opacity:1"
       d="m 17.4625,263.40014 h 0.352312 2.8185"
       id="path1037"
       inkscape:connector-curvature="0" />
    <path
       inkscape:connector-curvature="0"
       id="path1039"
       d="m 17.4625,274.51271 h 0.322914 2.583315"
       style="fill:none;stroke:#ffffff;stroke-width:0.3;stroke-linecap:butt;stroke-linejoin:miter;stroke-miterlimit:4;stroke-dasharray:none;stroke-opacity:1" />
    <path
       style="fill:none;stroke:#ffffff;stroke-width:0.3;stroke-linecap:butt;stroke-linejoin:miter;stroke-miterlimit:4;stroke-dasharray:none;stroke-opacity:1"
       d="m 17.4625,285.62528 h 0.322914 2.583315"
       id="path1042"
       inkscape:connector-curvature="0" />
    <g
       aria-label="HARD"
       style="font-style:normal;font-variant:normal;font-weight:normal;font-stretch:normal;font-size:2.11666656px;line-height:1.25;font-family:'Yu Gothic UI';-inkscape-font-specification:'Yu Gothic UI';letter-spacing:0px;word-spacing:0px;fill:#ffffff;fill-opacity:1;stroke:none;stroke-width:0.26458332"
       id="text1046"
       transform="translate(-2.8841565,8.7612552)">
      <path
         d="M 9.2459472,226.88541 H 9.0723144 v -0.67593 H 8.3054362 v 0.67593 H 8.1318034 v -1.48208 h 0.1736328 v 0.65009 h 0.7668782 v -0.65009 h 0.1736328 z"
         style="font-size:2.11666656px;stroke-width:0.26458332"
         id="path1061"
         inkscape:connector-curvature="0" />
      <path
         d="m 10.783838,226.88541 h -0.192237 l -0.157096,-0.41548 H 9.8061197 l -0.1477946,0.41548 H 9.4650552 l 0.5684408,-1.48208 h 0.179834 z m -0.406177,-0.57154 -0.232544,-0.63149 q -0.01137,-0.031 -0.02274,-0.0992 h -0.0041 q -0.01033,0.0631 -0.02377,0.0992 l -0.2304767,0.63149 z"
         style="font-size:2.11666656px;stroke-width:0.26458332"
         id="path1063"
         inkscape:connector-curvature="0" />
      <path
         d="M 12.063346,226.88541 H 11.85664 l -0.248047,-0.41548 q -0.03411,-0.0579 -0.06615,-0.0982 -0.03204,-0.0413 -0.06615,-0.0672 -0.03307,-0.0258 -0.07235,-0.0372 -0.03824,-0.0124 -0.08682,-0.0124 h -0.142627 v 0.63046 h -0.173632 v -1.48208 h 0.44235 q 0.09715,0 0.1788,0.0248 0.08268,0.0238 0.142627,0.0734 0.06098,0.0496 0.09508,0.12403 0.03411,0.0734 0.03411,0.17259 0,0.0775 -0.02377,0.14263 -0.02274,0.0641 -0.06615,0.11472 -0.04237,0.0507 -0.103352,0.0868 -0.05995,0.0351 -0.135393,0.0548 v 0.004 q 0.03721,0.0165 0.06408,0.0382 0.02791,0.0207 0.05271,0.0496 0.0248,0.0289 0.04858,0.0661 0.02481,0.0362 0.05478,0.0848 z m -0.888835,-1.32499 v 0.53744 h 0.235645 q 0.06511,0 0.119889,-0.0196 0.05581,-0.0196 0.09612,-0.0558 0.04031,-0.0372 0.06305,-0.0899 0.02274,-0.0537 0.02274,-0.11989 0,-0.11885 -0.07751,-0.185 -0.07648,-0.0672 -0.222209,-0.0672 z"
         style="font-size:2.11666656px;stroke-width:0.26458332"
         id="path1065"
         inkscape:connector-curvature="0" />
      <path
         d="m 12.265918,226.88541 v -1.48208 h 0.409277 q 0.783415,0 0.783415,0.72243 0,0.34313 -0.218075,0.55191 -0.217041,0.20774 -0.581876,0.20774 z m 0.173632,-1.32499 v 1.16789 h 0.221176 q 0.291455,0 0.453719,-0.15606 0.162264,-0.15607 0.162264,-0.44235 0,-0.56948 -0.605648,-0.56948 z"
         style="font-size:2.11666656px;stroke-width:0.26458332"
         id="path1067"
         inkscape:connector-curvature="0" />
    </g>
    <g
       aria-label="SOFT"
       style="font-style:normal;font-variant:normal;font-weight:normal;font-stretch:normal;font-size:2.11666656px;line-height:1.25;font-family:'Yu Gothic UI';-inkscape-font-specification:'Yu Gothic UI';letter-spacing:0px;word-spacing:0px;fill:#ffffff;fill-opacity:1;stroke:none;stroke-width:0.26458332"
       id="text1050"
       transform="translate(0.13717042,-8.8810781)">
      <path
         d="m 5.4167235,234.76296 v -0.20464 q 0.03514,0.031 0.083716,0.0558 0.049609,0.0248 0.1033528,0.0424 0.054777,0.0165 0.1095541,0.0258 0.054777,0.009 0.1012858,0.009 0.1601969,0 0.2387451,-0.0589 0.079582,-0.06 0.079582,-0.17157 0,-0.0599 -0.026872,-0.10438 -0.025838,-0.0444 -0.072347,-0.0806 -0.046509,-0.0372 -0.1105875,-0.0703 -0.063045,-0.0341 -0.1364258,-0.0713 -0.077515,-0.0393 -0.144694,-0.0796 -0.067179,-0.0403 -0.1167887,-0.0889 -0.049609,-0.0486 -0.078548,-0.10955 -0.027905,-0.062 -0.027905,-0.1447 0,-0.10128 0.044442,-0.1757 0.044442,-0.0754 0.1167887,-0.12402 0.072347,-0.0486 0.164331,-0.0724 0.093018,-0.0238 0.1891358,-0.0238 0.219108,0 0.3193603,0.0527 v 0.19534 q -0.1312581,-0.0909 -0.3369303,-0.0909 -0.056844,0 -0.1136882,0.0124 -0.056844,0.0114 -0.1012858,0.0382 -0.044442,0.0269 -0.072347,0.0692 -0.027905,0.0424 -0.027905,0.10335 0,0.0568 0.02067,0.0982 0.021704,0.0413 0.063045,0.0754 0.041341,0.0341 0.1002522,0.0661 0.059945,0.032 0.1374593,0.0703 0.079582,0.0393 0.1508952,0.0827 0.071313,0.0434 0.125057,0.0961 0.053744,0.0527 0.084749,0.11679 0.032039,0.0641 0.032039,0.14676 0,0.10955 -0.043408,0.18603 -0.042375,0.0754 -0.1157552,0.12299 -0.072347,0.0476 -0.1674316,0.0682 -0.095085,0.0217 -0.2005046,0.0217 -0.03514,0 -0.086816,-0.006 -0.051676,-0.005 -0.1054199,-0.0165 -0.053743,-0.0103 -0.1023193,-0.0258 -0.047542,-0.0165 -0.076481,-0.0362 z"
         style="font-size:2.11666656px;stroke-width:0.26458332"
         id="path1052"
         inkscape:connector-curvature="0" />
      <path
         d="m 7.2078285,234.84771 q -0.3152263,0 -0.5053955,-0.20774 -0.1891357,-0.20774 -0.1891357,-0.54053 0,-0.3576 0.1932698,-0.57051 0.1932698,-0.21291 0.5260661,-0.21291 0.3069579,0 0.4940266,0.20671 0.1881022,0.2067 0.1881022,0.54053 0,0.36277 -0.1922363,0.57361 -0.1922363,0.21084 -0.5146972,0.21084 z m 0.012402,-1.37459 q -0.2335775,0 -0.379305,0.16846 -0.1457275,0.16847 -0.1457275,0.44235 0,0.27389 0.1415934,0.44132 0.1426269,0.1664 0.3710368,0.1664 0.2439127,0 0.3844726,-0.15917 0.1405599,-0.15916 0.1405599,-0.44545 0,-0.29352 -0.1364258,-0.45371 -0.1364258,-0.1602 -0.3762044,-0.1602 z"
         style="font-size:2.11666656px;stroke-width:0.26458332"
         id="path1054"
         inkscape:connector-curvature="0" />
      <path
         d="M 8.958626,233.49792 H 8.37985 v 0.51263 h 0.5353678 v 0.15607 H 8.37985 v 0.65629 H 8.2062172 v -1.48208 H 8.958626 Z"
         style="font-size:2.11666656px;stroke-width:0.26458332"
         id="path1056"
         inkscape:connector-curvature="0" />
      <path
         d="M 10.116178,233.49792 H 9.6882969 v 1.32499 H 9.5146641 v -1.32499 H 9.0878168 v -0.15709 h 1.0283612 z"
         style="font-size:2.11666656px;stroke-width:0.26458332"
         id="path1058"
         inkscape:connector-curvature="0" />
    </g>
    <g
       transform="translate(-2.8841565,53.211282)"
       id="g1078"
       style="font-style:normal;font-variant:normal;font-weight:normal;font-stretch:normal;font-size:2.11666656px;line-height:1.25;font-family:'Yu Gothic UI';-inkscape-font-specification:'Yu Gothic UI';letter-spacing:0px;word-spacing:0px;fill:#ffffff;fill-opacity:1;stroke:none;stroke-width:0.26458332"
       aria-label="HARD">
      <path
         inkscape:connector-curvature="0"
         id="path1070"
         style="font-size:2.11666656px;stroke-width:0.26458332"
         d="M 9.2459472,226.88541 H 9.0723144 v -0.67593 H 8.3054362 v 0.67593 H 8.1318034 v -1.48208 h 0.1736328 v 0.65009 h 0.7668782 v -0.65009 h 0.1736328 z" />
      <path
         inkscape:connector-curvature="0"
         id="path1072"
         style="font-size:2.11666656px;stroke-width:0.26458332"
         d="m 10.783838,226.88541 h -0.192237 l -0.157096,-0.41548 H 9.8061197 l -0.1477946,0.41548 H 9.4650552 l 0.5684408,-1.48208 h 0.179834 z m -0.406177,-0.57154 -0.232544,-0.63149 q -0.01137,-0.031 -0.02274,-0.0992 h -0.0041 q -0.01033,0.0631 -0.02377,0.0992 l -0.2304767,0.63149 z" />
      <path
         inkscape:connector-curvature="0"
         id="path1074"
         style="font-size:2.11666656px;stroke-width:0.26458332"
         d="M 12.063346,226.88541 H 11.85664 l -0.248047,-0.41548 q -0.03411,-0.0579 -0.06615,-0.0982 -0.03204,-0.0413 -0.06615,-0.0672 -0.03307,-0.0258 -0.07235,-0.0372 -0.03824,-0.0124 -0.08682,-0.0124 h -0.142627 v 0.63046 h -0.173632 v -1.48208 h 0.44235 q 0.09715,0 0.1788,0.0248 0.08268,0.0238 0.142627,0.0734 0.06098,0.0496 0.09508,0.12403 0.03411,0.0734 0.03411,0.17259 0,0.0775 -0.02377,0.14263 -0.02274,0.0641 -0.06615,0.11472 -0.04237,0.0507 -0.103352,0.0868 -0.05995,0.0351 -0.135393,0.0548 v 0.004 q 0.03721,0.0165 0.06408,0.0382 0.02791,0.0207 0.05271,0.0496 0.0248,0.0289 0.04858,0.0661 0.02481,0.0362 0.05478,0.0848 z m -0.888835,-1.32499 v 0.53744 h 0.235645 q 0.06511,0 0.119889,-0.0196 0.05581,-0.0196 0.09612,-0.0558 0.04031,-0.0372 0.06305,-0.0899 0.02274,-0.0537 0.02274,-0.11989 0,-0.11885 -0.07751,-0.185 -0.07648,-0.0672 -0.222209,-0.0672 z" />
      <path
         inkscape:connector-curvature="0"
         id="path1076"
         style="font-size:2.11666656px;stroke-width:0.26458332"
         d="m 12.265918,226.88541 v -1.48208 h 0.409277 q 0.783415,0 0.783415,0.72243 0,0.34313 -0.218075,0.55191 -0.217041,0.20774 -0.581876,0.20774 z m 0.173632,-1.32499 v 1.16789 h 0.221176 q 0.291455,0 0.453719,-0.15606 0.162264,-0.15607 0.162264,-0.44235 0,-0.56948 -0.605648,-0.56948 z" />
    </g>
    <g
       transform="translate(0.13717042,35.568939)"
       id="g1088"
       style="font-style:normal;font-variant:normal;font-weight:normal;font-stretch:normal;font-size:2.11666656px;line-height:1.25;font-family:'Yu Gothic UI';-inkscape-font-specification:'Yu Gothic UI';letter-spacing:0px;word-spacing:0px;fill:#ffffff;fill-opacity:1;stroke:none;stroke-width:0.26458332"
       aria-label="SOFT">
      <path
         inkscape:connector-curvature="0"
         id="path1080"
         style="font-size:2.11666656px;stroke-width:0.26458332"
         d="m 5.4167235,234.76296 v -0.20464 q 0.03514,0.031 0.083716,0.0558 0.049609,0.0248 0.1033528,0.0424 0.054777,0.0165 0.1095541,0.0258 0.054777,0.009 0.1012858,0.009 0.1601969,0 0.2387451,-0.0589 0.079582,-0.06 0.079582,-0.17157 0,-0.0599 -0.026872,-0.10438 -0.025838,-0.0444 -0.072347,-0.0806 -0.046509,-0.0372 -0.1105875,-0.0703 -0.063045,-0.0341 -0.1364258,-0.0713 -0.077515,-0.0393 -0.144694,-0.0796 -0.067179,-0.0403 -0.1167887,-0.0889 -0.049609,-0.0486 -0.078548,-0.10955 -0.027905,-0.062 -0.027905,-0.1447 0,-0.10128 0.044442,-0.1757 0.044442,-0.0754 0.1167887,-0.12402 0.072347,-0.0486 0.164331,-0.0724 0.093018,-0.0238 0.1891358,-0.0238 0.219108,0 0.3193603,0.0527 v 0.19534 q -0.1312581,-0.0909 -0.3369303,-0.0909 -0.056844,0 -0.1136882,0.0124 -0.056844,0.0114 -0.1012858,0.0382 -0.044442,0.0269 -0.072347,0.0692 -0.027905,0.0424 -0.027905,0.10335 0,0.0568 0.02067,0.0982 0.021704,0.0413 0.063045,0.0754 0.041341,0.0341 0.1002522,0.0661 0.059945,0.032 0.1374593,0.0703 0.079582,0.0393 0.1508952,0.0827 0.071313,0.0434 0.125057,0.0961 0.053744,0.0527 0.084749,0.11679 0.032039,0.0641 0.032039,0.14676 0,0.10955 -0.043408,0.18603 -0.042375,0.0754 -0.1157552,0.12299 -0.072347,0.0476 -0.1674316,0.0682 -0.095085,0.0217 -0.2005046,0.0217 -0.03514,0 -0.086816,-0.006 -0.051676,-0.005 -0.1054199,-0.0165 -0.053743,-0.0103 -0.1023193,-0.0258 -0.047542,-0.0165 -0.076481,-0.0362 z" />
      <path
         inkscape:connector-curvature="0"
         id="path1082"
         style="font-size:2.11666656px;stroke-width:0.26458332"
         d="m 7.2078285,234.84771 q -0.3152263,0 -0.5053955,-0.20774 -0.1891357,-0.20774 -0.1891357,-0.54053 0,-0.3576 0.1932698,-0.57051 0.1932698,-0.21291 0.5260661,-0.21291 0.3069579,0 0.4940266,0.20671 0.1881022,0.2067 0.1881022,0.54053 0,0.36277 -0.1922363,0.57361 -0.1922363,0.21084 -0.5146972,0.21084 z m 0.012402,-1.37459 q -0.2335775,0 -0.379305,0.16846 -0.1457275,0.16847 -0.1457275,0.44235 0,0.27389 0.1415934,0.44132 0.1426269,0.1664 0.3710368,0.1664 0.2439127,0 0.3844726,-0.15917 0.1405599,-0.15916 0.1405599,-0.44545 0,-0.29352 -0.1364258,-0.45371 -0.1364258,-0.1602 -0.3762044,-0.1602 z" />
      <path
         inkscape:connector-curvature="0"
         id="path1084"
         style="font-size:2.11666656px;stroke-width:0.26458332"
         d="M 8.958626,233.49792 H 8.37985 v 0.51263 h 0.5353678 v 0.15607 H 8.37985 v 0.65629 H 8.2062172 v -1.48208 H 8.958626 Z" />
      <path
         inkscape:connector-curvature="0"
         id="path1086"
         style="font-size:2.11666656px;stroke-width:0.26458332"
         d="M 10.116178,233.49792 H 9.6882969 v 1.32499 H 9.5146641 v -1.32499 H 9.0878168 v -0.15709 h 1.0283612 z" />
    </g>
  </g>
  <g
     inkscape:groupmode="layer"
     id="layer2"
     inkscape:label="Grid8"
     style="display:none"
     sodipodi:insensitive="true">
    <path
       style="fill:none;stroke:#ffffff;stroke-width:0.05;stroke-linecap:butt;stroke-linejoin:miter;stroke-miterlimit:4;stroke-dasharray:none;stroke-opacity:1"
       d="m 15.874997,0 -0.025,100.54167"
       id="path879"
       inkscape:connector-curvature="0"
       sodipodi:nodetypes="cc" />
    <path
       sodipodi:nodetypes="cc"
       inkscape:connector-curvature="0"
       id="path881"
       d="m 7.9124979,-1e-5 -3e-6,100.54167"
       style="fill:none;stroke:#ffffff;stroke-width:0.05;stroke-linecap:butt;stroke-linejoin:miter;stroke-miterlimit:4;stroke-dasharray:none;stroke-opacity:1" />
    <path
       style="fill:none;stroke:#ffffff;stroke-width:0.05;stroke-linecap:butt;stroke-linejoin:miter;stroke-miterlimit:4;stroke-dasharray:none;stroke-opacity:1"
       d="m 3.9437499,0 -4e-6,100.54167"
       id="path890"
       inkscape:connector-curvature="0"
       sodipodi:nodetypes="cc" />
    <path
       sodipodi:nodetypes="cc"
       inkscape:connector-curvature="0"
       id="path895"
       d="m 11.881251,0 -4e-6,100.54167"
       style="fill:none;stroke:#ffffff;stroke-width:0.05;stroke-linecap:butt;stroke-linejoin:miter;stroke-miterlimit:4;stroke-dasharray:none;stroke-opacity:1" />
    <circle
       style="display:inline;opacity:1;fill:none;fill-opacity:1;stroke:#ffffff;stroke-width:0.05;stroke-linecap:square;stroke-linejoin:round;stroke-miterlimit:4;stroke-dasharray:none;stroke-dashoffset:0;stroke-opacity:1;paint-order:markers fill stroke"
       id="path1041"
       cx="7.9097619"
       cy="22.48922"
       r="4.0999999" />
    <circle
       r="4.0999999"
       cy="44.720116"
       cx="7.9097619"
       id="circle1054"
       style="display:inline;opacity:1;fill:none;fill-opacity:1;stroke:#ffffff;stroke-width:0.05;stroke-linecap:square;stroke-linejoin:round;stroke-miterlimit:4;stroke-dasharray:none;stroke-dashoffset:0;stroke-opacity:1;paint-order:markers fill stroke" />
    <circle
       style="display:inline;opacity:1;fill:none;fill-opacity:1;stroke:#ffffff;stroke-width:0.05;stroke-linecap:square;stroke-linejoin:round;stroke-miterlimit:4;stroke-dasharray:none;stroke-dashoffset:0;stroke-opacity:1;paint-order:markers fill stroke"
       id="circle1056"
       cx="7.9097619"
       cy="33.607586"
       r="4.0999999" />
    <circle
       r="4.0999999"
       cy="66.939285"
       cx="7.9097619"
       id="circle1058"
       style="display:inline;opacity:1;fill:none;fill-opacity:1;stroke:#ffffff;stroke-width:0.05;stroke-linecap:square;stroke-linejoin:round;stroke-miterlimit:4;stroke-dasharray:none;stroke-dashoffset:0;stroke-opacity:1;paint-order:markers fill stroke" />
    <circle
       style="display:inline;opacity:1;fill:none;fill-opacity:1;stroke:#ffffff;stroke-width:0.05;stroke-linecap:square;stroke-linejoin:round;stroke-miterlimit:4;stroke-dasharray:none;stroke-dashoffset:0;stroke-opacity:1;paint-order:markers fill stroke"
       id="circle1060"
       cx="7.9097619"
       cy="55.832626"
       r="4.0999999" />
    <circle
       r="4.0999999"
       cy="78.05764"
       cx="7.9097619"
       id="circle1064"
       style="display:inline;opacity:1;fill:none;fill-opacity:1;stroke:#ffffff;stroke-width:0.05;stroke-linecap:square;stroke-linejoin:round;stroke-miterlimit:4;stroke-dasharray:none;stroke-dashoffset:0;stroke-opacity:1;paint-order:markers fill stroke" />
    <circle
       r="4.0999999"
       cy="11.38256"
       cx="7.9097619"
       id="circle1052"
       style="display:inline;opacity:1;fill:none;fill-opacity:1;stroke:#ffffff;stroke-width:0.05;stroke-linecap:square;stroke-linejoin:round;stroke-miterlimit:4;stroke-dasharray:none;stroke-dashoffset:0;stroke-opacity:1;paint-order:markers fill stroke" />
    <circle
       style="display:inline;opacity:1;fill:none;fill-opacity:1;stroke:#ffffff;stroke-width:0.05172414;stroke-linecap:square;stroke-linejoin:round;stroke-miterlimit:4;stroke-dasharray:none;stroke-dashoffset:0;stroke-opacity:1;paint-order:markers fill stroke"
       id="circle924"
       cx="7.911077"
       cy="11.377255"
       r="5.4741378" />
    <circle
       r="5.4741378"
       cy="22.490791"
       cx="7.911077"
       id="circle955"
       style="display:inline;opacity:1;fill:none;fill-opacity:1;stroke:#ffffff;stroke-width:0.05172414;stroke-linecap:square;stroke-linejoin:round;stroke-miterlimit:4;stroke-dasharray:none;stroke-dashoffset:0;stroke-opacity:1;paint-order:markers fill stroke" />
    <circle
       style="display:inline;opacity:1;fill:none;fill-opacity:1;stroke:#ffffff;stroke-width:0.05172414;stroke-linecap:square;stroke-linejoin:round;stroke-miterlimit:4;stroke-dasharray:none;stroke-dashoffset:0;stroke-opacity:1;paint-order:markers fill stroke"
       id="circle957"
       cx="7.911077"
       cy="33.603302"
       r="5.4741378" />
    <circle
       r="5.4741378"
       cy="44.715813"
       cx="7.911077"
       id="circle959"
       style="display:inline;opacity:1;fill:none;fill-opacity:1;stroke:#ffffff;stroke-width:0.05172414;stroke-linecap:square;stroke-linejoin:round;stroke-miterlimit:4;stroke-dasharray:none;stroke-dashoffset:0;stroke-opacity:1;paint-order:markers fill stroke" />
    <circle
       style="display:inline;opacity:1;fill:none;fill-opacity:1;stroke:#ffffff;stroke-width:0.05172414;stroke-linecap:square;stroke-linejoin:round;stroke-miterlimit:4;stroke-dasharray:none;stroke-dashoffset:0;stroke-opacity:1;paint-order:markers fill stroke"
       id="circle961"
       cx="7.911077"
       cy="55.828323"
       r="5.4741378" />
    <circle
       r="5.4741378"
       cy="66.940834"
       cx="7.911077"
       id="circle963"
       style="display:inline;opacity:1;fill:none;fill-opacity:1;stroke:#ffffff;stroke-width:0.05172414;stroke-linecap:square;stroke-linejoin:round;stroke-miterlimit:4;stroke-dasharray:none;stroke-dashoffset:0;stroke-opacity:1;paint-order:markers fill stroke" />
    <circle
       style="display:inline;opacity:1;fill:none;fill-opacity:1;stroke:#ffffff;stroke-width:0.05172414;stroke-linecap:square;stroke-linejoin:round;stroke-miterlimit:4;stroke-dasharray:none;stroke-dashoffset:0;stroke-opacity:1;paint-order:markers fill stroke"
       id="circle965"
       cx="7.911077"
       cy="78.053345"
       r="5.4741378" />
    <path
       sodipodi:nodetypes="cc"
       inkscape:connector-curvature="0"
       id="path1370"
       d="m 31.750007,0 -0.025,100.54167"
       style="fill:none;stroke:#ffffff;stroke-width:0.05;stroke-linecap:butt;stroke-linejoin:miter;stroke-miterlimit:4;stroke-dasharray:none;stroke-opacity:1" />
    <path
       style="fill:none;stroke:#ffffff;stroke-width:0.05;stroke-linecap:butt;stroke-linejoin:miter;stroke-miterlimit:4;stroke-dasharray:none;stroke-opacity:1"
       d="m 23.787506,-1e-5 -3e-6,100.54167"
       id="path1372"
       inkscape:connector-curvature="0"
       sodipodi:nodetypes="cc" />
    <path
       sodipodi:nodetypes="cc"
       inkscape:connector-curvature="0"
       id="path1374"
       d="m 19.818756,0 -4e-6,100.54167"
       style="fill:none;stroke:#ffffff;stroke-width:0.05;stroke-linecap:butt;stroke-linejoin:miter;stroke-miterlimit:4;stroke-dasharray:none;stroke-opacity:1" />
    <path
       style="fill:none;stroke:#ffffff;stroke-width:0.05;stroke-linecap:butt;stroke-linejoin:miter;stroke-miterlimit:4;stroke-dasharray:none;stroke-opacity:1"
       d="m 27.75626,0 -4e-6,100.54167"
       id="path1376"
       inkscape:connector-curvature="0"
       sodipodi:nodetypes="cc" />
    <circle
       r="4.0999999"
       cy="22.48922"
       cx="23.784763"
       id="circle1394"
       style="display:inline;opacity:1;fill:none;fill-opacity:1;stroke:#ffffff;stroke-width:0.05;stroke-linecap:square;stroke-linejoin:round;stroke-miterlimit:4;stroke-dasharray:none;stroke-dashoffset:0;stroke-opacity:1;paint-order:markers fill stroke" />
    <circle
       style="display:inline;opacity:1;fill:none;fill-opacity:1;stroke:#ffffff;stroke-width:0.05;stroke-linecap:square;stroke-linejoin:round;stroke-miterlimit:4;stroke-dasharray:none;stroke-dashoffset:0;stroke-opacity:1;paint-order:markers fill stroke"
       id="circle1396"
       cx="23.784763"
       cy="44.720116"
       r="4.0999999" />
    <circle
       r="4.0999999"
       cy="33.607586"
       cx="23.784763"
       id="circle1398"
       style="display:inline;opacity:1;fill:none;fill-opacity:1;stroke:#ffffff;stroke-width:0.05;stroke-linecap:square;stroke-linejoin:round;stroke-miterlimit:4;stroke-dasharray:none;stroke-dashoffset:0;stroke-opacity:1;paint-order:markers fill stroke" />
    <circle
       style="display:inline;opacity:1;fill:none;fill-opacity:1;stroke:#ffffff;stroke-width:0.05;stroke-linecap:square;stroke-linejoin:round;stroke-miterlimit:4;stroke-dasharray:none;stroke-dashoffset:0;stroke-opacity:1;paint-order:markers fill stroke"
       id="circle1400"
       cx="23.784763"
       cy="66.939285"
       r="4.0999999" />
    <circle
       r="4.0999999"
       cy="55.832626"
       cx="23.784763"
       id="circle1402"
       style="display:inline;opacity:1;fill:none;fill-opacity:1;stroke:#ffffff;stroke-width:0.05;stroke-linecap:square;stroke-linejoin:round;stroke-miterlimit:4;stroke-dasharray:none;stroke-dashoffset:0;stroke-opacity:1;paint-order:markers fill stroke" />
    <circle
       style="display:inline;opacity:1;fill:none;fill-opacity:1;stroke:#ffffff;stroke-width:0.05;stroke-linecap:square;stroke-linejoin:round;stroke-miterlimit:4;stroke-dasharray:none;stroke-dashoffset:0;stroke-opacity:1;paint-order:markers fill stroke"
       id="circle1406"
       cx="23.784763"
       cy="78.05764"
       r="4.0999999" />
    <circle
       style="display:inline;opacity:1;fill:none;fill-opacity:1;stroke:#ffffff;stroke-width:0.05;stroke-linecap:square;stroke-linejoin:round;stroke-miterlimit:4;stroke-dasharray:none;stroke-dashoffset:0;stroke-opacity:1;paint-order:markers fill stroke"
       id="circle1408"
       cx="23.784763"
       cy="11.38256"
       r="4.0999999" />
    <circle
       r="5.4741378"
       cy="11.377255"
       cx="23.786079"
       id="circle1410"
       style="display:inline;opacity:1;fill:none;fill-opacity:1;stroke:#ffffff;stroke-width:0.05172414;stroke-linecap:square;stroke-linejoin:round;stroke-miterlimit:4;stroke-dasharray:none;stroke-dashoffset:0;stroke-opacity:1;paint-order:markers fill stroke" />
    <circle
       style="display:inline;opacity:1;fill:none;fill-opacity:1;stroke:#ffffff;stroke-width:0.05172414;stroke-linecap:square;stroke-linejoin:round;stroke-miterlimit:4;stroke-dasharray:none;stroke-dashoffset:0;stroke-opacity:1;paint-order:markers fill stroke"
       id="circle1412"
       cx="23.786079"
       cy="22.490791"
       r="5.4741378" />
    <circle
       r="5.4741378"
       cy="33.603302"
       cx="23.786079"
       id="circle1414"
       style="display:inline;opacity:1;fill:none;fill-opacity:1;stroke:#ffffff;stroke-width:0.05172414;stroke-linecap:square;stroke-linejoin:round;stroke-miterlimit:4;stroke-dasharray:none;stroke-dashoffset:0;stroke-opacity:1;paint-order:markers fill stroke" />
    <circle
       style="display:inline;opacity:1;fill:none;fill-opacity:1;stroke:#ffffff;stroke-width:0.05172414;stroke-linecap:square;stroke-linejoin:round;stroke-miterlimit:4;stroke-dasharray:none;stroke-dashoffset:0;stroke-opacity:1;paint-order:markers fill stroke"
       id="circle1416"
       cx="23.786079"
       cy="44.715813"
       r="5.4741378" />
    <circle
       r="5.4741378"
       cy="55.828323"
       cx="23.786079"
       id="circle1418"
       style="display:inline;opacity:1;fill:none;fill-opacity:1;stroke:#ffffff;stroke-width:0.05172414;stroke-linecap:square;stroke-linejoin:round;stroke-miterlimit:4;stroke-dasharray:none;stroke-dashoffset:0;stroke-opacity:1;paint-order:markers fill stroke" />
    <circle
       style="display:inline;opacity:1;fill:none;fill-opacity:1;stroke:#ffffff;stroke-width:0.05172414;stroke-linecap:square;stroke-linejoin:round;stroke-miterlimit:4;stroke-dasharray:none;stroke-dashoffset:0;stroke-opacity:1;paint-order:markers fill stroke"
       id="circle1420"
       cx="23.786079"
       cy="66.940834"
       r="5.4741378" />
    <circle
       r="5.4741378"
       cy="78.053345"
       cx="23.786079"
       id="circle1422"
       style="display:inline;opacity:1;fill:none;fill-opacity:1;stroke:#ffffff;stroke-width:0.05172414;stroke-linecap:square;stroke-linejoin:round;stroke-miterlimit:4;stroke-dasharray:none;stroke-dashoffset:0;stroke-opacity:1;paint-order:markers fill stroke" />
    <path
       sodipodi:nodetypes="cc"
       inkscape:connector-curvature="0"
       id="path1596"
       d="m 39.662517,-1e-5 -3e-6,100.54167"
       style="fill:none;stroke:#ffffff;stroke-width:0.05;stroke-linecap:butt;stroke-linejoin:miter;stroke-miterlimit:4;stroke-dasharray:none;stroke-opacity:1" />
    <path
       style="fill:none;stroke:#ffffff;stroke-width:0.05;stroke-linecap:butt;stroke-linejoin:miter;stroke-miterlimit:4;stroke-dasharray:none;stroke-opacity:1"
       d="m 35.693767,0 -4e-6,100.54167"
       id="path1598"
       inkscape:connector-curvature="0"
       sodipodi:nodetypes="cc" />
    <path
       sodipodi:nodetypes="cc"
       inkscape:connector-curvature="0"
       id="path1600"
       d="m 43.631271,0 -4e-6,100.54167"
       style="fill:none;stroke:#ffffff;stroke-width:0.05;stroke-linecap:butt;stroke-linejoin:miter;stroke-miterlimit:4;stroke-dasharray:none;stroke-opacity:1" />
    <circle
       style="display:inline;opacity:1;fill:none;fill-opacity:1;stroke:#ffffff;stroke-width:0.05;stroke-linecap:square;stroke-linejoin:round;stroke-miterlimit:4;stroke-dasharray:none;stroke-dashoffset:0;stroke-opacity:1;paint-order:markers fill stroke"
       id="circle1618"
       cx="39.659779"
       cy="22.48922"
       r="4.0999999" />
    <circle
       r="4.0999999"
       cy="44.720116"
       cx="39.659779"
       id="circle1620"
       style="display:inline;opacity:1;fill:none;fill-opacity:1;stroke:#ffffff;stroke-width:0.05;stroke-linecap:square;stroke-linejoin:round;stroke-miterlimit:4;stroke-dasharray:none;stroke-dashoffset:0;stroke-opacity:1;paint-order:markers fill stroke" />
    <circle
       style="display:inline;opacity:1;fill:none;fill-opacity:1;stroke:#ffffff;stroke-width:0.05;stroke-linecap:square;stroke-linejoin:round;stroke-miterlimit:4;stroke-dasharray:none;stroke-dashoffset:0;stroke-opacity:1;paint-order:markers fill stroke"
       id="circle1622"
       cx="39.659779"
       cy="33.607586"
       r="4.0999999" />
    <circle
       r="4.0999999"
       cy="66.939285"
       cx="39.659779"
       id="circle1624"
       style="display:inline;opacity:1;fill:none;fill-opacity:1;stroke:#ffffff;stroke-width:0.05;stroke-linecap:square;stroke-linejoin:round;stroke-miterlimit:4;stroke-dasharray:none;stroke-dashoffset:0;stroke-opacity:1;paint-order:markers fill stroke" />
    <circle
       style="display:inline;opacity:1;fill:none;fill-opacity:1;stroke:#ffffff;stroke-width:0.05;stroke-linecap:square;stroke-linejoin:round;stroke-miterlimit:4;stroke-dasharray:none;stroke-dashoffset:0;stroke-opacity:1;paint-order:markers fill stroke"
       id="circle1626"
       cx="39.659779"
       cy="55.832626"
       r="4.0999999" />
    <circle
       r="4.0999999"
       cy="78.05764"
       cx="39.659779"
       id="circle1630"
       style="display:inline;opacity:1;fill:none;fill-opacity:1;stroke:#ffffff;stroke-width:0.05;stroke-linecap:square;stroke-linejoin:round;stroke-miterlimit:4;stroke-dasharray:none;stroke-dashoffset:0;stroke-opacity:1;paint-order:markers fill stroke" />
    <circle
       r="4.0999999"
       cy="11.38256"
       cx="39.659779"
       id="circle1632"
       style="display:inline;opacity:1;fill:none;fill-opacity:1;stroke:#ffffff;stroke-width:0.05;stroke-linecap:square;stroke-linejoin:round;stroke-miterlimit:4;stroke-dasharray:none;stroke-dashoffset:0;stroke-opacity:1;paint-order:markers fill stroke" />
    <circle
       style="display:inline;opacity:1;fill:none;fill-opacity:1;stroke:#ffffff;stroke-width:0.05172414;stroke-linecap:square;stroke-linejoin:round;stroke-miterlimit:4;stroke-dasharray:none;stroke-dashoffset:0;stroke-opacity:1;paint-order:markers fill stroke"
       id="circle1634"
       cx="39.661095"
       cy="11.377255"
       r="5.4741378" />
    <circle
       r="5.4741378"
       cy="22.490791"
       cx="39.661095"
       id="circle1636"
       style="display:inline;opacity:1;fill:none;fill-opacity:1;stroke:#ffffff;stroke-width:0.05172414;stroke-linecap:square;stroke-linejoin:round;stroke-miterlimit:4;stroke-dasharray:none;stroke-dashoffset:0;stroke-opacity:1;paint-order:markers fill stroke" />
    <circle
       style="display:inline;opacity:1;fill:none;fill-opacity:1;stroke:#ffffff;stroke-width:0.05172414;stroke-linecap:square;stroke-linejoin:round;stroke-miterlimit:4;stroke-dasharray:none;stroke-dashoffset:0;stroke-opacity:1;paint-order:markers fill stroke"
       id="circle1638"
       cx="39.661095"
       cy="33.603302"
       r="5.4741378" />
    <circle
       r="5.4741378"
       cy="44.715813"
       cx="39.661095"
       id="circle1640"
       style="display:inline;opacity:1;fill:none;fill-opacity:1;stroke:#ffffff;stroke-width:0.05172414;stroke-linecap:square;stroke-linejoin:round;stroke-miterlimit:4;stroke-dasharray:none;stroke-dashoffset:0;stroke-opacity:1;paint-order:markers fill stroke" />
    <circle
       style="display:inline;opacity:1;fill:none;fill-opacity:1;stroke:#ffffff;stroke-width:0.05172414;stroke-linecap:square;stroke-linejoin:round;stroke-miterlimit:4;stroke-dasharray:none;stroke-dashoffset:0;stroke-opacity:1;paint-order:markers fill stroke"
       id="circle1642"
       cx="39.661095"
       cy="55.828323"
       r="5.4741378" />
    <circle
       r="5.4741378"
       cy="66.940834"
       cx="39.661095"
       id="circle1644"
       style="display:inline;opacity:1;fill:none;fill-opacity:1;stroke:#ffffff;stroke-width:0.05172414;stroke-linecap:square;stroke-linejoin:round;stroke-miterlimit:4;stroke-dasharray:none;stroke-dashoffset:0;stroke-opacity:1;paint-order:markers fill stroke" />
    <circle
       style="display:inline;opacity:1;fill:none;fill-opacity:1;stroke:#ffffff;stroke-width:0.05172414;stroke-linecap:square;stroke-linejoin:round;stroke-miterlimit:4;stroke-dasharray:none;stroke-dashoffset:0;stroke-opacity:1;paint-order:markers fill stroke"
       id="circle1646"
       cx="39.661095"
       cy="78.053345"
       r="5.4741378" />
    <path
       id="path1770"
       style="fill:none;stroke:#ffffff;stroke-width:0.05;stroke-linecap:butt;stroke-linejoin:miter;stroke-miterlimit:4;stroke-dasharray:none;stroke-opacity:1"
       d="m 31.725012,11.38648 15.875005,-0.0094 m -15.875005,0.0094 15.875005,-0.0094 m -15.875005,0.0094 15.875005,-0.0094 m -15.875005,0.0094 15.875005,-0.0094 m -31.750015,0.0094 15.875005,-0.0094 m -15.875005,0.0094 15.875005,-0.0094 m -15.875005,0.0094 15.875005,-0.0094 m -15.875005,0.0094 15.875005,-0.0094 m -31.75000907,0.0094 15.87499907,-0.0094 m -15.87499907,0.0094 15.87499907,-0.0094 m -15.87499907,0.0094 15.87499907,-0.0094 m -15.87499907,0.0094 15.87499907,-0.0094"
       inkscape:connector-curvature="0" />
    <path
       id="path1772"
       style="fill:none;stroke:#ffffff;stroke-width:0.05;stroke-linecap:butt;stroke-linejoin:miter;stroke-miterlimit:4;stroke-dasharray:none;stroke-opacity:1"
       d="m 31.725012,22.49905 15.875005,-0.0095 m -15.875005,0.0095 15.875005,-0.0095 m -15.875005,0.0095 15.875005,-0.0095 m -15.875005,0.0095 15.875005,-0.0095 m -31.750015,0.0095 15.875005,-0.0095 m -15.875005,0.0095 15.875005,-0.0095 m -15.875005,0.0095 15.875005,-0.0095 m -15.875005,0.0095 15.875005,-0.0095 m -31.75000907,0.0095 15.87499907,-0.0095 m -15.87499907,0.0095 15.87499907,-0.0095 m -15.87499907,0.0095 15.87499907,-0.0095 m -15.87499907,0.0095 15.87499907,-0.0095"
       inkscape:connector-curvature="0" />
    <path
       id="path1774"
       style="fill:none;stroke:#ffffff;stroke-width:0.05;stroke-linecap:butt;stroke-linejoin:miter;stroke-miterlimit:4;stroke-dasharray:none;stroke-opacity:1"
       d="m 31.725012,33.61162 15.875005,-0.0095 m -15.875005,0.0095 15.875005,-0.0095 m -15.875005,0.0095 15.875005,-0.0095 m -15.875005,0.0095 15.875005,-0.0095 m -31.750015,0.0095 15.875005,-0.0095 m -15.875005,0.0095 15.875005,-0.0095 m -15.875005,0.0095 15.875005,-0.0095 m -15.875005,0.0095 15.875005,-0.0095 m -31.75000907,0.0095 15.87499907,-0.0095 m -15.87499907,0.0095 15.87499907,-0.0095 m -15.87499907,0.0095 15.87499907,-0.0095 m -15.87499907,0.0095 15.87499907,-0.0095"
       inkscape:connector-curvature="0" />
    <path
       id="path1776"
       style="fill:none;stroke:#ffffff;stroke-width:0.05;stroke-linecap:butt;stroke-linejoin:miter;stroke-miterlimit:4;stroke-dasharray:none;stroke-opacity:1"
       d="m 31.725012,44.72419 15.875005,-0.0096 m -15.875005,0.0096 15.875005,-0.0096 m -15.875005,0.0096 15.875005,-0.0096 m -15.875005,0.0096 15.875005,-0.0096 m -31.750015,0.0096 15.875005,-0.0096 m -15.875005,0.0096 15.875005,-0.0096 m -15.875005,0.0096 15.875005,-0.0096 m -15.875005,0.0096 15.875005,-0.0096 m -31.75000907,0.0096 15.87499907,-0.0096 m -15.87499907,0.0096 15.87499907,-0.0096 m -15.87499907,0.0096 15.87499907,-0.0096 m -15.87499907,0.0096 15.87499907,-0.0096"
       inkscape:connector-curvature="0" />
    <path
       id="path1778"
       style="fill:none;stroke:#ffffff;stroke-width:0.05;stroke-linecap:butt;stroke-linejoin:miter;stroke-miterlimit:4;stroke-dasharray:none;stroke-opacity:1"
       d="m 31.725012,55.83676 15.875005,-0.0097 m -15.875005,0.0097 15.875005,-0.0097 m -15.875005,0.0097 15.875005,-0.0097 m -15.875005,0.0097 15.875005,-0.0097 m -31.750015,0.0097 15.875005,-0.0097 m -15.875005,0.0097 15.875005,-0.0097 m -15.875005,0.0097 15.875005,-0.0097 m -15.875005,0.0097 15.875005,-0.0097 m -31.75000907,0.0097 15.87499907,-0.0097 m -15.87499907,0.0097 15.87499907,-0.0097 m -15.87499907,0.0097 15.87499907,-0.0097 m -15.87499907,0.0097 15.87499907,-0.0097"
       inkscape:connector-curvature="0" />
    <path
       id="path1780"
       style="fill:none;stroke:#ffffff;stroke-width:0.05;stroke-linecap:butt;stroke-linejoin:miter;stroke-miterlimit:4;stroke-dasharray:none;stroke-opacity:1"
       d="m 31.725012,66.94933 15.875005,-0.0097 m -15.875005,0.0097 15.875005,-0.0097 m -15.875005,0.0097 15.875005,-0.0097 m -15.875005,0.0097 15.875005,-0.0097 m -31.750015,0.0097 15.875005,-0.0097 m -15.875005,0.0097 15.875005,-0.0097 m -15.875005,0.0097 15.875005,-0.0097 m -15.875005,0.0097 15.875005,-0.0097 m -31.75000907,0.0097 15.87499907,-0.0097 m -15.87499907,0.0097 15.87499907,-0.0097 m -15.87499907,0.0097 15.87499907,-0.0097 m -15.87499907,0.0097 15.87499907,-0.0097"
       inkscape:connector-curvature="0" />
    <path
       id="path1782"
       style="fill:none;stroke:#ffffff;stroke-width:0.05;stroke-linecap:butt;stroke-linejoin:miter;stroke-miterlimit:4;stroke-dasharray:none;stroke-opacity:1"
       d="M 31.725012,78.0619 47.600017,78.0521 M 31.725012,78.0619 47.600017,78.0521 M 31.725012,78.0619 47.600017,78.0521 M 31.725012,78.0619 47.600017,78.0521 M 15.850002,78.0619 31.725007,78.0521 M 15.850002,78.0619 31.725007,78.0521 M 15.850002,78.0619 31.725007,78.0521 M 15.850002,78.0619 31.725007,78.0521 M -0.02500207,78.0619 15.849997,78.0521 M -0.02500207,78.0619 15.849997,78.0521 M -0.02500207,78.0619 15.849997,78.0521 M -0.02500207,78.0619 15.849997,78.0521"
       inkscape:connector-curvature="0" />
    <circle
       style="display:inline;opacity:1;fill:none;fill-opacity:1;stroke:#ffffff;stroke-width:0.05;stroke-linecap:square;stroke-linejoin:round;stroke-miterlimit:4;stroke-dasharray:none;stroke-dashoffset:0;stroke-opacity:1;paint-order:markers fill stroke"
       id="circle1471"
       cx="7.9097619"
       cy="89.170151"
       r="4.0999999" />
    <circle
       r="5.4741378"
       cy="89.165855"
       cx="7.911077"
       id="circle1473"
       style="display:inline;opacity:1;fill:none;fill-opacity:1;stroke:#ffffff;stroke-width:0.05172414;stroke-linecap:square;stroke-linejoin:round;stroke-miterlimit:4;stroke-dasharray:none;stroke-dashoffset:0;stroke-opacity:1;paint-order:markers fill stroke" />
    <circle
       r="4.0999999"
       cy="89.170151"
       cx="23.784763"
       id="circle1475"
       style="display:inline;opacity:1;fill:none;fill-opacity:1;stroke:#ffffff;stroke-width:0.05;stroke-linecap:square;stroke-linejoin:round;stroke-miterlimit:4;stroke-dasharray:none;stroke-dashoffset:0;stroke-opacity:1;paint-order:markers fill stroke" />
    <circle
       style="display:inline;opacity:1;fill:none;fill-opacity:1;stroke:#ffffff;stroke-width:0.05172414;stroke-linecap:square;stroke-linejoin:round;stroke-miterlimit:4;stroke-dasharray:none;stroke-dashoffset:0;stroke-opacity:1;paint-order:markers fill stroke"
       id="circle1477"
       cx="23.786079"
       cy="89.165855"
       r="5.4741378" />
    <path
       inkscape:connector-curvature="0"
       d="m 31.725012,89.174407 15.875005,-0.0098 m -15.875005,0.0098 15.875005,-0.0098 m -15.875005,0.0098 15.875005,-0.0098 m -15.875005,0.0098 15.875005,-0.0098 m -31.750015,0.0098 15.875005,-0.0098 m -15.875005,0.0098 15.875005,-0.0098 m -15.875005,0.0098 15.875005,-0.0098 m -15.875005,0.0098 15.875005,-0.0098 m -31.75000907,0.0098 15.87499907,-0.0098 m -15.87499907,0.0098 15.87499907,-0.0098 m -15.87499907,0.0098 15.87499907,-0.0098 m -15.87499907,0.0098 15.87499907,-0.0098"
       style="fill:none;stroke:#ffffff;stroke-width:0.05;stroke-linecap:butt;stroke-linejoin:miter;stroke-miterlimit:4;stroke-dasharray:none;stroke-opacity:1"
       id="path1481" />
    <circle
       style="display:inline;opacity:1;fill:none;fill-opacity:1;stroke:#ffffff;stroke-width:0.05;stroke-linecap:square;stroke-linejoin:round;stroke-miterlimit:4;stroke-dasharray:none;stroke-dashoffset:0;stroke-opacity:1;paint-order:markers fill stroke"
       id="circle1483"
       cx="39.659779"
       cy="89.170151"
       r="4.0999999" />
    <circle
       r="5.4741378"
       cy="89.165855"
       cx="39.661095"
       id="circle1485"
       style="display:inline;opacity:1;fill:none;fill-opacity:1;stroke:#ffffff;stroke-width:0.05172414;stroke-linecap:square;stroke-linejoin:round;stroke-miterlimit:4;stroke-dasharray:none;stroke-dashoffset:0;stroke-opacity:1;paint-order:markers fill stroke" />
  </g>
</svg>
