<?xml version="1.0" encoding="UTF-8" standalone="no"?>
<!-- Created with Inkscape (http://www.inkscape.org/) -->

<svg
   xmlns:dc="http://purl.org/dc/elements/1.1/"
   xmlns:cc="http://creativecommons.org/ns#"
   xmlns:rdf="http://www.w3.org/1999/02/22-rdf-syntax-ns#"
   xmlns:svg="http://www.w3.org/2000/svg"
   xmlns="http://www.w3.org/2000/svg"
   xmlns:sodipodi="http://sodipodi.sourceforge.net/DTD/sodipodi-0.dtd"
   xmlns:inkscape="http://www.inkscape.org/namespaces/inkscape"
   width="180"
   height="380"
   viewBox="0 0 47.625003 100.54167"
   version="1.1"
   id="svg8"
   inkscape:version="0.92.4 (5da689c313, 2019-01-14)"
   sodipodi:docname="PolyMute.svg">
  <defs
     id="defs2" />
  <sodipodi:namedview
     id="base"
     pagecolor="#ffffff"
     bordercolor="#666666"
     borderopacity="1.0"
     inkscape:pageopacity="0.0"
     inkscape:pageshadow="2"
     inkscape:zoom="36.463158"
     inkscape:cx="57.834563"
     inkscape:cy="329.46691"
     inkscape:document-units="mm"
     inkscape:current-layer="layer1"
     showgrid="true"
     units="px"
     inkscape:snap-bbox="true"
     inkscape:snap-page="true"
     inkscape:bbox-nodes="true"
     inkscape:snap-bbox-edge-midpoints="true"
     inkscape:window-width="1920"
     inkscape:window-height="1017"
     inkscape:window-x="-8"
     inkscape:window-y="-8"
     inkscape:window-maximized="1"
     inkscape:bbox-paths="true">
    <inkscape:grid
       type="xygrid"
       id="grid116" />
  </sodipodi:namedview>
  <metadata
     id="metadata5">
    <rdf:RDF>
      <cc:Work
         rdf:about="">
        <dc:format>image/svg+xml</dc:format>
        <dc:type
           rdf:resource="http://purl.org/dc/dcmitype/StillImage" />
        <dc:title />
      </cc:Work>
    </rdf:RDF>
  </metadata>
  <g
     inkscape:groupmode="layer"
     id="layer3"
     inkscape:label="Panel"
     sodipodi:insensitive="true">
    <path
       sodipodi:type="inkscape:offset"
       inkscape:radius="0"
       inkscape:original="M 0 196.45898 L 0 297 L 15.875 297 L 15.875 196.45898 L 0 196.45898 z "
       style="display:inline;fill:#520000;stroke-width:0.3310422"
       id="rect3855"
       d="M 0,196.45898 V 297 H 15.875 V 196.45898 Z"
       transform="matrix(3.ffffff1,0,0,1.0000064,0,-196.46023)" />
  </g>
  <g
     inkscape:label="Layer 1"
     inkscape:groupmode="layer"
     id="layer1"
     transform="translate(0,-196.45832)"
     style="display:inline">
    <text
       xml:space="preserve"
       style="font-style:normal;font-weight:normal;font-size:2.82222223px;line-height:1.25;font-family:sans-serif;letter-spacing:0px;word-spacing:0px;fill:#ffffff;fill-opacity:1;stroke:none;stroke-width:0.26458332"
       x="17.197916"
       y="201.74998"
       id="text3821"><tspan
         sodipodi:role="line"
         id="tspan3819"
         x="17.197916"
         y="204.24699"
         style="stroke-width:0.26458332" /></text>
    <rect
       style="fill:#6f1e00;stroke-width:0.11848944"
       id="rect897-74"
       width="11.641666"
       height="11.906235"
       x="2.1166666"
       y="-290.65051"
       transform="scale(1,-1)" />
    <g
       aria-label="/^M^\"
       style="font-style:normal;font-variant:normal;font-weight:normal;font-stretch:normal;font-size:2.82222223px;line-height:1.25;font-family:'Copperplate Gothic Light';-inkscape-font-specification:'Copperplate Gothic Light, ';letter-spacing:0px;word-spacing:0px;fill:#ffffff;fill-opacity:1;stroke:#ffffff;stroke-width:0.2;stroke-miterlimit:4;stroke-dasharray:none;stroke-opacity:1"
       id="text956"
       transform="translate(-1.5490311,3.7456238)">
      <path
         d="m 21.203855,291.40545 v 0.0386 h -0.434082 v -0.0386 q 0.09509,-0.006 0.224621,-0.17088 l 1.094162,-1.4621 q 0.07441,-0.1006 0.07441,-0.12402 0,-0.0372 -0.06615,-0.0482 v -0.0372 h 0.423058 v 0.0372 q -0.09508,0.006 -0.22462,0.17087 l -1.08176,1.46348 q -0.07579,0.10197 -0.07579,0.12402 0,0.0358 0.06615,0.0469 z"
         style="font-style:normal;font-variant:normal;font-weight:normal;font-stretch:normal;font-size:2.82222223px;line-height:1.25;font-family:'Copperplate Gothic Light';-inkscape-font-specification:'Copperplate Gothic Light, ';stroke:#ffffff;stroke-width:0.2;stroke-miterlimit:4;stroke-dasharray:none;stroke-opacity:1"
         id="path958"
         inkscape:connector-curvature="0" />
      <path
         d="M 22.940183,290.3857 H 22.73899 l 0.493338,-0.8282 h 0.243912 l 0.493338,0.8282 h -0.20395 l -0.413411,-0.68075 z"
         style="font-style:normal;font-variant:normal;font-weight:normal;font-stretch:normal;font-size:2.82222223px;line-height:1.25;font-family:'Copperplate Gothic Light';-inkscape-font-specification:'Copperplate Gothic Light, ';stroke:#ffffff;stroke-width:0.2;stroke-miterlimit:4;stroke-dasharray:none;stroke-opacity:1"
         id="path960"
         inkscape:connector-curvature="0" />
      <path
         d="m 25.342104,291.44403 -0.789616,-1.58061 v 1.418 q 0,0.0565 0.01791,0.0813 0.01791,0.0234 0.07028,0.0372 v 0.0441 h -0.373449 v -0.0441 q 0.05237,-0.0138 0.07028,-0.0372 0.01792,-0.0234 0.01792,-0.0813 v -1.5558 q 0,-0.0579 -0.01792,-0.0813 -0.01791,-0.0248 -0.07028,-0.0372 v -0.0441 h 0.487826 v 0.0441 q -0.06752,0.0234 -0.06752,0.0579 0,0.0165 0.04547,0.10611 l 0.62563,1.24161 0.628385,-1.25263 q 0.03307,-0.0661 0.03307,-0.0937 0,-0.0358 -0.06752,-0.0593 v -0.0441 h 0.49196 v 0.0441 q -0.05237,0.0138 -0.07028,0.0372 -0.01792,0.0234 -0.01792,0.0813 v 1.5558 q 0,0.0565 0.01792,0.0813 0.01791,0.0234 0.07028,0.0372 v 0.0441 h -0.392741 v -0.0441 q 0.05374,-0.0138 0.07028,-0.0372 0.01791,-0.0234 0.01791,-0.0813 v -1.418 z"
         style="font-style:normal;font-variant:normal;font-weight:normal;font-stretch:normal;font-size:2.82222223px;line-height:1.25;font-family:'Copperplate Gothic Light';-inkscape-font-specification:'Copperplate Gothic Light, ';stroke:#ffffff;stroke-width:0.2;stroke-miterlimit:4;stroke-dasharray:none;stroke-opacity:1"
         id="path962"
         inkscape:connector-curvature="0" />
      <path
         d="m 26.942006,290.3857 h -0.201193 l 0.493338,-0.8282 h 0.243912 l 0.493338,0.8282 h -0.20395 l -0.413411,-0.68075 z"
         style="font-style:normal;font-variant:normal;font-weight:normal;font-stretch:normal;font-size:2.82222223px;line-height:1.25;font-family:'Copperplate Gothic Light';-inkscape-font-specification:'Copperplate Gothic Light, ';stroke:#ffffff;stroke-width:0.2;stroke-miterlimit:4;stroke-dasharray:none;stroke-opacity:1"
         id="path964"
         inkscape:connector-curvature="0" />
      <path
         d="m 28.617701,289.56301 v 0.0372 q -0.06615,0.011 -0.06615,0.0482 0,0.0234 0.07441,0.12402 l 1.092784,1.4621 q 0.129536,0.16536 0.22462,0.17088 v 0.0386 h -0.434082 v -0.0386 q 0.06615,-0.011 0.06615,-0.0469 0,-0.0207 -0.07579,-0.12402 l -1.080382,-1.46348 q -0.129535,-0.16536 -0.22462,-0.17087 v -0.0372 z"
         style="font-style:normal;font-variant:normal;font-weight:normal;font-stretch:normal;font-size:2.82222223px;line-height:1.25;font-family:'Copperplate Gothic Light';-inkscape-font-specification:'Copperplate Gothic Light, ';stroke:#ffffff;stroke-width:0.2;stroke-miterlimit:4;stroke-dasharray:none;stroke-opacity:1"
         id="path966"
         inkscape:connector-curvature="0" />
    </g>
    <path
       style="fill:none;stroke:#ffffff;stroke-width:0.3ffffff1;stroke-linecap:butt;stroke-linejoin:miter;stroke-miterlimit:4;stroke-dasharray:none;stroke-opacity:1"
       d="m 27.436795,207.83528 h 0.999999 8.000001"
       id="path954"
       inkscape:connector-curvature="0" />
    <path
       style="fill:none;stroke:#ffffff;stroke-width:0.3;stroke-linecap:butt;stroke-linejoin:miter;stroke-miterlimit:4;stroke-dasharray:none;stroke-opacity:1"
       d="m 11.1125,207.83729 h 1.028469 8.22776"
       id="path954-3"
       inkscape:connector-curvature="0" />
    <path
       inkscape:connector-curvature="0"
       id="path1006"
       d="m 27.436795,218.94785 h 0.999999 8.000001"
       style="fill:none;stroke:#ffffff;stroke-width:0.3ffffff1;stroke-linecap:butt;stroke-linejoin:miter;stroke-miterlimit:4;stroke-dasharray:none;stroke-opacity:1" />
    <path
       inkscape:connector-curvature="0"
       id="path1034"
       d="m 27.436795,230.04372 h 0.999999 8.000001"
       style="fill:none;stroke:#ffffff;stroke-width:0.3ffffff1;stroke-linecap:butt;stroke-linejoin:miter;stroke-miterlimit:4;stroke-dasharray:none;stroke-opacity:1" />
    <path
       style="fill:none;stroke:#ffffff;stroke-width:0.3ffffff1;stroke-linecap:butt;stroke-linejoin:miter;stroke-miterlimit:4;stroke-dasharray:none;stroke-opacity:1"
       d="m 27.436795,241.17299 h 0.999999 8.000001"
       id="path1062"
       inkscape:connector-curvature="0" />
    <path
       inkscape:connector-curvature="0"
       id="path1090"
       d="m 27.420091,252.28556 h 0.999999 8.000001"
       style="fill:none;stroke:#ffffff;stroke-width:0.3ffffff1;stroke-linecap:butt;stroke-linejoin:miter;stroke-miterlimit:4;stroke-dasharray:none;stroke-opacity:1" />
    <path
       inkscape:connector-curvature="0"
       id="path1092"
       d="m 17.4625,252.27576 h 0.321283 2.57027"
       style="fill:none;stroke:#ffffff;stroke-width:0.3;stroke-linecap:butt;stroke-linejoin:miter;stroke-miterlimit:4;stroke-dasharray:none;stroke-opacity:1" />
    <path
       style="fill:none;stroke:#ffffff;stroke-width:0.3ffffff1;stroke-linecap:butt;stroke-linejoin:miter;stroke-miterlimit:4;stroke-dasharray:none;stroke-opacity:1"
       d="m 27.420091,263.39813 h 0.999999 8.000001"
       id="path1118"
       inkscape:connector-curvature="0" />
    <path
       style="fill:none;stroke:#ffffff;stroke-width:0.3ffffff1;stroke-linecap:butt;stroke-linejoin:miter;stroke-miterlimit:4;stroke-dasharray:none;stroke-opacity:1"
       d="m 27.425452,274.494 h 0.999999 8.000001"
       id="path1146"
       inkscape:connector-curvature="0" />
    <path
       inkscape:connector-curvature="0"
       id="path1174"
       d="m 27.425452,285.62327 h 0.999999 8.000001"
       style="fill:none;stroke:#ffffff;stroke-width:0.3ffffff1;stroke-linecap:butt;stroke-linejoin:miter;stroke-miterlimit:4;stroke-dasharray:none;stroke-opacity:1" />
    <path
       style="fill:none;stroke:#ffffff;stroke-width:0.3;stroke-linecap:butt;stroke-linejoin:miter;stroke-miterlimit:4;stroke-dasharray:none;stroke-opacity:1"
       d="m 17.429098,207.83523 0.0027,44.71476"
       id="path951"
       inkscape:connector-curvature="0"
       sodipodi:nodetypes="cc" />
    <g
       transform="translate(-47.450984,195.7496)"
       aria-label="MUTE"
       style="font-style:normal;font-variant:normal;font-weight:normal;font-stretch:normal;font-size:2.82222223px;line-height:1.25;font-family:'Yu Gothic UI';-inkscape-font-specification:'Yu Gothic UI';letter-spacing:0px;word-spacing:0px;fill:#ffffff;fill-opacity:1;stroke:none;stroke-width:0.26458332"
       id="text1466">
      <path
         d="M 53.867513,7.9375 H 53.637381 V 6.6118273 q 0,-0.1570964 0.01929,-0.3844727 h -0.0055 q -0.03307,0.1336697 -0.05926,0.1915473 L 52.916667,7.9375 H 52.803668 L 52.129807,6.4299262 q -0.02894,-0.066146 -0.05926,-0.2025716 h -0.0055 q 0.01102,0.1185113 0.01102,0.3872287 V 7.9375 H 51.852821 V 5.9613932 h 0.305925 l 0.606336,1.3780382 q 0.07028,0.1584744 0.09095,0.2370226 h 0.0083 q 0.05926,-0.1626085 0.09509,-0.2425347 l 0.618739,-1.3725261 h 0.289388 z"
         style="stroke-width:0.26458332"
         id="path1522"
         inkscape:connector-curvature="0" />
      <path
         d="m 55.833973,7.1382378 q 0,0.8323351 -0.75103,0.8323351 -0.719336,0 -0.719336,-0.8006402 V 5.9613932 h 0.23151 v 1.1933811 q 0,0.6077148 0.51263,0.6077148 0.494716,0 0.494716,-0.5870442 V 5.9613932 h 0.23151 z"
         style="stroke-width:0.26458332"
         id="path1524"
         inkscape:connector-curvature="0" />
      <path
         d="M 57.497266,6.170855 H 56.926758 V 7.9375 h -0.23151 V 6.170855 h -0.56913 V 5.9613932 h 1.371148 z"
         style="stroke-width:0.26458332"
         id="path1526"
         inkscape:connector-curvature="0" />
      <path
         d="M 58.853255,7.9375 H 57.805946 V 5.9613932 h 1.003212 V 6.170855 H 58.037457 V 6.8281792 H 58.75128 V 7.036263 h -0.713823 v 0.6917752 h 0.815798 z"
         style="stroke-width:0.26458332"
         id="path1528"
         inkscape:connector-curvature="0" />
    </g>
    <g
       id="g1069"
       transform="translate(1.29268,44.450022)">
      <path
         d="M 3.060134,225.93782 H 2.828623 v -1.97611 h 0.231511 z"
         style="font-style:normal;font-variant:normal;font-weight:normal;font-stretch:normal;font-size:2.82222223px;line-height:1.25;font-family:'Yu Gothic UI';-inkscape-font-specification:'Yu Gothic UI';letter-spacing:0px;word-spacing:0px;fill:#ffffff;fill-opacity:1;stroke:none;stroke-width:0.26458332"
         id="path1509"
         inkscape:connector-curvature="0" />
      <path
         d="M 5.171288,225.93782 H 4.887412 l -1.016992,-1.5751 q -0.03858,-0.0593 -0.06339,-0.12402 h -0.0083 q 0.01102,0.0634 0.01102,0.27147 v 1.42765 H 3.57824 v -1.97611 h 0.300412 l 0.989432,1.55029 q 0.06201,0.0965 0.07993,0.13229 h 0.0055 q -0.01378,-0.0854 -0.01378,-0.29076 v -1.39182 h 0.23151 z"
         style="font-style:normal;font-variant:normal;font-weight:normal;font-stretch:normal;font-size:2.82222223px;line-height:1.25;font-family:'Yu Gothic UI';-inkscape-font-specification:'Yu Gothic UI';letter-spacing:0px;word-spacing:0px;fill:#ffffff;fill-opacity:1;stroke:none;stroke-width:0.26458332"
         id="path1511"
         inkscape:connector-curvature="0" />
      <path
         d="m 5.920941,225.19092 v 0.7469 h -0.23151 v -1.97611 h 0.5429466 q 0.3169488,0 0.4905816,0.15434 0.1750109,0.15434 0.1750109,0.43546 0,0.28112 -0.1943034,0.46027 -0.1929254,0.17914 -0.5222765,0.17914 z m 0,-1.01975 v 0.81029 h 0.2425347 q 0.2397787,0 0.3651801,-0.10887 0.1267795,-0.11024 0.1267795,-0.31006 0,-0.39136 -0.4630208,-0.39136 z"
         style="font-style:normal;font-variant:normal;font-weight:normal;font-stretch:normal;font-size:2.82222223px;line-height:1.25;font-family:'Yu Gothic UI';-inkscape-font-specification:'Yu Gothic UI';letter-spacing:0px;word-spacing:0px;fill:#ffffff;fill-opacity:1;stroke:none;stroke-width:0.26458332"
         id="path1513"
         inkscape:connector-curvature="0" />
      <path
         d="m 8.7169805,225.13855 q 0,0.83234 -0.7510308,0.83234 -0.719336,0 -0.719336,-0.80064 v -1.20854 h 0.2315105 v 1.19338 q 0,0.60772 0.5126302,0.60772 0.4947157,0 0.4947157,-0.58705 v -1.21405 h 0.2315104 z"
         style="font-style:normal;font-variant:normal;font-weight:normal;font-stretch:normal;font-size:2.82222223px;line-height:1.25;font-family:'Yu Gothic UI';-inkscape-font-specification:'Yu Gothic UI';letter-spacing:0px;word-spacing:0px;fill:#ffffff;fill-opacity:1;stroke:none;stroke-width:0.26458332"
         id="path1515"
         inkscape:connector-curvature="0" />
      <path
         d="M 10.380272,224.17117 H 9.8097646 v 1.76665 H 9.5782542 v -1.76665 H 9.0091244 v -0.20946 h 1.3711476 z"
         style="font-style:normal;font-variant:normal;font-weight:normal;font-stretch:normal;font-size:2.82222223px;line-height:1.25;font-family:'Yu Gothic UI';-inkscape-font-specification:'Yu Gothic UI';letter-spacing:0px;word-spacing:0px;fill:#ffffff;fill-opacity:1;stroke:none;stroke-width:0.26458332"
         id="path1517"
         inkscape:connector-curvature="0" />
    </g>
    <g
       id="g1711"
       style="font-style:normal;font-variant:normal;font-weight:normal;font-stretch:normal;font-size:2.82222223px;line-height:1.25;font-family:'Yu Gothic UI';-inkscape-font-specification:'Yu Gothic UI';letter-spacing:0px;word-spacing:0px;fill:#ffffff;fill-opacity:1;stroke:none;stroke-width:0.26458332"
       aria-label="OUTPUT"
       transform="translate(-34.456878,285.45329)">
      <path
         inkscape:connector-curvature="0"
         id="path1699"
         style="stroke-width:0.26458332"
         d="m 38.097245,-3.9356771 q -0.420301,0 -0.67386,-0.2769857 -0.252181,-0.2769856 -0.252181,-0.7207139 0,-0.4768013 0.257693,-0.7606771 0.257693,-0.2838759 0.701421,-0.2838759 0.409277,0 0.658702,0.2756076 0.250803,0.2756077 0.250803,0.720714 0,0.4836914 -0.256315,0.7648112 -0.256315,0.2811198 -0.686263,0.2811198 z m 0.01654,-1.8327908 q -0.311437,0 -0.50574,0.2246202 -0.194304,0.2246203 -0.194304,0.5898004 0,0.3651801 0.188791,0.5884223 0.19017,0.2218641 0.494716,0.2218641 0.325217,0 0.51263,-0.2122178 0.187414,-0.2122179 0.187414,-0.5939345 0,-0.3913628 -0.181901,-0.6049588 -0.181901,-0.2135959 -0.501606,-0.2135959 z" />
      <path
         inkscape:connector-curvature="0"
         id="path1701"
         style="stroke-width:0.26458332"
         d="m 40.873992,-4.7680122 q 0,0.8323351 -0.751031,0.8323351 -0.719336,0 -0.719336,-0.8006402 v -1.2085395 h 0.231511 v 1.1933811 q 0,0.6077148 0.51263,0.6077148 0.494716,0 0.494716,-0.5870442 v -1.2140517 h 0.23151 z" />
      <path
         inkscape:connector-curvature="0"
         id="path1703"
         style="stroke-width:0.26458332"
         d="m 42.537284,-5.735395 h -0.570507 v 1.766645 h -0.231511 v -1.766645 h -0.56913 v -0.2094618 h 1.371148 z" />
      <path
         inkscape:connector-curvature="0"
         id="path1705"
         style="stroke-width:0.26458332"
         d="M 43.077475,-4.7156467 V -3.96875 h -0.23151 v -1.9761068 h 0.542947 q 0.316949,0 0.490581,0.1543403 0.175011,0.1543403 0.175011,0.4354601 0,0.2811198 -0.194303,0.4602647 -0.192925,0.179145 -0.522277,0.179145 z m 0,-1.0197483 v 0.8102865 h 0.242535 q 0.239779,0 0.36518,-0.108865 0.12678,-0.1102431 0.12678,-0.3100586 0,-0.3913629 -0.463021,-0.3913629 z" />
      <path
         inkscape:connector-curvature="0"
         id="path1707"
         style="stroke-width:0.26458332"
         d="m 45.873515,-4.7680122 q 0,0.8323351 -0.751031,0.8323351 -0.719336,0 -0.719336,-0.8006402 v -1.2085395 h 0.23151 v 1.1933811 q 0,0.6077148 0.512631,0.6077148 0.494715,0 0.494715,-0.5870442 v -1.2140517 h 0.231511 z" />
      <path
         inkscape:connector-curvature="0"
         id="path1709"
         style="stroke-width:0.26458332"
         d="m 47.536807,-5.735395 h -0.570508 v 1.766645 h -0.23151 v -1.766645 h -0.56913 v -0.2094618 h 1.371148 z" />
    </g>
    <path
       inkscape:connector-curvature="0"
       id="path1771"
       d="m 17.4625,218.94986 h 0.352312 2.8185"
       style="fill:none;stroke:#ffffff;stroke-width:0.3;stroke-linecap:butt;stroke-linejoin:miter;stroke-miterlimit:4;stroke-dasharray:none;stroke-opacity:1" />
    <path
       style="fill:none;stroke:#ffffff;stroke-width:0.3;stroke-linecap:butt;stroke-linejoin:miter;stroke-miterlimit:4;stroke-dasharray:none;stroke-opacity:1"
       d="m 17.4625,230.06243 h 0.322914 2.583315"
       id="path1773"
       inkscape:connector-curvature="0" />
    <path
       inkscape:connector-curvature="0"
       id="path1775"
       d="m 17.4625,241.175 h 0.322914 2.583315"
       style="fill:none;stroke:#ffffff;stroke-width:0.3;stroke-linecap:butt;stroke-linejoin:miter;stroke-miterlimit:4;stroke-dasharray:none;stroke-opacity:1" />
    <path
       sodipodi:nodetypes="cc"
       inkscape:connector-curvature="0"
       id="path1032"
       d="m 17.429096,252.2857 0.0027,33.33712"
       style="fill:none;stroke:#ffffff;stroke-width:0.3;stroke-linecap:round;stroke-linejoin:miter;stroke-miterlimit:4;stroke-dasharray:none;stroke-opacity:1" />
    <path
       style="fill:none;stroke:#ffffff;stroke-width:0.3;stroke-linecap:butt;stroke-linejoin:miter;stroke-miterlimit:4;stroke-dasharray:none;stroke-opacity:1"
       d="m 17.4625,263.40014 h 0.352312 2.8185"
       id="path1037"
       inkscape:connector-curvature="0" />
    <path
       inkscape:connector-curvature="0"
       id="path1039"
       d="m 17.4625,274.51271 h 0.322914 2.583315"
       style="fill:none;stroke:#ffffff;stroke-width:0.3;stroke-linecap:butt;stroke-linejoin:miter;stroke-miterlimit:4;stroke-dasharray:none;stroke-opacity:1" />
    <path
       style="fill:none;stroke:#ffffff;stroke-width:0.3;stroke-linecap:butt;stroke-linejoin:miter;stroke-miterlimit:4;stroke-dasharray:none;stroke-opacity:1"
       d="m 17.4625,285.62528 h 0.322914 2.583315"
       id="path1042"
       inkscape:connector-curvature="0" />
    <g
       transform="translate(-2.8841565,36.560401)"
       id="g1078"
       style="font-style:normal;font-variant:normal;font-weight:normal;font-stretch:normal;font-size:2.11666656px;line-height:1.25;font-family:'Yu Gothic UI';-inkscape-font-specification:'Yu Gothic UI';letter-spacing:0px;word-spacing:0px;fill:#ffffff;fill-opacity:1;stroke:none;stroke-width:0.26458332"
       aria-label="HARD">
      <path
         inkscape:connector-curvature="0"
         id="path1070"
         style="font-size:2.11666656px;stroke-width:0.26458332"
         d="M 9.2459472,226.88541 H 9.0723144 v -0.67593 H 8.3054362 v 0.67593 H 8.1318034 v -1.48208 h 0.1736328 v 0.65009 h 0.7668782 v -0.65009 h 0.1736328 z" />
      <path
         inkscape:connector-curvature="0"
         id="path1072"
         style="font-size:2.11666656px;stroke-width:0.26458332"
         d="m 10.783838,226.88541 h -0.192237 l -0.157096,-0.41548 H 9.8061197 l -0.1477946,0.41548 H 9.4650552 l 0.5684408,-1.48208 h 0.179834 z m -0.406177,-0.57154 -0.232544,-0.63149 q -0.01137,-0.031 -0.02274,-0.0992 h -0.0041 q -0.01033,0.0631 -0.02377,0.0992 l -0.2304767,0.63149 z" />
      <path
         inkscape:connector-curvature="0"
         id="path1074"
         style="font-size:2.11666656px;stroke-width:0.26458332"
         d="M 12.063346,226.88541 H 11.85664 l -0.248047,-0.41548 q -0.03411,-0.0579 -0.06615,-0.0982 -0.03204,-0.0413 -0.06615,-0.0672 -0.03307,-0.0258 -0.07235,-0.0372 -0.03824,-0.0124 -0.08682,-0.0124 h -0.142627 v 0.63046 h -0.173632 v -1.48208 h 0.44235 q 0.09715,0 0.1788,0.0248 0.08268,0.0238 0.142627,0.0734 0.06098,0.0496 0.09508,0.12403 0.03411,0.0734 0.03411,0.17259 0,0.0775 -0.02377,0.14263 -0.02274,0.0641 -0.06615,0.11472 -0.04237,0.0507 -0.103352,0.0868 -0.05995,0.0351 -0.135393,0.0548 v 0.004 q 0.03721,0.0165 0.06408,0.0382 0.02791,0.0207 0.05271,0.0496 0.0248,0.0289 0.04858,0.0661 0.02481,0.0362 0.05478,0.0848 z m -0.888835,-1.32499 v 0.53744 h 0.235645 q 0.06511,0 0.119889,-0.0196 0.05581,-0.0196 0.09612,-0.0558 0.04031,-0.0372 0.06305,-0.0899 0.02274,-0.0537 0.02274,-0.11989 0,-0.11885 -0.07751,-0.185 -0.07648,-0.0672 -0.222209,-0.0672 z" />
      <path
         inkscape:connector-curvature="0"
         id="path1076"
         style="font-size:2.11666656px;stroke-width:0.26458332"
         d="m 12.265918,226.88541 v -1.48208 h 0.409277 q 0.783415,0 0.783415,0.72243 0,0.34313 -0.218075,0.55191 -0.217041,0.20774 -0.581876,0.20774 z m 0.173632,-1.32499 v 1.16789 h 0.221176 q 0.291455,0 0.453719,-0.15606 0.162264,-0.15607 0.162264,-0.44235 0,-0.56948 -0.605648,-0.56948 z" />
    </g>
    <g
       transform="translate(0.13717042,18.918058)"
       id="g1088"
       style="font-style:normal;font-variant:normal;font-weight:normal;font-stretch:normal;font-size:2.11666656px;line-height:1.25;font-family:'Yu Gothic UI';-inkscape-font-specification:'Yu Gothic UI';letter-spacing:0px;word-spacing:0px;fill:#ffffff;fill-opacity:1;stroke:none;stroke-width:0.26458332"
       aria-label="SOFT">
      <path
         inkscape:connector-curvature="0"
         id="path1080"
         style="font-size:2.11666656px;stroke-width:0.26458332"
         d="m 5.4167235,234.76296 v -0.20464 q 0.03514,0.031 0.083716,0.0558 0.049609,0.0248 0.1033528,0.0424 0.054777,0.0165 0.1095541,0.0258 0.054777,0.009 0.1012858,0.009 0.1601969,0 0.2387451,-0.0589 0.079582,-0.06 0.079582,-0.17157 0,-0.0599 -0.026872,-0.10438 -0.025838,-0.0444 -0.072347,-0.0806 -0.046509,-0.0372 -0.1105875,-0.0703 -0.063045,-0.0341 -0.1364258,-0.0713 -0.077515,-0.0393 -0.144694,-0.0796 -0.067179,-0.0403 -0.1167887,-0.0889 -0.049609,-0.0486 -0.078548,-0.10955 -0.027905,-0.062 -0.027905,-0.1447 0,-0.10128 0.044442,-0.1757 0.044442,-0.0754 0.1167887,-0.12402 0.072347,-0.0486 0.164331,-0.0724 0.093018,-0.0238 0.1891358,-0.0238 0.219108,0 0.3193603,0.0527 v 0.19534 q -0.1312581,-0.0909 -0.3369303,-0.0909 -0.056844,0 -0.1136882,0.0124 -0.056844,0.0114 -0.1012858,0.0382 -0.044442,0.0269 -0.072347,0.0692 -0.027905,0.0424 -0.027905,0.10335 0,0.0568 0.02067,0.0982 0.021704,0.0413 0.063045,0.0754 0.041341,0.0341 0.1002522,0.0661 0.059945,0.032 0.1374593,0.0703 0.079582,0.0393 0.1508952,0.0827 0.071313,0.0434 0.125057,0.0961 0.053744,0.0527 0.084749,0.11679 0.032039,0.0641 0.032039,0.14676 0,0.10955 -0.043408,0.18603 -0.042375,0.0754 -0.1157552,0.12299 -0.072347,0.0476 -0.1674316,0.0682 -0.095085,0.0217 -0.2005046,0.0217 -0.03514,0 -0.086816,-0.006 -0.051676,-0.005 -0.1054199,-0.0165 -0.053743,-0.0103 -0.1023193,-0.0258 -0.047542,-0.0165 -0.076481,-0.0362 z" />
      <path
         inkscape:connector-curvature="0"
         id="path1082"
         style="font-size:2.11666656px;stroke-width:0.26458332"
         d="m 7.2078285,234.84771 q -0.3152263,0 -0.5053955,-0.20774 -0.1891357,-0.20774 -0.1891357,-0.54053 0,-0.3576 0.1932698,-0.57051 0.1932698,-0.21291 0.5260661,-0.21291 0.3069579,0 0.4940266,0.20671 0.1881022,0.2067 0.1881022,0.54053 0,0.36277 -0.1922363,0.57361 -0.1922363,0.21084 -0.5146972,0.21084 z m 0.012402,-1.37459 q -0.2335775,0 -0.379305,0.16846 -0.1457275,0.16847 -0.1457275,0.44235 0,0.27389 0.1415934,0.44132 0.1426269,0.1664 0.3710368,0.1664 0.2439127,0 0.3844726,-0.15917 0.1405599,-0.15916 0.1405599,-0.44545 0,-0.29352 -0.1364258,-0.45371 -0.1364258,-0.1602 -0.3762044,-0.1602 z" />
      <path
         inkscape:connector-curvature="0"
         id="path1084"
         style="font-size:2.11666656px;stroke-width:0.26458332"
         d="M 8.958626,233.49792 H 8.37985 v 0.51263 h 0.5353678 v 0.15607 H 8.37985 v 0.65629 H 8.2062172 v -1.48208 H 8.958626 Z" />
      <path
         inkscape:connector-curvature="0"
         id="path1086"
         style="font-size:2.11666656px;stroke-width:0.26458332"
         d="M 10.116178,233.49792 H 9.6882969 v 1.32499 H 9.5146641 v -1.32499 H 9.0878168 v -0.15709 h 1.0283612 z" />
    </g>
    <g
       aria-label="POLY MUTE"
       style="font-style:normal;font-variant:normal;font-weight:bold;font-stretch:normal;font-size:3.52777767px;line-height:1.25;font-family:'Yu Gothic UI';-inkscape-font-specification:'Yu Gothic UI Bold';letter-spacing:0px;word-spacing:0px;fill:#ffffff;fill-opacity:1;stroke:none;stroke-width:0.26458332"
       id="text1073"
       transform="translate(-22.775387,0.90330735)">
      <path
         d="m 37.754803,198.20843 v 0.89573 h -0.408244 v -2.47014 h 0.749308 q 0.425469,0 0.659736,0.1981 0.234266,0.19809 0.234266,0.5581 0,0.36001 -0.244601,0.58911 -0.244602,0.2291 -0.661459,0.2291 z m 0,-1.23679 v 0.90262 h 0.265272 q 0.26355,0 0.401354,-0.1223 0.137803,-0.1223 0.137803,-0.34451 0,-0.43581 -0.506429,-0.43581 z"
         style="font-style:normal;font-variant:normal;font-weight:bold;font-stretch:normal;font-size:3.52777767px;font-family:'Yu Gothic UI';-inkscape-font-specification:'Yu Gothic UI Bold';stroke-width:0.26458332"
         id="path1075"
         inkscape:connector-curvature="0" />
      <path
         d="m 40.424752,199.1455 q -0.53399,0 -0.856107,-0.34623 -0.320393,-0.34624 -0.320393,-0.9009 0,-0.596 0.327284,-0.95084 0.327284,-0.35485 0.888834,-0.35485 0.52021,0 0.837158,0.34451 0.318672,0.34451 0.318672,0.90089 0,0.60462 -0.325562,0.95602 -0.325561,0.3514 -0.869886,0.3514 z m 0.01895,-2.19281 q -0.339342,0 -0.552938,0.25322 -0.211874,0.25321 -0.211874,0.66662 0,0.41169 0.206706,0.66319 0.206706,0.25149 0.54088,0.25149 0.354845,0 0.559828,-0.23944 0.204983,-0.23943 0.204983,-0.67007 0,-0.44269 -0.199815,-0.68385 -0.198093,-0.24116 -0.54777,-0.24116 z"
         style="font-style:normal;font-variant:normal;font-weight:bold;font-stretch:normal;font-size:3.52777767px;font-family:'Yu Gothic UI';-inkscape-font-specification:'Yu Gothic UI Bold';stroke-width:0.26458332"
         id="path1077"
         inkscape:connector-curvature="0" />
      <path
         d="M 43.440933,199.10416 H 42.07323 v -2.47014 h 0.409966 v 2.1239 h 0.957737 z"
         style="font-style:normal;font-variant:normal;font-weight:bold;font-stretch:normal;font-size:3.52777767px;font-family:'Yu Gothic UI';-inkscape-font-specification:'Yu Gothic UI Bold';stroke-width:0.26458332"
         id="path1079"
         inkscape:connector-curvature="0" />
      <path
         d="m 45.378799,196.63402 -0.809598,1.57269 v 0.89745 h -0.409966 v -0.88884 l -0.788927,-1.5813 h 0.466811 l 0.485758,1.05937 q 0.0086,0.019 0.05168,0.14297 h 0.0052 q 0.0155,-0.0551 0.05684,-0.14297 l 0.508152,-1.05937 z"
         style="font-style:normal;font-variant:normal;font-weight:bold;font-stretch:normal;font-size:3.52777767px;font-family:'Yu Gothic UI';-inkscape-font-specification:'Yu Gothic UI Bold';stroke-width:0.26458332"
         id="path1081"
         inkscape:connector-curvature="0" />
      <path
         d="m 49.32171,199.10416 h -0.406521 v -1.59853 q 0,-0.19637 0.02412,-0.48059 h -0.0069 q -0.0379,0.16192 -0.06718,0.23255 l -0.73725,1.84657 h -0.282498 l -0.738973,-1.83279 q -0.03101,-0.081 -0.06546,-0.24633 h -0.0069 q 0.01378,0.14814 0.01378,0.48404 v 1.59508 h -0.37896 v -2.47014 h 0.577053 l 0.649401,1.64504 q 0.07407,0.18948 0.09646,0.28249 h 0.0086 q 0.06373,-0.19464 0.103353,-0.28938 l 0.661458,-1.63815 h 0.556383 z"
         style="font-style:normal;font-variant:normal;font-weight:bold;font-stretch:normal;font-size:3.52777767px;font-family:'Yu Gothic UI';-inkscape-font-specification:'Yu Gothic UI Bold';stroke-width:0.26458332"
         id="path1083"
         inkscape:connector-curvature="0" />
      <path
         d="m 51.828018,198.10508 q 0,1.04042 -0.985298,1.04042 -0.943956,0 -0.943956,-1.0008 v -1.51068 h 0.409967 v 1.42627 q 0,0.72692 0.564995,0.72692 0.544325,0 0.544325,-0.70108 v -1.45211 h 0.409967 z"
         style="font-style:normal;font-variant:normal;font-weight:bold;font-stretch:normal;font-size:3.52777767px;font-family:'Yu Gothic UI';-inkscape-font-specification:'Yu Gothic UI Bold';stroke-width:0.26458332"
         id="path1085"
         inkscape:connector-curvature="0" />
      <path
         d="m 53.99326,196.98198 h -0.70969 v 2.12218 h -0.409966 v -2.12218 h -0.707967 v -0.34796 h 1.827623 z"
         style="font-style:normal;font-variant:normal;font-weight:bold;font-stretch:normal;font-size:3.52777767px;font-family:'Yu Gothic UI';-inkscape-font-specification:'Yu Gothic UI Bold';stroke-width:0.26458332"
         id="path1087"
         inkscape:connector-curvature="0" />
      <path
         d="M 55.745091,199.10416 H 54.35844 v -2.47014 h 1.331529 v 0.34796 h -0.921563 v 0.69935 h 0.849216 v 0.34623 h -0.849216 v 0.73036 h 0.976685 z"
         style="font-style:normal;font-variant:normal;font-weight:bold;font-stretch:normal;font-size:3.52777767px;font-family:'Yu Gothic UI';-inkscape-font-specification:'Yu Gothic UI Bold';stroke-width:0.26458332"
         id="path1089"
         inkscape:connector-curvature="0" />
    </g>
    <g
       aria-label="MASTER"
       style="font-style:normal;font-variant:normal;font-weight:normal;font-stretch:normal;font-size:2.82222223px;line-height:1.25;font-family:'Yu Gothic UI';-inkscape-font-specification:'Yu Gothic UI';letter-spacing:0px;word-spacing:0px;fill:#ffffff;fill-opacity:1;stroke:none;stroke-width:0.26458332"
       id="text1094">
      <path
         d="M 4.843674,225.90688 H 4.6135417 v -1.32568 q 0,-0.15709 0.019292,-0.38447 h -0.00551 q -0.033073,0.13367 -0.059256,0.19155 l -0.6752387,1.5186 H 3.7798285 L 3.1059679,224.3993 q -0.028939,-0.0661 -0.059256,-0.20257 h -0.00551 q 0.011024,0.11851 0.011024,0.38723 v 1.32292 H 2.8289822 v -1.97611 h 0.3059245 l 0.6063368,1.37804 q 0.07028,0.15847 0.09095,0.23702 h 0.00827 q 0.059256,-0.16261 0.095085,-0.24254 l 0.6187391,-1.37252 h 0.289388 z"
         style="stroke-width:0.26458332"
         id="path1096" />
      <path
         d="M 6.8941948,225.90688 H 6.6378797 L 6.4284178,225.3529 H 5.5905706 l -0.1970594,0.55398 H 5.135818 l 0.757921,-1.97611 h 0.2397787 z m -0.5415691,-0.76206 -0.3100585,-0.84198 q -0.015159,-0.0413 -0.030317,-0.13229 h -0.00551 q -0.01378,0.0841 -0.031695,0.13229 l -0.3073025,0.84198 z"
         style="stroke-width:0.26458332"
         id="path1098" />
      <path
         d="m 7.0912541,225.82695 v -0.27285 q 0.046853,0.0413 0.111621,0.0744 0.066146,0.0331 0.1378039,0.0565 0.073036,0.0221 0.146072,0.0344 0.073036,0.0124 0.1350478,0.0124 0.2135959,0 0.3183268,-0.0785 0.1061089,-0.0799 0.1061089,-0.22876 0,-0.0799 -0.035829,-0.13918 -0.034451,-0.0593 -0.096463,-0.10749 -0.062012,-0.0496 -0.1474501,-0.0937 -0.08406,-0.0455 -0.1819011,-0.0951 -0.1033528,-0.0524 -0.1929253,-0.10611 -0.089573,-0.0537 -0.1557183,-0.11851 -0.066146,-0.0648 -0.1047309,-0.14607 -0.037207,-0.0827 -0.037207,-0.19293 0,-0.13504 0.059256,-0.23426 0.059256,-0.1006 0.1557183,-0.16537 0.096463,-0.0648 0.2191081,-0.0965 0.1240234,-0.0317 0.252181,-0.0317 0.2921441,0 0.4258138,0.0703 v 0.26045 q -0.1750109,-0.12127 -0.4492405,-0.12127 -0.075792,0 -0.1515842,0.0165 -0.075792,0.0152 -0.1350477,0.051 -0.059256,0.0358 -0.096463,0.0923 -0.037207,0.0565 -0.037207,0.1378 0,0.0758 0.027561,0.13092 0.028939,0.0551 0.08406,0.10059 0.055122,0.0455 0.1336698,0.0882 0.079926,0.0427 0.183279,0.0937 0.106109,0.0524 0.2011936,0.11024 0.095085,0.0579 0.1667426,0.12816 0.071658,0.0703 0.1129992,0.15571 0.042719,0.0854 0.042719,0.19569 0,0.14607 -0.057878,0.24804 -0.056499,0.1006 -0.1543402,0.16399 -0.096463,0.0634 -0.2232422,0.0909 -0.1267795,0.0289 -0.2673394,0.0289 -0.046853,0 -0.1157552,-0.008 -0.068902,-0.007 -0.1405599,-0.0221 -0.071658,-0.0138 -0.1364258,-0.0344 -0.06339,-0.0221 -0.1019748,-0.0482 z"
         style="stroke-width:0.26458332"
         id="path1100" />
      <path
         d="M 9.823904,224.14023 H 9.2533962 v 1.76665 H 9.0218858 v -1.76665 H 8.452756 v -0.20946 h 1.371148 z"
         style="stroke-width:0.26458332"
         id="path1102" />
      <path
         d="m 11.179893,225.90688 h -1.047309 v -1.97611 h 1.003212 v 0.20946 h -0.771701 v 0.65732 h 0.713824 v 0.20809 h -0.713824 v 0.69177 h 0.815798 z"
         style="stroke-width:0.26458332"
         id="path1104" />
      <path
         d="m 12.976855,225.90688 h -0.275607 l -0.33073,-0.55398 q -0.04547,-0.0772 -0.08819,-0.13091 -0.04272,-0.0551 -0.08819,-0.0896 -0.0441,-0.0344 -0.09646,-0.0496 -0.05099,-0.0165 -0.115755,-0.0165 h -0.19017 v 0.84061 h -0.23151 v -1.97611 h 0.5898 q 0.129536,0 0.238401,0.0331 0.110243,0.0317 0.190169,0.0978 0.0813,0.0661 0.12678,0.16537 0.04547,0.0978 0.04547,0.23013 0,0.10335 -0.03169,0.19017 -0.03032,0.0854 -0.08819,0.15296 -0.0565,0.0675 -0.137804,0.11576 -0.07993,0.0469 -0.180523,0.073 v 0.006 q 0.04961,0.0221 0.08544,0.051 0.03721,0.0276 0.07028,0.0661 0.03307,0.0386 0.06477,0.0882 0.03307,0.0482 0.07304,0.113 z m -1.185113,-1.76665 v 0.71658 h 0.314193 q 0.08682,0 0.159853,-0.0262 0.07441,-0.0262 0.128157,-0.0744 0.05374,-0.0496 0.08406,-0.11989 0.03032,-0.0717 0.03032,-0.15985 0,-0.15847 -0.103353,-0.24667 -0.101974,-0.0896 -0.296278,-0.0896 z"
         style="stroke-width:0.26458332"
         id="path1106" />
    </g>
    <path
       style="fill:none;stroke:#ffffff;stroke-width:0.3;stroke-linecap:butt;stroke-linejoin:miter;stroke-opacity:1;stroke-miterlimit:4;stroke-dasharray:none"
       d="M 7.9374999,238.79165 V 233.2354"
       id="path1109"
       inkscape:connector-curvature="0" />
    <g
       transform="translate(-20.558566,-7.3745826)"
       id="g2591"
       style="font-style:normal;font-variant:normal;font-weight:normal;font-stretch:normal;font-size:2.82222223px;line-height:1.25;font-family:'Yu Gothic UI';-inkscape-font-specification:'Yu Gothic UI';letter-spacing:0px;word-spacing:0px;display:inline;fill:#ffffff;fill-opacity:1;stroke:none;stroke-width:0.26458332"
       aria-label="1">
      <path
         inkscape:connector-curvature="0"
         id="path2589"
         style="stroke-width:0.26458332"
         d="m 44.65395,211.01041 h -0.225999 v -1.70739 q -0.02618,0.0262 -0.07717,0.0606 -0.04961,0.0331 -0.112999,0.0661 -0.06201,0.0331 -0.132292,0.062 -0.0689,0.0289 -0.135047,0.0455 v -0.22875 q 0.07441,-0.0207 0.157096,-0.0551 0.08406,-0.0358 0.163987,-0.0786 0.0813,-0.0441 0.152962,-0.0909 0.07166,-0.0482 0.124023,-0.0937 h 0.08544 z" />
    </g>
    <g
       transform="translate(-52.433279,37.036669)"
       id="g2595"
       style="font-style:normal;font-variant:normal;font-weight:normal;font-stretch:normal;font-size:2.82222223px;line-height:1.25;font-family:'Yu Gothic UI';-inkscape-font-specification:'Yu Gothic UI';letter-spacing:0px;word-spacing:0px;display:inline;fill:#ffffff;fill-opacity:1;stroke:none;stroke-width:0.26458332"
       aria-label="5">
      <path
         inkscape:connector-curvature="0"
         id="path2593"
         style="stroke-width:0.26458332"
         d="m 76.741569,210.40683 q 0,0.14469 -0.04961,0.26182 -0.04961,0.11714 -0.141938,0.2012 -0.09095,0.0841 -0.220486,0.12953 -0.129536,0.0455 -0.28801,0.0455 -0.275608,0 -0.409278,-0.0827 v -0.23978 q 0.201194,0.12953 0.412034,0.12953 0.107487,0 0.192925,-0.0317 0.08682,-0.0317 0.14745,-0.0882 0.06063,-0.0565 0.09233,-0.13642 0.03307,-0.0799 0.03307,-0.17501 0,-0.19293 -0.129536,-0.30179 -0.129536,-0.11025 -0.376204,-0.11025 -0.03996,0 -0.08406,0.001 -0.0441,0.001 -0.08819,0.004 -0.0441,10e-4 -0.08682,0.004 -0.04134,0.003 -0.07579,0.007 l 0.06752,-0.99081 h 0.913639 v 0.20395 h -0.717957 l -0.03996,0.58015 q 0.0441,-0.003 0.09371,-0.004 0.04961,-0.003 0.0882,-0.003 0.157096,0 0.281119,0.0413 0.124024,0.0414 0.209462,0.11852 0.08682,0.0758 0.130914,0.18741 0.04547,0.11024 0.04547,0.24805 z" />
    </g>
    <g
       transform="translate(-68.280014,-6.0744326)"
       id="g2599"
       style="font-style:normal;font-variant:normal;font-weight:normal;font-stretch:normal;font-size:2.82222223px;line-height:1.25;font-family:'Yu Gothic UI';-inkscape-font-specification:'Yu Gothic UI';letter-spacing:0px;word-spacing:0px;display:inline;fill:#ffffff;fill-opacity:1;stroke:none;stroke-width:0.26458332"
       aria-label="9">
      <path
         inkscape:connector-curvature="0"
         id="path2597"
         style="stroke-width:0.26458332"
         d="m 108.5398,208.58092 q 0,0.27147 -0.0537,0.48369 -0.0537,0.21084 -0.1571,0.35829 -0.10335,0.14607 -0.25218,0.22324 -0.14883,0.0758 -0.339,0.0758 -0.19568,0 -0.34451,-0.0689 v -0.21635 q 0.16399,0.0923 0.35002,0.0923 0.13367,0 0.2384,-0.0551 0.10611,-0.0551 0.17915,-0.15985 0.073,-0.10611 0.11162,-0.26045 0.0386,-0.15434 0.0386,-0.35416 h -0.006 q -0.12678,0.25494 -0.44097,0.25494 -0.12678,0 -0.23289,-0.0441 -0.10611,-0.0455 -0.18328,-0.12678 -0.0772,-0.0827 -0.11989,-0.19568 -0.0427,-0.113 -0.0427,-0.24942 0,-0.14608 0.0468,-0.26734 0.0482,-0.12127 0.13229,-0.20809 0.0854,-0.0882 0.20119,-0.13642 0.11714,-0.0482 0.25494,-0.0482 0.14883,0 0.26321,0.0606 0.11575,0.0592 0.1943,0.17501 0.0786,0.11438 0.11989,0.2825 0.0413,0.16812 0.0413,0.38447 z m -0.24391,-0.20257 q 0,-0.11438 -0.0303,-0.20809 -0.0289,-0.0937 -0.0813,-0.15985 -0.0524,-0.0675 -0.1254,-0.10335 -0.0717,-0.0372 -0.1571,-0.0372 -0.0813,0 -0.15159,0.0331 -0.0703,0.0317 -0.12264,0.0909 -0.051,0.0579 -0.0813,0.13918 -0.0289,0.0799 -0.0289,0.17501 0,0.10473 0.0276,0.18741 0.0289,0.0827 0.0813,0.14056 0.0524,0.0565 0.1254,0.0868 0.0744,0.0303 0.16399,0.0303 0.0786,0 0.14745,-0.0289 0.0703,-0.0303 0.12127,-0.0799 0.0524,-0.051 0.0813,-0.11851 0.0303,-0.0689 0.0303,-0.14745 z" />
    </g>
    <g
       transform="translate(-100.84805,38.381399)"
       id="g2605"
       style="font-style:normal;font-variant:normal;font-weight:normal;font-stretch:normal;font-size:2.82222223px;line-height:1.25;font-family:'Yu Gothic UI';-inkscape-font-specification:'Yu Gothic UI';letter-spacing:0px;word-spacing:0px;display:inline;fill:#ffffff;fill-opacity:1;stroke:none;stroke-width:0.26458332"
       aria-label="13">
      <path
         inkscape:connector-curvature="0"
         id="path2601"
         style="stroke-width:0.26458332"
         d="m 139.90395,209.68748 h -0.226 v -1.70738 q -0.0262,0.0262 -0.0772,0.0606 -0.0496,0.0331 -0.113,0.0661 -0.062,0.0331 -0.13229,0.062 -0.0689,0.0289 -0.13505,0.0455 v -0.22875 q 0.0744,-0.0207 0.1571,-0.0551 0.0841,-0.0358 0.16399,-0.0785 0.0813,-0.0441 0.15296,-0.091 0.0717,-0.0482 0.12402,-0.0937 h 0.0854 z" />
      <path
         inkscape:connector-curvature="0"
         id="path2603"
         style="stroke-width:0.26458332"
         d="m 141.74087,209.128 q 0,0.13367 -0.051,0.24391 -0.0496,0.10887 -0.14194,0.18742 -0.0909,0.0772 -0.21911,0.11989 -0.12816,0.0427 -0.2825,0.0427 -0.28249,0 -0.44924,-0.10749 v -0.24254 q 0.19982,0.1571 0.45751,0.1571 0.10335,0 0.18604,-0.0262 0.0841,-0.0262 0.14331,-0.0758 0.0606,-0.0496 0.0923,-0.11989 0.0331,-0.0703 0.0331,-0.15848 0,-0.38723 -0.55121,-0.38723 h -0.16399 v -0.19154 h 0.15572 q 0.48783,0 0.48783,-0.36381 0,-0.33624 -0.37207,-0.33624 -0.20947,0 -0.39275,0.14056 v -0.21911 q 0.1888,-0.11299 0.44925,-0.11299 0.12402,0 0.22462,0.0344 0.10059,0.0344 0.17225,0.0965 0.0717,0.062 0.11024,0.14883 0.04,0.0868 0.04,0.19154 0,0.38999 -0.39412,0.50161 v 0.006 q 0.10059,0.011 0.18603,0.0496 0.0854,0.0372 0.14745,0.0978 0.062,0.0606 0.0965,0.14332 0.0358,0.0813 0.0358,0.18052 z" />
    </g>
    <g
       transform="translate(-28.600117,2.4096524)"
       id="g2609"
       style="font-style:normal;font-variant:normal;font-weight:normal;font-stretch:normal;font-size:2.82222223px;line-height:1.25;font-family:'Yu Gothic UI';-inkscape-font-specification:'Yu Gothic UI';letter-spacing:0px;word-spacing:0px;display:inline;fill:#ffffff;fill-opacity:1;stroke:none;stroke-width:0.26458332"
       aria-label="2">
      <path
         inkscape:connector-curvature="0"
         id="path2607"
         style="stroke-width:0.26458332"
         d="m 52.657595,210.87535 q 0,-0.0909 -0.02894,-0.15848 -0.02756,-0.0675 -0.07717,-0.11162 -0.04823,-0.0455 -0.114378,-0.0675 -0.06614,-0.0221 -0.143316,-0.0221 -0.06614,0 -0.129535,0.0179 -0.06339,0.0179 -0.124024,0.0496 -0.05926,0.0317 -0.115755,0.0758 -0.05512,0.0441 -0.103353,0.0978 v -0.24254 q 0.09508,-0.0923 0.212218,-0.14056 0.118511,-0.0496 0.28801,-0.0496 0.121268,0 0.22462,0.0358 0.103353,0.0344 0.179145,0.10198 0.07579,0.0675 0.118512,0.16674 0.0441,0.0992 0.0441,0.22738 0,0.11713 -0.02756,0.21221 -0.02618,0.0951 -0.0813,0.17915 -0.05374,0.0841 -0.136426,0.16123 -0.08268,0.0772 -0.194303,0.1571 -0.139182,0.0992 -0.230133,0.16949 -0.08957,0.0703 -0.143316,0.1323 -0.05237,0.0606 -0.07441,0.12264 -0.02067,0.0606 -0.02067,0.14056 h 0.983919 v 0.20257 h -1.219564 v -0.0978 q 0,-0.12678 0.02756,-0.22324 0.02756,-0.0965 0.09095,-0.18328 0.06339,-0.0868 0.165365,-0.17363 0.103353,-0.0868 0.252181,-0.19568 0.107487,-0.0772 0.179145,-0.14745 0.07304,-0.0703 0.117133,-0.14056 0.0441,-0.0703 0.06201,-0.14194 0.01929,-0.073 0.01929,-0.15434 z" />
    </g>
    <g
       transform="translate(-36.519002,13.488229)"
       id="g2613"
       style="font-style:normal;font-variant:normal;font-weight:normal;font-stretch:normal;font-size:2.82222223px;line-height:1.25;font-family:'Yu Gothic UI';-inkscape-font-specification:'Yu Gothic UI';letter-spacing:0px;word-spacing:0px;display:inline;fill:#ffffff;fill-opacity:1;stroke:none;stroke-width:0.26458332"
       aria-label="3">
      <path
         inkscape:connector-curvature="0"
         id="path2611"
         style="stroke-width:0.26458332"
         d="m 60.84452,211.77383 q 0,0.13367 -0.05099,0.24391 -0.04961,0.10887 -0.141938,0.18742 -0.09095,0.0772 -0.219108,0.11988 -0.128158,0.0427 -0.282498,0.0427 -0.282498,0 -0.44924,-0.10748 v -0.24254 q 0.199815,0.1571 0.457508,0.1571 0.103353,0 0.186036,-0.0262 0.08406,-0.0262 0.143316,-0.0758 0.06063,-0.0496 0.09233,-0.11989 0.03307,-0.0703 0.03307,-0.15847 0,-0.38723 -0.551215,-0.38723 h -0.163987 v -0.19155 h 0.155718 q 0.487826,0 0.487826,-0.3638 0,-0.33624 -0.37207,-0.33624 -0.209462,0 -0.392741,0.14056 v -0.21911 q 0.188791,-0.113 0.44924,-0.113 0.124024,0 0.22462,0.0344 0.100597,0.0345 0.172255,0.0965 0.07166,0.062 0.110243,0.14883 0.03996,0.0868 0.03996,0.19154 0,0.38999 -0.394119,0.50161 v 0.006 q 0.100597,0.011 0.186036,0.0496 0.08544,0.0372 0.14745,0.0978 0.06201,0.0606 0.09646,0.14332 0.03583,0.0813 0.03583,0.18052 z" />
    </g>
    <g
       transform="translate(-44.437211,24.618154)"
       id="g2617"
       style="font-style:normal;font-variant:normal;font-weight:normal;font-stretch:normal;font-size:2.82222223px;line-height:1.25;font-family:'Yu Gothic UI';-inkscape-font-specification:'Yu Gothic UI';letter-spacing:0px;word-spacing:0px;display:inline;fill:#ffffff;fill-opacity:1;stroke:none;stroke-width:0.26458332"
       aria-label="4">
      <path
         inkscape:connector-curvature="0"
         id="path2615"
         style="stroke-width:0.26458332"
         d="m 68.640082,210.35721 v 1.305 h 0.253559 v 0.2067 h -0.253559 v 0.4644 H 68.41684 v -0.4644 h -0.928797 v -0.19568 q 0.129535,-0.14607 0.261827,-0.31143 0.132291,-0.16675 0.252181,-0.33762 0.121267,-0.17088 0.223242,-0.34038 0.103353,-0.17088 0.173633,-0.32659 z m -0.897102,1.305 h 0.67386 v -0.96738 q -0.103353,0.18052 -0.195681,0.32246 -0.09233,0.14193 -0.176389,0.25769 -0.08268,0.11575 -0.158474,0.20946 -0.07579,0.0937 -0.143316,0.17777 z" />
    </g>
    <g
       id="g2621"
       style="font-style:normal;font-variant:normal;font-weight:normal;font-stretch:normal;font-size:2.82222223px;line-height:1.25;font-family:'Yu Gothic UI';-inkscape-font-specification:'Yu Gothic UI';letter-spacing:0px;word-spacing:0px;display:inline;fill:#ffffff;fill-opacity:1;stroke:none;stroke-width:0.26458332"
       aria-label="6"
       transform="translate(-59.576963,46.875709)">
      <path
         inkscape:connector-curvature="0"
         id="path2619"
         style="stroke-width:0.26458332"
         d="m 83.958289,211.67322 q 0,0.1447 -0.04685,0.26597 -0.04685,0.12126 -0.129535,0.20946 -0.08268,0.0882 -0.19706,0.1378 -0.114377,0.0482 -0.248047,0.0482 -0.148828,0 -0.267339,-0.062 -0.117133,-0.062 -0.199816,-0.17777 -0.0813,-0.11713 -0.124023,-0.28525 -0.04272,-0.16812 -0.04272,-0.37896 0,-0.25769 0.0565,-0.46716 0.05788,-0.21083 0.162609,-0.35966 0.106109,-0.15021 0.254937,-0.23151 0.148828,-0.0813 0.332107,-0.0813 0.20395,0 0.327973,0.0565 v 0.2136 q -0.152962,-0.0786 -0.322461,-0.0786 -0.132292,0 -0.2384,0.0593 -0.106109,0.0592 -0.181902,0.16812 -0.07579,0.10748 -0.117133,0.26045 -0.03996,0.15296 -0.03996,0.34037 h 0.0055 q 0.136426,-0.24667 0.450619,-0.24667 0.129535,0 0.232888,0.0441 0.104731,0.0441 0.177767,0.1254 0.07441,0.0799 0.114377,0.19155 0.03996,0.11162 0.03996,0.24804 z m -0.23151,0.0289 q 0,-0.10335 -0.02618,-0.18603 -0.02618,-0.0827 -0.07579,-0.14056 -0.04823,-0.0579 -0.119889,-0.0882 -0.07166,-0.0317 -0.162609,-0.0317 -0.08406,0 -0.155718,0.0317 -0.07166,0.0317 -0.124023,0.0868 -0.05237,0.0537 -0.08268,0.12678 -0.02894,0.0717 -0.02894,0.15296 0,0.10198 0.02894,0.19155 0.02894,0.0882 0.08131,0.15434 0.05236,0.0661 0.124023,0.10473 0.07304,0.0372 0.16123,0.0372 0.08544,0 0.155719,-0.0317 0.07028,-0.0331 0.119889,-0.0909 0.04961,-0.0579 0.07717,-0.1378 0.02756,-0.0813 0.02756,-0.17915 z" />
    </g>
    <g
       id="g2625"
       style="font-style:normal;font-variant:normal;font-weight:normal;font-stretch:normal;font-size:2.82222223px;line-height:1.25;font-family:'Yu Gothic UI';-inkscape-font-specification:'Yu Gothic UI';letter-spacing:0px;word-spacing:0px;display:inline;fill:#ffffff;fill-opacity:1;stroke:none;stroke-width:0.26458332"
       aria-label="7"
       transform="translate(-67.513777,57.939164)">
      <path
         inkscape:connector-curvature="0"
         id="path2623"
         style="stroke-width:0.26458332"
         d="m 91.895793,210.48812 q -0.04547,0.0785 -0.110243,0.19568 -0.06339,0.11713 -0.135047,0.26321 -0.07166,0.14607 -0.146072,0.31419 -0.07441,0.16812 -0.139182,0.34726 -0.06477,0.17915 -0.114377,0.36381 -0.04823,0.18328 -0.07028,0.36104 h -0.242535 q 0.02481,-0.17639 0.07579,-0.35966 0.05237,-0.18466 0.117133,-0.36105 0.06615,-0.17777 0.139182,-0.34175 0.07304,-0.16399 0.141938,-0.30179 0.0689,-0.13781 0.125402,-0.24254 0.05788,-0.10611 0.09233,-0.16536 h -0.990809 v -0.20395 h 1.25677 z" />
    </g>
    <g
       id="g2629"
       style="font-style:normal;font-variant:normal;font-weight:normal;font-stretch:normal;font-size:2.82222223px;line-height:1.25;font-family:'Yu Gothic UI';-inkscape-font-specification:'Yu Gothic UI';letter-spacing:0px;word-spacing:0px;display:inline;fill:#ffffff;fill-opacity:1;stroke:none;stroke-width:0.26458332"
       aria-label="8"
       transform="translate(-75.448575,69.102194)">
      <path
         inkscape:connector-curvature="0"
         id="path2627"
         style="stroke-width:0.26458332"
         d="m 98.561432,211.74906 q 0,-0.0786 0.02481,-0.1571 0.02481,-0.0799 0.07028,-0.14883 0.04685,-0.0689 0.114377,-0.1254 0.0689,-0.0565 0.155719,-0.0896 -0.128158,-0.0717 -0.20395,-0.18328 -0.07579,-0.113 -0.07579,-0.24942 0,-0.10887 0.04134,-0.2012 0.04272,-0.0923 0.117133,-0.15985 0.07441,-0.0675 0.176389,-0.10473 0.101975,-0.0386 0.220486,-0.0386 0.119893,0 0.221873,0.0386 0.10197,0.0386 0.17638,0.10611 0.0744,0.0675 0.11576,0.15985 0.0413,0.0923 0.0413,0.19982 0,0.13642 -0.07579,0.24942 -0.0758,0.11162 -0.2012,0.18328 0.0854,0.0331 0.15297,0.0896 0.0675,0.0565 0.113,0.1254 0.04689,0.0689 0.07169,0.14883 0.0248,0.0786 0.0248,0.1571 0,0.12953 -0.04689,0.23702 -0.04689,0.10749 -0.132288,0.18466 -0.0841,0.0758 -0.20257,0.11851 -0.11713,0.0427 -0.259073,0.0427 -0.14056,0 -0.257693,-0.0427 -0.117133,-0.0427 -0.202572,-0.11851 -0.08544,-0.0772 -0.133669,-0.18466 -0.04685,-0.10749 -0.04685,-0.23702 z m 0.245291,-0.0193 q 0,0.0923 0.02756,0.16674 0.02894,0.0744 0.07993,0.12678 0.05237,0.0524 0.125402,0.0813 0.07441,0.0276 0.163986,0.0276 0.08682,0 0.159848,-0.0289 0.073,-0.0289 0.1254,-0.0813 0.0537,-0.0524 0.0827,-0.12678 0.0303,-0.0744 0.0303,-0.16536 0,-0.0827 -0.0289,-0.15435 -0.0276,-0.073 -0.0799,-0.12815 -0.0524,-0.0551 -0.1254,-0.0868 -0.073,-0.0317 -0.163988,-0.0317 -0.08544,0 -0.158474,0.0303 -0.07166,0.0289 -0.125402,0.0827 -0.05237,0.0524 -0.08268,0.12677 -0.03032,0.073 -0.03032,0.16124 z m 0.07028,-0.9164 q 0,0.0703 0.02481,0.13091 0.02618,0.0593 0.07028,0.10473 0.04547,0.0441 0.104731,0.0703 0.05926,0.0248 0.126779,0.0248 0.06752,0 0.126776,-0.0262 0.0606,-0.0262 0.10473,-0.0703 0.0441,-0.0455 0.0703,-0.10473 0.0262,-0.0606 0.0262,-0.12954 0,-0.0717 -0.0262,-0.13229 -0.0248,-0.0606 -0.0689,-0.10473 -0.0441,-0.0441 -0.10473,-0.0689 -0.0593,-0.0262 -0.128156,-0.0262 -0.07304,0 -0.133669,0.0262 -0.05926,0.0262 -0.103353,0.0717 -0.04272,0.0441 -0.06615,0.10473 -0.02343,0.0606 -0.02343,0.12954 z" />
    </g>
    <g
       transform="translate(-77.081734,2.3978224)"
       id="g2635"
       style="font-style:normal;font-variant:normal;font-weight:normal;font-stretch:normal;font-size:2.82222223px;line-height:1.25;font-family:'Yu Gothic UI';-inkscape-font-specification:'Yu Gothic UI';letter-spacing:0px;word-spacing:0px;display:inline;fill:#ffffff;fill-opacity:1;stroke:none;stroke-width:0.26458332"
       aria-label="10">
      <path
         inkscape:connector-curvature="0"
         id="path2631"
         style="stroke-width:0.26458332"
         d="m 116.09145,212.33331 h -0.226 v -1.70739 q -0.0262,0.0262 -0.0772,0.0606 -0.0496,0.0331 -0.113,0.0661 -0.062,0.0331 -0.13229,0.062 -0.0689,0.0289 -0.13505,0.0455 v -0.22875 q 0.0744,-0.0207 0.1571,-0.0551 0.0841,-0.0358 0.16399,-0.0785 0.0813,-0.0441 0.15296,-0.0909 0.0717,-0.0482 0.12402,-0.0937 h 0.0854 z" />
      <path
         inkscape:connector-curvature="0"
         id="path2633"
         style="stroke-width:0.26458332"
         d="m 118.0207,211.33699 q 0,0.24805 -0.0455,0.4396 -0.0441,0.19154 -0.12954,0.32383 -0.0841,0.13092 -0.20808,0.19982 -0.12265,0.0675 -0.27974,0.0675 -0.14883,0 -0.26596,-0.0648 -0.11576,-0.0661 -0.19569,-0.19155 -0.0799,-0.1254 -0.12126,-0.3073 -0.0413,-0.18328 -0.0413,-0.41893 0,-0.25907 0.0427,-0.45751 0.0441,-0.19843 0.12816,-0.3321 0.0841,-0.13505 0.20809,-0.20257 0.1254,-0.0689 0.28663,-0.0689 0.62149,0 0.62149,1.01286 z m -0.23151,0.0221 q 0,-0.84336 -0.40101,-0.84336 -0.42305,0 -0.42305,0.85852 0,0.80064 0.41479,0.80064 0.40927,0 0.40927,-0.8158 z" />
    </g>
    <g
       transform="translate(-84.815284,13.510904)"
       id="g2641"
       style="font-style:normal;font-variant:normal;font-weight:normal;font-stretch:normal;font-size:2.82222223px;line-height:1.25;font-family:'Yu Gothic UI';-inkscape-font-specification:'Yu Gothic UI';letter-spacing:0px;word-spacing:0px;display:inline;fill:#ffffff;fill-opacity:1;stroke:none;stroke-width:0.26458332"
       aria-label="11">
      <path
         inkscape:connector-curvature="0"
         id="path2637"
         style="stroke-width:0.26458332"
         d="m 124.02895,212.33331 h -0.226 v -1.70739 q -0.0262,0.0262 -0.0772,0.0606 -0.0496,0.0331 -0.113,0.0661 -0.062,0.0331 -0.13229,0.062 -0.0689,0.0289 -0.13505,0.0455 v -0.22875 q 0.0744,-0.0207 0.1571,-0.0551 0.0841,-0.0358 0.16399,-0.0785 0.0813,-0.0441 0.15296,-0.0909 0.0717,-0.0482 0.12402,-0.0937 h 0.0854 z" />
      <path
         inkscape:connector-curvature="0"
         id="path2639"
         style="stroke-width:0.26458332"
         d="m 125.5503,212.33331 h -0.22599 v -1.70739 q -0.0262,0.0262 -0.0772,0.0606 -0.0496,0.0331 -0.113,0.0661 -0.062,0.0331 -0.1323,0.062 -0.0689,0.0289 -0.13504,0.0455 v -0.22875 q 0.0744,-0.0207 0.15709,-0.0551 0.0841,-0.0358 0.16399,-0.0785 0.0813,-0.0441 0.15296,-0.0909 0.0717,-0.0482 0.12403,-0.0937 h 0.0854 z" />
    </g>
    <g
       transform="translate(-92.938799,24.640174)"
       id="g2647"
       style="font-style:normal;font-variant:normal;font-weight:normal;font-stretch:normal;font-size:2.82222223px;line-height:1.25;font-family:'Yu Gothic UI';-inkscape-font-specification:'Yu Gothic UI';letter-spacing:0px;word-spacing:0px;display:inline;fill:#ffffff;fill-opacity:1;stroke:none;stroke-width:0.26458332"
       aria-label="12">
      <path
         inkscape:connector-curvature="0"
         id="path2643"
         style="stroke-width:0.26458332"
         d="m 131.96645,212.33331 h -0.226 v -1.70739 q -0.0262,0.0262 -0.0772,0.0606 -0.0496,0.0331 -0.113,0.0661 -0.062,0.0331 -0.13229,0.062 -0.0689,0.0289 -0.13505,0.0455 v -0.22875 q 0.0744,-0.0207 0.1571,-0.0551 0.0841,-0.0358 0.16399,-0.0785 0.0813,-0.0441 0.15296,-0.0909 0.0717,-0.0482 0.12402,-0.0937 h 0.0854 z" />
      <path
         inkscape:connector-curvature="0"
         id="path2645"
         style="stroke-width:0.26458332"
         d="m 133.55395,210.87535 q 0,-0.0909 -0.0289,-0.15848 -0.0276,-0.0675 -0.0772,-0.11162 -0.0482,-0.0455 -0.11438,-0.0675 -0.0661,-0.0221 -0.14331,-0.0221 -0.0661,0 -0.12954,0.0179 -0.0634,0.0179 -0.12402,0.0496 -0.0593,0.0317 -0.11576,0.0758 -0.0551,0.0441 -0.10335,0.0978 v -0.24254 q 0.0951,-0.0923 0.21222,-0.14056 0.11851,-0.0496 0.28801,-0.0496 0.12127,0 0.22462,0.0358 0.10335,0.0344 0.17914,0.10198 0.0758,0.0675 0.11851,0.16674 0.0441,0.0992 0.0441,0.22738 0,0.11713 -0.0276,0.21221 -0.0262,0.0951 -0.0813,0.17915 -0.0538,0.0841 -0.13643,0.16123 -0.0827,0.0772 -0.1943,0.1571 -0.13918,0.0992 -0.23013,0.16949 -0.0896,0.0703 -0.14332,0.1323 -0.0524,0.0606 -0.0744,0.12264 -0.0207,0.0606 -0.0207,0.14056 h 0.98392 v 0.20257 h -1.21956 v -0.0978 q 0,-0.12678 0.0276,-0.22324 0.0276,-0.0965 0.0909,-0.18328 0.0634,-0.0868 0.16537,-0.17363 0.10335,-0.0868 0.25218,-0.19568 0.10748,-0.0772 0.17914,-0.14745 0.073,-0.0703 0.11714,-0.14056 0.0441,-0.0703 0.062,-0.14194 0.0193,-0.073 0.0193,-0.15434 z" />
    </g>
    <g
       transform="translate(-108.84136,46.865314)"
       id="g2653"
       style="font-style:normal;font-variant:normal;font-weight:normal;font-stretch:normal;font-size:2.82222223px;line-height:1.25;font-family:'Yu Gothic UI';-inkscape-font-specification:'Yu Gothic UI';letter-spacing:0px;word-spacing:0px;display:inline;fill:#ffffff;fill-opacity:1;stroke:none;stroke-width:0.26458332"
       aria-label="14">
      <path
         inkscape:connector-curvature="0"
         id="path2649"
         style="stroke-width:0.26458332"
         d="m 147.84145,212.33331 h -0.226 v -1.70739 q -0.0262,0.0262 -0.0772,0.0606 -0.0496,0.0331 -0.113,0.0661 -0.062,0.0331 -0.13229,0.062 -0.0689,0.0289 -0.13505,0.0455 v -0.22875 q 0.0744,-0.0207 0.1571,-0.0551 0.0841,-0.0358 0.16399,-0.0785 0.0813,-0.0441 0.15296,-0.0909 0.0717,-0.0482 0.12402,-0.0937 h 0.0854 z" />
      <path
         inkscape:connector-curvature="0"
         id="path2651"
         style="stroke-width:0.26458332"
         d="m 149.53644,210.35721 v 1.305 H 149.79 v 0.2067 h -0.25356 v 0.4644 h -0.22325 v -0.4644 h -0.92879 v -0.19568 q 0.12953,-0.14607 0.26182,-0.31143 0.1323,-0.16675 0.25218,-0.33762 0.12127,-0.17088 0.22325,-0.34038 0.10335,-0.17088 0.17363,-0.32659 z m -0.89711,1.305 h 0.67386 v -0.96738 q -0.10335,0.18052 -0.19568,0.32246 -0.0923,0.14193 -0.17639,0.25769 -0.0827,0.11575 -0.15847,0.20946 -0.0758,0.0937 -0.14332,0.17777 z" />
    </g>
    <g
       transform="translate(-116.73407,57.943944)"
       id="g2659"
       style="font-style:normal;font-variant:normal;font-weight:normal;font-stretch:normal;font-size:2.82222223px;line-height:1.25;font-family:'Yu Gothic UI';-inkscape-font-specification:'Yu Gothic UI';letter-spacing:0px;word-spacing:0px;display:inline;fill:#ffffff;fill-opacity:1;stroke:none;stroke-width:0.26458332"
       aria-label="15">
      <path
         inkscape:connector-curvature="0"
         id="path2655"
         style="stroke-width:0.26458332"
         d="m 155.77895,212.33331 h -0.226 v -1.70739 q -0.0262,0.0262 -0.0772,0.0606 -0.0496,0.0331 -0.113,0.0661 -0.062,0.0331 -0.13229,0.062 -0.0689,0.0289 -0.13505,0.0455 v -0.22875 q 0.0744,-0.0207 0.1571,-0.0551 0.0841,-0.0358 0.16399,-0.0785 0.0813,-0.0441 0.15296,-0.0909 0.0717,-0.0482 0.12402,-0.0937 h 0.0854 z" />
      <path
         inkscape:connector-curvature="0"
         id="path2657"
         style="stroke-width:0.26458332"
         d="m 157.63792,211.72973 q 0,0.1447 -0.0496,0.26183 -0.0496,0.11713 -0.14193,0.20119 -0.0909,0.0841 -0.22049,0.12954 -0.12954,0.0455 -0.28801,0.0455 -0.27561,0 -0.40928,-0.0827 v -0.23978 q 0.2012,0.12954 0.41204,0.12954 0.10748,0 0.19292,-0.0317 0.0868,-0.0317 0.14745,-0.0882 0.0606,-0.0565 0.0923,-0.13643 0.0331,-0.0799 0.0331,-0.17501 0,-0.19292 -0.12953,-0.30179 -0.12954,-0.11024 -0.37621,-0.11024 -0.04,0 -0.0841,0.001 -0.0441,0.001 -0.0882,0.004 -0.0441,0.001 -0.0868,0.004 -0.0413,0.003 -0.0758,0.007 l 0.0675,-0.99081 h 0.91364 v 0.20395 h -0.71796 l -0.04,0.58015 q 0.0441,-0.003 0.0937,-0.004 0.0496,-0.003 0.0882,-0.003 0.1571,0 0.28112,0.0413 0.12403,0.0413 0.20946,0.11851 0.0868,0.0758 0.13092,0.18742 0.0455,0.11024 0.0455,0.24804 z" />
    </g>
    <g
       transform="translate(-124.70832,69.073244)"
       id="g2665"
       style="font-style:normal;font-variant:normal;font-weight:normal;font-stretch:normal;font-size:2.82222223px;line-height:1.25;font-family:'Yu Gothic UI';-inkscape-font-specification:'Yu Gothic UI';letter-spacing:0px;word-spacing:0px;display:inline;fill:#ffffff;fill-opacity:1;stroke:none;stroke-width:0.26458332"
       aria-label="16">
      <path
         inkscape:connector-curvature="0"
         id="path2661"
         style="stroke-width:0.26458332"
         d="m 163.71645,212.33331 h -0.226 v -1.70739 q -0.0262,0.0262 -0.0772,0.0606 -0.0496,0.0331 -0.113,0.0661 -0.062,0.0331 -0.13229,0.062 -0.0689,0.0289 -0.13505,0.0455 v -0.22875 q 0.0744,-0.0207 0.1571,-0.0551 0.0841,-0.0358 0.16399,-0.0785 0.0813,-0.0441 0.15296,-0.0909 0.0717,-0.0482 0.12402,-0.0937 h 0.0854 z" />
      <path
         inkscape:connector-curvature="0"
         id="path2663"
         style="stroke-width:0.26458332"
         d="m 165.64846,211.70631 q 0,0.14469 -0.0469,0.26596 -0.0469,0.12126 -0.12954,0.20946 -0.0827,0.0882 -0.19706,0.1378 -0.11438,0.0482 -0.24805,0.0482 -0.14882,0 -0.26734,-0.062 -0.11713,-0.062 -0.19981,-0.17776 -0.0813,-0.11714 -0.12402,-0.28526 -0.0427,-0.16812 -0.0427,-0.37896 0,-0.25769 0.0565,-0.46715 0.0579,-0.21084 0.1626,-0.35967 0.10611,-0.15021 0.25494,-0.23151 0.14883,-0.0813 0.33211,-0.0813 0.20395,0 0.32797,0.0565 v 0.2136 q -0.15296,-0.0786 -0.32246,-0.0786 -0.13229,0 -0.2384,0.0593 -0.10611,0.0592 -0.1819,0.16812 -0.0758,0.10748 -0.11713,0.26045 -0.04,0.15296 -0.04,0.34037 h 0.006 q 0.13642,-0.24667 0.45061,-0.24667 0.12954,0 0.23289,0.0441 0.10473,0.0441 0.17777,0.1254 0.0744,0.0799 0.11438,0.19155 0.04,0.11162 0.04,0.24805 z m -0.23151,0.0289 q 0,-0.10335 -0.0262,-0.18603 -0.0262,-0.0827 -0.0758,-0.14056 -0.0482,-0.0579 -0.11989,-0.0882 -0.0716,-0.0317 -0.1626,-0.0317 -0.0841,0 -0.15572,0.0317 -0.0717,0.0317 -0.12403,0.0868 -0.0524,0.0537 -0.0827,0.12678 -0.0289,0.0717 -0.0289,0.15296 0,0.10198 0.0289,0.19155 0.0289,0.0882 0.0813,0.15434 0.0524,0.0661 0.12402,0.10473 0.073,0.0372 0.16123,0.0372 0.0854,0 0.15572,-0.0317 0.0703,-0.0331 0.11989,-0.0909 0.0496,-0.0579 0.0772,-0.1378 0.0276,-0.0813 0.0276,-0.17915 z" />
    </g>
  </g>
  <g
     inkscape:groupmode="layer"
     id="layer2"
     inkscape:label="Grid8"
     style="display:none"
     sodipodi:insensitive="true">
    <path
       style="fill:none;stroke:#ffffff;stroke-width:0.05;stroke-linecap:butt;stroke-linejoin:miter;stroke-miterlimit:4;stroke-dasharray:none;stroke-opacity:1"
       d="m 15.874997,0 -0.025,100.54167"
       id="path879"
       inkscape:connector-curvature="0"
       sodipodi:nodetypes="cc" />
    <path
       sodipodi:nodetypes="cc"
       inkscape:connector-curvature="0"
       id="path881"
       d="m 7.9124979,-1e-5 -3e-6,100.54167"
       style="fill:none;stroke:#ffffff;stroke-width:0.05;stroke-linecap:butt;stroke-linejoin:miter;stroke-miterlimit:4;stroke-dasharray:none;stroke-opacity:1" />
    <path
       style="fill:none;stroke:#ffffff;stroke-width:0.05;stroke-linecap:butt;stroke-linejoin:miter;stroke-miterlimit:4;stroke-dasharray:none;stroke-opacity:1"
       d="m 3.9437499,0 -4e-6,100.54167"
       id="path890"
       inkscape:connector-curvature="0"
       sodipodi:nodetypes="cc" />
    <path
       sodipodi:nodetypes="cc"
       inkscape:connector-curvature="0"
       id="path895"
       d="m 11.881251,0 -4e-6,100.54167"
       style="fill:none;stroke:#ffffff;stroke-width:0.05;stroke-linecap:butt;stroke-linejoin:miter;stroke-miterlimit:4;stroke-dasharray:none;stroke-opacity:1" />
    <circle
       style="display:inline;opacity:1;fill:none;fill-opacity:1;stroke:#ffffff;stroke-width:0.05;stroke-linecap:square;stroke-linejoin:round;stroke-miterlimit:4;stroke-dasharray:none;stroke-dashoffset:0;stroke-opacity:1;paint-order:markers fill stroke"
       id="path1041"
       cx="7.9097619"
       cy="22.48922"
       r="4.0999999" />
    <circle
       r="4.0999999"
       cy="44.720116"
       cx="7.9097619"
       id="circle1054"
       style="display:inline;opacity:1;fill:none;fill-opacity:1;stroke:#ffffff;stroke-width:0.05;stroke-linecap:square;stroke-linejoin:round;stroke-miterlimit:4;stroke-dasharray:none;stroke-dashoffset:0;stroke-opacity:1;paint-order:markers fill stroke" />
    <circle
       style="display:inline;opacity:1;fill:none;fill-opacity:1;stroke:#ffffff;stroke-width:0.05;stroke-linecap:square;stroke-linejoin:round;stroke-miterlimit:4;stroke-dasharray:none;stroke-dashoffset:0;stroke-opacity:1;paint-order:markers fill stroke"
       id="circle1056"
       cx="7.9097619"
       cy="33.607586"
       r="4.0999999" />
    <circle
       r="4.0999999"
       cy="66.939285"
       cx="7.9097619"
       id="circle1058"
       style="display:inline;opacity:1;fill:none;fill-opacity:1;stroke:#ffffff;stroke-width:0.05;stroke-linecap:square;stroke-linejoin:round;stroke-miterlimit:4;stroke-dasharray:none;stroke-dashoffset:0;stroke-opacity:1;paint-order:markers fill stroke" />
    <circle
       style="display:inline;opacity:1;fill:none;fill-opacity:1;stroke:#ffffff;stroke-width:0.05;stroke-linecap:square;stroke-linejoin:round;stroke-miterlimit:4;stroke-dasharray:none;stroke-dashoffset:0;stroke-opacity:1;paint-order:markers fill stroke"
       id="circle1060"
       cx="7.9097619"
       cy="55.832626"
       r="4.0999999" />
    <circle
       r="4.0999999"
       cy="78.05764"
       cx="7.9097619"
       id="circle1064"
       style="display:inline;opacity:1;fill:none;fill-opacity:1;stroke:#ffffff;stroke-width:0.05;stroke-linecap:square;stroke-linejoin:round;stroke-miterlimit:4;stroke-dasharray:none;stroke-dashoffset:0;stroke-opacity:1;paint-order:markers fill stroke" />
    <circle
       r="4.0999999"
       cy="11.38256"
       cx="7.9097619"
       id="circle1052"
       style="display:inline;opacity:1;fill:none;fill-opacity:1;stroke:#ffffff;stroke-width:0.05;stroke-linecap:square;stroke-linejoin:round;stroke-miterlimit:4;stroke-dasharray:none;stroke-dashoffset:0;stroke-opacity:1;paint-order:markers fill stroke" />
    <circle
       style="display:inline;opacity:1;fill:none;fill-opacity:1;stroke:#ffffff;stroke-width:0.05172414;stroke-linecap:square;stroke-linejoin:round;stroke-miterlimit:4;stroke-dasharray:none;stroke-dashoffset:0;stroke-opacity:1;paint-order:markers fill stroke"
       id="circle924"
       cx="7.911077"
       cy="11.377255"
       r="5.4741378" />
    <circle
       r="5.4741378"
       cy="22.490791"
       cx="7.911077"
       id="circle955"
       style="display:inline;opacity:1;fill:none;fill-opacity:1;stroke:#ffffff;stroke-width:0.05172414;stroke-linecap:square;stroke-linejoin:round;stroke-miterlimit:4;stroke-dasharray:none;stroke-dashoffset:0;stroke-opacity:1;paint-order:markers fill stroke" />
    <circle
       style="display:inline;opacity:1;fill:none;fill-opacity:1;stroke:#ffffff;stroke-width:0.05172414;stroke-linecap:square;stroke-linejoin:round;stroke-miterlimit:4;stroke-dasharray:none;stroke-dashoffset:0;stroke-opacity:1;paint-order:markers fill stroke"
       id="circle957"
       cx="7.911077"
       cy="33.603302"
       r="5.4741378" />
    <circle
       r="5.4741378"
       cy="44.715813"
       cx="7.911077"
       id="circle959"
       style="display:inline;opacity:1;fill:none;fill-opacity:1;stroke:#ffffff;stroke-width:0.05172414;stroke-linecap:square;stroke-linejoin:round;stroke-miterlimit:4;stroke-dasharray:none;stroke-dashoffset:0;stroke-opacity:1;paint-order:markers fill stroke" />
    <circle
       style="display:inline;opacity:1;fill:none;fill-opacity:1;stroke:#ffffff;stroke-width:0.05172414;stroke-linecap:square;stroke-linejoin:round;stroke-miterlimit:4;stroke-dasharray:none;stroke-dashoffset:0;stroke-opacity:1;paint-order:markers fill stroke"
       id="circle961"
       cx="7.911077"
       cy="55.828323"
       r="5.4741378" />
    <circle
       r="5.4741378"
       cy="66.940834"
       cx="7.911077"
       id="circle963"
       style="display:inline;opacity:1;fill:none;fill-opacity:1;stroke:#ffffff;stroke-width:0.05172414;stroke-linecap:square;stroke-linejoin:round;stroke-miterlimit:4;stroke-dasharray:none;stroke-dashoffset:0;stroke-opacity:1;paint-order:markers fill stroke" />
    <circle
       style="display:inline;opacity:1;fill:none;fill-opacity:1;stroke:#ffffff;stroke-width:0.05172414;stroke-linecap:square;stroke-linejoin:round;stroke-miterlimit:4;stroke-dasharray:none;stroke-dashoffset:0;stroke-opacity:1;paint-order:markers fill stroke"
       id="circle965"
       cx="7.911077"
       cy="78.053345"
       r="5.4741378" />
    <path
       sodipodi:nodetypes="cc"
       inkscape:connector-curvature="0"
       id="path1370"
       d="m 31.750007,0 -0.025,100.54167"
       style="fill:none;stroke:#ffffff;stroke-width:0.05;stroke-linecap:butt;stroke-linejoin:miter;stroke-miterlimit:4;stroke-dasharray:none;stroke-opacity:1" />
    <path
       style="fill:none;stroke:#ffffff;stroke-width:0.05;stroke-linecap:butt;stroke-linejoin:miter;stroke-miterlimit:4;stroke-dasharray:none;stroke-opacity:1"
       d="m 23.787506,-1e-5 -3e-6,100.54167"
       id="path1372"
       inkscape:connector-curvature="0"
       sodipodi:nodetypes="cc" />
    <path
       sodipodi:nodetypes="cc"
       inkscape:connector-curvature="0"
       id="path1374"
       d="m 19.818756,0 -4e-6,100.54167"
       style="fill:none;stroke:#ffffff;stroke-width:0.05;stroke-linecap:butt;stroke-linejoin:miter;stroke-miterlimit:4;stroke-dasharray:none;stroke-opacity:1" />
    <path
       style="fill:none;stroke:#ffffff;stroke-width:0.05;stroke-linecap:butt;stroke-linejoin:miter;stroke-miterlimit:4;stroke-dasharray:none;stroke-opacity:1"
       d="m 27.75626,0 -4e-6,100.54167"
       id="path1376"
       inkscape:connector-curvature="0"
       sodipodi:nodetypes="cc" />
    <circle
       r="4.0999999"
       cy="22.48922"
       cx="23.784763"
       id="circle1394"
       style="display:inline;opacity:1;fill:none;fill-opacity:1;stroke:#ffffff;stroke-width:0.05;stroke-linecap:square;stroke-linejoin:round;stroke-miterlimit:4;stroke-dasharray:none;stroke-dashoffset:0;stroke-opacity:1;paint-order:markers fill stroke" />
    <circle
       style="display:inline;opacity:1;fill:none;fill-opacity:1;stroke:#ffffff;stroke-width:0.05;stroke-linecap:square;stroke-linejoin:round;stroke-miterlimit:4;stroke-dasharray:none;stroke-dashoffset:0;stroke-opacity:1;paint-order:markers fill stroke"
       id="circle1396"
       cx="23.784763"
       cy="44.720116"
       r="4.0999999" />
    <circle
       r="4.0999999"
       cy="33.607586"
       cx="23.784763"
       id="circle1398"
       style="display:inline;opacity:1;fill:none;fill-opacity:1;stroke:#ffffff;stroke-width:0.05;stroke-linecap:square;stroke-linejoin:round;stroke-miterlimit:4;stroke-dasharray:none;stroke-dashoffset:0;stroke-opacity:1;paint-order:markers fill stroke" />
    <circle
       style="display:inline;opacity:1;fill:none;fill-opacity:1;stroke:#ffffff;stroke-width:0.05;stroke-linecap:square;stroke-linejoin:round;stroke-miterlimit:4;stroke-dasharray:none;stroke-dashoffset:0;stroke-opacity:1;paint-order:markers fill stroke"
       id="circle1400"
       cx="23.784763"
       cy="66.939285"
       r="4.0999999" />
    <circle
       r="4.0999999"
       cy="55.832626"
       cx="23.784763"
       id="circle1402"
       style="display:inline;opacity:1;fill:none;fill-opacity:1;stroke:#ffffff;stroke-width:0.05;stroke-linecap:square;stroke-linejoin:round;stroke-miterlimit:4;stroke-dasharray:none;stroke-dashoffset:0;stroke-opacity:1;paint-order:markers fill stroke" />
    <circle
       style="display:inline;opacity:1;fill:none;fill-opacity:1;stroke:#ffffff;stroke-width:0.05;stroke-linecap:square;stroke-linejoin:round;stroke-miterlimit:4;stroke-dasharray:none;stroke-dashoffset:0;stroke-opacity:1;paint-order:markers fill stroke"
       id="circle1406"
       cx="23.784763"
       cy="78.05764"
       r="4.0999999" />
    <circle
       style="display:inline;opacity:1;fill:none;fill-opacity:1;stroke:#ffffff;stroke-width:0.05;stroke-linecap:square;stroke-linejoin:round;stroke-miterlimit:4;stroke-dasharray:none;stroke-dashoffset:0;stroke-opacity:1;paint-order:markers fill stroke"
       id="circle1408"
       cx="23.784763"
       cy="11.38256"
       r="4.0999999" />
    <circle
       r="5.4741378"
       cy="11.377255"
       cx="23.786079"
       id="circle1410"
       style="display:inline;opacity:1;fill:none;fill-opacity:1;stroke:#ffffff;stroke-width:0.05172414;stroke-linecap:square;stroke-linejoin:round;stroke-miterlimit:4;stroke-dasharray:none;stroke-dashoffset:0;stroke-opacity:1;paint-order:markers fill stroke" />
    <circle
       style="display:inline;opacity:1;fill:none;fill-opacity:1;stroke:#ffffff;stroke-width:0.05172414;stroke-linecap:square;stroke-linejoin:round;stroke-miterlimit:4;stroke-dasharray:none;stroke-dashoffset:0;stroke-opacity:1;paint-order:markers fill stroke"
       id="circle1412"
       cx="23.786079"
       cy="22.490791"
       r="5.4741378" />
    <circle
       r="5.4741378"
       cy="33.603302"
       cx="23.786079"
       id="circle1414"
       style="display:inline;opacity:1;fill:none;fill-opacity:1;stroke:#ffffff;stroke-width:0.05172414;stroke-linecap:square;stroke-linejoin:round;stroke-miterlimit:4;stroke-dasharray:none;stroke-dashoffset:0;stroke-opacity:1;paint-order:markers fill stroke" />
    <circle
       style="display:inline;opacity:1;fill:none;fill-opacity:1;stroke:#ffffff;stroke-width:0.05172414;stroke-linecap:square;stroke-linejoin:round;stroke-miterlimit:4;stroke-dasharray:none;stroke-dashoffset:0;stroke-opacity:1;paint-order:markers fill stroke"
       id="circle1416"
       cx="23.786079"
       cy="44.715813"
       r="5.4741378" />
    <circle
       r="5.4741378"
       cy="55.828323"
       cx="23.786079"
       id="circle1418"
       style="display:inline;opacity:1;fill:none;fill-opacity:1;stroke:#ffffff;stroke-width:0.05172414;stroke-linecap:square;stroke-linejoin:round;stroke-miterlimit:4;stroke-dasharray:none;stroke-dashoffset:0;stroke-opacity:1;paint-order:markers fill stroke" />
    <circle
       style="display:inline;opacity:1;fill:none;fill-opacity:1;stroke:#ffffff;stroke-width:0.05172414;stroke-linecap:square;stroke-linejoin:round;stroke-miterlimit:4;stroke-dasharray:none;stroke-dashoffset:0;stroke-opacity:1;paint-order:markers fill stroke"
       id="circle1420"
       cx="23.786079"
       cy="66.940834"
       r="5.4741378" />
    <circle
       r="5.4741378"
       cy="78.053345"
       cx="23.786079"
       id="circle1422"
       style="display:inline;opacity:1;fill:none;fill-opacity:1;stroke:#ffffff;stroke-width:0.05172414;stroke-linecap:square;stroke-linejoin:round;stroke-miterlimit:4;stroke-dasharray:none;stroke-dashoffset:0;stroke-opacity:1;paint-order:markers fill stroke" />
    <path
       sodipodi:nodetypes="cc"
       inkscape:connector-curvature="0"
       id="path1596"
       d="m 39.662517,-1e-5 -3e-6,100.54167"
       style="fill:none;stroke:#ffffff;stroke-width:0.05;stroke-linecap:butt;stroke-linejoin:miter;stroke-miterlimit:4;stroke-dasharray:none;stroke-opacity:1" />
    <path
       style="fill:none;stroke:#ffffff;stroke-width:0.05;stroke-linecap:butt;stroke-linejoin:miter;stroke-miterlimit:4;stroke-dasharray:none;stroke-opacity:1"
       d="m 35.693767,0 -4e-6,100.54167"
       id="path1598"
       inkscape:connector-curvature="0"
       sodipodi:nodetypes="cc" />
    <path
       sodipodi:nodetypes="cc"
       inkscape:connector-curvature="0"
       id="path1600"
       d="m 43.631271,0 -4e-6,100.54167"
       style="fill:none;stroke:#ffffff;stroke-width:0.05;stroke-linecap:butt;stroke-linejoin:miter;stroke-miterlimit:4;stroke-dasharray:none;stroke-opacity:1" />
    <circle
       style="display:inline;opacity:1;fill:none;fill-opacity:1;stroke:#ffffff;stroke-width:0.05;stroke-linecap:square;stroke-linejoin:round;stroke-miterlimit:4;stroke-dasharray:none;stroke-dashoffset:0;stroke-opacity:1;paint-order:markers fill stroke"
       id="circle1618"
       cx="39.659779"
       cy="22.48922"
       r="4.0999999" />
    <circle
       r="4.0999999"
       cy="44.720116"
       cx="39.659779"
       id="circle1620"
       style="display:inline;opacity:1;fill:none;fill-opacity:1;stroke:#ffffff;stroke-width:0.05;stroke-linecap:square;stroke-linejoin:round;stroke-miterlimit:4;stroke-dasharray:none;stroke-dashoffset:0;stroke-opacity:1;paint-order:markers fill stroke" />
    <circle
       style="display:inline;opacity:1;fill:none;fill-opacity:1;stroke:#ffffff;stroke-width:0.05;stroke-linecap:square;stroke-linejoin:round;stroke-miterlimit:4;stroke-dasharray:none;stroke-dashoffset:0;stroke-opacity:1;paint-order:markers fill stroke"
       id="circle1622"
       cx="39.659779"
       cy="33.607586"
       r="4.0999999" />
    <circle
       r="4.0999999"
       cy="66.939285"
       cx="39.659779"
       id="circle1624"
       style="display:inline;opacity:1;fill:none;fill-opacity:1;stroke:#ffffff;stroke-width:0.05;stroke-linecap:square;stroke-linejoin:round;stroke-miterlimit:4;stroke-dasharray:none;stroke-dashoffset:0;stroke-opacity:1;paint-order:markers fill stroke" />
    <circle
       style="display:inline;opacity:1;fill:none;fill-opacity:1;stroke:#ffffff;stroke-width:0.05;stroke-linecap:square;stroke-linejoin:round;stroke-miterlimit:4;stroke-dasharray:none;stroke-dashoffset:0;stroke-opacity:1;paint-order:markers fill stroke"
       id="circle1626"
       cx="39.659779"
       cy="55.832626"
       r="4.0999999" />
    <circle
       r="4.0999999"
       cy="78.05764"
       cx="39.659779"
       id="circle1630"
       style="display:inline;opacity:1;fill:none;fill-opacity:1;stroke:#ffffff;stroke-width:0.05;stroke-linecap:square;stroke-linejoin:round;stroke-miterlimit:4;stroke-dasharray:none;stroke-dashoffset:0;stroke-opacity:1;paint-order:markers fill stroke" />
    <circle
       r="4.0999999"
       cy="11.38256"
       cx="39.659779"
       id="circle1632"
       style="display:inline;opacity:1;fill:none;fill-opacity:1;stroke:#ffffff;stroke-width:0.05;stroke-linecap:square;stroke-linejoin:round;stroke-miterlimit:4;stroke-dasharray:none;stroke-dashoffset:0;stroke-opacity:1;paint-order:markers fill stroke" />
    <circle
       style="display:inline;opacity:1;fill:none;fill-opacity:1;stroke:#ffffff;stroke-width:0.05172414;stroke-linecap:square;stroke-linejoin:round;stroke-miterlimit:4;stroke-dasharray:none;stroke-dashoffset:0;stroke-opacity:1;paint-order:markers fill stroke"
       id="circle1634"
       cx="39.661095"
       cy="11.377255"
       r="5.4741378" />
    <circle
       r="5.4741378"
       cy="22.490791"
       cx="39.661095"
       id="circle1636"
       style="display:inline;opacity:1;fill:none;fill-opacity:1;stroke:#ffffff;stroke-width:0.05172414;stroke-linecap:square;stroke-linejoin:round;stroke-miterlimit:4;stroke-dasharray:none;stroke-dashoffset:0;stroke-opacity:1;paint-order:markers fill stroke" />
    <circle
       style="display:inline;opacity:1;fill:none;fill-opacity:1;stroke:#ffffff;stroke-width:0.05172414;stroke-linecap:square;stroke-linejoin:round;stroke-miterlimit:4;stroke-dasharray:none;stroke-dashoffset:0;stroke-opacity:1;paint-order:markers fill stroke"
       id="circle1638"
       cx="39.661095"
       cy="33.603302"
       r="5.4741378" />
    <circle
       r="5.4741378"
       cy="44.715813"
       cx="39.661095"
       id="circle1640"
       style="display:inline;opacity:1;fill:none;fill-opacity:1;stroke:#ffffff;stroke-width:0.05172414;stroke-linecap:square;stroke-linejoin:round;stroke-miterlimit:4;stroke-dasharray:none;stroke-dashoffset:0;stroke-opacity:1;paint-order:markers fill stroke" />
    <circle
       style="display:inline;opacity:1;fill:none;fill-opacity:1;stroke:#ffffff;stroke-width:0.05172414;stroke-linecap:square;stroke-linejoin:round;stroke-miterlimit:4;stroke-dasharray:none;stroke-dashoffset:0;stroke-opacity:1;paint-order:markers fill stroke"
       id="circle1642"
       cx="39.661095"
       cy="55.828323"
       r="5.4741378" />
    <circle
       r="5.4741378"
       cy="66.940834"
       cx="39.661095"
       id="circle1644"
       style="display:inline;opacity:1;fill:none;fill-opacity:1;stroke:#ffffff;stroke-width:0.05172414;stroke-linecap:square;stroke-linejoin:round;stroke-miterlimit:4;stroke-dasharray:none;stroke-dashoffset:0;stroke-opacity:1;paint-order:markers fill stroke" />
    <circle
       style="display:inline;opacity:1;fill:none;fill-opacity:1;stroke:#ffffff;stroke-width:0.05172414;stroke-linecap:square;stroke-linejoin:round;stroke-miterlimit:4;stroke-dasharray:none;stroke-dashoffset:0;stroke-opacity:1;paint-order:markers fill stroke"
       id="circle1646"
       cx="39.661095"
       cy="78.053345"
       r="5.4741378" />
    <path
       id="path1770"
       style="fill:none;stroke:#ffffff;stroke-width:0.05;stroke-linecap:butt;stroke-linejoin:miter;stroke-miterlimit:4;stroke-dasharray:none;stroke-opacity:1"
       d="m 31.725012,11.38648 15.875005,-0.0094 m -15.875005,0.0094 15.875005,-0.0094 m -15.875005,0.0094 15.875005,-0.0094 m -15.875005,0.0094 15.875005,-0.0094 m -31.750015,0.0094 15.875005,-0.0094 m -15.875005,0.0094 15.875005,-0.0094 m -15.875005,0.0094 15.875005,-0.0094 m -15.875005,0.0094 15.875005,-0.0094 m -31.75000907,0.0094 15.87499907,-0.0094 m -15.87499907,0.0094 15.87499907,-0.0094 m -15.87499907,0.0094 15.87499907,-0.0094 m -15.87499907,0.0094 15.87499907,-0.0094"
       inkscape:connector-curvature="0" />
    <path
       id="path1772"
       style="fill:none;stroke:#ffffff;stroke-width:0.05;stroke-linecap:butt;stroke-linejoin:miter;stroke-miterlimit:4;stroke-dasharray:none;stroke-opacity:1"
       d="m 31.725012,22.49905 15.875005,-0.0095 m -15.875005,0.0095 15.875005,-0.0095 m -15.875005,0.0095 15.875005,-0.0095 m -15.875005,0.0095 15.875005,-0.0095 m -31.750015,0.0095 15.875005,-0.0095 m -15.875005,0.0095 15.875005,-0.0095 m -15.875005,0.0095 15.875005,-0.0095 m -15.875005,0.0095 15.875005,-0.0095 m -31.75000907,0.0095 15.87499907,-0.0095 m -15.87499907,0.0095 15.87499907,-0.0095 m -15.87499907,0.0095 15.87499907,-0.0095 m -15.87499907,0.0095 15.87499907,-0.0095"
       inkscape:connector-curvature="0" />
    <path
       id="path1774"
       style="fill:none;stroke:#ffffff;stroke-width:0.05;stroke-linecap:butt;stroke-linejoin:miter;stroke-miterlimit:4;stroke-dasharray:none;stroke-opacity:1"
       d="m 31.725012,33.61162 15.875005,-0.0095 m -15.875005,0.0095 15.875005,-0.0095 m -15.875005,0.0095 15.875005,-0.0095 m -15.875005,0.0095 15.875005,-0.0095 m -31.750015,0.0095 15.875005,-0.0095 m -15.875005,0.0095 15.875005,-0.0095 m -15.875005,0.0095 15.875005,-0.0095 m -15.875005,0.0095 15.875005,-0.0095 m -31.75000907,0.0095 15.87499907,-0.0095 m -15.87499907,0.0095 15.87499907,-0.0095 m -15.87499907,0.0095 15.87499907,-0.0095 m -15.87499907,0.0095 15.87499907,-0.0095"
       inkscape:connector-curvature="0" />
    <path
       id="path1776"
       style="fill:none;stroke:#ffffff;stroke-width:0.05;stroke-linecap:butt;stroke-linejoin:miter;stroke-miterlimit:4;stroke-dasharray:none;stroke-opacity:1"
       d="m 31.725012,44.72419 15.875005,-0.0096 m -15.875005,0.0096 15.875005,-0.0096 m -15.875005,0.0096 15.875005,-0.0096 m -15.875005,0.0096 15.875005,-0.0096 m -31.750015,0.0096 15.875005,-0.0096 m -15.875005,0.0096 15.875005,-0.0096 m -15.875005,0.0096 15.875005,-0.0096 m -15.875005,0.0096 15.875005,-0.0096 m -31.75000907,0.0096 15.87499907,-0.0096 m -15.87499907,0.0096 15.87499907,-0.0096 m -15.87499907,0.0096 15.87499907,-0.0096 m -15.87499907,0.0096 15.87499907,-0.0096"
       inkscape:connector-curvature="0" />
    <path
       id="path1778"
       style="fill:none;stroke:#ffffff;stroke-width:0.05;stroke-linecap:butt;stroke-linejoin:miter;stroke-miterlimit:4;stroke-dasharray:none;stroke-opacity:1"
       d="m 31.725012,55.83676 15.875005,-0.0097 m -15.875005,0.0097 15.875005,-0.0097 m -15.875005,0.0097 15.875005,-0.0097 m -15.875005,0.0097 15.875005,-0.0097 m -31.750015,0.0097 15.875005,-0.0097 m -15.875005,0.0097 15.875005,-0.0097 m -15.875005,0.0097 15.875005,-0.0097 m -15.875005,0.0097 15.875005,-0.0097 m -31.75000907,0.0097 15.87499907,-0.0097 m -15.87499907,0.0097 15.87499907,-0.0097 m -15.87499907,0.0097 15.87499907,-0.0097 m -15.87499907,0.0097 15.87499907,-0.0097"
       inkscape:connector-curvature="0" />
    <path
       id="path1780"
       style="fill:none;stroke:#ffffff;stroke-width:0.05;stroke-linecap:butt;stroke-linejoin:miter;stroke-miterlimit:4;stroke-dasharray:none;stroke-opacity:1"
       d="m 31.725012,66.94933 15.875005,-0.0097 m -15.875005,0.0097 15.875005,-0.0097 m -15.875005,0.0097 15.875005,-0.0097 m -15.875005,0.0097 15.875005,-0.0097 m -31.750015,0.0097 15.875005,-0.0097 m -15.875005,0.0097 15.875005,-0.0097 m -15.875005,0.0097 15.875005,-0.0097 m -15.875005,0.0097 15.875005,-0.0097 m -31.75000907,0.0097 15.87499907,-0.0097 m -15.87499907,0.0097 15.87499907,-0.0097 m -15.87499907,0.0097 15.87499907,-0.0097 m -15.87499907,0.0097 15.87499907,-0.0097"
       inkscape:connector-curvature="0" />
    <path
       id="path1782"
       style="fill:none;stroke:#ffffff;stroke-width:0.05;stroke-linecap:butt;stroke-linejoin:miter;stroke-miterlimit:4;stroke-dasharray:none;stroke-opacity:1"
       d="M 31.725012,78.0619 47.600017,78.0521 M 31.725012,78.0619 47.600017,78.0521 M 31.725012,78.0619 47.600017,78.0521 M 31.725012,78.0619 47.600017,78.0521 M 15.850002,78.0619 31.725007,78.0521 M 15.850002,78.0619 31.725007,78.0521 M 15.850002,78.0619 31.725007,78.0521 M 15.850002,78.0619 31.725007,78.0521 M -0.02500207,78.0619 15.849997,78.0521 M -0.02500207,78.0619 15.849997,78.0521 M -0.02500207,78.0619 15.849997,78.0521 M -0.02500207,78.0619 15.849997,78.0521"
       inkscape:connector-curvature="0" />
    <circle
       style="display:inline;opacity:1;fill:none;fill-opacity:1;stroke:#ffffff;stroke-width:0.05;stroke-linecap:square;stroke-linejoin:round;stroke-miterlimit:4;stroke-dasharray:none;stroke-dashoffset:0;stroke-opacity:1;paint-order:markers fill stroke"
       id="circle1471"
       cx="7.9097619"
       cy="89.170151"
       r="4.0999999" />
    <circle
       r="5.4741378"
       cy="89.165855"
       cx="7.911077"
       id="circle1473"
       style="display:inline;opacity:1;fill:none;fill-opacity:1;stroke:#ffffff;stroke-width:0.05172414;stroke-linecap:square;stroke-linejoin:round;stroke-miterlimit:4;stroke-dasharray:none;stroke-dashoffset:0;stroke-opacity:1;paint-order:markers fill stroke" />
    <circle
       r="4.0999999"
       cy="89.170151"
       cx="23.784763"
       id="circle1475"
       style="display:inline;opacity:1;fill:none;fill-opacity:1;stroke:#ffffff;stroke-width:0.05;stroke-linecap:square;stroke-linejoin:round;stroke-miterlimit:4;stroke-dasharray:none;stroke-dashoffset:0;stroke-opacity:1;paint-order:markers fill stroke" />
    <circle
       style="display:inline;opacity:1;fill:none;fill-opacity:1;stroke:#ffffff;stroke-width:0.05172414;stroke-linecap:square;stroke-linejoin:round;stroke-miterlimit:4;stroke-dasharray:none;stroke-dashoffset:0;stroke-opacity:1;paint-order:markers fill stroke"
       id="circle1477"
       cx="23.786079"
       cy="89.165855"
       r="5.4741378" />
    <path
       inkscape:connector-curvature="0"
       d="m 31.725012,89.174407 15.875005,-0.0098 m -15.875005,0.0098 15.875005,-0.0098 m -15.875005,0.0098 15.875005,-0.0098 m -15.875005,0.0098 15.875005,-0.0098 m -31.750015,0.0098 15.875005,-0.0098 m -15.875005,0.0098 15.875005,-0.0098 m -15.875005,0.0098 15.875005,-0.0098 m -15.875005,0.0098 15.875005,-0.0098 m -31.75000907,0.0098 15.87499907,-0.0098 m -15.87499907,0.0098 15.87499907,-0.0098 m -15.87499907,0.0098 15.87499907,-0.0098 m -15.87499907,0.0098 15.87499907,-0.0098"
       style="fill:none;stroke:#ffffff;stroke-width:0.05;stroke-linecap:butt;stroke-linejoin:miter;stroke-miterlimit:4;stroke-dasharray:none;stroke-opacity:1"
       id="path1481" />
    <circle
       style="display:inline;opacity:1;fill:none;fill-opacity:1;stroke:#ffffff;stroke-width:0.05;stroke-linecap:square;stroke-linejoin:round;stroke-miterlimit:4;stroke-dasharray:none;stroke-dashoffset:0;stroke-opacity:1;paint-order:markers fill stroke"
       id="circle1483"
       cx="39.659779"
       cy="89.170151"
       r="4.0999999" />
    <circle
       r="5.4741378"
       cy="89.165855"
       cx="39.661095"
       id="circle1485"
       style="display:inline;opacity:1;fill:none;fill-opacity:1;stroke:#ffffff;stroke-width:0.05172414;stroke-linecap:square;stroke-linejoin:round;stroke-miterlimit:4;stroke-dasharray:none;stroke-dashoffset:0;stroke-opacity:1;paint-order:markers fill stroke" />
  </g>
</svg>
