<?xml version="1.0" encoding="UTF-8" standalone="no"?>
<!-- Created with Inkscape (http://www.inkscape.org/) -->

<svg
   xmlns:dc="http://purl.org/dc/elements/1.1/"
   xmlns:cc="http://creativecommons.org/ns#"
   xmlns:rdf="http://www.w3.org/1999/02/22-rdf-syntax-ns#"
   xmlns:svg="http://www.w3.org/2000/svg"
   xmlns="http://www.w3.org/2000/svg"
   xmlns:sodipodi="http://sodipodi.sourceforge.net/DTD/sodipodi-0.dtd"
   xmlns:inkscape="http://www.inkscape.org/namespaces/inkscape"
   width="90"
   height="380"
   viewBox="0 0 23.812501 100.54167"
   version="1.1"
   id="svg8"
   inkscape:version="0.92.4 (5da689c313, 2019-01-14)"
   sodipodi:docname="PolyChances.svg">
  <defs
     id="defs2" />
  <sodipodi:namedview
     id="base"
     pagecolor="#ffffff"
     bordercolor="#666666"
     borderopacity="1.0"
     inkscape:pageopacity="0.0"
     inkscape:pageshadow="2"
     inkscape:zoom="3.2229183"
     inkscape:cx="49.751495"
     inkscape:cy="173.12666"
     inkscape:document-units="mm"
     inkscape:current-layer="layer1"
     showgrid="true"
     units="px"
     inkscape:snap-bbox="true"
     inkscape:snap-page="true"
     inkscape:bbox-nodes="true"
     inkscape:snap-bbox-edge-midpoints="true"
     inkscape:window-width="1920"
     inkscape:window-height="1017"
     inkscape:window-x="-8"
     inkscape:window-y="-8"
     inkscape:window-maximized="1">
    <inkscape:grid
       type="xygrid"
       id="grid116" />
  </sodipodi:namedview>
  <metadata
     id="metadata5">
    <rdf:RDF>
      <cc:Work
         rdf:about="">
        <dc:format>image/svg+xml</dc:format>
        <dc:type
           rdf:resource="http://purl.org/dc/dcmitype/StillImage" />
        <dc:title />
      </cc:Work>
    </rdf:RDF>
  </metadata>
  <g
     inkscape:groupmode="layer"
     id="layer3"
     inkscape:label="Panel"
     sodipodi:insensitive="true">
    <rect
       id="rect3855"
       width="23.8125"
       height="100.54167"
       x="-3.3306691e-16"
       y="-7.0117189e-06"
       style="fill:#520000;stroke-width:0.40544224" />
  </g>
  <g
     inkscape:label="Layer 1"
     inkscape:groupmode="layer"
     id="layer1"
     transform="translate(0,-196.45832)"
     style="display:inline">
    <g
       aria-label="/^M^\"
       style="font-style:normal;font-variant:normal;font-weight:normal;font-stretch:normal;font-size:2.82222223px;line-height:1.25;font-family:'Copperplate Gothic Light';-inkscape-font-specification:'Copperplate Gothic Light, ';letter-spacing:0px;word-spacing:0px;fill:#ffffff;fill-opacity:1;stroke:#ffffff;stroke-width:0.2;stroke-miterlimit:4;stroke-dasharray:none;stroke-opacity:1"
       id="text956"
       transform="translate(-10.275317,3.7456238)">
      <path
         d="m 21.203855,291.40545 v 0.0386 h -0.434082 v -0.0386 q 0.09509,-0.006 0.224621,-0.17088 l 1.094162,-1.4621 q 0.07441,-0.1006 0.07441,-0.12402 0,-0.0372 -0.06615,-0.0482 v -0.0372 h 0.423058 v 0.0372 q -0.09508,0.006 -0.22462,0.17087 l -1.08176,1.46348 q -0.07579,0.10197 -0.07579,0.12402 0,0.0358 0.06615,0.0469 z"
         style="font-style:normal;font-variant:normal;font-weight:normal;font-stretch:normal;font-size:2.82222223px;line-height:1.25;font-family:'Copperplate Gothic Light';-inkscape-font-specification:'Copperplate Gothic Light, ';stroke:#ffffff;stroke-width:0.2;stroke-miterlimit:4;stroke-dasharray:none;stroke-opacity:1"
         id="path958"
         inkscape:connector-curvature="0" />
      <path
         d="M 22.940183,290.3857 H 22.73899 l 0.493338,-0.8282 h 0.243912 l 0.493338,0.8282 h -0.20395 l -0.413411,-0.68075 z"
         style="font-style:normal;font-variant:normal;font-weight:normal;font-stretch:normal;font-size:2.82222223px;line-height:1.25;font-family:'Copperplate Gothic Light';-inkscape-font-specification:'Copperplate Gothic Light, ';stroke:#ffffff;stroke-width:0.2;stroke-miterlimit:4;stroke-dasharray:none;stroke-opacity:1"
         id="path960"
         inkscape:connector-curvature="0" />
      <path
         d="m 25.342104,291.44403 -0.789616,-1.58061 v 1.418 q 0,0.0565 0.01791,0.0813 0.01791,0.0234 0.07028,0.0372 v 0.0441 h -0.373449 v -0.0441 q 0.05237,-0.0138 0.07028,-0.0372 0.01792,-0.0234 0.01792,-0.0813 v -1.5558 q 0,-0.0579 -0.01792,-0.0813 -0.01791,-0.0248 -0.07028,-0.0372 v -0.0441 h 0.487826 v 0.0441 q -0.06752,0.0234 -0.06752,0.0579 0,0.0165 0.04547,0.10611 l 0.62563,1.24161 0.628385,-1.25263 q 0.03307,-0.0661 0.03307,-0.0937 0,-0.0358 -0.06752,-0.0593 v -0.0441 h 0.49196 v 0.0441 q -0.05237,0.0138 -0.07028,0.0372 -0.01792,0.0234 -0.01792,0.0813 v 1.5558 q 0,0.0565 0.01792,0.0813 0.01791,0.0234 0.07028,0.0372 v 0.0441 h -0.392741 v -0.0441 q 0.05374,-0.0138 0.07028,-0.0372 0.01791,-0.0234 0.01791,-0.0813 v -1.418 z"
         style="font-style:normal;font-variant:normal;font-weight:normal;font-stretch:normal;font-size:2.82222223px;line-height:1.25;font-family:'Copperplate Gothic Light';-inkscape-font-specification:'Copperplate Gothic Light, ';stroke:#ffffff;stroke-width:0.2;stroke-miterlimit:4;stroke-dasharray:none;stroke-opacity:1"
         id="path962"
         inkscape:connector-curvature="0" />
      <path
         d="m 26.942006,290.3857 h -0.201193 l 0.493338,-0.8282 h 0.243912 l 0.493338,0.8282 h -0.20395 l -0.413411,-0.68075 z"
         style="font-style:normal;font-variant:normal;font-weight:normal;font-stretch:normal;font-size:2.82222223px;line-height:1.25;font-family:'Copperplate Gothic Light';-inkscape-font-specification:'Copperplate Gothic Light, ';stroke:#ffffff;stroke-width:0.2;stroke-miterlimit:4;stroke-dasharray:none;stroke-opacity:1"
         id="path964"
         inkscape:connector-curvature="0" />
      <path
         d="m 28.617701,289.56301 v 0.0372 q -0.06615,0.011 -0.06615,0.0482 0,0.0234 0.07441,0.12402 l 1.092784,1.4621 q 0.129536,0.16536 0.22462,0.17088 v 0.0386 h -0.434082 v -0.0386 q 0.06615,-0.011 0.06615,-0.0469 0,-0.0207 -0.07579,-0.12402 l -1.080382,-1.46348 q -0.129535,-0.16536 -0.22462,-0.17087 v -0.0372 z"
         style="font-style:normal;font-variant:normal;font-weight:normal;font-stretch:normal;font-size:2.82222223px;line-height:1.25;font-family:'Copperplate Gothic Light';-inkscape-font-specification:'Copperplate Gothic Light, ';stroke:#ffffff;stroke-width:0.2;stroke-miterlimit:4;stroke-dasharray:none;stroke-opacity:1"
         id="path966"
         inkscape:connector-curvature="0" />
    </g>
    <g
       aria-label="INPUT"
       style="font-style:normal;font-variant:normal;font-weight:normal;font-stretch:normal;font-size:2.82222223px;line-height:1.25;font-family:'Yu Gothic UI';-inkscape-font-specification:'Yu Gothic UI';letter-spacing:0px;word-spacing:0px;fill:#ffffff;fill-opacity:1;stroke:none;stroke-width:0.26458332"
       id="text977"
       transform="translate(3.9687498,-0.03744157)">
      <path
         d="M 4.3931857,249.99513 H 4.1616753 v -1.9761 h 0.2315104 z"
         style="stroke-width:0.26458332"
         id="path1020"
         inkscape:connector-curvature="0" />
      <path
         d="M 6.5043402,249.99513 H 6.2204644 l -1.0169922,-1.5751 q -0.038585,-0.0592 -0.06339,-0.12402 h -0.00827 q 0.011024,0.0634 0.011024,0.27147 v 1.42765 H 4.9113281 v -1.9761 h 0.3004123 l 0.9894314,1.55029 q 0.062012,0.0965 0.079926,0.13229 h 0.00551 q -0.01378,-0.0854 -0.01378,-0.29077 v -1.39181 h 0.2315104 z"
         style="stroke-width:0.26458332"
         id="path1022"
         inkscape:connector-curvature="0" />
      <path
         d="m 7.2539931,249.24824 v 0.74689 H 7.0224827 v -1.9761 h 0.5429471 q 0.3169487,0 0.4905816,0.15434 0.1750108,0.15434 0.1750108,0.43546 0,0.28112 -0.1943034,0.46026 -0.1929253,0.17915 -0.5222765,0.17915 z m 0,-1.01975 v 0.81028 h 0.2425347 q 0.2397787,0 0.3651802,-0.10886 0.1267795,-0.11024 0.1267795,-0.31006 0,-0.39136 -0.4630209,-0.39136 z"
         style="stroke-width:0.26458332"
         id="path1024"
         inkscape:connector-curvature="0" />
      <path
         d="m 10.050033,249.19587 q 0,0.83234 -0.7510312,0.83234 -0.7193359,0 -0.7193359,-0.80064 v -1.20854 h 0.2315104 v 1.19338 q 0,0.60771 0.5126302,0.60771 0.4947157,0 0.4947157,-0.58704 v -1.21405 h 0.2315108 z"
         style="stroke-width:0.26458332"
         id="path1026"
         inkscape:connector-curvature="0" />
      <path
         d="m 11.713325,248.22849 h -0.570508 v 1.76664 h -0.231511 v -1.76664 h -0.569129 v -0.20946 h 1.371148 z"
         style="stroke-width:0.26458332"
         id="path1028"
         inkscape:connector-curvature="0" />
    </g>
    <text
       xml:space="preserve"
       style="font-style:normal;font-variant:normal;font-weight:normal;font-stretch:normal;font-size:2.82222223px;line-height:1.25;font-family:'Yu Gothic UI';-inkscape-font-specification:'Yu Gothic UI';letter-spacing:0px;word-spacing:0px;fill:#ffffff;fill-opacity:1;stroke:none;stroke-width:0.26458332"
       x="18.520834"
       y="218.94791"
       id="text912"><tspan
         sodipodi:role="line"
         id="tspan910"
         x="18.520834"
         y="221.49004"
         style="font-style:normal;font-variant:normal;font-weight:normal;font-stretch:normal;font-family:'Yu Gothic UI';-inkscape-font-specification:'Yu Gothic UI';stroke-width:0.26458332" /></text>
    <g
       aria-label="CHANCE"
       style="font-style:normal;font-variant:normal;font-weight:normal;font-stretch:normal;font-size:2.82222223px;line-height:1.25;font-family:'Yu Gothic UI';-inkscape-font-specification:'Yu Gothic UI';letter-spacing:0px;word-spacing:0px;fill:#ffffff;fill-opacity:1;stroke:none;stroke-width:0.26458332"
       id="text916"
       transform="translate(-14.694021,2.1401091)">
      <path
         d="m 22.770702,216.21938 q -0.219108,0.11576 -0.545703,0.11576 -0.421679,0 -0.675238,-0.27148 -0.253559,-0.27147 -0.253559,-0.71244 0,-0.47405 0.285254,-0.76619 0.285253,-0.29215 0.72347,-0.29215 0.281119,0 0.465776,0.0813 v 0.24667 q -0.212217,-0.11851 -0.468532,-0.11851 -0.340376,0 -0.552594,0.22737 -0.21084,0.22738 -0.21084,0.60772 0,0.36104 0.19706,0.57602 0.198437,0.21359 0.51952,0.21359 0.297656,0 0.515386,-0.13229 z"
         style="stroke-width:0.26458332"
         id="path918"
         inkscape:connector-curvature="0" />
      <path
         d="m 24.658615,216.30206 h -0.231511 v -0.90123 H 23.4046 v 0.90123 h -0.23151 v -1.9761 h 0.23151 v 0.86678 h 1.022504 v -0.86678 h 0.231511 z"
         style="stroke-width:0.26458332"
         id="path920"
         inkscape:connector-curvature="0" />
      <path
         d="m 26.709136,216.30206 h -0.256315 l -0.209462,-0.55397 h -0.837847 l -0.19706,0.55397 h -0.257693 l 0.757921,-1.9761 h 0.239779 z m -0.541569,-0.76205 -0.310059,-0.84198 q -0.01516,-0.0413 -0.03032,-0.1323 h -0.0055 q -0.01378,0.0841 -0.03169,0.1323 l -0.307302,0.84198 z"
         style="stroke-width:0.26458332"
         id="path922"
         inkscape:connector-curvature="0" />
      <path
         d="M 28.591536,216.30206 H 28.30766 l -1.016992,-1.57509 q -0.03859,-0.0593 -0.06339,-0.12403 h -0.0083 q 0.01102,0.0634 0.01102,0.27148 v 1.42764 h -0.23151 v -1.9761 H 27.2989 l 0.989431,1.55029 q 0.06201,0.0965 0.07993,0.13229 h 0.0055 q -0.01378,-0.0854 -0.01378,-0.29077 v -1.39181 h 0.231511 z"
         style="stroke-width:0.26458332"
         id="path924"
         inkscape:connector-curvature="0" />
      <path
         d="m 30.454643,216.21938 q -0.219108,0.11576 -0.545703,0.11576 -0.421679,0 -0.675238,-0.27148 -0.253559,-0.27147 -0.253559,-0.71244 0,-0.47405 0.285253,-0.76619 0.285254,-0.29215 0.72347,-0.29215 0.28112,0 0.465777,0.0813 v 0.24667 q -0.212218,-0.11851 -0.468533,-0.11851 -0.340375,0 -0.552593,0.22737 -0.21084,0.22738 -0.21084,0.60772 0,0.36104 0.19706,0.57602 0.198437,0.21359 0.51952,0.21359 0.297656,0 0.515386,-0.13229 z"
         style="stroke-width:0.26458332"
         id="path926"
         inkscape:connector-curvature="0" />
      <path
         d="m 31.90434,216.30206 h -1.047309 v -1.9761 h 1.003212 v 0.20946 h -0.771702 v 0.65732 h 0.713824 v 0.20809 h -0.713824 v 0.69177 h 0.815799 z"
         style="stroke-width:0.26458332"
         id="path928"
         inkscape:connector-curvature="0" />
    </g>
    <rect
       y="276.0979"
       x="0.52916664"
       height="11.112486"
       width="22.754168"
       id="rect931"
       style="fill:#6f1e00;stroke-width:0.16003716" />
    <g
       aria-label="LATCH"
       style="font-style:normal;font-variant:normal;font-weight:normal;font-stretch:normal;font-size:2.82222223px;line-height:1.25;font-family:'Yu Gothic UI';-inkscape-font-specification:'Yu Gothic UI';letter-spacing:0px;word-spacing:0px;fill:#ffffff;fill-opacity:1;stroke:none;stroke-width:0.26458332"
       id="text972"
       transform="translate(-6.7703015,0.61862379)">
      <path
         d="m 15.836415,234.82291 h -1.025261 v -1.97611 h 0.231511 v 1.76664 h 0.79375 z"
         style="stroke-width:0.26458332"
         id="path974"
         inkscape:connector-curvature="0" />
      <path
         d="M 17.669205,234.82291 H 17.41289 l -0.209461,-0.55397 h -0.837848 l -0.197059,0.55397 h -0.257693 l 0.757921,-1.97611 h 0.239778 z m -0.541569,-0.76206 -0.310058,-0.84198 q -0.01516,-0.0413 -0.03032,-0.13229 h -0.0055 q -0.01378,0.0841 -0.0317,0.13229 l -0.307303,0.84198 z"
         style="stroke-width:0.26458332"
         id="path976"
         inkscape:connector-curvature="0" />
      <path
         d="m 19.027951,233.05626 h -0.570508 v 1.76665 h -0.23151 v -1.76665 h -0.56913 v -0.20946 h 1.371148 z"
         style="stroke-width:0.26458332"
         id="path978"
         inkscape:connector-curvature="0" />
      <path
         d="m 20.654036,234.74022 q -0.219108,0.11576 -0.545703,0.11576 -0.42168,0 -0.675239,-0.27147 -0.253559,-0.27148 -0.253559,-0.71245 0,-0.47405 0.285254,-0.76619 0.285254,-0.29214 0.72347,-0.29214 0.28112,0 0.465777,0.0813 v 0.24667 q -0.212218,-0.11851 -0.468533,-0.11851 -0.340375,0 -0.552593,0.22737 -0.21084,0.22738 -0.21084,0.60772 0,0.36105 0.197059,0.57602 0.198438,0.2136 0.519521,0.2136 0.297656,0 0.515386,-0.1323 z"
         style="stroke-width:0.26458332"
         id="path980"
         inkscape:connector-curvature="0" />
      <path
         d="m 22.541949,234.82291 h -0.231511 v -0.90124 h -1.022504 v 0.90124 h -0.231511 v -1.97611 h 0.231511 v 0.86679 h 1.022504 v -0.86679 h 0.231511 z"
         style="stroke-width:0.26458332"
         id="path982"
         inkscape:connector-curvature="0" />
    </g>
    <g
       aria-label="A"
       style="font-style:normal;font-variant:normal;font-weight:normal;font-stretch:normal;font-size:2.11666656px;line-height:1.25;font-family:'Yu Gothic UI';-inkscape-font-specification:'Yu Gothic UI';letter-spacing:0px;word-spacing:0px;fill:#ffffff;fill-opacity:1;stroke:none;stroke-width:0.26458332"
       id="text1938"
       transform="translate(5.1274749,3.6780602)">
      <path
         d="M 3.3052242,227.14999 H 3.1129879 L 2.9558916,226.73452 H 2.3275062 l -0.1477946,0.41547 H 1.9864417 l 0.5684408,-1.48208 h 0.1798339 z m -0.4061767,-0.57154 -0.2325439,-0.63148 q -0.011369,-0.031 -0.022738,-0.0992 h -0.00413 q -0.010335,0.063 -0.023771,0.0992 l -0.2304769,0.63148 z"
         style="font-size:2.11666656px;stroke-width:0.26458332"
         id="path1947"
         inkscape:connector-curvature="0" />
    </g>
    <g
       aria-label="B"
       style="font-style:normal;font-variant:normal;font-weight:normal;font-stretch:normal;font-size:2.11666656px;line-height:1.25;font-family:'Yu Gothic UI';-inkscape-font-specification:'Yu Gothic UI';letter-spacing:0px;word-spacing:0px;fill:#ffffff;fill-opacity:1;stroke:none;stroke-width:0.26458332"
       id="text1942"
       transform="translate(3.0108091,3.6780602)">
      <path
         d="m 12.77286,227.14999 v -1.48208 h 0.42168 q 0.192236,0 0.304891,0.094 0.112655,0.0941 0.112655,0.24495 0,0.12609 -0.06821,0.21911 -0.06821,0.093 -0.188102,0.13229 v 0.004 q 0.149861,0.0176 0.239778,0.11368 0.08992,0.0951 0.08992,0.24805 0,0.19017 -0.136426,0.30799 -0.136425,0.11782 -0.344165,0.11782 z m 0.173633,-1.32498 v 0.47852 h 0.177767 q 0.142627,0 0.224276,-0.0682 0.08165,-0.0693 0.08165,-0.1943 0,-0.21601 -0.284221,-0.21601 z m 0,0.63459 v 0.5333 h 0.235645 q 0.152962,0 0.236678,-0.0724 0.08475,-0.0724 0.08475,-0.19844 0,-0.26251 -0.357601,-0.26251 z"
         style="font-size:2.11666656px;stroke-width:0.26458332"
         id="path1944"
         inkscape:connector-curvature="0" />
    </g>
    <rect
       style="display:inline;opacity:1;fill:none;fill-opacity:1;stroke:#ffffff;stroke-width:0.21587977;stroke-linecap:square;stroke-linejoin:round;stroke-miterlimit:4;stroke-dasharray:none;stroke-dashoffset:0;stroke-opacity:1;paint-order:markers fill stroke"
       id="rect1915"
       width="13.215286"
       height="25.713337"
       x="5.2986069"
       y="205.82349"
       ry="0.013725536" />
    <g
       aria-label="OUTCOME"
       style="font-style:normal;font-variant:normal;font-weight:normal;font-stretch:normal;font-size:2.82222223px;line-height:1.25;font-family:'Yu Gothic UI';-inkscape-font-specification:'Yu Gothic UI';letter-spacing:0px;word-spacing:0px;fill:#ffffff;fill-opacity:1;stroke:none;stroke-width:0.26458332"
       id="text983"
       transform="translate(-0.06752405,4.7625002)">
      <path
         d="m 6.3472438,257.34557 q -0.4203017,0 -0.6738607,-0.27698 -0.252181,-0.27699 -0.252181,-0.72072 0,-0.4768 0.2576931,-0.76067 0.2576932,-0.28388 0.7014215,-0.28388 0.4092773,0 0.6587022,0.27561 0.250803,0.27561 0.250803,0.72071 0,0.48369 -0.2563151,0.76481 -0.2563151,0.28112 -0.686263,0.28112 z m 0.016536,-1.83279 q -0.3114366,0 -0.50574,0.22462 -0.1943034,0.22462 -0.1943034,0.5898 0,0.36518 0.1887913,0.58842 0.1901692,0.22187 0.4947157,0.22187 0.325217,0 0.5126302,-0.21222 0.1874132,-0.21222 0.1874132,-0.59393 0,-0.39137 -0.1819011,-0.60496 -0.181901,-0.2136 -0.5016059,-0.2136 z"
         style="stroke-width:0.26458332"
         id="path985"
         inkscape:connector-curvature="0" />
      <path
         d="m 9.1239908,256.51324 q 0,0.83233 -0.7510308,0.83233 -0.719336,0 -0.719336,-0.80064 v -1.20854 h 0.2315104 v 1.19338 q 0,0.60772 0.5126303,0.60772 0.4947157,0 0.4947157,-0.58705 v -1.21405 h 0.2315104 z"
         style="stroke-width:0.26458332"
         id="path987"
         inkscape:connector-curvature="0" />
      <path
         d="m 10.787283,255.54586 h -0.570508 v 1.76664 H 9.9852647 v -1.76664 H 9.4161349 v -0.20947 h 1.3711481 z"
         style="stroke-width:0.26458332"
         id="path989"
         inkscape:connector-curvature="0" />
      <path
         d="m 12.413368,257.22982 q -0.219108,0.11575 -0.545703,0.11575 -0.42168,0 -0.675239,-0.27147 -0.253559,-0.27147 -0.253559,-0.71245 0,-0.47404 0.285254,-0.76619 0.285254,-0.29214 0.72347,-0.29214 0.28112,0 0.465777,0.0813 v 0.24667 q -0.212218,-0.11851 -0.468533,-0.11851 -0.340376,0 -0.552593,0.22738 -0.21084,0.22737 -0.21084,0.60771 0,0.36105 0.197059,0.57602 0.198438,0.2136 0.519521,0.2136 0.297656,0 0.515386,-0.13229 z"
         style="stroke-width:0.26458332"
         id="path991"
         inkscape:connector-curvature="0" />
      <path
         d="m 13.612261,257.34557 q -0.420301,0 -0.67386,-0.27698 -0.252181,-0.27699 -0.252181,-0.72072 0,-0.4768 0.257693,-0.76067 0.257693,-0.28388 0.701421,-0.28388 0.409278,0 0.658702,0.27561 0.250803,0.27561 0.250803,0.72071 0,0.48369 -0.256315,0.76481 -0.256315,0.28112 -0.686263,0.28112 z m 0.01654,-1.83279 q -0.311437,0 -0.50574,0.22462 -0.194304,0.22462 -0.194304,0.5898 0,0.36518 0.188792,0.58842 0.190169,0.22187 0.494715,0.22187 0.325217,0 0.51263,-0.21222 0.187414,-0.21222 0.187414,-0.59393 0,-0.39137 -0.181901,-0.60496 -0.181901,-0.2136 -0.501606,-0.2136 z"
         style="stroke-width:0.26458332"
         id="path993"
         inkscape:connector-curvature="0" />
      <path
         d="m 16.958138,257.3125 h -0.230132 v -1.32567 q 0,-0.1571 0.01929,-0.38448 h -0.0055 q -0.03307,0.13367 -0.05926,0.19155 l -0.675239,1.5186 h -0.112999 l -0.673861,-1.50757 q -0.02894,-0.0662 -0.05926,-0.20258 h -0.0055 q 0.01103,0.11852 0.01103,0.38723 v 1.32292 h -0.223243 v -1.97611 h 0.305925 l 0.606337,1.37804 q 0.07028,0.15848 0.09095,0.23702 h 0.0083 q 0.05926,-0.1626 0.09508,-0.24253 l 0.618739,-1.37253 h 0.289388 z"
         style="stroke-width:0.26458332"
         id="path995"
         inkscape:connector-curvature="0" />
      <path
         d="m 18.526346,257.3125 h -1.047309 v -1.97611 h 1.003211 v 0.20947 h -0.771701 v 0.65732 h 0.713824 v 0.20808 h -0.713824 v 0.69178 h 0.815799 z"
         style="stroke-width:0.26458332"
         id="path997"
         inkscape:connector-curvature="0" />
    </g>
    <rect
       style="display:inline;opacity:1;fill:#86bc36;fill-opacity:1;stroke:#ffffff;stroke-width:0.1;stroke-linecap:round;stroke-linejoin:round;stroke-miterlimit:4;stroke-dasharray:none;stroke-dashoffset:0.79370081;stroke-opacity:1;paint-order:markers fill stroke"
       id="rect1812"
       width="8.3161659"
       height="2.5931005"
       x="14.360527"
       y="276.81439"
       ry="0.014324999" />
    <rect
       ry="0.014324999"
       y="276.81439"
       x="1.1358066"
       height="2.5931005"
       width="8.3161659"
       id="rect1053"
       style="display:inline;opacity:1;fill:#d01910;fill-opacity:1;stroke:#ffffff;stroke-width:0.1;stroke-linecap:round;stroke-linejoin:round;stroke-miterlimit:4;stroke-dasharray:none;stroke-dashoffset:0.79370081;stroke-opacity:1;paint-order:markers fill stroke" />
    <g
       aria-label="OUT B"
       style="font-style:normal;font-variant:normal;font-weight:normal;font-stretch:normal;font-size:2.82222223px;line-height:1.25;font-family:'Yu Gothic UI';-inkscape-font-specification:'Yu Gothic UI';letter-spacing:0px;word-spacing:0px;fill:#ffffff;fill-opacity:1;stroke:none;stroke-width:0.26458332"
       id="text1026"
       transform="translate(-17.192561,1.94275)">
      <path
         d="m 32.805577,277.18932 q -0.420301,0 -0.67386,-0.27698 -0.252181,-0.27699 -0.252181,-0.72072 0,-0.4768 0.257693,-0.76067 0.257693,-0.28388 0.701421,-0.28388 0.409278,0 0.658702,0.27561 0.250803,0.27561 0.250803,0.72071 0,0.48369 -0.256315,0.76481 -0.256315,0.28112 -0.686263,0.28112 z m 0.01654,-1.83279 q -0.311437,0 -0.50574,0.22462 -0.194304,0.22462 -0.194304,0.5898 0,0.36518 0.188792,0.58842 0.190169,0.22187 0.494715,0.22187 0.325217,0 0.51263,-0.21222 0.187414,-0.21222 0.187414,-0.59393 0,-0.39137 -0.181901,-0.60496 -0.181901,-0.2136 -0.501606,-0.2136 z"
         style="fill:#ffffff;fill-opacity:1;stroke-width:0.26458332"
         id="path1029"
         inkscape:connector-curvature="0" />
      <path
         d="m 35.582324,276.35699 q 0,0.83233 -0.751031,0.83233 -0.719335,0 -0.719335,-0.80064 v -1.20854 h 0.23151 v 1.19338 q 0,0.60772 0.51263,0.60772 0.494716,0 0.494716,-0.58705 v -1.21405 h 0.23151 z"
         style="fill:#ffffff;fill-opacity:1;stroke-width:0.26458332"
         id="path1031"
         inkscape:connector-curvature="0" />
      <path
         d="m 37.245616,275.38961 h -0.570507 v 1.76664 h -0.231511 v -1.76664 h -0.56913 v -0.20947 h 1.371148 z"
         style="fill:#ffffff;fill-opacity:1;stroke-width:0.26458332"
         id="path1033"
         inkscape:connector-curvature="0" />
      <path
         d="m 38.325998,277.15625 v -1.97611 h 0.56224 q 0.256315,0 0.406521,0.1254 0.150206,0.12541 0.150206,0.3266 0,0.16812 -0.09095,0.29214 -0.09095,0.12403 -0.250803,0.17639 v 0.006 q 0.199815,0.0234 0.319705,0.15159 0.119889,0.12678 0.119889,0.33073 0,0.25356 -0.181901,0.41065 -0.181901,0.1571 -0.458887,0.1571 z m 0.231511,-1.76664 v 0.63803 h 0.237022 q 0.190169,0 0.299034,-0.091 0.108865,-0.0923 0.108865,-0.25907 0,-0.28801 -0.37896,-0.28801 z m 0,0.84611 v 0.71107 h 0.314192 q 0.20395,0 0.315571,-0.0965 0.112999,-0.0965 0.112999,-0.26459 0,-0.35002 -0.476801,-0.35002 z"
         style="fill:#ffffff;fill-opacity:1;stroke-width:0.26458332"
         id="path1035"
         inkscape:connector-curvature="0" />
    </g>
    <g
       aria-label="OUT A"
       style="font-style:normal;font-variant:normal;font-weight:normal;font-stretch:normal;font-size:2.82222223px;line-height:1.25;font-family:'Yu Gothic UI';-inkscape-font-specification:'Yu Gothic UI';letter-spacing:0px;word-spacing:0px;fill:#ffffff;fill-opacity:1;stroke:none;stroke-width:0.26458332"
       id="text1022"
       transform="translate(-29.250771,-2.026)">
      <path
         d="m 31.482659,281.15807 q -0.420301,0 -0.67386,-0.27698 -0.252181,-0.27699 -0.252181,-0.72072 0,-0.4768 0.257693,-0.76067 0.257693,-0.28388 0.701421,-0.28388 0.409278,0 0.658702,0.27561 0.250803,0.27561 0.250803,0.72071 0,0.48369 -0.256315,0.76481 -0.256315,0.28112 -0.686263,0.28112 z m 0.01654,-1.83279 q -0.311437,0 -0.50574,0.22462 -0.194304,0.22462 -0.194304,0.5898 0,0.36518 0.188792,0.58842 0.190169,0.22187 0.494715,0.22187 0.325217,0 0.512631,-0.21222 0.187413,-0.21222 0.187413,-0.59393 0,-0.39137 -0.181901,-0.60496 -0.181901,-0.2136 -0.501606,-0.2136 z"
         style="fill:#ffffff;fill-opacity:1;stroke-width:0.26458332"
         id="path1038"
         inkscape:connector-curvature="0" />
      <path
         d="m 34.259406,280.32574 q 0,0.83233 -0.75103,0.83233 -0.719336,0 -0.719336,-0.80064 v -1.20854 h 0.23151 v 1.19338 q 0,0.60772 0.51263,0.60772 0.494716,0 0.494716,-0.58705 v -1.21405 h 0.23151 z"
         style="fill:#ffffff;fill-opacity:1;stroke-width:0.26458332"
         id="path1040"
         inkscape:connector-curvature="0" />
      <path
         d="M 35.922698,279.35836 H 35.352191 V 281.125 H 35.12068 v -1.76664 h -0.56913 v -0.20947 h 1.371148 z"
         style="fill:#ffffff;fill-opacity:1;stroke-width:0.26458332"
         id="path1042"
         inkscape:connector-curvature="0" />
      <path
         d="m 38.532703,281.125 h -0.256316 l -0.209461,-0.55397 h -0.837848 l -0.197059,0.55397 h -0.257693 l 0.757921,-1.97611 h 0.239779 z m -0.541569,-0.76206 -0.310059,-0.84198 q -0.01516,-0.0413 -0.03032,-0.13229 h -0.0055 q -0.01378,0.0841 -0.03169,0.13229 l -0.307302,0.84198 z"
         style="fill:#ffffff;fill-opacity:1;stroke-width:0.26458332"
         id="path1044"
         inkscape:connector-curvature="0" />
    </g>
    <g
       aria-label="POLY"
       style="font-style:normal;font-variant:normal;font-weight:600;font-stretch:normal;font-size:3.52777767px;line-height:1.25;font-family:'Yu Gothic UI';-inkscape-font-specification:'Yu Gothic UI Semi-Bold';letter-spacing:0px;word-spacing:0px;fill:#ffffff;fill-opacity:1;stroke:none;stroke-width:0.26458332"
       id="text938"
       transform="translate(11.323171,12.036472)">
      <path
         d="m 0.71313474,187.62509 v 0.89572 h -0.4082438 v -2.47013 H 1.0541992 q 0.4254693,0 0.6597358,0.19809 0.2342664,0.1981 0.2342664,0.55811 0,0.36001 -0.2446017,0.58911 -0.2446018,0.2291 -0.6614583,0.2291 z m 0,-1.23679 v 0.90261 h 0.26527235 q 0.26354981,0 0.40135361,-0.1223 0.1378038,-0.1223 0.1378038,-0.34451 0,-0.4358 -0.506429,-0.4358 z"
         style="font-style:normal;font-variant:normal;font-weight:600;font-stretch:normal;font-size:3.52777767px;font-family:'Yu Gothic UI';-inkscape-font-specification:'Yu Gothic UI Semi-Bold';stroke-width:0.26458332"
         id="path965"
         inkscape:connector-curvature="0" />
      <path
         d="m 3.3830837,188.56215 q -0.5339898,0 -0.8561062,-0.34623 -0.3203939,-0.34623 -0.3203939,-0.90089 0,-0.596 0.3272841,-0.95085 0.3272841,-0.35484 0.8888346,-0.35484 0.5202094,0 0.8371582,0.34451 0.3186713,0.34451 0.3186713,0.90089 0,0.60461 -0.3255615,0.95601 -0.3255615,0.3514 -0.8698866,0.3514 z m 0.018948,-2.1928 q -0.3393419,0 -0.5529378,0.25322 -0.2118733,0.25321 -0.2118733,0.66662 0,0.41169 0.2067057,0.66318 0.2067057,0.25149 0.5408799,0.25149 0.3548449,0 0.559828,-0.23943 0.2049832,-0.23943 0.2049832,-0.67007 0,-0.4427 -0.1998155,-0.68385 -0.198093,-0.24116 -0.5477702,-0.24116 z"
         style="font-style:normal;font-variant:normal;font-weight:600;font-stretch:normal;font-size:3.52777767px;font-family:'Yu Gothic UI';-inkscape-font-specification:'Yu Gothic UI Semi-Bold';stroke-width:0.26458332"
         id="path967"
         inkscape:connector-curvature="0" />
      <path
         d="M 6.399265,188.52081 H 5.0315622 v -2.47013 h 0.4099663 v 2.1239 H 6.399265 Z"
         style="font-style:normal;font-variant:normal;font-weight:600;font-stretch:normal;font-size:3.52777767px;font-family:'Yu Gothic UI';-inkscape-font-specification:'Yu Gothic UI Semi-Bold';stroke-width:0.26458332"
         id="path969"
         inkscape:connector-curvature="0" />
      <path
         d="m 8.3371308,186.05068 -0.8095974,1.57269 v 0.89744 H 7.117567 v -0.88883 l -0.7889268,-1.5813 h 0.4668104 l 0.4857585,1.05937 q 0.00861,0.0189 0.051676,0.14297 h 0.00517 q 0.015503,-0.0551 0.056844,-0.14297 l 0.5081516,-1.05937 z"
         style="font-style:normal;font-variant:normal;font-weight:600;font-stretch:normal;font-size:3.52777767px;font-family:'Yu Gothic UI';-inkscape-font-specification:'Yu Gothic UI Semi-Bold';stroke-width:0.26458332"
         id="path971"
         inkscape:connector-curvature="0" />
    </g>
    <g
       aria-label="CHANCES"
       style="font-style:normal;font-variant:normal;font-weight:600;font-stretch:normal;font-size:3.52777767px;line-height:1.25;font-family:'Yu Gothic UI';-inkscape-font-specification:'Yu Gothic UI Semi-Bold';letter-spacing:0px;word-spacing:0px;fill:#ffffff;fill-opacity:1;stroke:none;stroke-width:0.26458332"
       id="text942"
       transform="translate(-9.2251037,11.242679)">
      <path
         d="m 15.256605,192.38621 q -0.279053,0.14469 -0.694187,0.14469 -0.537435,0 -0.861274,-0.33934 -0.323839,-0.33934 -0.323839,-0.89055 0,-0.59256 0.363458,-0.95774 0.36518,-0.36518 0.921563,-0.36518 0.35829,0 0.594279,0.10163 v 0.40652 q -0.24977,-0.14814 -0.551216,-0.14814 -0.401353,0 -0.651123,0.25666 -0.248046,0.25666 -0.248046,0.68557 0,0.40825 0.232543,0.65113 0.232544,0.24115 0.611505,0.24115 0.349677,0 0.606337,-0.16536 z"
         style="font-style:normal;font-variant:normal;font-weight:600;font-stretch:normal;font-size:3.52777767px;font-family:'Yu Gothic UI';-inkscape-font-specification:'Yu Gothic UI Semi-Bold';stroke-width:0.26458332"
         id="path944"
         inkscape:connector-curvature="0" />
      <path
         d="m 17.709512,192.48956 h -0.411688 v -1.07142 h -1.16272 v 1.07142 h -0.409966 v -2.47013 h 0.409966 v 1.0387 h 1.16272 v -1.0387 h 0.411688 z"
         style="font-style:normal;font-variant:normal;font-weight:600;font-stretch:normal;font-size:3.52777767px;font-family:'Yu Gothic UI';-inkscape-font-specification:'Yu Gothic UI Semi-Bold';stroke-width:0.26458332"
         id="path946"
         inkscape:connector-curvature="0" />
      <path
         d="m 20.351901,192.48956 h -0.449585 l -0.222209,-0.62873 H 18.70859 l -0.213596,0.62873 h -0.447862 l 0.925008,-2.47013 h 0.461643 z m -0.780314,-0.9629 -0.342787,-0.9853 q -0.0155,-0.0482 -0.03273,-0.15503 h -0.0069 q -0.0155,0.0982 -0.03445,0.15503 l -0.339342,0.9853 z"
         style="font-style:normal;font-variant:normal;font-weight:600;font-stretch:normal;font-size:3.52777767px;font-family:'Yu Gothic UI';-inkscape-font-specification:'Yu Gothic UI Semi-Bold';stroke-width:0.26458332"
         id="path948"
         inkscape:connector-curvature="0" />
      <path
         d="M 22.787583,192.48956 H 22.33972 L 21.159775,190.674 q -0.04479,-0.0689 -0.07407,-0.14297 h -0.01034 q 0.01378,0.0792 0.01378,0.33934 v 1.61919 h -0.396186 v -2.47013 h 0.477146 l 1.140326,1.7725 q 0.07235,0.11024 0.09302,0.15159 h 0.0069 q -0.01723,-0.0982 -0.01723,-0.33246 v -1.59163 h 0.394464 z"
         style="font-style:normal;font-variant:normal;font-weight:600;font-stretch:normal;font-size:3.52777767px;font-family:'Yu Gothic UI';-inkscape-font-specification:'Yu Gothic UI Semi-Bold';stroke-width:0.26458332"
         id="path950"
         inkscape:connector-curvature="0" />
      <path
         d="m 25.123357,192.38621 q -0.279052,0.14469 -0.694186,0.14469 -0.537435,0 -0.861274,-0.33934 -0.323839,-0.33934 -0.323839,-0.89055 0,-0.59256 0.363457,-0.95774 0.36518,-0.36518 0.921563,-0.36518 0.35829,0 0.594279,0.10163 v 0.40652 q -0.249769,-0.14814 -0.551215,-0.14814 -0.401354,0 -0.651123,0.25666 -0.248047,0.25666 -0.248047,0.68557 0,0.40825 0.232544,0.65113 0.232544,0.24115 0.611505,0.24115 0.349677,0 0.606336,-0.16536 z"
         style="font-style:normal;font-variant:normal;font-weight:600;font-stretch:normal;font-size:3.52777767px;font-family:'Yu Gothic UI';-inkscape-font-specification:'Yu Gothic UI Semi-Bold';stroke-width:0.26458332"
         id="path952"
         inkscape:connector-curvature="0" />
      <path
         d="m 26.978542,192.48956 h -1.386651 v -2.47013 h 1.331529 v 0.34795 h -0.921563 v 0.69936 h 0.849216 v 0.34623 h -0.849216 v 0.73036 h 0.976685 z"
         style="font-style:normal;font-variant:normal;font-weight:600;font-stretch:normal;font-size:3.52777767px;font-family:'Yu Gothic UI';-inkscape-font-specification:'Yu Gothic UI Semi-Bold';stroke-width:0.26458332"
         id="path954"
         inkscape:connector-curvature="0" />
      <path
         d="m 27.304103,192.39138 v -0.42203 q 0.05684,0.0517 0.134358,0.093 0.07924,0.0413 0.167087,0.0706 0.08785,0.0276 0.1757,0.0431 0.08785,0.0155 0.16192,0.0155 0.258382,0 0.384128,-0.0861 0.127468,-0.0861 0.127468,-0.24976 0,-0.0879 -0.04306,-0.15159 -0.04134,-0.0655 -0.117134,-0.11885 -0.07579,-0.0534 -0.179144,-0.10163 -0.101631,-0.05 -0.218764,-0.10336 -0.125746,-0.0672 -0.234267,-0.13608 -0.10852,-0.0689 -0.18948,-0.15158 -0.07924,-0.0844 -0.125746,-0.18948 -0.04479,-0.10508 -0.04479,-0.24633 0,-0.17398 0.07752,-0.30144 0.07924,-0.12919 0.206705,-0.21188 0.129191,-0.0844 0.292834,-0.12402 0.163642,-0.0413 0.334174,-0.0413 0.387573,0 0.564995,0.0879 v 0.4048 q -0.21015,-0.15159 -0.54088,-0.15159 -0.09129,0 -0.18259,0.0172 -0.08957,0.0172 -0.161919,0.0568 -0.07062,0.0396 -0.115411,0.10163 -0.04479,0.062 -0.04479,0.14986 0,0.0827 0.03445,0.14298 0.03445,0.0603 0.09991,0.11024 0.06718,0.0499 0.161919,0.0982 0.09646,0.0465 0.222209,0.10163 0.129191,0.0672 0.242879,0.14125 0.115411,0.0741 0.201538,0.16365 0.08785,0.0896 0.137804,0.19981 0.05168,0.10852 0.05168,0.24805 0,0.18776 -0.07579,0.31695 -0.07579,0.12919 -0.204983,0.21015 -0.127468,0.081 -0.294556,0.11713 -0.167087,0.0362 -0.353122,0.0362 -0.06201,0 -0.153307,-0.0103 -0.08957,-0.009 -0.184312,-0.0276 -0.09474,-0.0172 -0.179145,-0.0431 -0.08441,-0.0258 -0.136081,-0.0586 z"
         style="font-style:normal;font-variant:normal;font-weight:600;font-stretch:normal;font-size:3.52777767px;font-family:'Yu Gothic UI';-inkscape-font-specification:'Yu Gothic UI Semi-Bold';stroke-width:0.26458332"
         id="path956"
         inkscape:connector-curvature="0" />
    </g>
    <g
       aria-label="TOGGLE"
       style="font-style:normal;font-variant:normal;font-weight:normal;font-stretch:normal;font-size:2.82222223px;line-height:1.25;font-family:'Yu Gothic UI';-inkscape-font-specification:'Yu Gothic UI';letter-spacing:0px;word-spacing:0px;fill:#ffffff;fill-opacity:1;stroke:none;stroke-width:0.26458332"
       id="text910">
      <path
         d="M 8.2647843,243.94075 H 7.6942765 v 1.76665 H 7.4627661 v -1.76665 H 6.8936363 v -0.20946 h 1.371148 z"
         style="stroke-width:0.26458332"
         id="path912" />
      <path
         d="m 9.3424102,245.74047 q -0.4203017,0 -0.6738607,-0.27699 -0.252181,-0.27698 -0.252181,-0.72071 0,-0.4768 0.2576932,-0.76068 0.2576931,-0.28387 0.7014214,-0.28387 0.4092774,0 0.6587019,0.27561 0.250803,0.2756 0.250803,0.72071 0,0.48369 -0.256315,0.76481 -0.2563149,0.28112 -0.6862628,0.28112 z m 0.016536,-1.83279 q -0.3114366,0 -0.50574,0.22462 -0.1943034,0.22462 -0.1943034,0.5898 0,0.36518 0.1887913,0.58842 0.1901692,0.22187 0.4947157,0.22187 0.325217,0 0.5126302,-0.21222 0.1874136,-0.21222 0.1874136,-0.59394 0,-0.39136 -0.1819014,-0.60495 -0.1819011,-0.2136 -0.501606,-0.2136 z"
         style="stroke-width:0.26458332"
         id="path914" />
      <path
         d="m 12.150852,245.57235 q -0.297656,0.16812 -0.661458,0.16812 -0.423058,0 -0.684885,-0.27285 -0.260449,-0.27285 -0.260449,-0.72209 0,-0.45889 0.289388,-0.75241 0.290766,-0.2949 0.735872,-0.2949 0.322461,0 0.541569,0.10473 v 0.25631 q -0.239779,-0.15158 -0.567752,-0.15158 -0.332107,0 -0.544325,0.22875 -0.212218,0.22876 -0.212218,0.59256 0,0.37483 0.19706,0.5898 0.197059,0.2136 0.534679,0.2136 0.23151,0 0.401009,-0.0923 v -0.55397 h -0.432704 v -0.20947 h 0.664214 z"
         style="stroke-width:0.26458332"
         id="path916" />
      <path
         d="m 14.085618,245.57235 q -0.297657,0.16812 -0.661459,0.16812 -0.423058,0 -0.684885,-0.27285 -0.260449,-0.27285 -0.260449,-0.72209 0,-0.45889 0.289388,-0.75241 0.290766,-0.2949 0.735872,-0.2949 0.322461,0 0.541569,0.10473 v 0.25631 q -0.239778,-0.15158 -0.567751,-0.15158 -0.332108,0 -0.544325,0.22875 -0.212218,0.22876 -0.212218,0.59256 0,0.37483 0.197059,0.5898 0.19706,0.2136 0.534679,0.2136 0.23151,0 0.401009,-0.0923 v -0.55397 h -0.432704 v -0.20947 h 0.664215 z"
         style="stroke-width:0.26458332"
         id="path919" />
      <path
         d="m 15.568387,245.7074 h -1.025261 v -1.97611 h 0.231511 v 1.76665 h 0.79375 z"
         style="stroke-width:0.26458332"
         id="path921" />
      <path
         d="m 16.918864,245.7074 h -1.047309 v -1.97611 h 1.003211 v 0.20946 h -0.771701 v 0.65733 h 0.713824 v 0.20808 h -0.713824 v 0.69178 h 0.815799 z"
         style="stroke-width:0.26458332"
         id="path923" />
    </g>
  </g>
  <g
     inkscape:groupmode="layer"
     id="layer2"
     inkscape:label="Grid6"
     style="display:none"
     sodipodi:insensitive="true">
    <g
       id="g1043"
       transform="translate(3.96875)">
      <path
         style="fill:none;stroke:#ffffff;stroke-width:0.05;stroke-linecap:butt;stroke-linejoin:miter;stroke-miterlimit:4;stroke-dasharray:none;stroke-opacity:1"
         d="M 7.9375,-6.666791e-6 7.937497,100.54166"
         id="path881-8-8"
         inkscape:connector-curvature="0"
         sodipodi:nodetypes="cc" />
      <path
         sodipodi:nodetypes="cc"
         inkscape:connector-curvature="0"
         id="path890-2-5"
         d="M 3.968752,3.333209e-6 3.968748,100.54167"
         style="fill:none;stroke:#ffffff;stroke-width:0.05;stroke-linecap:butt;stroke-linejoin:miter;stroke-miterlimit:4;stroke-dasharray:none;stroke-opacity:1" />
      <path
         style="fill:none;stroke:#ffffff;stroke-width:0.05;stroke-linecap:butt;stroke-linejoin:miter;stroke-miterlimit:4;stroke-dasharray:none;stroke-opacity:1"
         d="M 11.906253,3.333209e-6 11.906249,100.54167"
         id="path895-1-5"
         inkscape:connector-curvature="0"
         sodipodi:nodetypes="cc" />
      <path
         sodipodi:nodetypes="cc"
         inkscape:connector-curvature="0"
         id="path905-6-4"
         d="m 0,14.022554 15.875,3.66e-4"
         style="fill:none;stroke:#ffffff;stroke-width:0.05;stroke-linecap:butt;stroke-linejoin:miter;stroke-miterlimit:4;stroke-dasharray:none;stroke-opacity:1" />
      <path
         sodipodi:nodetypes="cc"
         style="fill:none;stroke:#ffffff;stroke-width:0.05;stroke-linecap:butt;stroke-linejoin:miter;stroke-miterlimit:4;stroke-dasharray:none;stroke-opacity:1"
         d="m 0,28.574653 15.875,3.5e-4"
         id="path1103"
         inkscape:connector-curvature="0" />
      <path
         sodipodi:nodetypes="cc"
         inkscape:connector-curvature="0"
         id="path1107"
         d="m 0,43.126625 15.875,4.61e-4"
         style="fill:none;stroke:#ffffff;stroke-width:0.05;stroke-linecap:butt;stroke-linejoin:miter;stroke-miterlimit:4;stroke-dasharray:none;stroke-opacity:1" />
      <path
         sodipodi:nodetypes="cc"
         style="fill:none;stroke:#ffffff;stroke-width:0.05;stroke-linecap:butt;stroke-linejoin:miter;stroke-miterlimit:4;stroke-dasharray:none;stroke-opacity:1"
         d="m 0,57.678726 15.875,4.44e-4"
         id="path1111"
         inkscape:connector-curvature="0" />
      <path
         sodipodi:nodetypes="cc"
         inkscape:connector-curvature="0"
         id="path1115"
         d="m 0,72.230958 15.875,2.95e-4"
         style="fill:none;stroke:#ffffff;stroke-width:0.05;stroke-linecap:butt;stroke-linejoin:miter;stroke-miterlimit:4;stroke-dasharray:none;stroke-opacity:1" />
      <path
         sodipodi:nodetypes="cc"
         style="fill:none;stroke:#ffffff;stroke-width:0.05;stroke-linecap:butt;stroke-linejoin:miter;stroke-miterlimit:4;stroke-dasharray:none;stroke-opacity:1"
         d="m 0,86.78293 15.875,4.06e-4"
         id="path1119"
         inkscape:connector-curvature="0" />
      <circle
         r="4.0999999"
         cy="28.574999"
         cx="7.9523039"
         id="circle1014"
         style="display:inline;opacity:1;fill:none;fill-opacity:1;stroke:#ffffff;stroke-width:0.05;stroke-linecap:square;stroke-linejoin:round;stroke-miterlimit:4;stroke-dasharray:none;stroke-dashoffset:0;stroke-opacity:1;paint-order:markers fill stroke" />
      <circle
         r="4.0999999"
         cy="43.127029"
         cx="7.9523039"
         id="circle1018"
         style="display:inline;opacity:1;fill:none;fill-opacity:1;stroke:#ffffff;stroke-width:0.05;stroke-linecap:square;stroke-linejoin:round;stroke-miterlimit:4;stroke-dasharray:none;stroke-dashoffset:0;stroke-opacity:1;paint-order:markers fill stroke" />
      <circle
         style="display:inline;opacity:1;fill:none;fill-opacity:1;stroke:#ffffff;stroke-width:0.05;stroke-linecap:square;stroke-linejoin:round;stroke-miterlimit:4;stroke-dasharray:none;stroke-dashoffset:0;stroke-opacity:1;paint-order:markers fill stroke"
         id="circle1022"
         cx="7.9523039"
         cy="57.679192"
         r="4.0999999" />
      <circle
         style="display:inline;opacity:1;fill:none;fill-opacity:1;stroke:#ffffff;stroke-width:0.05;stroke-linecap:square;stroke-linejoin:round;stroke-miterlimit:4;stroke-dasharray:none;stroke-dashoffset:0;stroke-opacity:1;paint-order:markers fill stroke"
         id="circle1026"
         cx="7.9523039"
         cy="72.231216"
         r="4.0999999" />
      <circle
         r="4.0999999"
         cy="86.783379"
         cx="7.9523039"
         id="circle1030"
         style="display:inline;opacity:1;fill:none;fill-opacity:1;stroke:#ffffff;stroke-width:0.05;stroke-linecap:square;stroke-linejoin:round;stroke-miterlimit:4;stroke-dasharray:none;stroke-dashoffset:0;stroke-opacity:1;paint-order:markers fill stroke" />
      <circle
         r="5.4741378"
         cy="14.023306"
         cx="7.9360795"
         id="circle943"
         style="display:inline;opacity:1;fill:none;fill-opacity:1;stroke:#ffffff;stroke-width:0.05172414;stroke-linecap:square;stroke-linejoin:round;stroke-miterlimit:4;stroke-dasharray:none;stroke-dashoffset:0;stroke-opacity:1;paint-order:markers fill stroke" />
      <circle
         style="display:inline;opacity:1;fill:none;fill-opacity:1;stroke:#ffffff;stroke-width:0.05172414;stroke-linecap:square;stroke-linejoin:round;stroke-miterlimit:4;stroke-dasharray:none;stroke-dashoffset:0;stroke-opacity:1;paint-order:markers fill stroke"
         id="circle975"
         cx="7.9360795"
         cy="28.575279"
         r="5.4741378" />
      <circle
         style="display:inline;opacity:1;fill:none;fill-opacity:1;stroke:#ffffff;stroke-width:0.05172414;stroke-linecap:square;stroke-linejoin:round;stroke-miterlimit:4;stroke-dasharray:none;stroke-dashoffset:0;stroke-opacity:1;paint-order:markers fill stroke"
         id="circle977"
         cx="7.9360795"
         cy="43.127499"
         r="5.4741378" />
      <circle
         r="5.4741378"
         cy="57.679474"
         cx="7.9360795"
         id="circle979"
         style="display:inline;opacity:1;fill:none;fill-opacity:1;stroke:#ffffff;stroke-width:0.05172414;stroke-linecap:square;stroke-linejoin:round;stroke-miterlimit:4;stroke-dasharray:none;stroke-dashoffset:0;stroke-opacity:1;paint-order:markers fill stroke" />
      <circle
         r="5.4741378"
         cy="72.231689"
         cx="7.9360795"
         id="circle981"
         style="display:inline;opacity:1;fill:none;fill-opacity:1;stroke:#ffffff;stroke-width:0.05172414;stroke-linecap:square;stroke-linejoin:round;stroke-miterlimit:4;stroke-dasharray:none;stroke-dashoffset:0;stroke-opacity:1;paint-order:markers fill stroke" />
      <circle
         style="display:inline;opacity:1;fill:none;fill-opacity:1;stroke:#ffffff;stroke-width:0.05172414;stroke-linecap:square;stroke-linejoin:round;stroke-miterlimit:4;stroke-dasharray:none;stroke-dashoffset:0;stroke-opacity:1;paint-order:markers fill stroke"
         id="circle983"
         cx="7.9360795"
         cy="86.783661"
         r="5.4741378" />
      <circle
         style="display:inline;opacity:1;fill:none;fill-opacity:1;stroke:#ffffff;stroke-width:0.05;stroke-linecap:square;stroke-linejoin:round;stroke-miterlimit:4;stroke-dasharray:none;stroke-dashoffset:0;stroke-opacity:1;paint-order:markers fill stroke"
         id="circle1020"
         cx="7.9523039"
         cy="14.022902"
         r="4.0999999" />
    </g>
  </g>
</svg>
