<?xml version="1.0" encoding="UTF-8" standalone="no"?>
<!-- Created with Inkscape (http://www.inkscape.org/) -->

<svg
   xmlns:dc="http://purl.org/dc/elements/1.1/"
   xmlns:cc="http://creativecommons.org/ns#"
   xmlns:rdf="http://www.w3.org/1999/02/22-rdf-syntax-ns#"
   xmlns:svg="http://www.w3.org/2000/svg"
   xmlns="http://www.w3.org/2000/svg"
   xmlns:sodipodi="http://sodipodi.sourceforge.net/DTD/sodipodi-0.dtd"
   xmlns:inkscape="http://www.inkscape.org/namespaces/inkscape"
   width="120"
   height="380"
   viewBox="0 0 31.750001 100.54167"
   version="1.1"
   id="svg8"
   inkscape:version="0.92.4 (5da689c313, 2019-01-14)"
   sodipodi:docname="SlopeDetector.svg">
  <defs
     id="defs2" />
  <sodipodi:namedview
     id="base"
     pagecolor="#ffffff"
     bordercolor="#666666"
     borderopacity="1.0"
     inkscape:pageopacity="0.0"
     inkscape:pageshadow="2"
     inkscape:zoom="2.2789474"
     inkscape:cx="60"
     inkscape:cy="190"
     inkscape:document-units="mm"
     inkscape:current-layer="layer2"
     showgrid="true"
     units="px"
     inkscape:snap-bbox="true"
     inkscape:snap-page="true"
     inkscape:bbox-nodes="true"
     inkscape:snap-bbox-edge-midpoints="true"
     inkscape:window-width="1920"
     inkscape:window-height="1017"
     inkscape:window-x="-8"
     inkscape:window-y="-8"
     inkscape:window-maximized="1">
    <inkscape:grid
       type="xygrid"
       id="grid871" />
  </sodipodi:namedview>
  <metadata
     id="metadata5">
    <rdf:RDF>
      <cc:Work
         rdf:about="">
        <dc:format>image/svg+xml</dc:format>
        <dc:type
           rdf:resource="http://purl.org/dc/dcmitype/StillImage" />
        <dc:title />
      </cc:Work>
    </rdf:RDF>
  </metadata>
  <g
     inkscape:groupmode="layer"
     id="layer2"
     inkscape:label="Panel"
     sodipodi:insensitive="true">
    <rect
       id="rect3855"
       width="31.75"
       height="100.54167"
       x="-3.3306691e-16"
       y="-7.0117189e-06"
       style="fill:#520000;fill-opacity:1;stroke-width:0.46816438" />
  </g>
  <g
     inkscape:label="Layer 1"
     inkscape:groupmode="layer"
     id="layer1"
     transform="translate(0,-196.45832)"
     style="display:inline"
     sodipodi:insensitive="true">
    <path
       sodipodi:type="inkscape:offset"
       inkscape:radius="0"
       inkscape:original="M 1.3222656 240.14453 L 1.3222656 285.73828 L 30.427734 285.73828 L 30.427734 240.14453 L 1.3222656 240.14453 z "
       style="fill:#6f1e00;fill-opacity:1;stroke-width:0.36661708"
       id="rect897"
       d="m 1.3222656,240.14453 v 45.59375 H 30.427734 v -45.59375 z"
       transform="matrix(1,0,0,1.0296724,0,-8.4785448)" />
    <rect
       style="fill:#ffffff;stroke-width:0.26071662"
       id="rect4699-1"
       width="0.26726949"
       height="12.7"
       x="263.25726"
       y="-23.8125"
       transform="rotate(90)" />
    <rect
       style="fill:#ffffff;stroke-width:0.26071662"
       id="rect4699-1-1"
       width="0.26726949"
       height="12.7"
       x="279.92548"
       y="-23.8125"
       transform="rotate(90)" />
    <g
       aria-label="/^M^\"
       style="font-style:normal;font-variant:normal;font-weight:normal;font-stretch:normal;font-size:2.82222223px;line-height:1.25;font-family:'Copperplate Gothic Light';-inkscape-font-specification:'Copperplate Gothic Light, ';letter-spacing:0px;word-spacing:0px;fill:#ffffff;fill-opacity:1;stroke:#ffffff;stroke-width:0.2;stroke-miterlimit:4;stroke-dasharray:none;stroke-opacity:1"
       id="text956"
       transform="translate(-9.481569,3.6487283)">
      <path
         d="m 21.203855,291.40545 v 0.0386 h -0.434082 v -0.0386 q 0.09509,-0.006 0.224621,-0.17088 l 1.094162,-1.4621 q 0.07441,-0.1006 0.07441,-0.12402 0,-0.0372 -0.06615,-0.0482 v -0.0372 h 0.423058 v 0.0372 q -0.09508,0.006 -0.22462,0.17087 l -1.08176,1.46348 q -0.07579,0.10197 -0.07579,0.12402 0,0.0358 0.06615,0.0469 z"
         style="font-style:normal;font-variant:normal;font-weight:normal;font-stretch:normal;font-size:2.82222223px;line-height:1.25;font-family:'Copperplate Gothic Light';-inkscape-font-specification:'Copperplate Gothic Light, ';fill:#ffffff;stroke:#ffffff;stroke-width:0.2;stroke-miterlimit:4;stroke-dasharray:none;stroke-opacity:1"
         id="path958"
         inkscape:connector-curvature="0" />
      <path
         d="M 22.940183,290.3857 H 22.73899 l 0.493338,-0.8282 h 0.243912 l 0.493338,0.8282 h -0.20395 l -0.413411,-0.68075 z"
         style="font-style:normal;font-variant:normal;font-weight:normal;font-stretch:normal;font-size:2.82222223px;line-height:1.25;font-family:'Copperplate Gothic Light';-inkscape-font-specification:'Copperplate Gothic Light, ';fill:#ffffff;stroke:#ffffff;stroke-width:0.2;stroke-miterlimit:4;stroke-dasharray:none;stroke-opacity:1"
         id="path960"
         inkscape:connector-curvature="0" />
      <path
         d="m 25.342104,291.44403 -0.789616,-1.58061 v 1.418 q 0,0.0565 0.01791,0.0813 0.01791,0.0234 0.07028,0.0372 v 0.0441 h -0.373449 v -0.0441 q 0.05237,-0.0138 0.07028,-0.0372 0.01792,-0.0234 0.01792,-0.0813 v -1.5558 q 0,-0.0579 -0.01792,-0.0813 -0.01791,-0.0248 -0.07028,-0.0372 v -0.0441 h 0.487826 v 0.0441 q -0.06752,0.0234 -0.06752,0.0579 0,0.0165 0.04547,0.10611 l 0.62563,1.24161 0.628385,-1.25263 q 0.03307,-0.0661 0.03307,-0.0937 0,-0.0358 -0.06752,-0.0593 v -0.0441 h 0.49196 v 0.0441 q -0.05237,0.0138 -0.07028,0.0372 -0.01792,0.0234 -0.01792,0.0813 v 1.5558 q 0,0.0565 0.01792,0.0813 0.01791,0.0234 0.07028,0.0372 v 0.0441 h -0.392741 v -0.0441 q 0.05374,-0.0138 0.07028,-0.0372 0.01791,-0.0234 0.01791,-0.0813 v -1.418 z"
         style="font-style:normal;font-variant:normal;font-weight:normal;font-stretch:normal;font-size:2.82222223px;line-height:1.25;font-family:'Copperplate Gothic Light';-inkscape-font-specification:'Copperplate Gothic Light, ';fill:#ffffff;stroke:#ffffff;stroke-width:0.2;stroke-miterlimit:4;stroke-dasharray:none;stroke-opacity:1"
         id="path962"
         inkscape:connector-curvature="0" />
      <path
         d="m 26.942006,290.3857 h -0.201193 l 0.493338,-0.8282 h 0.243912 l 0.493338,0.8282 h -0.20395 l -0.413411,-0.68075 z"
         style="font-style:normal;font-variant:normal;font-weight:normal;font-stretch:normal;font-size:2.82222223px;line-height:1.25;font-family:'Copperplate Gothic Light';-inkscape-font-specification:'Copperplate Gothic Light, ';fill:#ffffff;stroke:#ffffff;stroke-width:0.2;stroke-miterlimit:4;stroke-dasharray:none;stroke-opacity:1"
         id="path964"
         inkscape:connector-curvature="0" />
      <path
         d="m 28.617701,289.56301 v 0.0372 q -0.06615,0.011 -0.06615,0.0482 0,0.0234 0.07441,0.12402 l 1.092784,1.4621 q 0.129536,0.16536 0.22462,0.17088 v 0.0386 h -0.434082 v -0.0386 q 0.06615,-0.011 0.06615,-0.0469 0,-0.0207 -0.07579,-0.12402 l -1.080382,-1.46348 q -0.129535,-0.16536 -0.22462,-0.17087 v -0.0372 z"
         style="font-style:normal;font-variant:normal;font-weight:normal;font-stretch:normal;font-size:2.82222223px;line-height:1.25;font-family:'Copperplate Gothic Light';-inkscape-font-specification:'Copperplate Gothic Light, ';fill:#ffffff;stroke:#ffffff;stroke-width:0.2;stroke-miterlimit:4;stroke-dasharray:none;stroke-opacity:1"
         id="path966"
         inkscape:connector-curvature="0" />
    </g>
    <g
       aria-label="INPUT"
       style="font-style:normal;font-variant:normal;font-weight:normal;font-stretch:normal;font-size:2.82222223px;line-height:1.25;font-family:'Yu Gothic UI';-inkscape-font-specification:'Yu Gothic UI';letter-spacing:0px;word-spacing:0px;fill:#ffffff;fill-opacity:1;stroke:none;stroke-width:0.26458332"
       id="text922"
       transform="translate(-3.9714364,-30.3576)">
      <path
         d="M 8.3619357,239.58537 H 8.1304253 v -1.9761 h 0.2315104 z"
         style="fill:#ffffff;stroke-width:0.26458332"
         id="path924"
         inkscape:connector-curvature="0" />
      <path
         d="m 10.47309,239.58537 h -0.283876 l -1.0169918,-1.57509 q -0.038585,-0.0593 -0.06339,-0.12403 h -0.00827 q 0.011024,0.0634 0.011024,0.27148 v 1.42764 H 8.8800781 v -1.9761 h 0.3004123 l 0.9894316,1.55029 q 0.06201,0.0965 0.07993,0.13229 h 0.0055 q -0.01378,-0.0854 -0.01378,-0.29077 v -1.39181 h 0.23151 z"
         style="fill:#ffffff;stroke-width:0.26458332"
         id="path926"
         inkscape:connector-curvature="0" />
      <path
         d="m 11.222743,238.83848 v 0.74689 h -0.23151 v -1.9761 h 0.542947 q 0.316949,0 0.490581,0.15434 0.175011,0.15434 0.175011,0.43546 0,0.28112 -0.194303,0.46026 -0.192926,0.17915 -0.522277,0.17915 z m 0,-1.01975 v 0.81028 h 0.242535 q 0.239778,0 0.36518,-0.10886 0.126779,-0.11024 0.126779,-0.31006 0,-0.39136 -0.46302,-0.39136 z"
         style="fill:#ffffff;stroke-width:0.26458332"
         id="path928"
         inkscape:connector-curvature="0" />
      <path
         d="m 14.018783,238.78611 q 0,0.83234 -0.751031,0.83234 -0.719336,0 -0.719336,-0.80064 v -1.20854 h 0.23151 v 1.19338 q 0,0.60771 0.512631,0.60771 0.494715,0 0.494715,-0.58704 v -1.21405 h 0.231511 z"
         style="fill:#ffffff;stroke-width:0.26458332"
         id="path930"
         inkscape:connector-curvature="0" />
      <path
         d="m 15.682075,237.81873 h -0.570508 v 1.76664 h -0.231511 v -1.76664 h -0.569129 v -0.20946 h 1.371148 z"
         style="fill:#ffffff;stroke-width:0.26458332"
         id="path932"
         inkscape:connector-curvature="0" />
    </g>
    <g
       aria-label="SLOPE"
       style="font-style:normal;font-variant:normal;font-weight:600;font-stretch:normal;font-size:3.52777767px;line-height:1.25;font-family:'Yu Gothic UI';-inkscape-font-specification:'Yu Gothic UI Semi-Bold';letter-spacing:0px;word-spacing:0px;fill:#ffffff;fill-opacity:1;stroke:none;stroke-width:0.26458332"
       id="text876"
       transform="translate(1.2409219,1.0583333)">
      <path
         d="m 9.7162024,199.00597 v -0.42202 q 0.056844,0.0517 0.1343587,0.093 0.079237,0.0413 0.1670869,0.0706 0.08785,0.0276 0.1757,0.0431 0.08785,0.0155 0.16192,0.0155 0.258382,0 0.384128,-0.0861 0.127468,-0.0861 0.127468,-0.24977 0,-0.0879 -0.04306,-0.15159 -0.04134,-0.0654 -0.117134,-0.11885 -0.07579,-0.0534 -0.179145,-0.10163 -0.10163,-0.05 -0.218763,-0.10335 -0.125746,-0.0672 -0.234267,-0.13609 -0.1085202,-0.0689 -0.1894799,-0.15158 -0.079237,-0.0844 -0.125746,-0.18948 -0.044786,-0.10508 -0.044786,-0.24632 0,-0.17398 0.077515,-0.30145 0.079237,-0.12919 0.2067057,-0.21187 0.1291912,-0.0844 0.2928332,-0.12403 0.163642,-0.0413 0.334175,-0.0413 0.387573,0 0.564995,0.0879 v 0.4048 q -0.210151,-0.15158 -0.54088,-0.15158 -0.09129,0 -0.18259,0.0172 -0.08957,0.0172 -0.161919,0.0568 -0.07062,0.0396 -0.115411,0.10163 -0.04479,0.062 -0.04479,0.14986 0,0.0827 0.03445,0.14297 0.03445,0.0603 0.09991,0.11024 0.06718,0.05 0.161919,0.0982 0.09646,0.0465 0.222209,0.10163 0.129191,0.0672 0.242879,0.14125 0.115411,0.0741 0.201538,0.16364 0.08785,0.0896 0.137804,0.19981 0.05168,0.10852 0.05168,0.24805 0,0.18776 -0.07579,0.31695 -0.07579,0.12919 -0.204983,0.21015 -0.127469,0.081 -0.294556,0.11713 -0.167087,0.0362 -0.353122,0.0362 -0.06201,0 -0.153307,-0.0103 -0.08957,-0.009 -0.184312,-0.0276 -0.09474,-0.0172 -0.1791457,-0.0431 -0.084405,-0.0258 -0.1360813,-0.0586 z"
         style="font-style:normal;font-variant:normal;font-weight:600;font-stretch:normal;font-size:3.52777767px;font-family:'Yu Gothic UI';-inkscape-font-specification:'Yu Gothic UI Semi-Bold';fill:#ffffff;stroke-width:0.26458332"
         id="path900"
         inkscape:connector-curvature="0" />
      <path
         d="m 13.119957,199.10416 h -1.367703 v -2.47014 h 0.409966 v 2.1239 h 0.957737 z"
         style="font-style:normal;font-variant:normal;font-weight:600;font-stretch:normal;font-size:3.52777767px;font-family:'Yu Gothic UI';-inkscape-font-specification:'Yu Gothic UI Semi-Bold';fill:#ffffff;stroke-width:0.26458332"
         id="path902"
         inkscape:connector-curvature="0" />
      <path
         d="m 14.458376,199.1455 q -0.533989,0 -0.856106,-0.34623 -0.320394,-0.34624 -0.320394,-0.9009 0,-0.596 0.327284,-0.95084 0.327284,-0.35485 0.888835,-0.35485 0.520209,0 0.837158,0.34451 0.318671,0.34451 0.318671,0.90089 0,0.60462 -0.325561,0.95602 -0.325562,0.3514 -0.869887,0.3514 z m 0.01895,-2.19281 q -0.339342,0 -0.552937,0.25322 -0.211874,0.25321 -0.211874,0.66662 0,0.41169 0.206706,0.66319 0.206706,0.25149 0.54088,0.25149 0.354845,0 0.559828,-0.23944 0.204983,-0.23943 0.204983,-0.67007 0,-0.44269 -0.199816,-0.68385 -0.198093,-0.24116 -0.54777,-0.24116 z"
         style="font-style:normal;font-variant:normal;font-weight:600;font-stretch:normal;font-size:3.52777767px;font-family:'Yu Gothic UI';-inkscape-font-specification:'Yu Gothic UI Semi-Bold';fill:#ffffff;stroke-width:0.26458332"
         id="path904"
         inkscape:connector-curvature="0" />
      <path
         d="m 16.515099,198.20843 v 0.89573 h -0.408244 v -2.47014 h 0.749308 q 0.425469,0 0.659736,0.1981 0.234266,0.19809 0.234266,0.5581 0,0.36001 -0.244602,0.58911 -0.244601,0.2291 -0.661458,0.2291 z m 0,-1.23679 v 0.90262 h 0.265272 q 0.26355,0 0.401354,-0.1223 0.137803,-0.1223 0.137803,-0.34451 0,-0.43581 -0.506429,-0.43581 z"
         style="font-style:normal;font-variant:normal;font-weight:600;font-stretch:normal;font-size:3.52777767px;font-family:'Yu Gothic UI';-inkscape-font-specification:'Yu Gothic UI Semi-Bold';fill:#ffffff;stroke-width:0.26458332"
         id="path906"
         inkscape:connector-curvature="0" />
      <path
         d="m 19.553673,199.10416 h -1.386651 v -2.47014 h 1.331529 v 0.34796 h -0.921563 v 0.69935 h 0.849216 v 0.34623 h -0.849216 v 0.73036 h 0.976685 z"
         style="font-style:normal;font-variant:normal;font-weight:600;font-stretch:normal;font-size:3.52777767px;font-family:'Yu Gothic UI';-inkscape-font-specification:'Yu Gothic UI Semi-Bold';fill:#ffffff;stroke-width:0.26458332"
         id="path908"
         inkscape:connector-curvature="0" />
    </g>
    <g
       aria-label="DETECTOR"
       style="font-style:normal;font-variant:normal;font-weight:600;font-stretch:normal;font-size:3.52777767px;line-height:1.25;font-family:'Yu Gothic UI';-inkscape-font-specification:'Yu Gothic UI Semi-Bold';letter-spacing:0px;word-spacing:0px;fill:#ffffff;fill-opacity:1;stroke:none;stroke-width:0.26458332"
       id="text880"
       transform="translate(-3.4192565,-2.6694569)">
      <path
         d="m 10.888224,206.24791 v -2.47013 h 0.713135 q 1.36598,0 1.36598,1.20406 0,0.57188 -0.37896,0.91984 -0.378961,0.34623 -1.016304,0.34623 z m 0.408244,-2.12218 v 1.77595 h 0.327284 q 0.432359,0 0.671793,-0.23771 0.241157,-0.23772 0.241157,-0.6718 0,-0.86644 -0.897447,-0.86644 z"
         style="font-style:normal;font-variant:normal;font-weight:600;font-stretch:normal;font-size:3.52777767px;font-family:'Yu Gothic UI';-inkscape-font-specification:'Yu Gothic UI Semi-Bold';fill:#ffffff;stroke-width:0.26458332"
         id="path882"
         inkscape:connector-curvature="0" />
      <path
         d="m 14.803575,206.24791 h -1.386651 v -2.47013 h 1.331529 v 0.34795 H 13.82689 v 0.69936 h 0.849216 v 0.34623 H 13.82689 v 0.73036 h 0.976685 z"
         style="font-style:normal;font-variant:normal;font-weight:600;font-stretch:normal;font-size:3.52777767px;font-family:'Yu Gothic UI';-inkscape-font-specification:'Yu Gothic UI Semi-Bold';fill:#ffffff;stroke-width:0.26458332"
         id="path884"
         inkscape:connector-curvature="0" />
      <path
         d="m 16.827569,204.12573 h -0.70969 v 2.12218 h -0.409966 v -2.12218 h -0.707967 v -0.34795 h 1.827623 z"
         style="font-style:normal;font-variant:normal;font-weight:600;font-stretch:normal;font-size:3.52777767px;font-family:'Yu Gothic UI';-inkscape-font-specification:'Yu Gothic UI Semi-Bold';fill:#ffffff;stroke-width:0.26458332"
         id="path886"
         inkscape:connector-curvature="0" />
      <path
         d="m 18.579399,206.24791 h -1.386651 v -2.47013 h 1.33153 v 0.34795 h -0.921563 v 0.69936 h 0.849216 v 0.34623 h -0.849216 v 0.73036 h 0.976684 z"
         style="font-style:normal;font-variant:normal;font-weight:600;font-stretch:normal;font-size:3.52777767px;font-family:'Yu Gothic UI';-inkscape-font-specification:'Yu Gothic UI Semi-Bold';fill:#ffffff;stroke-width:0.26458332"
         id="path889"
         inkscape:connector-curvature="0" />
      <path
         d="m 20.741197,206.14456 q -0.279053,0.14469 -0.694187,0.14469 -0.537434,0 -0.861273,-0.33934 -0.323839,-0.33934 -0.323839,-0.89056 0,-0.59255 0.363457,-0.95773 0.36518,-0.36518 0.921563,-0.36518 0.35829,0 0.594279,0.10163 v 0.40652 q -0.249769,-0.14814 -0.551215,-0.14814 -0.401354,0 -0.651123,0.25666 -0.248047,0.25666 -0.248047,0.68557 0,0.40824 0.232544,0.65112 0.232544,0.24116 0.611504,0.24116 0.349677,0 0.606337,-0.16536 z"
         style="font-style:normal;font-variant:normal;font-weight:600;font-stretch:normal;font-size:3.52777767px;font-family:'Yu Gothic UI';-inkscape-font-specification:'Yu Gothic UI Semi-Bold';fill:#ffffff;stroke-width:0.26458332"
         id="path891"
         inkscape:connector-curvature="0" />
      <path
         d="m 22.794473,204.12573 h -0.709689 v 2.12218 h -0.409967 v -2.12218 H 20.96685 v -0.34795 h 1.827623 z"
         style="font-style:normal;font-variant:normal;font-weight:600;font-stretch:normal;font-size:3.52777767px;font-family:'Yu Gothic UI';-inkscape-font-specification:'Yu Gothic UI Semi-Bold';fill:#ffffff;stroke-width:0.26458332"
         id="path893"
         inkscape:connector-curvature="0" />
      <path
         d="m 24.143228,206.28925 q -0.53399,0 -0.856106,-0.34623 -0.320394,-0.34623 -0.320394,-0.90089 0,-0.59601 0.327284,-0.95085 0.327284,-0.35484 0.888835,-0.35484 0.520209,0 0.837158,0.3445 0.318671,0.34451 0.318671,0.9009 0,0.60461 -0.325561,0.95601 -0.325562,0.3514 -0.869887,0.3514 z m 0.01895,-2.1928 q -0.339342,0 -0.552938,0.25321 -0.211873,0.25322 -0.211873,0.66663 0,0.41169 0.206706,0.66318 0.206705,0.25149 0.54088,0.25149 0.354845,0 0.559828,-0.23943 0.204983,-0.23944 0.204983,-0.67007 0,-0.4427 -0.199816,-0.68386 -0.198093,-0.24115 -0.54777,-0.24115 z"
         style="font-style:normal;font-variant:normal;font-weight:600;font-stretch:normal;font-size:3.52777767px;font-family:'Yu Gothic UI';-inkscape-font-specification:'Yu Gothic UI Semi-Bold';fill:#ffffff;stroke-width:0.26458332"
         id="path895"
         inkscape:connector-curvature="0" />
      <path
         d="m 27.700289,206.24791 h -0.478868 l -0.394463,-0.66146 q -0.0534,-0.0913 -0.105076,-0.15503 -0.04995,-0.0654 -0.103353,-0.1068 -0.05168,-0.0413 -0.113688,-0.0603 -0.06201,-0.0189 -0.139526,-0.0189 H 26.19995 v 1.00252 h -0.408244 v -2.47013 h 0.813043 q 0.173977,0 0.320394,0.0413 0.146416,0.0413 0.254937,0.12574 0.10852,0.0827 0.16881,0.20843 0.06201,0.12402 0.06201,0.29111 0,0.13092 -0.03962,0.24116 -0.0379,0.10852 -0.110243,0.19465 -0.07062,0.0844 -0.172255,0.14469 -0.09991,0.0603 -0.225654,0.093 v 0.007 q 0.06718,0.0379 0.117133,0.0844 0.04995,0.0448 0.09474,0.093 0.04479,0.0482 0.08785,0.11024 0.04479,0.0603 0.09819,0.14125 z m -1.500339,-2.13768 v 0.80271 h 0.341065 q 0.09474,0 0.173977,-0.0293 0.08096,-0.0293 0.139526,-0.0844 0.05857,-0.0551 0.0913,-0.13436 0.03273,-0.0792 0.03273,-0.17742 0,-0.17743 -0.111966,-0.27733 -0.111965,-0.0999 -0.322116,-0.0999 z"
         style="font-style:normal;font-variant:normal;font-weight:600;font-stretch:normal;font-size:3.52777767px;font-family:'Yu Gothic UI';-inkscape-font-specification:'Yu Gothic UI Semi-Bold';fill:#ffffff;stroke-width:0.26458332"
         id="path897"
         inkscape:connector-curvature="0" />
    </g>
    <rect
       transform="rotate(90)"
       y="-23.8125"
       x="246.57498"
       height="12.7"
       width="0.26726949"
       id="rect991"
       style="fill:#ffffff;stroke-width:0.26071662" />
    <g
       aria-label="RANGE"
       style="font-style:normal;font-variant:normal;font-weight:normal;font-stretch:normal;font-size:2.82222223px;line-height:1.25;font-family:'Yu Gothic UI';-inkscape-font-specification:'Yu Gothic UI';letter-spacing:0px;word-spacing:0px;fill:#ffffff;fill-opacity:1;stroke:none;stroke-width:0.26458332"
       id="text935"
       transform="translate(-3.2399644,-2.0753254)">
      <path
         d="m 24.165278,225.56248 h -0.275607 l -0.330729,-0.55397 q -0.04548,-0.0772 -0.08819,-0.13091 -0.04272,-0.0551 -0.08819,-0.0896 -0.0441,-0.0344 -0.09646,-0.0496 -0.05099,-0.0165 -0.115755,-0.0165 h -0.190169 v 0.8406 h -0.231511 v -1.9761 h 0.589801 q 0.129535,0 0.2384,0.0331 0.110243,0.0317 0.190169,0.0978 0.08131,0.0662 0.12678,0.16537 0.04547,0.0978 0.04547,0.23013 0,0.10335 -0.03169,0.19017 -0.03032,0.0854 -0.08819,0.15296 -0.0565,0.0675 -0.137804,0.11576 -0.07993,0.0469 -0.180523,0.073 v 0.006 q 0.04961,0.0221 0.08544,0.051 0.03721,0.0276 0.07028,0.0661 0.03307,0.0386 0.06477,0.0882 0.03307,0.0482 0.07304,0.113 z m -1.185112,-1.76664 v 0.71658 h 0.314192 q 0.08682,0 0.159853,-0.0262 0.07441,-0.0262 0.128157,-0.0744 0.05374,-0.0496 0.08406,-0.11989 0.03032,-0.0717 0.03032,-0.15985 0,-0.15847 -0.103352,-0.24667 -0.101975,-0.0896 -0.296279,-0.0896 z"
         style="font-size:2.82222223px;fill:#ffffff;stroke-width:0.26458332"
         id="path937"
         inkscape:connector-curvature="0" />
      <path
         d="m 25.964996,225.56248 h -0.256315 l -0.209462,-0.55397 h -0.837847 l -0.197059,0.55397 H 24.20662 l 0.757921,-1.9761 h 0.239778 z m -0.541569,-0.76205 -0.310058,-0.84198 q -0.01516,-0.0413 -0.03032,-0.13229 h -0.0055 q -0.01378,0.0841 -0.03169,0.13229 l -0.307303,0.84198 z"
         style="font-size:2.82222223px;fill:#ffffff;stroke-width:0.26458332"
         id="path939"
         inkscape:connector-curvature="0" />
      <path
         d="m 27.847397,225.56248 h -0.283876 l -1.016993,-1.57509 q -0.03858,-0.0593 -0.06339,-0.12403 h -0.0083 q 0.01103,0.0634 0.01103,0.27148 v 1.42764 h -0.231511 v -1.9761 h 0.300413 l 0.989431,1.55029 q 0.06201,0.0965 0.07993,0.13229 h 0.0055 q -0.01378,-0.0854 -0.01378,-0.29076 v -1.39182 h 0.231511 z"
         style="font-size:2.82222223px;fill:#ffffff;stroke-width:0.26458332"
         id="path941"
         inkscape:connector-curvature="0" />
      <path
         d="m 29.842796,225.42744 q -0.297656,0.16812 -0.661458,0.16812 -0.423058,0 -0.684885,-0.27285 -0.26045,-0.27286 -0.26045,-0.7221 0,-0.45888 0.289388,-0.7524 0.290766,-0.2949 0.735873,-0.2949 0.322461,0 0.541569,0.10473 v 0.25631 q -0.239779,-0.15158 -0.567752,-0.15158 -0.332107,0 -0.544325,0.22875 -0.212218,0.22876 -0.212218,0.59256 0,0.37482 0.19706,0.5898 0.197059,0.21359 0.534678,0.21359 0.231511,0 0.401009,-0.0923 v -0.55398 h -0.432704 v -0.20946 h 0.664215 z"
         style="font-size:2.82222223px;fill:#ffffff;stroke-width:0.26458332"
         id="path943"
         inkscape:connector-curvature="0" />
      <path
         d="m 31.347613,225.56248 h -1.047309 v -1.9761 h 1.003212 v 0.20946 h -0.771701 v 0.65732 h 0.713823 v 0.20809 h -0.713823 v 0.69177 h 0.815798 z"
         style="font-size:2.82222223px;fill:#ffffff;stroke-width:0.26458332"
         id="path945"
         inkscape:connector-curvature="0" />
    </g>
    <g
       aria-label="FAST"
       style="font-style:normal;font-variant:normal;font-weight:normal;font-stretch:normal;font-size:2.11666656px;line-height:1.25;font-family:'Yu Gothic UI';-inkscape-font-specification:'Yu Gothic UI';letter-spacing:0px;word-spacing:0px;fill:#ffffff;fill-opacity:1;stroke:none;stroke-width:0.26458332"
       id="text950"
       transform="translate(-2.3529027,-1.8074598)">
      <path
         d="m 24.759212,236.14375 h -0.578776 v 0.51263 h 0.535368 v 0.15606 h -0.535368 v 0.65629 h -0.173633 v -1.48208 h 0.752409 z"
         style="font-size:2.11666656px;fill:#ffffff;stroke-width:0.26458332"
         id="path967"
         inkscape:connector-curvature="0" />
      <path
         d="m 26.113135,237.46873 h -0.192237 l -0.157096,-0.41547 h -0.628385 l -0.147795,0.41547 h -0.19327 l 0.568441,-1.48208 h 0.179834 z m -0.406177,-0.57154 -0.232544,-0.63148 q -0.01137,-0.031 -0.02274,-0.0992 h -0.0041 q -0.01033,0.063 -0.02377,0.0992 l -0.230477,0.63148 z"
         style="font-size:2.11666656px;fill:#ffffff;stroke-width:0.26458332"
         id="path969"
         inkscape:connector-curvature="0" />
      <path
         d="m 26.260929,237.40879 v -0.20464 q 0.03514,0.031 0.08372,0.0558 0.04961,0.0248 0.103353,0.0424 0.05478,0.0165 0.109554,0.0258 0.05478,0.009 0.101286,0.009 0.160197,0 0.238745,-0.0589 0.07958,-0.06 0.07958,-0.17157 0,-0.0599 -0.02687,-0.10439 -0.02584,-0.0444 -0.07235,-0.0806 -0.04651,-0.0372 -0.110588,-0.0703 -0.06305,-0.0341 -0.136425,-0.0713 -0.07751,-0.0393 -0.144694,-0.0796 -0.06718,-0.0403 -0.116789,-0.0889 -0.04961,-0.0486 -0.07855,-0.10955 -0.02791,-0.062 -0.02791,-0.1447 0,-0.10128 0.04444,-0.1757 0.04444,-0.0755 0.116789,-0.12402 0.07235,-0.0486 0.164331,-0.0724 0.09302,-0.0238 0.189136,-0.0238 0.219108,0 0.31936,0.0527 v 0.19534 q -0.131258,-0.0909 -0.33693,-0.0909 -0.05684,0 -0.113689,0.0124 -0.05684,0.0114 -0.101285,0.0382 -0.04444,0.0269 -0.07235,0.0693 -0.02791,0.0424 -0.02791,0.10335 0,0.0568 0.02067,0.0982 0.0217,0.0413 0.06304,0.0754 0.04134,0.0341 0.100253,0.0662 0.05994,0.032 0.137459,0.0703 0.07958,0.0393 0.150895,0.0827 0.07131,0.0434 0.125057,0.0961 0.05374,0.0527 0.08475,0.11679 0.03204,0.0641 0.03204,0.14676 0,0.10955 -0.04341,0.18603 -0.04237,0.0754 -0.115755,0.12299 -0.07235,0.0475 -0.167431,0.0682 -0.09509,0.0217 -0.200505,0.0217 -0.03514,0 -0.08682,-0.006 -0.05168,-0.005 -0.10542,-0.0165 -0.05374,-0.0103 -0.10232,-0.0258 -0.04754,-0.0165 -0.07648,-0.0362 z"
         style="font-size:2.11666656px;fill:#ffffff;stroke-width:0.26458332"
         id="path971"
         inkscape:connector-curvature="0" />
      <path
         d="m 28.310416,236.14375 h -0.42788 v 1.32498 h -0.173633 v -1.32498 h -0.426848 v -0.1571 h 1.028361 z"
         style="font-size:2.11666656px;fill:#ffffff;stroke-width:0.26458332"
         id="path973"
         inkscape:connector-curvature="0" />
    </g>
    <g
       aria-label="SLOW"
       style="font-style:normal;font-variant:normal;font-weight:normal;font-stretch:normal;font-size:2.11666656px;line-height:1.25;font-family:'Yu Gothic UI';-inkscape-font-specification:'Yu Gothic UI';letter-spacing:0px;word-spacing:0px;fill:#ffffff;fill-opacity:1;stroke:none;stroke-width:0.26458332"
       id="text954"
       transform="translate(-2.8737992,-18.155671)">
      <path
         d="m 23.937557,244.02337 v -0.20464 q 0.03514,0.031 0.08372,0.0558 0.04961,0.0248 0.103353,0.0424 0.05478,0.0165 0.109554,0.0258 0.05478,0.009 0.101285,0.009 0.160197,0 0.238746,-0.0589 0.07958,-0.0599 0.07958,-0.17156 0,-0.0599 -0.02687,-0.10439 -0.02584,-0.0444 -0.07235,-0.0806 -0.04651,-0.0372 -0.110588,-0.0703 -0.06304,-0.0341 -0.136426,-0.0713 -0.07751,-0.0393 -0.144694,-0.0796 -0.06718,-0.0403 -0.116789,-0.0889 -0.04961,-0.0486 -0.07855,-0.10956 -0.02791,-0.062 -0.02791,-0.14469 0,-0.10129 0.04444,-0.1757 0.04444,-0.0754 0.116788,-0.12402 0.07235,-0.0486 0.164332,-0.0724 0.09302,-0.0238 0.189135,-0.0238 0.219108,0 0.319361,0.0527 v 0.19534 q -0.131259,-0.091 -0.336931,-0.091 -0.05684,0 -0.113688,0.0124 -0.05684,0.0114 -0.101286,0.0382 -0.04444,0.0269 -0.07235,0.0692 -0.02791,0.0424 -0.02791,0.10336 0,0.0568 0.02067,0.0982 0.0217,0.0413 0.06305,0.0755 0.04134,0.0341 0.100252,0.0661 0.05995,0.032 0.137459,0.0703 0.07958,0.0393 0.150896,0.0827 0.07131,0.0434 0.125057,0.0961 0.05374,0.0527 0.08475,0.11678 0.03204,0.0641 0.03204,0.14677 0,0.10955 -0.04341,0.18603 -0.04237,0.0755 -0.115755,0.12299 -0.07235,0.0475 -0.167432,0.0682 -0.09508,0.0217 -0.200504,0.0217 -0.03514,0 -0.08682,-0.006 -0.05168,-0.005 -0.10542,-0.0165 -0.05374,-0.0103 -0.102319,-0.0258 -0.04754,-0.0165 -0.07648,-0.0362 z"
         style="font-size:2.11666656px;fill:#ffffff;stroke-width:0.26458332"
         id="path956"
         inkscape:connector-curvature="0" />
      <path
         d="m 25.900228,244.08331 h -0.768946 v -1.48208 h 0.173633 v 1.32499 h 0.595313 z"
         style="font-size:2.11666656px;fill:#ffffff;stroke-width:0.26458332"
         id="path959"
         inkscape:connector-curvature="0" />
      <path
         d="m 26.704313,244.10812 q -0.315226,0 -0.505395,-0.20774 -0.189136,-0.20774 -0.189136,-0.54054 0,-0.3576 0.19327,-0.5705 0.193269,-0.21291 0.526066,-0.21291 0.306958,0 0.494026,0.2067 0.188103,0.20671 0.188103,0.54054 0,0.36277 -0.192237,0.57361 -0.192236,0.21084 -0.514697,0.21084 z m 0.0124,-1.3746 q -0.233577,0 -0.379305,0.16847 -0.145727,0.16846 -0.145727,0.44235 0,0.27389 0.141593,0.44132 0.142627,0.16639 0.371037,0.16639 0.243913,0 0.384473,-0.15916 0.14056,-0.15916 0.14056,-0.44545 0,-0.29352 -0.136426,-0.45372 -0.136426,-0.1602 -0.376205,-0.1602 z"
         style="font-size:2.11666656px;fill:#ffffff;stroke-width:0.26458332"
         id="path961"
         inkscape:connector-curvature="0" />
      <path
         d="m 29.426627,242.60123 -0.418579,1.48208 h -0.203605 l -0.304891,-1.08313 q -0.01964,-0.0693 -0.02377,-0.1509 h -0.0041 q -0.0062,0.0765 -0.02687,0.14883 l -0.306958,1.0852 h -0.201538 l -0.434082,-1.48208 H 27.6934 l 0.315226,1.13688 q 0.01964,0.0713 0.02481,0.14883 h 0.0052 q 0.0052,-0.0548 0.03204,-0.14883 l 0.327628,-1.13688 h 0.166398 l 0.314193,1.14515 q 0.01654,0.0589 0.02481,0.1385 h 0.0041 q 0.0041,-0.0538 0.02791,-0.14263 l 0.302824,-1.14102 z"
         style="font-size:2.11666656px;fill:#ffffff;stroke-width:0.26458332"
         id="path963"
         inkscape:connector-curvature="0" />
    </g>
    <text
       xml:space="preserve"
       style="font-style:normal;font-variant:normal;font-weight:normal;font-stretch:normal;font-size:2.82222223px;line-height:1.25;font-family:'Yu Gothic UI';-inkscape-font-specification:'Yu Gothic UI';letter-spacing:0px;word-spacing:0px;fill:#000000;fill-opacity:1;stroke:none;stroke-width:0.26458332"
       x="14.552083"
       y="241.43748"
       id="text978"><tspan
         sodipodi:role="line"
         id="tspan976"
         x="14.552083"
         y="243.97961"
         style="font-size:2.82222223px;stroke-width:0.26458332" /></text>
    <g
       aria-label="RISING"
       style="font-style:normal;font-variant:normal;font-weight:normal;font-stretch:normal;font-size:3.17499995px;line-height:1.25;font-family:'Yu Gothic UI';-inkscape-font-specification:'Yu Gothic UI';letter-spacing:0px;word-spacing:0px;fill:#ffffff;fill-opacity:1;stroke:none;stroke-width:0.26458332"
       id="text982"
       transform="translate(-3.622516,2.4001487)">
      <path
         d="m 16.437239,240.11456 h -0.310058 l -0.372071,-0.62321 q -0.05116,-0.0868 -0.09922,-0.14728 -0.04806,-0.062 -0.09922,-0.10077 -0.04961,-0.0388 -0.108521,-0.0558 -0.05736,-0.0186 -0.130224,-0.0186 h -0.213941 v 0.94568 h -0.260449 v -2.22312 h 0.663525 q 0.145728,0 0.268201,0.0372 0.124024,0.0357 0.213941,0.11007 0.09147,0.0744 0.142627,0.18604 0.05116,0.11007 0.05116,0.25889 0,0.11628 -0.03566,0.21395 -0.03411,0.0961 -0.09922,0.17208 -0.06356,0.076 -0.15503,0.13022 -0.08992,0.0527 -0.203088,0.0822 v 0.006 q 0.05581,0.0248 0.09612,0.0574 0.04186,0.031 0.07906,0.0744 0.03721,0.0434 0.07286,0.0992 0.03721,0.0543 0.08216,0.12713 z m -1.333252,-1.98747 v 0.80615 h 0.353467 q 0.09767,0 0.179834,-0.0295 0.08372,-0.0295 0.144177,-0.0837 0.06046,-0.0558 0.09457,-0.13488 0.03411,-0.0806 0.03411,-0.17983 0,-0.17828 -0.116272,-0.2775 -0.114722,-0.10077 -0.333313,-0.10077 z"
         style="fill:#ffffff;stroke-width:0.26458332"
         id="path1023"
         inkscape:connector-curvature="0" />
      <path
         d="m 17.001546,240.11456 h -0.260449 v -2.22312 h 0.260449 z"
         style="fill:#ffffff;stroke-width:0.26458332"
         id="path1025"
         inkscape:connector-curvature="0" />
      <path
         d="m 17.480586,240.02465 v -0.30696 q 0.05271,0.0465 0.125574,0.0837 0.07441,0.0372 0.155029,0.0636 0.08217,0.0248 0.164331,0.0387 0.08217,0.014 0.151929,0.014 0.240296,0 0.358118,-0.0884 0.119372,-0.0899 0.119372,-0.25735 0,-0.0899 -0.04031,-0.15658 -0.03876,-0.0667 -0.108521,-0.12092 -0.06976,-0.0558 -0.165881,-0.10542 -0.09457,-0.0512 -0.204639,-0.10697 -0.116272,-0.0589 -0.217041,-0.11937 -0.100769,-0.0605 -0.175183,-0.13333 -0.07441,-0.0729 -0.117822,-0.16433 -0.04186,-0.093 -0.04186,-0.21704 0,-0.15193 0.06666,-0.26355 0.06666,-0.11317 0.175183,-0.18604 0.10852,-0.0729 0.246496,-0.10852 0.139527,-0.0357 0.283704,-0.0357 0.328662,0 0.47904,0.0791 v 0.29301 q -0.196887,-0.13643 -0.505395,-0.13643 -0.08527,0 -0.170532,0.0186 -0.08527,0.0171 -0.151929,0.0574 -0.06666,0.0403 -0.108521,0.10387 -0.04186,0.0636 -0.04186,0.15503 0,0.0853 0.03101,0.14728 0.03256,0.062 0.09457,0.11317 0.06201,0.0512 0.150379,0.0992 0.08992,0.0481 0.206189,0.10542 0.119372,0.0589 0.226342,0.12402 0.106971,0.0651 0.187586,0.14418 0.08061,0.0791 0.127124,0.17519 0.04806,0.0961 0.04806,0.22014 0,0.16433 -0.06511,0.27905 -0.06356,0.11317 -0.173633,0.18448 -0.108521,0.0713 -0.251148,0.10232 -0.142627,0.0326 -0.300756,0.0326 -0.05271,0 -0.130225,-0.009 -0.07751,-0.008 -0.15813,-0.0248 -0.08062,-0.0155 -0.153479,-0.0387 -0.07131,-0.0248 -0.114722,-0.0543 z"
         style="fill:#ffffff;stroke-width:0.26458332"
         id="path1027"
         inkscape:connector-curvature="0" />
      <path
         d="m 19.531624,240.11456 h -0.260449 v -2.22312 h 0.260449 z"
         style="fill:#ffffff;stroke-width:0.26458332"
         id="path1029"
         inkscape:connector-curvature="0" />
      <path
         d="m 21.906673,240.11456 h -0.319361 l -1.144116,-1.77198 q -0.04341,-0.0667 -0.07131,-0.13953 h -0.0093 q 0.0124,0.0713 0.0124,0.30541 v 1.6061 h -0.260449 v -2.22312 h 0.337964 l 1.11311,1.74408 q 0.06976,0.10852 0.08992,0.14883 h 0.0062 q -0.0155,-0.0961 -0.0155,-0.32711 v -1.5658 h 0.260449 z"
         style="fill:#ffffff;stroke-width:0.26458332"
         id="path1031"
         inkscape:connector-curvature="0" />
      <path
         d="m 24.151497,239.96263 q -0.334863,0.18914 -0.744141,0.18914 -0.47594,0 -0.770495,-0.30696 -0.293006,-0.30696 -0.293006,-0.81235 0,-0.51625 0.325562,-0.84646 0.327112,-0.33176 0.827856,-0.33176 0.362769,0 0.609265,0.11782 v 0.28835 q -0.269751,-0.17053 -0.63872,-0.17053 -0.373621,0 -0.612366,0.25735 -0.238745,0.25735 -0.238745,0.66662 0,0.42168 0.221692,0.66353 0.221692,0.2403 0.601513,0.2403 0.26045,0 0.451136,-0.10387 v -0.62322 h -0.486792 v -0.23565 h 0.747241 z"
         style="fill:#ffffff;stroke-width:0.26458332"
         id="path1033"
         inkscape:connector-curvature="0" />
    </g>
    <g
       aria-label="STEADY"
       style="font-style:normal;font-variant:normal;font-weight:normal;font-stretch:normal;font-size:3.17499995px;line-height:1.25;font-family:'Yu Gothic UI';-inkscape-font-specification:'Yu Gothic UI';letter-spacing:0px;word-spacing:0px;fill:#ffffff;fill-opacity:1;stroke:none;stroke-width:0.26458332"
       id="text986"
       transform="translate(-2.889482,3.1750001)">
      <path
         d="m 13.416751,255.89965 v -0.30696 q 0.05271,0.0465 0.125574,0.0837 0.07441,0.0372 0.15503,0.0636 0.08216,0.0248 0.164331,0.0387 0.08216,0.014 0.151928,0.014 0.240296,0 0.358118,-0.0884 0.119372,-0.0899 0.119372,-0.25735 0,-0.0899 -0.04031,-0.15658 -0.03876,-0.0667 -0.108521,-0.12092 -0.06976,-0.0558 -0.165881,-0.10542 -0.09457,-0.0512 -0.204639,-0.10697 -0.116272,-0.0589 -0.217041,-0.11937 -0.100769,-0.0605 -0.175183,-0.13333 -0.07441,-0.0729 -0.117822,-0.16433 -0.04186,-0.093 -0.04186,-0.21704 0,-0.15193 0.06666,-0.26355 0.06666,-0.11317 0.175183,-0.18604 0.10852,-0.0729 0.246496,-0.10852 0.139527,-0.0357 0.283704,-0.0357 0.328662,0 0.47904,0.0791 v 0.29301 q -0.196887,-0.13643 -0.505395,-0.13643 -0.08527,0 -0.170532,0.0186 -0.08527,0.0171 -0.151929,0.0574 -0.06666,0.0403 -0.10852,0.10387 -0.04186,0.0636 -0.04186,0.15503 0,0.0853 0.031,0.14728 0.03256,0.062 0.09457,0.11317 0.06201,0.0512 0.150379,0.0992 0.08992,0.0481 0.206189,0.10542 0.119372,0.0589 0.226342,0.12402 0.106971,0.0651 0.187586,0.14418 0.08061,0.0791 0.127124,0.17519 0.04806,0.0961 0.04806,0.22014 0,0.16433 -0.06511,0.27905 -0.06356,0.11317 -0.173633,0.18448 -0.108521,0.0713 -0.251148,0.10232 -0.142626,0.0326 -0.300756,0.0326 -0.05271,0 -0.130225,-0.009 -0.07752,-0.008 -0.15813,-0.0248 -0.08061,-0.0155 -0.153479,-0.0387 -0.07131,-0.0248 -0.114722,-0.0543 z"
         style="fill:#ffffff;stroke-width:0.26458332"
         id="path1010"
         inkscape:connector-curvature="0" />
      <path
         d="m 16.490982,254.00209 h -0.641821 v 1.98747 h -0.260449 v -1.98747 h -0.640271 v -0.23565 h 1.542541 z"
         style="fill:#ffffff;stroke-width:0.26458332"
         id="path1012"
         inkscape:connector-curvature="0" />
      <path
         d="m 18.016471,255.98956 h -1.178223 v -2.22312 h 1.128613 v 0.23565 h -0.868164 v 0.73949 h 0.803052 v 0.23409 h -0.803052 v 0.77825 h 0.917774 z"
         style="fill:#ffffff;stroke-width:0.26458332"
         id="path1014"
         inkscape:connector-curvature="0" />
      <path
         d="m 20.165177,255.98956 h -0.288355 l -0.235644,-0.62321 H 18.6986 l -0.221692,0.62321 h -0.289905 l 0.852661,-2.22312 h 0.269751 z m -0.609265,-0.85731 -0.348816,-0.94723 q -0.01705,-0.0465 -0.03411,-0.14883 h -0.0062 q -0.0155,0.0946 -0.03566,0.14883 l -0.345715,0.94723 z"
         style="fill:#ffffff;stroke-width:0.26458332"
         id="path1016"
         inkscape:connector-curvature="0" />
      <path
         d="m 20.490738,255.98956 v -2.22312 h 0.613916 q 1.175122,0 1.175122,1.08366 0,0.51469 -0.327112,0.82785 -0.325561,0.31161 -0.872814,0.31161 z m 0.260449,-1.98747 v 1.75183 h 0.331763 q 0.437183,0 0.680579,-0.2341 0.243396,-0.23409 0.243396,-0.66352 0,-0.85421 -0.908472,-0.85421 z"
         style="fill:#ffffff;stroke-width:0.26458332"
         id="path1018"
         inkscape:connector-curvature="0" />
      <path
         d="m 24.112223,253.76644 -0.733289,1.40147 v 0.82165 h -0.260449 v -0.81545 L 22.4038,253.76644 h 0.296106 l 0.497644,1.00459 q 0.0093,0.0186 0.05426,0.13643 h 0.0047 q 0.0155,-0.0527 0.05891,-0.13643 l 0.520899,-1.00459 z"
         style="fill:#ffffff;stroke-width:0.26458332"
         id="path1020"
         inkscape:connector-curvature="0" />
    </g>
    <g
       aria-label="FALLING"
       style="font-style:normal;font-variant:normal;font-weight:normal;font-stretch:normal;font-size:3.17499995px;line-height:1.25;font-family:'Yu Gothic UI';-inkscape-font-specification:'Yu Gothic UI';letter-spacing:0px;word-spacing:0px;fill:#ffffff;fill-opacity:1;stroke:none;stroke-width:0.26458332"
       id="text990"
       transform="translate(-4.645711,1.3613054)">
      <path
         d="m 15.972151,272.52293 h -0.868164 v 0.76895 h 0.803052 v 0.23409 h -0.803052 v 0.98444 h -0.260449 v -2.22312 h 1.128613 z"
         style="fill:#ffffff;stroke-width:0.26458332"
         id="path992"
         inkscape:connector-curvature="0" />
      <path
         d="m 18.003035,274.51041 h -0.288354 l -0.235645,-0.62322 h -0.942578 l -0.221692,0.62322 h -0.289905 l 0.852661,-2.22312 h 0.269751 z m -0.609265,-0.85732 -0.348816,-0.94722 q -0.01705,-0.0465 -0.03411,-0.14883 h -0.0062 q -0.0155,0.0946 -0.03566,0.14883 l -0.345716,0.94722 z"
         style="fill:#ffffff;stroke-width:0.26458332"
         id="path994"
         inkscape:connector-curvature="0" />
      <path
         d="m 19.482015,274.51041 h -1.153418 v -2.22312 h 0.260449 v 1.98747 h 0.892969 z"
         style="fill:#ffffff;stroke-width:0.26458332"
         id="path996"
         inkscape:connector-curvature="0" />
      <path
         d="m 20.976497,274.51041 h -1.153418 v -2.22312 h 0.260449 v 1.98747 h 0.892969 z"
         style="fill:#ffffff;stroke-width:0.26458332"
         id="path998"
         inkscape:connector-curvature="0" />
      <path
         d="m 21.578011,274.51041 h -0.26045 v -2.22312 h 0.26045 z"
         style="fill:#ffffff;stroke-width:0.26458332"
         id="path1000"
         inkscape:connector-curvature="0" />
      <path
         d="m 23.95306,274.51041 h -0.319361 l -1.144116,-1.77199 q -0.04341,-0.0667 -0.07131,-0.13952 h -0.0093 q 0.0124,0.0713 0.0124,0.3054 v 1.60611 h -0.260449 v -2.22312 h 0.337964 l 1.11311,1.74408 q 0.06976,0.10852 0.08992,0.14882 h 0.0062 q -0.0155,-0.0961 -0.0155,-0.32711 v -1.56579 h 0.26045 z"
         style="fill:#ffffff;stroke-width:0.26458332"
         id="path1002"
         inkscape:connector-curvature="0" />
      <path
         d="m 26.197884,274.35848 q -0.334864,0.18913 -0.744141,0.18913 -0.47594,0 -0.770496,-0.30695 -0.293005,-0.30696 -0.293005,-0.81236 0,-0.51625 0.325562,-0.84646 0.327111,-0.33176 0.827856,-0.33176 0.362769,0 0.609265,0.11782 v 0.28836 q -0.269751,-0.17054 -0.638721,-0.17054 -0.37362,0 -0.612365,0.25735 -0.238745,0.25735 -0.238745,0.66663 0,0.42168 0.221691,0.66352 0.221692,0.2403 0.601514,0.2403 0.260449,0 0.451135,-0.10387 v -0.62322 h -0.486792 v -0.23564 h 0.747242 z"
         style="fill:#ffffff;stroke-width:0.26458332"
         id="path1004"
         inkscape:connector-curvature="0" />
    </g>
    <g
       aria-label="RESPONSE"
       style="font-style:normal;font-variant:normal;font-weight:normal;font-stretch:normal;font-size:2.82222223px;line-height:1.25;font-family:'Yu Gothic UI';-inkscape-font-specification:'Yu Gothic UI';letter-spacing:0px;word-spacing:0px;fill:#ffffff;fill-opacity:1;stroke:none;stroke-width:0.26458332"
       id="text933"
       transform="translate(-13.362801,-0.49575799)">
      <path
         d="m 32.102777,208.36456 h -0.275608 l -0.330729,-0.55397 q -0.04548,-0.0772 -0.08819,-0.13091 -0.04272,-0.0551 -0.08819,-0.0896 -0.0441,-0.0345 -0.09646,-0.0496 -0.05099,-0.0165 -0.115755,-0.0165 h -0.190169 v 0.8406 h -0.231511 v -1.9761 h 0.589801 q 0.129535,0 0.2384,0.0331 0.110243,0.0317 0.190169,0.0978 0.08131,0.0661 0.12678,0.16536 0.04548,0.0978 0.04548,0.23014 0,0.10335 -0.0317,0.19017 -0.03032,0.0854 -0.08819,0.15296 -0.0565,0.0675 -0.137804,0.11575 -0.07993,0.0469 -0.180523,0.073 v 0.006 q 0.04961,0.022 0.08544,0.051 0.03721,0.0276 0.07028,0.0661 0.03307,0.0386 0.06477,0.0882 0.03307,0.0482 0.07304,0.113 z m -1.185113,-1.76664 v 0.71658 h 0.314192 q 0.08682,0 0.159853,-0.0262 0.07441,-0.0262 0.128157,-0.0744 0.05374,-0.0496 0.08406,-0.11989 0.03032,-0.0717 0.03032,-0.15985 0,-0.15848 -0.103353,-0.24667 -0.101975,-0.0896 -0.296279,-0.0896 z"
         style="fill:#ffffff;stroke-width:0.26458332"
         id="path935"
         inkscape:connector-curvature="0" />
      <path
         d="m 33.420181,208.36456 h -1.047309 v -1.9761 h 1.003212 v 0.20946 h -0.771702 v 0.65732 h 0.713824 v 0.20809 h -0.713824 v 0.69177 h 0.815799 z"
         style="fill:#ffffff;stroke-width:0.26458332"
         id="path938"
         inkscape:connector-curvature="0" />
      <path
         d="m 33.708191,208.28464 v -0.27285 q 0.04685,0.0413 0.111621,0.0744 0.06615,0.0331 0.137804,0.0565 0.07304,0.0221 0.146072,0.0345 0.07304,0.0124 0.135048,0.0124 0.213596,0 0.318327,-0.0786 0.106108,-0.0799 0.106108,-0.22875 0,-0.0799 -0.03583,-0.13918 -0.03445,-0.0593 -0.09646,-0.10749 -0.06201,-0.0496 -0.14745,-0.0937 -0.08406,-0.0455 -0.181901,-0.0951 -0.103353,-0.0524 -0.192926,-0.10611 -0.08957,-0.0537 -0.155718,-0.11851 -0.06615,-0.0648 -0.104731,-0.14607 -0.03721,-0.0827 -0.03721,-0.19293 0,-0.13505 0.05926,-0.23426 0.05926,-0.1006 0.155718,-0.16537 0.09646,-0.0648 0.219108,-0.0965 0.124024,-0.0317 0.252181,-0.0317 0.292144,0 0.425814,0.0703 v 0.26045 q -0.175011,-0.12126 -0.449241,-0.12126 -0.07579,0 -0.151584,0.0165 -0.07579,0.0152 -0.135048,0.051 -0.05926,0.0358 -0.09646,0.0923 -0.03721,0.0565 -0.03721,0.1378 0,0.0758 0.02756,0.13091 0.02894,0.0551 0.08406,0.1006 0.05512,0.0455 0.13367,0.0882 0.07993,0.0427 0.183279,0.0937 0.106109,0.0524 0.201193,0.11025 0.09509,0.0579 0.166743,0.12815 0.07166,0.0703 0.112999,0.15572 0.04272,0.0854 0.04272,0.19568 0,0.14608 -0.05788,0.24805 -0.0565,0.1006 -0.154341,0.16399 -0.09646,0.0634 -0.223242,0.0909 -0.126779,0.0289 -0.267339,0.0289 -0.04685,0 -0.115756,-0.008 -0.0689,-0.007 -0.140559,-0.0221 -0.07166,-0.0138 -0.136426,-0.0344 -0.06339,-0.0221 -0.101975,-0.0482 z"
         style="fill:#ffffff;stroke-width:0.26458332"
         id="path940"
         inkscape:connector-curvature="0" />
      <path
         d="m 35.531335,207.61767 v 0.74689 h -0.23151 v -1.9761 h 0.542947 q 0.316949,0 0.490582,0.15434 0.175011,0.15434 0.175011,0.43546 0,0.28112 -0.194304,0.46026 -0.192925,0.17915 -0.522276,0.17915 z m 0,-1.01975 v 0.81028 h 0.242535 q 0.239779,0 0.36518,-0.10886 0.12678,-0.11024 0.12678,-0.31006 0,-0.39136 -0.463021,-0.39136 z"
         style="fill:#ffffff;stroke-width:0.26458332"
         id="path942"
         inkscape:connector-curvature="0" />
      <path
         d="m 37.678319,208.39764 q -0.420302,0 -0.673861,-0.27699 -0.252181,-0.27699 -0.252181,-0.72071 0,-0.4768 0.257693,-0.76068 0.257694,-0.28388 0.701422,-0.28388 0.409277,0 0.658702,0.27561 0.250803,0.27561 0.250803,0.72071 0,0.4837 -0.256315,0.76482 -0.256315,0.28112 -0.686263,0.28112 z m 0.01654,-1.83279 q -0.311436,0 -0.50574,0.22462 -0.194303,0.22462 -0.194303,0.5898 0,0.36518 0.188791,0.58842 0.19017,0.22186 0.494716,0.22186 0.325217,0 0.51263,-0.21222 0.187413,-0.21221 0.187413,-0.59393 0,-0.39136 -0.181901,-0.60496 -0.181901,-0.21359 -0.501606,-0.21359 z"
         style="fill:#ffffff;stroke-width:0.26458332"
         id="path944"
         inkscape:connector-curvature="0" />
      <path
         d="M 40.602516,208.36456 H 40.31864 l -1.016992,-1.57509 q -0.03858,-0.0593 -0.06339,-0.12403 h -0.0083 q 0.01102,0.0634 0.01102,0.27148 v 1.42764 h -0.231511 v -1.9761 h 0.300412 l 0.989432,1.55029 q 0.06201,0.0965 0.07993,0.13229 h 0.0055 q -0.01378,-0.0854 -0.01378,-0.29077 v -1.39181 h 0.23151 z"
         style="fill:#ffffff;stroke-width:0.26458332"
         id="path946"
         inkscape:connector-curvature="0" />
      <path
         d="m 41.02833,208.28464 v -0.27285 q 0.04685,0.0413 0.111621,0.0744 0.06615,0.0331 0.137804,0.0565 0.07304,0.0221 0.146072,0.0345 0.07304,0.0124 0.135048,0.0124 0.213596,0 0.318327,-0.0786 0.106109,-0.0799 0.106109,-0.22875 0,-0.0799 -0.03583,-0.13918 -0.03445,-0.0593 -0.09646,-0.10749 -0.06201,-0.0496 -0.14745,-0.0937 -0.08406,-0.0455 -0.181901,-0.0951 -0.103353,-0.0524 -0.192926,-0.10611 -0.08957,-0.0537 -0.155718,-0.11851 -0.06615,-0.0648 -0.104731,-0.14607 -0.03721,-0.0827 -0.03721,-0.19293 0,-0.13505 0.05926,-0.23426 0.05926,-0.1006 0.155718,-0.16537 0.09646,-0.0648 0.219108,-0.0965 0.124024,-0.0317 0.252181,-0.0317 0.292144,0 0.425814,0.0703 v 0.26045 q -0.175011,-0.12126 -0.44924,-0.12126 -0.07579,0 -0.151585,0.0165 -0.07579,0.0152 -0.135047,0.051 -0.05926,0.0358 -0.09646,0.0923 -0.03721,0.0565 -0.03721,0.1378 0,0.0758 0.02756,0.13091 0.02894,0.0551 0.08406,0.1006 0.05512,0.0455 0.13367,0.0882 0.07993,0.0427 0.183279,0.0937 0.106109,0.0524 0.201193,0.11025 0.09508,0.0579 0.166743,0.12815 0.07166,0.0703 0.112999,0.15572 0.04272,0.0854 0.04272,0.19568 0,0.14608 -0.05788,0.24805 -0.0565,0.1006 -0.154341,0.16399 -0.09646,0.0634 -0.223242,0.0909 -0.126779,0.0289 -0.267339,0.0289 -0.04685,0 -0.115755,-0.008 -0.0689,-0.007 -0.14056,-0.0221 -0.07166,-0.0138 -0.136426,-0.0344 -0.06339,-0.0221 -0.101975,-0.0482 z"
         style="fill:#ffffff;stroke-width:0.26458332"
         id="path948"
         inkscape:connector-curvature="0" />
      <path
         d="m 43.667273,208.36456 h -1.047309 v -1.9761 h 1.003212 v 0.20946 h -0.771701 v 0.65732 h 0.713824 v 0.20809 h -0.713824 v 0.69177 h 0.815798 z"
         style="fill:#ffffff;stroke-width:0.26458332"
         id="path950"
         inkscape:connector-curvature="0" />
    </g>
  </g>
  <g
     inkscape:groupmode="layer"
     id="layer3"
     inkscape:label="Grid5"
     sodipodi:insensitive="true"
     style="display:none">
    <g
       id="g969"
       transform="translate(-7.9374831,-200.42707)">
      <path
         style="display:inline;fill:none;stroke:#000000;stroke-width:0.05;stroke-linecap:butt;stroke-linejoin:miter;stroke-miterlimit:4;stroke-dasharray:none;stroke-opacity:1"
         d="m 15.874983,200.42706 -3e-6,100.54167"
         id="path881-8-8-1"
         inkscape:connector-curvature="0"
         sodipodi:nodetypes="cc" />
      <path
         sodipodi:nodetypes="cc"
         inkscape:connector-curvature="0"
         id="path890-2-5-1"
         d="m 11.906235,200.42707 -4e-6,100.54167"
         style="display:inline;fill:none;stroke:#000000;stroke-width:0.05;stroke-linecap:butt;stroke-linejoin:miter;stroke-miterlimit:4;stroke-dasharray:none;stroke-opacity:1" />
      <path
         style="display:inline;fill:none;stroke:#000000;stroke-width:0.05;stroke-linecap:butt;stroke-linejoin:miter;stroke-miterlimit:4;stroke-dasharray:none;stroke-opacity:1"
         d="m 19.843736,200.42707 -4e-6,100.54167"
         id="path895-1-5-0"
         inkscape:connector-curvature="0"
         sodipodi:nodetypes="cc" />
      <circle
         style="display:inline;opacity:1;fill:none;fill-opacity:1;stroke:#000000;stroke-width:0.05;stroke-linecap:square;stroke-linejoin:round;stroke-miterlimit:4;stroke-dasharray:none;stroke-dashoffset:0;stroke-opacity:1;paint-order:markers fill stroke"
         id="circle1022-7"
         cx="15.889791"
         cy="250.69789"
         r="4.0999999" />
      <circle
         style="display:inline;opacity:1;fill:none;fill-opacity:1;stroke:#000000;stroke-width:0.05172414;stroke-linecap:square;stroke-linejoin:round;stroke-miterlimit:4;stroke-dasharray:none;stroke-dashoffset:0;stroke-opacity:1;paint-order:markers fill stroke"
         id="circle974-7"
         cx="15.875057"
         cy="250.69789"
         r="5.4741378" />
      <circle
         r="4.0999999"
         cy="217.36037"
         cx="15.889791"
         id="circle1623"
         style="display:inline;opacity:1;fill:none;fill-opacity:1;stroke:#000000;stroke-width:0.05;stroke-linecap:square;stroke-linejoin:round;stroke-miterlimit:4;stroke-dasharray:none;stroke-dashoffset:0;stroke-opacity:1;paint-order:markers fill stroke" />
      <circle
         r="5.4741378"
         cy="217.36037"
         cx="15.875057"
         id="circle1631"
         style="display:inline;opacity:1;fill:none;fill-opacity:1;stroke:#000000;stroke-width:0.05172414;stroke-linecap:square;stroke-linejoin:round;stroke-miterlimit:4;stroke-dasharray:none;stroke-dashoffset:0;stroke-opacity:1;paint-order:markers fill stroke" />
      <circle
         r="4.0999999"
         cy="234.02913"
         cx="15.889791"
         id="circle1651"
         style="display:inline;opacity:1;fill:none;fill-opacity:1;stroke:#000000;stroke-width:0.05;stroke-linecap:square;stroke-linejoin:round;stroke-miterlimit:4;stroke-dasharray:none;stroke-dashoffset:0;stroke-opacity:1;paint-order:markers fill stroke" />
      <circle
         r="5.4741378"
         cy="234.02913"
         cx="15.875057"
         id="circle1659"
         style="display:inline;opacity:1;fill:none;fill-opacity:1;stroke:#000000;stroke-width:0.05172414;stroke-linecap:square;stroke-linejoin:round;stroke-miterlimit:4;stroke-dasharray:none;stroke-dashoffset:0;stroke-opacity:1;paint-order:markers fill stroke" />
      <circle
         r="4.0999999"
         cy="267.36713"
         cx="15.889791"
         id="circle1703"
         style="display:inline;opacity:1;fill:none;fill-opacity:1;stroke:#000000;stroke-width:0.05;stroke-linecap:square;stroke-linejoin:round;stroke-miterlimit:4;stroke-dasharray:none;stroke-dashoffset:0;stroke-opacity:1;paint-order:markers fill stroke" />
      <circle
         r="5.4741378"
         cy="267.36713"
         cx="15.875057"
         id="circle1711"
         style="display:inline;opacity:1;fill:none;fill-opacity:1;stroke:#000000;stroke-width:0.05172414;stroke-linecap:square;stroke-linejoin:round;stroke-miterlimit:4;stroke-dasharray:none;stroke-dashoffset:0;stroke-opacity:1;paint-order:markers fill stroke" />
      <path
         d="m 7.9374831,267.36717 h 6.3500049 m 3e-6,0 h 6.350005 m -6.350005,0 h 6.350005 m -9.52501,0 h 6.350006 m 3e-6,0 H 23.8125 m -6.350005,0 H 23.8125 m -12.700014,0 h 6.350006 m 3e-6,0 H 23.8125 m -6.350005,0 H 23.8125 m -9.525009,0 h 6.350006"
         style="display:inline;fill:none;stroke:#000000;stroke-width:0.05;stroke-linecap:butt;stroke-linejoin:miter;stroke-miterlimit:4;stroke-dasharray:none;stroke-opacity:1"
         id="path1725"
         inkscape:connector-curvature="0" />
      <circle
         style="display:inline;opacity:1;fill:none;fill-opacity:1;stroke:#000000;stroke-width:0.05;stroke-linecap:square;stroke-linejoin:round;stroke-miterlimit:4;stroke-dasharray:none;stroke-dashoffset:0;stroke-opacity:1;paint-order:markers fill stroke"
         id="circle1729"
         cx="15.889791"
         cy="284.0354"
         r="4.0999999" />
      <circle
         style="display:inline;opacity:1;fill:none;fill-opacity:1;stroke:#000000;stroke-width:0.05172414;stroke-linecap:square;stroke-linejoin:round;stroke-miterlimit:4;stroke-dasharray:none;stroke-dashoffset:0;stroke-opacity:1;paint-order:markers fill stroke"
         id="circle1737"
         cx="15.875057"
         cy="284.0354"
         r="5.4741378" />
      <path
         d="m 7.9374831,284.03541 h 6.3500049 m 3.175007,0 H 23.8125 m -9.525009,0 h 6.350005"
         style="display:inline;fill:none;stroke:#000000;stroke-width:0.05;stroke-linecap:butt;stroke-linejoin:miter;stroke-miterlimit:4;stroke-dasharray:none;stroke-opacity:1"
         id="path1752"
         inkscape:connector-curvature="0" />
      <path
         inkscape:connector-curvature="0"
         id="path1201"
         style="display:inline;fill:none;stroke:#000000;stroke-width:0.05;stroke-linecap:butt;stroke-linejoin:miter;stroke-miterlimit:4;stroke-dasharray:none;stroke-opacity:1"
         d="m 7.9374831,250.69107 h 6.3500049 m 3e-6,0 h 6.350005 m -6.350005,0 h 6.350005 m -9.52501,0 h 6.350006 m 3e-6,0 H 23.8125 m -6.350005,0 H 23.8125 m -12.700014,0 h 6.350006 m 3e-6,0 H 23.8125 m -6.350005,0 H 23.8125 m -9.525009,0 h 6.350006" />
      <path
         inkscape:connector-curvature="0"
         id="path1207"
         style="display:inline;fill:none;stroke:#000000;stroke-width:0.05;stroke-linecap:butt;stroke-linejoin:miter;stroke-miterlimit:4;stroke-dasharray:none;stroke-opacity:1"
         d="m 7.9374831,234.02179 h 6.3500049 m 3.175007,0 H 23.8125 m -9.525009,0 h 6.350005" />
      <path
         d="m 7.9374831,217.35738 h 6.3500049 m 3.175007,0 H 23.8125 m -9.525009,0 h 6.350005"
         style="display:inline;fill:none;stroke:#000000;stroke-width:0.05;stroke-linecap:butt;stroke-linejoin:miter;stroke-miterlimit:4;stroke-dasharray:none;stroke-opacity:1"
         id="path1209"
         inkscape:connector-curvature="0" />
    </g>
    <g
       transform="translate(7.9375,-200.42707)"
       id="g931">
      <path
         sodipodi:nodetypes="cc"
         inkscape:connector-curvature="0"
         id="path894"
         d="m 15.874983,200.42706 -3e-6,100.54167"
         style="display:inline;fill:none;stroke:#000000;stroke-width:0.05;stroke-linecap:butt;stroke-linejoin:miter;stroke-miterlimit:4;stroke-dasharray:none;stroke-opacity:1" />
      <path
         style="display:inline;fill:none;stroke:#000000;stroke-width:0.05;stroke-linecap:butt;stroke-linejoin:miter;stroke-miterlimit:4;stroke-dasharray:none;stroke-opacity:1"
         d="m 11.906235,200.42707 -4e-6,100.54167"
         id="path896"
         inkscape:connector-curvature="0"
         sodipodi:nodetypes="cc" />
      <path
         sodipodi:nodetypes="cc"
         inkscape:connector-curvature="0"
         id="path898"
         d="m 19.843736,200.42707 -4e-6,100.54167"
         style="display:inline;fill:none;stroke:#000000;stroke-width:0.05;stroke-linecap:butt;stroke-linejoin:miter;stroke-miterlimit:4;stroke-dasharray:none;stroke-opacity:1" />
      <circle
         r="4.0999999"
         cy="250.69789"
         cx="15.889791"
         id="circle900"
         style="display:inline;opacity:1;fill:none;fill-opacity:1;stroke:#000000;stroke-width:0.05;stroke-linecap:square;stroke-linejoin:round;stroke-miterlimit:4;stroke-dasharray:none;stroke-dashoffset:0;stroke-opacity:1;paint-order:markers fill stroke" />
      <circle
         r="5.4741378"
         cy="250.69789"
         cx="15.875057"
         id="circle902"
         style="display:inline;opacity:1;fill:none;fill-opacity:1;stroke:#000000;stroke-width:0.05172414;stroke-linecap:square;stroke-linejoin:round;stroke-miterlimit:4;stroke-dasharray:none;stroke-dashoffset:0;stroke-opacity:1;paint-order:markers fill stroke" />
      <circle
         style="display:inline;opacity:1;fill:none;fill-opacity:1;stroke:#000000;stroke-width:0.05;stroke-linecap:square;stroke-linejoin:round;stroke-miterlimit:4;stroke-dasharray:none;stroke-dashoffset:0;stroke-opacity:1;paint-order:markers fill stroke"
         id="circle904"
         cx="15.889791"
         cy="217.36037"
         r="4.0999999" />
      <circle
         style="display:inline;opacity:1;fill:none;fill-opacity:1;stroke:#000000;stroke-width:0.05172414;stroke-linecap:square;stroke-linejoin:round;stroke-miterlimit:4;stroke-dasharray:none;stroke-dashoffset:0;stroke-opacity:1;paint-order:markers fill stroke"
         id="circle906"
         cx="15.875057"
         cy="217.36037"
         r="5.4741378" />
      <circle
         style="display:inline;opacity:1;fill:none;fill-opacity:1;stroke:#000000;stroke-width:0.05;stroke-linecap:square;stroke-linejoin:round;stroke-miterlimit:4;stroke-dasharray:none;stroke-dashoffset:0;stroke-opacity:1;paint-order:markers fill stroke"
         id="circle908"
         cx="15.889791"
         cy="234.02913"
         r="4.0999999" />
      <circle
         style="display:inline;opacity:1;fill:none;fill-opacity:1;stroke:#000000;stroke-width:0.05172414;stroke-linecap:square;stroke-linejoin:round;stroke-miterlimit:4;stroke-dasharray:none;stroke-dashoffset:0;stroke-opacity:1;paint-order:markers fill stroke"
         id="circle910"
         cx="15.875057"
         cy="234.02913"
         r="5.4741378" />
      <circle
         style="display:inline;opacity:1;fill:none;fill-opacity:1;stroke:#000000;stroke-width:0.05;stroke-linecap:square;stroke-linejoin:round;stroke-miterlimit:4;stroke-dasharray:none;stroke-dashoffset:0;stroke-opacity:1;paint-order:markers fill stroke"
         id="circle912"
         cx="15.889791"
         cy="267.36713"
         r="4.0999999" />
      <circle
         style="display:inline;opacity:1;fill:none;fill-opacity:1;stroke:#000000;stroke-width:0.05172414;stroke-linecap:square;stroke-linejoin:round;stroke-miterlimit:4;stroke-dasharray:none;stroke-dashoffset:0;stroke-opacity:1;paint-order:markers fill stroke"
         id="circle914"
         cx="15.875057"
         cy="267.36713"
         r="5.4741378" />
      <path
         inkscape:connector-curvature="0"
         id="path916"
         style="display:inline;fill:none;stroke:#000000;stroke-width:0.05;stroke-linecap:butt;stroke-linejoin:miter;stroke-miterlimit:4;stroke-dasharray:none;stroke-opacity:1"
         d="m 7.9374831,267.36717 h 6.3500049 m 3e-6,0 h 6.350005 m -6.350005,0 h 6.350005 m -9.52501,0 h 6.350006 m 3e-6,0 H 23.8125 m -6.350005,0 H 23.8125 m -12.700014,0 h 6.350006 m 3e-6,0 H 23.8125 m -6.350005,0 H 23.8125 m -9.525009,0 h 6.350006" />
      <circle
         r="4.0999999"
         cy="284.0354"
         cx="15.889791"
         id="circle918"
         style="display:inline;opacity:1;fill:none;fill-opacity:1;stroke:#000000;stroke-width:0.05;stroke-linecap:square;stroke-linejoin:round;stroke-miterlimit:4;stroke-dasharray:none;stroke-dashoffset:0;stroke-opacity:1;paint-order:markers fill stroke" />
      <circle
         r="5.4741378"
         cy="284.0354"
         cx="15.875057"
         id="circle920"
         style="display:inline;opacity:1;fill:none;fill-opacity:1;stroke:#000000;stroke-width:0.05172414;stroke-linecap:square;stroke-linejoin:round;stroke-miterlimit:4;stroke-dasharray:none;stroke-dashoffset:0;stroke-opacity:1;paint-order:markers fill stroke" />
      <path
         inkscape:connector-curvature="0"
         id="path922"
         style="display:inline;fill:none;stroke:#000000;stroke-width:0.05;stroke-linecap:butt;stroke-linejoin:miter;stroke-miterlimit:4;stroke-dasharray:none;stroke-opacity:1"
         d="m 7.9374831,284.03541 h 6.3500049 m 3.175007,0 H 23.8125 m -9.525009,0 h 6.350005" />
      <path
         d="m 7.9374831,250.69107 h 6.3500049 m 3e-6,0 h 6.350005 m -6.350005,0 h 6.350005 m -9.52501,0 h 6.350006 m 3e-6,0 H 23.8125 m -6.350005,0 H 23.8125 m -12.700014,0 h 6.350006 m 3e-6,0 H 23.8125 m -6.350005,0 H 23.8125 m -9.525009,0 h 6.350006"
         style="display:inline;fill:none;stroke:#000000;stroke-width:0.05;stroke-linecap:butt;stroke-linejoin:miter;stroke-miterlimit:4;stroke-dasharray:none;stroke-opacity:1"
         id="path925"
         inkscape:connector-curvature="0" />
      <path
         d="m 7.9374831,234.02179 h 6.3500049 m 3.175007,0 H 23.8125 m -9.525009,0 h 6.350005"
         style="display:inline;fill:none;stroke:#000000;stroke-width:0.05;stroke-linecap:butt;stroke-linejoin:miter;stroke-miterlimit:4;stroke-dasharray:none;stroke-opacity:1"
         id="path927"
         inkscape:connector-curvature="0" />
      <path
         inkscape:connector-curvature="0"
         id="path929"
         style="display:inline;fill:none;stroke:#000000;stroke-width:0.05;stroke-linecap:butt;stroke-linejoin:miter;stroke-miterlimit:4;stroke-dasharray:none;stroke-opacity:1"
         d="m 7.9374831,217.35738 h 6.3500049 m 3.175007,0 H 23.8125 m -9.525009,0 h 6.350005" />
    </g>
  </g>
</svg>
