<?xml version="1.0" encoding="UTF-8" standalone="no"?>
<!-- Created with Inkscape (http://www.inkscape.org/) -->

<svg
   xmlns:dc="http://purl.org/dc/elements/1.1/"
   xmlns:cc="http://creativecommons.org/ns#"
   xmlns:rdf="http://www.w3.org/1999/02/22-rdf-syntax-ns#"
   xmlns:svg="http://www.w3.org/2000/svg"
   xmlns="http://www.w3.org/2000/svg"
   xmlns:sodipodi="http://sodipodi.sourceforge.net/DTD/sodipodi-0.dtd"
   xmlns:inkscape="http://www.inkscape.org/namespaces/inkscape"
   width="120"
   height="380"
   viewBox="0 0 31.750001 100.54167"
   version="1.1"
   id="svg8"
   inkscape:version="0.92.4 (5da689c313, 2019-01-14)"
   sodipodi:docname="SubHarmonicGenerator.svg">
  <defs
     id="defs2">
    <inkscape:path-effect
       effect="powerstroke"
       id="path-effect969"
       is_visible="true"
       offset_points="0,0.13229166"
       sort_points="true"
       interpolator_type="CubicBezierJohan"
       interpolator_beta="0.2"
       start_linecap_type="zerowidth"
       linejoin_type="extrp_arc"
       miter_limit="4"
       end_linecap_type="zerowidth" />
    <pattern
       y="0"
       x="0"
       height="6"
       width="6"
       patternUnits="userSpaceOnUse"
       id="EMFhbasepattern" />
    <pattern
       y="0"
       x="0"
       height="6"
       width="6"
       patternUnits="userSpaceOnUse"
       id="EMFhbasepattern-8" />
  </defs>
  <sodipodi:namedview
     id="base"
     pagecolor="#ffffff"
     bordercolor="#666666"
     borderopacity="1.0"
     inkscape:pageopacity="0.0"
     inkscape:pageshadow="2"
     inkscape:zoom="2.2789474"
     inkscape:cx="-14.815241"
     inkscape:cy="190"
     inkscape:document-units="mm"
     inkscape:current-layer="layer1"
     showgrid="true"
     units="px"
     inkscape:snap-bbox="true"
     inkscape:snap-page="true"
     inkscape:bbox-nodes="true"
     inkscape:snap-bbox-edge-midpoints="true"
     inkscape:window-width="1920"
     inkscape:window-height="1017"
     inkscape:window-x="-8"
     inkscape:window-y="-8"
     inkscape:window-maximized="1"
     showguides="true">
    <inkscape:grid
       type="xygrid"
       id="grid23" />
  </sodipodi:namedview>
  <metadata
     id="metadata5">
    <rdf:RDF>
      <cc:Work
         rdf:about="">
        <dc:format>image/svg+xml</dc:format>
        <dc:type
           rdf:resource="http://purl.org/dc/dcmitype/StillImage" />
        <dc:title />
      </cc:Work>
    </rdf:RDF>
  </metadata>
  <g
     inkscape:groupmode="layer"
     id="layer3"
     inkscape:label="Panel"
     style="display:inline"
     sodipodi:insensitive="true">
    <rect
       id="rect3855"
       width="31.75"
       height="100.54166"
       x="-3.3306691e-16"
       y="-7.0117189e-06"
       style="fill:#520000;stroke-width:0.46816432" />
  </g>
  <g
     inkscape:label="Layer 1"
     inkscape:groupmode="layer"
     id="layer1"
     transform="translate(0,-196.45832)"
     style="display:inline">
    <rect
       y="275.30414"
       x="1.8520833"
       height="13.757087"
       width="28.045834"
       id="rect1311"
       style="fill:#6f1e00;stroke-width:0.84527969" />
    <text
       xml:space="preserve"
       style="font-style:normal;font-weight:normal;font-size:3.17499995px;line-height:1.25;font-family:sans-serif;letter-spacing:0px;word-spacing:0px;fill:#ffffff;fill-opacity:1;stroke:none;stroke-width:0.26458332"
       x="29.104166"
       y="266.57291"
       id="text35"><tspan
         sodipodi:role="line"
         id="tspan33"
         x="29.104166"
         y="269.38205"
         style="stroke-width:0.26458332" /></text>
    <g
       aria-label="O/L"
       style="font-style:normal;font-weight:normal;font-size:2.11666656px;line-height:1.25;font-family:sans-serif;letter-spacing:0px;word-spacing:0px;fill:#ffffff;fill-opacity:1;stroke:none;stroke-width:0.26458332"
       id="text4004"
       transform="translate(-22.99592,19.53396)">
      <path
         d="m 37.875726,259.87979 q -0.227377,0 -0.361735,0.16949 -0.133326,0.1695 -0.133326,0.46199 0,0.29146 0.133326,0.46095 0.134358,0.1695 0.361735,0.1695 0.227376,0 0.359667,-0.1695 0.133326,-0.16949 0.133326,-0.46095 0,-0.29249 -0.133326,-0.46199 -0.132291,-0.16949 -0.359667,-0.16949 z m 0,-0.1695 q 0.324527,0 0.518831,0.21807 0.194303,0.21704 0.194303,0.58291 0,0.36484 -0.194303,0.58291 -0.194304,0.21704 -0.518831,0.21704 -0.325562,0 -0.520899,-0.21704 -0.194303,-0.21704 -0.194303,-0.58291 0,-0.36587 0.194303,-0.58291 0.195337,-0.21807 0.520899,-0.21807 z"
         style="font-size:2.11666656px;stroke-width:0.26458332"
         id="path4006"
         inkscape:connector-curvature="0" />
      <path
         d="m 39.245151,259.73819 h 0.1757 l -0.537435,1.73943 h -0.1757 z"
         style="font-size:2.11666656px;stroke-width:0.26458332"
         id="path4008"
         inkscape:connector-curvature="0" />
      <path
         d="m 39.630657,259.73819 h 0.208773 v 1.36736 h 0.751375 v 0.1757 h -0.960148 z"
         style="font-size:2.11666656px;stroke-width:0.26458332"
         id="path4010"
         inkscape:connector-curvature="0" />
    </g>
    <g
       aria-label="/^M^\"
       style="font-style:normal;font-variant:normal;font-weight:normal;font-stretch:normal;font-size:2.82222223px;line-height:1.25;font-family:'Copperplate Gothic Light';-inkscape-font-specification:'Copperplate Gothic Light, ';letter-spacing:0px;word-spacing:0px;fill:#ffffff;fill-opacity:1;stroke:#ffffff;stroke-width:0.2;stroke-miterlimit:4;stroke-dasharray:none;stroke-opacity:1"
       id="text956"
       transform="translate(-9.481569,3.7456238)">
      <path
         d="m 21.203855,291.40545 v 0.0386 h -0.434082 v -0.0386 q 0.09509,-0.006 0.224621,-0.17088 l 1.094162,-1.4621 q 0.07441,-0.1006 0.07441,-0.12402 0,-0.0372 -0.06615,-0.0482 v -0.0372 h 0.423058 v 0.0372 q -0.09508,0.006 -0.22462,0.17087 l -1.08176,1.46348 q -0.07579,0.10197 -0.07579,0.12402 0,0.0358 0.06615,0.0469 z"
         style="font-style:normal;font-variant:normal;font-weight:normal;font-stretch:normal;font-size:2.82222223px;line-height:1.25;font-family:'Copperplate Gothic Light';-inkscape-font-specification:'Copperplate Gothic Light, ';stroke:#ffffff;stroke-width:0.2;stroke-miterlimit:4;stroke-dasharray:none;stroke-opacity:1"
         id="path958"
         inkscape:connector-curvature="0" />
      <path
         d="M 22.940183,290.3857 H 22.73899 l 0.493338,-0.8282 h 0.243912 l 0.493338,0.8282 h -0.20395 l -0.413411,-0.68075 z"
         style="font-style:normal;font-variant:normal;font-weight:normal;font-stretch:normal;font-size:2.82222223px;line-height:1.25;font-family:'Copperplate Gothic Light';-inkscape-font-specification:'Copperplate Gothic Light, ';stroke:#ffffff;stroke-width:0.2;stroke-miterlimit:4;stroke-dasharray:none;stroke-opacity:1"
         id="path960"
         inkscape:connector-curvature="0" />
      <path
         d="m 25.342104,291.44403 -0.789616,-1.58061 v 1.418 q 0,0.0565 0.01791,0.0813 0.01791,0.0234 0.07028,0.0372 v 0.0441 h -0.373449 v -0.0441 q 0.05237,-0.0138 0.07028,-0.0372 0.01792,-0.0234 0.01792,-0.0813 v -1.5558 q 0,-0.0579 -0.01792,-0.0813 -0.01791,-0.0248 -0.07028,-0.0372 v -0.0441 h 0.487826 v 0.0441 q -0.06752,0.0234 -0.06752,0.0579 0,0.0165 0.04547,0.10611 l 0.62563,1.24161 0.628385,-1.25263 q 0.03307,-0.0661 0.03307,-0.0937 0,-0.0358 -0.06752,-0.0593 v -0.0441 h 0.49196 v 0.0441 q -0.05237,0.0138 -0.07028,0.0372 -0.01792,0.0234 -0.01792,0.0813 v 1.5558 q 0,0.0565 0.01792,0.0813 0.01791,0.0234 0.07028,0.0372 v 0.0441 h -0.392741 v -0.0441 q 0.05374,-0.0138 0.07028,-0.0372 0.01791,-0.0234 0.01791,-0.0813 v -1.418 z"
         style="font-style:normal;font-variant:normal;font-weight:normal;font-stretch:normal;font-size:2.82222223px;line-height:1.25;font-family:'Copperplate Gothic Light';-inkscape-font-specification:'Copperplate Gothic Light, ';stroke:#ffffff;stroke-width:0.2;stroke-miterlimit:4;stroke-dasharray:none;stroke-opacity:1"
         id="path962"
         inkscape:connector-curvature="0" />
      <path
         d="m 26.942006,290.3857 h -0.201193 l 0.493338,-0.8282 h 0.243912 l 0.493338,0.8282 h -0.20395 l -0.413411,-0.68075 z"
         style="font-style:normal;font-variant:normal;font-weight:normal;font-stretch:normal;font-size:2.82222223px;line-height:1.25;font-family:'Copperplate Gothic Light';-inkscape-font-specification:'Copperplate Gothic Light, ';stroke:#ffffff;stroke-width:0.2;stroke-miterlimit:4;stroke-dasharray:none;stroke-opacity:1"
         id="path964"
         inkscape:connector-curvature="0" />
      <path
         d="m 28.617701,289.56301 v 0.0372 q -0.06615,0.011 -0.06615,0.0482 0,0.0234 0.07441,0.12402 l 1.092784,1.4621 q 0.129536,0.16536 0.22462,0.17088 v 0.0386 h -0.434082 v -0.0386 q 0.06615,-0.011 0.06615,-0.0469 0,-0.0207 -0.07579,-0.12402 l -1.080382,-1.46348 q -0.129535,-0.16536 -0.22462,-0.17087 v -0.0372 z"
         style="font-style:normal;font-variant:normal;font-weight:normal;font-stretch:normal;font-size:2.82222223px;line-height:1.25;font-family:'Copperplate Gothic Light';-inkscape-font-specification:'Copperplate Gothic Light, ';stroke:#ffffff;stroke-width:0.2;stroke-miterlimit:4;stroke-dasharray:none;stroke-opacity:1"
         id="path966"
         inkscape:connector-curvature="0" />
    </g>
    <g
       aria-label="OUTPUT"
       style="font-style:normal;font-variant:normal;font-weight:normal;font-stretch:normal;font-size:2.82222223px;line-height:1.25;font-family:'Yu Gothic UI';-inkscape-font-specification:'Yu Gothic UI';letter-spacing:0px;word-spacing:0px;fill:#ffffff;fill-opacity:1;stroke:none;stroke-width:0.26458332"
       id="text1176"
       transform="translate(-5.3666667e-7,11.329184)">
      <path
         d="m 3.6744952,267.77843 q -0.4203016,0 -0.6738607,-0.27698 -0.252181,-0.27699 -0.252181,-0.72072 0,-0.4768 0.2576932,-0.76067 0.2576931,-0.28388 0.7014214,-0.28388 0.4092774,0 0.6587023,0.27561 0.2508029,0.27561 0.2508029,0.72071 0,0.48369 -0.2563151,0.76481 -0.2563151,0.28112 -0.686263,0.28112 z m 0.016536,-1.83279 q -0.3114367,0 -0.5057401,0.22462 -0.1943033,0.22462 -0.1943033,0.5898 0,0.36518 0.1887912,0.58843 0.1901693,0.22186 0.4947157,0.22186 0.325217,0 0.5126302,-0.21222 0.1874132,-0.21222 0.1874132,-0.59393 0,-0.39136 -0.181901,-0.60496 -0.1819011,-0.2136 -0.5016059,-0.2136 z"
         style="stroke-width:0.26458332"
         id="path1201"
         inkscape:connector-curvature="0" />
      <path
         d="m 6.4512422,266.9461 q 0,0.83233 -0.7510308,0.83233 -0.7193359,0 -0.7193359,-0.80064 v -1.20854 h 0.2315104 v 1.19339 q 0,0.60771 0.5126302,0.60771 0.4947157,0 0.4947157,-0.58704 v -1.21406 h 0.2315104 z"
         style="stroke-width:0.26458332"
         id="path1203"
         inkscape:connector-curvature="0" />
      <path
         d="M 8.1145344,265.97872 H 7.5440265 v 1.76664 H 7.3125161 v -1.76664 H 6.7433864 v -0.20947 h 1.371148 z"
         style="stroke-width:0.26458332"
         id="path1205"
         inkscape:connector-curvature="0" />
      <path
         d="m 8.6547252,266.99846 v 0.7469 H 8.4232147 v -1.97611 h 0.5429471 q 0.3169488,0 0.4905816,0.15434 0.1750108,0.15435 0.1750108,0.43546 0,0.28112 -0.1943033,0.46027 -0.1929254,0.17914 -0.5222765,0.17914 z m 0,-1.01974 v 0.81028 h 0.2425347 q 0.2397786,0 0.3651801,-0.10886 0.1267795,-0.11025 0.1267795,-0.31006 0,-0.39136 -0.4630208,-0.39136 z"
         style="stroke-width:0.26458332"
         id="path1207"
         inkscape:connector-curvature="0" />
      <path
         d="m 11.450765,266.9461 q 0,0.83233 -0.751031,0.83233 -0.7193361,0 -0.7193361,-0.80064 v -1.20854 h 0.2315101 v 1.19339 q 0,0.60771 0.512631,0.60771 0.494715,0 0.494715,-0.58704 v -1.21406 h 0.231511 z"
         style="stroke-width:0.26458332"
         id="path1209"
         inkscape:connector-curvature="0" />
      <path
         d="m 13.114057,265.97872 h -0.570508 v 1.76664 h -0.23151 v -1.76664 h -0.56913 v -0.20947 h 1.371148 z"
         style="stroke-width:0.26458332"
         id="path1211"
         inkscape:connector-curvature="0" />
    </g>
    <g
       aria-label="INPUT"
       style="font-style:normal;font-variant:normal;font-weight:normal;font-stretch:normal;font-size:2.82222223px;line-height:1.25;font-family:'Yu Gothic UI';-inkscape-font-specification:'Yu Gothic UI';letter-spacing:0px;word-spacing:0px;fill:#ffffff;fill-opacity:1;stroke:none;stroke-width:0.26458332"
       id="text927"
       transform="translate(-4.0348959,1.9000018)">
      <path
         d="M 8.4280816,204.39581 H 8.1965712 v -1.9761 h 0.2315104 z"
         style="stroke-width:0.26458332"
         id="path929"
         inkscape:connector-curvature="0" />
      <path
         d="M 10.539236,204.39581 H 10.25536 l -1.0169919,-1.57509 q -0.038585,-0.0593 -0.06339,-0.12403 h -0.00827 q 0.011024,0.0634 0.011024,0.27148 v 1.42764 H 8.946224 v -1.9761 H 9.2466363 L 10.236068,203.97 q 0.06201,0.0965 0.07993,0.13229 h 0.0055 q -0.01378,-0.0854 -0.01378,-0.29077 v -1.39181 h 0.23151 z"
         style="stroke-width:0.26458332"
         id="path931"
         inkscape:connector-curvature="0" />
      <path
         d="m 11.288889,203.64892 v 0.74689 h -0.23151 v -1.9761 h 0.542947 q 0.316948,0 0.490581,0.15434 0.175011,0.15434 0.175011,0.43546 0,0.28112 -0.194303,0.46026 -0.192926,0.17915 -0.522277,0.17915 z m 0,-1.01975 v 0.81028 h 0.242535 q 0.239778,0 0.36518,-0.10886 0.126779,-0.11024 0.126779,-0.31006 0,-0.39136 -0.46302,-0.39136 z"
         style="stroke-width:0.26458332"
         id="path933"
         inkscape:connector-curvature="0" />
      <path
         d="m 14.084929,203.59655 q 0,0.83234 -0.751031,0.83234 -0.719336,0 -0.719336,-0.80064 v -1.20854 h 0.23151 v 1.19338 q 0,0.60771 0.51263,0.60771 0.494716,0 0.494716,-0.58704 v -1.21405 h 0.231511 z"
         style="stroke-width:0.26458332"
         id="path935"
         inkscape:connector-curvature="0" />
      <path
         d="m 15.74822,202.62917 h -0.570507 v 1.76664 h -0.231511 v -1.76664 h -0.56913 v -0.20946 h 1.371148 z"
         style="stroke-width:0.26458332"
         id="path937"
         inkscape:connector-curvature="0" />
    </g>
    <g
       aria-label="SUB"
       style="font-style:normal;font-variant:normal;font-weight:600;font-stretch:normal;font-size:3.52777767px;line-height:1.25;font-family:'Yu Gothic UI';-inkscape-font-specification:'Yu Gothic UI Semi-Bold';letter-spacing:0px;word-spacing:0px;fill:#ffffff;fill-opacity:1;stroke:none;stroke-width:0.26458332"
       id="text1886"
       transform="translate(0,0.39475334)">
      <path
         d="m 12.781304,199.53513 v -0.42202 q 0.05684,0.0517 0.134359,0.093 0.07924,0.0413 0.167087,0.0706 0.08785,0.0276 0.1757,0.0431 0.08785,0.0155 0.161919,0.0155 0.258382,0 0.384128,-0.0861 0.127469,-0.0861 0.127469,-0.24977 0,-0.0878 -0.04306,-0.15159 -0.04134,-0.0654 -0.117133,-0.11885 -0.07579,-0.0534 -0.179145,-0.10163 -0.10163,-0.05 -0.218764,-0.10335 -0.125746,-0.0672 -0.234266,-0.13609 -0.108521,-0.0689 -0.18948,-0.15158 -0.07924,-0.0844 -0.125746,-0.18948 -0.04479,-0.10508 -0.04479,-0.24632 0,-0.17398 0.07752,-0.30145 0.07924,-0.12919 0.206706,-0.21187 0.129191,-0.0844 0.292833,-0.12403 0.163642,-0.0413 0.334174,-0.0413 0.387573,0 0.564996,0.0879 v 0.4048 q -0.210151,-0.15158 -0.54088,-0.15158 -0.09129,0 -0.18259,0.0172 -0.08957,0.0172 -0.16192,0.0568 -0.07062,0.0396 -0.11541,0.10163 -0.04479,0.062 -0.04479,0.14986 0,0.0827 0.03445,0.14297 0.03445,0.0603 0.09991,0.11024 0.06718,0.05 0.16192,0.0982 0.09646,0.0465 0.222208,0.10163 0.129191,0.0672 0.242879,0.14125 0.115411,0.0741 0.201539,0.16364 0.08785,0.0896 0.137803,0.19981 0.05168,0.10852 0.05168,0.24805 0,0.18776 -0.07579,0.31695 -0.07579,0.12919 -0.204983,0.21015 -0.127469,0.081 -0.294556,0.11713 -0.167087,0.0362 -0.353122,0.0362 -0.06201,0 -0.153307,-0.0103 -0.08957,-0.009 -0.184313,-0.0276 -0.09474,-0.0172 -0.179145,-0.0431 -0.08441,-0.0258 -0.136081,-0.0586 z"
         style="font-style:normal;font-variant:normal;font-weight:600;font-stretch:normal;font-size:3.52777767px;font-family:'Yu Gothic UI';-inkscape-font-specification:'Yu Gothic UI Semi-Bold';stroke-width:0.26458332"
         id="path1892"
         inkscape:connector-curvature="0" />
      <path
         d="m 16.717326,198.63424 q 0,1.04042 -0.985298,1.04042 -0.943956,0 -0.943956,-1.0008 v -1.51068 h 0.409967 v 1.42627 q 0,0.72692 0.564995,0.72692 0.544325,0 0.544325,-0.70108 v -1.45211 h 0.409967 z"
         style="font-style:normal;font-variant:normal;font-weight:600;font-stretch:normal;font-size:3.52777767px;font-family:'Yu Gothic UI';-inkscape-font-specification:'Yu Gothic UI Semi-Bold';stroke-width:0.26458332"
         id="path1894"
         inkscape:connector-curvature="0" />
      <path
         d="m 17.297824,199.63332 v -2.47014 h 0.783759 q 0.35829,0 0.566719,0.15675 0.21015,0.15676 0.21015,0.40825 0,0.21015 -0.118855,0.36518 -0.118856,0.15503 -0.329007,0.22048 v 0.007 q 0.254937,0.0293 0.406521,0.18948 0.153307,0.15848 0.153307,0.41342 0,0.31695 -0.249769,0.51332 -0.24977,0.19637 -0.630453,0.19637 z m 0.408244,-2.14113 v 0.7028 h 0.265272 q 0.213596,0 0.334175,-0.0999 0.122301,-0.10163 0.122301,-0.28594 0,-0.31695 -0.423747,-0.31695 z m 0,1.03181 v 0.78203 h 0.349677 q 0.229099,0 0.353122,-0.10507 0.125746,-0.1068 0.125746,-0.29284 0,-0.38412 -0.532267,-0.38412 z"
         style="font-style:normal;font-variant:normal;font-weight:600;font-stretch:normal;font-size:3.52777767px;font-family:'Yu Gothic UI';-inkscape-font-specification:'Yu Gothic UI Semi-Bold';stroke-width:0.26458332"
         id="path1896"
         inkscape:connector-curvature="0" />
    </g>
    <g
       aria-label="HARMONIC GEN"
       style="font-style:normal;font-variant:normal;font-weight:600;font-stretch:normal;font-size:3.52777767px;line-height:1.25;font-family:'Yu Gothic UI';-inkscape-font-specification:'Yu Gothic UI Semi-Bold';letter-spacing:0px;word-spacing:0px;fill:#ffffff;fill-opacity:1;stroke:none;stroke-width:0.26458332"
       id="text1890"
       transform="translate(0,0.39482351)">
      <path
         d="M 4.6749952,202.8083 H 4.2633063 v -1.07142 H 3.1005866 v 1.07142 H 2.6906203 v -2.47013 h 0.4099663 v 1.0387 h 1.1627197 v -1.0387 h 0.4116889 z"
         style="font-style:normal;font-variant:normal;font-weight:600;font-stretch:normal;font-size:3.52777767px;font-family:'Yu Gothic UI';-inkscape-font-specification:'Yu Gothic UI Semi-Bold';stroke-width:0.26458332"
         id="path1899"
         inkscape:connector-curvature="0" />
      <path
         d="M 7.3173833,202.8083 H 6.8677984 L 6.6455897,202.17957 H 5.6740728 L 5.4604769,202.8083 H 5.0126145 l 0.9250081,-2.47013 h 0.4616428 z m -0.7803141,-0.9629 -0.342787,-0.9853 q -0.015503,-0.0482 -0.032728,-0.15503 h -0.00689 q -0.015503,0.0982 -0.034451,0.15503 l -0.3393419,0.9853 z"
         style="font-style:normal;font-variant:normal;font-weight:600;font-stretch:normal;font-size:3.52777767px;font-family:'Yu Gothic UI';-inkscape-font-specification:'Yu Gothic UI Semi-Bold';stroke-width:0.26458332"
         id="path1901"
         inkscape:connector-curvature="0" />
      <path
         d="M 9.5670309,202.8083 H 9.0881626 l -0.3944634,-0.66145 q -0.053399,-0.0913 -0.1050754,-0.15503 -0.049954,-0.0655 -0.1033529,-0.1068 -0.051676,-0.0413 -0.1136881,-0.0603 -0.062012,-0.0189 -0.1395264,-0.0189 H 8.0666919 v 1.00252 H 7.6584481 v -2.47013 h 0.8130425 q 0.1739773,0 0.3203938,0.0413 0.1464166,0.0413 0.2549371,0.12575 0.1085205,0.0827 0.1688097,0.20843 0.062012,0.12402 0.062012,0.29111 0,0.13091 -0.039619,0.24115 -0.037896,0.10852 -0.1102431,0.19465 -0.070624,0.0844 -0.1722547,0.14469 -0.099908,0.0603 -0.2256538,0.093 v 0.007 q 0.067179,0.0379 0.1171333,0.0844 0.049954,0.0448 0.09474,0.093 0.044786,0.0482 0.08785,0.11024 0.044786,0.0603 0.098185,0.14125 z m -1.500339,-2.13768 v 0.80271 h 0.3410644 q 0.09474,0 0.1739773,-0.0293 0.08096,-0.0293 0.1395264,-0.0844 0.058567,-0.0551 0.091295,-0.13436 0.032728,-0.0792 0.032728,-0.17742 0,-0.17742 -0.1119656,-0.27733 -0.1119656,-0.0999 -0.3221164,-0.0999 z"
         style="font-style:normal;font-variant:normal;font-weight:600;font-stretch:normal;font-size:3.52777767px;font-family:'Yu Gothic UI';-inkscape-font-specification:'Yu Gothic UI Semi-Bold';stroke-width:0.26458332"
         id="path1903"
         inkscape:connector-curvature="0" />
      <path
         d="m 12.509142,202.8083 h -0.406521 v -1.59852 q 0,-0.19637 0.02412,-0.48059 h -0.0069 q -0.0379,0.16192 -0.06718,0.23254 l -0.737251,1.84657 h -0.282497 l -0.738973,-1.83279 q -0.03101,-0.081 -0.06546,-0.24632 h -0.0069 q 0.01378,0.14814 0.01378,0.48403 v 1.59508 H 9.8564184 v -2.47013 h 0.5770536 l 0.6494,1.64503 q 0.07407,0.18948 0.09646,0.2825 h 0.0086 q 0.06373,-0.19465 0.103353,-0.28939 l 0.661458,-1.63814 h 0.556383 z"
         style="font-style:normal;font-variant:normal;font-weight:600;font-stretch:normal;font-size:3.52777767px;font-family:'Yu Gothic UI';-inkscape-font-specification:'Yu Gothic UI Semi-Bold';stroke-width:0.26458332"
         id="path1905"
         inkscape:connector-curvature="0" />
      <path
         d="m 14.133504,202.84964 q -0.53399,0 -0.856106,-0.34623 -0.320394,-0.34623 -0.320394,-0.90089 0,-0.596 0.327284,-0.95085 0.327284,-0.35484 0.888835,-0.35484 0.520209,0 0.837158,0.34451 0.318671,0.34451 0.318671,0.90089 0,0.60462 -0.325561,0.95602 -0.325562,0.35139 -0.869887,0.35139 z m 0.01895,-2.1928 q -0.339342,0 -0.552938,0.25322 -0.211873,0.25321 -0.211873,0.66662 0,0.41169 0.206706,0.66318 0.206705,0.2515 0.54088,0.2515 0.354844,0 0.559828,-0.23944 0.204983,-0.23943 0.204983,-0.67007 0,-0.44269 -0.199816,-0.68385 -0.198093,-0.24116 -0.54777,-0.24116 z"
         style="font-style:normal;font-variant:normal;font-weight:600;font-stretch:normal;font-size:3.52777767px;font-family:'Yu Gothic UI';-inkscape-font-specification:'Yu Gothic UI Semi-Bold';stroke-width:0.26458332"
         id="path1907"
         inkscape:connector-curvature="0" />
      <path
         d="m 17.8766,202.8083 h -0.447862 l -1.179945,-1.81556 q -0.04479,-0.0689 -0.07407,-0.14297 h -0.01034 q 0.01378,0.0792 0.01378,0.33934 v 1.61919 h -0.396186 v -2.47013 h 0.477146 l 1.140327,1.7725 q 0.07235,0.11025 0.09302,0.15159 h 0.0069 q -0.01722,-0.0982 -0.01722,-0.33246 v -1.59163 h 0.39445 z"
         style="font-style:normal;font-variant:normal;font-weight:600;font-stretch:normal;font-size:3.52777767px;font-family:'Yu Gothic UI';-inkscape-font-specification:'Yu Gothic UI Semi-Bold';stroke-width:0.26458332"
         id="path1909"
         inkscape:connector-curvature="0" />
      <path
         d="m 18.91013,202.8083 h -0.422025 v -2.47013 h 0.422025 z"
         style="font-style:normal;font-variant:normal;font-weight:600;font-stretch:normal;font-size:3.52777767px;font-family:'Yu Gothic UI';-inkscape-font-specification:'Yu Gothic UI Semi-Bold';stroke-width:0.26458332"
         id="path1911"
         inkscape:connector-curvature="0" />
      <path
         d="m 21.239014,202.70495 q -0.279053,0.14469 -0.694187,0.14469 -0.537435,0 -0.861274,-0.33934 -0.323839,-0.33934 -0.323839,-0.89055 0,-0.59256 0.363458,-0.95774 0.36518,-0.36518 0.921563,-0.36518 0.35829,0 0.594279,0.10163 v 0.40652 q -0.24977,-0.14814 -0.551216,-0.14814 -0.401353,0 -0.651123,0.25666 -0.248046,0.25666 -0.248046,0.68558 0,0.40824 0.232543,0.65112 0.232544,0.24116 0.611505,0.24116 0.349677,0 0.606337,-0.16537 z"
         style="font-style:normal;font-variant:normal;font-weight:600;font-stretch:normal;font-size:3.52777767px;font-family:'Yu Gothic UI';-inkscape-font-specification:'Yu Gothic UI Semi-Bold';stroke-width:0.26458332"
         id="path1913"
         inkscape:connector-curvature="0" />
      <path
         d="m 24.606594,202.63949 q -0.38585,0.21015 -0.859551,0.21015 -0.54777,0 -0.887112,-0.34106 -0.339342,-0.34106 -0.339342,-0.90261 0,-0.57361 0.370348,-0.94052 0.37207,-0.36862 0.943956,-0.36862 0.411689,0 0.692464,0.12058 v 0.42202 q -0.28422,-0.18948 -0.676961,-0.18948 -0.394463,0 -0.647678,0.26011 -0.251492,0.2601 -0.251492,0.67351 0,0.42547 0.217041,0.67007 0.217041,0.24288 0.589111,0.24288 0.254938,0 0.440973,-0.0982 v -0.58739 h -0.52021 v -0.34451 h 0.928453 z"
         style="font-style:normal;font-variant:normal;font-weight:600;font-stretch:normal;font-size:3.52777767px;font-family:'Yu Gothic UI';-inkscape-font-specification:'Yu Gothic UI Semi-Bold';stroke-width:0.26458332"
         id="path1915"
         inkscape:connector-curvature="0" />
      <path
         d="m 26.525513,202.8083 h -1.386651 v -2.47013 h 1.33153 v 0.34796 h -0.921563 v 0.69935 h 0.849216 v 0.34623 h -0.849216 v 0.73036 h 0.976684 z"
         style="font-style:normal;font-variant:normal;font-weight:600;font-stretch:normal;font-size:3.52777767px;font-family:'Yu Gothic UI';-inkscape-font-specification:'Yu Gothic UI Semi-Bold';stroke-width:0.26458332"
         id="path1917"
         inkscape:connector-curvature="0" />
      <path
         d="m 29.05938,202.8083 h -0.447863 l -1.179945,-1.81556 q -0.04479,-0.0689 -0.07407,-0.14297 h -0.01034 q 0.01378,0.0792 0.01378,0.33934 v 1.61919 h -0.396186 v -2.47013 h 0.477145 l 1.140327,1.7725 q 0.07235,0.11025 0.09302,0.15159 h 0.0069 q -0.01723,-0.0982 -0.01723,-0.33246 v -1.59163 h 0.394464 z"
         style="font-style:normal;font-variant:normal;font-weight:600;font-stretch:normal;font-size:3.52777767px;font-family:'Yu Gothic UI';-inkscape-font-specification:'Yu Gothic UI Semi-Bold';stroke-width:0.26458332"
         id="path1919"
         inkscape:connector-curvature="0" />
    </g>
    <g
       aria-label="LEVEL"
       style="font-style:normal;font-variant:normal;font-weight:normal;font-stretch:normal;font-size:2.82222223px;line-height:1.25;font-family:'Yu Gothic UI';-inkscape-font-specification:'Yu Gothic UI';letter-spacing:0px;word-spacing:0px;fill:#ffffff;fill-opacity:1;stroke:none;stroke-width:0.26458332"
       id="text1924"
       transform="translate(-1.1055803,0.6000372)">
      <path
         d="m 22.450998,277.15625 h -1.025261 v -1.97611 h 0.231511 v 1.76665 h 0.79375 z"
         style="stroke-width:0.26458332"
         id="path1926"
         inkscape:connector-curvature="0" />
      <path
         d="m 23.801475,277.15625 h -1.047309 v -1.97611 h 1.003212 v 0.20947 h -0.771702 v 0.65732 H 23.6995 v 0.20808 h -0.713824 v 0.69178 h 0.815799 z"
         style="stroke-width:0.26458332"
         id="path1928"
         inkscape:connector-curvature="0" />
      <path
         d="m 25.650802,275.18014 -0.731738,1.97611 h -0.254937 l -0.71658,-1.97611 h 0.257693 l 0.547081,1.56683 q 0.02618,0.0758 0.03996,0.17501 h 0.0055 q 0.01102,-0.0827 0.04547,-0.17776 l 0.558105,-1.56408 z"
         style="stroke-width:0.26458332"
         id="path1930"
         inkscape:connector-curvature="0" />
      <path
         d="m 26.981987,277.15625 h -1.047309 v -1.97611 h 1.003212 v 0.20947 h -0.771701 v 0.65732 h 0.713824 v 0.20808 h -0.713824 v 0.69178 h 0.815798 z"
         style="stroke-width:0.26458332"
         id="path1932"
         inkscape:connector-curvature="0" />
      <path
         d="m 28.387586,277.15625 h -1.02526 v -1.97611 h 0.23151 v 1.76665 h 0.79375 z"
         style="stroke-width:0.26458332"
         id="path1934"
         inkscape:connector-curvature="0" />
    </g>
    <g
       aria-label="÷1 "
       style="font-style:normal;font-variant:normal;font-weight:400;font-size:3.88606763px;line-height:125%;font-family:Calibri;text-align:start;letter-spacing:0px;word-spacing:0px;text-anchor:start;fill:#ffffff;fill-opacity:1;stroke:none;stroke-width:0.26458332"
       id="text2029"
       transform="translate(-8.1988487,3.8043929)">
      <path
         d="m 22.897003,203.78862 q -0.06063,0 -0.101974,-0.0413 -0.04134,-0.0427 -0.04134,-0.10335 0,-0.062 0.03996,-0.10611 0.03996,-0.0441 0.103352,-0.0441 0.141938,0 0.141938,0.14745 0,0.0648 -0.04272,0.10611 -0.04134,0.0413 -0.09922,0.0413 z m 0.63941,0.46578 h -1.295356 v -0.18466 h 1.295356 z m -0.644922,0.57602 q -0.06063,0 -0.103353,-0.0413 -0.04272,-0.0414 -0.04272,-0.1006 0,-0.062 0.04134,-0.10749 0.04134,-0.0455 0.104731,-0.0455 0.139182,0 0.139182,0.1502 0,0.062 -0.03996,0.10336 -0.03996,0.0413 -0.09922,0.0413 z"
         style="font-style:normal;font-variant:normal;font-weight:normal;font-stretch:normal;font-size:2.82222223px;font-family:'Yu Gothic UI';-inkscape-font-specification:'Yu Gothic UI';fill:#ffffff;stroke-width:0.26458332"
         id="path1081"
         inkscape:connector-curvature="0" />
      <path
         d="m 24.848306,204.98476 h -0.225999 v -1.70739 q -0.02618,0.0262 -0.07717,0.0606 -0.04961,0.0331 -0.112999,0.0661 -0.06201,0.0331 -0.132292,0.062 -0.0689,0.0289 -0.135047,0.0455 v -0.22875 q 0.07441,-0.0207 0.157096,-0.0551 0.08406,-0.0358 0.163986,-0.0785 0.08131,-0.0441 0.152963,-0.091 0.07166,-0.0482 0.124023,-0.0937 h 0.08544 z"
         style="font-style:normal;font-variant:normal;font-weight:normal;font-stretch:normal;font-size:2.82222223px;font-family:'Yu Gothic UI';-inkscape-font-specification:'Yu Gothic UI';fill:#ffffff;stroke-width:0.26458332"
         id="path1083"
         inkscape:connector-curvature="0" />
    </g>
    <g
       aria-label="÷A "
       style="font-style:normal;font-variant:normal;font-weight:normal;font-stretch:normal;font-size:2.82222223px;line-height:125%;font-family:'Yu Gothic UI';-inkscape-font-specification:'Yu Gothic UI';text-align:start;letter-spacing:0px;word-spacing:0px;text-anchor:start;fill:#ffffff;fill-opacity:1;stroke:none;stroke-width:0.26458332"
       id="text1140"
       transform="translate(0.52916667)">
      <path
         d="m 13.758334,222.20268 q -0.06063,0 -0.101974,-0.0413 -0.04134,-0.0427 -0.04134,-0.10335 0,-0.062 0.03996,-0.10611 0.03996,-0.0441 0.103352,-0.0441 0.141938,0 0.141938,0.14745 0,0.0648 -0.04272,0.10611 -0.04134,0.0413 -0.09922,0.0413 z m 0.63941,0.46578 h -1.295356 v -0.18466 h 1.295356 z m -0.644922,0.57602 q -0.06063,0 -0.103353,-0.0413 -0.04272,-0.0413 -0.04272,-0.1006 0,-0.062 0.04134,-0.10749 0.04134,-0.0455 0.104731,-0.0455 0.139182,0 0.139182,0.1502 0,0.062 -0.03996,0.10336 -0.03996,0.0413 -0.09922,0.0413 z"
         style="font-style:normal;font-variant:normal;font-weight:normal;font-stretch:normal;font-size:2.82222223px;font-family:'Yu Gothic UI';-inkscape-font-specification:'Yu Gothic UI';fill:#ffffff;stroke-width:0.26458332"
         id="path1298"
         inkscape:connector-curvature="0" />
      <path
         d="m 16.50063,223.39882 h -0.256315 l -0.209461,-0.55397 h -0.837848 l -0.197059,0.55397 h -0.257693 l 0.757921,-1.97611 h 0.239778 z m -0.541569,-0.76206 -0.310058,-0.84198 q -0.01516,-0.0413 -0.03032,-0.13229 h -0.0055 q -0.01378,0.0841 -0.0317,0.13229 l -0.307303,0.84198 z"
         style="font-style:normal;font-variant:normal;font-weight:normal;font-stretch:normal;font-size:2.82222223px;font-family:'Yu Gothic UI';-inkscape-font-specification:'Yu Gothic UI';fill:#ffffff;stroke-width:0.26458332"
         id="path1300"
         inkscape:connector-curvature="0" />
    </g>
    <g
       aria-label="÷B "
       style="font-style:normal;font-variant:normal;font-weight:normal;font-stretch:normal;font-size:2.82222223px;line-height:125%;font-family:'Yu Gothic UI';-inkscape-font-specification:'Yu Gothic UI';text-align:start;letter-spacing:0px;word-spacing:0px;text-anchor:start;fill:#ffffff;fill-opacity:1;stroke:none;stroke-width:0.26458332"
       id="text1159"
       transform="translate(0.52916667)">
      <path
         d="m 13.857553,236.74359 q -0.06063,0 -0.101975,-0.0413 -0.04134,-0.0427 -0.04134,-0.10335 0,-0.062 0.03996,-0.10611 0.03996,-0.0441 0.103353,-0.0441 0.141938,0 0.141938,0.14745 0,0.0648 -0.04272,0.10611 -0.04134,0.0413 -0.09922,0.0413 z m 0.63941,0.46578 h -1.295356 v -0.18466 h 1.295356 z m -0.644922,0.57602 q -0.06063,0 -0.103353,-0.0413 -0.04272,-0.0413 -0.04272,-0.1006 0,-0.062 0.04134,-0.10749 0.04134,-0.0455 0.104731,-0.0455 0.139181,0 0.139181,0.1502 0,0.062 -0.03996,0.10336 -0.03996,0.0413 -0.09922,0.0413 z"
         style="font-style:normal;font-variant:normal;font-weight:normal;font-stretch:normal;font-size:2.82222223px;font-family:'Yu Gothic UI';-inkscape-font-specification:'Yu Gothic UI';fill:#ffffff;stroke-width:0.26458332"
         id="path1293"
         inkscape:connector-curvature="0" />
      <path
         d="m 15.070226,237.93973 v -1.97611 h 0.56224 q 0.256315,0 0.406521,0.1254 0.150206,0.1254 0.150206,0.3266 0,0.16812 -0.09095,0.29214 -0.09095,0.12403 -0.250803,0.17639 v 0.006 q 0.199815,0.0234 0.319705,0.15159 0.119889,0.12678 0.119889,0.33073 0,0.25356 -0.181901,0.41065 -0.181901,0.1571 -0.458887,0.1571 z m 0.231511,-1.76665 v 0.63803 h 0.237022 q 0.19017,0 0.299035,-0.091 0.108865,-0.0923 0.108865,-0.25907 0,-0.28801 -0.378961,-0.28801 z m 0,0.84612 v 0.71107 h 0.314193 q 0.203949,0 0.31557,-0.0965 0.112999,-0.0965 0.112999,-0.26458 0,-0.35002 -0.476801,-0.35002 z"
         style="font-style:normal;font-variant:normal;font-weight:normal;font-stretch:normal;font-size:2.82222223px;font-family:'Yu Gothic UI';-inkscape-font-specification:'Yu Gothic UI';fill:#ffffff;stroke-width:0.26458332"
         id="path1295"
         inkscape:connector-curvature="0" />
    </g>
    <g
       aria-label="÷C "
       style="font-style:normal;font-variant:normal;font-weight:normal;font-stretch:normal;font-size:2.82222223px;line-height:125%;font-family:'Yu Gothic UI';-inkscape-font-specification:'Yu Gothic UI';text-align:start;letter-spacing:0px;word-spacing:0px;text-anchor:start;fill:#ffffff;fill-opacity:1;stroke:none;stroke-width:0.26458332"
       id="text1167"
       transform="translate(0.52916667)">
      <path
         d="m 13.794163,251.30023 q -0.06063,0 -0.101975,-0.0413 -0.04134,-0.0427 -0.04134,-0.10335 0,-0.062 0.03996,-0.10611 0.03996,-0.0441 0.103353,-0.0441 0.141938,0 0.141938,0.14745 0,0.0648 -0.04272,0.10611 -0.04134,0.0413 -0.09922,0.0413 z m 0.63941,0.46578 h -1.295356 v -0.18466 h 1.295356 z m -0.644922,0.57602 q -0.06063,0 -0.103353,-0.0413 -0.04272,-0.0413 -0.04272,-0.1006 0,-0.062 0.04134,-0.10749 0.04134,-0.0455 0.104731,-0.0455 0.139182,0 0.139182,0.1502 0,0.062 -0.03996,0.10336 -0.03996,0.0413 -0.09922,0.0413 z"
         style="font-style:normal;font-variant:normal;font-weight:normal;font-stretch:normal;font-size:2.82222223px;font-family:'Yu Gothic UI';-inkscape-font-specification:'Yu Gothic UI';fill:#ffffff;stroke-width:0.26458332"
         id="path1288"
         inkscape:connector-curvature="0" />
      <path
         d="m 16.351802,252.41369 q -0.219108,0.11575 -0.545703,0.11575 -0.42168,0 -0.675239,-0.27147 -0.253559,-0.27148 -0.253559,-0.71245 0,-0.47404 0.285254,-0.76619 0.285254,-0.29214 0.72347,-0.29214 0.28112,0 0.465777,0.0813 v 0.24667 q -0.212218,-0.11851 -0.468533,-0.11851 -0.340376,0 -0.552593,0.22738 -0.21084,0.22737 -0.21084,0.60771 0,0.36105 0.197059,0.57602 0.198438,0.2136 0.519521,0.2136 0.297656,0 0.515386,-0.13229 z"
         style="font-style:normal;font-variant:normal;font-weight:normal;font-stretch:normal;font-size:2.82222223px;font-family:'Yu Gothic UI';-inkscape-font-specification:'Yu Gothic UI';fill:#ffffff;stroke-width:0.26458332"
         id="path1290"
         inkscape:connector-curvature="0" />
    </g>
    <g
       aria-label="÷D "
       style="font-style:normal;font-variant:normal;font-weight:normal;font-stretch:normal;font-size:2.82222223px;line-height:125%;font-family:'Yu Gothic UI';-inkscape-font-specification:'Yu Gothic UI';text-align:start;letter-spacing:0px;word-spacing:0px;text-anchor:start;fill:#ffffff;fill-opacity:1;stroke:none;stroke-width:0.26458332"
       id="text1175"
       transform="translate(0.52916667)">
      <path
         d="m 13.678408,265.85657 q -0.06063,0 -0.101975,-0.0413 -0.04134,-0.0427 -0.04134,-0.10336 0,-0.062 0.03996,-0.10611 0.03996,-0.0441 0.103353,-0.0441 0.141938,0 0.141938,0.14745 0,0.0648 -0.04272,0.10611 -0.04134,0.0413 -0.09922,0.0413 z m 0.63941,0.46577 h -1.295356 v -0.18465 h 1.295356 z m -0.644922,0.57602 q -0.06063,0 -0.103353,-0.0413 -0.04272,-0.0413 -0.04272,-0.10059 0,-0.062 0.04134,-0.10749 0.04134,-0.0455 0.104731,-0.0455 0.139182,0 0.139182,0.15021 0,0.062 -0.03996,0.10335 -0.03996,0.0413 -0.09922,0.0413 z"
         style="font-style:normal;font-variant:normal;font-weight:normal;font-stretch:normal;font-size:2.82222223px;font-family:'Yu Gothic UI';-inkscape-font-specification:'Yu Gothic UI';fill:#ffffff;stroke-width:0.26458332"
         id="path1283"
         inkscape:connector-curvature="0" />
      <path
         d="m 14.891082,267.0527 v -1.9761 h 0.545703 q 1.044553,0 1.044553,0.96325 0,0.4575 -0.290766,0.73587 -0.289388,0.27698 -0.775836,0.27698 z m 0.23151,-1.76664 v 1.55718 h 0.2949 q 0.388607,0 0.604959,-0.20808 0.216352,-0.20809 0.216352,-0.5898 0,-0.7593 -0.807531,-0.7593 z"
         style="font-style:normal;font-variant:normal;font-weight:normal;font-stretch:normal;font-size:2.82222223px;font-family:'Yu Gothic UI';-inkscape-font-specification:'Yu Gothic UI';fill:#ffffff;stroke-width:0.26458332"
         id="path1285"
         inkscape:connector-curvature="0" />
    </g>
    <path
       style="fill:none;stroke:#ffffff;stroke-width:0.3;stroke-linecap:butt;stroke-linejoin:miter;stroke-miterlimit:4;stroke-dasharray:none;stroke-opacity:1"
       d="m 11.1125,210.48124 h 8.466667"
       id="path1177"
       inkscape:connector-curvature="0" />
    <path
       inkscape:connector-curvature="0"
       id="path1179"
       d="m 11.1125,239.58559 h 8.466667"
       style="fill:none;stroke:#ffffff;stroke-width:0.3ffffff1;stroke-linecap:butt;stroke-linejoin:miter;stroke-miterlimit:4;stroke-dasharray:none;stroke-opacity:1" />
    <path
       style="fill:none;stroke:#ffffff;stroke-width:0.3ffffff1;stroke-linecap:butt;stroke-linejoin:miter;stroke-miterlimit:4;stroke-dasharray:none;stroke-opacity:1"
       d="m 11.1125,268.68994 h 8.466667"
       id="path1181"
       inkscape:connector-curvature="0" />
    <path
       inkscape:connector-curvature="0"
       id="path1183"
       d="m 11.1125,225.01456 h 8.466667"
       style="fill:none;stroke:#ffffff;stroke-width:0.3ffffff1;stroke-linecap:butt;stroke-linejoin:miter;stroke-miterlimit:4;stroke-dasharray:none;stroke-opacity:1" />
    <path
       style="fill:none;stroke:#ffffff;stroke-width:0.3ffffff1;stroke-linecap:butt;stroke-linejoin:miter;stroke-miterlimit:4;stroke-dasharray:none;stroke-opacity:1"
       d="m 11.1125,254.11891 h 8.466667"
       id="path1185"
       inkscape:connector-curvature="0" />
    <g
       aria-label="16"
       style="font-style:normal;font-variant:normal;font-weight:normal;font-stretch:normal;font-size:2.11666656px;line-height:1.25;font-family:'Yu Gothic UI';-inkscape-font-specification:'Yu Gothic UI';letter-spacing:0px;word-spacing:0px;display:inline;fill:#ffffff;fill-opacity:1;stroke:none;stroke-width:0.26458332"
       id="g1212"
       transform="translate(-65.588641,17.882789)">
      <path
         d="m 76.154525,213.65623 h -0.169499 v -1.28054 q -0.01964,0.0196 -0.05788,0.0455 -0.03721,0.0248 -0.08475,0.0496 -0.04651,0.0248 -0.09922,0.0465 -0.05168,0.0217 -0.101285,0.0341 v -0.17156 q 0.05581,-0.0155 0.117822,-0.0413 0.06305,-0.0269 0.12299,-0.0589 0.06098,-0.0331 0.114721,-0.0682 0.05374,-0.0362 0.09302,-0.0703 h 0.06408 z"
         style="font-size:2.11666656px;stroke-width:0.26458332"
         id="path1208"
         inkscape:connector-curvature="0" />
      <path
         d="m 77.603532,213.18598 q 0,0.10852 -0.03514,0.19947 -0.03514,0.091 -0.09715,0.1571 -0.06201,0.0661 -0.147794,0.10335 -0.08578,0.0362 -0.186036,0.0362 -0.111621,0 -0.200504,-0.0465 -0.08785,-0.0465 -0.149862,-0.13332 -0.06098,-0.0879 -0.09302,-0.21394 -0.03204,-0.12609 -0.03204,-0.28422 0,-0.19327 0.04238,-0.35037 0.04341,-0.15813 0.121956,-0.26975 0.07958,-0.11265 0.191203,-0.17363 0.111621,-0.061 0.24908,-0.061 0.152963,0 0.24598,0.0424 v 0.1602 q -0.114721,-0.0589 -0.241845,-0.0589 -0.09922,0 -0.178801,0.0444 -0.07958,0.0444 -0.136426,0.12609 -0.05684,0.0806 -0.08785,0.19534 -0.02997,0.11472 -0.02997,0.25528 h 0.0041 q 0.10232,-0.185 0.337964,-0.185 0.09715,0 0.174666,0.0331 0.07855,0.0331 0.133326,0.0941 0.05581,0.06 0.08578,0.14366 0.02997,0.0837 0.02997,0.18604 z m -0.173633,0.0217 q 0,-0.0775 -0.01964,-0.13952 -0.01964,-0.062 -0.05684,-0.10542 -0.03617,-0.0434 -0.08992,-0.0661 -0.05374,-0.0238 -0.121957,-0.0238 -0.06305,0 -0.116788,0.0238 -0.05374,0.0238 -0.09302,0.0651 -0.03927,0.0403 -0.06201,0.0951 -0.0217,0.0537 -0.0217,0.11472 0,0.0765 0.0217,0.14366 0.0217,0.0661 0.06098,0.11576 0.03927,0.0496 0.09302,0.0785 0.05478,0.0279 0.120923,0.0279 0.06408,0 0.116789,-0.0238 0.05271,-0.0248 0.08992,-0.0682 0.03721,-0.0434 0.05788,-0.10335 0.02067,-0.061 0.02067,-0.13436 z"
         style="font-size:2.11666656px;stroke-width:0.26458332"
         id="path1210"
         inkscape:connector-curvature="0" />
    </g>
    <g
       transform="translate(-65.588641,32.439601)"
       id="g1224"
       style="font-style:normal;font-variant:normal;font-weight:normal;font-stretch:normal;font-size:2.11666656px;line-height:1.25;font-family:'Yu Gothic UI';-inkscape-font-specification:'Yu Gothic UI';letter-spacing:0px;word-spacing:0px;display:inline;fill:#ffffff;fill-opacity:1;stroke:none;stroke-width:0.26458332"
       aria-label="16">
      <path
         inkscape:connector-curvature="0"
         id="path1220"
         style="font-size:2.11666656px;stroke-width:0.26458332"
         d="m 76.154525,213.65623 h -0.169499 v -1.28054 q -0.01964,0.0196 -0.05788,0.0455 -0.03721,0.0248 -0.08475,0.0496 -0.04651,0.0248 -0.09922,0.0465 -0.05168,0.0217 -0.101285,0.0341 v -0.17156 q 0.05581,-0.0155 0.117822,-0.0413 0.06305,-0.0269 0.12299,-0.0589 0.06098,-0.0331 0.114721,-0.0682 0.05374,-0.0362 0.09302,-0.0703 h 0.06408 z" />
      <path
         inkscape:connector-curvature="0"
         id="path1222"
         style="font-size:2.11666656px;stroke-width:0.26458332"
         d="m 77.603532,213.18598 q 0,0.10852 -0.03514,0.19947 -0.03514,0.091 -0.09715,0.1571 -0.06201,0.0661 -0.147794,0.10335 -0.08578,0.0362 -0.186036,0.0362 -0.111621,0 -0.200504,-0.0465 -0.08785,-0.0465 -0.149862,-0.13332 -0.06098,-0.0879 -0.09302,-0.21394 -0.03204,-0.12609 -0.03204,-0.28422 0,-0.19327 0.04238,-0.35037 0.04341,-0.15813 0.121956,-0.26975 0.07958,-0.11265 0.191203,-0.17363 0.111621,-0.061 0.24908,-0.061 0.152963,0 0.24598,0.0424 v 0.1602 q -0.114721,-0.0589 -0.241845,-0.0589 -0.09922,0 -0.178801,0.0444 -0.07958,0.0444 -0.136426,0.12609 -0.05684,0.0806 -0.08785,0.19534 -0.02997,0.11472 -0.02997,0.25528 h 0.0041 q 0.10232,-0.185 0.337964,-0.185 0.09715,0 0.174666,0.0331 0.07855,0.0331 0.133326,0.0941 0.05581,0.06 0.08578,0.14366 0.02997,0.0837 0.02997,0.18604 z m -0.173633,0.0217 q 0,-0.0775 -0.01964,-0.13952 -0.01964,-0.062 -0.05684,-0.10542 -0.03617,-0.0434 -0.08992,-0.0661 -0.05374,-0.0238 -0.121957,-0.0238 -0.06305,0 -0.116788,0.0238 -0.05374,0.0238 -0.09302,0.0651 -0.03927,0.0403 -0.06201,0.0951 -0.0217,0.0537 -0.0217,0.11472 0,0.0765 0.0217,0.14366 0.0217,0.0661 0.06098,0.11576 0.03927,0.0496 0.09302,0.0785 0.05478,0.0279 0.120923,0.0279 0.06408,0 0.116789,-0.0238 0.05271,-0.0248 0.08992,-0.0682 0.03721,-0.0434 0.05788,-0.10335 0.02067,-0.061 0.02067,-0.13436 z" />
    </g>
    <g
       transform="translate(-65.588641,46.986974)"
       id="g1234"
       style="font-style:normal;font-variant:normal;font-weight:normal;font-stretch:normal;font-size:2.11666656px;line-height:1.25;font-family:'Yu Gothic UI';-inkscape-font-specification:'Yu Gothic UI';letter-spacing:0px;word-spacing:0px;display:inline;fill:#ffffff;fill-opacity:1;stroke:none;stroke-width:0.26458332"
       aria-label="16">
      <path
         inkscape:connector-curvature="0"
         id="path1230"
         style="font-size:2.11666656px;stroke-width:0.26458332"
         d="m 76.154525,213.65623 h -0.169499 v -1.28054 q -0.01964,0.0196 -0.05788,0.0455 -0.03721,0.0248 -0.08475,0.0496 -0.04651,0.0248 -0.09922,0.0465 -0.05168,0.0217 -0.101285,0.0341 v -0.17156 q 0.05581,-0.0155 0.117822,-0.0413 0.06305,-0.0269 0.12299,-0.0589 0.06098,-0.0331 0.114721,-0.0682 0.05374,-0.0362 0.09302,-0.0703 h 0.06408 z" />
      <path
         inkscape:connector-curvature="0"
         id="path1232"
         style="font-size:2.11666656px;stroke-width:0.26458332"
         d="m 77.603532,213.18598 q 0,0.10852 -0.03514,0.19947 -0.03514,0.091 -0.09715,0.1571 -0.06201,0.0661 -0.147794,0.10335 -0.08578,0.0362 -0.186036,0.0362 -0.111621,0 -0.200504,-0.0465 -0.08785,-0.0465 -0.149862,-0.13332 -0.06098,-0.0879 -0.09302,-0.21394 -0.03204,-0.12609 -0.03204,-0.28422 0,-0.19327 0.04238,-0.35037 0.04341,-0.15813 0.121956,-0.26975 0.07958,-0.11265 0.191203,-0.17363 0.111621,-0.061 0.24908,-0.061 0.152963,0 0.24598,0.0424 v 0.1602 q -0.114721,-0.0589 -0.241845,-0.0589 -0.09922,0 -0.178801,0.0444 -0.07958,0.0444 -0.136426,0.12609 -0.05684,0.0806 -0.08785,0.19534 -0.02997,0.11472 -0.02997,0.25528 h 0.0041 q 0.10232,-0.185 0.337964,-0.185 0.09715,0 0.174666,0.0331 0.07855,0.0331 0.133326,0.0941 0.05581,0.06 0.08578,0.14366 0.02997,0.0837 0.02997,0.18604 z m -0.173633,0.0217 q 0,-0.0775 -0.01964,-0.13952 -0.01964,-0.062 -0.05684,-0.10542 -0.03617,-0.0434 -0.08992,-0.0661 -0.05374,-0.0238 -0.121957,-0.0238 -0.06305,0 -0.116788,0.0238 -0.05374,0.0238 -0.09302,0.0651 -0.03927,0.0403 -0.06201,0.0951 -0.0217,0.0537 -0.0217,0.11472 0,0.0765 0.0217,0.14366 0.0217,0.0661 0.06098,0.11576 0.03927,0.0496 0.09302,0.0785 0.05478,0.0279 0.120923,0.0279 0.06408,0 0.116789,-0.0238 0.05271,-0.0248 0.08992,-0.0682 0.03721,-0.0434 0.05788,-0.10335 0.02067,-0.061 0.02067,-0.13436 z" />
    </g>
    <g
       aria-label="16"
       style="font-style:normal;font-variant:normal;font-weight:normal;font-stretch:normal;font-size:2.11666656px;line-height:1.25;font-family:'Yu Gothic UI';-inkscape-font-specification:'Yu Gothic UI';letter-spacing:0px;word-spacing:0px;display:inline;fill:#ffffff;fill-opacity:1;stroke:none;stroke-width:0.26458332"
       id="g1244"
       transform="translate(-65.588641,61.543786)">
      <path
         d="m 76.154525,213.65623 h -0.169499 v -1.28054 q -0.01964,0.0196 -0.05788,0.0455 -0.03721,0.0248 -0.08475,0.0496 -0.04651,0.0248 -0.09922,0.0465 -0.05168,0.0217 -0.101285,0.0341 v -0.17156 q 0.05581,-0.0155 0.117822,-0.0413 0.06305,-0.0269 0.12299,-0.0589 0.06098,-0.0331 0.114721,-0.0682 0.05374,-0.0362 0.09302,-0.0703 h 0.06408 z"
         style="font-size:2.11666656px;stroke-width:0.26458332"
         id="path1240"
         inkscape:connector-curvature="0" />
      <path
         d="m 77.603532,213.18598 q 0,0.10852 -0.03514,0.19947 -0.03514,0.091 -0.09715,0.1571 -0.06201,0.0661 -0.147794,0.10335 -0.08578,0.0362 -0.186036,0.0362 -0.111621,0 -0.200504,-0.0465 -0.08785,-0.0465 -0.149862,-0.13332 -0.06098,-0.0879 -0.09302,-0.21394 -0.03204,-0.12609 -0.03204,-0.28422 0,-0.19327 0.04238,-0.35037 0.04341,-0.15813 0.121956,-0.26975 0.07958,-0.11265 0.191203,-0.17363 0.111621,-0.061 0.24908,-0.061 0.152963,0 0.24598,0.0424 v 0.1602 q -0.114721,-0.0589 -0.241845,-0.0589 -0.09922,0 -0.178801,0.0444 -0.07958,0.0444 -0.136426,0.12609 -0.05684,0.0806 -0.08785,0.19534 -0.02997,0.11472 -0.02997,0.25528 h 0.0041 q 0.10232,-0.185 0.337964,-0.185 0.09715,0 0.174666,0.0331 0.07855,0.0331 0.133326,0.0941 0.05581,0.06 0.08578,0.14366 0.02997,0.0837 0.02997,0.18604 z m -0.173633,0.0217 q 0,-0.0775 -0.01964,-0.13952 -0.01964,-0.062 -0.05684,-0.10542 -0.03617,-0.0434 -0.08992,-0.0661 -0.05374,-0.0238 -0.121957,-0.0238 -0.06305,0 -0.116788,0.0238 -0.05374,0.0238 -0.09302,0.0651 -0.03927,0.0403 -0.06201,0.0951 -0.0217,0.0537 -0.0217,0.11472 0,0.0765 0.0217,0.14366 0.0217,0.0661 0.06098,0.11576 0.03927,0.0496 0.09302,0.0785 0.05478,0.0279 0.120923,0.0279 0.06408,0 0.116789,-0.0238 0.05271,-0.0248 0.08992,-0.0682 0.03721,-0.0434 0.05788,-0.10335 0.02067,-0.061 0.02067,-0.13436 z"
         style="font-size:2.11666656px;stroke-width:0.26458332"
         id="path1242"
         inkscape:connector-curvature="0" />
    </g>
    <g
       aria-label="2"
       style="font-style:normal;font-variant:normal;font-weight:normal;font-stretch:normal;font-size:2.11666656px;line-height:1.25;font-family:'Yu Gothic UI';-inkscape-font-specification:'Yu Gothic UI';letter-spacing:0px;word-spacing:0px;fill:#ffffff;fill-opacity:1;stroke:none;stroke-width:0.26458332"
       id="text1248"
       transform="translate(-0.18898876,0.68508178)">
      <path
         d="m 5.2958008,229.76068 q 0,-0.0682 -0.021704,-0.11885 -0.020671,-0.0506 -0.057878,-0.0837 -0.036174,-0.0341 -0.085783,-0.0506 -0.049609,-0.0165 -0.107487,-0.0165 -0.049609,0 -0.097152,0.0134 -0.047542,0.0134 -0.093018,0.0372 -0.044442,0.0238 -0.086816,0.0568 -0.041341,0.0331 -0.077515,0.0734 v -0.1819 q 0.071314,-0.0693 0.1591634,-0.10542 0.088883,-0.0372 0.2160075,-0.0372 0.09095,0 0.1684652,0.0269 0.077515,0.0258 0.1343587,0.0765 0.056844,0.0507 0.088883,0.12506 0.033073,0.0744 0.033073,0.17053 0,0.0879 -0.02067,0.15917 -0.019637,0.0713 -0.060978,0.13436 -0.040308,0.063 -0.1023193,0.12092 -0.062012,0.0579 -0.1457276,0.11782 -0.1043864,0.0744 -0.1725992,0.12713 -0.067179,0.0527 -0.107487,0.0992 -0.039274,0.0455 -0.055811,0.092 -0.015503,0.0455 -0.015503,0.10542 h 0.7379394 v 0.15193 H 4.6105713 v -0.0734 q 0,-0.0951 0.020671,-0.16744 0.020671,-0.0723 0.068213,-0.13745 0.047542,-0.0651 0.1240234,-0.13023 0.077515,-0.0651 0.1891357,-0.14676 0.080615,-0.0579 0.1343588,-0.11059 0.054777,-0.0527 0.08785,-0.10542 0.033073,-0.0527 0.046509,-0.10645 0.014469,-0.0548 0.014469,-0.11576 z"
         style="font-size:2.11666656px;stroke-width:0.26458332"
         id="path1250"
         inkscape:connector-curvature="0" />
    </g>
    <g
       transform="translate(-0.18898876,15.242839)"
       id="g1261"
       style="font-style:normal;font-variant:normal;font-weight:normal;font-stretch:normal;font-size:2.11666656px;line-height:1.25;font-family:'Yu Gothic UI';-inkscape-font-specification:'Yu Gothic UI';letter-spacing:0px;word-spacing:0px;fill:#ffffff;fill-opacity:1;stroke:none;stroke-width:0.26458332"
       aria-label="2">
      <path
         inkscape:connector-curvature="0"
         id="path1259"
         style="font-size:2.11666656px;stroke-width:0.26458332"
         d="m 5.2958008,229.76068 q 0,-0.0682 -0.021704,-0.11885 -0.020671,-0.0506 -0.057878,-0.0837 -0.036174,-0.0341 -0.085783,-0.0506 -0.049609,-0.0165 -0.107487,-0.0165 -0.049609,0 -0.097152,0.0134 -0.047542,0.0134 -0.093018,0.0372 -0.044442,0.0238 -0.086816,0.0568 -0.041341,0.0331 -0.077515,0.0734 v -0.1819 q 0.071314,-0.0693 0.1591634,-0.10542 0.088883,-0.0372 0.2160075,-0.0372 0.09095,0 0.1684652,0.0269 0.077515,0.0258 0.1343587,0.0765 0.056844,0.0507 0.088883,0.12506 0.033073,0.0744 0.033073,0.17053 0,0.0879 -0.02067,0.15917 -0.019637,0.0713 -0.060978,0.13436 -0.040308,0.063 -0.1023193,0.12092 -0.062012,0.0579 -0.1457276,0.11782 -0.1043864,0.0744 -0.1725992,0.12713 -0.067179,0.0527 -0.107487,0.0992 -0.039274,0.0455 -0.055811,0.092 -0.015503,0.0455 -0.015503,0.10542 h 0.7379394 v 0.15193 H 4.6105713 v -0.0734 q 0,-0.0951 0.020671,-0.16744 0.020671,-0.0723 0.068213,-0.13745 0.047542,-0.0651 0.1240234,-0.13023 0.077515,-0.0651 0.1891357,-0.14676 0.080615,-0.0579 0.1343588,-0.11059 0.054777,-0.0527 0.08785,-0.10542 0.033073,-0.0527 0.046509,-0.10645 0.014469,-0.0548 0.014469,-0.11576 z" />
    </g>
    <g
       transform="translate(-0.18898876,29.78926)"
       id="g1277"
       style="font-style:normal;font-variant:normal;font-weight:normal;font-stretch:normal;font-size:2.11666656px;line-height:1.25;font-family:'Yu Gothic UI';-inkscape-font-specification:'Yu Gothic UI';letter-spacing:0px;word-spacing:0px;fill:#ffffff;fill-opacity:1;stroke:none;stroke-width:0.26458332"
       aria-label="2">
      <path
         inkscape:connector-curvature="0"
         id="path1275"
         style="font-size:2.11666656px;stroke-width:0.26458332"
         d="m 5.2958008,229.76068 q 0,-0.0682 -0.021704,-0.11885 -0.020671,-0.0506 -0.057878,-0.0837 -0.036174,-0.0341 -0.085783,-0.0506 -0.049609,-0.0165 -0.107487,-0.0165 -0.049609,0 -0.097152,0.0134 -0.047542,0.0134 -0.093018,0.0372 -0.044442,0.0238 -0.086816,0.0568 -0.041341,0.0331 -0.077515,0.0734 v -0.1819 q 0.071314,-0.0693 0.1591634,-0.10542 0.088883,-0.0372 0.2160075,-0.0372 0.09095,0 0.1684652,0.0269 0.077515,0.0258 0.1343587,0.0765 0.056844,0.0507 0.088883,0.12506 0.033073,0.0744 0.033073,0.17053 0,0.0879 -0.02067,0.15917 -0.019637,0.0713 -0.060978,0.13436 -0.040308,0.063 -0.1023193,0.12092 -0.062012,0.0579 -0.1457276,0.11782 -0.1043864,0.0744 -0.1725992,0.12713 -0.067179,0.0527 -0.107487,0.0992 -0.039274,0.0455 -0.055811,0.092 -0.015503,0.0455 -0.015503,0.10542 h 0.7379394 v 0.15193 H 4.6105713 v -0.0734 q 0,-0.0951 0.020671,-0.16744 0.020671,-0.0723 0.068213,-0.13745 0.047542,-0.0651 0.1240234,-0.13023 0.077515,-0.0651 0.1891357,-0.14676 0.080615,-0.0579 0.1343588,-0.11059 0.054777,-0.0527 0.08785,-0.10542 0.033073,-0.0527 0.046509,-0.10645 0.014469,-0.0548 0.014469,-0.11576 z" />
    </g>
    <g
       aria-label="2"
       style="font-style:normal;font-variant:normal;font-weight:normal;font-stretch:normal;font-size:2.11666656px;line-height:1.25;font-family:'Yu Gothic UI';-inkscape-font-specification:'Yu Gothic UI';letter-spacing:0px;word-spacing:0px;fill:#ffffff;fill-opacity:1;stroke:none;stroke-width:0.26458332"
       id="g1281"
       transform="translate(-0.18898876,44.347024)">
      <path
         d="m 5.2958008,229.76068 q 0,-0.0682 -0.021704,-0.11885 -0.020671,-0.0506 -0.057878,-0.0837 -0.036174,-0.0341 -0.085783,-0.0506 -0.049609,-0.0165 -0.107487,-0.0165 -0.049609,0 -0.097152,0.0134 -0.047542,0.0134 -0.093018,0.0372 -0.044442,0.0238 -0.086816,0.0568 -0.041341,0.0331 -0.077515,0.0734 v -0.1819 q 0.071314,-0.0693 0.1591634,-0.10542 0.088883,-0.0372 0.2160075,-0.0372 0.09095,0 0.1684652,0.0269 0.077515,0.0258 0.1343587,0.0765 0.056844,0.0507 0.088883,0.12506 0.033073,0.0744 0.033073,0.17053 0,0.0879 -0.02067,0.15917 -0.019637,0.0713 -0.060978,0.13436 -0.040308,0.063 -0.1023193,0.12092 -0.062012,0.0579 -0.1457276,0.11782 -0.1043864,0.0744 -0.1725992,0.12713 -0.067179,0.0527 -0.107487,0.0992 -0.039274,0.0455 -0.055811,0.092 -0.015503,0.0455 -0.015503,0.10542 h 0.7379394 v 0.15193 H 4.6105713 v -0.0734 q 0,-0.0951 0.020671,-0.16744 0.020671,-0.0723 0.068213,-0.13745 0.047542,-0.0651 0.1240234,-0.13023 0.077515,-0.0651 0.1891357,-0.14676 0.080615,-0.0579 0.1343588,-0.11059 0.054777,-0.0527 0.08785,-0.10542 0.033073,-0.0527 0.046509,-0.10645 0.014469,-0.0548 0.014469,-0.11576 z"
         style="font-size:2.11666656px;stroke-width:0.26458332"
         id="path1279"
         inkscape:connector-curvature="0" />
    </g>
  </g>
  <g
     inkscape:groupmode="layer"
     id="layer4"
     inkscape:label="Grid 6"
     style="display:none"
     sodipodi:insensitive="true">
    <g
       transform="translate(0,3.3334577e-6)"
       style="display:inline"
       id="g1181">
      <path
         style="fill:none;stroke:#ffffff;stroke-width:0.05;stroke-linecap:butt;stroke-linejoin:miter;stroke-miterlimit:4;stroke-dasharray:none;stroke-opacity:1"
         d="m 7.9375,-1e-5 -3e-6,100.54167"
         id="path881-8-8"
         inkscape:connector-curvature="0"
         sodipodi:nodetypes="cc" />
      <path
         style="fill:none;stroke:#ffffff;stroke-width:0.05;stroke-linecap:butt;stroke-linejoin:miter;stroke-miterlimit:4;stroke-dasharray:none;stroke-opacity:1"
         d="m 23.8125,-1e-5 5e-6,100.54167"
         id="path883-2-9"
         inkscape:connector-curvature="0"
         sodipodi:nodetypes="cc" />
      <path
         sodipodi:nodetypes="cc"
         inkscape:connector-curvature="0"
         id="path890-2-5"
         d="m 3.968752,0 -4e-6,100.54167"
         style="fill:none;stroke:#ffffff;stroke-width:0.05;stroke-linecap:butt;stroke-linejoin:miter;stroke-miterlimit:4;stroke-dasharray:none;stroke-opacity:1" />
      <path
         style="fill:none;stroke:#ffffff;stroke-width:0.05;stroke-linecap:butt;stroke-linejoin:miter;stroke-miterlimit:4;stroke-dasharray:none;stroke-opacity:1"
         d="m 11.906253,0 -4e-6,100.54167"
         id="path895-1-5"
         inkscape:connector-curvature="0"
         sodipodi:nodetypes="cc" />
      <path
         style="fill:none;stroke:#ffffff;stroke-width:0.05;stroke-linecap:butt;stroke-linejoin:miter;stroke-miterlimit:4;stroke-dasharray:none;stroke-opacity:1"
         d="m 19.843758,0 -4e-6,100.54167"
         id="path899-0-8"
         inkscape:connector-curvature="0"
         sodipodi:nodetypes="cc" />
      <path
         sodipodi:nodetypes="cc"
         inkscape:connector-curvature="0"
         id="path903-0-0"
         d="m 27.781263,0 -2e-6,100.54167"
         style="fill:none;stroke:#ffffff;stroke-width:0.05;stroke-linecap:butt;stroke-linejoin:miter;stroke-miterlimit:4;stroke-dasharray:none;stroke-opacity:1" />
      <path
         inkscape:connector-curvature="0"
         id="path905-6-4"
         d="M 0,14.022551 H 31.75"
         style="fill:none;stroke:#ffffff;stroke-width:0.05;stroke-linecap:butt;stroke-linejoin:miter;stroke-miterlimit:4;stroke-dasharray:none;stroke-opacity:1" />
      <path
         style="fill:none;stroke:#ffffff;stroke-width:0.05;stroke-linecap:butt;stroke-linejoin:miter;stroke-miterlimit:4;stroke-dasharray:none;stroke-opacity:1"
         d="M 0,28.57465 H 31.75"
         id="path1103"
         inkscape:connector-curvature="0" />
      <path
         inkscape:connector-curvature="0"
         id="path1107"
         d="M 0,43.126622 H 31.75"
         style="fill:none;stroke:#ffffff;stroke-width:0.05;stroke-linecap:butt;stroke-linejoin:miter;stroke-miterlimit:4;stroke-dasharray:none;stroke-opacity:1" />
      <path
         style="fill:none;stroke:#ffffff;stroke-width:0.05;stroke-linecap:butt;stroke-linejoin:miter;stroke-miterlimit:4;stroke-dasharray:none;stroke-opacity:1"
         d="M 0,57.678723 H 31.75"
         id="path1111"
         inkscape:connector-curvature="0" />
      <path
         inkscape:connector-curvature="0"
         id="path1115"
         d="M 0,72.230955 H 31.75"
         style="fill:none;stroke:#ffffff;stroke-width:0.05;stroke-linecap:butt;stroke-linejoin:miter;stroke-miterlimit:4;stroke-dasharray:none;stroke-opacity:1" />
      <path
         style="fill:none;stroke:#ffffff;stroke-width:0.05;stroke-linecap:butt;stroke-linejoin:miter;stroke-miterlimit:4;stroke-dasharray:none;stroke-opacity:1"
         d="M 0,86.782927 H 31.75"
         id="path1119"
         inkscape:connector-curvature="0" />
      <circle
         r="4.0999999"
         cy="14.022837"
         cx="23.827299"
         id="circle1006"
         style="display:inline;opacity:1;fill:none;fill-opacity:1;stroke:#ffffff;stroke-width:0.05;stroke-linecap:square;stroke-linejoin:round;stroke-miterlimit:4;stroke-dasharray:none;stroke-dashoffset:0;stroke-opacity:1;paint-order:markers fill stroke" />
      <circle
         style="display:inline;opacity:1;fill:none;fill-opacity:1;stroke:#ffffff;stroke-width:0.05;stroke-linecap:square;stroke-linejoin:round;stroke-miterlimit:4;stroke-dasharray:none;stroke-dashoffset:0;stroke-opacity:1;paint-order:markers fill stroke"
         id="circle1008"
         cx="7.9523039"
         cy="14.022837"
         r="4.0999999" />
      <circle
         style="display:inline;opacity:1;fill:none;fill-opacity:1;stroke:#ffffff;stroke-width:0.05;stroke-linecap:square;stroke-linejoin:round;stroke-miterlimit:4;stroke-dasharray:none;stroke-dashoffset:0;stroke-opacity:1;paint-order:markers fill stroke"
         id="circle1012"
         cx="23.827299"
         cy="28.574995"
         r="4.0999999" />
      <circle
         r="4.0999999"
         cy="28.574995"
         cx="7.9523039"
         id="circle1014"
         style="display:inline;opacity:1;fill:none;fill-opacity:1;stroke:#ffffff;stroke-width:0.05;stroke-linecap:square;stroke-linejoin:round;stroke-miterlimit:4;stroke-dasharray:none;stroke-dashoffset:0;stroke-opacity:1;paint-order:markers fill stroke" />
      <circle
         style="display:inline;opacity:1;fill:none;fill-opacity:1;stroke:#ffffff;stroke-width:0.05;stroke-linecap:square;stroke-linejoin:round;stroke-miterlimit:4;stroke-dasharray:none;stroke-dashoffset:0;stroke-opacity:1;paint-order:markers fill stroke"
         id="circle1016"
         cx="23.827299"
         cy="43.127026"
         r="4.0999999" />
      <circle
         r="4.0999999"
         cy="43.127026"
         cx="7.9523039"
         id="circle1018"
         style="display:inline;opacity:1;fill:none;fill-opacity:1;stroke:#ffffff;stroke-width:0.05;stroke-linecap:square;stroke-linejoin:round;stroke-miterlimit:4;stroke-dasharray:none;stroke-dashoffset:0;stroke-opacity:1;paint-order:markers fill stroke" />
      <circle
         r="4.0999999"
         cy="57.679188"
         cx="23.827299"
         id="circle1020"
         style="display:inline;opacity:1;fill:none;fill-opacity:1;stroke:#ffffff;stroke-width:0.05;stroke-linecap:square;stroke-linejoin:round;stroke-miterlimit:4;stroke-dasharray:none;stroke-dashoffset:0;stroke-opacity:1;paint-order:markers fill stroke" />
      <circle
         style="display:inline;opacity:1;fill:none;fill-opacity:1;stroke:#ffffff;stroke-width:0.05;stroke-linecap:square;stroke-linejoin:round;stroke-miterlimit:4;stroke-dasharray:none;stroke-dashoffset:0;stroke-opacity:1;paint-order:markers fill stroke"
         id="circle1022"
         cx="7.9523039"
         cy="57.679188"
         r="4.0999999" />
      <circle
         r="4.0999999"
         cy="72.231216"
         cx="23.827299"
         id="circle1024"
         style="display:inline;opacity:1;fill:none;fill-opacity:1;stroke:#ffffff;stroke-width:0.05;stroke-linecap:square;stroke-linejoin:round;stroke-miterlimit:4;stroke-dasharray:none;stroke-dashoffset:0;stroke-opacity:1;paint-order:markers fill stroke" />
      <circle
         style="display:inline;opacity:1;fill:none;fill-opacity:1;stroke:#ffffff;stroke-width:0.05;stroke-linecap:square;stroke-linejoin:round;stroke-miterlimit:4;stroke-dasharray:none;stroke-dashoffset:0;stroke-opacity:1;paint-order:markers fill stroke"
         id="circle1026"
         cx="7.9523039"
         cy="72.231216"
         r="4.0999999" />
      <circle
         style="display:inline;opacity:1;fill:none;fill-opacity:1;stroke:#ffffff;stroke-width:0.05;stroke-linecap:square;stroke-linejoin:round;stroke-miterlimit:4;stroke-dasharray:none;stroke-dashoffset:0;stroke-opacity:1;paint-order:markers fill stroke"
         id="circle1028"
         cx="23.827299"
         cy="86.783379"
         r="4.0999999" />
      <circle
         r="4.0999999"
         cy="86.783379"
         cx="7.9523039"
         id="circle1030"
         style="display:inline;opacity:1;fill:none;fill-opacity:1;stroke:#ffffff;stroke-width:0.05;stroke-linecap:square;stroke-linejoin:round;stroke-miterlimit:4;stroke-dasharray:none;stroke-dashoffset:0;stroke-opacity:1;paint-order:markers fill stroke" />
      <circle
         style="display:inline;opacity:1;fill:none;fill-opacity:1;stroke:#ffffff;stroke-width:0.05172414;stroke-linecap:square;stroke-linejoin:round;stroke-miterlimit:4;stroke-dasharray:none;stroke-dashoffset:0;stroke-opacity:1;paint-order:markers fill stroke"
         id="circle1039"
         cx="23.811087"
         cy="14.023285"
         r="5.4741378" />
      <circle
         r="5.4741378"
         cy="14.023285"
         cx="7.9360862"
         id="circle1086"
         style="display:inline;opacity:1;fill:none;fill-opacity:1;stroke:#ffffff;stroke-width:0.05172414;stroke-linecap:square;stroke-linejoin:round;stroke-miterlimit:4;stroke-dasharray:none;stroke-dashoffset:0;stroke-opacity:1;paint-order:markers fill stroke" />
      <circle
         r="5.4741378"
         cy="28.573866"
         cx="23.811087"
         id="circle1088"
         style="display:inline;opacity:1;fill:none;fill-opacity:1;stroke:#ffffff;stroke-width:0.05172414;stroke-linecap:square;stroke-linejoin:round;stroke-miterlimit:4;stroke-dasharray:none;stroke-dashoffset:0;stroke-opacity:1;paint-order:markers fill stroke" />
      <circle
         style="display:inline;opacity:1;fill:none;fill-opacity:1;stroke:#ffffff;stroke-width:0.05172414;stroke-linecap:square;stroke-linejoin:round;stroke-miterlimit:4;stroke-dasharray:none;stroke-dashoffset:0;stroke-opacity:1;paint-order:markers fill stroke"
         id="circle1090"
         cx="7.9360862"
         cy="28.573866"
         r="5.4741378" />
      <circle
         r="5.4741378"
         cy="43.127476"
         cx="23.811087"
         id="circle1092"
         style="display:inline;opacity:1;fill:none;fill-opacity:1;stroke:#ffffff;stroke-width:0.05172414;stroke-linecap:square;stroke-linejoin:round;stroke-miterlimit:4;stroke-dasharray:none;stroke-dashoffset:0;stroke-opacity:1;paint-order:markers fill stroke" />
      <circle
         style="display:inline;opacity:1;fill:none;fill-opacity:1;stroke:#ffffff;stroke-width:0.05172414;stroke-linecap:square;stroke-linejoin:round;stroke-miterlimit:4;stroke-dasharray:none;stroke-dashoffset:0;stroke-opacity:1;paint-order:markers fill stroke"
         id="circle1094"
         cx="7.9360862"
         cy="43.127476"
         r="5.4741378" />
      <circle
         style="display:inline;opacity:1;fill:none;fill-opacity:1;stroke:#ffffff;stroke-width:0.05172414;stroke-linecap:square;stroke-linejoin:round;stroke-miterlimit:4;stroke-dasharray:none;stroke-dashoffset:0;stroke-opacity:1;paint-order:markers fill stroke"
         id="circle1096"
         cx="23.811087"
         cy="57.678059"
         r="5.4741378" />
      <circle
         r="5.4741378"
         cy="57.678059"
         cx="7.9360862"
         id="circle1098"
         style="display:inline;opacity:1;fill:none;fill-opacity:1;stroke:#ffffff;stroke-width:0.05172414;stroke-linecap:square;stroke-linejoin:round;stroke-miterlimit:4;stroke-dasharray:none;stroke-dashoffset:0;stroke-opacity:1;paint-order:markers fill stroke" />
      <circle
         style="display:inline;opacity:1;fill:none;fill-opacity:1;stroke:#ffffff;stroke-width:0.05172414;stroke-linecap:square;stroke-linejoin:round;stroke-miterlimit:4;stroke-dasharray:none;stroke-dashoffset:0;stroke-opacity:1;paint-order:markers fill stroke"
         id="circle1100"
         cx="23.811087"
         cy="72.231667"
         r="5.4741378" />
      <circle
         r="5.4741378"
         cy="72.231667"
         cx="7.9360862"
         id="circle1102"
         style="display:inline;opacity:1;fill:none;fill-opacity:1;stroke:#ffffff;stroke-width:0.05172414;stroke-linecap:square;stroke-linejoin:round;stroke-miterlimit:4;stroke-dasharray:none;stroke-dashoffset:0;stroke-opacity:1;paint-order:markers fill stroke" />
      <circle
         r="5.4741378"
         cy="86.782249"
         cx="23.811087"
         id="circle1104"
         style="display:inline;opacity:1;fill:none;fill-opacity:1;stroke:#ffffff;stroke-width:0.05172414;stroke-linecap:square;stroke-linejoin:round;stroke-miterlimit:4;stroke-dasharray:none;stroke-dashoffset:0;stroke-opacity:1;paint-order:markers fill stroke" />
      <circle
         style="display:inline;opacity:1;fill:none;fill-opacity:1;stroke:#ffffff;stroke-width:0.05172414;stroke-linecap:square;stroke-linejoin:round;stroke-miterlimit:4;stroke-dasharray:none;stroke-dashoffset:0;stroke-opacity:1;paint-order:markers fill stroke"
         id="circle1106"
         cx="7.9360862"
         cy="86.782249"
         r="5.4741378" />
      <path
         sodipodi:nodetypes="cc"
         inkscape:connector-curvature="0"
         id="path1142"
         d="m 15.875002,0 -4e-6,100.54167"
         style="fill:none;stroke:#ffffff;stroke-width:0.05;stroke-linecap:butt;stroke-linejoin:miter;stroke-miterlimit:4;stroke-dasharray:none;stroke-opacity:1" />
    </g>
  </g>
</svg>
