<?xml version="1.0" encoding="UTF-8" standalone="no"?>
<!-- Created with Inkscape (http://www.inkscape.org/) -->

<svg
   xmlns:dc="http://purl.org/dc/elements/1.1/"
   xmlns:cc="http://creativecommons.org/ns#"
   xmlns:rdf="http://www.w3.org/1999/02/22-rdf-syntax-ns#"
   xmlns:svg="http://www.w3.org/2000/svg"
   xmlns="http://www.w3.org/2000/svg"
   xmlns:sodipodi="http://sodipodi.sourceforge.net/DTD/sodipodi-0.dtd"
   xmlns:inkscape="http://www.inkscape.org/namespaces/inkscape"
   width="60"
   height="380"
   viewBox="0 0 15.875001 100.54167"
   version="1.1"
   id="svg8"
   inkscape:version="0.92.4 (5da689c313, 2019-01-14)"
   sodipodi:docname="BooleanVCNOT.svg">
  <defs
     id="defs2">
    <pattern
       y="0"
       x="0"
       height="6"
       width="6"
       patternUnits="userSpaceOnUse"
       id="EMFhbasepattern" />
  </defs>
  <sodipodi:namedview
     id="base"
     pagecolor="#ffffff"
     bordercolor="#666666"
     borderopacity="1.0"
     inkscape:pageopacity="0.0"
     inkscape:pageshadow="2"
     inkscape:zoom="6.4458365"
     inkscape:cx="48.930141"
     inkscape:cy="333.71816"
     inkscape:document-units="mm"
     inkscape:current-layer="layer1"
     showgrid="true"
     units="px"
     inkscape:snap-bbox="true"
     inkscape:snap-page="true"
     inkscape:bbox-nodes="true"
     inkscape:snap-bbox-edge-midpoints="true"
     inkscape:window-width="1920"
     inkscape:window-height="1017"
     inkscape:window-x="-8"
     inkscape:window-y="-8"
     inkscape:window-maximized="1">
    <inkscape:grid
       type="xygrid"
       id="grid116" />
  </sodipodi:namedview>
  <metadata
     id="metadata5">
    <rdf:RDF>
      <cc:Work
         rdf:about="">
        <dc:format>image/svg+xml</dc:format>
        <dc:type
           rdf:resource="http://purl.org/dc/dcmitype/StillImage" />
        <dc:title />
      </cc:Work>
    </rdf:RDF>
  </metadata>
  <g
     inkscape:groupmode="layer"
     id="layer3"
     inkscape:label="Panel"
     sodipodi:insensitive="true">
    <path
       transform="translate(0,-196.45832)"
       sodipodi:type="inkscape:offset"
       inkscape:radius="0"
       inkscape:original="M 0 196.45898 L 0 297 L 15.875 297 L 15.875 196.45898 L 0 196.45898 z "
       style="fill:#75a555;stroke-width:0.3310422"
       id="rect3855"
       d="M 0,196.45898 V 297 H 15.875 V 196.45898 Z" />
  </g>
  <g
     inkscape:label="Layer 1"
     inkscape:groupmode="layer"
     id="layer1"
     transform="translate(0,-196.45832)">
    <rect
       style="fill:#528d00;stroke-width:0.13752697"
       id="rect897"
       width="15.345833"
       height="12.167906"
       x="0.26458332"
       y="-244.59778"
       transform="scale(1,-1)" />
    <text
       xml:space="preserve"
       style="font-style:normal;font-weight:normal;font-size:2.82222223px;line-height:1.25;font-family:sans-serif;letter-spacing:0px;word-spacing:0px;fill:#000000;fill-opacity:1;stroke:none;stroke-width:0.26458332"
       x="17.197916"
       y="201.74998"
       id="text3821"><tspan
         sodipodi:role="line"
         id="tspan3819"
         x="17.197916"
         y="204.24699"
         style="stroke-width:0.26458332" /></text>
    <g
       aria-label="/^M^\"
       style="font-style:normal;font-variant:normal;font-weight:normal;font-stretch:normal;font-size:2.82222223px;line-height:1.25;font-family:'Copperplate Gothic Light';-inkscape-font-specification:'Copperplate Gothic Light, ';letter-spacing:0px;word-spacing:0px;fill:#000000;fill-opacity:1;stroke:#000000;stroke-width:0.2;stroke-miterlimit:4;stroke-dasharray:none;stroke-opacity:1"
       id="text956"
       transform="translate(-17.419306,0.57062363)">
      <path
         d="m 21.203855,291.40545 v 0.0386 h -0.434082 v -0.0386 q 0.09509,-0.006 0.224621,-0.17088 l 1.094162,-1.4621 q 0.07441,-0.1006 0.07441,-0.12402 0,-0.0372 -0.06615,-0.0482 v -0.0372 h 0.423058 v 0.0372 q -0.09508,0.006 -0.22462,0.17087 l -1.08176,1.46348 q -0.07579,0.10197 -0.07579,0.12402 0,0.0358 0.06615,0.0469 z"
         style="font-style:normal;font-variant:normal;font-weight:normal;font-stretch:normal;font-size:2.82222223px;line-height:1.25;font-family:'Copperplate Gothic Light';-inkscape-font-specification:'Copperplate Gothic Light, ';stroke:#000000;stroke-width:0.2;stroke-miterlimit:4;stroke-dasharray:none;stroke-opacity:1"
         id="path958"
         inkscape:connector-curvature="0" />
      <path
         d="M 22.940183,290.3857 H 22.73899 l 0.493338,-0.8282 h 0.243912 l 0.493338,0.8282 h -0.20395 l -0.413411,-0.68075 z"
         style="font-style:normal;font-variant:normal;font-weight:normal;font-stretch:normal;font-size:2.82222223px;line-height:1.25;font-family:'Copperplate Gothic Light';-inkscape-font-specification:'Copperplate Gothic Light, ';stroke:#000000;stroke-width:0.2;stroke-miterlimit:4;stroke-dasharray:none;stroke-opacity:1"
         id="path960"
         inkscape:connector-curvature="0" />
      <path
         d="m 25.342104,291.44403 -0.789616,-1.58061 v 1.418 q 0,0.0565 0.01791,0.0813 0.01791,0.0234 0.07028,0.0372 v 0.0441 h -0.373449 v -0.0441 q 0.05237,-0.0138 0.07028,-0.0372 0.01792,-0.0234 0.01792,-0.0813 v -1.5558 q 0,-0.0579 -0.01792,-0.0813 -0.01791,-0.0248 -0.07028,-0.0372 v -0.0441 h 0.487826 v 0.0441 q -0.06752,0.0234 -0.06752,0.0579 0,0.0165 0.04547,0.10611 l 0.62563,1.24161 0.628385,-1.25263 q 0.03307,-0.0661 0.03307,-0.0937 0,-0.0358 -0.06752,-0.0593 v -0.0441 h 0.49196 v 0.0441 q -0.05237,0.0138 -0.07028,0.0372 -0.01792,0.0234 -0.01792,0.0813 v 1.5558 q 0,0.0565 0.01792,0.0813 0.01791,0.0234 0.07028,0.0372 v 0.0441 h -0.392741 v -0.0441 q 0.05374,-0.0138 0.07028,-0.0372 0.01791,-0.0234 0.01791,-0.0813 v -1.418 z"
         style="font-style:normal;font-variant:normal;font-weight:normal;font-stretch:normal;font-size:2.82222223px;line-height:1.25;font-family:'Copperplate Gothic Light';-inkscape-font-specification:'Copperplate Gothic Light, ';stroke:#000000;stroke-width:0.2;stroke-miterlimit:4;stroke-dasharray:none;stroke-opacity:1"
         id="path962"
         inkscape:connector-curvature="0" />
      <path
         d="m 26.942006,290.3857 h -0.201193 l 0.493338,-0.8282 h 0.243912 l 0.493338,0.8282 h -0.20395 l -0.413411,-0.68075 z"
         style="font-style:normal;font-variant:normal;font-weight:normal;font-stretch:normal;font-size:2.82222223px;line-height:1.25;font-family:'Copperplate Gothic Light';-inkscape-font-specification:'Copperplate Gothic Light, ';stroke:#000000;stroke-width:0.2;stroke-miterlimit:4;stroke-dasharray:none;stroke-opacity:1"
         id="path964"
         inkscape:connector-curvature="0" />
      <path
         d="m 28.617701,289.56301 v 0.0372 q -0.06615,0.011 -0.06615,0.0482 0,0.0234 0.07441,0.12402 l 1.092784,1.4621 q 0.129536,0.16536 0.22462,0.17088 v 0.0386 h -0.434082 v -0.0386 q 0.06615,-0.011 0.06615,-0.0469 0,-0.0207 -0.07579,-0.12402 l -1.080382,-1.46348 q -0.129535,-0.16536 -0.22462,-0.17087 v -0.0372 z"
         style="font-style:normal;font-variant:normal;font-weight:normal;font-stretch:normal;font-size:2.82222223px;line-height:1.25;font-family:'Copperplate Gothic Light';-inkscape-font-specification:'Copperplate Gothic Light, ';stroke:#000000;stroke-width:0.2;stroke-miterlimit:4;stroke-dasharray:none;stroke-opacity:1"
         id="path966"
         inkscape:connector-curvature="0" />
    </g>
    <g
       id="g928"
       transform="translate(0,0.17679021)">
      <path
         inkscape:connector-curvature="0"
         style="fill:#000000;fill-opacity:1;fill-rule:nonzero;stroke:none;stroke-width:0.25424787"
         d="m 0.79375,203.56284 v -2.47648 h 0.7231701 c 0.2149966,0 0.3909033,0.0635 0.527719,0.16933 0.1172713,0.10583 0.1954519,0.23283 0.1954519,0.40217 0,0.14816 -0.039088,0.25399 -0.1172709,0.35983 -0.078184,0.10583 -0.1759064,0.16933 -0.2931772,0.23283 v 0 c 0.1563612,0.0212 0.2736316,0.0847 0.3713577,0.1905 0.097726,0.10583 0.1368165,0.23283 0.1368165,0.40216 0,0.21167 -0.078184,0.381 -0.2345426,0.52916 -0.1563608,0.127 -0.3518122,0.1905 -0.5863544,0.1905 z m 0.3713578,-2.13782 v 0.6985 H 1.419195 c 0.1368154,0 0.2345412,-0.0423 0.3127217,-0.10583 0.058636,-0.0635 0.097726,-0.14817 0.097726,-0.27517 0,-0.21166 -0.1172709,-0.3175 -0.3909032,-0.3175 z m 0,1.016 v 0.78316 h 0.3322677 c 0.136816,0 0.2540868,-0.0212 0.3127218,-0.10584 0.078184,-0.0635 0.1172717,-0.16933 0.1172717,-0.27516 0,-0.254 -0.156362,-0.40216 -0.4886293,-0.40216 z"
         id="path935" />
      <path
         inkscape:connector-curvature="0"
         style="fill:#000000;fill-opacity:1;fill-rule:nonzero;stroke:none;stroke-width:0.25424787"
         d="m 3.7059769,203.60517 c -0.3322676,0 -0.6058995,-0.12699 -0.8013506,-0.35983 -0.1954514,-0.21166 -0.2931776,-0.52916 -0.2931776,-0.88899 0,-0.40216 0.097726,-0.71966 0.3127222,-0.95249 0.1954521,-0.23283 0.469084,-0.35983 0.8208962,-0.35983 0.3127229,0 0.5668092,0.127 0.7622607,0.35983 0.1954519,0.21166 0.2931771,0.52916 0.2931771,0.88899 0,0.40216 -0.097725,0.71966 -0.2931771,0.95249 -0.1954515,0.23284 -0.4690834,0.35983 -0.8013509,0.35983 z m 0.019548,-2.20131 c -0.2149967,0 -0.3909025,0.0847 -0.527719,0.254 -0.1172708,0.16933 -0.195451,0.40216 -0.195451,0.67732 0,0.27517 0.078175,0.48683 0.195451,0.65617 0.1368165,0.16933 0.2931777,0.25399 0.5081742,0.25399 0.2149962,0 0.3909025,-0.0847 0.5081734,-0.23283 0.1368164,-0.16933 0.1954514,-0.381 0.1954514,-0.67733 0,-0.29633 -0.058636,-0.52916 -0.1954514,-0.67732 -0.1172709,-0.16934 -0.2736316,-0.254 -0.4886286,-0.254 z"
         id="path937" />
      <path
         inkscape:connector-curvature="0"
         style="fill:#000000;fill-opacity:1;fill-rule:nonzero;stroke:none;stroke-width:0.25424787"
         d="m 6.1686656,203.60517 c -0.3322675,0 -0.6058994,-0.12699 -0.8013515,-0.35983 -0.1954513,-0.21166 -0.2931765,-0.52916 -0.2931765,-0.88899 0,-0.40216 0.097725,-0.71966 0.3127222,-0.95249 0.1954511,-0.23283 0.4690839,-0.35983 0.8208962,-0.35983 0.3127219,0 0.5668091,0.127 0.7622602,0.35983 0.1954514,0.21166 0.2931776,0.52916 0.2931776,0.88899 0,0.40216 -0.097726,0.71966 -0.2931776,0.95249 -0.1954511,0.23284 -0.469083,0.35983 -0.8013506,0.35983 z m 0.019548,-2.20131 c -0.2149966,0 -0.3909034,0.0847 -0.5277189,0.254 -0.1172708,0.16933 -0.195452,0.40216 -0.195452,0.67732 0,0.27517 0.078184,0.48683 0.195452,0.65617 0.1368155,0.16933 0.2931776,0.25399 0.5081733,0.25399 0.214998,0 0.3909035,-0.0847 0.5081743,-0.23283 0.1368155,-0.16933 0.1954514,-0.381 0.1954514,-0.67733 0,-0.29633 -0.058636,-0.52916 -0.1954514,-0.67732 -0.1172708,-0.16934 -0.2736316,-0.254 -0.4886287,-0.254 z"
         id="path939" />
      <path
         inkscape:connector-curvature="0"
         style="fill:#000000;fill-opacity:1;fill-rule:nonzero;stroke:none;stroke-width:0.25424787"
         d="m 8.9440755,203.56284 h -1.250889 v -2.47648 h 0.3713578 v 2.13782 h 0.8795312 z"
         id="path941" />
      <path
         inkscape:connector-curvature="0"
         style="fill:#000000;fill-opacity:1;fill-rule:nonzero;stroke:none;stroke-width:0.25424787"
         d="M 10.546775,203.56284 H 9.2763423 v -2.47648 h 1.2313427 v 0.35983 H 9.6477002 v 0.6985 h 0.7818038 v 0.33866 H 9.6477002 v 0.74083 h 0.8990748 z"
         id="path943" />
      <path
         inkscape:connector-curvature="0"
         style="fill:#000000;fill-opacity:1;fill-rule:nonzero;stroke:none;stroke-width:0.25424787"
         d="m 12.833558,203.56284 h -0.410449 l -0.214996,-0.63499 h -0.899077 l -0.195452,0.63499 h -0.410447 l 0.859987,-2.47648 h 0.429993 z m -0.723171,-0.97366 -0.312722,-0.97366 c 0,-0.0423 -0.01955,-0.0847 -0.03909,-0.14816 v 0 c 0,0.0635 -0.01955,0.10583 -0.03909,0.14816 l -0.312722,0.97366 z"
         id="path945" />
      <path
         inkscape:connector-curvature="0"
         style="fill:#000000;fill-opacity:1;fill-rule:nonzero;stroke:none;stroke-width:0.25424787"
         d="m 15.08125,203.56284 h -0.410449 l -1.094528,-1.82032 c -0.01955,-0.0423 -0.03909,-0.0847 -0.05864,-0.14816 h -0.01955 c 0.01955,0.0635 0.01955,0.16933 0.01955,0.33866 v 1.62982 h -0.371358 v -2.47648 h 0.449538 l 1.055439,1.77799 c 0.03909,0.0635 0.05864,0.127 0.07817,0.14816 v 0 c 0,-0.0635 -0.01955,-0.16933 -0.01955,-0.33866 v -1.58749 h 0.371358 z"
         id="path947" />
    </g>
    <g
       aria-label="VC !"
       style="font-style:normal;font-variant:normal;font-weight:normal;font-stretch:normal;font-size:2.82222223px;line-height:1.25;font-family:'Yu Gothic UI';-inkscape-font-specification:'Yu Gothic UI';letter-spacing:0px;word-spacing:0px;fill:#000000;fill-opacity:1;stroke:none;stroke-width:0.26458332"
       id="text936"
       transform="translate(0,0.23043334)">
      <path
         d="m 11.039107,197.32757 -0.887112,2.47013 H 9.6937976 l -0.8716091,-2.47013 h 0.4478624 l 0.6097819,1.87413 q 0.029283,0.0896 0.044786,0.20843 h 0.00689 q 0.012058,-0.0982 0.049954,-0.21188 l 0.6235622,-1.87068 z"
         style="font-style:normal;font-variant:normal;font-weight:bold;font-stretch:normal;font-size:3.52777767px;font-family:'Yu Gothic UI';-inkscape-font-specification:'Yu Gothic UI Bold';stroke-width:0.26458332"
         id="path938"
         inkscape:connector-curvature="0" />
      <path
         d="m 13.023482,199.69435 q -0.279052,0.14469 -0.694186,0.14469 -0.537435,0 -0.861274,-0.33934 -0.323839,-0.33934 -0.323839,-0.89056 0,-0.59256 0.363457,-0.95774 0.36518,-0.36518 0.921563,-0.36518 0.35829,0 0.594279,0.10163 v 0.40653 q -0.249769,-0.14814 -0.551215,-0.14814 -0.401354,0 -0.651123,0.25666 -0.248047,0.25666 -0.248047,0.68557 0,0.40824 0.232544,0.65112 0.232544,0.24116 0.611505,0.24116 0.349677,0 0.606336,-0.16536 z"
         style="font-style:normal;font-variant:normal;font-weight:bold;font-stretch:normal;font-size:3.52777767px;font-family:'Yu Gothic UI';-inkscape-font-specification:'Yu Gothic UI Bold';stroke-width:0.26458332"
         id="path942"
         inkscape:connector-curvature="0" />
      <path
         d="m 14.885556,197.32757 -0.03273,1.74321 h -0.327284 l -0.04479,-1.74321 z m -0.191202,2.50458 q -0.103353,0 -0.1757,-0.0655 -0.07235,-0.0672 -0.07235,-0.16192 0,-0.0982 0.07235,-0.16708 0.07235,-0.0689 0.1757,-0.0689 0.09991,0 0.172254,0.0689 0.07407,0.0689 0.07407,0.16708 0,0.0947 -0.07407,0.16192 -0.07235,0.0655 -0.172254,0.0655 z"
         style="font-style:normal;font-variant:normal;font-weight:bold;font-stretch:normal;font-size:3.52777767px;font-family:'Yu Gothic UI';-inkscape-font-specification:'Yu Gothic UI Bold';stroke-width:0.26458332"
         id="path944"
         inkscape:connector-curvature="0" />
    </g>
    <g
       aria-label="IN"
       style="font-style:normal;font-variant:normal;font-weight:normal;font-stretch:normal;font-size:2.82222223px;line-height:1.25;font-family:'Yu Gothic UI';-inkscape-font-specification:'Yu Gothic UI';letter-spacing:0px;word-spacing:0px;fill:#000000;fill-opacity:1;stroke:none;stroke-width:0.26458332"
       id="text949"
       transform="translate(5.1814944,-7.2879435)">
      <path
         d="M 1.8134982,213.65623 H 1.5819878 v -1.9761 h 0.2315104 z"
         style="stroke-width:0.26458332"
         id="path951"
         inkscape:connector-curvature="0" />
      <path
         d="M 3.9246528,213.65623 H 3.6407769 l -1.0169922,-1.57509 q -0.038585,-0.0593 -0.06339,-0.12403 h -0.00827 q 0.011024,0.0634 0.011024,0.27148 v 1.42764 H 2.3316406 v -1.9761 h 0.3004123 l 0.9894315,1.55029 q 0.062012,0.0965 0.079926,0.13229 h 0.00551 q -0.01378,-0.0854 -0.01378,-0.29076 v -1.39182 h 0.2315104 z"
         style="stroke-width:0.26458332"
         id="path953"
         inkscape:connector-curvature="0" />
    </g>
    <g
       aria-label="OUT"
       style="font-style:normal;font-variant:normal;font-weight:normal;font-stretch:normal;font-size:2.82222223px;line-height:1.25;font-family:'Yu Gothic UI';-inkscape-font-specification:'Yu Gothic UI';letter-spacing:0px;word-spacing:0px;fill:#000000;fill-opacity:1;stroke:none;stroke-width:0.26458332"
       id="text1013"
       transform="translate(-5.9875765,0.10039994)">
      <path
         d="m 12.168077,235.38514 q -0.420301,0 -0.67386,-0.27699 -0.252181,-0.27698 -0.252181,-0.72071 0,-0.4768 0.257693,-0.76068 0.257693,-0.28387 0.701421,-0.28387 0.409278,0 0.658703,0.2756 0.250803,0.27561 0.250803,0.72072 0,0.48369 -0.256316,0.76481 -0.256315,0.28112 -0.686263,0.28112 z m 0.01654,-1.83279 q -0.311437,0 -0.50574,0.22462 -0.194303,0.22462 -0.194303,0.5898 0,0.36518 0.188791,0.58842 0.190169,0.22187 0.494715,0.22187 0.325217,0 0.512631,-0.21222 0.187413,-0.21222 0.187413,-0.59394 0,-0.39136 -0.181901,-0.60496 -0.181901,-0.21359 -0.501606,-0.21359 z"
         style="stroke-width:0.26458332"
         id="path1015"
         inkscape:connector-curvature="0" />
      <path
         d="m 14.944824,234.5528 q 0,0.83234 -0.75103,0.83234 -0.719336,0 -0.719336,-0.80064 v -1.20854 h 0.23151 v 1.19338 q 0,0.60772 0.51263,0.60772 0.494716,0 0.494716,-0.58705 v -1.21405 h 0.23151 z"
         style="stroke-width:0.26458332"
         id="path1017"
         inkscape:connector-curvature="0" />
      <path
         d="m 16.608117,233.58542 h -0.570508 v 1.76665 h -0.231511 v -1.76665 h -0.569129 v -0.20946 h 1.371148 z"
         style="stroke-width:0.26458332"
         id="path1019"
         inkscape:connector-curvature="0" />
    </g>
    <g
       aria-label="A"
       style="font-style:normal;font-variant:normal;font-weight:normal;font-stretch:normal;font-size:3.52777767px;line-height:1.25;font-family:'Yu Gothic UI';-inkscape-font-specification:'Yu Gothic UI';letter-spacing:0px;word-spacing:0px;fill:#000000;fill-opacity:1;stroke:none;stroke-width:0.26458332"
       id="text1024"
       transform="translate(0.52916663,0.52916663)">
      <path
         d="M 2.9492961,206.8645 H 2.6289022 L 2.367075,206.17204 H 1.319766 L 1.0734417,206.8645 H 0.75132526 l 0.94740124,-2.47013 h 0.2997233 z m -0.6769612,-0.95257 -0.3875733,-1.05247 q -0.018948,-0.0517 -0.037896,-0.16537 h -0.00689 q -0.017225,0.10508 -0.039619,0.16537 l -0.3841281,1.05247 z"
         style="font-size:3.52777767px;stroke-width:0.26458332"
         id="path1055"
         inkscape:connector-curvature="0" />
    </g>
    <rect
       transform="scale(1,-1)"
       y="-288.25912"
       x="0.26458332"
       height="12.167906"
       width="15.345833"
       id="rect1026"
       style="fill:#528d00;stroke-width:0.13752697" />
    <g
       transform="translate(5.1814944,36.384855)"
       id="g1038"
       style="font-style:normal;font-variant:normal;font-weight:normal;font-stretch:normal;font-size:2.82222223px;line-height:1.25;font-family:'Yu Gothic UI';-inkscape-font-specification:'Yu Gothic UI';letter-spacing:0px;word-spacing:0px;fill:#000000;fill-opacity:1;stroke:none;stroke-width:0.26458332"
       aria-label="IN">
      <path
         inkscape:connector-curvature="0"
         id="path1034"
         style="stroke-width:0.26458332"
         d="M 1.8134982,213.65623 H 1.5819878 v -1.9761 h 0.2315104 z" />
      <path
         inkscape:connector-curvature="0"
         id="path1036"
         style="stroke-width:0.26458332"
         d="M 3.9246528,213.65623 H 3.6407769 l -1.0169922,-1.57509 q -0.038585,-0.0593 -0.06339,-0.12403 h -0.00827 q 0.011024,0.0634 0.011024,0.27148 v 1.42764 H 2.3316406 v -1.9761 h 0.3004123 l 0.9894315,1.55029 q 0.062012,0.0965 0.079926,0.13229 h 0.00551 q -0.01378,-0.0854 -0.01378,-0.29076 v -1.39182 h 0.2315104 z" />
    </g>
    <g
       transform="translate(-5.9875765,43.773203)"
       id="g1046"
       style="font-style:normal;font-variant:normal;font-weight:normal;font-stretch:normal;font-size:2.82222223px;line-height:1.25;font-family:'Yu Gothic UI';-inkscape-font-specification:'Yu Gothic UI';letter-spacing:0px;word-spacing:0px;fill:#000000;fill-opacity:1;stroke:none;stroke-width:0.26458332"
       aria-label="OUT">
      <path
         inkscape:connector-curvature="0"
         id="path1040"
         style="stroke-width:0.26458332"
         d="m 12.168077,235.38514 q -0.420301,0 -0.67386,-0.27699 -0.252181,-0.27698 -0.252181,-0.72071 0,-0.4768 0.257693,-0.76068 0.257693,-0.28387 0.701421,-0.28387 0.409278,0 0.658703,0.2756 0.250803,0.27561 0.250803,0.72072 0,0.48369 -0.256316,0.76481 -0.256315,0.28112 -0.686263,0.28112 z m 0.01654,-1.83279 q -0.311437,0 -0.50574,0.22462 -0.194303,0.22462 -0.194303,0.5898 0,0.36518 0.188791,0.58842 0.190169,0.22187 0.494715,0.22187 0.325217,0 0.512631,-0.21222 0.187413,-0.21222 0.187413,-0.59394 0,-0.39136 -0.181901,-0.60496 -0.181901,-0.21359 -0.501606,-0.21359 z" />
      <path
         inkscape:connector-curvature="0"
         id="path1042"
         style="stroke-width:0.26458332"
         d="m 14.944824,234.5528 q 0,0.83234 -0.75103,0.83234 -0.719336,0 -0.719336,-0.80064 v -1.20854 h 0.23151 v 1.19338 q 0,0.60772 0.51263,0.60772 0.494716,0 0.494716,-0.58705 v -1.21405 h 0.23151 z" />
      <path
         inkscape:connector-curvature="0"
         id="path1044"
         style="stroke-width:0.26458332"
         d="m 16.608117,233.58542 h -0.570508 v 1.76665 h -0.231511 v -1.76665 h -0.569129 v -0.20946 h 1.371148 z" />
    </g>
    <g
       aria-label="B"
       style="font-style:normal;font-variant:normal;font-weight:normal;font-stretch:normal;font-size:3.52777767px;line-height:1.25;font-family:'Yu Gothic UI';-inkscape-font-specification:'Yu Gothic UI';letter-spacing:0px;word-spacing:0px;fill:#000000;fill-opacity:1;stroke:none;stroke-width:0.26458332"
       id="text1050"
       transform="translate(0.52916663,1.9158661)">
      <path
         d="m 1.0372682,249.15002 v -2.47013 h 0.7027994 q 0.3203939,0 0.5081516,0.15675 0.1877577,0.15675 0.1877577,0.40825 0,0.21015 -0.1136881,0.36518 -0.1136882,0.15503 -0.3135037,0.22048 v 0.007 q 0.2497694,0.0293 0.399631,0.18948 0.1498617,0.15848 0.1498617,0.41341 0,0.31695 -0.2273763,0.51332 -0.2273763,0.19637 -0.5736084,0.19637 z m 0.289388,-2.2083 v 0.79754 h 0.2962782 q 0.2377116,0 0.3737928,-0.11369 0.1360813,-0.11541 0.1360813,-0.32384 0,-0.36001 -0.4737006,-0.36001 z m 0,1.05764 v 0.88884 h 0.3927409 q 0.254937,0 0.3944634,-0.12058 0.1412489,-0.12058 0.1412489,-0.33073 0,-0.43753 -0.5960015,-0.43753 z"
         style="font-size:3.52777767px;stroke-width:0.26458332"
         id="path1052"
         inkscape:connector-curvature="0" />
    </g>
    <path
       style="fill:none;stroke:#000000;stroke-width:0.30000001;stroke-linecap:butt;stroke-linejoin:miter;stroke-miterlimit:4;stroke-dasharray:none;stroke-opacity:1"
       d="M 0.79374999,245.93541 H 15.08125"
       id="path1058"
       inkscape:connector-curvature="0" />
    <g
       aria-label="INVERT"
       style="font-style:normal;font-variant:normal;font-weight:normal;font-stretch:normal;font-size:2.82222223px;line-height:1.25;font-family:'Yu Gothic UI';-inkscape-font-specification:'Yu Gothic UI';letter-spacing:0px;word-spacing:0px;fill:#000000;fill-opacity:1;stroke:none;stroke-width:0.26458332"
       id="text1062"
       transform="translate(-0.7386286,1.9830319)">
      <path
         d="M 4.4593316,262.60416 H 4.2278212 v -1.97611 h 0.2315104 z"
         style="stroke-width:0.26458332"
         id="path1064"
         inkscape:connector-curvature="0" />
      <path
         d="M 6.5704861,262.60416 H 6.2866103 l -1.0169922,-1.5751 q -0.038585,-0.0593 -0.06339,-0.12402 h -0.00827 q 0.011024,0.0634 0.011024,0.27147 v 1.42765 H 4.977474 v -1.97611 h 0.3004123 l 0.9894314,1.55029 q 0.062012,0.0965 0.079926,0.13229 h 0.00551 q -0.01378,-0.0854 -0.01378,-0.29076 v -1.39182 h 0.2315104 z"
         style="stroke-width:0.26458332"
         id="path1066"
         inkscape:connector-curvature="0" />
      <path
         d="M 8.5576173,260.62805 7.825879,262.60416 H 7.570942 l -0.7165799,-1.97611 h 0.2576931 l 0.5470812,1.56683 q 0.026183,0.0758 0.039963,0.17501 h 0.00551 q 0.011024,-0.0827 0.045475,-0.17777 l 0.5581055,-1.56407 z"
         style="stroke-width:0.26458332"
         id="path1068"
         inkscape:connector-curvature="0" />
      <path
         d="M 9.888802,262.60416 H 8.841493 v -1.97611 h 1.0032118 v 0.20946 H 9.0730034 v 0.65733 h 0.7138238 v 0.20808 H 9.0730034 v 0.69177 H 9.888802 Z"
         style="stroke-width:0.26458332"
         id="path1070"
         inkscape:connector-curvature="0" />
      <path
         d="m 11.685764,262.60416 h -0.275608 l -0.330729,-0.55397 q -0.04548,-0.0772 -0.08819,-0.13092 -0.04272,-0.0551 -0.08819,-0.0896 -0.0441,-0.0344 -0.09646,-0.0496 -0.05099,-0.0165 -0.115755,-0.0165 h -0.190169 v 0.84061 h -0.23151 v -1.97611 h 0.5898 q 0.129535,0 0.238401,0.0331 0.110243,0.0317 0.190169,0.0978 0.0813,0.0661 0.126779,0.16537 0.04548,0.0978 0.04548,0.23013 0,0.10335 -0.0317,0.19017 -0.03032,0.0854 -0.08819,0.15296 -0.0565,0.0675 -0.137804,0.11576 -0.07993,0.0468 -0.180523,0.073 v 0.006 q 0.04961,0.022 0.08544,0.051 0.03721,0.0276 0.07028,0.0661 0.03307,0.0386 0.06477,0.0882 0.03307,0.0482 0.07304,0.113 z m -1.185113,-1.76665 v 0.71658 h 0.314193 q 0.08682,0 0.159852,-0.0262 0.07441,-0.0262 0.128158,-0.0744 0.05374,-0.0496 0.08406,-0.11988 0.03032,-0.0717 0.03032,-0.15986 0,-0.15847 -0.103353,-0.24667 -0.101975,-0.0896 -0.296278,-0.0896 z"
         style="stroke-width:0.26458332"
         id="path1072"
         inkscape:connector-curvature="0" />
      <path
         d="m 13.124436,260.83751 h -0.570508 v 1.76665 h -0.23151 v -1.76665 h -0.56913 v -0.20946 h 1.371148 z"
         style="stroke-width:0.26458332"
         id="path1074"
         inkscape:connector-curvature="0" />
    </g>
    <g
       transform="translate(-0.7386286,-41.687262)"
       id="g1089"
       style="font-style:normal;font-variant:normal;font-weight:normal;font-stretch:normal;font-size:2.82222223px;line-height:1.25;font-family:'Yu Gothic UI';-inkscape-font-specification:'Yu Gothic UI';letter-spacing:0px;word-spacing:0px;fill:#000000;fill-opacity:1;stroke:none;stroke-width:0.26458332"
       aria-label="INVERT">
      <path
         inkscape:connector-curvature="0"
         id="path1077"
         style="stroke-width:0.26458332"
         d="M 4.4593316,262.60416 H 4.2278212 v -1.97611 h 0.2315104 z" />
      <path
         inkscape:connector-curvature="0"
         id="path1079"
         style="stroke-width:0.26458332"
         d="M 6.5704861,262.60416 H 6.2866103 l -1.0169922,-1.5751 q -0.038585,-0.0593 -0.06339,-0.12402 h -0.00827 q 0.011024,0.0634 0.011024,0.27147 v 1.42765 H 4.977474 v -1.97611 h 0.3004123 l 0.9894314,1.55029 q 0.062012,0.0965 0.079926,0.13229 h 0.00551 q -0.01378,-0.0854 -0.01378,-0.29076 v -1.39182 h 0.2315104 z" />
      <path
         inkscape:connector-curvature="0"
         id="path1081"
         style="stroke-width:0.26458332"
         d="M 8.5576173,260.62805 7.825879,262.60416 H 7.570942 l -0.7165799,-1.97611 h 0.2576931 l 0.5470812,1.56683 q 0.026183,0.0758 0.039963,0.17501 h 0.00551 q 0.011024,-0.0827 0.045475,-0.17777 l 0.5581055,-1.56407 z" />
      <path
         inkscape:connector-curvature="0"
         id="path1083"
         style="stroke-width:0.26458332"
         d="M 9.888802,262.60416 H 8.841493 v -1.97611 h 1.0032118 v 0.20946 H 9.0730034 v 0.65733 h 0.7138238 v 0.20808 H 9.0730034 v 0.69177 H 9.888802 Z" />
      <path
         inkscape:connector-curvature="0"
         id="path1085"
         style="stroke-width:0.26458332"
         d="m 11.685764,262.60416 h -0.275608 l -0.330729,-0.55397 q -0.04548,-0.0772 -0.08819,-0.13092 -0.04272,-0.0551 -0.08819,-0.0896 -0.0441,-0.0344 -0.09646,-0.0496 -0.05099,-0.0165 -0.115755,-0.0165 h -0.190169 v 0.84061 h -0.23151 v -1.97611 h 0.5898 q 0.129535,0 0.238401,0.0331 0.110243,0.0317 0.190169,0.0978 0.0813,0.0661 0.126779,0.16537 0.04548,0.0978 0.04548,0.23013 0,0.10335 -0.0317,0.19017 -0.03032,0.0854 -0.08819,0.15296 -0.0565,0.0675 -0.137804,0.11576 -0.07993,0.0468 -0.180523,0.073 v 0.006 q 0.04961,0.022 0.08544,0.051 0.03721,0.0276 0.07028,0.0661 0.03307,0.0386 0.06477,0.0882 0.03307,0.0482 0.07304,0.113 z m -1.185113,-1.76665 v 0.71658 h 0.314193 q 0.08682,0 0.159852,-0.0262 0.07441,-0.0262 0.128158,-0.0744 0.05374,-0.0496 0.08406,-0.11988 0.03032,-0.0717 0.03032,-0.15986 0,-0.15847 -0.103353,-0.24667 -0.101975,-0.0896 -0.296278,-0.0896 z" />
      <path
         inkscape:connector-curvature="0"
         id="path1087"
         style="stroke-width:0.26458332"
         d="m 13.124436,260.83751 h -0.570508 v 1.76665 h -0.23151 v -1.76665 h -0.56913 v -0.20946 h 1.371148 z" />
    </g>
  </g>
  <g
     inkscape:groupmode="layer"
     id="layer2"
     inkscape:label="Grid7"
     style="display:none"
     sodipodi:insensitive="true">
    <g
       transform="translate(0,3.333209e-6)"
       style="display:inline"
       id="g1048">
      <circle
         style="display:inline;opacity:1;fill:none;fill-opacity:1;stroke:#000000;stroke-width:0.05172414;stroke-linecap:square;stroke-linejoin:round;stroke-miterlimit:4;stroke-dasharray:none;stroke-dashoffset:0;stroke-opacity:1;paint-order:markers fill stroke"
         id="circle1336"
         cx="7.9360795"
         cy="13.229558"
         r="5.4741378" />
      <circle
         r="5.4741378"
         cy="25.400398"
         cx="7.9360795"
         id="circle881"
         style="display:inline;opacity:1;fill:none;fill-opacity:1;stroke:#000000;stroke-width:0.05172414;stroke-linecap:square;stroke-linejoin:round;stroke-miterlimit:4;stroke-dasharray:none;stroke-dashoffset:0;stroke-opacity:1;paint-order:markers fill stroke" />
      <circle
         style="display:inline;opacity:1;fill:none;fill-opacity:1;stroke:#000000;stroke-width:0.05172414;stroke-linecap:square;stroke-linejoin:round;stroke-miterlimit:4;stroke-dasharray:none;stroke-dashoffset:0;stroke-opacity:1;paint-order:markers fill stroke"
         id="circle883"
         cx="7.9360795"
         cy="37.571243"
         r="5.4741378" />
      <circle
         r="5.4741378"
         cy="49.742088"
         cx="7.9360795"
         id="circle885"
         style="display:inline;opacity:1;fill:none;fill-opacity:1;stroke:#000000;stroke-width:0.05172414;stroke-linecap:square;stroke-linejoin:round;stroke-miterlimit:4;stroke-dasharray:none;stroke-dashoffset:0;stroke-opacity:1;paint-order:markers fill stroke" />
      <circle
         style="display:inline;opacity:1;fill:none;fill-opacity:1;stroke:#000000;stroke-width:0.05172414;stroke-linecap:square;stroke-linejoin:round;stroke-miterlimit:4;stroke-dasharray:none;stroke-dashoffset:0;stroke-opacity:1;paint-order:markers fill stroke"
         id="circle887"
         cx="7.9360795"
         cy="61.912933"
         r="5.4741378" />
      <circle
         r="5.4741378"
         cy="74.083778"
         cx="7.9360795"
         id="circle889"
         style="display:inline;opacity:1;fill:none;fill-opacity:1;stroke:#000000;stroke-width:0.05172414;stroke-linecap:square;stroke-linejoin:round;stroke-miterlimit:4;stroke-dasharray:none;stroke-dashoffset:0;stroke-opacity:1;paint-order:markers fill stroke" />
      <circle
         style="display:inline;opacity:1;fill:none;fill-opacity:1;stroke:#000000;stroke-width:0.05172414;stroke-linecap:square;stroke-linejoin:round;stroke-miterlimit:4;stroke-dasharray:none;stroke-dashoffset:0;stroke-opacity:1;paint-order:markers fill stroke"
         id="circle891"
         cx="7.9360795"
         cy="86.254623"
         r="5.4741378" />
      <text
         id="text3821-1"
         y="201.74998"
         x="17.197916"
         style="font-style:normal;font-weight:normal;font-size:2.82222223px;line-height:1.25;font-family:sans-serif;letter-spacing:0px;word-spacing:0px;display:inline;fill:#000000;fill-opacity:1;stroke:none;stroke-width:0.26458332"
         xml:space="preserve"
         transform="translate(0,-196.45832)"><tspan
           style="stroke-width:0.26458332"
           y="204.24699"
           x="17.197916"
           id="tspan3819-8"
           sodipodi:role="line" /></text>
      <path
         style="display:inline;fill:none;stroke:#000000;stroke-width:0.05;stroke-linecap:butt;stroke-linejoin:miter;stroke-miterlimit:4;stroke-dasharray:none;stroke-opacity:1"
         d="m 7.9375,196.45831 -3e-6,100.54167"
         id="path881-8"
         inkscape:connector-curvature="0"
         sodipodi:nodetypes="cc"
         transform="translate(0,-196.45832)" />
      <path
         sodipodi:nodetypes="cc"
         inkscape:connector-curvature="0"
         id="path890-2"
         d="m 3.968752,196.45832 -4e-6,100.54167"
         style="display:inline;fill:none;stroke:#000000;stroke-width:0.05;stroke-linecap:butt;stroke-linejoin:miter;stroke-miterlimit:4;stroke-dasharray:none;stroke-opacity:1"
         transform="translate(0,-196.45832)" />
      <path
         style="display:inline;fill:none;stroke:#000000;stroke-width:0.05;stroke-linecap:butt;stroke-linejoin:miter;stroke-miterlimit:4;stroke-dasharray:none;stroke-opacity:1"
         d="m 11.906253,196.45832 -4e-6,100.54167"
         id="path895-1"
         inkscape:connector-curvature="0"
         sodipodi:nodetypes="cc"
         transform="translate(0,-196.45832)" />
      <path
         sodipodi:nodetypes="cc"
         inkscape:connector-curvature="0"
         id="path905-6"
         d="m 0,209.68713 15.875,3.6e-4"
         style="display:inline;fill:none;stroke:#000000;stroke-width:0.05;stroke-linecap:butt;stroke-linejoin:miter;stroke-miterlimit:4;stroke-dasharray:none;stroke-opacity:1"
         transform="translate(0,-196.45832)" />
      <path
         sodipodi:nodetypes="cc"
         style="display:inline;fill:none;stroke:#000000;stroke-width:0.05;stroke-linecap:butt;stroke-linejoin:miter;stroke-miterlimit:4;stroke-dasharray:none;stroke-opacity:1"
         d="m 0,221.85836 15.875,-4e-5"
         id="path931"
         inkscape:connector-curvature="0"
         transform="translate(0,-196.45832)" />
      <path
         sodipodi:nodetypes="cc"
         inkscape:connector-curvature="0"
         id="path933"
         d="m 0,234.02757 15.875,0.002"
         style="display:inline;fill:none;stroke:#000000;stroke-width:0.05;stroke-linecap:butt;stroke-linejoin:miter;stroke-miterlimit:4;stroke-dasharray:none;stroke-opacity:1"
         transform="translate(0,-196.45832)" />
      <path
         sodipodi:nodetypes="cc"
         inkscape:connector-curvature="0"
         id="path940"
         d="m 0,246.19841 15.875,0.002"
         style="display:inline;fill:none;stroke:#000000;stroke-width:0.05;stroke-linecap:butt;stroke-linejoin:miter;stroke-miterlimit:4;stroke-dasharray:none;stroke-opacity:1"
         transform="translate(0,-196.45832)" />
      <path
         sodipodi:nodetypes="cc"
         style="display:inline;fill:none;stroke:#000000;stroke-width:0.05;stroke-linecap:butt;stroke-linejoin:miter;stroke-miterlimit:4;stroke-dasharray:none;stroke-opacity:1"
         d="m 0,258.36925 15.875,0.002"
         id="path950"
         inkscape:connector-curvature="0"
         transform="translate(0,-196.45832)" />
      <path
         sodipodi:nodetypes="cc"
         inkscape:connector-curvature="0"
         id="path973"
         d="m 0,270.54009 15.875,0.002"
         style="display:inline;fill:none;stroke:#000000;stroke-width:0.05;stroke-linecap:butt;stroke-linejoin:miter;stroke-miterlimit:4;stroke-dasharray:none;stroke-opacity:1"
         transform="translate(0,-196.45832)" />
      <path
         sodipodi:nodetypes="cc"
         style="display:inline;fill:none;stroke:#000000;stroke-width:0.05;stroke-linecap:butt;stroke-linejoin:miter;stroke-miterlimit:4;stroke-dasharray:none;stroke-opacity:1"
         d="m 0,282.71093 15.875,0.002"
         id="path1013"
         inkscape:connector-curvature="0"
         transform="translate(0,-196.45832)" />
      <circle
         r="4.0999999"
         cy="209.68629"
         cx="7.9523039"
         id="circle958"
         style="display:inline;opacity:1;fill:none;fill-opacity:1;stroke:#000000;stroke-width:0.05;stroke-linecap:square;stroke-linejoin:round;stroke-miterlimit:4;stroke-dasharray:none;stroke-dashoffset:0;stroke-opacity:1;paint-order:markers fill stroke"
         transform="translate(0,-196.45832)" />
      <circle
         style="display:inline;opacity:1;fill:none;fill-opacity:1;stroke:#000000;stroke-width:0.05;stroke-linecap:square;stroke-linejoin:round;stroke-miterlimit:4;stroke-dasharray:none;stroke-dashoffset:0;stroke-opacity:1;paint-order:markers fill stroke"
         id="circle964"
         cx="7.9523039"
         cy="221.85713"
         r="4.0999999"
         transform="translate(0,-196.45832)" />
      <circle
         r="4.0999999"
         cy="234.02797"
         cx="7.9523039"
         id="circle972"
         style="display:inline;opacity:1;fill:none;fill-opacity:1;stroke:#000000;stroke-width:0.05;stroke-linecap:square;stroke-linejoin:round;stroke-miterlimit:4;stroke-dasharray:none;stroke-dashoffset:0;stroke-opacity:1;paint-order:markers fill stroke"
         transform="translate(0,-196.45832)" />
      <circle
         style="display:inline;opacity:1;fill:none;fill-opacity:1;stroke:#000000;stroke-width:0.05;stroke-linecap:square;stroke-linejoin:round;stroke-miterlimit:4;stroke-dasharray:none;stroke-dashoffset:0;stroke-opacity:1;paint-order:markers fill stroke"
         id="circle980"
         cx="7.9523039"
         cy="246.19882"
         r="4.0999999"
         transform="translate(0,-196.45832)" />
      <circle
         r="4.0999999"
         cy="258.36966"
         cx="7.9523039"
         id="circle988"
         style="display:inline;opacity:1;fill:none;fill-opacity:1;stroke:#000000;stroke-width:0.05;stroke-linecap:square;stroke-linejoin:round;stroke-miterlimit:4;stroke-dasharray:none;stroke-dashoffset:0;stroke-opacity:1;paint-order:markers fill stroke"
         transform="translate(0,-196.45832)" />
      <circle
         style="display:inline;opacity:1;fill:none;fill-opacity:1;stroke:#000000;stroke-width:0.05;stroke-linecap:square;stroke-linejoin:round;stroke-miterlimit:4;stroke-dasharray:none;stroke-dashoffset:0;stroke-opacity:1;paint-order:markers fill stroke"
         id="circle996"
         cx="7.9523039"
         cy="270.5405"
         r="4.0999999"
         transform="translate(0,-196.45832)" />
      <circle
         r="4.0999999"
         cy="282.71133"
         cx="7.9523039"
         id="circle1004"
         style="display:inline;opacity:1;fill:none;fill-opacity:1;stroke:#000000;stroke-width:0.05;stroke-linecap:square;stroke-linejoin:round;stroke-miterlimit:4;stroke-dasharray:none;stroke-dashoffset:0;stroke-opacity:1;paint-order:markers fill stroke"
         transform="translate(0,-196.45832)" />
    </g>
  </g>
  <g
     inkscape:groupmode="layer"
     id="layer4"
     inkscape:label="Grid6"
     sodipodi:insensitive="true"
     style="display:none">
    <g
       transform="translate(0,3.333209e-6)"
       style="display:inline"
       id="g1112">
      <path
         style="fill:none;stroke:#000000;stroke-width:0.05;stroke-linecap:butt;stroke-linejoin:miter;stroke-miterlimit:4;stroke-dasharray:none;stroke-opacity:1"
         d="m 7.9375,-1e-5 -3e-6,100.54167"
         id="path881-8-8"
         inkscape:connector-curvature="0"
         sodipodi:nodetypes="cc" />
      <path
         sodipodi:nodetypes="cc"
         inkscape:connector-curvature="0"
         id="path890-2-5"
         d="m 3.968752,0 -4e-6,100.54167"
         style="fill:none;stroke:#000000;stroke-width:0.05;stroke-linecap:butt;stroke-linejoin:miter;stroke-miterlimit:4;stroke-dasharray:none;stroke-opacity:1" />
      <path
         style="fill:none;stroke:#000000;stroke-width:0.05;stroke-linecap:butt;stroke-linejoin:miter;stroke-miterlimit:4;stroke-dasharray:none;stroke-opacity:1"
         d="m 11.906253,0 -4e-6,100.54167"
         id="path895-1-5"
         inkscape:connector-curvature="0"
         sodipodi:nodetypes="cc" />
      <path
         sodipodi:nodetypes="cc"
         inkscape:connector-curvature="0"
         id="path905-6-4"
         d="m 0,14.022551 15.875,3.66e-4"
         style="fill:none;stroke:#000000;stroke-width:0.05;stroke-linecap:butt;stroke-linejoin:miter;stroke-miterlimit:4;stroke-dasharray:none;stroke-opacity:1" />
      <path
         sodipodi:nodetypes="cc"
         style="fill:none;stroke:#000000;stroke-width:0.05;stroke-linecap:butt;stroke-linejoin:miter;stroke-miterlimit:4;stroke-dasharray:none;stroke-opacity:1"
         d="M 0,28.57465 15.875,28.575"
         id="path1103"
         inkscape:connector-curvature="0" />
      <path
         sodipodi:nodetypes="cc"
         inkscape:connector-curvature="0"
         id="path1107"
         d="m 0,43.126622 15.875,4.61e-4"
         style="fill:none;stroke:#000000;stroke-width:0.05;stroke-linecap:butt;stroke-linejoin:miter;stroke-miterlimit:4;stroke-dasharray:none;stroke-opacity:1" />
      <path
         sodipodi:nodetypes="cc"
         style="fill:none;stroke:#000000;stroke-width:0.05;stroke-linecap:butt;stroke-linejoin:miter;stroke-miterlimit:4;stroke-dasharray:none;stroke-opacity:1"
         d="m 0,57.678723 15.875,4.44e-4"
         id="path1111"
         inkscape:connector-curvature="0" />
      <path
         sodipodi:nodetypes="cc"
         inkscape:connector-curvature="0"
         id="path1115"
         d="m 0,72.230955 15.875,2.95e-4"
         style="fill:none;stroke:#000000;stroke-width:0.05;stroke-linecap:butt;stroke-linejoin:miter;stroke-miterlimit:4;stroke-dasharray:none;stroke-opacity:1" />
      <path
         sodipodi:nodetypes="cc"
         style="fill:none;stroke:#000000;stroke-width:0.05;stroke-linecap:butt;stroke-linejoin:miter;stroke-miterlimit:4;stroke-dasharray:none;stroke-opacity:1"
         d="m 0,86.782927 15.875,4.06e-4"
         id="path1119"
         inkscape:connector-curvature="0" />
      <circle
         r="4.0999999"
         cy="28.574995"
         cx="7.9523039"
         id="circle1014"
         style="display:inline;opacity:1;fill:none;fill-opacity:1;stroke:#000000;stroke-width:0.05;stroke-linecap:square;stroke-linejoin:round;stroke-miterlimit:4;stroke-dasharray:none;stroke-dashoffset:0;stroke-opacity:1;paint-order:markers fill stroke" />
      <circle
         r="4.0999999"
         cy="43.127026"
         cx="7.9523039"
         id="circle1018"
         style="display:inline;opacity:1;fill:none;fill-opacity:1;stroke:#000000;stroke-width:0.05;stroke-linecap:square;stroke-linejoin:round;stroke-miterlimit:4;stroke-dasharray:none;stroke-dashoffset:0;stroke-opacity:1;paint-order:markers fill stroke" />
      <circle
         style="display:inline;opacity:1;fill:none;fill-opacity:1;stroke:#000000;stroke-width:0.05;stroke-linecap:square;stroke-linejoin:round;stroke-miterlimit:4;stroke-dasharray:none;stroke-dashoffset:0;stroke-opacity:1;paint-order:markers fill stroke"
         id="circle1022"
         cx="7.9523039"
         cy="57.679188"
         r="4.0999999" />
      <circle
         style="display:inline;opacity:1;fill:none;fill-opacity:1;stroke:#000000;stroke-width:0.05;stroke-linecap:square;stroke-linejoin:round;stroke-miterlimit:4;stroke-dasharray:none;stroke-dashoffset:0;stroke-opacity:1;paint-order:markers fill stroke"
         id="circle1026"
         cx="7.9523039"
         cy="72.231216"
         r="4.0999999" />
      <circle
         r="4.0999999"
         cy="86.783379"
         cx="7.9523039"
         id="circle1030"
         style="display:inline;opacity:1;fill:none;fill-opacity:1;stroke:#000000;stroke-width:0.05;stroke-linecap:square;stroke-linejoin:round;stroke-miterlimit:4;stroke-dasharray:none;stroke-dashoffset:0;stroke-opacity:1;paint-order:markers fill stroke" />
      <circle
         r="5.4741378"
         cy="14.023303"
         cx="7.9360795"
         id="circle943"
         style="display:inline;opacity:1;fill:none;fill-opacity:1;stroke:#000000;stroke-width:0.05172414;stroke-linecap:square;stroke-linejoin:round;stroke-miterlimit:4;stroke-dasharray:none;stroke-dashoffset:0;stroke-opacity:1;paint-order:markers fill stroke" />
      <circle
         style="display:inline;opacity:1;fill:none;fill-opacity:1;stroke:#000000;stroke-width:0.05172414;stroke-linecap:square;stroke-linejoin:round;stroke-miterlimit:4;stroke-dasharray:none;stroke-dashoffset:0;stroke-opacity:1;paint-order:markers fill stroke"
         id="circle975"
         cx="7.9360795"
         cy="28.575275"
         r="5.4741378" />
      <circle
         style="display:inline;opacity:1;fill:none;fill-opacity:1;stroke:#000000;stroke-width:0.05172414;stroke-linecap:square;stroke-linejoin:round;stroke-miterlimit:4;stroke-dasharray:none;stroke-dashoffset:0;stroke-opacity:1;paint-order:markers fill stroke"
         id="circle977"
         cx="7.9360795"
         cy="43.127495"
         r="5.4741378" />
      <circle
         r="5.4741378"
         cy="57.67947"
         cx="7.9360795"
         id="circle979"
         style="display:inline;opacity:1;fill:none;fill-opacity:1;stroke:#000000;stroke-width:0.05172414;stroke-linecap:square;stroke-linejoin:round;stroke-miterlimit:4;stroke-dasharray:none;stroke-dashoffset:0;stroke-opacity:1;paint-order:markers fill stroke" />
      <circle
         r="5.4741378"
         cy="72.231689"
         cx="7.9360795"
         id="circle981"
         style="display:inline;opacity:1;fill:none;fill-opacity:1;stroke:#000000;stroke-width:0.05172414;stroke-linecap:square;stroke-linejoin:round;stroke-miterlimit:4;stroke-dasharray:none;stroke-dashoffset:0;stroke-opacity:1;paint-order:markers fill stroke" />
      <circle
         style="display:inline;opacity:1;fill:none;fill-opacity:1;stroke:#000000;stroke-width:0.05172414;stroke-linecap:square;stroke-linejoin:round;stroke-miterlimit:4;stroke-dasharray:none;stroke-dashoffset:0;stroke-opacity:1;paint-order:markers fill stroke"
         id="circle983"
         cx="7.9360795"
         cy="86.783661"
         r="5.4741378" />
      <circle
         style="display:inline;opacity:1;fill:none;fill-opacity:1;stroke:#000000;stroke-width:0.05;stroke-linecap:square;stroke-linejoin:round;stroke-miterlimit:4;stroke-dasharray:none;stroke-dashoffset:0;stroke-opacity:1;paint-order:markers fill stroke"
         id="circle1089"
         cx="7.9523039"
         cy="14.022678"
         r="4.0999999" />
    </g>
  </g>
</svg>
