<?xml version="1.0" encoding="UTF-8" standalone="no"?>
<!-- Created with Inkscape (http://www.inkscape.org/) -->

<svg
   xmlns:dc="http://purl.org/dc/elements/1.1/"
   xmlns:cc="http://creativecommons.org/ns#"
   xmlns:rdf="http://www.w3.org/1999/02/22-rdf-syntax-ns#"
   xmlns:svg="http://www.w3.org/2000/svg"
   xmlns="http://www.w3.org/2000/svg"
   xmlns:sodipodi="http://sodipodi.sourceforge.net/DTD/sodipodi-0.dtd"
   xmlns:inkscape="http://www.inkscape.org/namespaces/inkscape"
   width="90"
   height="380"
   viewBox="0 0 23.812501 100.54167"
   version="1.1"
   id="svg8"
   inkscape:version="0.92.4 (5da689c313, 2019-01-14)"
   sodipodi:docname="Comparator.svg">
  <defs
     id="defs2" />
  <sodipodi:namedview
     id="base"
     pagecolor="#ffffff"
     bordercolor="#666666"
     borderopacity="1.0"
     inkscape:pageopacity="0.0"
     inkscape:pageshadow="2"
     inkscape:zoom="1.979899"
     inkscape:cx="-69.757096"
     inkscape:cy="201.13121"
     inkscape:document-units="mm"
     inkscape:current-layer="layer2"
     showgrid="true"
     units="px"
     inkscape:snap-bbox="true"
     inkscape:snap-page="true"
     inkscape:bbox-nodes="true"
     inkscape:snap-bbox-edge-midpoints="true"
     inkscape:window-width="1920"
     inkscape:window-height="1017"
     inkscape:window-x="-8"
     inkscape:window-y="-8"
     inkscape:window-maximized="1">
    <inkscape:grid
       type="xygrid"
       id="grid871" />
  </sodipodi:namedview>
  <metadata
     id="metadata5">
    <rdf:RDF>
      <cc:Work
         rdf:about="">
        <dc:format>image/svg+xml</dc:format>
        <dc:type
           rdf:resource="http://purl.org/dc/dcmitype/StillImage" />
        <dc:title />
      </cc:Work>
    </rdf:RDF>
  </metadata>
  <g
     inkscape:groupmode="layer"
     id="layer2"
     inkscape:label="Panel"
     sodipodi:insensitive="true">
    <rect
       transform="translate(0,-196.45832)"
       id="rect3855"
       width="23.8125"
       height="100.54167"
       x="-3.3306691e-16"
       y="196.45831"
       style="fill:#75a555;fill-opacity:1;stroke-width:0.40544224" />
  </g>
  <g
     inkscape:label="Layer 1"
     inkscape:groupmode="layer"
     id="layer1"
     transform="translate(0,-196.45832)"
     sodipodi:insensitive="true">
    <rect
       style="fill:#528d00;fill-opacity:1;stroke-width:0.26107159"
       id="rect897"
       width="20.980658"
       height="32.072342"
       x="1.4267884"
       y="253.6355" />
    <rect
       style="fill:#000000;stroke-width:0.30000001;stroke-miterlimit:4;stroke-dasharray:none"
       id="rect4699"
       width="0.26458332"
       height="7.1437511"
       x="11.771602"
       y="220.76932"
       ry="0" />
    <rect
       style="fill:#000000;stroke-width:0.18047291"
       id="rect4699-1"
       width="0.26726949"
       height="6.0854168"
       x="265.14307"
       y="-15.875"
       transform="rotate(90)" />
    <rect
       style="fill:#000000;stroke-width:0.1804729"
       id="rect4699-1-1"
       width="0.26726949"
       height="6.0854168"
       x="277.55194"
       y="-15.875"
       transform="rotate(90)" />
    <g
       aria-label="/^M^\"
       style="font-style:normal;font-variant:normal;font-weight:normal;font-stretch:normal;font-size:2.82222223px;line-height:1.25;font-family:'Copperplate Gothic Light';-inkscape-font-specification:'Copperplate Gothic Light, ';letter-spacing:0px;word-spacing:0px;fill:#000000;fill-opacity:1;stroke:#000000;stroke-width:0.2;stroke-miterlimit:4;stroke-dasharray:none;stroke-opacity:1"
       id="text956"
       transform="translate(-9.9044613,3.6487283)">
      <path
         d="m 21.203855,291.40545 v 0.0386 h -0.434082 v -0.0386 q 0.09509,-0.006 0.224621,-0.17088 l 1.094162,-1.4621 q 0.07441,-0.1006 0.07441,-0.12402 0,-0.0372 -0.06615,-0.0482 v -0.0372 h 0.423058 v 0.0372 q -0.09508,0.006 -0.22462,0.17087 l -1.08176,1.46348 q -0.07579,0.10197 -0.07579,0.12402 0,0.0358 0.06615,0.0469 z"
         style="font-style:normal;font-variant:normal;font-weight:normal;font-stretch:normal;font-size:2.82222223px;line-height:1.25;font-family:'Copperplate Gothic Light';-inkscape-font-specification:'Copperplate Gothic Light, ';stroke:#000000;stroke-width:0.2;stroke-miterlimit:4;stroke-dasharray:none;stroke-opacity:1"
         id="path958"
         inkscape:connector-curvature="0" />
      <path
         d="M 22.940183,290.3857 H 22.73899 l 0.493338,-0.8282 h 0.243912 l 0.493338,0.8282 h -0.20395 l -0.413411,-0.68075 z"
         style="font-style:normal;font-variant:normal;font-weight:normal;font-stretch:normal;font-size:2.82222223px;line-height:1.25;font-family:'Copperplate Gothic Light';-inkscape-font-specification:'Copperplate Gothic Light, ';stroke:#000000;stroke-width:0.2;stroke-miterlimit:4;stroke-dasharray:none;stroke-opacity:1"
         id="path960"
         inkscape:connector-curvature="0" />
      <path
         d="m 25.342104,291.44403 -0.789616,-1.58061 v 1.418 q 0,0.0565 0.01791,0.0813 0.01791,0.0234 0.07028,0.0372 v 0.0441 h -0.373449 v -0.0441 q 0.05237,-0.0138 0.07028,-0.0372 0.01792,-0.0234 0.01792,-0.0813 v -1.5558 q 0,-0.0579 -0.01792,-0.0813 -0.01791,-0.0248 -0.07028,-0.0372 v -0.0441 h 0.487826 v 0.0441 q -0.06752,0.0234 -0.06752,0.0579 0,0.0165 0.04547,0.10611 l 0.62563,1.24161 0.628385,-1.25263 q 0.03307,-0.0661 0.03307,-0.0937 0,-0.0358 -0.06752,-0.0593 v -0.0441 h 0.49196 v 0.0441 q -0.05237,0.0138 -0.07028,0.0372 -0.01792,0.0234 -0.01792,0.0813 v 1.5558 q 0,0.0565 0.01792,0.0813 0.01791,0.0234 0.07028,0.0372 v 0.0441 h -0.392741 v -0.0441 q 0.05374,-0.0138 0.07028,-0.0372 0.01791,-0.0234 0.01791,-0.0813 v -1.418 z"
         style="font-style:normal;font-variant:normal;font-weight:normal;font-stretch:normal;font-size:2.82222223px;line-height:1.25;font-family:'Copperplate Gothic Light';-inkscape-font-specification:'Copperplate Gothic Light, ';stroke:#000000;stroke-width:0.2;stroke-miterlimit:4;stroke-dasharray:none;stroke-opacity:1"
         id="path962"
         inkscape:connector-curvature="0" />
      <path
         d="m 26.942006,290.3857 h -0.201193 l 0.493338,-0.8282 h 0.243912 l 0.493338,0.8282 h -0.20395 l -0.413411,-0.68075 z"
         style="font-style:normal;font-variant:normal;font-weight:normal;font-stretch:normal;font-size:2.82222223px;line-height:1.25;font-family:'Copperplate Gothic Light';-inkscape-font-specification:'Copperplate Gothic Light, ';stroke:#000000;stroke-width:0.2;stroke-miterlimit:4;stroke-dasharray:none;stroke-opacity:1"
         id="path964"
         inkscape:connector-curvature="0" />
      <path
         d="m 28.617701,289.56301 v 0.0372 q -0.06615,0.011 -0.06615,0.0482 0,0.0234 0.07441,0.12402 l 1.092784,1.4621 q 0.129536,0.16536 0.22462,0.17088 v 0.0386 h -0.434082 v -0.0386 q 0.06615,-0.011 0.06615,-0.0469 0,-0.0207 -0.07579,-0.12402 l -1.080382,-1.46348 q -0.129535,-0.16536 -0.22462,-0.17087 v -0.0372 z"
         style="font-style:normal;font-variant:normal;font-weight:normal;font-stretch:normal;font-size:2.82222223px;line-height:1.25;font-family:'Copperplate Gothic Light';-inkscape-font-specification:'Copperplate Gothic Light, ';stroke:#000000;stroke-width:0.2;stroke-miterlimit:4;stroke-dasharray:none;stroke-opacity:1"
         id="path966"
         inkscape:connector-curvature="0" />
    </g>
    <g
       aria-label="COMPARATOR"
       style="font-style:normal;font-variant:normal;font-weight:bold;font-stretch:normal;font-size:3.52777767px;line-height:1.25;font-family:'Yu Gothic UI';-inkscape-font-specification:'Yu Gothic UI Bold';letter-spacing:0px;word-spacing:0px;fill:#000000;fill-opacity:1;stroke:none;stroke-width:0.26458332"
       id="text873"
       transform="matrix(0.9457158,0,0,1,0.64632119,-0.52916667)">
      <path
         d="m 2.0351908,203.98649 q -0.2790528,0.14469 -0.6941868,0.14469 -0.53743483,0 -0.8612738,-0.33934 -0.32383896,-0.33934 -0.32383896,-0.89055 0,-0.59256 0.36345756,-0.95774 0.36518011,-0.36518 0.921563,-0.36518 0.3582899,0 0.594279,0.10163 v 0.40652 q -0.2497694,-0.14814 -0.5512153,-0.14814 -0.4013536,0 -0.65112302,0.25666 -0.24804687,0.25666 -0.24804687,0.68558 0,0.40824 0.23254394,0.65112 0.23254395,0.24115 0.61150445,0.24115 0.3496772,0 0.6063368,-0.16536 z"
         style="font-style:normal;font-variant:normal;font-weight:bold;font-stretch:normal;font-size:3.52777767px;font-family:'Yu Gothic UI';-inkscape-font-specification:'Yu Gothic UI Bold';stroke-width:0.26458332"
         id="path875"
         inkscape:connector-curvature="0" />
      <path
         d="m 3.5217493,204.13118 q -0.5339898,0 -0.8561062,-0.34623 -0.3203938,-0.34623 -0.3203938,-0.90089 0,-0.596 0.327284,-0.95085 0.3272841,-0.35484 0.8888346,-0.35484 0.5202094,0 0.8371582,0.34451 0.3186713,0.34451 0.3186713,0.90089 0,0.60462 -0.3255615,0.95602 -0.3255615,0.35139 -0.8698866,0.35139 z m 0.018948,-2.1928 q -0.3393419,0 -0.5529379,0.25322 -0.2118733,0.25321 -0.2118733,0.66662 0,0.41169 0.2067057,0.66318 0.2067057,0.25149 0.54088,0.25149 0.3548448,0 0.559828,-0.23943 0.2049832,-0.23943 0.2049832,-0.67007 0,-0.44269 -0.1998156,-0.68385 -0.198093,-0.24116 -0.5477701,-0.24116 z"
         style="font-style:normal;font-variant:normal;font-weight:bold;font-stretch:normal;font-size:3.52777767px;font-family:'Yu Gothic UI';-inkscape-font-specification:'Yu Gothic UI Bold';stroke-width:0.26458332"
         id="path877"
         inkscape:connector-curvature="0" />
      <path
         d="M 7.822951,204.08984 H 7.4164297 v -1.59852 q 0,-0.19637 0.024116,-0.48059 h -0.00689 q -0.037896,0.16192 -0.067179,0.23254 l -0.7372505,1.84657 H 6.3467276 l -0.7389729,-1.83279 q -0.031006,-0.081 -0.065457,-0.24632 h -0.00689 q 0.01378,0.14814 0.01378,0.48403 v 1.59508 H 5.1702276 v -2.47013 H 5.747281 l 0.6494005,1.64503 q 0.07407,0.18948 0.096463,0.2825 h 0.00861 q 0.063734,-0.19465 0.1033529,-0.28939 l 0.6614583,-1.63814 H 7.822951 Z"
         style="font-style:normal;font-variant:normal;font-weight:bold;font-stretch:normal;font-size:3.52777767px;font-family:'Yu Gothic UI';-inkscape-font-specification:'Yu Gothic UI Bold';stroke-width:0.26458332"
         id="path879"
         inkscape:connector-curvature="0" />
      <path
         d="m 8.8375317,203.19412 v 0.89572 H 8.4292879 v -2.47013 h 0.7493083 q 0.4254693,0 0.6597357,0.19809 0.2342661,0.1981 0.2342661,0.55811 0,0.36001 -0.2446013,0.58911 -0.2446018,0.2291 -0.6614584,0.2291 z m 0,-1.23679 v 0.90261 h 0.2652724 q 0.2635498,0 0.4013536,-0.1223 0.1378038,-0.1223 0.1378038,-0.34451 0,-0.4358 -0.506429,-0.4358 z"
         style="font-style:normal;font-variant:normal;font-weight:bold;font-stretch:normal;font-size:3.52777767px;font-family:'Yu Gothic UI';-inkscape-font-specification:'Yu Gothic UI Bold';stroke-width:0.26458332"
         id="path881"
         inkscape:connector-curvature="0" />
      <path
         d="m 12.394592,204.08984 h -0.449585 l -0.222209,-0.62873 h -0.971516 l -0.213596,0.62873 h -0.447863 l 0.925008,-2.47013 h 0.461643 z m -0.780314,-0.9629 -0.342787,-0.9853 q -0.0155,-0.0482 -0.03273,-0.15503 h -0.0069 q -0.0155,0.0982 -0.03445,0.15503 l -0.339342,0.9853 z"
         style="font-style:normal;font-variant:normal;font-weight:bold;font-stretch:normal;font-size:3.52777767px;font-family:'Yu Gothic UI';-inkscape-font-specification:'Yu Gothic UI Bold';stroke-width:0.26458332"
         id="path883"
         inkscape:connector-curvature="0" />
      <path
         d="m 14.64424,204.08984 h -0.478869 l -0.394463,-0.66145 q -0.0534,-0.0913 -0.105075,-0.15503 -0.04995,-0.0655 -0.103353,-0.1068 -0.05168,-0.0413 -0.113688,-0.0603 -0.06201,-0.0189 -0.139527,-0.0189 h -0.165364 v 1.00252 h -0.408244 v -2.47013 h 0.813042 q 0.173978,0 0.320394,0.0413 0.146417,0.0413 0.254937,0.12575 0.108521,0.0827 0.16881,0.20843 0.06201,0.12402 0.06201,0.29111 0,0.13091 -0.03962,0.24115 -0.0379,0.10852 -0.110243,0.19465 -0.07062,0.0844 -0.172255,0.14469 -0.09991,0.0603 -0.225654,0.093 v 0.007 q 0.06718,0.0379 0.117134,0.0844 0.04995,0.0448 0.09474,0.093 0.04479,0.0482 0.08785,0.11024 0.04479,0.0603 0.09819,0.14125 z m -1.500339,-2.13768 v 0.80271 h 0.341064 q 0.09474,0 0.173977,-0.0293 0.08096,-0.0293 0.139527,-0.0844 0.05857,-0.0551 0.09129,-0.13436 0.03273,-0.0792 0.03273,-0.17742 0,-0.17742 -0.111965,-0.27733 -0.111966,-0.0999 -0.322117,-0.0999 z"
         style="font-style:normal;font-variant:normal;font-weight:bold;font-stretch:normal;font-size:3.52777767px;font-family:'Yu Gothic UI';-inkscape-font-specification:'Yu Gothic UI Bold';stroke-width:0.26458332"
         id="path885"
         inkscape:connector-curvature="0" />
      <path
         d="m 16.962789,204.08984 h -0.449585 l -0.222208,-0.62873 h -0.971517 l -0.213596,0.62873 H 14.65802 l 0.925009,-2.47013 h 0.461642 z m -0.780314,-0.9629 -0.342787,-0.9853 q -0.0155,-0.0482 -0.03273,-0.15503 h -0.0069 q -0.0155,0.0982 -0.03445,0.15503 l -0.339342,0.9853 z"
         style="font-style:normal;font-variant:normal;font-weight:bold;font-stretch:normal;font-size:3.52777767px;font-family:'Yu Gothic UI';-inkscape-font-specification:'Yu Gothic UI Bold';stroke-width:0.26458332"
         id="path888"
         inkscape:connector-curvature="0" />
      <path
         d="m 18.750794,201.96766 h -0.70969 v 2.12218 h -0.409966 v -2.12218 h -0.707967 v -0.34795 h 1.827623 z"
         style="font-style:normal;font-variant:normal;font-weight:bold;font-stretch:normal;font-size:3.52777767px;font-family:'Yu Gothic UI';-inkscape-font-specification:'Yu Gothic UI Bold';stroke-width:0.26458332"
         id="path890"
         inkscape:connector-curvature="0" />
      <path
         d="m 20.099548,204.13118 q -0.53399,0 -0.856107,-0.34623 -0.320393,-0.34623 -0.320393,-0.90089 0,-0.596 0.327284,-0.95085 0.327284,-0.35484 0.888834,-0.35484 0.52021,0 0.837158,0.34451 0.318672,0.34451 0.318672,0.90089 0,0.60462 -0.325562,0.95602 -0.325561,0.35139 -0.869886,0.35139 z m 0.01895,-2.1928 q -0.339342,0 -0.552938,0.25322 -0.211873,0.25321 -0.211873,0.66662 0,0.41169 0.206705,0.66318 0.206706,0.25149 0.54088,0.25149 0.354845,0 0.559828,-0.23943 0.204983,-0.23943 0.204983,-0.67007 0,-0.44269 -0.199815,-0.68385 -0.198093,-0.24116 -0.54777,-0.24116 z"
         style="font-style:normal;font-variant:normal;font-weight:bold;font-stretch:normal;font-size:3.52777767px;font-family:'Yu Gothic UI';-inkscape-font-specification:'Yu Gothic UI Bold';stroke-width:0.26458332"
         id="path892"
         inkscape:connector-curvature="0" />
      <path
         d="m 23.656609,204.08984 h -0.478868 l -0.394464,-0.66145 q -0.0534,-0.0913 -0.105075,-0.15503 -0.04995,-0.0655 -0.103353,-0.1068 -0.05168,-0.0413 -0.113688,-0.0603 -0.06201,-0.0189 -0.139527,-0.0189 H 22.15627 v 1.00252 h -0.408244 v -2.47013 h 0.813042 q 0.173978,0 0.320394,0.0413 0.146417,0.0413 0.254937,0.12575 0.108521,0.0827 0.16881,0.20843 0.06201,0.12402 0.06201,0.29111 0,0.13091 -0.03962,0.24115 -0.0379,0.10852 -0.110243,0.19465 -0.07062,0.0844 -0.172255,0.14469 -0.09991,0.0603 -0.225653,0.093 v 0.007 q 0.06718,0.0379 0.117133,0.0844 0.04995,0.0448 0.09474,0.093 0.04479,0.0482 0.08785,0.11024 0.04479,0.0603 0.09818,0.14125 z m -1.500339,-2.13768 v 0.80271 h 0.341064 q 0.09474,0 0.173977,-0.0293 0.08096,-0.0293 0.139527,-0.0844 0.05857,-0.0551 0.09129,-0.13436 0.03273,-0.0792 0.03273,-0.17742 0,-0.17742 -0.111965,-0.27733 -0.111966,-0.0999 -0.322117,-0.0999 z"
         style="font-style:normal;font-variant:normal;font-weight:bold;font-stretch:normal;font-size:3.52777767px;font-family:'Yu Gothic UI';-inkscape-font-specification:'Yu Gothic UI Bold';stroke-width:0.26458332"
         id="path894"
         inkscape:connector-curvature="0" />
    </g>
    <g
       aria-label="THRESHOLD"
       style="font-style:normal;font-variant:normal;font-weight:normal;font-stretch:normal;font-size:2.82222223px;line-height:1.25;font-family:'Yu Gothic UI';-inkscape-font-specification:'Yu Gothic UI';letter-spacing:0px;word-spacing:0px;fill:#000000;fill-opacity:1;stroke:none;stroke-width:0.26458332"
       id="text899">
      <path
         d="M 5.6068206,208.57479 H 5.0363128 v 1.76664 H 4.8048023 v -1.76664 H 4.2356726 v -0.20947 h 1.371148 z"
         style="stroke-width:0.26458332"
         id="path901"
         inkscape:connector-curvature="0" />
      <path
         d="M 7.4010262,210.34143 H 7.1695158 v -0.90124 H 6.1470115 v 0.90124 H 5.9155011 v -1.97611 h 0.2315104 v 0.86679 h 1.0225043 v -0.86679 h 0.2315104 z"
         style="stroke-width:0.26458332"
         id="path903"
         inkscape:connector-curvature="0" />
      <path
         d="M 9.3385482,210.34143 H 9.0629405 l -0.3307291,-0.55397 q -0.045475,-0.0772 -0.088195,-0.13091 -0.042719,-0.0551 -0.088194,-0.0896 -0.044097,-0.0344 -0.096463,-0.0496 -0.050987,-0.0165 -0.1157552,-0.0165 H 8.1534353 v 0.8406 H 7.9219249 v -1.97611 h 0.5898003 q 0.1295356,0 0.2384007,0.0331 0.110243,0.0317 0.1901692,0.0978 0.081304,0.0661 0.1267795,0.16536 0.045475,0.0978 0.045475,0.23013 0,0.10336 -0.031695,0.19017 -0.030317,0.0854 -0.088194,0.15297 -0.0565,0.0675 -0.1378038,0.11575 -0.079926,0.0469 -0.180523,0.073 v 0.006 q 0.049609,0.0221 0.085438,0.051 0.037207,0.0276 0.07028,0.0661 0.033073,0.0386 0.064768,0.0882 0.033073,0.0482 0.073036,0.113 z m -1.1851129,-1.76664 v 0.71658 H 8.467628 q 0.086816,0 0.1598525,-0.0262 0.074414,-0.0262 0.1281575,-0.0744 0.053744,-0.0496 0.08406,-0.11989 0.030317,-0.0717 0.030317,-0.15985 0,-0.15848 -0.1033529,-0.24667 -0.1019748,-0.0896 -0.2962782,-0.0896 z"
         style="stroke-width:0.26458332"
         id="path905"
         inkscape:connector-curvature="0" />
      <path
         d="M 10.655952,210.34143 H 9.6086434 v -1.97611 h 1.0032116 v 0.20947 H 9.8401538 v 0.65732 h 0.7138242 v 0.20808 H 9.8401538 v 0.69178 h 0.8157982 z"
         style="stroke-width:0.26458332"
         id="path907"
         inkscape:connector-curvature="0" />
      <path
         d="m 10.943962,210.2615 v -0.27285 q 0.04685,0.0413 0.111621,0.0744 0.06615,0.0331 0.137804,0.0565 0.07304,0.022 0.146072,0.0344 0.07304,0.0124 0.135048,0.0124 0.213596,0 0.318327,-0.0785 0.106109,-0.0799 0.106109,-0.22875 0,-0.0799 -0.03583,-0.13918 -0.03445,-0.0593 -0.09646,-0.10749 -0.06201,-0.0496 -0.14745,-0.0937 -0.08406,-0.0455 -0.181901,-0.0951 -0.103353,-0.0524 -0.192925,-0.10611 -0.08957,-0.0538 -0.155719,-0.11851 -0.06615,-0.0648 -0.10473,-0.14608 -0.03721,-0.0827 -0.03721,-0.19292 0,-0.13505 0.05926,-0.23427 0.05926,-0.10059 0.155718,-0.16536 0.09646,-0.0648 0.219109,-0.0965 0.124023,-0.0317 0.25218,-0.0317 0.292145,0 0.425814,0.0703 v 0.26045 q -0.175011,-0.12127 -0.44924,-0.12127 -0.07579,0 -0.151584,0.0165 -0.07579,0.0152 -0.135048,0.051 -0.05926,0.0358 -0.09646,0.0923 -0.03721,0.0565 -0.03721,0.1378 0,0.0758 0.02756,0.13091 0.02894,0.0551 0.08406,0.1006 0.05512,0.0455 0.13367,0.0882 0.07993,0.0427 0.183279,0.0937 0.106109,0.0524 0.201194,0.11024 0.09508,0.0579 0.166742,0.12816 0.07166,0.0703 0.112999,0.15572 0.04272,0.0854 0.04272,0.19568 0,0.14607 -0.05788,0.24805 -0.0565,0.10059 -0.15434,0.16398 -0.09646,0.0634 -0.223242,0.0909 -0.12678,0.0289 -0.26734,0.0289 -0.04685,0 -0.115755,-0.008 -0.0689,-0.007 -0.14056,-0.0221 -0.07166,-0.0138 -0.136426,-0.0344 -0.06339,-0.0221 -0.101975,-0.0482 z"
         style="stroke-width:0.26458332"
         id="path909"
         inkscape:connector-curvature="0" />
      <path
         d="m 14.021122,210.34143 h -0.23151 v -0.90124 h -1.022504 v 0.90124 h -0.231511 v -1.97611 h 0.231511 v 0.86679 h 1.022504 v -0.86679 h 0.23151 z"
         style="stroke-width:0.26458332"
         id="path911"
         inkscape:connector-curvature="0" />
      <path
         d="m 15.338526,210.3745 q -0.420301,0 -0.67386,-0.27698 -0.252181,-0.27699 -0.252181,-0.72072 0,-0.4768 0.257693,-0.76067 0.257693,-0.28388 0.701421,-0.28388 0.409277,0 0.658702,0.27561 0.250803,0.27561 0.250803,0.72071 0,0.48369 -0.256315,0.76481 -0.256315,0.28112 -0.686263,0.28112 z m 0.01654,-1.83279 q -0.311437,0 -0.50574,0.22462 -0.194304,0.22462 -0.194304,0.5898 0,0.36518 0.188792,0.58843 0.190169,0.22186 0.494715,0.22186 0.325217,0 0.51263,-0.21222 0.187414,-0.21222 0.187414,-0.59393 0,-0.39137 -0.181901,-0.60496 -0.181901,-0.2136 -0.501606,-0.2136 z"
         style="stroke-width:0.26458332"
         id="path913"
         inkscape:connector-curvature="0" />
      <path
         d="m 17.694972,210.34143 h -1.025261 v -1.97611 h 0.231511 v 1.76665 h 0.79375 z"
         style="stroke-width:0.26458332"
         id="path915"
         inkscape:connector-curvature="0" />
      <path
         d="m 17.998141,210.34143 v -1.97611 h 0.545703 q 1.044553,0 1.044553,0.96325 0,0.45751 -0.290766,0.73587 -0.289388,0.27699 -0.775836,0.27699 z m 0.23151,-1.76664 v 1.55718 h 0.2949 q 0.388607,0 0.604959,-0.20808 0.216352,-0.20809 0.216352,-0.58981 0,-0.75929 -0.80753,-0.75929 z"
         style="stroke-width:0.26458332"
         id="path917"
         inkscape:connector-curvature="0" />
    </g>
    <g
       aria-label="INPUT"
       style="font-style:normal;font-variant:normal;font-weight:normal;font-stretch:normal;font-size:2.82222223px;line-height:1.25;font-family:'Yu Gothic UI';-inkscape-font-specification:'Yu Gothic UI';letter-spacing:0px;word-spacing:0px;fill:#000000;fill-opacity:1;stroke:none;stroke-width:0.26458332"
       id="text922">
      <path
         d="M 8.3619357,239.58537 H 8.1304253 v -1.9761 h 0.2315104 z"
         style="stroke-width:0.26458332"
         id="path924"
         inkscape:connector-curvature="0" />
      <path
         d="m 10.47309,239.58537 h -0.283876 l -1.0169918,-1.57509 q -0.038585,-0.0593 -0.06339,-0.12403 h -0.00827 q 0.011024,0.0634 0.011024,0.27148 v 1.42764 H 8.8800781 v -1.9761 h 0.3004123 l 0.9894316,1.55029 q 0.06201,0.0965 0.07993,0.13229 h 0.0055 q -0.01378,-0.0854 -0.01378,-0.29077 v -1.39181 h 0.23151 z"
         style="stroke-width:0.26458332"
         id="path926"
         inkscape:connector-curvature="0" />
      <path
         d="m 11.222743,238.83848 v 0.74689 h -0.23151 v -1.9761 h 0.542947 q 0.316949,0 0.490581,0.15434 0.175011,0.15434 0.175011,0.43546 0,0.28112 -0.194303,0.46026 -0.192926,0.17915 -0.522277,0.17915 z m 0,-1.01975 v 0.81028 h 0.242535 q 0.239778,0 0.36518,-0.10886 0.126779,-0.11024 0.126779,-0.31006 0,-0.39136 -0.46302,-0.39136 z"
         style="stroke-width:0.26458332"
         id="path928"
         inkscape:connector-curvature="0" />
      <path
         d="m 14.018783,238.78611 q 0,0.83234 -0.751031,0.83234 -0.719336,0 -0.719336,-0.80064 v -1.20854 h 0.23151 v 1.19338 q 0,0.60771 0.512631,0.60771 0.494715,0 0.494715,-0.58704 v -1.21405 h 0.231511 z"
         style="stroke-width:0.26458332"
         id="path930"
         inkscape:connector-curvature="0" />
      <path
         d="m 15.682075,237.81873 h -0.570508 v 1.76664 h -0.231511 v -1.76664 h -0.569129 v -0.20946 h 1.371148 z"
         style="stroke-width:0.26458332"
         id="path932"
         inkscape:connector-curvature="0" />
    </g>
    <g
       aria-label="OUTPUT"
       style="font-style:normal;font-variant:normal;font-weight:normal;font-stretch:normal;font-size:2.82222223px;line-height:1.25;font-family:'Yu Gothic UI';-inkscape-font-specification:'Yu Gothic UI';letter-spacing:0px;word-spacing:0px;fill:#000000;fill-opacity:1;stroke:none;stroke-width:0.26458332"
       id="text937">
      <path
         d="m 7.6494899,257.46368 q -0.4203017,0 -0.6738607,-0.27699 -0.252181,-0.27699 -0.252181,-0.72071 0,-0.4768 0.2576931,-0.76068 0.2576932,-0.28388 0.7014215,-0.28388 0.4092773,0 0.6587022,0.27561 0.250803,0.27561 0.250803,0.72071 0,0.4837 -0.2563151,0.76482 -0.2563151,0.28112 -0.686263,0.28112 z m 0.016536,-1.83279 q -0.3114366,0 -0.50574,0.22462 -0.1943034,0.22462 -0.1943034,0.5898 0,0.36518 0.1887912,0.58842 0.1901693,0.22186 0.4947158,0.22186 0.325217,0 0.5126302,-0.21222 0.1874132,-0.21221 0.1874132,-0.59393 0,-0.39136 -0.1819011,-0.60496 -0.181901,-0.21359 -0.5016059,-0.21359 z"
         style="stroke-width:0.26458332"
         id="path939"
         inkscape:connector-curvature="0" />
      <path
         d="m 10.426237,256.63134 q 0,0.83234 -0.7510309,0.83234 -0.719336,0 -0.719336,-0.80064 v -1.20854 h 0.2315104 v 1.19338 q 0,0.60771 0.5126303,0.60771 0.4947152,0 0.4947152,-0.58704 v -1.21405 h 0.231511 z"
         style="stroke-width:0.26458332"
         id="path941"
         inkscape:connector-curvature="0" />
      <path
         d="m 12.089529,255.66396 h -0.570508 v 1.76664 h -0.23151 v -1.76664 h -0.56913 v -0.20946 h 1.371148 z"
         style="stroke-width:0.26458332"
         id="path943"
         inkscape:connector-curvature="0" />
      <path
         d="m 12.62972,256.68371 v 0.74689 h -0.231511 v -1.9761 h 0.542947 q 0.316949,0 0.490582,0.15434 0.175011,0.15434 0.175011,0.43546 0,0.28112 -0.194303,0.46026 -0.192926,0.17915 -0.522277,0.17915 z m 0,-1.01975 v 0.81028 h 0.242535 q 0.239778,0 0.36518,-0.10886 0.126779,-0.11024 0.126779,-0.31006 0,-0.39136 -0.463021,-0.39136 z"
         style="stroke-width:0.26458332"
         id="path945"
         inkscape:connector-curvature="0" />
      <path
         d="m 15.425759,256.63134 q 0,0.83234 -0.75103,0.83234 -0.719336,0 -0.719336,-0.80064 v -1.20854 h 0.23151 v 1.19338 q 0,0.60771 0.51263,0.60771 0.494716,0 0.494716,-0.58704 v -1.21405 h 0.23151 z"
         style="stroke-width:0.26458332"
         id="path947"
         inkscape:connector-curvature="0" />
      <path
         d="m 17.089052,255.66396 h -0.570508 v 1.76664 h -0.231511 v -1.76664 h -0.569129 v -0.20946 h 1.371148 z"
         style="stroke-width:0.26458332"
         id="path949"
         inkscape:connector-curvature="0" />
    </g>
    <g
       aria-label="OVER"
       style="font-style:normal;font-variant:normal;font-weight:normal;font-stretch:normal;font-size:2.11666656px;line-height:1.25;font-family:'Yu Gothic UI';-inkscape-font-specification:'Yu Gothic UI';letter-spacing:0px;word-spacing:0px;fill:#000000;fill-opacity:1;stroke:none;stroke-width:0.26458332"
       id="text954">
      <path
         d="m 15.336671,262.35735 q -0.315227,0 -0.505396,-0.20773 -0.189136,-0.20774 -0.189136,-0.54054 0,-0.3576 0.19327,-0.57051 0.19327,-0.2129 0.526066,-0.2129 0.306958,0 0.494027,0.2067 0.188102,0.20671 0.188102,0.54054 0,0.36277 -0.192236,0.5736 -0.192236,0.21084 -0.514697,0.21084 z m 0.0124,-1.37459 q -0.233578,0 -0.379305,0.16847 -0.145728,0.16846 -0.145728,0.44235 0,0.27388 0.141594,0.44131 0.142627,0.1664 0.371037,0.1664 0.243912,0 0.384472,-0.15916 0.14056,-0.15916 0.14056,-0.44545 0,-0.29352 -0.136426,-0.45372 -0.136425,-0.1602 -0.376204,-0.1602 z"
         style="font-size:2.11666656px;stroke-width:0.26458332"
         id="path972"
         inkscape:connector-curvature="0" />
      <path
         d="m 17.403728,260.85047 -0.548804,1.48208 h -0.191203 l -0.537435,-1.48208 h 0.19327 l 0.410311,1.17512 q 0.01964,0.0568 0.02997,0.13126 h 0.0041 q 0.0083,-0.062 0.03411,-0.13333 l 0.418579,-1.17305 z"
         style="font-size:2.11666656px;stroke-width:0.26458332"
         id="path974"
         inkscape:connector-curvature="0" />
      <path
         d="m 18.402116,262.33255 h -0.785481 v -1.48208 h 0.752409 v 0.1571 h -0.578776 v 0.49299 h 0.535367 v 0.15606 h -0.535367 v 0.51883 h 0.611848 z"
         style="font-size:2.11666656px;stroke-width:0.26458332"
         id="path976"
         inkscape:connector-curvature="0" />
      <path
         d="m 19.749838,262.33255 h -0.206706 l -0.248047,-0.41548 q -0.03411,-0.0579 -0.06615,-0.0982 -0.03204,-0.0413 -0.06615,-0.0672 -0.03307,-0.0258 -0.07235,-0.0372 -0.03824,-0.0124 -0.08682,-0.0124 h -0.142627 v 0.63045 H 18.68737 v -1.48208 h 0.44235 q 0.09715,0 0.178801,0.0248 0.08268,0.0238 0.142627,0.0734 0.06098,0.0496 0.09508,0.12402 0.03411,0.0734 0.03411,0.1726 0,0.0775 -0.02377,0.14262 -0.02274,0.0641 -0.06615,0.11473 -0.04237,0.0506 -0.103353,0.0868 -0.05994,0.0351 -0.135392,0.0548 v 0.004 q 0.03721,0.0165 0.06408,0.0382 0.02791,0.0207 0.05271,0.0496 0.0248,0.0289 0.04857,0.0661 0.02481,0.0362 0.05478,0.0847 z m -0.888835,-1.32498 v 0.53743 h 0.235644 q 0.06511,0 0.11989,-0.0196 0.05581,-0.0196 0.09612,-0.0558 0.04031,-0.0372 0.06304,-0.0899 0.02274,-0.0537 0.02274,-0.11989 0,-0.11886 -0.07751,-0.185 -0.07648,-0.0672 -0.222208,-0.0672 z"
         style="font-size:2.11666656px;stroke-width:0.26458332"
         id="path978"
         inkscape:connector-curvature="0" />
    </g>
    <g
       aria-label="UNDER"
       style="font-style:normal;font-variant:normal;font-weight:normal;font-stretch:normal;font-size:2.11666656px;line-height:1.25;font-family:'Yu Gothic UI';-inkscape-font-specification:'Yu Gothic UI';letter-spacing:0px;word-spacing:0px;fill:#000000;fill-opacity:1;stroke:none;stroke-width:0.26458332"
       id="text958">
      <path
         d="m 14.958836,274.33387 q 0,0.62425 -0.563273,0.62425 -0.539502,0 -0.539502,-0.60048 v -0.9064 h 0.173632 v 0.89503 q 0,0.45579 0.384473,0.45579 0.371037,0 0.371037,-0.44028 v -0.91054 h 0.173633 z"
         style="font-size:2.11666656px;stroke-width:0.26458332"
         id="path961"
         inkscape:connector-curvature="0" />
      <path
         d="M 16.524632,274.93332 H 16.311725 L 15.548981,273.752 q -0.02894,-0.0444 -0.04754,-0.093 h -0.0062 q 0.0083,0.0475 0.0083,0.2036 v 1.07074 h -0.173633 v -1.48208 h 0.22531 l 0.742073,1.16272 q 0.04651,0.0723 0.05994,0.0992 h 0.0041 q -0.01033,-0.0641 -0.01033,-0.21808 v -1.04386 h 0.173633 z"
         style="font-size:2.11666656px;stroke-width:0.26458332"
         id="path963"
         inkscape:connector-curvature="0" />
      <path
         d="m 16.913238,274.93332 v -1.48208 h 0.409278 q 0.783414,0 0.783414,0.72244 0,0.34313 -0.218074,0.5519 -0.217041,0.20774 -0.581877,0.20774 z m 0.173633,-1.32498 v 1.16788 h 0.221175 q 0.291455,0 0.453719,-0.15606 0.162264,-0.15606 0.162264,-0.44235 0,-0.56947 -0.605647,-0.56947 z"
         style="font-size:2.11666656px;stroke-width:0.26458332"
         id="path965"
         inkscape:connector-curvature="0" />
      <path
         d="m 19.182867,274.93332 h -0.785482 v -1.48208 h 0.752409 v 0.1571 h -0.578776 v 0.49299 h 0.535368 v 0.15606 h -0.535368 v 0.51883 h 0.611849 z"
         style="font-size:2.11666656px;stroke-width:0.26458332"
         id="path967"
         inkscape:connector-curvature="0" />
      <path
         d="m 20.530588,274.93332 h -0.206705 l -0.248047,-0.41548 q -0.03411,-0.0579 -0.06615,-0.0982 -0.03204,-0.0414 -0.06615,-0.0672 -0.03307,-0.0258 -0.07235,-0.0372 -0.03824,-0.0124 -0.08682,-0.0124 h -0.142627 v 0.63045 h -0.173633 v -1.48208 h 0.44235 q 0.09715,0 0.178801,0.0248 0.08268,0.0238 0.142627,0.0734 0.06098,0.0496 0.09508,0.12403 0.03411,0.0734 0.03411,0.1726 0,0.0775 -0.02377,0.14262 -0.02274,0.0641 -0.06614,0.11473 -0.04237,0.0506 -0.103353,0.0868 -0.05994,0.0351 -0.135392,0.0548 v 0.004 q 0.03721,0.0165 0.06408,0.0382 0.02791,0.0207 0.05271,0.0496 0.02481,0.0289 0.04858,0.0661 0.02481,0.0362 0.05478,0.0847 z m -0.888834,-1.32498 v 0.53743 h 0.235644 q 0.06511,0 0.11989,-0.0196 0.05581,-0.0196 0.09612,-0.0558 0.04031,-0.0372 0.06304,-0.0899 0.02274,-0.0537 0.02274,-0.11989 0,-0.11886 -0.07752,-0.18501 -0.07648,-0.0672 -0.222209,-0.0672 z"
         style="font-size:2.11666656px;stroke-width:0.26458332"
         id="path969"
         inkscape:connector-curvature="0" />
    </g>
  </g>
</svg>
