<?xml version="1.0" encoding="UTF-8" standalone="no"?>
<!-- Created with Inkscape (http://www.inkscape.org/) -->

<svg
   xmlns:dc="http://purl.org/dc/elements/1.1/"
   xmlns:cc="http://creativecommons.org/ns#"
   xmlns:rdf="http://www.w3.org/1999/02/22-rdf-syntax-ns#"
   xmlns:svg="http://www.w3.org/2000/svg"
   xmlns="http://www.w3.org/2000/svg"
   xmlns:sodipodi="http://sodipodi.sourceforge.net/DTD/sodipodi-0.dtd"
   xmlns:inkscape="http://www.inkscape.org/namespaces/inkscape"
   width="120"
   height="380"
   viewBox="0 0 31.750002 100.54167"
   version="1.1"
   id="svg8"
   inkscape:version="0.92.4 (5da689c313, 2019-01-14)"
   sodipodi:docname="Mute.svg">
  <defs
     id="defs2" />
  <sodipodi:namedview
     id="base"
     pagecolor="#ffffff"
     bordercolor="#666666"
     borderopacity="1.0"
     inkscape:pageopacity="0.0"
     inkscape:pageshadow="2"
     inkscape:zoom="2.2789474"
     inkscape:cx="-89.630482"
     inkscape:cy="190"
     inkscape:document-units="mm"
     inkscape:current-layer="layer1"
     showgrid="true"
     units="px"
     inkscape:snap-bbox="true"
     inkscape:snap-page="true"
     inkscape:bbox-nodes="true"
     inkscape:snap-bbox-edge-midpoints="true"
     inkscape:window-width="1920"
     inkscape:window-height="1017"
     inkscape:window-x="-8"
     inkscape:window-y="-8"
     inkscape:window-maximized="1"
     showguides="false"
     inkscape:bbox-paths="true">
    <inkscape:grid
       type="xygrid"
       id="grid116" />
    <sodipodi:guide
       position="10.929566,96.522974"
       orientation="-10.31901,0"
       id="guide871"
       inkscape:locked="false" />
    <sodipodi:guide
       position="10.929566,99.253213"
       orientation="0,45.937497"
       id="guide873"
       inkscape:locked="false" />
    <sodipodi:guide
       position="23.083862,99.253213"
       orientation="10.31901,0"
       id="guide875"
       inkscape:locked="false" />
    <sodipodi:guide
       position="23.083862,96.522974"
       orientation="0,-45.937497"
       id="guide877"
       inkscape:locked="false" />
  </sodipodi:namedview>
  <metadata
     id="metadata5">
    <rdf:RDF>
      <cc:Work
         rdf:about="">
        <dc:format>image/svg+xml</dc:format>
        <dc:type
           rdf:resource="http://purl.org/dc/dcmitype/StillImage" />
        <dc:title />
      </cc:Work>
    </rdf:RDF>
  </metadata>
  <g
     inkscape:groupmode="layer"
     id="layer3"
     inkscape:label="Panel"
     sodipodi:insensitive="true">
    <path
       sodipodi:type="inkscape:offset"
       inkscape:radius="0"
       inkscape:original="M 0 196.45898 L 0 297 L 15.875 297 L 15.875 196.45898 L 0 196.45898 z "
       style="fill:#75a555;stroke-width:0.3310422"
       id="rect3855"
       d="M 0,196.45898 V 297 H 15.875 V 196.45898 Z"
       transform="matrix(2,0,0,1.0000064,0,-196.46023)" />
  </g>
  <g
     inkscape:label="Layer 1"
     inkscape:groupmode="layer"
     id="layer1"
     transform="translate(0,-196.45832)">
    <text
       xml:space="preserve"
       style="font-style:normal;font-weight:normal;font-size:2.82222223px;line-height:1.25;font-family:sans-serif;letter-spacing:0px;word-spacing:0px;fill:#000000;fill-opacity:1;stroke:none;stroke-width:0.26458332"
       x="17.197916"
       y="201.74998"
       id="text3821"><tspan
         sodipodi:role="line"
         id="tspan3819"
         x="17.197916"
         y="204.24699"
         style="stroke-width:0.26458332" /></text>
    <rect
       style="fill:#528d00;stroke-width:0.10330361"
       id="rect897-74"
       width="9.260416"
       height="11.377087"
       x="19.177559"
       y="-214.97916"
       transform="scale(1,-1)" />
    <rect
       style="fill:#528d00;stroke-width:0.10330361"
       id="rect897-74-8"
       width="9.260416"
       height="11.377087"
       x="19.17754"
       y="-229.53372"
       transform="scale(1,-1)" />
    <text
       xml:space="preserve"
       style="font-style:normal;font-weight:normal;font-size:2.82222223px;line-height:1.25;font-family:sans-serif;letter-spacing:0px;word-spacing:0px;fill:#000000;fill-opacity:1;stroke:none;stroke-width:0.26458332"
       x="4.4979167"
       y="220.79999"
       id="text1025"><tspan
         sodipodi:role="line"
         id="tspan1023"
         x="4.4979167"
         y="223.297"
         style="stroke-width:0.26458332" /></text>
    <g
       aria-label="/^M^\"
       style="font-style:normal;font-variant:normal;font-weight:normal;font-stretch:normal;font-size:2.82222223px;line-height:1.25;font-family:'Copperplate Gothic Light';-inkscape-font-specification:'Copperplate Gothic Light, ';letter-spacing:0px;word-spacing:0px;fill:#000000;fill-opacity:1;stroke:#000000;stroke-width:0.2;stroke-miterlimit:4;stroke-dasharray:none;stroke-opacity:1"
       id="text956"
       transform="translate(-9.481569,3.7456238)">
      <path
         d="m 21.203855,291.40545 v 0.0386 h -0.434082 v -0.0386 q 0.09509,-0.006 0.224621,-0.17088 l 1.094162,-1.4621 q 0.07441,-0.1006 0.07441,-0.12402 0,-0.0372 -0.06615,-0.0482 v -0.0372 h 0.423058 v 0.0372 q -0.09508,0.006 -0.22462,0.17087 l -1.08176,1.46348 q -0.07579,0.10197 -0.07579,0.12402 0,0.0358 0.06615,0.0469 z"
         style="font-style:normal;font-variant:normal;font-weight:normal;font-stretch:normal;font-size:2.82222223px;line-height:1.25;font-family:'Copperplate Gothic Light';-inkscape-font-specification:'Copperplate Gothic Light, ';stroke:#000000;stroke-width:0.2;stroke-miterlimit:4;stroke-dasharray:none;stroke-opacity:1"
         id="path958"
         inkscape:connector-curvature="0" />
      <path
         d="M 22.940183,290.3857 H 22.73899 l 0.493338,-0.8282 h 0.243912 l 0.493338,0.8282 h -0.20395 l -0.413411,-0.68075 z"
         style="font-style:normal;font-variant:normal;font-weight:normal;font-stretch:normal;font-size:2.82222223px;line-height:1.25;font-family:'Copperplate Gothic Light';-inkscape-font-specification:'Copperplate Gothic Light, ';stroke:#000000;stroke-width:0.2;stroke-miterlimit:4;stroke-dasharray:none;stroke-opacity:1"
         id="path960"
         inkscape:connector-curvature="0" />
      <path
         d="m 25.342104,291.44403 -0.789616,-1.58061 v 1.418 q 0,0.0565 0.01791,0.0813 0.01791,0.0234 0.07028,0.0372 v 0.0441 h -0.373449 v -0.0441 q 0.05237,-0.0138 0.07028,-0.0372 0.01792,-0.0234 0.01792,-0.0813 v -1.5558 q 0,-0.0579 -0.01792,-0.0813 -0.01791,-0.0248 -0.07028,-0.0372 v -0.0441 h 0.487826 v 0.0441 q -0.06752,0.0234 -0.06752,0.0579 0,0.0165 0.04547,0.10611 l 0.62563,1.24161 0.628385,-1.25263 q 0.03307,-0.0661 0.03307,-0.0937 0,-0.0358 -0.06752,-0.0593 v -0.0441 h 0.49196 v 0.0441 q -0.05237,0.0138 -0.07028,0.0372 -0.01792,0.0234 -0.01792,0.0813 v 1.5558 q 0,0.0565 0.01792,0.0813 0.01791,0.0234 0.07028,0.0372 v 0.0441 h -0.392741 v -0.0441 q 0.05374,-0.0138 0.07028,-0.0372 0.01791,-0.0234 0.01791,-0.0813 v -1.418 z"
         style="font-style:normal;font-variant:normal;font-weight:normal;font-stretch:normal;font-size:2.82222223px;line-height:1.25;font-family:'Copperplate Gothic Light';-inkscape-font-specification:'Copperplate Gothic Light, ';stroke:#000000;stroke-width:0.2;stroke-miterlimit:4;stroke-dasharray:none;stroke-opacity:1"
         id="path962"
         inkscape:connector-curvature="0" />
      <path
         d="m 26.942006,290.3857 h -0.201193 l 0.493338,-0.8282 h 0.243912 l 0.493338,0.8282 h -0.20395 l -0.413411,-0.68075 z"
         style="font-style:normal;font-variant:normal;font-weight:normal;font-stretch:normal;font-size:2.82222223px;line-height:1.25;font-family:'Copperplate Gothic Light';-inkscape-font-specification:'Copperplate Gothic Light, ';stroke:#000000;stroke-width:0.2;stroke-miterlimit:4;stroke-dasharray:none;stroke-opacity:1"
         id="path964"
         inkscape:connector-curvature="0" />
      <path
         d="m 28.617701,289.56301 v 0.0372 q -0.06615,0.011 -0.06615,0.0482 0,0.0234 0.07441,0.12402 l 1.092784,1.4621 q 0.129536,0.16536 0.22462,0.17088 v 0.0386 h -0.434082 v -0.0386 q 0.06615,-0.011 0.06615,-0.0469 0,-0.0207 -0.07579,-0.12402 l -1.080382,-1.46348 q -0.129535,-0.16536 -0.22462,-0.17087 v -0.0372 z"
         style="font-style:normal;font-variant:normal;font-weight:normal;font-stretch:normal;font-size:2.82222223px;line-height:1.25;font-family:'Copperplate Gothic Light';-inkscape-font-specification:'Copperplate Gothic Light, ';stroke:#000000;stroke-width:0.2;stroke-miterlimit:4;stroke-dasharray:none;stroke-opacity:1"
         id="path966"
         inkscape:connector-curvature="0" />
    </g>
    <g
       aria-label="MUTE"
       style="font-style:normal;font-variant:normal;font-weight:600;font-stretch:normal;font-size:3.52777767px;line-height:1.25;font-family:'Yu Gothic UI';-inkscape-font-specification:'Yu Gothic UI Semi-Bold';letter-spacing:0px;word-spacing:0px;fill:#000000;fill-opacity:1;stroke:none;stroke-width:0.26458332"
       id="text914"
       transform="translate(-3.5200165,0.88263334)">
      <path
         d="m 17.509697,199.10416 h -0.406521 v -1.59853 q 0,-0.19637 0.02412,-0.48059 h -0.0069 q -0.0379,0.16192 -0.06718,0.23255 l -0.73725,1.84657 h -0.282498 l -0.738973,-1.83279 q -0.03101,-0.081 -0.06546,-0.24633 h -0.0069 q 0.01378,0.14814 0.01378,0.48404 v 1.59508 h -0.37896 v -2.47014 h 0.577053 l 0.649401,1.64504 q 0.07407,0.18948 0.09646,0.28249 h 0.0086 q 0.06373,-0.19464 0.103353,-0.28938 l 0.661458,-1.63815 h 0.556383 z"
         style="font-style:normal;font-variant:normal;font-weight:600;font-stretch:normal;font-size:3.52777767px;font-family:'Yu Gothic UI';-inkscape-font-specification:'Yu Gothic UI Semi-Bold';stroke-width:0.26458332"
         id="path917"
         inkscape:connector-curvature="0" />
      <path
         d="m 20.016004,198.10508 q 0,1.04042 -0.985297,1.04042 -0.943956,0 -0.943956,-1.0008 v -1.51068 h 0.409966 v 1.42627 q 0,0.72692 0.564996,0.72692 0.544325,0 0.544325,-0.70108 v -1.45211 h 0.409966 z"
         style="font-style:normal;font-variant:normal;font-weight:600;font-stretch:normal;font-size:3.52777767px;font-family:'Yu Gothic UI';-inkscape-font-specification:'Yu Gothic UI Semi-Bold';stroke-width:0.26458332"
         id="path919"
         inkscape:connector-curvature="0" />
      <path
         d="m 22.181246,196.98198 h -0.709689 v 2.12218 H 21.06159 v -2.12218 h -0.707967 v -0.34796 h 1.827623 z"
         style="font-style:normal;font-variant:normal;font-weight:600;font-stretch:normal;font-size:3.52777767px;font-family:'Yu Gothic UI';-inkscape-font-specification:'Yu Gothic UI Semi-Bold';stroke-width:0.26458332"
         id="path921"
         inkscape:connector-curvature="0" />
      <path
         d="m 23.933078,199.10416 h -1.386651 v -2.47014 h 1.331529 v 0.34796 h -0.921563 v 0.69935 h 0.849216 v 0.34623 h -0.849216 v 0.73036 h 0.976685 z"
         style="font-style:normal;font-variant:normal;font-weight:600;font-stretch:normal;font-size:3.52777767px;font-family:'Yu Gothic UI';-inkscape-font-specification:'Yu Gothic UI Semi-Bold';stroke-width:0.26458332"
         id="path923"
         inkscape:connector-curvature="0" />
    </g>
    <g
       aria-label="IN 1"
       style="font-style:normal;font-variant:normal;font-weight:normal;font-stretch:normal;font-size:2.82222223px;line-height:1.25;font-family:'Yu Gothic UI';-inkscape-font-specification:'Yu Gothic UI';letter-spacing:0px;word-spacing:0px;fill:#000000;fill-opacity:1;stroke:none;stroke-width:0.26458332"
       id="text928"
       transform="translate(-1.1251506,1.9830319)">
      <path
         d="M 7.1051646,204.39581 H 6.8736542 v -1.9761 h 0.2315104 z"
         style="stroke-width:0.26458332"
         id="path942"
         inkscape:connector-curvature="0" />
      <path
         d="M 9.2163192,204.39581 H 8.9324433 l -1.0169922,-1.57509 q -0.038585,-0.0593 -0.06339,-0.12403 h -0.00827 q 0.011024,0.0634 0.011024,0.27148 v 1.42764 H 7.623307 v -1.9761 H 7.9237193 L 8.9131508,203.97 q 0.062012,0.0965 0.079926,0.13229 h 0.00551 q -0.01378,-0.0854 -0.01378,-0.29077 v -1.39181 h 0.2315105 z"
         style="stroke-width:0.26458332"
         id="path944"
         inkscape:connector-curvature="0" />
      <path
         d="m 11.244791,204.39581 h -0.225998 v -1.70739 q -0.02618,0.0262 -0.07717,0.0606 -0.04961,0.0331 -0.112999,0.0661 -0.06201,0.0331 -0.132292,0.062 -0.0689,0.0289 -0.135048,0.0455 v -0.22875 q 0.07442,-0.0207 0.157097,-0.0551 0.08406,-0.0358 0.163986,-0.0785 0.08131,-0.0441 0.152963,-0.0909 0.07166,-0.0482 0.124023,-0.0937 h 0.08544 z"
         style="stroke-width:0.26458332"
         id="path946"
         inkscape:connector-curvature="0" />
    </g>
    <g
       aria-label="OUT 1"
       style="font-style:normal;font-variant:normal;font-weight:normal;font-stretch:normal;font-size:2.82222223px;line-height:1.25;font-family:'Yu Gothic UI';-inkscape-font-specification:'Yu Gothic UI';letter-spacing:0px;word-spacing:0px;fill:#000000;fill-opacity:1;stroke:none;stroke-width:0.26458332"
       id="text932"
       transform="translate(-3.7375754,1.9382904)">
      <path
         d="m 24.868077,204.42889 q -0.420301,0 -0.67386,-0.27699 -0.252181,-0.27699 -0.252181,-0.72071 0,-0.4768 0.257693,-0.76068 0.257693,-0.28388 0.701421,-0.28388 0.409278,0 0.658702,0.27561 0.250803,0.27561 0.250803,0.72071 0,0.4837 -0.256315,0.76482 -0.256315,0.28112 -0.686263,0.28112 z m 0.01654,-1.83279 q -0.311437,0 -0.50574,0.22462 -0.194304,0.22462 -0.194304,0.5898 0,0.36518 0.188792,0.58842 0.190169,0.22186 0.494715,0.22186 0.325217,0 0.51263,-0.21222 0.187414,-0.21221 0.187414,-0.59393 0,-0.39136 -0.181901,-0.60496 -0.181901,-0.21359 -0.501606,-0.21359 z"
         style="stroke-width:0.26458332"
         id="path949"
         inkscape:connector-curvature="0" />
      <path
         d="m 27.644824,203.59655 q 0,0.83234 -0.751031,0.83234 -0.719335,0 -0.719335,-0.80064 v -1.20854 h 0.23151 v 1.19338 q 0,0.60771 0.51263,0.60771 0.494716,0 0.494716,-0.58704 v -1.21405 h 0.23151 z"
         style="stroke-width:0.26458332"
         id="path951"
         inkscape:connector-curvature="0" />
      <path
         d="m 29.308116,202.62917 h -0.570507 v 1.76664 h -0.231511 v -1.76664 h -0.56913 v -0.20946 h 1.371148 z"
         style="stroke-width:0.26458332"
         id="path953"
         inkscape:connector-curvature="0" />
      <path
         d="m 31.127127,204.39581 h -0.225999 v -1.70739 q -0.02618,0.0262 -0.07717,0.0606 -0.04961,0.0331 -0.112999,0.0661 -0.06201,0.0331 -0.132292,0.062 -0.0689,0.0289 -0.135047,0.0455 v -0.22875 q 0.07441,-0.0207 0.157096,-0.0551 0.08406,-0.0358 0.163987,-0.0785 0.0813,-0.0441 0.152962,-0.0909 0.07166,-0.0482 0.124023,-0.0937 h 0.08544 z"
         style="stroke-width:0.26458332"
         id="path955"
         inkscape:connector-curvature="0" />
    </g>
    <g
       aria-label="IN 2"
       style="font-style:normal;font-variant:normal;font-weight:normal;font-stretch:normal;font-size:2.82222223px;line-height:1.25;font-family:'Yu Gothic UI';-inkscape-font-specification:'Yu Gothic UI';letter-spacing:0px;word-spacing:0px;fill:#000000;fill-opacity:1;stroke:none;stroke-width:0.26458332"
       id="text936"
       transform="translate(1.3369355,3.3086345)">
      <path
         d="M 4.4593316,217.62498 H 4.2278212 v -1.9761 h 0.2315104 z"
         style="stroke-width:0.26458332"
         id="path959"
         inkscape:connector-curvature="0" />
      <path
         d="M 6.5704861,217.62498 H 6.2866103 l -1.0169922,-1.57509 q -0.038585,-0.0593 -0.06339,-0.12403 h -0.00827 q 0.011024,0.0634 0.011024,0.27148 v 1.42764 H 4.977474 v -1.9761 h 0.3004123 l 0.9894314,1.55029 q 0.062012,0.0965 0.079926,0.13229 h 0.00551 q -0.01378,-0.0854 -0.01378,-0.29076 v -1.39182 h 0.2315104 z"
         style="stroke-width:0.26458332"
         id="path961"
         inkscape:connector-curvature="0" />
      <path
         d="m 8.6651042,216.16702 q 0,-0.091 -0.028939,-0.15847 -0.027561,-0.0675 -0.07717,-0.11163 -0.048231,-0.0455 -0.1143772,-0.0675 -0.066146,-0.022 -0.1433159,-0.022 -0.066146,0 -0.1295356,0.0179 -0.06339,0.0179 -0.1240235,0.0496 -0.059256,0.0317 -0.1157552,0.0758 -0.055122,0.0441 -0.1033528,0.0978 v -0.24254 q 0.095085,-0.0923 0.2122178,-0.14056 0.1185113,-0.0496 0.28801,-0.0496 0.1212674,0 0.2246203,0.0358 0.1033528,0.0344 0.1791449,0.10198 0.075792,0.0675 0.1185113,0.16674 0.044097,0.0992 0.044097,0.22738 0,0.11713 -0.027561,0.21222 -0.026183,0.0951 -0.081304,0.17914 -0.053744,0.0841 -0.1364258,0.16123 -0.082682,0.0772 -0.1943034,0.1571 -0.1391818,0.0992 -0.2301323,0.1695 -0.089572,0.0703 -0.143316,0.13229 -0.052366,0.0606 -0.074414,0.12264 -0.020671,0.0606 -0.020671,0.14056 H 8.971028 v 0.20257 H 7.7514649 v -0.0978 q 0,-0.12678 0.027561,-0.22324 0.027561,-0.0965 0.09095,-0.18328 0.06339,-0.0868 0.1653646,-0.17363 0.1033529,-0.0868 0.252181,-0.19568 0.107487,-0.0772 0.1791449,-0.14745 0.073036,-0.0703 0.1171333,-0.14056 0.044097,-0.0703 0.062012,-0.14194 0.019293,-0.073 0.019293,-0.15434 z"
         style="stroke-width:0.26458332"
         id="path968"
         inkscape:connector-curvature="0" />
    </g>
    <g
       aria-label="OUT 2"
       style="font-style:normal;font-variant:normal;font-weight:normal;font-stretch:normal;font-size:2.82222223px;line-height:1.25;font-family:'Yu Gothic UI';-inkscape-font-specification:'Yu Gothic UI';letter-spacing:0px;word-spacing:0px;fill:#000000;fill-opacity:1;stroke:none;stroke-width:0.26458332"
       id="text940"
       transform="translate(-3.9213227,1.9549962)">
      <path
         d="m 24.868077,218.98098 q -0.420301,0 -0.67386,-0.27699 -0.252181,-0.27698 -0.252181,-0.72071 0,-0.4768 0.257693,-0.76068 0.257693,-0.28387 0.701421,-0.28387 0.409278,0 0.658702,0.2756 0.250803,0.27561 0.250803,0.72072 0,0.48369 -0.256315,0.76481 -0.256315,0.28112 -0.686263,0.28112 z m 0.01654,-1.83279 q -0.311437,0 -0.50574,0.22462 -0.194304,0.22462 -0.194304,0.5898 0,0.36518 0.188792,0.58842 0.190169,0.22187 0.494715,0.22187 0.325217,0 0.51263,-0.21222 0.187414,-0.21222 0.187414,-0.59394 0,-0.39136 -0.181901,-0.60496 -0.181901,-0.21359 -0.501606,-0.21359 z"
         style="stroke-width:0.26458332"
         id="path972"
         inkscape:connector-curvature="0" />
      <path
         d="m 27.644824,218.14864 q 0,0.83234 -0.751031,0.83234 -0.719335,0 -0.719335,-0.80064 v -1.20854 h 0.23151 v 1.19338 q 0,0.60772 0.51263,0.60772 0.494716,0 0.494716,-0.58705 v -1.21405 h 0.23151 z"
         style="stroke-width:0.26458332"
         id="path974"
         inkscape:connector-curvature="0" />
      <path
         d="m 29.308116,217.18126 h -0.570507 v 1.76665 h -0.231511 v -1.76665 h -0.56913 v -0.20946 h 1.371148 z"
         style="stroke-width:0.26458332"
         id="path976"
         inkscape:connector-curvature="0" />
      <path
         d="m 31.193272,217.48994 q 0,-0.0909 -0.02894,-0.15847 -0.02756,-0.0675 -0.07717,-0.11162 -0.04823,-0.0455 -0.114378,-0.0675 -0.06614,-0.0221 -0.143316,-0.0221 -0.06615,0 -0.129535,0.0179 -0.06339,0.0179 -0.124024,0.0496 -0.05926,0.0317 -0.115755,0.0758 -0.05512,0.0441 -0.103353,0.0978 v -0.24253 q 0.09509,-0.0923 0.212218,-0.14056 0.118511,-0.0496 0.28801,-0.0496 0.121267,0 0.22462,0.0358 0.103353,0.0344 0.179145,0.10197 0.07579,0.0675 0.118512,0.16674 0.0441,0.0992 0.0441,0.22738 0,0.11713 -0.02756,0.21222 -0.02618,0.0951 -0.0813,0.17914 -0.05374,0.0841 -0.136426,0.16123 -0.08268,0.0772 -0.194303,0.1571 -0.139182,0.0992 -0.230133,0.1695 -0.08957,0.0703 -0.143316,0.13229 -0.05236,0.0606 -0.07441,0.12264 -0.02067,0.0606 -0.02067,0.14056 h 0.983919 v 0.20258 h -1.219564 v -0.0978 q 0,-0.12678 0.02756,-0.22325 0.02756,-0.0965 0.09095,-0.18328 0.06339,-0.0868 0.165365,-0.17363 0.103353,-0.0868 0.252181,-0.19568 0.107487,-0.0772 0.179145,-0.14745 0.07304,-0.0703 0.117133,-0.14056 0.0441,-0.0703 0.06201,-0.14194 0.01929,-0.073 0.01929,-0.15434 z"
         style="stroke-width:0.26458332"
         id="path978"
         inkscape:connector-curvature="0" />
    </g>
    <g
       aria-label="MUTE IN"
       style="font-style:normal;font-variant:normal;font-weight:normal;font-stretch:normal;font-size:2.82222223px;line-height:1.25;font-family:'Yu Gothic UI';-inkscape-font-specification:'Yu Gothic UI';letter-spacing:0px;word-spacing:0px;fill:#000000;fill-opacity:1;stroke:none;stroke-width:0.26458332"
       id="text983"
       transform="translate(-4.1978982,-0.69453124)">
      <path
         d="M 8.888346,236.14581 H 8.6582137 v -1.32567 q 0,-0.1571 0.019293,-0.38447 h -0.00551 q -0.033073,0.13367 -0.059256,0.19154 l -0.6752387,1.5186 H 7.8245006 l -0.6738607,-1.50757 q -0.028939,-0.0661 -0.059256,-0.20257 h -0.00551 q 0.011024,0.11851 0.011024,0.38723 v 1.32291 H 6.8736542 v -1.9761 h 0.3059245 l 0.6063368,1.37803 q 0.07028,0.15848 0.09095,0.23703 h 0.00827 q 0.059256,-0.16261 0.095085,-0.24254 l 0.6187391,-1.37252 h 0.289388 z"
         style="stroke-width:0.26458332"
         id="path985"
         inkscape:connector-curvature="0" />
      <path
         d="m 10.854806,235.34655 q 0,0.83234 -0.75103,0.83234 -0.7193363,0 -0.7193363,-0.80064 v -1.20854 h 0.2315104 v 1.19338 q 0,0.60771 0.5126299,0.60771 0.494716,0 0.494716,-0.58704 v -1.21405 h 0.23151 z"
         style="stroke-width:0.26458332"
         id="path987"
         inkscape:connector-curvature="0" />
      <path
         d="m 12.518099,234.37917 h -0.570508 v 1.76664 h -0.23151 v -1.76664 h -0.56913 v -0.20946 h 1.371148 z"
         style="stroke-width:0.26458332"
         id="path989"
         inkscape:connector-curvature="0" />
      <path
         d="m 13.874088,236.14581 h -1.047309 v -1.9761 h 1.003212 v 0.20946 H 13.05829 v 0.65732 h 0.713823 v 0.20809 H 13.05829 v 0.69177 h 0.815798 z"
         style="stroke-width:0.26458332"
         id="path991"
         inkscape:connector-curvature="0" />
      <path
         d="m 15.257638,236.14581 h -0.23151 v -1.9761 h 0.23151 z"
         style="stroke-width:0.26458332"
         id="path993"
         inkscape:connector-curvature="0" />
      <path
         d="m 17.368793,236.14581 h -0.283876 l -1.016992,-1.57509 q -0.03858,-0.0593 -0.06339,-0.12403 h -0.0083 q 0.01102,0.0634 0.01102,0.27148 v 1.42764 h -0.23151 v -1.9761 h 0.300412 l 0.989431,1.55029 q 0.06201,0.0965 0.07993,0.13229 h 0.0055 q -0.01378,-0.0854 -0.01378,-0.29077 v -1.39181 h 0.231511 z"
         style="stroke-width:0.26458332"
         id="path995"
         inkscape:connector-curvature="0" />
    </g>
    <g
       aria-label="MUTED"
       style="font-style:normal;font-variant:normal;font-weight:normal;font-stretch:normal;font-size:2.82222223px;line-height:1.25;font-family:'Yu Gothic UI';-inkscape-font-specification:'Yu Gothic UI';letter-spacing:0px;word-spacing:0px;fill:#000000;fill-opacity:1;stroke:none;stroke-width:0.26458332"
       id="text1045"
       transform="translate(-3.4088719,1.9496232)">
      <path
         d="m 16.825846,248.05206 h -0.230132 v -1.32567 q 0,-0.1571 0.01929,-0.38447 h -0.0055 q -0.03307,0.13367 -0.05926,0.19154 l -0.675238,1.5186 h -0.112999 l -0.673861,-1.50757 q -0.02894,-0.0661 -0.05926,-0.20257 h -0.0055 q 0.01102,0.11851 0.01102,0.38723 v 1.32291 h -0.223242 v -1.9761 h 0.305925 l 0.606336,1.37803 q 0.07028,0.15848 0.09095,0.23703 h 0.0083 q 0.05926,-0.16261 0.09508,-0.24254 l 0.618739,-1.37252 h 0.289388 z"
         style="stroke-width:0.26458332"
         id="path1047"
         inkscape:connector-curvature="0" />
      <path
         d="m 18.792306,247.2528 q 0,0.83234 -0.75103,0.83234 -0.719336,0 -0.719336,-0.80064 v -1.20854 h 0.23151 v 1.19338 q 0,0.60771 0.51263,0.60771 0.494716,0 0.494716,-0.58704 v -1.21405 h 0.23151 z"
         style="stroke-width:0.26458332"
         id="path1049"
         inkscape:connector-curvature="0" />
      <path
         d="m 20.455599,246.28542 h -0.570508 v 1.76664 h -0.23151 v -1.76664 h -0.56913 v -0.20946 h 1.371148 z"
         style="stroke-width:0.26458332"
         id="path1051"
         inkscape:connector-curvature="0" />
      <path
         d="m 21.811588,248.05206 h -1.047309 v -1.9761 h 1.003212 v 0.20946 H 20.99579 v 0.65732 h 0.713823 v 0.20809 H 20.99579 v 0.69177 h 0.815798 z"
         style="stroke-width:0.26458332"
         id="path1053"
         inkscape:connector-curvature="0" />
      <path
         d="m 22.191927,248.05206 v -1.9761 h 0.545703 q 1.044553,0 1.044553,0.96324 0,0.45751 -0.290766,0.73588 -0.289388,0.27698 -0.775836,0.27698 z m 0.23151,-1.76664 v 1.55718 h 0.2949 q 0.388607,0 0.604959,-0.20808 0.216352,-0.20809 0.216352,-0.5898 0,-0.7593 -0.80753,-0.7593 z"
         style="stroke-width:0.26458332"
         id="path1055"
         inkscape:connector-curvature="0" />
    </g>
    <g
       aria-label="SOFT"
       style="font-style:normal;font-variant:normal;font-weight:normal;font-stretch:normal;font-size:2.11666656px;line-height:1.25;font-family:'Yu Gothic UI';-inkscape-font-specification:'Yu Gothic UI';letter-spacing:0px;word-spacing:0px;fill:#000000;fill-opacity:1;stroke:none;stroke-width:0.26458332"
       id="text922"
       transform="translate(-6.4502261,0.62939277)">
      <path
         d="m 27.906307,234.76296 v -0.20464 q 0.03514,0.031 0.08372,0.0558 0.04961,0.0248 0.103353,0.0424 0.05478,0.0165 0.109554,0.0258 0.05478,0.009 0.101285,0.009 0.160197,0 0.238746,-0.0589 0.07958,-0.06 0.07958,-0.17157 0,-0.0599 -0.02687,-0.10438 -0.02584,-0.0444 -0.07235,-0.0806 -0.04651,-0.0372 -0.110588,-0.0703 -0.06304,-0.0341 -0.136426,-0.0713 -0.07751,-0.0393 -0.144694,-0.0796 -0.06718,-0.0403 -0.116789,-0.0889 -0.04961,-0.0486 -0.07855,-0.10955 -0.02791,-0.062 -0.02791,-0.1447 0,-0.10128 0.04444,-0.1757 0.04444,-0.0754 0.116788,-0.12402 0.07235,-0.0486 0.164332,-0.0724 0.09302,-0.0238 0.189135,-0.0238 0.219108,0 0.319361,0.0527 v 0.19534 q -0.131259,-0.0909 -0.336931,-0.0909 -0.05684,0 -0.113688,0.0124 -0.05684,0.0114 -0.101286,0.0382 -0.04444,0.0269 -0.07235,0.0692 -0.02791,0.0424 -0.02791,0.10335 0,0.0568 0.02067,0.0982 0.0217,0.0413 0.06305,0.0754 0.04134,0.0341 0.100252,0.0661 0.05995,0.032 0.137459,0.0703 0.07958,0.0393 0.150896,0.0827 0.07131,0.0434 0.125057,0.0961 0.05374,0.0527 0.08475,0.11679 0.03204,0.0641 0.03204,0.14676 0,0.10955 -0.04341,0.18603 -0.04237,0.0754 -0.115755,0.12299 -0.07235,0.0476 -0.167432,0.0682 -0.09508,0.0217 -0.200504,0.0217 -0.03514,0 -0.08682,-0.006 -0.05168,-0.005 -0.10542,-0.0165 -0.05374,-0.0103 -0.102319,-0.0258 -0.04754,-0.0165 -0.07648,-0.0362 z"
         style="font-size:2.11666656px;stroke-width:0.26458332"
         id="path937"
         inkscape:connector-curvature="0" />
      <path
         d="m 29.697412,234.84771 q -0.315226,0 -0.505396,-0.20774 -0.189135,-0.20774 -0.189135,-0.54053 0,-0.3576 0.19327,-0.57051 0.193269,-0.21291 0.526066,-0.21291 0.306958,0 0.494026,0.20671 0.188103,0.2067 0.188103,0.54053 0,0.36277 -0.192237,0.57361 -0.192236,0.21084 -0.514697,0.21084 z m 0.0124,-1.37459 q -0.233577,0 -0.379305,0.16846 -0.145727,0.16847 -0.145727,0.44235 0,0.27389 0.141593,0.44132 0.142627,0.1664 0.371037,0.1664 0.243913,0 0.384473,-0.15917 0.140559,-0.15916 0.140559,-0.44545 0,-0.29352 -0.136425,-0.45371 -0.136426,-0.1602 -0.376205,-0.1602 z"
         style="font-size:2.11666656px;stroke-width:0.26458332"
         id="path939"
         inkscape:connector-curvature="0" />
      <path
         d="m 31.448209,233.49792 h -0.578776 v 0.51263 h 0.535368 v 0.15607 h -0.535368 v 0.65629 h -0.173632 v -1.48208 h 0.752408 z"
         style="font-size:2.11666656px;stroke-width:0.26458332"
         id="path941"
         inkscape:connector-curvature="0" />
      <path
         d="M 32.605761,233.49792 H 32.17788 v 1.32499 h -0.173632 v -1.32499 H 31.5774 v -0.15709 h 1.028361 z"
         style="font-size:2.11666656px;stroke-width:0.26458332"
         id="path943"
         inkscape:connector-curvature="0" />
    </g>
    <g
       aria-label="HARD"
       style="font-style:normal;font-variant:normal;font-weight:normal;font-stretch:normal;font-size:2.11666656px;line-height:1.25;font-family:'Yu Gothic UI';-inkscape-font-specification:'Yu Gothic UI';letter-spacing:0px;word-spacing:0px;fill:#000000;fill-opacity:1;stroke:none;stroke-width:0.26458332"
       id="text926"
       transform="translate(-8.1546563,3.7208711)">
      <path
         d="M 30.412613,241.43748 H 30.23898 v -0.67592 h -0.766878 v 0.67592 h -0.173633 v -1.48208 h 0.173633 v 0.65009 h 0.766878 v -0.65009 h 0.173633 z"
         style="font-size:2.11666656px;stroke-width:0.26458332"
         id="path928"
         inkscape:connector-curvature="0" />
      <path
         d="m 31.950504,241.43748 h -0.192237 l -0.157096,-0.41547 h -0.628385 l -0.147795,0.41547 h -0.19327 l 0.568441,-1.48208 h 0.179834 z m -0.406177,-0.57154 -0.232544,-0.63148 q -0.01137,-0.031 -0.02274,-0.0992 h -0.0041 q -0.01034,0.063 -0.02377,0.0992 l -0.230477,0.63148 z"
         style="font-size:2.11666656px;stroke-width:0.26458332"
         id="path930"
         inkscape:connector-curvature="0" />
      <path
         d="m 33.230012,241.43748 h -0.206706 l -0.248046,-0.41547 q -0.03411,-0.0579 -0.06615,-0.0982 -0.03204,-0.0413 -0.06615,-0.0672 -0.03307,-0.0258 -0.07235,-0.0372 -0.03824,-0.0124 -0.08682,-0.0124 h -0.142626 v 0.63045 h -0.173633 v -1.48208 h 0.44235 q 0.09715,0 0.1788,0.0248 0.08268,0.0238 0.142627,0.0734 0.06098,0.0496 0.09508,0.12402 0.03411,0.0734 0.03411,0.1726 0,0.0775 -0.02377,0.14263 -0.02274,0.0641 -0.06615,0.11472 -0.04237,0.0506 -0.103352,0.0868 -0.05994,0.0351 -0.135393,0.0548 v 0.004 q 0.03721,0.0165 0.06408,0.0382 0.02791,0.0207 0.05271,0.0496 0.0248,0.0289 0.04858,0.0661 0.02481,0.0362 0.05478,0.0848 z m -0.888834,-1.32498 v 0.53744 h 0.235644 q 0.06511,0 0.119889,-0.0196 0.05581,-0.0196 0.09612,-0.0558 0.04031,-0.0372 0.06304,-0.0899 0.02274,-0.0537 0.02274,-0.11989 0,-0.11885 -0.07751,-0.185 -0.07648,-0.0672 -0.222209,-0.0672 z"
         style="font-size:2.11666656px;stroke-width:0.26458332"
         id="path932"
         inkscape:connector-curvature="0" />
      <path
         d="m 33.432584,241.43748 v -1.48208 h 0.409277 q 0.783415,0 0.783415,0.72244 0,0.34313 -0.218075,0.55191 -0.217041,0.20773 -0.581876,0.20773 z m 0.173632,-1.32498 v 1.16789 h 0.221176 q 0.291455,0 0.453719,-0.15606 0.162264,-0.15607 0.162264,-0.44235 0,-0.56948 -0.605648,-0.56948 z"
         style="font-size:2.11666656px;stroke-width:0.26458332"
         id="path934"
         inkscape:connector-curvature="0" />
    </g>
  </g>
  <g
     inkscape:groupmode="layer"
     id="layer2"
     inkscape:label="Grid6"
     sodipodi:insensitive="true"
     style="display:none">
    <g
       style="display:inline"
       id="g1158">
      <path
         sodipodi:nodetypes="cc"
         inkscape:connector-curvature="0"
         id="path879-7-3"
         d="M 15.9,0 15.875,100.54167"
         style="fill:none;stroke:#000000;stroke-width:0.05;stroke-linecap:butt;stroke-linejoin:miter;stroke-miterlimit:4;stroke-dasharray:none;stroke-opacity:1" />
      <path
         style="fill:none;stroke:#000000;stroke-width:0.05;stroke-linecap:butt;stroke-linejoin:miter;stroke-miterlimit:4;stroke-dasharray:none;stroke-opacity:1"
         d="m 7.9375,-1e-5 -3e-6,100.54167"
         id="path881-8-8"
         inkscape:connector-curvature="0"
         sodipodi:nodetypes="cc" />
      <path
         style="fill:none;stroke:#000000;stroke-width:0.05;stroke-linecap:butt;stroke-linejoin:miter;stroke-miterlimit:4;stroke-dasharray:none;stroke-opacity:1"
         d="m 23.8125,-1e-5 5e-6,100.54167"
         id="path883-2-9"
         inkscape:connector-curvature="0"
         sodipodi:nodetypes="cc" />
      <path
         sodipodi:nodetypes="cc"
         inkscape:connector-curvature="0"
         id="path890-2-5"
         d="m 3.968752,0 -4e-6,100.54167"
         style="fill:none;stroke:#000000;stroke-width:0.05;stroke-linecap:butt;stroke-linejoin:miter;stroke-miterlimit:4;stroke-dasharray:none;stroke-opacity:1" />
      <path
         style="fill:none;stroke:#000000;stroke-width:0.05;stroke-linecap:butt;stroke-linejoin:miter;stroke-miterlimit:4;stroke-dasharray:none;stroke-opacity:1"
         d="m 11.906253,0 -4e-6,100.54167"
         id="path895-1-5"
         inkscape:connector-curvature="0"
         sodipodi:nodetypes="cc" />
      <path
         style="fill:none;stroke:#000000;stroke-width:0.05;stroke-linecap:butt;stroke-linejoin:miter;stroke-miterlimit:4;stroke-dasharray:none;stroke-opacity:1"
         d="m 19.843758,0 -4e-6,100.54167"
         id="path899-0-8"
         inkscape:connector-curvature="0"
         sodipodi:nodetypes="cc" />
      <path
         sodipodi:nodetypes="cc"
         inkscape:connector-curvature="0"
         id="path903-0-0"
         d="m 27.781263,0 -2e-6,100.54167"
         style="fill:none;stroke:#000000;stroke-width:0.05;stroke-linecap:butt;stroke-linejoin:miter;stroke-miterlimit:4;stroke-dasharray:none;stroke-opacity:1" />
      <path
         inkscape:connector-curvature="0"
         id="path905-6-4"
         d="M 0,14.022551 H 31.75"
         style="fill:none;stroke:#000000;stroke-width:0.05;stroke-linecap:butt;stroke-linejoin:miter;stroke-miterlimit:4;stroke-dasharray:none;stroke-opacity:1" />
      <path
         style="fill:none;stroke:#000000;stroke-width:0.05;stroke-linecap:butt;stroke-linejoin:miter;stroke-miterlimit:4;stroke-dasharray:none;stroke-opacity:1"
         d="M 0,28.57465 H 31.75"
         id="path1103"
         inkscape:connector-curvature="0" />
      <path
         inkscape:connector-curvature="0"
         id="path1107"
         d="M 0,43.126622 H 31.75"
         style="fill:none;stroke:#000000;stroke-width:0.05;stroke-linecap:butt;stroke-linejoin:miter;stroke-miterlimit:4;stroke-dasharray:none;stroke-opacity:1" />
      <path
         style="fill:none;stroke:#000000;stroke-width:0.05;stroke-linecap:butt;stroke-linejoin:miter;stroke-miterlimit:4;stroke-dasharray:none;stroke-opacity:1"
         d="M 0,57.678723 H 31.75"
         id="path1111"
         inkscape:connector-curvature="0" />
      <path
         inkscape:connector-curvature="0"
         id="path1115"
         d="M 0,72.230955 H 31.75"
         style="fill:none;stroke:#000000;stroke-width:0.05;stroke-linecap:butt;stroke-linejoin:miter;stroke-miterlimit:4;stroke-dasharray:none;stroke-opacity:1" />
      <path
         style="fill:none;stroke:#000000;stroke-width:0.05;stroke-linecap:butt;stroke-linejoin:miter;stroke-miterlimit:4;stroke-dasharray:none;stroke-opacity:1"
         d="M 0,86.782927 H 31.75"
         id="path1119"
         inkscape:connector-curvature="0" />
      <circle
         r="4.0999999"
         cy="14.022837"
         cx="23.827299"
         id="circle1006"
         style="display:inline;opacity:1;fill:none;fill-opacity:1;stroke:#000000;stroke-width:0.05;stroke-linecap:square;stroke-linejoin:round;stroke-miterlimit:4;stroke-dasharray:none;stroke-dashoffset:0;stroke-opacity:1;paint-order:markers fill stroke" />
      <circle
         style="display:inline;opacity:1;fill:none;fill-opacity:1;stroke:#000000;stroke-width:0.05;stroke-linecap:square;stroke-linejoin:round;stroke-miterlimit:4;stroke-dasharray:none;stroke-dashoffset:0;stroke-opacity:1;paint-order:markers fill stroke"
         id="circle1008"
         cx="7.9523039"
         cy="14.022837"
         r="4.0999999" />
      <circle
         style="display:inline;opacity:1;fill:none;fill-opacity:1;stroke:#000000;stroke-width:0.05;stroke-linecap:square;stroke-linejoin:round;stroke-miterlimit:4;stroke-dasharray:none;stroke-dashoffset:0;stroke-opacity:1;paint-order:markers fill stroke"
         id="circle1012"
         cx="23.827299"
         cy="28.574995"
         r="4.0999999" />
      <circle
         r="4.0999999"
         cy="28.574995"
         cx="7.9523039"
         id="circle1014"
         style="display:inline;opacity:1;fill:none;fill-opacity:1;stroke:#000000;stroke-width:0.05;stroke-linecap:square;stroke-linejoin:round;stroke-miterlimit:4;stroke-dasharray:none;stroke-dashoffset:0;stroke-opacity:1;paint-order:markers fill stroke" />
      <circle
         style="display:inline;opacity:1;fill:none;fill-opacity:1;stroke:#000000;stroke-width:0.05;stroke-linecap:square;stroke-linejoin:round;stroke-miterlimit:4;stroke-dasharray:none;stroke-dashoffset:0;stroke-opacity:1;paint-order:markers fill stroke"
         id="circle1016"
         cx="23.827299"
         cy="43.127026"
         r="4.0999999" />
      <circle
         r="4.0999999"
         cy="43.127026"
         cx="7.9523039"
         id="circle1018"
         style="display:inline;opacity:1;fill:none;fill-opacity:1;stroke:#000000;stroke-width:0.05;stroke-linecap:square;stroke-linejoin:round;stroke-miterlimit:4;stroke-dasharray:none;stroke-dashoffset:0;stroke-opacity:1;paint-order:markers fill stroke" />
      <circle
         r="4.0999999"
         cy="57.679188"
         cx="23.827299"
         id="circle1020"
         style="display:inline;opacity:1;fill:none;fill-opacity:1;stroke:#000000;stroke-width:0.05;stroke-linecap:square;stroke-linejoin:round;stroke-miterlimit:4;stroke-dasharray:none;stroke-dashoffset:0;stroke-opacity:1;paint-order:markers fill stroke" />
      <circle
         style="display:inline;opacity:1;fill:none;fill-opacity:1;stroke:#000000;stroke-width:0.05;stroke-linecap:square;stroke-linejoin:round;stroke-miterlimit:4;stroke-dasharray:none;stroke-dashoffset:0;stroke-opacity:1;paint-order:markers fill stroke"
         id="circle1022"
         cx="7.9523039"
         cy="57.679188"
         r="4.0999999" />
      <circle
         r="4.0999999"
         cy="72.231216"
         cx="23.827299"
         id="circle1024"
         style="display:inline;opacity:1;fill:none;fill-opacity:1;stroke:#000000;stroke-width:0.05;stroke-linecap:square;stroke-linejoin:round;stroke-miterlimit:4;stroke-dasharray:none;stroke-dashoffset:0;stroke-opacity:1;paint-order:markers fill stroke" />
      <circle
         style="display:inline;opacity:1;fill:none;fill-opacity:1;stroke:#000000;stroke-width:0.05;stroke-linecap:square;stroke-linejoin:round;stroke-miterlimit:4;stroke-dasharray:none;stroke-dashoffset:0;stroke-opacity:1;paint-order:markers fill stroke"
         id="circle1026"
         cx="7.9523039"
         cy="72.231216"
         r="4.0999999" />
      <circle
         style="display:inline;opacity:1;fill:none;fill-opacity:1;stroke:#000000;stroke-width:0.05;stroke-linecap:square;stroke-linejoin:round;stroke-miterlimit:4;stroke-dasharray:none;stroke-dashoffset:0;stroke-opacity:1;paint-order:markers fill stroke"
         id="circle1028"
         cx="23.827299"
         cy="86.783379"
         r="4.0999999" />
      <circle
         r="4.0999999"
         cy="86.783379"
         cx="7.9523039"
         id="circle1030"
         style="display:inline;opacity:1;fill:none;fill-opacity:1;stroke:#000000;stroke-width:0.05;stroke-linecap:square;stroke-linejoin:round;stroke-miterlimit:4;stroke-dasharray:none;stroke-dashoffset:0;stroke-opacity:1;paint-order:markers fill stroke" />
      <circle
         style="display:inline;opacity:1;fill:none;fill-opacity:1;stroke:#000000;stroke-width:0.05172414;stroke-linecap:square;stroke-linejoin:round;stroke-miterlimit:4;stroke-dasharray:none;stroke-dashoffset:0;stroke-opacity:1;paint-order:markers fill stroke"
         id="circle1039"
         cx="23.811087"
         cy="14.023285"
         r="5.4741378" />
      <circle
         r="5.4741378"
         cy="14.023285"
         cx="7.9360862"
         id="circle1086"
         style="display:inline;opacity:1;fill:none;fill-opacity:1;stroke:#000000;stroke-width:0.05172414;stroke-linecap:square;stroke-linejoin:round;stroke-miterlimit:4;stroke-dasharray:none;stroke-dashoffset:0;stroke-opacity:1;paint-order:markers fill stroke" />
      <circle
         r="5.4741378"
         cy="28.573866"
         cx="23.811087"
         id="circle1088"
         style="display:inline;opacity:1;fill:none;fill-opacity:1;stroke:#000000;stroke-width:0.05172414;stroke-linecap:square;stroke-linejoin:round;stroke-miterlimit:4;stroke-dasharray:none;stroke-dashoffset:0;stroke-opacity:1;paint-order:markers fill stroke" />
      <circle
         style="display:inline;opacity:1;fill:none;fill-opacity:1;stroke:#000000;stroke-width:0.05172414;stroke-linecap:square;stroke-linejoin:round;stroke-miterlimit:4;stroke-dasharray:none;stroke-dashoffset:0;stroke-opacity:1;paint-order:markers fill stroke"
         id="circle1090"
         cx="7.9360862"
         cy="28.573866"
         r="5.4741378" />
      <circle
         r="5.4741378"
         cy="43.127476"
         cx="23.811087"
         id="circle1092"
         style="display:inline;opacity:1;fill:none;fill-opacity:1;stroke:#000000;stroke-width:0.05172414;stroke-linecap:square;stroke-linejoin:round;stroke-miterlimit:4;stroke-dasharray:none;stroke-dashoffset:0;stroke-opacity:1;paint-order:markers fill stroke" />
      <circle
         style="display:inline;opacity:1;fill:none;fill-opacity:1;stroke:#000000;stroke-width:0.05172414;stroke-linecap:square;stroke-linejoin:round;stroke-miterlimit:4;stroke-dasharray:none;stroke-dashoffset:0;stroke-opacity:1;paint-order:markers fill stroke"
         id="circle1094"
         cx="7.9360862"
         cy="43.127476"
         r="5.4741378" />
      <circle
         style="display:inline;opacity:1;fill:none;fill-opacity:1;stroke:#000000;stroke-width:0.05172414;stroke-linecap:square;stroke-linejoin:round;stroke-miterlimit:4;stroke-dasharray:none;stroke-dashoffset:0;stroke-opacity:1;paint-order:markers fill stroke"
         id="circle1096"
         cx="23.811087"
         cy="57.678059"
         r="5.4741378" />
      <circle
         r="5.4741378"
         cy="57.678059"
         cx="7.9360862"
         id="circle1098"
         style="display:inline;opacity:1;fill:none;fill-opacity:1;stroke:#000000;stroke-width:0.05172414;stroke-linecap:square;stroke-linejoin:round;stroke-miterlimit:4;stroke-dasharray:none;stroke-dashoffset:0;stroke-opacity:1;paint-order:markers fill stroke" />
      <circle
         style="display:inline;opacity:1;fill:none;fill-opacity:1;stroke:#000000;stroke-width:0.05172414;stroke-linecap:square;stroke-linejoin:round;stroke-miterlimit:4;stroke-dasharray:none;stroke-dashoffset:0;stroke-opacity:1;paint-order:markers fill stroke"
         id="circle1100"
         cx="23.811087"
         cy="72.231667"
         r="5.4741378" />
      <circle
         r="5.4741378"
         cy="72.231667"
         cx="7.9360862"
         id="circle1102"
         style="display:inline;opacity:1;fill:none;fill-opacity:1;stroke:#000000;stroke-width:0.05172414;stroke-linecap:square;stroke-linejoin:round;stroke-miterlimit:4;stroke-dasharray:none;stroke-dashoffset:0;stroke-opacity:1;paint-order:markers fill stroke" />
      <circle
         r="5.4741378"
         cy="86.782249"
         cx="23.811087"
         id="circle1104"
         style="display:inline;opacity:1;fill:none;fill-opacity:1;stroke:#000000;stroke-width:0.05172414;stroke-linecap:square;stroke-linejoin:round;stroke-miterlimit:4;stroke-dasharray:none;stroke-dashoffset:0;stroke-opacity:1;paint-order:markers fill stroke" />
      <circle
         style="display:inline;opacity:1;fill:none;fill-opacity:1;stroke:#000000;stroke-width:0.05172414;stroke-linecap:square;stroke-linejoin:round;stroke-miterlimit:4;stroke-dasharray:none;stroke-dashoffset:0;stroke-opacity:1;paint-order:markers fill stroke"
         id="circle1106"
         cx="7.9360862"
         cy="86.782249"
         r="5.4741378" />
    </g>
  </g>
</svg>
