<?xml version="1.0" encoding="UTF-8" standalone="no"?>
<!-- Created with Inkscape (http://www.inkscape.org/) -->

<svg
   xmlns:dc="http://purl.org/dc/elements/1.1/"
   xmlns:cc="http://creativecommons.org/ns#"
   xmlns:rdf="http://www.w3.org/1999/02/22-rdf-syntax-ns#"
   xmlns:svg="http://www.w3.org/2000/svg"
   xmlns="http://www.w3.org/2000/svg"
   xmlns:sodipodi="http://sodipodi.sourceforge.net/DTD/sodipodi-0.dtd"
   xmlns:inkscape="http://www.inkscape.org/namespaces/inkscape"
   width="90"
   height="380"
   viewBox="0 0 23.812501 100.54167"
   version="1.1"
   id="svg8"
   inkscape:version="0.92.4 (5da689c313, 2019-01-14)"
   sodipodi:docname="PolyVCSwitch.svg">
  <defs
     id="defs2" />
  <sodipodi:namedview
     id="base"
     pagecolor="#ffffff"
     bordercolor="#666666"
     borderopacity="1.0"
     inkscape:pageopacity="0.0"
     inkscape:pageshadow="2"
     inkscape:zoom="2.2789474"
     inkscape:cx="-210.62622"
     inkscape:cy="174.69311"
     inkscape:document-units="mm"
     inkscape:current-layer="layer1"
     showgrid="true"
     units="px"
     inkscape:snap-bbox="true"
     inkscape:snap-page="true"
     inkscape:bbox-nodes="true"
     inkscape:snap-bbox-edge-midpoints="true"
     inkscape:window-width="1920"
     inkscape:window-height="1017"
     inkscape:window-x="-8"
     inkscape:window-y="-8"
     inkscape:window-maximized="1">
    <inkscape:grid
       type="xygrid"
       id="grid116" />
  </sodipodi:namedview>
  <metadata
     id="metadata5">
    <rdf:RDF>
      <cc:Work
         rdf:about="">
        <dc:format>image/svg+xml</dc:format>
        <dc:type
           rdf:resource="http://purl.org/dc/dcmitype/StillImage" />
        <dc:title />
      </cc:Work>
    </rdf:RDF>
  </metadata>
  <g
     inkscape:groupmode="layer"
     id="layer3"
     inkscape:label="Panel"
     sodipodi:insensitive="true">
    <path
       transform="matrix(1.5,0,0,1,0,-196.45832)"
       sodipodi:type="inkscape:offset"
       inkscape:radius="0"
       inkscape:original="M 0 196.45898 L 0 297 L 15.875 297 L 15.875 196.45898 L 0 196.45898 z "
       style="display:inline;fill:#75a555;stroke-width:0.3310422"
       id="rect3855"
       d="M 0,196.45898 V 297 H 15.875 V 196.45898 Z" />
  </g>
  <g
     inkscape:label="Layer 1"
     inkscape:groupmode="layer"
     id="layer1"
     transform="translate(0,-196.45832)"
     style="display:inline">
    <rect
       style="fill:#528d00;stroke-width:0.14682581"
       id="rect897"
       width="9.260417"
       height="22.982899"
       x="0.66106462"
       y="-286.64539"
       transform="scale(1,-1)" />
    <rect
       ry="0.014324999"
       y="264.11832"
       x="1.1331912"
       height="2.5931005"
       width="8.3161659"
       id="rect1053"
       style="display:inline;opacity:1;fill:#d01910;fill-opacity:1;stroke:#000000;stroke-width:0.1;stroke-linecap:round;stroke-linejoin:round;stroke-miterlimit:4;stroke-dasharray:none;stroke-dashoffset:0.79370081;stroke-opacity:1;paint-order:markers fill stroke" />
    <g
       aria-label="OUT"
       style="font-style:normal;font-variant:normal;font-weight:normal;font-stretch:normal;font-size:2.82222223px;line-height:1.25;font-family:'Yu Gothic UI';-inkscape-font-specification:'Yu Gothic UI';letter-spacing:0px;word-spacing:0px;display:inline;fill:#000000;fill-opacity:1;stroke:none;stroke-width:0.26458332"
       id="text931"
       transform="translate(-3.9691424,233.36283)">
      <path
         d="m 7.503418,33.072917 q -0.4203017,0 -0.6738607,-0.276985 -0.252181,-0.276986 -0.252181,-0.720714 0,-0.476801 0.2576931,-0.760677 0.2576932,-0.283876 0.7014215,-0.283876 0.4092773,0 0.6587022,0.275607 0.250803,0.275608 0.250803,0.720714 0,0.483692 -0.2563151,0.764812 -0.2563151,0.281119 -0.686263,0.281119 z m 0.016536,-1.83279 q -0.3114366,0 -0.50574,0.22462 -0.1943034,0.22462 -0.1943034,0.5898 0,0.36518 0.1887912,0.588423 0.1901693,0.221864 0.4947158,0.221864 0.325217,0 0.5126302,-0.212218 0.1874132,-0.212218 0.1874132,-0.593935 0,-0.391363 -0.1819011,-0.604958 -0.181901,-0.213596 -0.5016059,-0.213596 z"
         style="stroke-width:0.26458332"
         id="path982"
         inkscape:connector-curvature="0" />
      <path
         d="m 10.280165,32.240582 q 0,0.832335 -0.7510308,0.832335 -0.719336,0 -0.719336,-0.80064 v -1.208539 h 0.2315104 v 1.193381 q 0,0.607715 0.5126302,0.607715 0.4947162,0 0.4947162,-0.587045 v -1.214051 h 0.23151 z"
         style="stroke-width:0.26458332"
         id="path984"
         inkscape:connector-curvature="0" />
      <path
         d="m 11.943457,31.2732 h -0.570508 v 1.766645 h -0.23151 V 31.2732 h -0.56913 v -0.209462 h 1.371148 z"
         style="stroke-width:0.26458332"
         id="path986"
         inkscape:connector-curvature="0" />
    </g>
    <text
       xml:space="preserve"
       style="font-style:normal;font-weight:normal;font-size:2.82222223px;line-height:1.25;font-family:sans-serif;letter-spacing:0px;word-spacing:0px;fill:#000000;fill-opacity:1;stroke:none;stroke-width:0.26458332"
       x="17.197916"
       y="201.74998"
       id="text3821"><tspan
         sodipodi:role="line"
         id="tspan3819"
         x="17.197916"
         y="204.24699"
         style="stroke-width:0.26458332" /></text>
    <rect
       style="fill:#528d00;stroke-width:0.09961469"
       id="rect897-74"
       width="9.260417"
       height="10.579056"
       x="13.891717"
       y="-262.33536"
       transform="scale(1,-1)" />
    <g
       aria-label="/^M^\"
       style="font-style:normal;font-variant:normal;font-weight:normal;font-stretch:normal;font-size:2.82222223px;line-height:1.25;font-family:'Copperplate Gothic Light';-inkscape-font-specification:'Copperplate Gothic Light, ';letter-spacing:0px;word-spacing:0px;fill:#000000;fill-opacity:1;stroke:#000000;stroke-width:0.2;stroke-miterlimit:4;stroke-dasharray:none;stroke-opacity:1"
       id="text956"
       transform="translate(-10.540135,3.7456238)">
      <path
         d="m 21.203855,291.40545 v 0.0386 h -0.434082 v -0.0386 q 0.09509,-0.006 0.224621,-0.17088 l 1.094162,-1.4621 q 0.07441,-0.1006 0.07441,-0.12402 0,-0.0372 -0.06615,-0.0482 v -0.0372 h 0.423058 v 0.0372 q -0.09508,0.006 -0.22462,0.17087 l -1.08176,1.46348 q -0.07579,0.10197 -0.07579,0.12402 0,0.0358 0.06615,0.0469 z"
         style="font-style:normal;font-variant:normal;font-weight:normal;font-stretch:normal;font-size:2.82222223px;line-height:1.25;font-family:'Copperplate Gothic Light';-inkscape-font-specification:'Copperplate Gothic Light, ';stroke:#000000;stroke-width:0.2;stroke-miterlimit:4;stroke-dasharray:none;stroke-opacity:1"
         id="path958"
         inkscape:connector-curvature="0" />
      <path
         d="M 22.940183,290.3857 H 22.73899 l 0.493338,-0.8282 h 0.243912 l 0.493338,0.8282 h -0.20395 l -0.413411,-0.68075 z"
         style="font-style:normal;font-variant:normal;font-weight:normal;font-stretch:normal;font-size:2.82222223px;line-height:1.25;font-family:'Copperplate Gothic Light';-inkscape-font-specification:'Copperplate Gothic Light, ';stroke:#000000;stroke-width:0.2;stroke-miterlimit:4;stroke-dasharray:none;stroke-opacity:1"
         id="path960"
         inkscape:connector-curvature="0" />
      <path
         d="m 25.342104,291.44403 -0.789616,-1.58061 v 1.418 q 0,0.0565 0.01791,0.0813 0.01791,0.0234 0.07028,0.0372 v 0.0441 h -0.373449 v -0.0441 q 0.05237,-0.0138 0.07028,-0.0372 0.01792,-0.0234 0.01792,-0.0813 v -1.5558 q 0,-0.0579 -0.01792,-0.0813 -0.01791,-0.0248 -0.07028,-0.0372 v -0.0441 h 0.487826 v 0.0441 q -0.06752,0.0234 -0.06752,0.0579 0,0.0165 0.04547,0.10611 l 0.62563,1.24161 0.628385,-1.25263 q 0.03307,-0.0661 0.03307,-0.0937 0,-0.0358 -0.06752,-0.0593 v -0.0441 h 0.49196 v 0.0441 q -0.05237,0.0138 -0.07028,0.0372 -0.01792,0.0234 -0.01792,0.0813 v 1.5558 q 0,0.0565 0.01792,0.0813 0.01791,0.0234 0.07028,0.0372 v 0.0441 h -0.392741 v -0.0441 q 0.05374,-0.0138 0.07028,-0.0372 0.01791,-0.0234 0.01791,-0.0813 v -1.418 z"
         style="font-style:normal;font-variant:normal;font-weight:normal;font-stretch:normal;font-size:2.82222223px;line-height:1.25;font-family:'Copperplate Gothic Light';-inkscape-font-specification:'Copperplate Gothic Light, ';stroke:#000000;stroke-width:0.2;stroke-miterlimit:4;stroke-dasharray:none;stroke-opacity:1"
         id="path962"
         inkscape:connector-curvature="0" />
      <path
         d="m 26.942006,290.3857 h -0.201193 l 0.493338,-0.8282 h 0.243912 l 0.493338,0.8282 h -0.20395 l -0.413411,-0.68075 z"
         style="font-style:normal;font-variant:normal;font-weight:normal;font-stretch:normal;font-size:2.82222223px;line-height:1.25;font-family:'Copperplate Gothic Light';-inkscape-font-specification:'Copperplate Gothic Light, ';stroke:#000000;stroke-width:0.2;stroke-miterlimit:4;stroke-dasharray:none;stroke-opacity:1"
         id="path964"
         inkscape:connector-curvature="0" />
      <path
         d="m 28.617701,289.56301 v 0.0372 q -0.06615,0.011 -0.06615,0.0482 0,0.0234 0.07441,0.12402 l 1.092784,1.4621 q 0.129536,0.16536 0.22462,0.17088 v 0.0386 h -0.434082 v -0.0386 q 0.06615,-0.011 0.06615,-0.0469 0,-0.0207 -0.07579,-0.12402 l -1.080382,-1.46348 q -0.129535,-0.16536 -0.22462,-0.17087 v -0.0372 z"
         style="font-style:normal;font-variant:normal;font-weight:normal;font-stretch:normal;font-size:2.82222223px;line-height:1.25;font-family:'Copperplate Gothic Light';-inkscape-font-specification:'Copperplate Gothic Light, ';stroke:#000000;stroke-width:0.2;stroke-miterlimit:4;stroke-dasharray:none;stroke-opacity:1"
         id="path966"
         inkscape:connector-curvature="0" />
    </g>
    <g
       aria-label="CV"
       style="font-style:normal;font-variant:normal;font-weight:normal;font-stretch:normal;font-size:2.82222223px;line-height:1.25;font-family:'Yu Gothic UI';-inkscape-font-specification:'Yu Gothic UI';letter-spacing:0px;word-spacing:0px;display:inline;fill:#000000;fill-opacity:1;stroke:none;stroke-width:0.26458332"
       id="text923"
       transform="translate(-3.12539,194.91771)">
      <path
         d="m 14.833202,10.500651 q -0.219108,0.115755 -0.545703,0.115755 -0.421679,0 -0.675238,-0.271474 -0.253559,-0.271473 -0.253559,-0.7124453 0,-0.4740452 0.285254,-0.7661893 0.285253,-0.2921441 0.72347,-0.2921441 0.281119,0 0.465776,0.081304 V 8.9021264 Q 14.620985,8.7836151 14.36467,8.7836151 q -0.340376,0 -0.552594,0.2273763 -0.21084,0.2273763 -0.21084,0.6077149 0,0.361046 0.19706,0.5760197 0.198437,0.213596 0.51952,0.213596 0.297656,0 0.515386,-0.132292 z"
         style="stroke-width:0.26458332"
         id="path949"
         inkscape:connector-curvature="0" />
      <path
         d="M 16.704578,8.6072262 15.97284,10.583333 h -0.254937 l -0.71658,-1.9761068 h 0.257693 l 0.547082,1.5668298 q 0.02618,0.07579 0.03996,0.175011 h 0.0055 q 0.01102,-0.08268 0.04547,-0.177767 l 0.558105,-1.5640738 z"
         style="stroke-width:0.26458332"
         id="path951"
         inkscape:connector-curvature="0" />
    </g>
    <g
       transform="translate(-2.6513439,232.94174)"
       aria-label="IN"
       style="font-style:normal;font-variant:normal;font-weight:normal;font-stretch:normal;font-size:2.82222223px;line-height:1.25;font-family:'Yu Gothic UI';-inkscape-font-specification:'Yu Gothic UI';letter-spacing:0px;word-spacing:0px;display:inline;fill:#000000;fill-opacity:1;stroke:none;stroke-width:0.26458332"
       id="text927">
      <path
         d="M 7.0027963,21.285381 H 6.7712858 v -1.976106 h 0.2315105 z"
         style="stroke-width:0.26458332"
         id="path974"
         inkscape:connector-curvature="0" />
      <path
         d="M 9.1139508,21.285381 H 8.8300749 L 7.8130827,19.710284 q -0.038585,-0.05926 -0.06339,-0.124024 h -0.00827 q 0.011024,0.06339 0.011024,0.271474 v 1.427647 H 7.5209386 V 19.309275 H 7.821351 l 0.9894314,1.550293 q 0.062012,0.09646 0.079926,0.132291 h 0.00551 q -0.01378,-0.08544 -0.01378,-0.290766 v -1.391818 h 0.2315104 z"
         style="stroke-width:0.26458332"
         id="path976"
         inkscape:connector-curvature="0" />
    </g>
    <rect
       style="display:inline;opacity:1;fill:#86bc36;fill-opacity:1;stroke:#000000;stroke-width:0.1;stroke-linecap:round;stroke-linejoin:round;stroke-miterlimit:4;stroke-dasharray:none;stroke-dashoffset:0.79370081;stroke-opacity:1;paint-order:markers fill stroke"
       id="rect1812"
       width="8.3161659"
       height="2.5931005"
       x="1.1331912"
       y="276.24829"
       ry="0.014324999" />
    <g
       transform="translate(-3.9691424,245.49262)"
       id="g995"
       style="font-style:normal;font-variant:normal;font-weight:normal;font-stretch:normal;font-size:2.82222223px;line-height:1.25;font-family:'Yu Gothic UI';-inkscape-font-specification:'Yu Gothic UI';letter-spacing:0px;word-spacing:0px;display:inline;fill:#000000;fill-opacity:1;stroke:none;stroke-width:0.26458332"
       aria-label="OUT">
      <path
         inkscape:connector-curvature="0"
         id="path989"
         style="stroke-width:0.26458332"
         d="m 7.503418,33.072917 q -0.4203017,0 -0.6738607,-0.276985 -0.252181,-0.276986 -0.252181,-0.720714 0,-0.476801 0.2576931,-0.760677 0.2576932,-0.283876 0.7014215,-0.283876 0.4092773,0 0.6587022,0.275607 0.250803,0.275608 0.250803,0.720714 0,0.483692 -0.2563151,0.764812 -0.2563151,0.281119 -0.686263,0.281119 z m 0.016536,-1.83279 q -0.3114366,0 -0.50574,0.22462 -0.1943034,0.22462 -0.1943034,0.5898 0,0.36518 0.1887912,0.588423 0.1901693,0.221864 0.4947158,0.221864 0.325217,0 0.5126302,-0.212218 0.1874132,-0.212218 0.1874132,-0.593935 0,-0.391363 -0.1819011,-0.604958 -0.181901,-0.213596 -0.5016059,-0.213596 z" />
      <path
         inkscape:connector-curvature="0"
         id="path991"
         style="stroke-width:0.26458332"
         d="m 10.280165,32.240582 q 0,0.832335 -0.7510308,0.832335 -0.719336,0 -0.719336,-0.80064 v -1.208539 h 0.2315104 v 1.193381 q 0,0.607715 0.5126302,0.607715 0.4947162,0 0.4947162,-0.587045 v -1.214051 h 0.23151 z" />
      <path
         inkscape:connector-curvature="0"
         id="path993"
         style="stroke-width:0.26458332"
         d="m 11.943457,31.2732 h -0.570508 v 1.766645 h -0.23151 V 31.2732 h -0.56913 v -0.209462 h 1.371148 z" />
    </g>
    <rect
       style="display:inline;opacity:1;fill:#d01910;fill-opacity:1;stroke:#000000;stroke-width:0.1;stroke-linecap:round;stroke-linejoin:round;stroke-miterlimit:4;stroke-dasharray:none;stroke-dashoffset:0.79370081;stroke-opacity:1;paint-order:markers fill stroke"
       id="rect1045"
       width="8.3161659"
       height="2.5931005"
       x="14.363843"
       y="264.11832"
       ry="0.014324999" />
    <g
       id="g1001"
       style="font-style:normal;font-variant:normal;font-weight:normal;font-stretch:normal;font-size:2.82222223px;line-height:1.25;font-family:'Yu Gothic UI';-inkscape-font-specification:'Yu Gothic UI';letter-spacing:0px;word-spacing:0px;display:inline;fill:#000000;fill-opacity:1;stroke:none;stroke-width:0.26458332"
       aria-label="IN"
       transform="translate(10.579304,245.11729)">
      <path
         id="path997"
         style="stroke-width:0.26458332"
         d="M 7.0027963,21.285381 H 6.7712858 v -1.976106 h 0.2315105 z"
         inkscape:connector-curvature="0" />
      <path
         id="path999"
         style="stroke-width:0.26458332"
         d="M 9.1139508,21.285381 H 8.8300749 L 7.8130827,19.710284 q -0.038585,-0.05926 -0.06339,-0.124024 h -0.00827 q 0.011024,0.06339 0.011024,0.271474 v 1.427647 H 7.5209386 V 19.309275 H 7.821351 l 0.9894314,1.550293 q 0.062012,0.09646 0.079926,0.132291 h 0.00551 q -0.01378,-0.08544 -0.01378,-0.290766 v -1.391818 h 0.2315104 z"
         inkscape:connector-curvature="0" />
    </g>
    <g
       aria-label="OUT"
       style="font-style:normal;font-variant:normal;font-weight:normal;font-stretch:normal;font-size:2.82222223px;line-height:1.25;font-family:'Yu Gothic UI';-inkscape-font-specification:'Yu Gothic UI';letter-spacing:0px;word-spacing:0px;display:inline;fill:#000000;fill-opacity:1;stroke:none;stroke-width:0.26458332"
       id="g1009"
       transform="translate(9.2615105,221.18728)">
      <path
         d="m 7.503418,33.072917 q -0.4203017,0 -0.6738607,-0.276985 -0.252181,-0.276986 -0.252181,-0.720714 0,-0.476801 0.2576931,-0.760677 0.2576932,-0.283876 0.7014215,-0.283876 0.4092773,0 0.6587022,0.275607 0.250803,0.275608 0.250803,0.720714 0,0.483692 -0.2563151,0.764812 -0.2563151,0.281119 -0.686263,0.281119 z m 0.016536,-1.83279 q -0.3114366,0 -0.50574,0.22462 -0.1943034,0.22462 -0.1943034,0.5898 0,0.36518 0.1887912,0.588423 0.1901693,0.221864 0.4947158,0.221864 0.325217,0 0.5126302,-0.212218 0.1874132,-0.212218 0.1874132,-0.593935 0,-0.391363 -0.1819011,-0.604958 -0.181901,-0.213596 -0.5016059,-0.213596 z"
         style="stroke-width:0.26458332"
         id="path1003"
         inkscape:connector-curvature="0" />
      <path
         d="m 10.280165,32.240582 q 0,0.832335 -0.7510308,0.832335 -0.719336,0 -0.719336,-0.80064 v -1.208539 h 0.2315104 v 1.193381 q 0,0.607715 0.5126302,0.607715 0.4947162,0 0.4947162,-0.587045 v -1.214051 h 0.23151 z"
         style="stroke-width:0.26458332"
         id="path1005"
         inkscape:connector-curvature="0" />
      <path
         d="m 11.943457,31.2732 h -0.570508 v 1.766645 h -0.23151 V 31.2732 h -0.56913 v -0.209462 h 1.371148 z"
         style="stroke-width:0.26458332"
         id="path1007"
         inkscape:connector-curvature="0" />
    </g>
    <rect
       ry="0.014324999"
       y="276.24829"
       x="14.363843"
       height="2.5931005"
       width="8.3161659"
       id="rect1047"
       style="display:inline;opacity:1;fill:#86bc36;fill-opacity:1;stroke:#000000;stroke-width:0.1;stroke-linecap:round;stroke-linejoin:round;stroke-miterlimit:4;stroke-dasharray:none;stroke-dashoffset:0.79370081;stroke-opacity:1;paint-order:markers fill stroke" />
    <g
       transform="translate(10.579304,257.24708)"
       aria-label="IN"
       style="font-style:normal;font-variant:normal;font-weight:normal;font-stretch:normal;font-size:2.82222223px;line-height:1.25;font-family:'Yu Gothic UI';-inkscape-font-specification:'Yu Gothic UI';letter-spacing:0px;word-spacing:0px;display:inline;fill:#000000;fill-opacity:1;stroke:none;stroke-width:0.26458332"
       id="g1016">
      <path
         inkscape:connector-curvature="0"
         d="M 7.0027963,21.285381 H 6.7712858 v -1.976106 h 0.2315105 z"
         style="stroke-width:0.26458332"
         id="path1011" />
      <path
         inkscape:connector-curvature="0"
         d="M 9.1139508,21.285381 H 8.8300749 L 7.8130827,19.710284 q -0.038585,-0.05926 -0.06339,-0.124024 h -0.00827 q 0.011024,0.06339 0.011024,0.271474 v 1.427647 H 7.5209386 V 19.309275 H 7.821351 l 0.9894314,1.550293 q 0.062012,0.09646 0.079926,0.132291 h 0.00551 q -0.01378,-0.08544 -0.01378,-0.290766 v -1.391818 h 0.2315104 z"
         style="stroke-width:0.26458332"
         id="path1014" />
    </g>
    <g
       id="g1031"
       transform="translate(2.9100239,28.374923)">
      <path
         inkscape:connector-curvature="0"
         id="path1068"
         d="m 0.52916703,219.74165 1.85208317,-1.85208 1.8520834,1.85208"
         style="fill:none;stroke:#000000;stroke-width:0.26458332px;stroke-linecap:butt;stroke-linejoin:miter;stroke-opacity:1" />
      <path
         inkscape:connector-curvature="0"
         id="path1070"
         d="m 0.52916703,218.9479 v 0.79375 H 1.3229169"
         style="fill:none;stroke:#000000;stroke-width:0.26458332px;stroke-linecap:butt;stroke-linejoin:miter;stroke-opacity:1" />
      <path
         inkscape:connector-curvature="0"
         id="path1072"
         d="m 4.2333336,218.9479 v 0.79375 H 3.4395835"
         style="fill:none;stroke:#000000;stroke-width:0.26458332px;stroke-linecap:butt;stroke-linejoin:miter;stroke-opacity:1" />
      <path
         inkscape:connector-curvature="0"
         id="path1074"
         d="M 2.3812502,217.88957 V 215.7729"
         style="fill:none;stroke:#000000;stroke-width:0.26458332px;stroke-linecap:butt;stroke-linejoin:miter;stroke-opacity:1" />
    </g>
    <g
       id="g1025"
       transform="rotate(-180,10.45161,250.25366)">
      <path
         inkscape:connector-curvature="0"
         id="path1076"
         d="m 0.529167,252.40383 1.8520832,1.85208 1.8520834,-1.85208"
         style="fill:none;stroke:#000000;stroke-width:0.30000001;stroke-linecap:butt;stroke-linejoin:miter;stroke-miterlimit:4;stroke-dasharray:none;stroke-opacity:1" />
      <path
         inkscape:connector-curvature="0"
         id="path1078"
         d="M 2.3812502,254.25591 V 256.108"
         style="fill:none;stroke:#000000;stroke-width:0.30000001;stroke-linecap:butt;stroke-linejoin:miter;stroke-miterlimit:4;stroke-dasharray:none;stroke-opacity:1" />
      <path
         inkscape:connector-curvature="0"
         id="path1080"
         d="m 1.5875003,255.31425 0.7937499,0.79375 0.7937501,-0.79375"
         style="fill:none;stroke:#000000;stroke-width:0.30000001;stroke-linecap:butt;stroke-linejoin:miter;stroke-miterlimit:4;stroke-dasharray:none;stroke-opacity:1" />
    </g>
    <path
       style="fill:none;stroke:#000000;stroke-width:0.29068884;stroke-linecap:butt;stroke-linejoin:miter;stroke-miterlimit:4;stroke-dasharray:none;stroke-opacity:1"
       d="m 11.90625,243.02499 v 44.71458"
       id="path1051"
       inkscape:connector-curvature="0" />
    <g
       aria-label="SELECTION"
       style="font-style:normal;font-variant:normal;font-weight:normal;font-stretch:normal;font-size:2.82222223px;line-height:1.25;font-family:'Yu Gothic UI';-inkscape-font-specification:'Yu Gothic UI';letter-spacing:0px;word-spacing:0px;fill:#000000;fill-opacity:1;stroke:none;stroke-width:0.26458332"
       id="text1059"
       transform="translate(-5.5789875,11.112501)">
      <path
         d="m 10.750076,218.86798 v -0.27285 q 0.04685,0.0413 0.111621,0.0744 0.06615,0.0331 0.137804,0.0565 0.07304,0.022 0.146072,0.0344 0.07304,0.0124 0.135047,0.0124 0.213596,0 0.318327,-0.0786 0.106109,-0.0799 0.106109,-0.22876 0,-0.0799 -0.03583,-0.13918 -0.03445,-0.0593 -0.09646,-0.10749 -0.06201,-0.0496 -0.14745,-0.0937 -0.08406,-0.0455 -0.181901,-0.0951 -0.103353,-0.0524 -0.192925,-0.10611 -0.08957,-0.0537 -0.155718,-0.11851 -0.06615,-0.0648 -0.104731,-0.14607 -0.03721,-0.0827 -0.03721,-0.19292 0,-0.13505 0.05926,-0.23427 0.05926,-0.1006 0.155719,-0.16537 0.09646,-0.0648 0.219108,-0.0965 0.124023,-0.0317 0.252181,-0.0317 0.292144,0 0.425814,0.0703 v 0.26045 q -0.175011,-0.12127 -0.449241,-0.12127 -0.07579,0 -0.151584,0.0165 -0.07579,0.0152 -0.135048,0.051 -0.05926,0.0358 -0.09646,0.0923 -0.03721,0.0565 -0.03721,0.1378 0,0.0758 0.02756,0.13092 0.02894,0.0551 0.08406,0.1006 0.05512,0.0455 0.133669,0.0882 0.07993,0.0427 0.183279,0.0937 0.106109,0.0524 0.201194,0.11024 0.09508,0.0579 0.166743,0.12816 0.07166,0.0703 0.112999,0.15572 0.04272,0.0854 0.04272,0.19568 0,0.14607 -0.05788,0.24804 -0.0565,0.1006 -0.15434,0.16399 -0.09646,0.0634 -0.223242,0.091 -0.12678,0.0289 -0.26734,0.0289 -0.04685,0 -0.115755,-0.008 -0.0689,-0.007 -0.14056,-0.0221 -0.07166,-0.0138 -0.136426,-0.0344 -0.06339,-0.0221 -0.101974,-0.0482 z"
         style="stroke-width:0.26458332"
         id="path1061"
         inkscape:connector-curvature="0" />
      <path
         d="M 13.389019,218.94791 H 12.34171 v -1.97611 h 1.003212 v 0.20946 H 12.57322 v 0.65733 h 0.713824 v 0.20808 H 12.57322 v 0.69177 h 0.815799 z"
         style="stroke-width:0.26458332"
         id="path1063"
         inkscape:connector-curvature="0" />
      <path
         d="m 14.794618,218.94791 h -1.02526 v -1.97611 h 0.23151 v 1.76664 h 0.79375 z"
         style="stroke-width:0.26458332"
         id="path1065"
         inkscape:connector-curvature="0" />
      <path
         d="m 16.145095,218.94791 h -1.047309 v -1.97611 h 1.003212 v 0.20946 h -0.771701 v 0.65733 h 0.713823 v 0.20808 h -0.713823 v 0.69177 h 0.815798 z"
         style="stroke-width:0.26458332"
         id="path1067"
         inkscape:connector-curvature="0" />
      <path
         d="m 17.870399,218.86522 q -0.219108,0.11576 -0.545703,0.11576 -0.42168,0 -0.675239,-0.27147 -0.253559,-0.27148 -0.253559,-0.71245 0,-0.47405 0.285254,-0.76619 0.285254,-0.29214 0.72347,-0.29214 0.28112,0 0.465777,0.0813 v 0.24667 q -0.212218,-0.11851 -0.468533,-0.11851 -0.340375,0 -0.552593,0.22737 -0.21084,0.22738 -0.21084,0.60772 0,0.36105 0.197059,0.57602 0.198438,0.2136 0.519521,0.2136 0.297656,0 0.515386,-0.1323 z"
         style="stroke-width:0.26458332"
         id="path1069"
         inkscape:connector-curvature="0" />
      <path
         d="m 19.441363,217.18126 h -0.570508 v 1.76665 h -0.23151 v -1.76665 h -0.56913 v -0.20946 h 1.371148 z"
         style="stroke-width:0.26458332"
         id="path1071"
         inkscape:connector-curvature="0" />
      <path
         d="m 19.981553,218.94791 h -0.23151 v -1.97611 h 0.23151 z"
         style="stroke-width:0.26458332"
         id="path1073"
         inkscape:connector-curvature="0" />
      <path
         d="m 21.296202,218.98098 q -0.420302,0 -0.673861,-0.27699 -0.252181,-0.27698 -0.252181,-0.72071 0,-0.4768 0.257693,-0.76068 0.257693,-0.28387 0.701422,-0.28387 0.409277,0 0.658702,0.2756 0.250803,0.27561 0.250803,0.72072 0,0.48369 -0.256315,0.76481 -0.256315,0.28112 -0.686263,0.28112 z m 0.01654,-1.83279 q -0.311436,0 -0.50574,0.22462 -0.194303,0.22462 -0.194303,0.5898 0,0.36518 0.188791,0.58842 0.190169,0.22187 0.494716,0.22187 0.325217,0 0.51263,-0.21222 0.187413,-0.21222 0.187413,-0.59394 0,-0.39136 -0.181901,-0.60496 -0.181901,-0.21359 -0.501606,-0.21359 z"
         style="stroke-width:0.26458332"
         id="path1075"
         inkscape:connector-curvature="0" />
      <path
         d="m 24.220399,218.94791 h -0.283876 l -1.016992,-1.5751 q -0.03858,-0.0593 -0.06339,-0.12402 h -0.0083 q 0.01102,0.0634 0.01102,0.27147 v 1.42765 h -0.23151 v -1.97611 h 0.300412 l 0.989432,1.55029 q 0.06201,0.0965 0.07993,0.13229 h 0.0055 q -0.01378,-0.0854 -0.01378,-0.29076 v -1.39182 h 0.23151 z"
         style="stroke-width:0.26458332"
         id="path1077"
         inkscape:connector-curvature="0" />
    </g>
    <g
       aria-label="MANUAL"
       style="font-style:normal;font-variant:normal;font-weight:normal;font-stretch:normal;font-size:2.82222223px;line-height:1.25;font-family:'Yu Gothic UI';-inkscape-font-specification:'Yu Gothic UI';letter-spacing:0px;word-spacing:0px;fill:#000000;fill-opacity:1;stroke:none;stroke-width:0.26458332"
       id="text1946"
       transform="translate(-5.884228,-0.44707235)">
      <path
         d="m 14.180013,217.62498 h -0.230132 v -1.32567 q 0,-0.15709 0.01929,-0.38447 h -0.0055 q -0.03307,0.13367 -0.05926,0.19155 l -0.675238,1.51859 h -0.112999 l -0.673861,-1.50757 q -0.02894,-0.0661 -0.05926,-0.20257 h -0.0055 q 0.01102,0.11851 0.01102,0.38723 v 1.32291 h -0.223242 v -1.9761 h 0.305925 l 0.606336,1.37804 q 0.07028,0.15847 0.09095,0.23702 h 0.0083 q 0.05926,-0.16261 0.09509,-0.24254 l 0.618739,-1.37252 h 0.289388 z"
         style="stroke-width:0.26458332"
         id="path1948"
         inkscape:connector-curvature="0" />
      <path
         d="m 16.230534,217.62498 h -0.256315 l -0.209462,-0.55397 H 14.92691 l -0.19706,0.55397 h -0.257693 l 0.757921,-1.9761 h 0.239779 z m -0.541569,-0.76205 -0.310059,-0.84198 q -0.01516,-0.0413 -0.03032,-0.13229 h -0.0055 q -0.01378,0.0841 -0.03169,0.13229 l -0.307302,0.84198 z"
         style="stroke-width:0.26458332"
         id="path1950"
         inkscape:connector-curvature="0" />
      <path
         d="m 18.112934,217.62498 h -0.283876 l -1.016992,-1.57509 q -0.03859,-0.0593 -0.06339,-0.12403 h -0.0083 q 0.01102,0.0634 0.01102,0.27148 v 1.42764 h -0.23151 v -1.9761 h 0.300412 l 0.989431,1.55029 q 0.06201,0.0965 0.07993,0.13229 h 0.0055 q -0.01378,-0.0854 -0.01378,-0.29076 v -1.39182 h 0.231511 z"
         style="stroke-width:0.26458332"
         id="path1952"
         inkscape:connector-curvature="0" />
      <path
         d="m 20.076638,216.82572 q 0,0.83234 -0.751031,0.83234 -0.719336,0 -0.719336,-0.80064 v -1.20854 h 0.231511 v 1.19338 q 0,0.60771 0.51263,0.60771 0.494716,0 0.494716,-0.58704 v -1.21405 h 0.23151 z"
         style="stroke-width:0.26458332"
         id="path1954"
         inkscape:connector-curvature="0" />
      <path
         d="m 22.100976,217.62498 h -0.256315 l -0.209462,-0.55397 h -0.837847 l -0.197059,0.55397 h -0.257694 l 0.757921,-1.9761 h 0.239779 z m -0.541569,-0.76205 -0.310058,-0.84198 q -0.01516,-0.0413 -0.03032,-0.13229 h -0.0055 q -0.01378,0.0841 -0.03169,0.13229 l -0.307303,0.84198 z"
         style="stroke-width:0.26458332"
         id="path1956"
         inkscape:connector-curvature="0" />
      <path
         d="m 23.415625,217.62498 h -1.025261 v -1.9761 h 0.231511 v 1.76664 h 0.79375 z"
         style="stroke-width:0.26458332"
         id="path1958"
         inkscape:connector-curvature="0" />
    </g>
    <g
       aria-label="VC SWITCH"
       style="font-style:normal;font-variant:normal;font-weight:600;font-stretch:normal;font-size:3.52777767px;line-height:1.25;font-family:'Yu Gothic UI';-inkscape-font-specification:'Yu Gothic UI Semi-Bold';letter-spacing:0px;word-spacing:0px;fill:#000000;fill-opacity:1;stroke:none;stroke-width:0.26458332"
       id="text1963"
       transform="translate(-4.2903492,7.8031247)">
      <path
         d="m 9.3847843,192.92986 -0.8871121,2.47013 H 8.0394745 l -0.8716091,-2.47013 h 0.4478624 l 0.6097819,1.87413 q 0.029283,0.0896 0.044786,0.20843 h 0.00689 q 0.012058,-0.0982 0.049954,-0.21187 l 0.6235622,-1.87069 z"
         style="font-style:normal;font-variant:normal;font-weight:600;font-stretch:normal;font-size:3.52777767px;font-family:'Yu Gothic UI';-inkscape-font-specification:'Yu Gothic UI Semi-Bold';stroke-width:0.26458332"
         id="path1969"
         inkscape:connector-curvature="0" />
      <path
         d="m 11.369159,195.29664 q -0.279053,0.1447 -0.694187,0.1447 -0.537434,0 -0.8612734,-0.33935 -0.3238389,-0.33934 -0.3238389,-0.89055 0,-0.59256 0.3634575,-0.95774 0.3651798,-0.36518 0.9215628,-0.36518 0.35829,0 0.594279,0.10163 v 0.40652 q -0.249769,-0.14814 -0.551215,-0.14814 -0.401354,0 -0.651123,0.25666 -0.2480469,0.25666 -0.2480469,0.68558 0,0.40824 0.2325439,0.65112 0.232544,0.24116 0.611504,0.24116 0.349678,0 0.606337,-0.16537 z"
         style="font-style:normal;font-variant:normal;font-weight:600;font-stretch:normal;font-size:3.52777767px;font-family:'Yu Gothic UI';-inkscape-font-specification:'Yu Gothic UI Semi-Bold';stroke-width:0.26458332"
         id="path1971"
         inkscape:connector-curvature="0" />
      <path
         d="m 12.695521,195.30181 v -0.42203 q 0.05684,0.0517 0.134359,0.093 0.07924,0.0413 0.167087,0.0706 0.08785,0.0276 0.1757,0.0431 0.08785,0.0155 0.161919,0.0155 0.258382,0 0.384128,-0.0861 0.127469,-0.0861 0.127469,-0.24977 0,-0.0879 -0.04306,-0.15159 -0.04134,-0.0654 -0.117133,-0.11885 -0.07579,-0.0534 -0.179145,-0.10163 -0.10163,-0.05 -0.218764,-0.10336 -0.125746,-0.0672 -0.234266,-0.13608 -0.108521,-0.0689 -0.18948,-0.15158 -0.07924,-0.0844 -0.125746,-0.18948 -0.04479,-0.10508 -0.04479,-0.24633 0,-0.17397 0.07752,-0.30144 0.07924,-0.12919 0.206706,-0.21188 0.129191,-0.0844 0.292833,-0.12402 0.163642,-0.0413 0.334174,-0.0413 0.387573,0 0.564996,0.0879 v 0.4048 q -0.210151,-0.15159 -0.54088,-0.15159 -0.0913,0 -0.18259,0.0172 -0.08957,0.0172 -0.16192,0.0568 -0.07062,0.0396 -0.11541,0.10163 -0.04479,0.062 -0.04479,0.14987 0,0.0827 0.03445,0.14297 0.03445,0.0603 0.09991,0.11024 0.06718,0.0499 0.16192,0.0982 0.09646,0.0465 0.222208,0.10163 0.129191,0.0672 0.242879,0.14124 0.115411,0.0741 0.201539,0.16365 0.08785,0.0896 0.137803,0.19981 0.05168,0.10852 0.05168,0.24805 0,0.18776 -0.07579,0.31695 -0.07579,0.12919 -0.204983,0.21015 -0.127469,0.081 -0.294556,0.11713 -0.167087,0.0362 -0.353122,0.0362 -0.06201,0 -0.153307,-0.0103 -0.08957,-0.009 -0.184313,-0.0276 -0.09474,-0.0172 -0.179145,-0.0431 -0.08441,-0.0258 -0.136081,-0.0586 z"
         style="font-style:normal;font-variant:normal;font-weight:600;font-stretch:normal;font-size:3.52777767px;font-family:'Yu Gothic UI';-inkscape-font-specification:'Yu Gothic UI Semi-Bold';stroke-width:0.26458332"
         id="path1973"
         inkscape:connector-curvature="0" />
      <path
         d="m 17.761534,192.92986 -0.676961,2.47013 h -0.463366 l -0.470255,-1.72771 q -0.02928,-0.11024 -0.03617,-0.24116 h -0.0069 q -0.0086,0.1223 -0.04134,0.23771 l -0.471978,1.73116 h -0.473701 l -0.690741,-2.47013 h 0.449585 l 0.447862,1.80868 q 0.02756,0.11368 0.03445,0.23771 h 0.0086 q 0.0069,-0.0879 0.04823,-0.23771 l 0.506429,-1.80868 h 0.422024 l 0.468533,1.82246 q 0.02412,0.093 0.03617,0.22048 h 0.0069 q 0.0052,-0.0861 0.03962,-0.22737 l 0.43925,-1.81557 z"
         style="font-style:normal;font-variant:normal;font-weight:600;font-stretch:normal;font-size:3.52777767px;font-family:'Yu Gothic UI';-inkscape-font-specification:'Yu Gothic UI Semi-Bold';stroke-width:0.26458332"
         id="path1975"
         inkscape:connector-curvature="0" />
      <path
         d="m 18.528068,195.39999 h -0.422025 v -2.47013 h 0.422025 z"
         style="font-style:normal;font-variant:normal;font-weight:600;font-stretch:normal;font-size:3.52777767px;font-family:'Yu Gothic UI';-inkscape-font-specification:'Yu Gothic UI Semi-Bold';stroke-width:0.26458332"
         id="path1977"
         inkscape:connector-curvature="0" />
      <path
         d="m 20.719148,193.27782 h -0.70969 v 2.12217 h -0.409966 v -2.12217 h -0.707967 v -0.34796 h 1.827623 z"
         style="font-style:normal;font-variant:normal;font-weight:600;font-stretch:normal;font-size:3.52777767px;font-family:'Yu Gothic UI';-inkscape-font-specification:'Yu Gothic UI Semi-Bold';stroke-width:0.26458332"
         id="path1979"
         inkscape:connector-curvature="0" />
      <path
         d="m 22.772425,195.29664 q -0.279053,0.1447 -0.694187,0.1447 -0.537435,0 -0.861274,-0.33935 -0.323839,-0.33934 -0.323839,-0.89055 0,-0.59256 0.363458,-0.95774 0.36518,-0.36518 0.921563,-0.36518 0.35829,0 0.594279,0.10163 v 0.40652 q -0.24977,-0.14814 -0.551216,-0.14814 -0.401353,0 -0.651123,0.25666 -0.248046,0.25666 -0.248046,0.68558 0,0.40824 0.232543,0.65112 0.232544,0.24116 0.611505,0.24116 0.349677,0 0.606337,-0.16537 z"
         style="font-style:normal;font-variant:normal;font-weight:600;font-stretch:normal;font-size:3.52777767px;font-family:'Yu Gothic UI';-inkscape-font-specification:'Yu Gothic UI Semi-Bold';stroke-width:0.26458332"
         id="path1981"
         inkscape:connector-curvature="0" />
      <path
         d="m 25.225333,195.39999 h -0.411689 v -1.07142 h -1.16272 v 1.07142 h -0.409966 v -2.47013 h 0.409966 v 1.0387 h 1.16272 v -1.0387 h 0.411689 z"
         style="font-style:normal;font-variant:normal;font-weight:600;font-stretch:normal;font-size:3.52777767px;font-family:'Yu Gothic UI';-inkscape-font-specification:'Yu Gothic UI Semi-Bold';stroke-width:0.26458332"
         id="path1983"
         inkscape:connector-curvature="0" />
    </g>
    <g
       aria-label="POLY"
       style="font-style:normal;font-variant:normal;font-weight:600;font-stretch:normal;font-size:3.52777767px;line-height:1.25;font-family:'Yu Gothic UI';-inkscape-font-specification:'Yu Gothic UI Semi-Bold';letter-spacing:0px;word-spacing:0px;fill:#000000;fill-opacity:1;stroke:none;stroke-width:0.26458332"
       id="text1967"
       transform="translate(3.6020198,8.3323168)">
      <path
         d="m 9.7089681,190.80009 v 0.89573 H 9.3007243 v -2.47014 h 0.7493087 q 0.425469,0 0.659735,0.1981 0.234267,0.19809 0.234267,0.5581 0,0.36001 -0.244602,0.58911 -0.244602,0.2291 -0.661458,0.2291 z m 0,-1.23679 v 0.90262 h 0.2652724 q 0.2635495,0 0.4013535,-0.1223 0.137804,-0.1223 0.137804,-0.34451 0,-0.43581 -0.506429,-0.43581 z"
         style="font-style:normal;font-variant:normal;font-weight:600;font-stretch:normal;font-size:3.52777767px;font-family:'Yu Gothic UI';-inkscape-font-specification:'Yu Gothic UI Semi-Bold';stroke-width:0.26458332"
         id="path1986"
         inkscape:connector-curvature="0" />
      <path
         d="m 12.378917,191.73716 q -0.53399,0 -0.856106,-0.34623 -0.320394,-0.34624 -0.320394,-0.9009 0,-0.596 0.327284,-0.95084 0.327284,-0.35485 0.888835,-0.35485 0.520209,0 0.837158,0.34451 0.318671,0.34451 0.318671,0.90089 0,0.60462 -0.325561,0.95602 -0.325562,0.3514 -0.869887,0.3514 z m 0.01895,-2.19281 q -0.339342,0 -0.552938,0.25322 -0.211873,0.25321 -0.211873,0.66662 0,0.41169 0.206706,0.66319 0.206705,0.25149 0.54088,0.25149 0.354844,0 0.559828,-0.23944 0.204983,-0.23943 0.204983,-0.67007 0,-0.44269 -0.199816,-0.68385 -0.198093,-0.24116 -0.54777,-0.24116 z"
         style="font-style:normal;font-variant:normal;font-weight:600;font-stretch:normal;font-size:3.52777767px;font-family:'Yu Gothic UI';-inkscape-font-specification:'Yu Gothic UI Semi-Bold';stroke-width:0.26458332"
         id="path1988"
         inkscape:connector-curvature="0" />
      <path
         d="m 15.395098,191.69582 h -1.367702 v -2.47014 h 0.409966 v 2.1239 h 0.957736 z"
         style="font-style:normal;font-variant:normal;font-weight:600;font-stretch:normal;font-size:3.52777767px;font-family:'Yu Gothic UI';-inkscape-font-specification:'Yu Gothic UI Semi-Bold';stroke-width:0.26458332"
         id="path1990"
         inkscape:connector-curvature="0" />
      <path
         d="m 17.332964,189.22568 -0.809597,1.57269 v 0.89745 H 16.1134 v -0.88884 l -0.788926,-1.5813 h 0.46681 l 0.485758,1.05937 q 0.0086,0.0189 0.05168,0.14297 h 0.0052 q 0.0155,-0.0551 0.05684,-0.14297 l 0.508151,-1.05937 z"
         style="font-style:normal;font-variant:normal;font-weight:600;font-stretch:normal;font-size:3.52777767px;font-family:'Yu Gothic UI';-inkscape-font-specification:'Yu Gothic UI Semi-Bold';stroke-width:0.26458332"
         id="path1992"
         inkscape:connector-curvature="0" />
    </g>
  </g>
  <g
     inkscape:groupmode="layer"
     id="layer2"
     inkscape:label="Grid6"
     style="display:none"
     sodipodi:insensitive="true">
    <g
       transform="translate(3.96875,3.333209e-6)"
       style="display:inline"
       id="g953">
      <circle
         style="display:inline;opacity:1;fill:none;fill-opacity:1;stroke:#000000;stroke-width:0.05172414;stroke-linecap:square;stroke-linejoin:round;stroke-miterlimit:4;stroke-dasharray:none;stroke-dashoffset:0;stroke-opacity:1;paint-order:markers fill stroke"
         id="circle1336"
         cx="7.9360795"
         cy="13.229558"
         r="5.4741378" />
      <circle
         r="5.4741378"
         cy="25.400398"
         cx="7.9360795"
         id="circle881"
         style="display:inline;opacity:1;fill:none;fill-opacity:1;stroke:#000000;stroke-width:0.05172414;stroke-linecap:square;stroke-linejoin:round;stroke-miterlimit:4;stroke-dasharray:none;stroke-dashoffset:0;stroke-opacity:1;paint-order:markers fill stroke" />
      <circle
         style="display:inline;opacity:1;fill:none;fill-opacity:1;stroke:#000000;stroke-width:0.05172414;stroke-linecap:square;stroke-linejoin:round;stroke-miterlimit:4;stroke-dasharray:none;stroke-dashoffset:0;stroke-opacity:1;paint-order:markers fill stroke"
         id="circle883"
         cx="7.9360795"
         cy="37.571243"
         r="5.4741378" />
      <circle
         r="5.4741378"
         cy="49.742088"
         cx="7.9360795"
         id="circle885"
         style="display:inline;opacity:1;fill:none;fill-opacity:1;stroke:#000000;stroke-width:0.05172414;stroke-linecap:square;stroke-linejoin:round;stroke-miterlimit:4;stroke-dasharray:none;stroke-dashoffset:0;stroke-opacity:1;paint-order:markers fill stroke" />
      <circle
         style="display:inline;opacity:1;fill:none;fill-opacity:1;stroke:#000000;stroke-width:0.05172414;stroke-linecap:square;stroke-linejoin:round;stroke-miterlimit:4;stroke-dasharray:none;stroke-dashoffset:0;stroke-opacity:1;paint-order:markers fill stroke"
         id="circle887"
         cx="7.9360795"
         cy="61.912933"
         r="5.4741378" />
      <circle
         r="5.4741378"
         cy="74.083778"
         cx="7.9360795"
         id="circle889"
         style="display:inline;opacity:1;fill:none;fill-opacity:1;stroke:#000000;stroke-width:0.05172414;stroke-linecap:square;stroke-linejoin:round;stroke-miterlimit:4;stroke-dasharray:none;stroke-dashoffset:0;stroke-opacity:1;paint-order:markers fill stroke" />
      <circle
         style="display:inline;opacity:1;fill:none;fill-opacity:1;stroke:#000000;stroke-width:0.05172414;stroke-linecap:square;stroke-linejoin:round;stroke-miterlimit:4;stroke-dasharray:none;stroke-dashoffset:0;stroke-opacity:1;paint-order:markers fill stroke"
         id="circle891"
         cx="7.9360795"
         cy="86.254623"
         r="5.4741378" />
      <text
         id="text3821-8"
         y="5.2916646"
         x="17.197916"
         style="font-style:normal;font-weight:normal;font-size:2.82222223px;line-height:1.25;font-family:sans-serif;letter-spacing:0px;word-spacing:0px;display:inline;fill:#000000;fill-opacity:1;stroke:none;stroke-width:0.26458332"
         xml:space="preserve"><tspan
           style="stroke-width:0.26458332"
           y="7.7886696"
           x="17.197916"
           id="tspan3819-5"
           sodipodi:role="line" /></text>
      <path
         style="display:inline;fill:none;stroke:#000000;stroke-width:0.05;stroke-linecap:butt;stroke-linejoin:miter;stroke-miterlimit:4;stroke-dasharray:none;stroke-opacity:1"
         d="m 7.9375,-1e-5 -3e-6,100.54167"
         id="path881-8"
         inkscape:connector-curvature="0"
         sodipodi:nodetypes="cc" />
      <path
         sodipodi:nodetypes="cc"
         inkscape:connector-curvature="0"
         id="path890-2"
         d="m 3.968752,0 -4e-6,100.54167"
         style="display:inline;fill:none;stroke:#000000;stroke-width:0.05;stroke-linecap:butt;stroke-linejoin:miter;stroke-miterlimit:4;stroke-dasharray:none;stroke-opacity:1" />
      <path
         style="display:inline;fill:none;stroke:#000000;stroke-width:0.05;stroke-linecap:butt;stroke-linejoin:miter;stroke-miterlimit:4;stroke-dasharray:none;stroke-opacity:1"
         d="m 11.906253,0 -4e-6,100.54167"
         id="path895-1"
         inkscape:connector-curvature="0"
         sodipodi:nodetypes="cc" />
      <path
         sodipodi:nodetypes="cc"
         inkscape:connector-curvature="0"
         id="path905-6"
         d="m 0,13.22881 15.875,3.6e-4"
         style="display:inline;fill:none;stroke:#000000;stroke-width:0.05;stroke-linecap:butt;stroke-linejoin:miter;stroke-miterlimit:4;stroke-dasharray:none;stroke-opacity:1" />
      <path
         sodipodi:nodetypes="cc"
         style="display:inline;fill:none;stroke:#000000;stroke-width:0.05;stroke-linecap:butt;stroke-linejoin:miter;stroke-miterlimit:4;stroke-dasharray:none;stroke-opacity:1"
         d="M 0,25.40004 15.875,25.4"
         id="path931"
         inkscape:connector-curvature="0" />
      <path
         sodipodi:nodetypes="cc"
         inkscape:connector-curvature="0"
         id="path933"
         d="m 0,37.56925 15.875,0.002"
         style="display:inline;fill:none;stroke:#000000;stroke-width:0.05;stroke-linecap:butt;stroke-linejoin:miter;stroke-miterlimit:4;stroke-dasharray:none;stroke-opacity:1" />
      <path
         sodipodi:nodetypes="cc"
         inkscape:connector-curvature="0"
         id="path940"
         d="m 0,49.74009 15.875,0.002"
         style="display:inline;fill:none;stroke:#000000;stroke-width:0.05;stroke-linecap:butt;stroke-linejoin:miter;stroke-miterlimit:4;stroke-dasharray:none;stroke-opacity:1" />
      <path
         sodipodi:nodetypes="cc"
         style="display:inline;fill:none;stroke:#000000;stroke-width:0.05;stroke-linecap:butt;stroke-linejoin:miter;stroke-miterlimit:4;stroke-dasharray:none;stroke-opacity:1"
         d="m 0,61.91093 15.875,0.002"
         id="path950"
         inkscape:connector-curvature="0" />
      <path
         sodipodi:nodetypes="cc"
         inkscape:connector-curvature="0"
         id="path973"
         d="m 0,74.08177 15.875,0.002"
         style="display:inline;fill:none;stroke:#000000;stroke-width:0.05;stroke-linecap:butt;stroke-linejoin:miter;stroke-miterlimit:4;stroke-dasharray:none;stroke-opacity:1" />
      <path
         sodipodi:nodetypes="cc"
         style="display:inline;fill:none;stroke:#000000;stroke-width:0.05;stroke-linecap:butt;stroke-linejoin:miter;stroke-miterlimit:4;stroke-dasharray:none;stroke-opacity:1"
         d="m 0,86.25261 15.875,0.002"
         id="path1013"
         inkscape:connector-curvature="0" />
      <circle
         r="4.0999999"
         cy="13.227975"
         cx="7.9523039"
         id="circle958"
         style="display:inline;opacity:1;fill:none;fill-opacity:1;stroke:#000000;stroke-width:0.05;stroke-linecap:square;stroke-linejoin:round;stroke-miterlimit:4;stroke-dasharray:none;stroke-dashoffset:0;stroke-opacity:1;paint-order:markers fill stroke" />
      <circle
         style="display:inline;opacity:1;fill:none;fill-opacity:1;stroke:#000000;stroke-width:0.05;stroke-linecap:square;stroke-linejoin:round;stroke-miterlimit:4;stroke-dasharray:none;stroke-dashoffset:0;stroke-opacity:1;paint-order:markers fill stroke"
         id="circle964"
         cx="7.9523039"
         cy="25.398811"
         r="4.0999999" />
      <circle
         r="4.0999999"
         cy="37.569649"
         cx="7.9523039"
         id="circle972"
         style="display:inline;opacity:1;fill:none;fill-opacity:1;stroke:#000000;stroke-width:0.05;stroke-linecap:square;stroke-linejoin:round;stroke-miterlimit:4;stroke-dasharray:none;stroke-dashoffset:0;stroke-opacity:1;paint-order:markers fill stroke" />
      <circle
         style="display:inline;opacity:1;fill:none;fill-opacity:1;stroke:#000000;stroke-width:0.05;stroke-linecap:square;stroke-linejoin:round;stroke-miterlimit:4;stroke-dasharray:none;stroke-dashoffset:0;stroke-opacity:1;paint-order:markers fill stroke"
         id="circle980"
         cx="7.9523039"
         cy="49.740501"
         r="4.0999999" />
      <circle
         r="4.0999999"
         cy="61.911339"
         cx="7.9523039"
         id="circle988"
         style="display:inline;opacity:1;fill:none;fill-opacity:1;stroke:#000000;stroke-width:0.05;stroke-linecap:square;stroke-linejoin:round;stroke-miterlimit:4;stroke-dasharray:none;stroke-dashoffset:0;stroke-opacity:1;paint-order:markers fill stroke" />
      <circle
         style="display:inline;opacity:1;fill:none;fill-opacity:1;stroke:#000000;stroke-width:0.05;stroke-linecap:square;stroke-linejoin:round;stroke-miterlimit:4;stroke-dasharray:none;stroke-dashoffset:0;stroke-opacity:1;paint-order:markers fill stroke"
         id="circle996"
         cx="7.9523039"
         cy="74.082176"
         r="4.0999999" />
      <circle
         r="4.0999999"
         cy="86.253014"
         cx="7.9523039"
         id="circle1004"
         style="display:inline;opacity:1;fill:none;fill-opacity:1;stroke:#000000;stroke-width:0.05;stroke-linecap:square;stroke-linejoin:round;stroke-miterlimit:4;stroke-dasharray:none;stroke-dashoffset:0;stroke-opacity:1;paint-order:markers fill stroke" />
    </g>
  </g>
</svg>
