<?xml version="1.0" encoding="UTF-8" standalone="no"?>
<!-- Created with Inkscape (http://www.inkscape.org/) -->

<svg
   xmlns:dc="http://purl.org/dc/elements/1.1/"
   xmlns:cc="http://creativecommons.org/ns#"
   xmlns:rdf="http://www.w3.org/1999/02/22-rdf-syntax-ns#"
   xmlns:svg="http://www.w3.org/2000/svg"
   xmlns="http://www.w3.org/2000/svg"
   xmlns:sodipodi="http://sodipodi.sourceforge.net/DTD/sodipodi-0.dtd"
   xmlns:inkscape="http://www.inkscape.org/namespaces/inkscape"
   width="60"
   height="380"
   viewBox="0 0 15.875001 100.54167"
   version="1.1"
   id="svg8"
   inkscape:version="0.92.5 (2060ec1f9f, 2020-04-08)"
   sodipodi:docname="TFF.svg">
  <defs
     id="defs2" />
  <sodipodi:namedview
     id="base"
     pagecolor="#ffffff"
     bordercolor="#666666"
     borderopacity="1.0"
     inkscape:pageopacity="0.0"
     inkscape:pageshadow="2"
     inkscape:zoom="2.1526316"
     inkscape:cx="-55.012224"
     inkscape:cy="190"
     inkscape:document-units="mm"
     inkscape:current-layer="layer1"
     showgrid="true"
     units="px"
     inkscape:snap-bbox="true"
     inkscape:snap-page="true"
     inkscape:bbox-nodes="true"
     inkscape:snap-bbox-edge-midpoints="true"
     inkscape:window-width="1920"
     inkscape:window-height="1017"
     inkscape:window-x="-8"
     inkscape:window-y="-8"
     inkscape:window-maximized="1">
    <inkscape:grid
       type="xygrid"
       id="grid116" />
  </sodipodi:namedview>
  <metadata
     id="metadata5">
    <rdf:RDF>
      <cc:Work
         rdf:about="">
        <dc:format>image/svg+xml</dc:format>
        <dc:type
           rdf:resource="http://purl.org/dc/dcmitype/StillImage" />
        <dc:title />
      </cc:Work>
    </rdf:RDF>
  </metadata>
  <g
     inkscape:groupmode="layer"
     id="layer3"
     inkscape:label="Panel"
     sodipodi:insensitive="true">
    <path
       sodipodi:type="inkscape:offset"
       inkscape:radius="0"
       inkscape:original="M 0 196.45898 L 0 297 L 15.875 297 L 15.875 196.45898 L 0 196.45898 z "
       style="fill:#75a555;stroke-width:0.3310422"
       id="rect3855"
       d="M 0,196.45898 V 297 H 15.875 V 196.45898 Z"
       transform="matrix(1,0,0,1.0000064,0,-196.46023)" />
  </g>
  <g
     inkscape:label="Layer 1"
     inkscape:groupmode="layer"
     id="layer1"
     transform="translate(0,-196.45832)">
    <text
       xml:space="preserve"
       style="font-style:normal;font-weight:normal;font-size:2.82222223px;line-height:1.25;font-family:sans-serif;letter-spacing:0px;word-spacing:0px;fill:#000000;fill-opacity:1;stroke:none;stroke-width:0.26458332"
       x="17.197916"
       y="201.74998"
       id="text3821"><tspan
         sodipodi:role="line"
         id="tspan3819"
         x="17.197916"
         y="204.32478"
         style="stroke-width:0.26458332" /></text>
    <g
       aria-label="/^M^\"
       style="font-style:normal;font-variant:normal;font-weight:normal;font-stretch:normal;font-size:2.82222223px;line-height:1.25;font-family:'Copperplate Gothic Light';-inkscape-font-specification:'Copperplate Gothic Light, ';letter-spacing:0px;word-spacing:0px;fill:#000000;fill-opacity:1;stroke:#000000;stroke-width:0.2;stroke-miterlimit:4;stroke-dasharray:none;stroke-opacity:1"
       id="text956"
       transform="translate(-17.419069,0.57062363)">
      <path
         d="m 21.203855,291.40545 v 0.0386 h -0.434082 v -0.0386 q 0.09509,-0.006 0.224621,-0.17088 l 1.094162,-1.4621 q 0.07441,-0.1006 0.07441,-0.12402 0,-0.0372 -0.06615,-0.0482 v -0.0372 h 0.423058 v 0.0372 q -0.09508,0.006 -0.22462,0.17087 l -1.08176,1.46348 q -0.07579,0.10197 -0.07579,0.12402 0,0.0358 0.06615,0.0469 z"
         style="font-style:normal;font-variant:normal;font-weight:normal;font-stretch:normal;font-size:2.82222223px;line-height:1.25;font-family:'Copperplate Gothic Light';-inkscape-font-specification:'Copperplate Gothic Light, ';stroke:#000000;stroke-width:0.2;stroke-miterlimit:4;stroke-dasharray:none;stroke-opacity:1"
         id="path958"
         inkscape:connector-curvature="0" />
      <path
         d="M 22.940183,290.3857 H 22.73899 l 0.493338,-0.8282 h 0.243912 l 0.493338,0.8282 h -0.20395 l -0.413411,-0.68075 z"
         style="font-style:normal;font-variant:normal;font-weight:normal;font-stretch:normal;font-size:2.82222223px;line-height:1.25;font-family:'Copperplate Gothic Light';-inkscape-font-specification:'Copperplate Gothic Light, ';stroke:#000000;stroke-width:0.2;stroke-miterlimit:4;stroke-dasharray:none;stroke-opacity:1"
         id="path960"
         inkscape:connector-curvature="0" />
      <path
         d="m 25.342104,291.44403 -0.789616,-1.58061 v 1.418 q 0,0.0565 0.01791,0.0813 0.01791,0.0234 0.07028,0.0372 v 0.0441 h -0.373449 v -0.0441 q 0.05237,-0.0138 0.07028,-0.0372 0.01792,-0.0234 0.01792,-0.0813 v -1.5558 q 0,-0.0579 -0.01792,-0.0813 -0.01791,-0.0248 -0.07028,-0.0372 v -0.0441 h 0.487826 v 0.0441 q -0.06752,0.0234 -0.06752,0.0579 0,0.0165 0.04547,0.10611 l 0.62563,1.24161 0.628385,-1.25263 q 0.03307,-0.0661 0.03307,-0.0937 0,-0.0358 -0.06752,-0.0593 v -0.0441 h 0.49196 v 0.0441 q -0.05237,0.0138 -0.07028,0.0372 -0.01792,0.0234 -0.01792,0.0813 v 1.5558 q 0,0.0565 0.01792,0.0813 0.01791,0.0234 0.07028,0.0372 v 0.0441 h -0.392741 v -0.0441 q 0.05374,-0.0138 0.07028,-0.0372 0.01791,-0.0234 0.01791,-0.0813 v -1.418 z"
         style="font-style:normal;font-variant:normal;font-weight:normal;font-stretch:normal;font-size:2.82222223px;line-height:1.25;font-family:'Copperplate Gothic Light';-inkscape-font-specification:'Copperplate Gothic Light, ';stroke:#000000;stroke-width:0.2;stroke-miterlimit:4;stroke-dasharray:none;stroke-opacity:1"
         id="path962"
         inkscape:connector-curvature="0" />
      <path
         d="m 26.942006,290.3857 h -0.201193 l 0.493338,-0.8282 h 0.243912 l 0.493338,0.8282 h -0.20395 l -0.413411,-0.68075 z"
         style="font-style:normal;font-variant:normal;font-weight:normal;font-stretch:normal;font-size:2.82222223px;line-height:1.25;font-family:'Copperplate Gothic Light';-inkscape-font-specification:'Copperplate Gothic Light, ';stroke:#000000;stroke-width:0.2;stroke-miterlimit:4;stroke-dasharray:none;stroke-opacity:1"
         id="path964"
         inkscape:connector-curvature="0" />
      <path
         d="m 28.617701,289.56301 v 0.0372 q -0.06615,0.011 -0.06615,0.0482 0,0.0234 0.07441,0.12402 l 1.092784,1.4621 q 0.129536,0.16536 0.22462,0.17088 v 0.0386 h -0.434082 v -0.0386 q 0.06615,-0.011 0.06615,-0.0469 0,-0.0207 -0.07579,-0.12402 l -1.080382,-1.46348 q -0.129535,-0.16536 -0.22462,-0.17087 v -0.0372 z"
         style="font-style:normal;font-variant:normal;font-weight:normal;font-stretch:normal;font-size:2.82222223px;line-height:1.25;font-family:'Copperplate Gothic Light';-inkscape-font-specification:'Copperplate Gothic Light, ';stroke:#000000;stroke-width:0.2;stroke-miterlimit:4;stroke-dasharray:none;stroke-opacity:1"
         id="path966"
         inkscape:connector-curvature="0" />
    </g>
    <g
       aria-label="ENABLE"
       style="font-style:normal;font-variant:normal;font-weight:normal;font-stretch:normal;font-size:2.82222223px;line-height:1.25;font-family:'Yu Gothic UI';-inkscape-font-specification:'Yu Gothic UI';letter-spacing:0px;word-spacing:0px;fill:#000000;fill-opacity:1;stroke:none;stroke-width:0.26458332"
       id="text963"
       transform="translate(-12.879449,5.6626759)">
      <path
         d="m 17.18138,220.27081 h -1.047309 v -1.9761 h 1.003212 v 0.20946 h -0.771701 v 0.65732 h 0.713823 v 0.20809 h -0.713823 v 0.69177 h 0.815798 z"
         style="stroke-width:0.26458332"
         id="path986"
         inkscape:connector-curvature="0" />
      <path
         d="m 19.154731,220.27081 h -0.283876 l -1.016992,-1.57509 q -0.03859,-0.0593 -0.06339,-0.12403 h -0.0083 q 0.01102,0.0634 0.01102,0.27148 v 1.42764 h -0.23151 v -1.9761 h 0.300412 l 0.989432,1.55029 q 0.06201,0.0965 0.07993,0.13229 h 0.0055 q -0.01378,-0.0854 -0.01378,-0.29077 v -1.39181 h 0.23151 z"
         style="stroke-width:0.26458332"
         id="path988"
         inkscape:connector-curvature="0" />
      <path
         d="m 21.202496,220.27081 h -0.256315 l -0.209462,-0.55397 h -0.837847 l -0.19706,0.55397 h -0.257693 l 0.757921,-1.9761 h 0.239779 z m -0.541569,-0.76205 -0.310059,-0.84198 q -0.01516,-0.0413 -0.03032,-0.1323 h -0.0055 q -0.01378,0.0841 -0.03169,0.1323 l -0.307302,0.84198 z"
         style="stroke-width:0.26458332"
         id="path990"
         inkscape:connector-curvature="0" />
      <path
         d="m 21.491884,220.27081 v -1.9761 h 0.562239 q 0.256315,0 0.406521,0.1254 0.150207,0.1254 0.150207,0.32659 0,0.16812 -0.09095,0.29215 -0.09095,0.12402 -0.250803,0.17639 v 0.006 q 0.199816,0.0234 0.319705,0.15158 0.119889,0.12678 0.119889,0.33073 0,0.25356 -0.181901,0.41066 -0.181901,0.15709 -0.458886,0.15709 z m 0.23151,-1.76664 v 0.63803 h 0.237023 q 0.190169,0 0.299034,-0.0909 0.108865,-0.0923 0.108865,-0.25907 0,-0.28801 -0.378961,-0.28801 z m 0,0.84611 v 0.71107 h 0.314193 q 0.203949,0 0.31557,-0.0965 0.113,-0.0965 0.113,-0.26458 0,-0.35003 -0.476802,-0.35003 z"
         style="stroke-width:0.26458332"
         id="path992"
         inkscape:connector-curvature="0" />
      <path
         d="m 24.137717,220.27081 h -1.02526 v -1.9761 h 0.23151 v 1.76664 h 0.79375 z"
         style="stroke-width:0.26458332"
         id="path994"
         inkscape:connector-curvature="0" />
      <path
         d="m 25.488194,220.27081 h -1.047309 v -1.9761 h 1.003212 v 0.20946 h -0.771701 v 0.65732 h 0.713824 v 0.20809 h -0.713824 v 0.69177 h 0.815798 z"
         style="stroke-width:0.26458332"
         id="path996"
         inkscape:connector-curvature="0" />
    </g>
    <rect
       transform="scale(1,-1)"
       y="-267.89581"
       x="2.6458333"
       height="11.377076"
       width="10.583333"
       id="rect1006"
       style="fill:#528d00;stroke-width:0.11043616" />
    <rect
       transform="scale(1,-1)"
       y="-284.56458"
       x="2.6458333"
       height="11.906255"
       width="10.583333"
       id="rect1008"
       style="fill:#528d00;stroke-width:0.11297531" />
    <path
       inkscape:connector-curvature="0"
       id="path1010"
       d="M 3.9687416,273.49544 H 5.5562407"
       style="fill:none;stroke:#000000;stroke-width:0.26458332px;stroke-linecap:butt;stroke-linejoin:miter;stroke-opacity:1" />
    <g
       transform="translate(-20.20439,54.8405)"
       id="g1018"
       style="font-style:normal;font-variant:normal;font-weight:normal;font-stretch:normal;font-size:2.82222223px;line-height:1.25;font-family:'Yu Gothic UI';-inkscape-font-specification:'Yu Gothic UI';letter-spacing:0px;word-spacing:0px;fill:#000000;fill-opacity:1;stroke:none;stroke-width:0.26458332"
       aria-label="Q">
      <path
         inkscape:connector-curvature="0"
         id="path1016"
         style="stroke-width:0.26458332"
         d="m 24.868077,204.42889 q -0.418923,0 -0.67386,-0.27699 -0.252181,-0.27699 -0.252181,-0.72071 0,-0.47818 0.257693,-0.76068 0.259071,-0.28388 0.701421,-0.28388 0.407899,0 0.658702,0.27561 0.250803,0.27561 0.250803,0.72071 0,0.4837 -0.256315,0.76482 -0.06063,0.0675 -0.129535,0.11575 l 0.555349,0.39825 h -0.420302 l -0.37207,-0.27836 q -0.146072,0.0455 -0.319705,0.0455 z m 0.01654,-1.83279 q -0.311437,0 -0.50574,0.22462 -0.194304,0.22462 -0.194304,0.5898 0,0.3638 0.188792,0.58842 0.190169,0.22186 0.494715,0.22186 0.325217,0 0.51263,-0.21222 0.187414,-0.21221 0.187414,-0.59393 0,-0.39274 -0.181901,-0.60496 -0.181901,-0.21359 -0.501606,-0.21359 z" />
    </g>
    <g
       aria-label="Q"
       style="font-style:normal;font-variant:normal;font-weight:normal;font-stretch:normal;font-size:2.82222223px;line-height:1.25;font-family:'Yu Gothic UI';-inkscape-font-specification:'Yu Gothic UI';letter-spacing:0px;word-spacing:0px;fill:#000000;fill-opacity:1;stroke:none;stroke-width:0.26458332"
       id="g1040"
       transform="translate(-20.196038,71.507021)">
      <path
         d="m 24.868077,204.42889 q -0.418923,0 -0.67386,-0.27699 -0.252181,-0.27699 -0.252181,-0.72071 0,-0.47818 0.257693,-0.76068 0.259071,-0.28388 0.701421,-0.28388 0.407899,0 0.658702,0.27561 0.250803,0.27561 0.250803,0.72071 0,0.4837 -0.256315,0.76482 -0.06063,0.0675 -0.129535,0.11575 l 0.555349,0.39825 h -0.420302 l -0.37207,-0.27836 q -0.146072,0.0455 -0.319705,0.0455 z m 0.01654,-1.83279 q -0.311437,0 -0.50574,0.22462 -0.194304,0.22462 -0.194304,0.5898 0,0.3638 0.188792,0.58842 0.190169,0.22186 0.494715,0.22186 0.325217,0 0.51263,-0.21222 0.187414,-0.21221 0.187414,-0.59393 0,-0.39274 -0.181901,-0.60496 -0.181901,-0.21359 -0.501606,-0.21359 z"
         style="stroke-width:0.26458332"
         id="path1038"
         inkscape:connector-curvature="0" />
    </g>
    <g
       transform="translate(-0.00460365,7.1430674)"
       aria-label="RESET"
       style="font-style:normal;font-variant:normal;font-weight:normal;font-stretch:normal;font-size:2.82222223px;line-height:1.25;font-family:'Yu Gothic UI';-inkscape-font-specification:'Yu Gothic UI';letter-spacing:0px;word-spacing:0px;display:inline;fill:#000000;fill-opacity:1;stroke:none;stroke-width:0.26458332"
       id="text932">
      <path
         inkscape:connector-curvature="0"
         d="M 5.7491755,235.43709 H 5.4735679 l -0.3307292,-0.55397 q -0.045475,-0.0772 -0.088194,-0.13092 -0.042719,-0.0551 -0.088194,-0.0896 -0.044097,-0.0345 -0.096463,-0.0496 -0.050987,-0.0165 -0.1157552,-0.0165 H 4.5640627 v 0.84061 H 4.3325523 V 233.461 h 0.5898003 q 0.1295356,0 0.2384006,0.0331 0.1102431,0.0317 0.1901693,0.0978 0.081304,0.0661 0.1267795,0.16537 0.045475,0.0978 0.045475,0.23013 0,0.10335 -0.031695,0.19017 -0.030317,0.0854 -0.088195,0.15296 -0.056499,0.0675 -0.1378038,0.11576 -0.079926,0.0469 -0.180523,0.073 v 0.006 q 0.049609,0.022 0.085438,0.051 0.037207,0.0276 0.07028,0.0662 0.033073,0.0386 0.064768,0.0882 0.033073,0.0482 0.073036,0.113 z m -1.1851128,-1.76665 v 0.71658 h 0.3141927 q 0.086816,0 0.1598524,-0.0262 0.074414,-0.0262 0.1281576,-0.0744 0.053743,-0.0496 0.08406,-0.11989 0.030317,-0.0717 0.030317,-0.15986 0,-0.15847 -0.1033528,-0.24666 -0.1019748,-0.0896 -0.2962782,-0.0896 z"
         style="stroke-width:0.26458332"
         id="path937" />
      <path
         inkscape:connector-curvature="0"
         d="M 7.06658,235.43709 H 6.019271 v -1.97611 h 1.0032118 v 0.20946 H 6.2507814 v 0.65733 h 0.7138238 v 0.20808 H 6.2507814 v 0.69178 H 7.06658 Z"
         style="stroke-width:0.26458332"
         id="path939" />
      <path
         inkscape:connector-curvature="0"
         d="m 7.35459,235.35716 v -0.27285 q 0.046853,0.0413 0.1116211,0.0744 0.066146,0.0331 0.1378038,0.0565 0.073036,0.0221 0.1460721,0.0345 0.073036,0.0124 0.1350477,0.0124 0.2135959,0 0.3183268,-0.0786 0.106109,-0.0799 0.106109,-0.22876 0,-0.0799 -0.035829,-0.13918 -0.034451,-0.0592 -0.096463,-0.10748 -0.062012,-0.0496 -0.1474501,-0.0937 -0.08406,-0.0455 -0.181901,-0.0951 -0.1033529,-0.0524 -0.1929254,-0.1061 -0.089572,-0.0537 -0.1557183,-0.11852 -0.066146,-0.0648 -0.1047309,-0.14607 -0.037207,-0.0827 -0.037207,-0.19292 0,-0.13505 0.059256,-0.23427 0.059256,-0.1006 0.1557183,-0.16536 0.096463,-0.0648 0.2191081,-0.0965 0.1240234,-0.0317 0.252181,-0.0317 0.2921441,0 0.4258138,0.0703 v 0.26045 q -0.1750108,-0.12127 -0.4492405,-0.12127 -0.075792,0 -0.1515842,0.0165 -0.075792,0.0152 -0.1350477,0.051 -0.059256,0.0358 -0.096463,0.0923 -0.037207,0.0565 -0.037207,0.13781 0,0.0758 0.027561,0.13091 0.028939,0.0551 0.08406,0.1006 0.055122,0.0455 0.1336697,0.0882 0.079926,0.0427 0.1832791,0.0937 0.1061089,0.0524 0.2011936,0.11024 0.095085,0.0579 0.1667426,0.12816 0.071658,0.0703 0.1129991,0.15572 0.042719,0.0854 0.042719,0.19568 0,0.14607 -0.057878,0.24805 -0.0565,0.10059 -0.1543403,0.16398 -0.096463,0.0634 -0.2232422,0.0909 -0.1267795,0.0289 -0.2673394,0.0289 -0.046853,0 -0.1157552,-0.008 -0.068902,-0.007 -0.1405599,-0.0221 -0.071658,-0.0138 -0.1364258,-0.0344 -0.06339,-0.0221 -0.1019748,-0.0482 z"
         style="stroke-width:0.26458332"
         id="path941" />
      <path
         inkscape:connector-curvature="0"
         d="M 9.9935331,235.43709 H 8.946224 v -1.97611 h 1.0032119 v 0.20946 H 9.1777345 v 0.65733 h 0.7138237 v 0.20808 H 9.1777345 v 0.69178 h 0.8157986 z"
         style="stroke-width:0.26458332"
         id="path943" />
      <path
         inkscape:connector-curvature="0"
         d="M 11.542448,233.67044 H 10.97194 v 1.76665 h -0.23151 v -1.76665 H 10.1713 v -0.20946 h 1.371148 z"
         style="stroke-width:0.26458332"
         id="path945" />
    </g>
    <g
       aria-label="T F/F"
       style="font-style:normal;font-variant:normal;font-weight:600;font-stretch:normal;font-size:3.52777767px;line-height:1.25;font-family:'Yu Gothic UI';-inkscape-font-specification:'Yu Gothic UI Semi-Bold';letter-spacing:0px;word-spacing:0px;display:inline;fill:#000000;fill-opacity:1;stroke:none;stroke-width:0.26458332"
       id="text907"
       transform="translate(-9.2182135,0.63869033)">
      <path
         d="m 15.118801,200.95073 h -0.70969 v 2.12218 h -0.409966 v -2.12218 h -0.707967 v -0.34796 h 1.827623 z"
         style="font-style:normal;font-variant:normal;font-weight:600;font-stretch:normal;font-family:'Yu Gothic UI';-inkscape-font-specification:'Yu Gothic UI Semi-Bold';stroke-width:0.26458332"
         id="path909"
         inkscape:connector-curvature="0" />
      <path
         d="m 17.78875,200.95073 h -0.923286 v 0.74242 h 0.850939 v 0.34623 h -0.850939 v 1.03353 h -0.409966 v -2.47014 h 1.333252 z"
         style="font-style:normal;font-variant:normal;font-weight:600;font-stretch:normal;font-family:'Yu Gothic UI';-inkscape-font-specification:'Yu Gothic UI Semi-Bold';stroke-width:0.26458332"
         id="path911"
         inkscape:connector-curvature="0" />
      <path
         d="m 19.414835,200.60277 -1.193726,2.8801 h -0.363457 l 1.188557,-2.8801 z"
         style="font-style:normal;font-variant:normal;font-weight:600;font-stretch:normal;font-family:'Yu Gothic UI';-inkscape-font-specification:'Yu Gothic UI Semi-Bold';stroke-width:0.26458332"
         id="path913"
         inkscape:connector-curvature="0" />
      <path
         d="m 21.020249,200.95073 h -0.923285 v 0.74242 h 0.850938 v 0.34623 h -0.850938 v 1.03353 h -0.409967 v -2.47014 h 1.333252 z"
         style="font-style:normal;font-variant:normal;font-weight:600;font-stretch:normal;font-family:'Yu Gothic UI';-inkscape-font-specification:'Yu Gothic UI Semi-Bold';stroke-width:0.26458332"
         id="path915"
         inkscape:connector-curvature="0" />
    </g>
    <g
       transform="translate(-0.00319439,2.8449758)"
       aria-label="T"
       style="font-style:normal;font-variant:normal;font-weight:normal;font-stretch:normal;font-size:2.82222223px;line-height:1.25;font-family:'Yu Gothic UI';-inkscape-font-specification:'Yu Gothic UI';letter-spacing:0px;word-spacing:0px;display:inline;fill:#000000;fill-opacity:1;stroke:none;stroke-width:0.26458332"
       id="text928">
      <path
         inkscape:connector-curvature="0"
         d="M 8.623074,204.60529 H 8.0525662 v 1.76664 H 7.8210558 v -1.76664 H 7.251926 v -0.20946 h 1.371148 z"
         style="stroke-width:0.26458332"
         id="path934" />
    </g>
  </g>
  <g
     inkscape:groupmode="layer"
     id="layer2"
     inkscape:label="Grid"
     style="display:none"
     sodipodi:insensitive="true">
    <g
       style="display:inline"
       id="g2708">
      <path
         style="fill:none;stroke:#000000;stroke-width:0.05;stroke-linecap:butt;stroke-linejoin:miter;stroke-miterlimit:4;stroke-dasharray:none;stroke-opacity:1"
         d="M 7.9375007,-5.0001865e-6 7.9374977,100.54166"
         id="path881-8-8-2"
         inkscape:connector-curvature="0"
         sodipodi:nodetypes="cc" />
      <path
         sodipodi:nodetypes="cc"
         inkscape:connector-curvature="0"
         id="path890-2-5-0"
         d="M 3.9687527,4.9998135e-6 3.9687487,100.54167"
         style="fill:none;stroke:#000000;stroke-width:0.05;stroke-linecap:butt;stroke-linejoin:miter;stroke-miterlimit:4;stroke-dasharray:none;stroke-opacity:1" />
      <path
         style="fill:none;stroke:#000000;stroke-width:0.05;stroke-linecap:butt;stroke-linejoin:miter;stroke-miterlimit:4;stroke-dasharray:none;stroke-opacity:1"
         d="M 11.906254,4.9998135e-6 11.90625,100.54167"
         id="path895-1-5-2"
         inkscape:connector-curvature="0"
         sodipodi:nodetypes="cc" />
      <path
         sodipodi:nodetypes="cc"
         inkscape:connector-curvature="0"
         id="path1107-7"
         d="M 7.2598426e-7,50.270605 15.875001,50.271066"
         style="fill:none;stroke:#000000;stroke-width:0.05;stroke-linecap:butt;stroke-linejoin:miter;stroke-miterlimit:4;stroke-dasharray:none;stroke-opacity:1" />
      <circle
         r="4.0999999"
         cy="50.270832"
         cx="7.9523048"
         id="circle1018-7"
         style="display:inline;opacity:1;fill:none;fill-opacity:1;stroke:#000000;stroke-width:0.05;stroke-linecap:square;stroke-linejoin:round;stroke-miterlimit:4;stroke-dasharray:none;stroke-dashoffset:0;stroke-opacity:1;paint-order:markers fill stroke" />
      <circle
         style="display:inline;opacity:1;fill:none;fill-opacity:1;stroke:#000000;stroke-width:0.05172414;stroke-linecap:square;stroke-linejoin:round;stroke-miterlimit:4;stroke-dasharray:none;stroke-dashoffset:0;stroke-opacity:1;paint-order:markers fill stroke"
         id="circle977-3"
         cx="7.9360805"
         cy="50.270832"
         r="5.4741378" />
      <path
         style="fill:none;stroke:#000000;stroke-width:0.05;stroke-linecap:butt;stroke-linejoin:miter;stroke-miterlimit:4;stroke-dasharray:none;stroke-opacity:1"
         d="M 7.2598426e-7,33.601974 15.875001,33.602435"
         id="path1010-0"
         inkscape:connector-curvature="0"
         sodipodi:nodetypes="cc" />
      <circle
         style="display:inline;opacity:1;fill:none;fill-opacity:1;stroke:#000000;stroke-width:0.05;stroke-linecap:square;stroke-linejoin:round;stroke-miterlimit:4;stroke-dasharray:none;stroke-dashoffset:0;stroke-opacity:1;paint-order:markers fill stroke"
         id="circle1012"
         cx="7.9523048"
         cy="33.602142"
         r="4.0999999" />
      <circle
         r="5.4741378"
         cy="33.602142"
         cx="7.9360805"
         id="circle1015"
         style="display:inline;opacity:1;fill:none;fill-opacity:1;stroke:#000000;stroke-width:0.05172414;stroke-linecap:square;stroke-linejoin:round;stroke-miterlimit:4;stroke-dasharray:none;stroke-dashoffset:0;stroke-opacity:1;paint-order:markers fill stroke" />
      <path
         style="fill:none;stroke:#000000;stroke-width:0.05;stroke-linecap:butt;stroke-linejoin:miter;stroke-miterlimit:4;stroke-dasharray:none;stroke-opacity:1"
         d="M 7.2598426e-7,66.940056 15.875001,66.940517"
         id="path1017"
         inkscape:connector-curvature="0"
         sodipodi:nodetypes="cc" />
      <circle
         style="display:inline;opacity:1;fill:none;fill-opacity:1;stroke:#000000;stroke-width:0.05;stroke-linecap:square;stroke-linejoin:round;stroke-miterlimit:4;stroke-dasharray:none;stroke-dashoffset:0;stroke-opacity:1;paint-order:markers fill stroke"
         id="circle1019"
         cx="7.9523048"
         cy="66.940338"
         r="4.0999999" />
      <circle
         r="5.4741378"
         cy="66.940338"
         cx="7.9360805"
         id="circle1021"
         style="display:inline;opacity:1;fill:none;fill-opacity:1;stroke:#000000;stroke-width:0.05172414;stroke-linecap:square;stroke-linejoin:round;stroke-miterlimit:4;stroke-dasharray:none;stroke-dashoffset:0;stroke-opacity:1;paint-order:markers fill stroke" />
      <path
         sodipodi:nodetypes="cc"
         inkscape:connector-curvature="0"
         id="path1023"
         d="M 7.2598426e-7,83.608108 15.875001,83.608569"
         style="fill:none;stroke:#000000;stroke-width:0.05;stroke-linecap:butt;stroke-linejoin:miter;stroke-miterlimit:4;stroke-dasharray:none;stroke-opacity:1" />
      <circle
         r="4.0999999"
         cy="83.60833"
         cx="7.9523048"
         id="circle1025"
         style="display:inline;opacity:1;fill:none;fill-opacity:1;stroke:#000000;stroke-width:0.05;stroke-linecap:square;stroke-linejoin:round;stroke-miterlimit:4;stroke-dasharray:none;stroke-dashoffset:0;stroke-opacity:1;paint-order:markers fill stroke" />
      <circle
         style="display:inline;opacity:1;fill:none;fill-opacity:1;stroke:#000000;stroke-width:0.05172414;stroke-linecap:square;stroke-linejoin:round;stroke-miterlimit:4;stroke-dasharray:none;stroke-dashoffset:0;stroke-opacity:1;paint-order:markers fill stroke"
         id="circle1027"
         cx="7.9360805"
         cy="83.60833"
         r="5.4741378" />
      <path
         sodipodi:nodetypes="cc"
         inkscape:connector-curvature="0"
         id="path1029"
         d="M 7.2598426e-7,16.933102 15.875001,16.933563"
         style="fill:none;stroke:#000000;stroke-width:0.05;stroke-linecap:butt;stroke-linejoin:miter;stroke-miterlimit:4;stroke-dasharray:none;stroke-opacity:1" />
      <circle
         r="4.0999999"
         cy="16.933331"
         cx="7.9523048"
         id="circle1031"
         style="display:inline;opacity:1;fill:none;fill-opacity:1;stroke:#000000;stroke-width:0.05;stroke-linecap:square;stroke-linejoin:round;stroke-miterlimit:4;stroke-dasharray:none;stroke-dashoffset:0;stroke-opacity:1;paint-order:markers fill stroke" />
      <circle
         style="display:inline;opacity:1;fill:none;fill-opacity:1;stroke:#000000;stroke-width:0.05172414;stroke-linecap:square;stroke-linejoin:round;stroke-miterlimit:4;stroke-dasharray:none;stroke-dashoffset:0;stroke-opacity:1;paint-order:markers fill stroke"
         id="circle1033"
         cx="7.9360805"
         cy="16.933331"
         r="5.4741378" />
    </g>
  </g>
</svg>
