<?xml version="1.0" encoding="UTF-8" standalone="no"?>
<!-- Created with Inkscape (http://www.inkscape.org/) -->

<svg
   xmlns:dc="http://purl.org/dc/elements/1.1/"
   xmlns:cc="http://creativecommons.org/ns#"
   xmlns:rdf="http://www.w3.org/1999/02/22-rdf-syntax-ns#"
   xmlns:svg="http://www.w3.org/2000/svg"
   xmlns="http://www.w3.org/2000/svg"
   xmlns:sodipodi="http://sodipodi.sourceforge.net/DTD/sodipodi-0.dtd"
   xmlns:inkscape="http://www.inkscape.org/namespaces/inkscape"
   width="120"
   height="380"
   viewBox="0 0 31.750002 100.54167"
   version="1.1"
   id="svg8"
   inkscape:version="0.92.4 (5da689c313, 2019-01-14)"
   sodipodi:docname="MorphShaper.svg">
  <defs
     id="defs2" />
  <sodipodi:namedview
     id="base"
     pagecolor="#ffffff"
     bordercolor="#666666"
     borderopacity="1.0"
     inkscape:pageopacity="0.0"
     inkscape:pageshadow="2"
     inkscape:zoom="1.979899"
     inkscape:cx="68.164061"
     inkscape:cy="182.55396"
     inkscape:document-units="mm"
     inkscape:current-layer="layer3"
     showgrid="true"
     units="px"
     inkscape:snap-bbox="true"
     inkscape:snap-page="true"
     inkscape:bbox-nodes="true"
     inkscape:snap-bbox-edge-midpoints="true"
     inkscape:window-width="1920"
     inkscape:window-height="1017"
     inkscape:window-x="-8"
     inkscape:window-y="-8"
     inkscape:window-maximized="1">
    <inkscape:grid
       type="xygrid"
       id="grid116" />
  </sodipodi:namedview>
  <metadata
     id="metadata5">
    <rdf:RDF>
      <cc:Work
         rdf:about="">
        <dc:format>image/svg+xml</dc:format>
        <dc:type
           rdf:resource="http://purl.org/dc/dcmitype/StillImage" />
        <dc:title />
      </cc:Work>
    </rdf:RDF>
  </metadata>
  <g
     inkscape:groupmode="layer"
     id="layer3"
     inkscape:label="Panel"
     style="display:inline"
     sodipodi:insensitive="true">
    <path
       sodipodi:type="inkscape:offset"
       inkscape:radius="0"
       inkscape:original="M 0 196.45898 L 0 297 L 15.875 297 L 15.875 196.45898 L 0 196.45898 z "
       style="fill:#333333;fill-opacity:1;stroke-width:0.3310422"
       id="rect3855"
       d="M 0,196.45898 V 297 H 15.875 V 196.45898 Z"
       transform="matrix(2,0,0,1.0000064,0,-196.46023)" />
  </g>
  <g
     inkscape:label="Layer 1"
     inkscape:groupmode="layer"
     id="layer1"
     transform="translate(0,-196.45832)"
     sodipodi:insensitive="true">
    <text
       xml:space="preserve"
       style="font-style:normal;font-weight:normal;font-size:2.82222223px;line-height:1.25;font-family:sans-serif;letter-spacing:0px;word-spacing:0px;fill:#000000;fill-opacity:1;stroke:none;stroke-width:0.26458332"
       x="17.197916"
       y="201.74998"
       id="text3821"><tspan
         sodipodi:role="line"
         id="tspan3819"
         x="17.197916"
         y="204.24699"
         style="stroke-width:0.26458332" /></text>
    <rect
       style="fill:#4d4d4d;fill-opacity:1;stroke-width:0.17624234"
       id="rect897-74"
       width="25.756029"
       height="11.906176"
       x="2.9937854"
       y="-244.47301"
       transform="scale(1,-1)" />
    <g
       aria-label="+"
       style="font-style:normal;font-weight:normal;font-size:2.82222223px;line-height:1.25;font-family:sans-serif;letter-spacing:0px;word-spacing:0px;fill:#ffffff;fill-opacity:1;stroke:none;stroke-width:0.26458332"
       id="text100-5-2-0-0"
       transform="translate(-10.256659,3.0235977)">
      <path
         d="m 38.33978,211.88683 v 0.76757 h 0.767567 v 0.23427 H 38.33978 v 0.76756 h -0.23151 v -0.76756 h -0.767568 v -0.23427 h 0.767568 v -0.76757 z"
         style="fill:#ffffff;stroke-width:0.26458332"
         id="path111-9-1-7-3"
         inkscape:connector-curvature="0" />
    </g>
    <g
       aria-label="_"
       style="font-style:normal;font-weight:normal;font-size:2.82222223px;line-height:1.25;font-family:sans-serif;letter-spacing:0px;word-spacing:0px;fill:#ffffff;fill-opacity:1;stroke:none;stroke-width:0.26458332"
       id="text104-0-9-5-9-4"
       transform="translate(-26.221442,3.0188749)">
      <path
         d="m 46.417842,212.68492 v 0.19706 h -1.466233 v -0.19706 z"
         style="fill:#ffffff;stroke-width:0.26458332"
         id="path115-0-3-4-5-7"
         inkscape:connector-curvature="0" />
    </g>
    <path
       style="fill:none;stroke:#ffffff;stroke-width:0.30000001;stroke-linecap:butt;stroke-linejoin:miter;stroke-miterlimit:4;stroke-dasharray:none;stroke-opacity:1"
       d="m 11.103839,210.49006 h 8.5"
       id="path152"
       inkscape:connector-curvature="0" />
    <rect
       style="fill:#4d4d4d;fill-opacity:1;stroke-width:0.17624234"
       id="rect897-74-9"
       width="25.756029"
       height="11.906176"
       x="2.9890633"
       y="-259.02719"
       transform="scale(1,-1)" />
    <rect
       style="fill:#4d4d4d;fill-opacity:1;stroke-width:0.17624234"
       id="rect897-74-9-9"
       width="25.756029"
       height="11.906176"
       x="2.9932964"
       y="-273.58191"
       transform="scale(1,-1)" />
    <rect
       style="fill:#4d4d4d;fill-opacity:1;stroke-width:0.17624234"
       id="rect897-74-9-9-4"
       width="25.756029"
       height="11.906176"
       x="2.9975295"
       y="-288.1344"
       transform="scale(1,-1)" />
    <g
       aria-label="/^M^\"
       style="font-style:normal;font-variant:normal;font-weight:normal;font-stretch:normal;font-size:2.82222223px;line-height:1.25;font-family:'Copperplate Gothic Light';-inkscape-font-specification:'Copperplate Gothic Light, ';letter-spacing:0px;word-spacing:0px;fill:#ffffff;fill-opacity:1;stroke:#ffffff;stroke-width:0.2;stroke-miterlimit:4;stroke-dasharray:none;stroke-opacity:1"
       id="text956"
       transform="translate(-5.5319546,3.7041668)">
      <path
         d="m 21.203855,291.40545 v 0.0386 h -0.434082 v -0.0386 q 0.09509,-0.006 0.224621,-0.17088 l 1.094162,-1.4621 q 0.07441,-0.1006 0.07441,-0.12402 0,-0.0372 -0.06615,-0.0482 v -0.0372 h 0.423058 v 0.0372 q -0.09508,0.006 -0.22462,0.17087 l -1.08176,1.46348 q -0.07579,0.10197 -0.07579,0.12402 0,0.0358 0.06615,0.0469 z"
         style="font-style:normal;font-variant:normal;font-weight:normal;font-stretch:normal;font-size:2.82222223px;line-height:1.25;font-family:'Copperplate Gothic Light';-inkscape-font-specification:'Copperplate Gothic Light, ';fill:#ffffff;stroke:#ffffff;stroke-width:0.2;stroke-miterlimit:4;stroke-dasharray:none;stroke-opacity:1"
         id="path958"
         inkscape:connector-curvature="0" />
      <path
         d="M 22.940183,290.3857 H 22.73899 l 0.493338,-0.8282 h 0.243912 l 0.493338,0.8282 h -0.20395 l -0.413411,-0.68075 z"
         style="font-style:normal;font-variant:normal;font-weight:normal;font-stretch:normal;font-size:2.82222223px;line-height:1.25;font-family:'Copperplate Gothic Light';-inkscape-font-specification:'Copperplate Gothic Light, ';fill:#ffffff;stroke:#ffffff;stroke-width:0.2;stroke-miterlimit:4;stroke-dasharray:none;stroke-opacity:1"
         id="path960"
         inkscape:connector-curvature="0" />
      <path
         d="m 25.342104,291.44403 -0.789616,-1.58061 v 1.418 q 0,0.0565 0.01791,0.0813 0.01791,0.0234 0.07028,0.0372 v 0.0441 h -0.373449 v -0.0441 q 0.05237,-0.0138 0.07028,-0.0372 0.01792,-0.0234 0.01792,-0.0813 v -1.5558 q 0,-0.0579 -0.01792,-0.0813 -0.01791,-0.0248 -0.07028,-0.0372 v -0.0441 h 0.487826 v 0.0441 q -0.06752,0.0234 -0.06752,0.0579 0,0.0165 0.04547,0.10611 l 0.62563,1.24161 0.628385,-1.25263 q 0.03307,-0.0661 0.03307,-0.0937 0,-0.0358 -0.06752,-0.0593 v -0.0441 h 0.49196 v 0.0441 q -0.05237,0.0138 -0.07028,0.0372 -0.01792,0.0234 -0.01792,0.0813 v 1.5558 q 0,0.0565 0.01792,0.0813 0.01791,0.0234 0.07028,0.0372 v 0.0441 h -0.392741 v -0.0441 q 0.05374,-0.0138 0.07028,-0.0372 0.01791,-0.0234 0.01791,-0.0813 v -1.418 z"
         style="font-style:normal;font-variant:normal;font-weight:normal;font-stretch:normal;font-size:2.82222223px;line-height:1.25;font-family:'Copperplate Gothic Light';-inkscape-font-specification:'Copperplate Gothic Light, ';fill:#ffffff;stroke:#ffffff;stroke-width:0.2;stroke-miterlimit:4;stroke-dasharray:none;stroke-opacity:1"
         id="path962"
         inkscape:connector-curvature="0" />
      <path
         d="m 26.942006,290.3857 h -0.201193 l 0.493338,-0.8282 h 0.243912 l 0.493338,0.8282 h -0.20395 l -0.413411,-0.68075 z"
         style="font-style:normal;font-variant:normal;font-weight:normal;font-stretch:normal;font-size:2.82222223px;line-height:1.25;font-family:'Copperplate Gothic Light';-inkscape-font-specification:'Copperplate Gothic Light, ';fill:#ffffff;stroke:#ffffff;stroke-width:0.2;stroke-miterlimit:4;stroke-dasharray:none;stroke-opacity:1"
         id="path964"
         inkscape:connector-curvature="0" />
      <path
         d="m 28.617701,289.56301 v 0.0372 q -0.06615,0.011 -0.06615,0.0482 0,0.0234 0.07441,0.12402 l 1.092784,1.4621 q 0.129536,0.16536 0.22462,0.17088 v 0.0386 h -0.434082 v -0.0386 q 0.06615,-0.011 0.06615,-0.0469 0,-0.0207 -0.07579,-0.12402 l -1.080382,-1.46348 q -0.129535,-0.16536 -0.22462,-0.17087 v -0.0372 z"
         style="font-style:normal;font-variant:normal;font-weight:normal;font-stretch:normal;font-size:2.82222223px;line-height:1.25;font-family:'Copperplate Gothic Light';-inkscape-font-specification:'Copperplate Gothic Light, ';fill:#ffffff;stroke:#ffffff;stroke-width:0.2;stroke-miterlimit:4;stroke-dasharray:none;stroke-opacity:1"
         id="path966"
         inkscape:connector-curvature="0" />
    </g>
    <g
       aria-label="MORPH SHAPER"
       style="font-style:normal;font-variant:normal;font-weight:bold;font-stretch:normal;font-size:3.52777767px;line-height:1.25;font-family:'Yu Gothic UI';-inkscape-font-specification:'Yu Gothic UI Bold';letter-spacing:0px;word-spacing:0px;fill:#ffffff;fill-opacity:1;stroke:none;stroke-width:0.26458332"
       id="text935"
       transform="translate(-1.617472,3.3876116)">
      <path
         d="M 6.9263644,200.16249 H 6.5198431 v -1.59852 q 0,-0.19637 0.024116,-0.48059 h -0.00689 q -0.037896,0.16192 -0.067179,0.23254 l -0.7372504,1.84657 H 5.450141 L 4.7111681,198.3297 q -0.031006,-0.081 -0.065457,-0.24632 h -0.00689 q 0.01378,0.14813 0.01378,0.48403 v 1.59508 H 4.2736409 v -2.47013 h 0.5770535 l 0.6494005,1.64503 q 0.07407,0.18948 0.096463,0.2825 h 0.00861 q 0.063734,-0.19465 0.1033529,-0.28939 l 0.6614583,-1.63814 H 6.926362 Z"
         style="font-style:normal;font-variant:normal;font-weight:bold;font-stretch:normal;font-size:3.52777767px;font-family:'Yu Gothic UI';-inkscape-font-specification:'Yu Gothic UI Bold';fill:#ffffff;stroke-width:0.26458332"
         id="path937"
         inkscape:connector-curvature="0" />
      <path
         d="m 8.5507268,200.20383 q -0.5339898,0 -0.8561062,-0.34623 -0.3203939,-0.34623 -0.3203939,-0.90089 0,-0.596 0.3272841,-0.95085 0.327284,-0.35484 0.8888346,-0.35484 0.5202094,0 0.8371581,0.34451 0.3186714,0.34451 0.3186714,0.90089 0,0.60461 -0.3255615,0.95601 -0.3255616,0.3514 -0.8698866,0.3514 z m 0.018948,-2.1928 q -0.3393419,0 -0.5529378,0.25321 -0.2118734,0.25322 -0.2118734,0.66663 0,0.41169 0.2067057,0.66318 0.2067058,0.25149 0.54088,0.25149 0.3548448,0 0.559828,-0.23943 0.2049832,-0.23944 0.2049832,-0.67007 0,-0.4427 -0.1998155,-0.68385 -0.198093,-0.24116 -0.5477702,-0.24116 z"
         style="font-style:normal;font-variant:normal;font-weight:bold;font-stretch:normal;font-size:3.52777767px;font-family:'Yu Gothic UI';-inkscape-font-specification:'Yu Gothic UI Bold';fill:#ffffff;stroke-width:0.26458332"
         id="path939"
         inkscape:connector-curvature="0" />
      <path
         d="m 12.107788,200.16249 h -0.478869 l -0.394463,-0.66146 q -0.0534,-0.0913 -0.105075,-0.15503 -0.04995,-0.0654 -0.103353,-0.10679 -0.05168,-0.0414 -0.113689,-0.0603 -0.06201,-0.019 -0.139526,-0.019 h -0.165364 v 1.00252 h -0.408244 v -2.47013 h 0.813042 q 0.173978,0 0.320394,0.0413 0.146417,0.0413 0.254937,0.12574 0.108521,0.0827 0.16881,0.20843 0.06201,0.12403 0.06201,0.29111 0,0.13092 -0.03962,0.24116 -0.0379,0.10852 -0.110243,0.19465 -0.07062,0.0844 -0.172255,0.14469 -0.09991,0.0603 -0.225654,0.093 v 0.007 q 0.06718,0.0379 0.117134,0.0844 0.04995,0.0448 0.09474,0.093 0.04479,0.0482 0.08785,0.11025 0.04479,0.0603 0.09818,0.14124 z m -1.500339,-2.13768 v 0.80271 h 0.341064 q 0.09474,0 0.173977,-0.0293 0.08096,-0.0293 0.139527,-0.0844 0.05857,-0.0551 0.0913,-0.13436 0.03273,-0.0792 0.03273,-0.17742 0,-0.17743 -0.111965,-0.27733 -0.111966,-0.0999 -0.322117,-0.0999 z"
         style="font-style:normal;font-variant:normal;font-weight:bold;font-stretch:normal;font-size:3.52777767px;font-family:'Yu Gothic UI';-inkscape-font-specification:'Yu Gothic UI Bold';fill:#ffffff;stroke-width:0.26458332"
         id="path941"
         inkscape:connector-curvature="0" />
      <path
         d="m 12.80542,199.26677 v 0.89572 h -0.408244 v -2.47013 h 0.749308 q 0.42547,0 0.659736,0.19809 0.234267,0.19809 0.234267,0.55811 0,0.36001 -0.244602,0.58911 -0.244602,0.2291 -0.661458,0.2291 z m 0,-1.23679 v 0.90261 h 0.265272 q 0.26355,0 0.401354,-0.1223 0.137804,-0.1223 0.137804,-0.34451 0,-0.4358 -0.506429,-0.4358 z"
         style="font-style:normal;font-variant:normal;font-weight:bold;font-stretch:normal;font-size:3.52777767px;font-family:'Yu Gothic UI';-inkscape-font-specification:'Yu Gothic UI Bold';fill:#ffffff;stroke-width:0.26458332"
         id="path943"
         inkscape:connector-curvature="0" />
      <path
         d="m 16.441718,200.16249 h -0.411689 v -1.07142 H 14.86731 v 1.07142 h -0.409967 v -2.47013 h 0.409967 v 1.03869 h 1.162719 v -1.03869 h 0.411689 z"
         style="font-style:normal;font-variant:normal;font-weight:bold;font-stretch:normal;font-size:3.52777767px;font-family:'Yu Gothic UI';-inkscape-font-specification:'Yu Gothic UI Bold';fill:#ffffff;stroke-width:0.26458332"
         id="path945"
         inkscape:connector-curvature="0" />
      <path
         d="m 17.912774,200.06431 v -0.42203 q 0.05684,0.0517 0.134358,0.093 0.07924,0.0413 0.167088,0.0706 0.08785,0.0276 0.175699,0.0431 0.08785,0.0155 0.16192,0.0155 0.258382,0 0.384128,-0.0861 0.127469,-0.0861 0.127469,-0.24977 0,-0.0879 -0.04306,-0.15158 -0.04134,-0.0655 -0.117133,-0.11886 -0.07579,-0.0534 -0.179145,-0.10163 -0.101631,-0.0499 -0.218764,-0.10335 -0.125746,-0.0672 -0.234266,-0.13608 -0.108521,-0.0689 -0.189481,-0.15159 -0.07924,-0.0844 -0.125746,-0.18948 -0.04479,-0.10507 -0.04479,-0.24632 0,-0.17398 0.07751,-0.30145 0.07924,-0.12919 0.206706,-0.21187 0.129191,-0.0844 0.292833,-0.12402 0.163642,-0.0413 0.334174,-0.0413 0.387573,0 0.564996,0.0879 v 0.40479 q -0.210151,-0.15158 -0.54088,-0.15158 -0.0913,0 -0.18259,0.0172 -0.08957,0.0172 -0.16192,0.0568 -0.07062,0.0396 -0.115411,0.10163 -0.04479,0.062 -0.04479,0.14986 0,0.0827 0.03445,0.14297 0.03445,0.0603 0.09991,0.11025 0.06718,0.0499 0.161919,0.0982 0.09646,0.0465 0.222209,0.10163 0.129191,0.0672 0.242879,0.14125 0.115411,0.0741 0.201538,0.16364 0.08785,0.0896 0.137804,0.19982 0.05168,0.10852 0.05168,0.24805 0,0.18775 -0.07579,0.31694 -0.07579,0.1292 -0.204983,0.21016 -0.127468,0.081 -0.294555,0.11713 -0.167088,0.0362 -0.353123,0.0362 -0.06201,0 -0.153306,-0.0103 -0.08957,-0.009 -0.184313,-0.0276 -0.09474,-0.0172 -0.179145,-0.0431 -0.08441,-0.0258 -0.136081,-0.0586 z"
         style="font-style:normal;font-variant:normal;font-weight:bold;font-stretch:normal;font-size:3.52777767px;font-family:'Yu Gothic UI';-inkscape-font-specification:'Yu Gothic UI Bold';fill:#ffffff;stroke-width:0.26458332"
         id="path947"
         inkscape:connector-curvature="0" />
      <path
         d="m 21.9332,200.16249 h -0.411689 v -1.07142 h -1.162719 v 1.07142 h -0.409967 v -2.47013 h 0.409967 v 1.03869 h 1.162719 v -1.03869 H 21.9332 Z"
         style="font-style:normal;font-variant:normal;font-weight:bold;font-stretch:normal;font-size:3.52777767px;font-family:'Yu Gothic UI';-inkscape-font-specification:'Yu Gothic UI Bold';fill:#ffffff;stroke-width:0.26458332"
         id="path949"
         inkscape:connector-curvature="0" />
      <path
         d="m 24.575587,200.16249 h -0.449585 l -0.222208,-0.62873 h -0.971517 l -0.213596,0.62873 h -0.447863 l 0.925009,-2.47013 h 0.461642 z m -0.780314,-0.9629 -0.342787,-0.9853 q -0.0155,-0.0482 -0.03273,-0.15503 h -0.0069 q -0.0155,0.0982 -0.03445,0.15503 l -0.339342,0.9853 z"
         style="font-style:normal;font-variant:normal;font-weight:bold;font-stretch:normal;font-size:3.52777767px;font-family:'Yu Gothic UI';-inkscape-font-specification:'Yu Gothic UI Bold';fill:#ffffff;stroke-width:0.26458332"
         id="path951"
         inkscape:connector-curvature="0" />
      <path
         d="m 25.324896,199.26677 v 0.89572 h -0.408244 v -2.47013 h 0.749308 q 0.42547,0 0.659736,0.19809 0.234267,0.19809 0.234267,0.55811 0,0.36001 -0.244602,0.58911 -0.244602,0.2291 -0.661459,0.2291 z m 0,-1.23679 v 0.90261 h 0.265272 q 0.26355,0 0.401354,-0.1223 0.137804,-0.1223 0.137804,-0.34451 0,-0.4358 -0.506429,-0.4358 z"
         style="font-style:normal;font-variant:normal;font-weight:bold;font-stretch:normal;font-size:3.52777767px;font-family:'Yu Gothic UI';-inkscape-font-specification:'Yu Gothic UI Bold';fill:#ffffff;stroke-width:0.26458332"
         id="path953"
         inkscape:connector-curvature="0" />
      <path
         d="m 28.36347,200.16249 h -1.386651 v -2.47013 h 1.33153 v 0.34795 h -0.921563 v 0.69936 h 0.849216 v 0.34623 h -0.849216 v 0.73036 h 0.976684 z"
         style="font-style:normal;font-variant:normal;font-weight:bold;font-stretch:normal;font-size:3.52777767px;font-family:'Yu Gothic UI';-inkscape-font-specification:'Yu Gothic UI Bold';fill:#ffffff;stroke-width:0.26458332"
         id="path955"
         inkscape:connector-curvature="0" />
      <path
         d="m 30.711303,200.16249 h -0.478868 l -0.394463,-0.66146 q -0.0534,-0.0913 -0.105076,-0.15503 -0.04995,-0.0654 -0.103353,-0.10679 -0.05168,-0.0414 -0.113688,-0.0603 -0.06201,-0.019 -0.139526,-0.019 h -0.165365 v 1.00252 H 28.80272 v -2.47013 h 0.813043 q 0.173977,0 0.320394,0.0413 0.146416,0.0413 0.254937,0.12574 0.10852,0.0827 0.168809,0.20843 0.06201,0.12403 0.06201,0.29111 0,0.13092 -0.03962,0.24116 -0.0379,0.10852 -0.110243,0.19465 -0.07062,0.0844 -0.172255,0.14469 -0.09991,0.0603 -0.225654,0.093 v 0.007 q 0.06718,0.0379 0.117133,0.0844 0.04995,0.0448 0.09474,0.093 0.04479,0.0482 0.08785,0.11025 0.04479,0.0603 0.09819,0.14124 z m -1.500339,-2.13768 v 0.80271 h 0.341065 q 0.09474,0 0.173977,-0.0293 0.08096,-0.0293 0.139526,-0.0844 0.05857,-0.0551 0.09129,-0.13436 0.03273,-0.0792 0.03273,-0.17742 0,-0.17743 -0.111966,-0.27733 -0.111965,-0.0999 -0.322116,-0.0999 z"
         style="font-style:normal;font-variant:normal;font-weight:bold;font-stretch:normal;font-size:3.52777767px;font-family:'Yu Gothic UI';-inkscape-font-specification:'Yu Gothic UI Bold';fill:#ffffff;stroke-width:0.26458332"
         id="path957"
         inkscape:connector-curvature="0" />
    </g>
    <g
       aria-label="CV"
       style="font-style:normal;font-variant:normal;font-weight:normal;font-stretch:normal;font-size:2.82222223px;line-height:1.25;font-family:'Yu Gothic UI';-inkscape-font-specification:'Yu Gothic UI';letter-spacing:0px;word-spacing:0px;fill:#ffffff;fill-opacity:1;stroke:none;stroke-width:0.26458332"
       id="text962">
      <path
         d="m 14.833202,208.01731 q -0.219108,0.11575 -0.545703,0.11575 -0.421679,0 -0.675238,-0.27147 -0.253559,-0.27147 -0.253559,-0.71245 0,-0.47404 0.285254,-0.76618 0.285253,-0.29215 0.72347,-0.29215 0.281119,0 0.465776,0.0813 v 0.24666 q -0.212217,-0.11851 -0.468532,-0.11851 -0.340376,0 -0.552594,0.22738 -0.21084,0.22738 -0.21084,0.60771 0,0.36105 0.19706,0.57602 0.198437,0.2136 0.51952,0.2136 0.297656,0 0.515386,-0.13229 z"
         style="fill:#ffffff;stroke-width:0.26458332"
         id="path965"
         inkscape:connector-curvature="0" />
      <path
         d="m 16.704578,206.12388 -0.731738,1.97611 h -0.254937 l -0.71658,-1.97611 h 0.257693 l 0.547082,1.56683 q 0.02618,0.0758 0.03996,0.17501 h 0.0055 q 0.01102,-0.0827 0.04547,-0.17776 l 0.558105,-1.56408 z"
         style="fill:#ffffff;stroke-width:0.26458332"
         id="path967"
         inkscape:connector-curvature="0" />
    </g>
    <g
       aria-label="MORPH"
       style="font-style:normal;font-variant:normal;font-weight:normal;font-stretch:normal;font-size:2.82222223px;line-height:1.25;font-family:'Yu Gothic UI';-inkscape-font-specification:'Yu Gothic UI';letter-spacing:0px;word-spacing:0px;fill:#ffffff;fill-opacity:1;stroke:none;stroke-width:0.26458332"
       id="text972">
      <path
         d="m 21.111144,219.50069 h -0.230132 v -1.32568 q 0,-0.15709 0.01929,-0.38447 h -0.0055 q -0.03307,0.13367 -0.05926,0.19155 l -0.675239,1.5186 h -0.112999 l -0.673861,-1.50758 q -0.02894,-0.0661 -0.05926,-0.20257 h -0.0055 q 0.01103,0.11851 0.01103,0.38723 v 1.32292 h -0.223242 v -1.97611 h 0.305924 l 0.606337,1.37804 q 0.07028,0.15847 0.09095,0.23702 h 0.0083 q 0.05926,-0.16261 0.09508,-0.24253 l 0.618739,-1.37253 h 0.289388 z"
         style="fill:#ffffff;stroke-width:0.26458332"
         id="path974"
         inkscape:connector-curvature="0" />
      <path
         d="m 22.428549,219.53376 q -0.420302,0 -0.673861,-0.27699 -0.252181,-0.27698 -0.252181,-0.72071 0,-0.4768 0.257693,-0.76068 0.257693,-0.28387 0.701422,-0.28387 0.409277,0 0.658702,0.2756 0.250803,0.27561 0.250803,0.72072 0,0.48369 -0.256315,0.76481 -0.256315,0.28112 -0.686263,0.28112 z m 0.01654,-1.83279 q -0.311436,0 -0.50574,0.22462 -0.194303,0.22462 -0.194303,0.5898 0,0.36518 0.188791,0.58842 0.190169,0.22187 0.494716,0.22187 0.325217,0 0.51263,-0.21222 0.187413,-0.21222 0.187413,-0.59394 0,-0.39136 -0.181901,-0.60496 -0.181901,-0.21359 -0.501606,-0.21359 z"
         style="fill:#ffffff;stroke-width:0.26458332"
         id="path976"
         inkscape:connector-curvature="0" />
      <path
         d="M 25.176357,219.50069 H 24.90075 l -0.33073,-0.55397 q -0.04547,-0.0772 -0.08819,-0.13092 -0.04272,-0.0551 -0.08819,-0.0896 -0.0441,-0.0344 -0.09646,-0.0496 -0.05099,-0.0165 -0.115755,-0.0165 h -0.19017 v 0.84061 h -0.23151 v -1.97611 h 0.5898 q 0.129536,0 0.238401,0.0331 0.110243,0.0317 0.190169,0.0978 0.0813,0.0662 0.12678,0.16537 0.04547,0.0978 0.04547,0.23013 0,0.10335 -0.03169,0.19017 -0.03032,0.0854 -0.08819,0.15296 -0.0565,0.0675 -0.137804,0.11576 -0.07993,0.0468 -0.180523,0.073 v 0.006 q 0.04961,0.022 0.08544,0.051 0.03721,0.0276 0.07028,0.0661 0.03307,0.0386 0.06477,0.0882 0.03307,0.0482 0.07304,0.113 z m -1.185113,-1.76665 v 0.71658 h 0.314193 q 0.08682,0 0.159853,-0.0262 0.07441,-0.0262 0.128157,-0.0744 0.05374,-0.0496 0.08406,-0.11988 0.03032,-0.0717 0.03032,-0.15986 0,-0.15847 -0.103353,-0.24667 -0.101974,-0.0896 -0.296278,-0.0896 z"
         style="fill:#ffffff;stroke-width:0.26458332"
         id="path978"
         inkscape:connector-curvature="0" />
      <path
         d="m 25.677963,218.75379 v 0.7469 h -0.231511 v -1.97611 h 0.542947 q 0.316949,0 0.490582,0.15434 0.175011,0.15434 0.175011,0.43546 0,0.28112 -0.194303,0.46026 -0.192926,0.17915 -0.522277,0.17915 z m 0,-1.01975 v 0.81029 h 0.242535 q 0.239778,0 0.36518,-0.10887 0.126779,-0.11024 0.126779,-0.31006 0,-0.39136 -0.463021,-0.39136 z"
         style="fill:#ffffff;stroke-width:0.26458332"
         id="path980"
         inkscape:connector-curvature="0" />
      <path
         d="m 28.513965,219.50069 h -0.23151 v -0.90124 h -1.022504 v 0.90124 H 27.02844 v -1.97611 h 0.231511 v 0.86679 h 1.022504 v -0.86679 h 0.23151 z"
         style="fill:#ffffff;stroke-width:0.26458332"
         id="path982"
         inkscape:connector-curvature="0" />
    </g>
    <g
       aria-label="MORPH OUT A"
       style="font-style:normal;font-variant:normal;font-weight:normal;font-stretch:normal;font-size:2.82222223px;line-height:1.25;font-family:'Yu Gothic UI';-inkscape-font-specification:'Yu Gothic UI';letter-spacing:0px;word-spacing:0px;fill:#ffffff;fill-opacity:1;stroke:none;stroke-width:0.26458332"
       id="text987">
      <path
         d="M 8.6113604,235.44954 H 8.381228 v -1.32567 q 0,-0.1571 0.019293,-0.38448 h -0.00551 q -0.033073,0.13367 -0.059256,0.19155 l -0.6752388,1.5186 H 7.5475149 l -0.6738607,-1.50757 q -0.028939,-0.0661 -0.059256,-0.20258 h -0.00551 q 0.011024,0.11852 0.011024,0.38723 v 1.32292 H 6.5966686 v -1.97611 H 6.902593 l 0.6063368,1.37804 q 0.07028,0.15847 0.090951,0.23702 h 0.00827 q 0.059256,-0.16261 0.095085,-0.24253 l 0.6187392,-1.37253 h 0.289388 z"
         style="fill:#ffffff;stroke-width:0.26458332"
         id="path1039"
         inkscape:connector-curvature="0" />
      <path
         d="m 9.9287648,235.48261 q -0.4203016,0 -0.6738607,-0.27698 -0.252181,-0.27699 -0.252181,-0.72072 0,-0.4768 0.2576932,-0.76067 0.2576931,-0.28388 0.7014214,-0.28388 0.4092773,0 0.6587023,0.27561 0.250803,0.2756 0.250803,0.72071 0,0.48369 -0.256315,0.76481 -0.256315,0.28112 -0.6862632,0.28112 z m 0.016537,-1.83279 q -0.3114367,0 -0.5057401,0.22462 -0.1943033,0.22462 -0.1943033,0.5898 0,0.36518 0.1887912,0.58842 0.1901693,0.22187 0.4947157,0.22187 0.3252167,0 0.5126307,-0.21222 0.187413,-0.21222 0.187413,-0.59393 0,-0.39137 -0.181901,-0.60496 -0.181901,-0.2136 -0.5016062,-0.2136 z"
         style="fill:#ffffff;stroke-width:0.26458332"
         id="path1041"
         inkscape:connector-curvature="0" />
      <path
         d="m 12.676573,235.44954 h -0.275607 l -0.33073,-0.55397 q -0.04547,-0.0772 -0.08819,-0.13092 -0.04272,-0.0551 -0.08819,-0.0896 -0.0441,-0.0345 -0.09646,-0.0496 -0.05099,-0.0165 -0.115755,-0.0165 h -0.19017 v 0.8406 h -0.23151 v -1.97611 h 0.5898 q 0.129536,0 0.238401,0.0331 0.110243,0.0317 0.190169,0.0978 0.0813,0.0661 0.12678,0.16536 0.04548,0.0978 0.04548,0.23013 0,0.10336 -0.0317,0.19017 -0.03032,0.0854 -0.08819,0.15296 -0.0565,0.0675 -0.137804,0.11576 -0.07993,0.0469 -0.180523,0.073 v 0.006 q 0.04961,0.022 0.08544,0.051 0.03721,0.0276 0.07028,0.0661 0.03307,0.0386 0.06477,0.0882 0.03307,0.0482 0.07304,0.11299 z m -1.185113,-1.76665 v 0.71658 h 0.314193 q 0.08682,0 0.159853,-0.0262 0.07441,-0.0262 0.128157,-0.0744 0.05374,-0.0496 0.08406,-0.11989 0.03032,-0.0717 0.03032,-0.15985 0,-0.15848 -0.103353,-0.24667 -0.101974,-0.0896 -0.296278,-0.0896 z"
         style="fill:#ffffff;stroke-width:0.26458332"
         id="path1043"
         inkscape:connector-curvature="0" />
      <path
         d="m 13.178179,234.70264 v 0.7469 h -0.231511 v -1.97611 h 0.542948 q 0.316948,0 0.490581,0.15434 0.175011,0.15434 0.175011,0.43546 0,0.28112 -0.194303,0.46027 -0.192926,0.17914 -0.522277,0.17914 z m 0,-1.01975 v 0.81029 h 0.242535 q 0.239778,0 0.36518,-0.10886 0.126779,-0.11025 0.126779,-0.31006 0,-0.39137 -0.463021,-0.39137 z"
         style="fill:#ffffff;stroke-width:0.26458332"
         id="path1045"
         inkscape:connector-curvature="0" />
      <path
         d="m 16.014181,235.44954 h -0.23151 v -0.90124 h -1.022504 v 0.90124 h -0.231511 v -1.97611 h 0.231511 v 0.86679 h 1.022504 v -0.86679 h 0.23151 z"
         style="fill:#ffffff;stroke-width:0.26458332"
         id="path1047"
         inkscape:connector-curvature="0" />
      <path
         d="m 18.103287,235.48261 q -0.420301,0 -0.67386,-0.27698 -0.252181,-0.27699 -0.252181,-0.72072 0,-0.4768 0.257693,-0.76067 0.257693,-0.28388 0.701421,-0.28388 0.409277,0 0.658702,0.27561 0.250803,0.2756 0.250803,0.72071 0,0.48369 -0.256315,0.76481 -0.256315,0.28112 -0.686263,0.28112 z m 0.01654,-1.83279 q -0.311437,0 -0.50574,0.22462 -0.194304,0.22462 -0.194304,0.5898 0,0.36518 0.188791,0.58842 0.19017,0.22187 0.494716,0.22187 0.325217,0 0.51263,-0.21222 0.187414,-0.21222 0.187414,-0.59393 0,-0.39137 -0.181901,-0.60496 -0.181901,-0.2136 -0.501606,-0.2136 z"
         style="fill:#ffffff;stroke-width:0.26458332"
         id="path1049"
         inkscape:connector-curvature="0" />
      <path
         d="m 20.880034,234.65028 q 0,0.83233 -0.75103,0.83233 -0.719336,0 -0.719336,-0.80064 v -1.20854 h 0.23151 v 1.19338 q 0,0.60772 0.51263,0.60772 0.494716,0 0.494716,-0.58705 v -1.21405 h 0.23151 z"
         style="fill:#ffffff;stroke-width:0.26458332"
         id="path1051"
         inkscape:connector-curvature="0" />
      <path
         d="m 22.543327,233.68289 h -0.570508 v 1.76665 h -0.23151 v -1.76665 h -0.56913 v -0.20946 h 1.371148 z"
         style="fill:#ffffff;stroke-width:0.26458332"
         id="path1053"
         inkscape:connector-curvature="0" />
      <path
         d="m 25.153331,235.44954 h -0.256315 l -0.209461,-0.55397 h -0.837848 l -0.197059,0.55397 h -0.257693 l 0.757921,-1.97611 h 0.239778 z m -0.541569,-0.76206 -0.310058,-0.84198 q -0.01516,-0.0413 -0.03032,-0.13229 h -0.0055 q -0.01378,0.0841 -0.0317,0.13229 l -0.307303,0.84198 z"
         style="fill:#ffffff;stroke-width:0.26458332"
         id="path1055"
         inkscape:connector-curvature="0" />
    </g>
    <g
       aria-label="MORPH OUT B"
       style="font-style:normal;font-variant:normal;font-weight:normal;font-stretch:normal;font-size:2.82222223px;line-height:1.25;font-family:'Yu Gothic UI';-inkscape-font-specification:'Yu Gothic UI';letter-spacing:0px;word-spacing:0px;fill:#ffffff;fill-opacity:1;stroke:none;stroke-width:0.26458332"
       id="text991">
      <path
         d="M 8.7677678,249.97023 H 8.5376354 v -1.32567 q 0,-0.1571 0.019293,-0.38448 h -0.00551 q -0.033073,0.13367 -0.059256,0.19155 l -0.6752387,1.5186 H 7.7039223 l -0.6738607,-1.50757 q -0.028939,-0.0661 -0.059256,-0.20258 h -0.00551 q 0.011024,0.11852 0.011024,0.38723 v 1.32292 H 6.7530759 v -1.97611 h 0.3059245 l 0.6063368,1.37804 q 0.07028,0.15848 0.09095,0.23702 h 0.00827 q 0.059256,-0.1626 0.095085,-0.24253 l 0.6187391,-1.37253 h 0.2893881 z"
         style="fill:#ffffff;stroke-width:0.26458332"
         id="path1058"
         inkscape:connector-curvature="0" />
      <path
         d="m 10.085172,250.0033 q -0.4203015,0 -0.6738605,-0.27698 -0.252181,-0.27699 -0.252181,-0.72072 0,-0.4768 0.2576931,-0.76067 0.2576932,-0.28388 0.7014214,-0.28388 0.409277,0 0.658702,0.27561 0.250803,0.27561 0.250803,0.72071 0,0.48369 -0.256315,0.76481 -0.256315,0.28112 -0.686263,0.28112 z m 0.01654,-1.83279 q -0.311437,0 -0.5057404,0.22462 -0.1943034,0.22462 -0.1943034,0.5898 0,0.36518 0.1887912,0.58843 0.1901693,0.22186 0.4947156,0.22186 0.325217,0 0.51263,-0.21222 0.187414,-0.21222 0.187414,-0.59393 0,-0.39137 -0.181901,-0.60496 -0.181902,-0.2136 -0.501606,-0.2136 z"
         style="fill:#ffffff;stroke-width:0.26458332"
         id="path1060"
         inkscape:connector-curvature="0" />
      <path
         d="m 12.832981,249.97023 h -0.275608 l -0.330729,-0.55397 q -0.04547,-0.0772 -0.0882,-0.13091 -0.04272,-0.0551 -0.08819,-0.0896 -0.0441,-0.0345 -0.09646,-0.0496 -0.05099,-0.0165 -0.115755,-0.0165 H 11.64787 v 0.8406 h -0.231511 v -1.97611 h 0.589801 q 0.129535,0 0.2384,0.0331 0.110243,0.0317 0.19017,0.0978 0.0813,0.0661 0.126779,0.16536 0.04547,0.0978 0.04547,0.23013 0,0.10336 -0.0317,0.19017 -0.03032,0.0854 -0.08819,0.15297 -0.0565,0.0675 -0.137804,0.11575 -0.07993,0.0469 -0.180523,0.073 v 0.006 q 0.04961,0.022 0.08544,0.051 0.03721,0.0276 0.07028,0.0661 0.03307,0.0386 0.06477,0.0882 0.03307,0.0482 0.07304,0.113 z m -1.185113,-1.76664 v 0.71657 h 0.314192 q 0.08682,0 0.159853,-0.0262 0.07441,-0.0262 0.128157,-0.0744 0.05374,-0.0496 0.08406,-0.11989 0.03032,-0.0717 0.03032,-0.15985 0,-0.15848 -0.103353,-0.24667 -0.101975,-0.0896 -0.296278,-0.0896 z"
         style="fill:#ffffff;stroke-width:0.26458332"
         id="path1062"
         inkscape:connector-curvature="0" />
      <path
         d="m 13.334586,249.22333 v 0.7469 h -0.23151 v -1.97611 h 0.542947 q 0.316949,0 0.490581,0.15434 0.175011,0.15434 0.175011,0.43546 0,0.28112 -0.194303,0.46027 -0.192925,0.17914 -0.522277,0.17914 z m 0,-1.01974 v 0.81028 h 0.242535 q 0.239779,0 0.36518,-0.10886 0.12678,-0.11025 0.12678,-0.31006 0,-0.39136 -0.463021,-0.39136 z"
         style="fill:#ffffff;stroke-width:0.26458332"
         id="path1064"
         inkscape:connector-curvature="0" />
      <path
         d="m 16.170589,249.97023 h -0.231511 v -0.90124 h -1.022504 v 0.90124 h -0.23151 v -1.97611 h 0.23151 v 0.86679 h 1.022504 v -0.86679 h 0.231511 z"
         style="fill:#ffffff;stroke-width:0.26458332"
         id="path1066"
         inkscape:connector-curvature="0" />
      <path
         d="m 18.259695,250.0033 q -0.420302,0 -0.673861,-0.27698 -0.252181,-0.27699 -0.252181,-0.72072 0,-0.4768 0.257693,-0.76067 0.257693,-0.28388 0.701421,-0.28388 0.409278,0 0.658703,0.27561 0.250803,0.27561 0.250803,0.72071 0,0.48369 -0.256315,0.76481 -0.256316,0.28112 -0.686263,0.28112 z m 0.01654,-1.83279 q -0.311437,0 -0.50574,0.22462 -0.194303,0.22462 -0.194303,0.5898 0,0.36518 0.188791,0.58843 0.190169,0.22186 0.494716,0.22186 0.325217,0 0.51263,-0.21222 0.187413,-0.21222 0.187413,-0.59393 0,-0.39137 -0.181901,-0.60496 -0.181901,-0.2136 -0.501606,-0.2136 z"
         style="fill:#ffffff;stroke-width:0.26458332"
         id="path1068"
         inkscape:connector-curvature="0" />
      <path
         d="m 21.036442,249.17097 q 0,0.83233 -0.751031,0.83233 -0.719336,0 -0.719336,-0.80064 v -1.20854 h 0.23151 v 1.19338 q 0,0.60772 0.512631,0.60772 0.494715,0 0.494715,-0.58705 v -1.21405 h 0.231511 z"
         style="fill:#ffffff;stroke-width:0.26458332"
         id="path1070"
         inkscape:connector-curvature="0" />
      <path
         d="m 22.699734,248.20359 h -0.570508 v 1.76664 h -0.23151 v -1.76664 h -0.56913 v -0.20947 h 1.371148 z"
         style="fill:#ffffff;stroke-width:0.26458332"
         id="path1072"
         inkscape:connector-curvature="0" />
      <path
         d="m 23.780116,249.97023 v -1.97611 h 0.56224 q 0.256315,0 0.406521,0.1254 0.150206,0.12541 0.150206,0.3266 0,0.16812 -0.09095,0.29214 -0.09095,0.12403 -0.250803,0.17639 v 0.006 q 0.199815,0.0234 0.319705,0.15159 0.119889,0.12678 0.119889,0.33073 0,0.25356 -0.181901,0.41065 -0.181901,0.1571 -0.458887,0.1571 z m 0.231511,-1.76664 v 0.63803 h 0.237022 q 0.19017,0 0.299035,-0.0909 0.108865,-0.0923 0.108865,-0.25907 0,-0.28801 -0.378961,-0.28801 z m 0,0.84611 v 0.71107 h 0.314193 q 0.203949,0 0.31557,-0.0965 0.112999,-0.0965 0.112999,-0.26459 0,-0.35002 -0.476801,-0.35002 z"
         style="fill:#ffffff;stroke-width:0.26458332"
         id="path1074"
         inkscape:connector-curvature="0" />
    </g>
    <g
       aria-label="MORPH OUT C"
       style="font-style:normal;font-variant:normal;font-weight:normal;font-stretch:normal;font-size:2.82222223px;line-height:1.25;font-family:'Yu Gothic UI';-inkscape-font-specification:'Yu Gothic UI';letter-spacing:0px;word-spacing:0px;fill:#ffffff;fill-opacity:1;stroke:none;stroke-width:0.26458332"
       id="text995"
       transform="translate(0,1.3703441)">
      <path
         d="M 8.7036889,263.17105 H 8.4735566 v -1.32567 q 0,-0.1571 0.019293,-0.38447 h -0.00551 q -0.033073,0.13367 -0.059256,0.19154 l -0.6752387,1.5186 H 7.6398435 l -0.6738607,-1.50757 q -0.028939,-0.0661 -0.059256,-0.20257 h -0.00551 q 0.011024,0.11851 0.011024,0.38722 v 1.32292 H 6.6889971 v -1.97611 h 0.3059245 l 0.6063368,1.37804 q 0.07028,0.15848 0.09095,0.23703 h 0.00827 q 0.059256,-0.16261 0.095085,-0.24254 l 0.6187391,-1.37253 h 0.289388 z"
         style="fill:#ffffff;stroke-width:0.26458332"
         id="path1020"
         inkscape:connector-curvature="0" />
      <path
         d="m 10.021093,263.20412 q -0.4203013,0 -0.6738603,-0.27698 -0.252181,-0.27699 -0.252181,-0.72072 0,-0.4768 0.2576931,-0.76067 0.2576932,-0.28388 0.7014212,-0.28388 0.409278,0 0.658703,0.27561 0.250802,0.27561 0.250802,0.72071 0,0.48369 -0.256315,0.76481 -0.256315,0.28112 -0.686263,0.28112 z m 0.01654,-1.83279 q -0.3114368,0 -0.5057402,0.22462 -0.1943034,0.22462 -0.1943034,0.5898 0,0.36518 0.1887912,0.58843 0.1901693,0.22186 0.4947154,0.22186 0.325217,0 0.512631,-0.21222 0.187413,-0.21222 0.187413,-0.59393 0,-0.39137 -0.181901,-0.60496 -0.181901,-0.2136 -0.501606,-0.2136 z"
         style="fill:#ffffff;stroke-width:0.26458332"
         id="path1022"
         inkscape:connector-curvature="0" />
      <path
         d="m 12.768902,263.17105 h -0.275608 l -0.330729,-0.55397 q -0.04548,-0.0772 -0.08819,-0.13091 -0.04272,-0.0551 -0.08819,-0.0896 -0.0441,-0.0344 -0.09646,-0.0496 -0.05099,-0.0165 -0.115755,-0.0165 h -0.190169 v 0.8406 h -0.23151 v -1.97611 h 0.5898 q 0.129535,0 0.2384,0.0331 0.110244,0.0317 0.19017,0.0978 0.0813,0.0661 0.126779,0.16536 0.04548,0.0978 0.04548,0.23013 0,0.10336 -0.0317,0.19017 -0.03032,0.0854 -0.08819,0.15297 -0.0565,0.0675 -0.137804,0.11575 -0.07993,0.0468 -0.180523,0.073 v 0.006 q 0.04961,0.0221 0.08544,0.051 0.03721,0.0276 0.07028,0.0661 0.03307,0.0386 0.06477,0.0882 0.03307,0.0482 0.07304,0.113 z m -1.185113,-1.76664 v 0.71658 h 0.314193 q 0.08682,0 0.159852,-0.0262 0.07441,-0.0262 0.128158,-0.0744 0.05374,-0.0496 0.08406,-0.11989 0.03032,-0.0717 0.03032,-0.15985 0,-0.15848 -0.103353,-0.24667 -0.101975,-0.0896 -0.296278,-0.0896 z"
         style="fill:#ffffff;stroke-width:0.26458332"
         id="path1024"
         inkscape:connector-curvature="0" />
      <path
         d="m 13.270507,262.42415 v 0.7469 h -0.23151 v -1.97611 h 0.542947 q 0.316949,0 0.490582,0.15434 0.175011,0.15434 0.175011,0.43546 0,0.28112 -0.194304,0.46027 -0.192925,0.17914 -0.522276,0.17914 z m 0,-1.01974 v 0.81028 h 0.242535 q 0.239779,0 0.36518,-0.10886 0.12678,-0.11025 0.12678,-0.31006 0,-0.39136 -0.463021,-0.39136 z"
         style="fill:#ffffff;stroke-width:0.26458332"
         id="path1026"
         inkscape:connector-curvature="0" />
      <path
         d="M 16.10651,263.17105 H 15.875 v -0.90124 h -1.022505 v 0.90124 h -0.23151 v -1.97611 h 0.23151 v 0.86679 H 15.875 v -0.86679 h 0.23151 z"
         style="fill:#ffffff;stroke-width:0.26458332"
         id="path1028"
         inkscape:connector-curvature="0" />
      <path
         d="m 18.195616,263.20412 q -0.420302,0 -0.673861,-0.27698 -0.252181,-0.27699 -0.252181,-0.72072 0,-0.4768 0.257693,-0.76067 0.257693,-0.28388 0.701422,-0.28388 0.409277,0 0.658702,0.27561 0.250803,0.27561 0.250803,0.72071 0,0.48369 -0.256315,0.76481 -0.256315,0.28112 -0.686263,0.28112 z m 0.01654,-1.83279 q -0.311436,0 -0.50574,0.22462 -0.194303,0.22462 -0.194303,0.5898 0,0.36518 0.188791,0.58843 0.190169,0.22186 0.494716,0.22186 0.325217,0 0.51263,-0.21222 0.187413,-0.21222 0.187413,-0.59393 0,-0.39137 -0.181901,-0.60496 -0.181901,-0.2136 -0.501606,-0.2136 z"
         style="fill:#ffffff;stroke-width:0.26458332"
         id="path1030"
         inkscape:connector-curvature="0" />
      <path
         d="m 20.972363,262.37179 q 0,0.83233 -0.751031,0.83233 -0.719336,0 -0.719336,-0.80064 v -1.20854 h 0.231511 v 1.19339 q 0,0.60771 0.51263,0.60771 0.494716,0 0.494716,-0.58704 v -1.21406 h 0.23151 z"
         style="fill:#ffffff;stroke-width:0.26458332"
         id="path1032"
         inkscape:connector-curvature="0" />
      <path
         d="m 22.635655,261.40441 h -0.570507 v 1.76664 h -0.231511 v -1.76664 h -0.56913 v -0.20947 h 1.371148 z"
         style="fill:#ffffff;stroke-width:0.26458332"
         id="path1034"
         inkscape:connector-curvature="0" />
      <path
         d="m 25.061003,263.08837 q -0.219108,0.11575 -0.545703,0.11575 -0.42168,0 -0.675239,-0.27147 -0.253559,-0.27147 -0.253559,-0.71245 0,-0.47404 0.285254,-0.76618 0.285254,-0.29215 0.72347,-0.29215 0.28112,0 0.465777,0.0813 v 0.24666 q -0.212218,-0.11851 -0.468533,-0.11851 -0.340376,0 -0.552593,0.22738 -0.21084,0.22738 -0.21084,0.60771 0,0.36105 0.197059,0.57602 0.198438,0.2136 0.519521,0.2136 0.297656,0 0.515386,-0.13229 z"
         style="fill:#ffffff;stroke-width:0.26458332"
         id="path1036"
         inkscape:connector-curvature="0" />
    </g>
    <g
       aria-label="MORPH OUT D"
       style="font-style:normal;font-variant:normal;font-weight:normal;font-stretch:normal;font-size:2.82222223px;line-height:1.25;font-family:'Yu Gothic UI';-inkscape-font-specification:'Yu Gothic UI';letter-spacing:0px;word-spacing:0px;fill:#ffffff;fill-opacity:1;stroke:none;stroke-width:0.26458332"
       id="text999"
       transform="translate(-5.5989745,1.9398386)">
      <path
         d="m 14.180013,277.15625 h -0.230132 v -1.32567 q 0,-0.1571 0.01929,-0.38448 h -0.0055 q -0.03307,0.13367 -0.05926,0.19155 l -0.675238,1.5186 h -0.112999 l -0.673861,-1.50757 q -0.02894,-0.0661 -0.05926,-0.20258 h -0.0055 q 0.01102,0.11852 0.01102,0.38723 v 1.32292 h -0.223242 v -1.97611 h 0.305925 l 0.606336,1.37804 q 0.07028,0.15848 0.09095,0.23702 h 0.0083 q 0.05926,-0.1626 0.09509,-0.24253 l 0.618739,-1.37253 h 0.289388 z"
         style="fill:#ffffff;stroke-width:0.26458332"
         id="path1001"
         inkscape:connector-curvature="0" />
      <path
         d="m 15.497417,277.18932 q -0.420301,0 -0.67386,-0.27698 -0.252181,-0.27699 -0.252181,-0.72072 0,-0.4768 0.257693,-0.76067 0.257693,-0.28388 0.701421,-0.28388 0.409278,0 0.658703,0.27561 0.250803,0.27561 0.250803,0.72071 0,0.48369 -0.256316,0.76481 -0.256315,0.28112 -0.686263,0.28112 z m 0.01654,-1.83279 q -0.311437,0 -0.50574,0.22462 -0.194304,0.22462 -0.194304,0.5898 0,0.36518 0.188792,0.58842 0.190169,0.22187 0.494715,0.22187 0.325217,0 0.512631,-0.21222 0.187413,-0.21222 0.187413,-0.59393 0,-0.39137 -0.181901,-0.60496 -0.181901,-0.2136 -0.501606,-0.2136 z"
         style="fill:#ffffff;stroke-width:0.26458332"
         id="path1003"
         inkscape:connector-curvature="0" />
      <path
         d="m 18.245226,277.15625 h -0.275608 l -0.330729,-0.55397 q -0.04547,-0.0772 -0.08819,-0.13091 -0.04272,-0.0551 -0.0882,-0.0896 -0.0441,-0.0345 -0.09646,-0.0496 -0.05099,-0.0165 -0.115756,-0.0165 h -0.190169 v 0.8406 h -0.23151 v -1.97611 h 0.5898 q 0.129536,0 0.238401,0.0331 0.110243,0.0317 0.190169,0.0978 0.0813,0.0661 0.126779,0.16536 0.04548,0.0978 0.04548,0.23013 0,0.10336 -0.03169,0.19017 -0.03032,0.0854 -0.08819,0.15297 -0.0565,0.0675 -0.137804,0.11575 -0.07993,0.0469 -0.180523,0.073 v 0.006 q 0.04961,0.022 0.08544,0.051 0.03721,0.0276 0.07028,0.0661 0.03307,0.0386 0.06477,0.0882 0.03307,0.0482 0.07304,0.113 z m -1.185113,-1.76664 v 0.71657 h 0.314193 q 0.08682,0 0.159852,-0.0262 0.07441,-0.0262 0.128158,-0.0744 0.05374,-0.0496 0.08406,-0.11989 0.03032,-0.0717 0.03032,-0.15985 0,-0.15848 -0.103353,-0.24667 -0.101975,-0.0896 -0.296278,-0.0896 z"
         style="fill:#ffffff;stroke-width:0.26458332"
         id="path1005"
         inkscape:connector-curvature="0" />
      <path
         d="m 18.746832,276.40935 v 0.7469 h -0.231511 v -1.97611 h 0.542947 q 0.316949,0 0.490582,0.15434 0.175011,0.15434 0.175011,0.43546 0,0.28112 -0.194304,0.46027 -0.192925,0.17914 -0.522276,0.17914 z m 0,-1.01974 v 0.81028 h 0.242534 q 0.239779,0 0.36518,-0.10886 0.12678,-0.11025 0.12678,-0.31006 0,-0.39136 -0.463021,-0.39136 z"
         style="fill:#ffffff;stroke-width:0.26458332"
         id="path1007"
         inkscape:connector-curvature="0" />
      <path
         d="m 21.582834,277.15625 h -0.23151 v -0.90124 h -1.022505 v 0.90124 h -0.23151 v -1.97611 h 0.23151 v 0.86679 h 1.022505 v -0.86679 h 0.23151 z"
         style="fill:#ffffff;stroke-width:0.26458332"
         id="path1009"
         inkscape:connector-curvature="0" />
      <path
         d="m 23.67194,277.18932 q -0.420302,0 -0.673861,-0.27698 -0.252181,-0.27699 -0.252181,-0.72072 0,-0.4768 0.257693,-0.76067 0.257693,-0.28388 0.701422,-0.28388 0.409277,0 0.658702,0.27561 0.250803,0.27561 0.250803,0.72071 0,0.48369 -0.256315,0.76481 -0.256315,0.28112 -0.686263,0.28112 z m 0.01654,-1.83279 q -0.311436,0 -0.50574,0.22462 -0.194303,0.22462 -0.194303,0.5898 0,0.36518 0.188791,0.58842 0.190169,0.22187 0.494716,0.22187 0.325217,0 0.51263,-0.21222 0.187413,-0.21222 0.187413,-0.59393 0,-0.39137 -0.181901,-0.60496 -0.181901,-0.2136 -0.501606,-0.2136 z"
         style="fill:#ffffff;stroke-width:0.26458332"
         id="path1011"
         inkscape:connector-curvature="0" />
      <path
         d="m 26.448687,276.35699 q 0,0.83233 -0.751031,0.83233 -0.719336,0 -0.719336,-0.80064 v -1.20854 h 0.231511 v 1.19338 q 0,0.60772 0.51263,0.60772 0.494716,0 0.494716,-0.58705 v -1.21405 h 0.23151 z"
         style="fill:#ffffff;stroke-width:0.26458332"
         id="path1013"
         inkscape:connector-curvature="0" />
      <path
         d="m 28.111979,275.38961 h -0.570507 v 1.76664 h -0.231511 v -1.76664 h -0.56913 v -0.20947 h 1.371148 z"
         style="fill:#ffffff;stroke-width:0.26458332"
         id="path1015"
         inkscape:connector-curvature="0" />
      <path
         d="m 29.192362,277.15625 v -1.97611 h 0.545703 q 1.044553,0 1.044553,0.96325 0,0.45751 -0.290766,0.73587 -0.289388,0.27699 -0.775836,0.27699 z m 0.23151,-1.76664 v 1.55718 h 0.2949 q 0.388607,0 0.604959,-0.20809 0.216352,-0.20808 0.216352,-0.5898 0,-0.75929 -0.80753,-0.75929 z"
         style="fill:#ffffff;stroke-width:0.26458332"
         id="path1017"
         inkscape:connector-curvature="0" />
    </g>
  </g>
  <g
     inkscape:groupmode="layer"
     id="layer2"
     inkscape:label="Grid6"
     sodipodi:insensitive="true"
     style="display:none">
    <g
       style="display:inline"
       id="g1158">
      <path
         sodipodi:nodetypes="cc"
         inkscape:connector-curvature="0"
         id="path879-7-3"
         d="M 15.9,0 15.875,100.54167"
         style="fill:none;stroke:#000000;stroke-width:0.05;stroke-linecap:butt;stroke-linejoin:miter;stroke-miterlimit:4;stroke-dasharray:none;stroke-opacity:1" />
      <path
         style="fill:none;stroke:#000000;stroke-width:0.05;stroke-linecap:butt;stroke-linejoin:miter;stroke-miterlimit:4;stroke-dasharray:none;stroke-opacity:1"
         d="m 7.9375,-1e-5 -3e-6,100.54167"
         id="path881-8-8"
         inkscape:connector-curvature="0"
         sodipodi:nodetypes="cc" />
      <path
         style="fill:none;stroke:#000000;stroke-width:0.05;stroke-linecap:butt;stroke-linejoin:miter;stroke-miterlimit:4;stroke-dasharray:none;stroke-opacity:1"
         d="m 23.8125,-1e-5 5e-6,100.54167"
         id="path883-2-9"
         inkscape:connector-curvature="0"
         sodipodi:nodetypes="cc" />
      <path
         sodipodi:nodetypes="cc"
         inkscape:connector-curvature="0"
         id="path890-2-5"
         d="m 3.968752,0 -4e-6,100.54167"
         style="fill:none;stroke:#000000;stroke-width:0.05;stroke-linecap:butt;stroke-linejoin:miter;stroke-miterlimit:4;stroke-dasharray:none;stroke-opacity:1" />
      <path
         style="fill:none;stroke:#000000;stroke-width:0.05;stroke-linecap:butt;stroke-linejoin:miter;stroke-miterlimit:4;stroke-dasharray:none;stroke-opacity:1"
         d="m 11.906253,0 -4e-6,100.54167"
         id="path895-1-5"
         inkscape:connector-curvature="0"
         sodipodi:nodetypes="cc" />
      <path
         style="fill:none;stroke:#000000;stroke-width:0.05;stroke-linecap:butt;stroke-linejoin:miter;stroke-miterlimit:4;stroke-dasharray:none;stroke-opacity:1"
         d="m 19.843758,0 -4e-6,100.54167"
         id="path899-0-8"
         inkscape:connector-curvature="0"
         sodipodi:nodetypes="cc" />
      <path
         sodipodi:nodetypes="cc"
         inkscape:connector-curvature="0"
         id="path903-0-0"
         d="m 27.781263,0 -2e-6,100.54167"
         style="fill:none;stroke:#000000;stroke-width:0.05;stroke-linecap:butt;stroke-linejoin:miter;stroke-miterlimit:4;stroke-dasharray:none;stroke-opacity:1" />
      <path
         inkscape:connector-curvature="0"
         id="path905-6-4"
         d="M 0,14.022551 H 31.75"
         style="fill:none;stroke:#000000;stroke-width:0.05;stroke-linecap:butt;stroke-linejoin:miter;stroke-miterlimit:4;stroke-dasharray:none;stroke-opacity:1" />
      <path
         style="fill:none;stroke:#000000;stroke-width:0.05;stroke-linecap:butt;stroke-linejoin:miter;stroke-miterlimit:4;stroke-dasharray:none;stroke-opacity:1"
         d="M 0,28.57465 H 31.75"
         id="path1103"
         inkscape:connector-curvature="0" />
      <path
         inkscape:connector-curvature="0"
         id="path1107"
         d="M 0,43.126622 H 31.75"
         style="fill:none;stroke:#000000;stroke-width:0.05;stroke-linecap:butt;stroke-linejoin:miter;stroke-miterlimit:4;stroke-dasharray:none;stroke-opacity:1" />
      <path
         style="fill:none;stroke:#000000;stroke-width:0.05;stroke-linecap:butt;stroke-linejoin:miter;stroke-miterlimit:4;stroke-dasharray:none;stroke-opacity:1"
         d="M 0,57.678723 H 31.75"
         id="path1111"
         inkscape:connector-curvature="0" />
      <path
         inkscape:connector-curvature="0"
         id="path1115"
         d="M 0,72.230955 H 31.75"
         style="fill:none;stroke:#000000;stroke-width:0.05;stroke-linecap:butt;stroke-linejoin:miter;stroke-miterlimit:4;stroke-dasharray:none;stroke-opacity:1" />
      <path
         style="fill:none;stroke:#000000;stroke-width:0.05;stroke-linecap:butt;stroke-linejoin:miter;stroke-miterlimit:4;stroke-dasharray:none;stroke-opacity:1"
         d="M 0,86.782927 H 31.75"
         id="path1119"
         inkscape:connector-curvature="0" />
      <circle
         r="4.0999999"
         cy="14.022837"
         cx="23.827299"
         id="circle1006"
         style="display:inline;opacity:1;fill:none;fill-opacity:1;stroke:#000000;stroke-width:0.05;stroke-linecap:square;stroke-linejoin:round;stroke-miterlimit:4;stroke-dasharray:none;stroke-dashoffset:0;stroke-opacity:1;paint-order:markers fill stroke" />
      <circle
         style="display:inline;opacity:1;fill:none;fill-opacity:1;stroke:#000000;stroke-width:0.05;stroke-linecap:square;stroke-linejoin:round;stroke-miterlimit:4;stroke-dasharray:none;stroke-dashoffset:0;stroke-opacity:1;paint-order:markers fill stroke"
         id="circle1008"
         cx="7.9523039"
         cy="14.022837"
         r="4.0999999" />
      <circle
         style="display:inline;opacity:1;fill:none;fill-opacity:1;stroke:#000000;stroke-width:0.05;stroke-linecap:square;stroke-linejoin:round;stroke-miterlimit:4;stroke-dasharray:none;stroke-dashoffset:0;stroke-opacity:1;paint-order:markers fill stroke"
         id="circle1012"
         cx="23.827299"
         cy="28.574995"
         r="4.0999999" />
      <circle
         r="4.0999999"
         cy="28.574995"
         cx="7.9523039"
         id="circle1014"
         style="display:inline;opacity:1;fill:none;fill-opacity:1;stroke:#000000;stroke-width:0.05;stroke-linecap:square;stroke-linejoin:round;stroke-miterlimit:4;stroke-dasharray:none;stroke-dashoffset:0;stroke-opacity:1;paint-order:markers fill stroke" />
      <circle
         style="display:inline;opacity:1;fill:none;fill-opacity:1;stroke:#000000;stroke-width:0.05;stroke-linecap:square;stroke-linejoin:round;stroke-miterlimit:4;stroke-dasharray:none;stroke-dashoffset:0;stroke-opacity:1;paint-order:markers fill stroke"
         id="circle1016"
         cx="23.827299"
         cy="43.127026"
         r="4.0999999" />
      <circle
         r="4.0999999"
         cy="43.127026"
         cx="7.9523039"
         id="circle1018"
         style="display:inline;opacity:1;fill:none;fill-opacity:1;stroke:#000000;stroke-width:0.05;stroke-linecap:square;stroke-linejoin:round;stroke-miterlimit:4;stroke-dasharray:none;stroke-dashoffset:0;stroke-opacity:1;paint-order:markers fill stroke" />
      <circle
         r="4.0999999"
         cy="57.679188"
         cx="23.827299"
         id="circle1020"
         style="display:inline;opacity:1;fill:none;fill-opacity:1;stroke:#000000;stroke-width:0.05;stroke-linecap:square;stroke-linejoin:round;stroke-miterlimit:4;stroke-dasharray:none;stroke-dashoffset:0;stroke-opacity:1;paint-order:markers fill stroke" />
      <circle
         style="display:inline;opacity:1;fill:none;fill-opacity:1;stroke:#000000;stroke-width:0.05;stroke-linecap:square;stroke-linejoin:round;stroke-miterlimit:4;stroke-dasharray:none;stroke-dashoffset:0;stroke-opacity:1;paint-order:markers fill stroke"
         id="circle1022"
         cx="7.9523039"
         cy="57.679188"
         r="4.0999999" />
      <circle
         r="4.0999999"
         cy="72.231216"
         cx="23.827299"
         id="circle1024"
         style="display:inline;opacity:1;fill:none;fill-opacity:1;stroke:#000000;stroke-width:0.05;stroke-linecap:square;stroke-linejoin:round;stroke-miterlimit:4;stroke-dasharray:none;stroke-dashoffset:0;stroke-opacity:1;paint-order:markers fill stroke" />
      <circle
         style="display:inline;opacity:1;fill:none;fill-opacity:1;stroke:#000000;stroke-width:0.05;stroke-linecap:square;stroke-linejoin:round;stroke-miterlimit:4;stroke-dasharray:none;stroke-dashoffset:0;stroke-opacity:1;paint-order:markers fill stroke"
         id="circle1026"
         cx="7.9523039"
         cy="72.231216"
         r="4.0999999" />
      <circle
         style="display:inline;opacity:1;fill:none;fill-opacity:1;stroke:#000000;stroke-width:0.05;stroke-linecap:square;stroke-linejoin:round;stroke-miterlimit:4;stroke-dasharray:none;stroke-dashoffset:0;stroke-opacity:1;paint-order:markers fill stroke"
         id="circle1028"
         cx="23.827299"
         cy="86.783379"
         r="4.0999999" />
      <circle
         r="4.0999999"
         cy="86.783379"
         cx="7.9523039"
         id="circle1030"
         style="display:inline;opacity:1;fill:none;fill-opacity:1;stroke:#000000;stroke-width:0.05;stroke-linecap:square;stroke-linejoin:round;stroke-miterlimit:4;stroke-dasharray:none;stroke-dashoffset:0;stroke-opacity:1;paint-order:markers fill stroke" />
      <circle
         style="display:inline;opacity:1;fill:none;fill-opacity:1;stroke:#000000;stroke-width:0.05172414;stroke-linecap:square;stroke-linejoin:round;stroke-miterlimit:4;stroke-dasharray:none;stroke-dashoffset:0;stroke-opacity:1;paint-order:markers fill stroke"
         id="circle1039"
         cx="23.811087"
         cy="14.023285"
         r="5.4741378" />
      <circle
         r="5.4741378"
         cy="14.023285"
         cx="7.9360862"
         id="circle1086"
         style="display:inline;opacity:1;fill:none;fill-opacity:1;stroke:#000000;stroke-width:0.05172414;stroke-linecap:square;stroke-linejoin:round;stroke-miterlimit:4;stroke-dasharray:none;stroke-dashoffset:0;stroke-opacity:1;paint-order:markers fill stroke" />
      <circle
         r="5.4741378"
         cy="28.573866"
         cx="23.811087"
         id="circle1088"
         style="display:inline;opacity:1;fill:none;fill-opacity:1;stroke:#000000;stroke-width:0.05172414;stroke-linecap:square;stroke-linejoin:round;stroke-miterlimit:4;stroke-dasharray:none;stroke-dashoffset:0;stroke-opacity:1;paint-order:markers fill stroke" />
      <circle
         style="display:inline;opacity:1;fill:none;fill-opacity:1;stroke:#000000;stroke-width:0.05172414;stroke-linecap:square;stroke-linejoin:round;stroke-miterlimit:4;stroke-dasharray:none;stroke-dashoffset:0;stroke-opacity:1;paint-order:markers fill stroke"
         id="circle1090"
         cx="7.9360862"
         cy="28.573866"
         r="5.4741378" />
      <circle
         r="5.4741378"
         cy="43.127476"
         cx="23.811087"
         id="circle1092"
         style="display:inline;opacity:1;fill:none;fill-opacity:1;stroke:#000000;stroke-width:0.05172414;stroke-linecap:square;stroke-linejoin:round;stroke-miterlimit:4;stroke-dasharray:none;stroke-dashoffset:0;stroke-opacity:1;paint-order:markers fill stroke" />
      <circle
         style="display:inline;opacity:1;fill:none;fill-opacity:1;stroke:#000000;stroke-width:0.05172414;stroke-linecap:square;stroke-linejoin:round;stroke-miterlimit:4;stroke-dasharray:none;stroke-dashoffset:0;stroke-opacity:1;paint-order:markers fill stroke"
         id="circle1094"
         cx="7.9360862"
         cy="43.127476"
         r="5.4741378" />
      <circle
         style="display:inline;opacity:1;fill:none;fill-opacity:1;stroke:#000000;stroke-width:0.05172414;stroke-linecap:square;stroke-linejoin:round;stroke-miterlimit:4;stroke-dasharray:none;stroke-dashoffset:0;stroke-opacity:1;paint-order:markers fill stroke"
         id="circle1096"
         cx="23.811087"
         cy="57.678059"
         r="5.4741378" />
      <circle
         r="5.4741378"
         cy="57.678059"
         cx="7.9360862"
         id="circle1098"
         style="display:inline;opacity:1;fill:none;fill-opacity:1;stroke:#000000;stroke-width:0.05172414;stroke-linecap:square;stroke-linejoin:round;stroke-miterlimit:4;stroke-dasharray:none;stroke-dashoffset:0;stroke-opacity:1;paint-order:markers fill stroke" />
      <circle
         style="display:inline;opacity:1;fill:none;fill-opacity:1;stroke:#000000;stroke-width:0.05172414;stroke-linecap:square;stroke-linejoin:round;stroke-miterlimit:4;stroke-dasharray:none;stroke-dashoffset:0;stroke-opacity:1;paint-order:markers fill stroke"
         id="circle1100"
         cx="23.811087"
         cy="72.231667"
         r="5.4741378" />
      <circle
         r="5.4741378"
         cy="72.231667"
         cx="7.9360862"
         id="circle1102"
         style="display:inline;opacity:1;fill:none;fill-opacity:1;stroke:#000000;stroke-width:0.05172414;stroke-linecap:square;stroke-linejoin:round;stroke-miterlimit:4;stroke-dasharray:none;stroke-dashoffset:0;stroke-opacity:1;paint-order:markers fill stroke" />
      <circle
         r="5.4741378"
         cy="86.782249"
         cx="23.811087"
         id="circle1104"
         style="display:inline;opacity:1;fill:none;fill-opacity:1;stroke:#000000;stroke-width:0.05172414;stroke-linecap:square;stroke-linejoin:round;stroke-miterlimit:4;stroke-dasharray:none;stroke-dashoffset:0;stroke-opacity:1;paint-order:markers fill stroke" />
      <circle
         style="display:inline;opacity:1;fill:none;fill-opacity:1;stroke:#000000;stroke-width:0.05172414;stroke-linecap:square;stroke-linejoin:round;stroke-miterlimit:4;stroke-dasharray:none;stroke-dashoffset:0;stroke-opacity:1;paint-order:markers fill stroke"
         id="circle1106"
         cx="7.9360862"
         cy="86.782249"
         r="5.4741378" />
    </g>
  </g>
</svg>
