<?xml version="1.0" encoding="UTF-8" standalone="no"?>
<!-- Created with Inkscape (http://www.inkscape.org/) -->

<svg
   xmlns:dc="http://purl.org/dc/elements/1.1/"
   xmlns:cc="http://creativecommons.org/ns#"
   xmlns:rdf="http://www.w3.org/1999/02/22-rdf-syntax-ns#"
   xmlns:svg="http://www.w3.org/2000/svg"
   xmlns="http://www.w3.org/2000/svg"
   xmlns:sodipodi="http://sodipodi.sourceforge.net/DTD/sodipodi-0.dtd"
   xmlns:inkscape="http://www.inkscape.org/namespaces/inkscape"
   width="60"
   height="380"
   viewBox="0 0 15.875001 100.54167"
   version="1.1"
   id="svg8"
   inkscape:version="0.92.4 (5da689c313, 2019-01-14)"
   sodipodi:docname="VCFrequencyDividerMkII.svg">
  <defs
     id="defs2" />
  <sodipodi:namedview
     id="base"
     pagecolor="#ffffff"
     bordercolor="#666666"
     borderopacity="1.0"
     inkscape:pageopacity="0.0"
     inkscape:pageshadow="2"
     inkscape:zoom="2.2789474"
     inkscape:cx="30"
     inkscape:cy="190"
     inkscape:document-units="mm"
     inkscape:current-layer="layer1"
     showgrid="true"
     units="px"
     inkscape:snap-bbox="true"
     inkscape:snap-page="true"
     inkscape:bbox-nodes="true"
     inkscape:snap-bbox-edge-midpoints="true"
     inkscape:window-width="1920"
     inkscape:window-height="1017"
     inkscape:window-x="-8"
     inkscape:window-y="-8"
     inkscape:window-maximized="1">
    <inkscape:grid
       type="xygrid"
       id="grid116" />
  </sodipodi:namedview>
  <metadata
     id="metadata5">
    <rdf:RDF>
      <cc:Work
         rdf:about="">
        <dc:format>image/svg+xml</dc:format>
        <dc:type
           rdf:resource="http://purl.org/dc/dcmitype/StillImage" />
        <dc:title />
      </cc:Work>
    </rdf:RDF>
  </metadata>
  <g
     inkscape:groupmode="layer"
     id="layer3"
     inkscape:label="Panel"
     sodipodi:insensitive="true">
    <rect
       transform="translate(0,-196.45832)"
       id="rect3855"
       width="15.875"
       height="100.54167"
       x="-3.3306691e-16"
       y="196.45831"
       style="fill:#333333;stroke-width:0.3310422" />
  </g>
  <g
     inkscape:label="Layer 1"
     inkscape:groupmode="layer"
     id="layer1"
     transform="translate(0,-196.45832)">
    <rect
       style="fill:#4d4d4d;stroke-width:0.1339225"
       id="rect897-7"
       width="13.148918"
       height="13.46628"
       x="1.4895458"
       y="260.89709" />
    <rect
       style="fill:#4d4d4d;stroke-width:0.1339225"
       id="rect897-7-1"
       width="13.148918"
       height="13.46628"
       x="1.4895482"
       y="275.44525" />
    <path
       style="fill:none;stroke:#ffffff;stroke-width:0.26458332px;stroke-linecap:butt;stroke-linejoin:miter;stroke-opacity:1"
       d="m 7.9374999,221.59374 v -7.9375"
       id="path336"
       inkscape:connector-curvature="0" />
    <g
       aria-label="/^M^\"
       style="font-style:normal;font-variant:normal;font-weight:normal;font-stretch:normal;font-size:2.82222223px;line-height:1.25;font-family:'Copperplate Gothic Light';-inkscape-font-specification:'Copperplate Gothic Light, ';letter-spacing:0px;word-spacing:0px;fill:#ffffff;fill-opacity:1;stroke:#ffffff;stroke-width:0.2;stroke-miterlimit:4;stroke-dasharray:none;stroke-opacity:1"
       id="text956"
       transform="translate(-17.424918,0.57062363)">
      <path
         d="m 21.203855,291.40545 v 0.0386 h -0.434082 v -0.0386 q 0.09509,-0.006 0.224621,-0.17088 l 1.094162,-1.4621 q 0.07441,-0.1006 0.07441,-0.12402 0,-0.0372 -0.06615,-0.0482 v -0.0372 h 0.423058 v 0.0372 q -0.09508,0.006 -0.22462,0.17087 l -1.08176,1.46348 q -0.07579,0.10197 -0.07579,0.12402 0,0.0358 0.06615,0.0469 z"
         style="font-style:normal;font-variant:normal;font-weight:normal;font-stretch:normal;font-size:2.82222223px;line-height:1.25;font-family:'Copperplate Gothic Light';-inkscape-font-specification:'Copperplate Gothic Light, ';stroke:#ffffff;stroke-width:0.2;stroke-miterlimit:4;stroke-dasharray:none;stroke-opacity:1"
         id="path958"
         inkscape:connector-curvature="0" />
      <path
         d="M 22.940183,290.3857 H 22.73899 l 0.493338,-0.8282 h 0.243912 l 0.493338,0.8282 h -0.20395 l -0.413411,-0.68075 z"
         style="font-style:normal;font-variant:normal;font-weight:normal;font-stretch:normal;font-size:2.82222223px;line-height:1.25;font-family:'Copperplate Gothic Light';-inkscape-font-specification:'Copperplate Gothic Light, ';stroke:#ffffff;stroke-width:0.2;stroke-miterlimit:4;stroke-dasharray:none;stroke-opacity:1"
         id="path960"
         inkscape:connector-curvature="0" />
      <path
         d="m 25.342104,291.44403 -0.789616,-1.58061 v 1.418 q 0,0.0565 0.01791,0.0813 0.01791,0.0234 0.07028,0.0372 v 0.0441 h -0.373449 v -0.0441 q 0.05237,-0.0138 0.07028,-0.0372 0.01792,-0.0234 0.01792,-0.0813 v -1.5558 q 0,-0.0579 -0.01792,-0.0813 -0.01791,-0.0248 -0.07028,-0.0372 v -0.0441 h 0.487826 v 0.0441 q -0.06752,0.0234 -0.06752,0.0579 0,0.0165 0.04547,0.10611 l 0.62563,1.24161 0.628385,-1.25263 q 0.03307,-0.0661 0.03307,-0.0937 0,-0.0358 -0.06752,-0.0593 v -0.0441 h 0.49196 v 0.0441 q -0.05237,0.0138 -0.07028,0.0372 -0.01792,0.0234 -0.01792,0.0813 v 1.5558 q 0,0.0565 0.01792,0.0813 0.01791,0.0234 0.07028,0.0372 v 0.0441 h -0.392741 v -0.0441 q 0.05374,-0.0138 0.07028,-0.0372 0.01791,-0.0234 0.01791,-0.0813 v -1.418 z"
         style="font-style:normal;font-variant:normal;font-weight:normal;font-stretch:normal;font-size:2.82222223px;line-height:1.25;font-family:'Copperplate Gothic Light';-inkscape-font-specification:'Copperplate Gothic Light, ';stroke:#ffffff;stroke-width:0.2;stroke-miterlimit:4;stroke-dasharray:none;stroke-opacity:1"
         id="path962"
         inkscape:connector-curvature="0" />
      <path
         d="m 26.942006,290.3857 h -0.201193 l 0.493338,-0.8282 h 0.243912 l 0.493338,0.8282 h -0.20395 l -0.413411,-0.68075 z"
         style="font-style:normal;font-variant:normal;font-weight:normal;font-stretch:normal;font-size:2.82222223px;line-height:1.25;font-family:'Copperplate Gothic Light';-inkscape-font-specification:'Copperplate Gothic Light, ';stroke:#ffffff;stroke-width:0.2;stroke-miterlimit:4;stroke-dasharray:none;stroke-opacity:1"
         id="path964"
         inkscape:connector-curvature="0" />
      <path
         d="m 28.617701,289.56301 v 0.0372 q -0.06615,0.011 -0.06615,0.0482 0,0.0234 0.07441,0.12402 l 1.092784,1.4621 q 0.129536,0.16536 0.22462,0.17088 v 0.0386 h -0.434082 v -0.0386 q 0.06615,-0.011 0.06615,-0.0469 0,-0.0207 -0.07579,-0.12402 l -1.080382,-1.46348 q -0.129535,-0.16536 -0.22462,-0.17087 v -0.0372 z"
         style="font-style:normal;font-variant:normal;font-weight:normal;font-stretch:normal;font-size:2.82222223px;line-height:1.25;font-family:'Copperplate Gothic Light';-inkscape-font-specification:'Copperplate Gothic Light, ';stroke:#ffffff;stroke-width:0.2;stroke-miterlimit:4;stroke-dasharray:none;stroke-opacity:1"
         id="path966"
         inkscape:connector-curvature="0" />
    </g>
    <g
       aria-label="CV"
       style="font-style:normal;font-variant:normal;font-weight:normal;font-stretch:normal;font-size:2.82222223px;line-height:1.25;font-family:'Yu Gothic UI';-inkscape-font-specification:'Yu Gothic UI';letter-spacing:0px;word-spacing:0px;fill:#ffffff;fill-opacity:1;stroke:none;stroke-width:0.26458332"
       id="text969"
       transform="translate(1.0583333,-0.52916667)">
      <path
         d="m 3.7592906,218.53035 q -0.2191081,0.11576 -0.5457031,0.11576 -0.4216797,0 -0.6752388,-0.27147 -0.253559,-0.27148 -0.253559,-0.71245 0,-0.47404 0.2852539,-0.76619 0.2852539,-0.29214 0.7234701,-0.29214 0.2811198,0 0.4657769,0.0813 v 0.24667 q -0.2122179,-0.11851 -0.468533,-0.11851 -0.3403754,0 -0.5525933,0.22738 -0.2108399,0.22737 -0.2108399,0.60771 0,0.36105 0.1970595,0.57602 0.1984375,0.2136 0.5195204,0.2136 0.2976563,0 0.5153863,-0.1323 z"
         style="stroke-width:0.26458332"
         id="path987"
         inkscape:connector-curvature="0" />
      <path
         d="m 5.6306665,216.63693 -0.7317383,1.97611 h -0.254937 l -0.7165799,-1.97611 h 0.2576931 l 0.5470812,1.56683 q 0.026183,0.0758 0.039963,0.17501 h 0.00551 q 0.011024,-0.0827 0.045475,-0.17777 l 0.5581055,-1.56407 z"
         style="stroke-width:0.26458332"
         id="path989"
         inkscape:connector-curvature="0" />
    </g>
    <g
       aria-label="MANUAL"
       style="font-style:normal;font-variant:normal;font-weight:normal;font-stretch:normal;font-size:2.82222223px;line-height:1.25;font-family:'Yu Gothic UI';-inkscape-font-specification:'Yu Gothic UI';letter-spacing:0px;word-spacing:0px;fill:#ffffff;fill-opacity:1;stroke:none;stroke-width:0.26458332"
       id="text973"
       transform="translate(0,-1.365333)">
      <path
         d="M 4.32704,235.43587 H 4.0969077 v -1.32568 q 0,-0.15709 0.019292,-0.38447 h -0.00551 q -0.033073,0.13367 -0.059256,0.19155 l -0.6752387,1.5186 H 3.2631946 l -0.6738607,-1.50758 q -0.028939,-0.0661 -0.059256,-0.20257 h -0.00551 q 0.011024,0.11851 0.011024,0.38723 v 1.32292 H 2.3123482 v -1.97611 h 0.3059245 l 0.6063368,1.37804 q 0.07028,0.15847 0.09095,0.23702 h 0.00827 q 0.059256,-0.16261 0.095085,-0.24253 L 4.037652,233.45976 H 4.32704 Z"
         style="stroke-width:0.26458332"
         id="path1007"
         inkscape:connector-curvature="0" />
      <path
         d="M 6.3775608,235.43587 H 6.1212457 L 5.9117839,234.8819 H 5.0739366 l -0.1970594,0.55397 H 4.619184 l 0.757921,-1.97611 h 0.2397787 z m -0.541569,-0.76206 -0.3100586,-0.84198 q -0.015159,-0.0413 -0.030317,-0.13229 h -0.00551 q -0.01378,0.0841 -0.031695,0.13229 l -0.3073025,0.84198 z"
         style="stroke-width:0.26458332"
         id="path1009"
         inkscape:connector-curvature="0" />
      <path
         d="M 8.2599608,235.43587 H 7.9760849 l -1.0169922,-1.5751 q -0.038585,-0.0593 -0.06339,-0.12402 h -0.00827 q 0.011024,0.0634 0.011024,0.27147 v 1.42765 H 6.6669486 v -1.97611 H 6.967361 l 0.9894314,1.55029 q 0.062012,0.0965 0.079926,0.1323 h 0.00551 q -0.01378,-0.0854 -0.01378,-0.29077 v -1.39182 h 0.2315104 z"
         style="stroke-width:0.26458332"
         id="path1011"
         inkscape:connector-curvature="0" />
      <path
         d="m 10.223665,234.63661 q 0,0.83233 -0.7510306,0.83233 -0.7193359,0 -0.7193359,-0.80064 v -1.20854 h 0.2315104 v 1.19338 q 0,0.60772 0.5126302,0.60772 0.4947157,0 0.4947157,-0.58705 v -1.21405 h 0.2315102 z"
         style="stroke-width:0.26458332"
         id="path1013"
         inkscape:connector-curvature="0" />
      <path
         d="m 12.248003,235.43587 h -0.256315 l -0.209462,-0.55397 h -0.837847 l -0.197059,0.55397 h -0.257694 l 0.757921,-1.97611 h 0.239779 z m -0.541569,-0.76206 -0.310058,-0.84198 q -0.01516,-0.0413 -0.03032,-0.13229 h -0.0055 q -0.01378,0.0841 -0.0317,0.13229 l -0.307303,0.84198 z"
         style="stroke-width:0.26458332"
         id="path1015"
         inkscape:connector-curvature="0" />
      <path
         d="m 13.562652,235.43587 h -1.025261 v -1.97611 h 0.231511 v 1.76665 h 0.79375 z"
         style="stroke-width:0.26458332"
         id="path1017"
         inkscape:connector-curvature="0" />
    </g>
    <g
       aria-label="INPUT"
       style="font-style:normal;font-variant:normal;font-weight:normal;font-stretch:normal;font-size:2.82222223px;line-height:1.25;font-family:'Yu Gothic UI';-inkscape-font-specification:'Yu Gothic UI';letter-spacing:0px;word-spacing:0px;fill:#ffffff;fill-opacity:1;stroke:none;stroke-width:0.26458332"
       id="text977">
      <path
         d="M 4.3931857,249.99513 H 4.1616753 v -1.9761 h 0.2315104 z"
         style="stroke-width:0.26458332"
         id="path1020" />
      <path
         d="M 6.5043402,249.99513 H 6.2204644 l -1.0169922,-1.5751 q -0.038585,-0.0592 -0.06339,-0.12402 h -0.00827 q 0.011024,0.0634 0.011024,0.27147 v 1.42765 H 4.9113281 v -1.9761 h 0.3004123 l 0.9894314,1.55029 q 0.062012,0.0965 0.079926,0.13229 h 0.00551 q -0.01378,-0.0854 -0.01378,-0.29077 v -1.39181 h 0.2315104 z"
         style="stroke-width:0.26458332"
         id="path1022" />
      <path
         d="m 7.2539931,249.24824 v 0.74689 H 7.0224827 v -1.9761 h 0.5429471 q 0.3169487,0 0.4905816,0.15434 0.1750108,0.15434 0.1750108,0.43546 0,0.28112 -0.1943034,0.46026 -0.1929253,0.17915 -0.5222765,0.17915 z m 0,-1.01975 v 0.81028 h 0.2425347 q 0.2397787,0 0.3651802,-0.10886 0.1267795,-0.11024 0.1267795,-0.31006 0,-0.39136 -0.4630209,-0.39136 z"
         style="stroke-width:0.26458332"
         id="path1024" />
      <path
         d="m 10.050033,249.19587 q 0,0.83234 -0.7510312,0.83234 -0.7193359,0 -0.7193359,-0.80064 v -1.20854 h 0.2315104 v 1.19338 q 0,0.60771 0.5126302,0.60771 0.4947157,0 0.4947157,-0.58704 v -1.21405 h 0.2315108 z"
         style="stroke-width:0.26458332"
         id="path1026" />
      <path
         d="m 11.713325,248.22849 h -0.570508 v 1.76664 h -0.231511 v -1.76664 h -0.569129 v -0.20946 h 1.371148 z"
         style="stroke-width:0.26458332"
         id="path1028" />
    </g>
    <g
       aria-label="BI OUT"
       style="font-style:normal;font-variant:normal;font-weight:normal;font-stretch:normal;font-size:2.82222223px;line-height:1.25;font-family:'Yu Gothic UI';-inkscape-font-specification:'Yu Gothic UI';letter-spacing:0px;word-spacing:0px;fill:#ffffff;fill-opacity:1;stroke:none;stroke-width:0.26458332"
       id="text981">
      <path
         d="m 3.7482675,264.54721 v -1.97611 h 0.5622396 q 0.2563151,0 0.4065212,0.12541 0.1502062,0.1254 0.1502062,0.32659 0,0.16812 -0.09095,0.29214 -0.090951,0.12403 -0.250803,0.17639 v 0.006 q 0.1998156,0.0234 0.3197049,0.15158 0.1198893,0.12678 0.1198893,0.33073 0,0.25356 -0.181901,0.41065 -0.1819011,0.1571 -0.4588868,0.1571 z m 0.2315104,-1.76664 v 0.63803 h 0.2370226 q 0.1901692,0 0.2990343,-0.091 0.108865,-0.0923 0.108865,-0.25907 0,-0.28801 -0.3789605,-0.28801 z m 0,0.84611 v 0.71107 h 0.3141927 q 0.2039497,0 0.3155708,-0.0965 0.1129991,-0.0965 0.1129991,-0.26459 0,-0.35002 -0.4768012,-0.35002 z"
         style="stroke-width:0.26458332"
         id="path1044" />
      <path
         d="M 5.6003508,264.54721 H 5.3688404 v -1.97611 h 0.2315104 z"
         style="stroke-width:0.26458332"
         id="path1046" />
      <path
         d="m 7.6867008,264.58028 q -0.4203016,0 -0.6738607,-0.27698 -0.252181,-0.27699 -0.252181,-0.72072 0,-0.4768 0.2576932,-0.76067 0.2576931,-0.28388 0.7014214,-0.28388 0.4092774,0 0.6587023,0.27561 0.2508029,0.27561 0.2508029,0.72071 0,0.48369 -0.2563151,0.76481 -0.2563151,0.28112 -0.686263,0.28112 z m 0.016536,-1.83279 q -0.3114367,0 -0.5057401,0.22462 -0.1943033,0.22462 -0.1943033,0.5898 0,0.36518 0.1887912,0.58843 0.1901693,0.22186 0.4947157,0.22186 0.325217,0 0.5126302,-0.21222 0.1874132,-0.21222 0.1874132,-0.59393 0,-0.39137 -0.181901,-0.60496 -0.1819011,-0.2136 -0.5016059,-0.2136 z"
         style="stroke-width:0.26458332"
         id="path1048" />
      <path
         d="m 10.463448,263.74795 q 0,0.83233 -0.7510312,0.83233 -0.719336,0 -0.719336,-0.80064 v -1.20854 h 0.2315104 v 1.19338 q 0,0.60772 0.5126303,0.60772 0.4947155,0 0.4947155,-0.58704 v -1.21406 h 0.231511 z"
         style="stroke-width:0.26458332"
         id="path1050" />
      <path
         d="m 12.12674,262.78057 h -0.570508 v 1.76664 h -0.23151 v -1.76664 h -0.56913 v -0.20947 h 1.371148 z"
         style="stroke-width:0.26458332"
         id="path1052" />
    </g>
    <g
       aria-label="UNI OUT"
       style="font-style:normal;font-variant:normal;font-weight:normal;font-stretch:normal;font-size:2.82222223px;line-height:1.25;font-family:'Yu Gothic UI';-inkscape-font-specification:'Yu Gothic UI';letter-spacing:0px;word-spacing:0px;fill:#ffffff;fill-opacity:1;stroke:none;stroke-width:0.26458332"
       id="text985">
      <path
         d="m 3.9907985,278.29189 q 0,0.83234 -0.7510308,0.83234 -0.719336,0 -0.719336,-0.80064 v -1.20854 h 0.2315104 v 1.19338 q 0,0.60772 0.5126303,0.60772 0.4947157,0 0.4947157,-0.58705 v -1.21405 h 0.2315104 z"
         style="stroke-width:0.26458332"
         id="path1031" />
      <path
         d="M 6.0785264,279.09116 H 5.7946505 l -1.0169922,-1.5751 q -0.038585,-0.0593 -0.06339,-0.12403 h -0.00827 q 0.011024,0.0634 0.011024,0.27148 v 1.42765 H 4.4855142 v -1.97611 h 0.3004124 l 0.9894314,1.55029 q 0.062012,0.0965 0.079926,0.13229 h 0.00551 q -0.01378,-0.0854 -0.01378,-0.29076 v -1.39182 h 0.2315104 z"
         style="stroke-width:0.26458332"
         id="path1033" />
      <path
         d="M 6.8281794,279.09116 H 6.596669 v -1.97611 h 0.2315104 z"
         style="stroke-width:0.26458332"
         id="path1035" />
      <path
         d="m 8.9145288,279.12423 q -0.4203016,0 -0.6738607,-0.27699 -0.2521809,-0.27698 -0.2521809,-0.72071 0,-0.4768 0.2576931,-0.76068 0.2576931,-0.28387 0.7014214,-0.28387 0.4092774,0 0.6587023,0.2756 0.250803,0.27561 0.250803,0.72072 0,0.48369 -0.2563151,0.76481 -0.2563152,0.28112 -0.6862631,0.28112 z m 0.016537,-1.83279 q -0.3114366,0 -0.50574,0.22462 -0.1943034,0.22462 -0.1943034,0.5898 0,0.36518 0.1887912,0.58842 0.1901693,0.22187 0.4947157,0.22187 0.325217,0 0.5126302,-0.21222 0.1874132,-0.21222 0.1874132,-0.59394 0,-0.39136 -0.181901,-0.60496 -0.181901,-0.21359 -0.5016059,-0.21359 z"
         style="stroke-width:0.26458332"
         id="path1037" />
      <path
         d="m 11.691276,278.29189 q 0,0.83234 -0.751031,0.83234 -0.719336,0 -0.719336,-0.80064 v -1.20854 h 0.231511 v 1.19338 q 0,0.60772 0.51263,0.60772 0.494716,0 0.494716,-0.58705 v -1.21405 h 0.23151 z"
         style="stroke-width:0.26458332"
         id="path1039" />
      <path
         d="m 13.354568,277.32451 h -0.570507 v 1.76665 H 12.55255 v -1.76665 h -0.56913 v -0.20946 h 1.371148 z"
         style="stroke-width:0.26458332"
         id="path1041" />
    </g>
    <g
       aria-label="FREQ. DIV"
       transform="matrix(0.95157881,0,0,1.0508851,0,-0.66151513)"
       style="font-style:normal;font-variant:normal;font-weight:bold;font-stretch:normal;font-size:3.35695839px;line-height:1.25;font-family:'Yu Gothic UI';-inkscape-font-specification:'Yu Gothic UI Bold';letter-spacing:0px;word-spacing:0px;fill:#ffffff;fill-opacity:1;stroke:none;stroke-width:0.2517719"
       id="text883">
      <path
         d="m 2.1028343,191.97387 h -0.878579 v 0.70647 h 0.8097351 v 0.32946 H 1.2242553 v 0.98349 H 0.83414006 v -2.35053 H 2.1028343 Z"
         style="font-style:normal;font-variant:normal;font-weight:bold;font-stretch:normal;font-size:3.35695839px;font-family:'Yu Gothic UI';-inkscape-font-specification:'Yu Gothic UI Bold';stroke-width:0.2517719"
         id="path887"
         inkscape:connector-curvature="0" />
      <path
         d="M 4.3353427,193.99329 H 3.8796618 l -0.375363,-0.62943 q -0.050813,-0.0869 -0.099988,-0.14753 -0.047535,-0.0623 -0.098348,-0.10162 -0.049174,-0.0393 -0.1081832,-0.0574 -0.059009,-0.018 -0.1327704,-0.018 H 2.9076519 v 0.95398 H 2.5191758 v -2.35053 h 0.773674 q 0.1655531,0 0.30488,0.0393 0.1393269,0.0393 0.2425927,0.11966 0.1032658,0.0787 0.1606357,0.19833 0.059009,0.11802 0.059009,0.27702 0,0.12457 -0.0377,0.22948 -0.036061,0.10326 -0.104905,0.18522 -0.067205,0.0803 -0.1639139,0.13769 -0.09507,0.0574 -0.2147274,0.0885 v 0.007 q 0.063926,0.0361 0.1114616,0.0803 0.047535,0.0426 0.090153,0.0885 0.042618,0.0459 0.083596,0.1049 0.042618,0.0574 0.093431,0.13441 z m -1.4276908,-2.03418 v 0.76384 h 0.3245497 q 0.090153,0 0.1655531,-0.0279 0.07704,-0.0279 0.1327703,-0.0803 0.055731,-0.0524 0.086874,-0.12785 0.031144,-0.0754 0.031144,-0.16883 0,-0.16884 -0.1065441,-0.26391 -0.1065441,-0.0951 -0.3065191,-0.0951 z"
         style="font-style:normal;font-variant:normal;font-weight:bold;font-stretch:normal;font-size:3.35695839px;font-family:'Yu Gothic UI';-inkscape-font-specification:'Yu Gothic UI Bold';stroke-width:0.2517719"
         id="path889"
         inkscape:connector-curvature="0" />
      <path
         d="M 5.9302258,193.99329 H 4.6107182 v -2.35053 h 1.2670551 v 0.33111 H 5.0008335 v 0.66549 h 0.808096 v 0.32946 h -0.808096 v 0.695 h 0.9293923 z"
         style="font-style:normal;font-variant:normal;font-weight:bold;font-stretch:normal;font-size:3.35695839px;font-family:'Yu Gothic UI';-inkscape-font-specification:'Yu Gothic UI Bold';stroke-width:0.2517719"
         id="path891"
         inkscape:connector-curvature="0" />
      <path
         d="m 7.3169384,194.03263 q -0.2540667,0 -0.4605983,-0.0869 -0.2065316,-0.0869 -0.3524151,-0.24259 -0.1458834,-0.15736 -0.2262013,-0.37536 -0.080318,-0.21801 -0.080318,-0.48191 0,-0.28193 0.080318,-0.51141 0.081957,-0.22948 0.2311188,-0.39176 0.1508008,-0.16227 0.3655281,-0.25079 0.2147274,-0.0885 0.480268,-0.0885 0.245871,0 0.4491243,0.0869 0.2032534,0.0869 0.3474977,0.24424 0.1442443,0.15571 0.222923,0.37372 0.080318,0.21801 0.080318,0.48027 0,0.3475 -0.1163789,0.60976 -0.1163789,0.26062 -0.3278279,0.41962 l 0.6818821,0.49174 H 8.0988081 l -0.4196198,-0.32619 q -0.083596,0.023 -0.1737488,0.0361 -0.090153,0.0131 -0.1885011,0.0131 z m 0.018031,-2.08663 q -0.1606357,0 -0.2950451,0.0639 -0.1327704,0.0623 -0.2294796,0.17866 -0.096709,0.11474 -0.1508009,0.27538 -0.052452,0.16063 -0.052452,0.35733 0,0.19506 0.050813,0.35569 0.052453,0.16064 0.1458834,0.27538 0.093431,0.1131 0.2245622,0.17703 0.1311312,0.0623 0.2901277,0.0623 0.1688314,0 0.3032409,-0.059 0.1344095,-0.059 0.2278404,-0.16884 0.09507,-0.11146 0.1458835,-0.27209 0.050813,-0.16064 0.050813,-0.36553 0,-0.20981 -0.049174,-0.37373 -0.049174,-0.16391 -0.140966,-0.27537 -0.091792,-0.1131 -0.2245622,-0.17211 -0.1311311,-0.059 -0.2966843,-0.059 z"
         style="font-style:normal;font-variant:normal;font-weight:bold;font-stretch:normal;font-size:3.35695839px;font-family:'Yu Gothic UI';-inkscape-font-specification:'Yu Gothic UI Bold';stroke-width:0.2517719"
         id="path893"
         inkscape:connector-curvature="0" />
      <path
         d="m 9.0003344,194.02935 q -0.098348,0 -0.1671923,-0.0639 -0.068844,-0.0656 -0.068844,-0.15572 0,-0.0918 0.068844,-0.15735 0.068844,-0.0656 0.1671923,-0.0656 0.099988,0 0.1688314,0.0656 0.070483,0.0656 0.070483,0.15735 0,0.0902 -0.070483,0.15572 -0.068844,0.0639 -0.1688314,0.0639 z"
         style="font-style:normal;font-variant:normal;font-weight:bold;font-stretch:normal;font-size:3.35695839px;font-family:'Yu Gothic UI';-inkscape-font-specification:'Yu Gothic UI Bold';stroke-width:0.2517719"
         id="path895"
         inkscape:connector-curvature="0" />
      <path
         d="m 10.623083,193.99329 v -2.35053 h 0.678604 q 1.299838,0 1.299838,1.14576 0,0.54419 -0.360611,0.8753 -0.36061,0.32947 -0.967092,0.32947 z m 0.388476,-2.01942 v 1.68995 h 0.311437 q 0.411424,0 0.639265,-0.2262 0.229479,-0.2262 0.229479,-0.63927 0,-0.82448 -0.853992,-0.82448 z"
         style="font-style:normal;font-variant:normal;font-weight:bold;font-stretch:normal;font-size:3.35695839px;font-family:'Yu Gothic UI';-inkscape-font-specification:'Yu Gothic UI Bold';stroke-width:0.2517719"
         id="path897"
         inkscape:connector-curvature="0" />
      <path
         d="m 13.429291,193.99329 h -0.401589 v -2.35053 h 0.401589 z"
         style="font-style:normal;font-variant:normal;font-weight:bold;font-stretch:normal;font-size:3.35695839px;font-family:'Yu Gothic UI';-inkscape-font-specification:'Yu Gothic UI Bold';stroke-width:0.2517719"
         id="path899"
         inkscape:connector-curvature="0" />
      <path
         d="m 15.848661,191.64276 -0.844157,2.35053 h -0.436011 l -0.829405,-2.35053 h 0.426176 l 0.580256,1.78338 q 0.02786,0.0852 0.04262,0.19834 h 0.0066 q 0.01147,-0.0934 0.04753,-0.20161 l 0.593369,-1.78011 z"
         style="font-style:normal;font-variant:normal;font-weight:bold;font-stretch:normal;font-size:3.35695839px;font-family:'Yu Gothic UI';-inkscape-font-specification:'Yu Gothic UI Bold';stroke-width:0.2517719"
         id="path901"
         inkscape:connector-curvature="0" />
    </g>
    <g
       aria-label="VC"
       style="font-style:normal;font-variant:normal;font-weight:bold;font-stretch:normal;font-size:3.52777767px;line-height:1.25;font-family:'Yu Gothic UI';-inkscape-font-specification:'Yu Gothic UI Bold';letter-spacing:0px;word-spacing:0px;fill:#ffffff;fill-opacity:1;stroke:none;stroke-width:0.26458332"
       id="text886"
       transform="translate(-0.53787984,-0.39893666)">
      <path
         d="m 12.559784,197.95693 -0.887112,2.47013 h -0.458198 l -0.871609,-2.47013 h 0.447862 l 0.609782,1.87413 q 0.02928,0.0896 0.04479,0.20843 h 0.0069 q 0.01206,-0.0982 0.04995,-0.21187 l 0.623562,-1.87069 z"
         style="font-style:normal;font-variant:normal;font-weight:bold;font-stretch:normal;font-size:3.52777767px;font-family:'Yu Gothic UI';-inkscape-font-specification:'Yu Gothic UI Bold';stroke-width:0.26458332"
         id="path888"
         inkscape:connector-curvature="0" />
      <path
         d="m 14.544159,200.32371 q -0.279053,0.14469 -0.694187,0.14469 -0.537435,0 -0.861274,-0.33934 -0.323839,-0.33934 -0.323839,-0.89055 0,-0.59256 0.363458,-0.95774 0.36518,-0.36518 0.921563,-0.36518 0.35829,0 0.594279,0.10163 v 0.40652 q -0.249769,-0.14814 -0.551215,-0.14814 -0.401354,0 -0.651123,0.25666 -0.248047,0.25666 -0.248047,0.68557 0,0.40825 0.232544,0.65113 0.232544,0.24115 0.611504,0.24115 0.349677,0 0.606337,-0.16536 z"
         style="font-style:normal;font-variant:normal;font-weight:bold;font-stretch:normal;font-size:3.52777767px;font-family:'Yu Gothic UI';-inkscape-font-specification:'Yu Gothic UI Bold';stroke-width:0.26458332"
         id="path890"
         inkscape:connector-curvature="0" />
    </g>
    <g
       aria-label="II"
       style="font-style:normal;font-variant:normal;font-weight:600;font-stretch:normal;font-size:3.52777767px;line-height:1.25;font-family:'Yu Gothic UI';-inkscape-font-specification:'Yu Gothic UI Semi-Bold';letter-spacing:0px;word-spacing:0px;fill:#ffffff;fill-opacity:1;stroke:none;stroke-width:0.26458332"
       id="text889"
       transform="translate(0,-0.70486623)">
      <path
         d="m 13.954359,207.04166 h -0.422025 v -2.47014 h 0.422025 z"
         style="font-style:normal;font-variant:normal;font-weight:600;font-stretch:normal;font-size:3.52777767px;font-family:'Yu Gothic UI';-inkscape-font-specification:'Yu Gothic UI Semi-Bold';stroke-width:0.26458332"
         id="path892"
         inkscape:connector-curvature="0" />
      <path
         d="m 14.980997,207.04166 h -0.422024 v -2.47014 h 0.422024 z"
         style="font-style:normal;font-variant:normal;font-weight:600;font-stretch:normal;font-size:3.52777767px;font-family:'Yu Gothic UI';-inkscape-font-specification:'Yu Gothic UI Semi-Bold';stroke-width:0.26458332"
         id="path894"
         inkscape:connector-curvature="0" />
    </g>
    <g
       aria-label="1"
       style="font-style:normal;font-variant:normal;font-weight:normal;font-stretch:normal;font-size:2.11666656px;line-height:1.25;font-family:'Yu Gothic UI';-inkscape-font-specification:'Yu Gothic UI';letter-spacing:0px;word-spacing:0px;fill:#ffffff;fill-opacity:1;stroke:none;stroke-width:0.26458332"
       id="text906"
       transform="translate(-1.5465745)">
      <path
         d="M 6.5691079,246.19998 H 6.3996092 v -1.28054 q -0.019637,0.0196 -0.057878,0.0455 -0.037207,0.0248 -0.084749,0.0496 -0.046509,0.0248 -0.099219,0.0465 -0.051676,0.0217 -0.1012858,0.0341 v -0.17157 q 0.055811,-0.0155 0.1178223,-0.0413 0.063045,-0.0269 0.1229899,-0.0589 0.060978,-0.0331 0.1147217,-0.0682 0.053743,-0.0362 0.093018,-0.0703 h 0.064079 z"
         style="font-size:2.11666656px;stroke-width:0.26458332"
         id="path908"
         inkscape:connector-curvature="0" />
    </g>
    <g
       aria-label="21"
       style="font-style:normal;font-variant:normal;font-weight:normal;font-stretch:normal;font-size:2.11666656px;line-height:1.25;font-family:'Yu Gothic UI';-inkscape-font-specification:'Yu Gothic UI';letter-spacing:0px;word-spacing:0px;fill:#ffffff;fill-opacity:1;stroke:none;stroke-width:0.26458332"
       id="text900"
       transform="translate(-0.73964135,2.1166667)">
      <path
         d="m 11.381217,242.98984 q 0,-0.0682 -0.0217,-0.11886 -0.02067,-0.0506 -0.05788,-0.0837 -0.03617,-0.0341 -0.08578,-0.0506 -0.04961,-0.0165 -0.107487,-0.0165 -0.04961,0 -0.09715,0.0134 -0.04754,0.0134 -0.09302,0.0372 -0.04444,0.0238 -0.08682,0.0569 -0.04134,0.0331 -0.07752,0.0734 v -0.1819 q 0.07131,-0.0693 0.159164,-0.10542 0.08888,-0.0372 0.216007,-0.0372 0.09095,0 0.168465,0.0269 0.07752,0.0258 0.134359,0.0765 0.05684,0.0506 0.08888,0.12506 0.03307,0.0744 0.03307,0.17053 0,0.0879 -0.02067,0.15916 -0.01964,0.0713 -0.06098,0.13436 -0.04031,0.0631 -0.10232,0.12093 -0.06201,0.0579 -0.145727,0.11782 -0.104387,0.0744 -0.1726,0.12712 -0.06718,0.0527 -0.107487,0.0992 -0.03927,0.0455 -0.05581,0.092 -0.0155,0.0455 -0.0155,0.10542 h 0.737939 v 0.15193 h -0.914672 v -0.0734 q 0,-0.0951 0.02067,-0.16743 0.02067,-0.0724 0.06821,-0.13746 0.04754,-0.0651 0.124024,-0.13022 0.07751,-0.0651 0.189135,-0.14676 0.08061,-0.0579 0.134359,-0.11059 0.05478,-0.0527 0.08785,-0.10542 0.03307,-0.0527 0.04651,-0.10646 0.01447,-0.0548 0.01447,-0.11575 z"
         style="font-size:2.11666656px;stroke-width:0.26458332"
         id="path902"
         inkscape:connector-curvature="0" />
      <path
         d="m 12.472623,244.08331 h -0.169498 v -1.28054 q -0.01964,0.0196 -0.05788,0.0455 -0.03721,0.0248 -0.08475,0.0496 -0.04651,0.0248 -0.09922,0.0465 -0.05168,0.0217 -0.101286,0.0341 v -0.17156 q 0.05581,-0.0155 0.117822,-0.0413 0.06305,-0.0269 0.12299,-0.0589 0.06098,-0.0331 0.114722,-0.0682 0.05374,-0.0362 0.09302,-0.0703 h 0.06408 z"
         style="font-size:2.11666656px;stroke-width:0.26458332"
         id="path904"
         inkscape:connector-curvature="0" />
    </g>
  </g>
  <g
     inkscape:groupmode="layer"
     id="layer2"
     inkscape:label="Grid6"
     sodipodi:insensitive="true"
     style="display:none">
    <g
       transform="translate(0,3.333209e-6)"
       style="display:inline"
       id="g1038">
      <path
         style="fill:none;stroke:#ffffff;stroke-width:0.05;stroke-linecap:butt;stroke-linejoin:miter;stroke-miterlimit:4;stroke-dasharray:none;stroke-opacity:1"
         d="m 7.9375,-1e-5 -3e-6,100.54167"
         id="path881-8-8"
         inkscape:connector-curvature="0"
         sodipodi:nodetypes="cc" />
      <path
         sodipodi:nodetypes="cc"
         inkscape:connector-curvature="0"
         id="path890-2-5"
         d="m 3.968752,0 -4e-6,100.54167"
         style="fill:none;stroke:#ffffff;stroke-width:0.05;stroke-linecap:butt;stroke-linejoin:miter;stroke-miterlimit:4;stroke-dasharray:none;stroke-opacity:1" />
      <path
         style="fill:none;stroke:#ffffff;stroke-width:0.05;stroke-linecap:butt;stroke-linejoin:miter;stroke-miterlimit:4;stroke-dasharray:none;stroke-opacity:1"
         d="m 11.906253,0 -4e-6,100.54167"
         id="path895-1-5"
         inkscape:connector-curvature="0"
         sodipodi:nodetypes="cc" />
      <path
         sodipodi:nodetypes="cc"
         inkscape:connector-curvature="0"
         id="path905-6-4"
         d="m 0,14.022551 15.875,3.66e-4"
         style="fill:none;stroke:#ffffff;stroke-width:0.05;stroke-linecap:butt;stroke-linejoin:miter;stroke-miterlimit:4;stroke-dasharray:none;stroke-opacity:1" />
      <path
         sodipodi:nodetypes="cc"
         style="fill:none;stroke:#ffffff;stroke-width:0.05;stroke-linecap:butt;stroke-linejoin:miter;stroke-miterlimit:4;stroke-dasharray:none;stroke-opacity:1"
         d="M 0,28.57465 15.875,28.575"
         id="path1103"
         inkscape:connector-curvature="0" />
      <path
         sodipodi:nodetypes="cc"
         inkscape:connector-curvature="0"
         id="path1107"
         d="m 0,43.126622 15.875,4.61e-4"
         style="fill:none;stroke:#ffffff;stroke-width:0.05;stroke-linecap:butt;stroke-linejoin:miter;stroke-miterlimit:4;stroke-dasharray:none;stroke-opacity:1" />
      <path
         sodipodi:nodetypes="cc"
         style="fill:none;stroke:#ffffff;stroke-width:0.05;stroke-linecap:butt;stroke-linejoin:miter;stroke-miterlimit:4;stroke-dasharray:none;stroke-opacity:1"
         d="m 0,57.678723 15.875,4.44e-4"
         id="path1111"
         inkscape:connector-curvature="0" />
      <path
         sodipodi:nodetypes="cc"
         inkscape:connector-curvature="0"
         id="path1115"
         d="m 0,72.230955 15.875,2.95e-4"
         style="fill:none;stroke:#ffffff;stroke-width:0.05;stroke-linecap:butt;stroke-linejoin:miter;stroke-miterlimit:4;stroke-dasharray:none;stroke-opacity:1" />
      <path
         sodipodi:nodetypes="cc"
         style="fill:none;stroke:#ffffff;stroke-width:0.05;stroke-linecap:butt;stroke-linejoin:miter;stroke-miterlimit:4;stroke-dasharray:none;stroke-opacity:1"
         d="m 0,86.782927 15.875,4.06e-4"
         id="path1119"
         inkscape:connector-curvature="0" />
      <circle
         r="4.0999999"
         cy="28.574995"
         cx="7.9523039"
         id="circle1014"
         style="display:inline;opacity:1;fill:none;fill-opacity:1;stroke:#ffffff;stroke-width:0.05;stroke-linecap:square;stroke-linejoin:round;stroke-miterlimit:4;stroke-dasharray:none;stroke-dashoffset:0;stroke-opacity:1;paint-order:markers fill stroke" />
      <circle
         r="4.0999999"
         cy="43.127026"
         cx="7.9523039"
         id="circle1018"
         style="display:inline;opacity:1;fill:none;fill-opacity:1;stroke:#ffffff;stroke-width:0.05;stroke-linecap:square;stroke-linejoin:round;stroke-miterlimit:4;stroke-dasharray:none;stroke-dashoffset:0;stroke-opacity:1;paint-order:markers fill stroke" />
      <circle
         style="display:inline;opacity:1;fill:none;fill-opacity:1;stroke:#ffffff;stroke-width:0.05;stroke-linecap:square;stroke-linejoin:round;stroke-miterlimit:4;stroke-dasharray:none;stroke-dashoffset:0;stroke-opacity:1;paint-order:markers fill stroke"
         id="circle1022"
         cx="7.9523039"
         cy="57.679188"
         r="4.0999999" />
      <circle
         style="display:inline;opacity:1;fill:none;fill-opacity:1;stroke:#ffffff;stroke-width:0.05;stroke-linecap:square;stroke-linejoin:round;stroke-miterlimit:4;stroke-dasharray:none;stroke-dashoffset:0;stroke-opacity:1;paint-order:markers fill stroke"
         id="circle1026"
         cx="7.9523039"
         cy="72.231216"
         r="4.0999999" />
      <circle
         r="4.0999999"
         cy="86.783379"
         cx="7.9523039"
         id="circle1030"
         style="display:inline;opacity:1;fill:none;fill-opacity:1;stroke:#ffffff;stroke-width:0.05;stroke-linecap:square;stroke-linejoin:round;stroke-miterlimit:4;stroke-dasharray:none;stroke-dashoffset:0;stroke-opacity:1;paint-order:markers fill stroke" />
      <circle
         r="5.4741378"
         cy="14.023303"
         cx="7.9360795"
         id="circle943"
         style="display:inline;opacity:1;fill:none;fill-opacity:1;stroke:#ffffff;stroke-width:0.05172414;stroke-linecap:square;stroke-linejoin:round;stroke-miterlimit:4;stroke-dasharray:none;stroke-dashoffset:0;stroke-opacity:1;paint-order:markers fill stroke" />
      <circle
         style="display:inline;opacity:1;fill:none;fill-opacity:1;stroke:#ffffff;stroke-width:0.05172414;stroke-linecap:square;stroke-linejoin:round;stroke-miterlimit:4;stroke-dasharray:none;stroke-dashoffset:0;stroke-opacity:1;paint-order:markers fill stroke"
         id="circle975"
         cx="7.9360795"
         cy="28.575275"
         r="5.4741378" />
      <circle
         style="display:inline;opacity:1;fill:none;fill-opacity:1;stroke:#ffffff;stroke-width:0.05172414;stroke-linecap:square;stroke-linejoin:round;stroke-miterlimit:4;stroke-dasharray:none;stroke-dashoffset:0;stroke-opacity:1;paint-order:markers fill stroke"
         id="circle977"
         cx="7.9360795"
         cy="43.127495"
         r="5.4741378" />
      <circle
         r="5.4741378"
         cy="57.67947"
         cx="7.9360795"
         id="circle979"
         style="display:inline;opacity:1;fill:none;fill-opacity:1;stroke:#ffffff;stroke-width:0.05172414;stroke-linecap:square;stroke-linejoin:round;stroke-miterlimit:4;stroke-dasharray:none;stroke-dashoffset:0;stroke-opacity:1;paint-order:markers fill stroke" />
      <circle
         r="5.4741378"
         cy="72.231689"
         cx="7.9360795"
         id="circle981"
         style="display:inline;opacity:1;fill:none;fill-opacity:1;stroke:#ffffff;stroke-width:0.05172414;stroke-linecap:square;stroke-linejoin:round;stroke-miterlimit:4;stroke-dasharray:none;stroke-dashoffset:0;stroke-opacity:1;paint-order:markers fill stroke" />
      <circle
         style="display:inline;opacity:1;fill:none;fill-opacity:1;stroke:#ffffff;stroke-width:0.05172414;stroke-linecap:square;stroke-linejoin:round;stroke-miterlimit:4;stroke-dasharray:none;stroke-dashoffset:0;stroke-opacity:1;paint-order:markers fill stroke"
         id="circle983"
         cx="7.9360795"
         cy="86.783661"
         r="5.4741378" />
    </g>
  </g>
</svg>
