<?xml version="1.0" encoding="UTF-8" standalone="no"?>
<!-- Created with Inkscape (http://www.inkscape.org/) -->

<svg
   xmlns:dc="http://purl.org/dc/elements/1.1/"
   xmlns:cc="http://creativecommons.org/ns#"
   xmlns:rdf="http://www.w3.org/1999/02/22-rdf-syntax-ns#"
   xmlns:svg="http://www.w3.org/2000/svg"
   xmlns="http://www.w3.org/2000/svg"
   xmlns:sodipodi="http://sodipodi.sourceforge.net/DTD/sodipodi-0.dtd"
   xmlns:inkscape="http://www.inkscape.org/namespaces/inkscape"
   width="60"
   height="380"
   viewBox="0 0 15.875001 100.54167"
   version="1.1"
   id="svg8"
   inkscape:version="0.92.4 (5da689c313, 2019-01-14)"
   sodipodi:docname="VoltageInverter.svg">
  <defs
     id="defs2" />
  <sodipodi:namedview
     id="base"
     pagecolor="#ffffff"
     bordercolor="#666666"
     borderopacity="1.0"
     inkscape:pageopacity="0.0"
     inkscape:pageshadow="2"
     inkscape:zoom="2.2789474"
     inkscape:cx="30"
     inkscape:cy="190"
     inkscape:document-units="mm"
     inkscape:current-layer="layer1"
     showgrid="true"
     units="px"
     inkscape:snap-bbox="true"
     inkscape:snap-page="true"
     inkscape:bbox-nodes="true"
     inkscape:snap-bbox-edge-midpoints="true"
     inkscape:window-width="1920"
     inkscape:window-height="1017"
     inkscape:window-x="-8"
     inkscape:window-y="-8"
     inkscape:window-maximized="1"
     inkscape:snap-intersection-paths="true">
    <inkscape:grid
       type="xygrid"
       id="grid116" />
  </sodipodi:namedview>
  <metadata
     id="metadata5">
    <rdf:RDF>
      <cc:Work
         rdf:about="">
        <dc:format>image/svg+xml</dc:format>
        <dc:type
           rdf:resource="http://purl.org/dc/dcmitype/StillImage" />
        <dc:title />
      </cc:Work>
    </rdf:RDF>
  </metadata>
  <g
     inkscape:groupmode="layer"
     id="layer3"
     inkscape:label="Panel"
     sodipodi:insensitive="true">
    <path
       transform="translate(0,-196.45832)"
       sodipodi:type="inkscape:offset"
       inkscape:radius="0"
       inkscape:original="M 0 196.45898 L 0 297 L 15.875 297 L 15.875 196.45898 L 0 196.45898 z "
       style="display:inline;fill:#333333;stroke-width:0.3310422"
       id="rect3855"
       d="M 0,196.45898 V 297 H 15.875 V 196.45898 Z" />
  </g>
  <g
     inkscape:label="Layer 1"
     inkscape:groupmode="layer"
     id="layer1"
     transform="translate(0,-196.45832)"
     style="display:inline">
    <text
       xml:space="preserve"
       style="font-style:normal;font-weight:normal;font-size:2.82222223px;line-height:1.25;font-family:sans-serif;letter-spacing:0px;word-spacing:0px;fill:#ffffff;fill-opacity:1;stroke:none;stroke-width:0.26458332"
       x="17.197916"
       y="201.74998"
       id="text3821"><tspan
         sodipodi:role="line"
         id="tspan3819"
         x="17.197916"
         y="204.24699"
         style="stroke-width:0.26458332" /></text>
    <rect
       style="fill:#4d4d4d;stroke-width:0.10844636"
       id="rect897-2-1-8"
       width="10.583333"
       height="10.970798"
       x="2.6458335"
       y="-289.44995"
       transform="scale(1,-1)" />
    <g
       aria-label="/^M^\"
       style="font-style:normal;font-variant:normal;font-weight:normal;font-stretch:normal;font-size:2.82222223px;line-height:1.25;font-family:'Copperplate Gothic Light';-inkscape-font-specification:'Copperplate Gothic Light, ';letter-spacing:0px;word-spacing:0px;fill:#ffffff;fill-opacity:1;stroke:#ffffff;stroke-width:0.2;stroke-miterlimit:4;stroke-dasharray:none;stroke-opacity:1"
       id="text956"
       transform="translate(-17.419306,0.57062363)">
      <path
         d="m 21.203855,291.40545 v 0.0386 h -0.434082 v -0.0386 q 0.09509,-0.006 0.224621,-0.17088 l 1.094162,-1.4621 q 0.07441,-0.1006 0.07441,-0.12402 0,-0.0372 -0.06615,-0.0482 v -0.0372 h 0.423058 v 0.0372 q -0.09508,0.006 -0.22462,0.17087 l -1.08176,1.46348 q -0.07579,0.10197 -0.07579,0.12402 0,0.0358 0.06615,0.0469 z"
         style="font-style:normal;font-variant:normal;font-weight:normal;font-stretch:normal;font-size:2.82222223px;line-height:1.25;font-family:'Copperplate Gothic Light';-inkscape-font-specification:'Copperplate Gothic Light, ';stroke:#ffffff;stroke-width:0.2;stroke-miterlimit:4;stroke-dasharray:none;stroke-opacity:1"
         id="path958"
         inkscape:connector-curvature="0" />
      <path
         d="M 22.940183,290.3857 H 22.73899 l 0.493338,-0.8282 h 0.243912 l 0.493338,0.8282 h -0.20395 l -0.413411,-0.68075 z"
         style="font-style:normal;font-variant:normal;font-weight:normal;font-stretch:normal;font-size:2.82222223px;line-height:1.25;font-family:'Copperplate Gothic Light';-inkscape-font-specification:'Copperplate Gothic Light, ';stroke:#ffffff;stroke-width:0.2;stroke-miterlimit:4;stroke-dasharray:none;stroke-opacity:1"
         id="path960"
         inkscape:connector-curvature="0" />
      <path
         d="m 25.342104,291.44403 -0.789616,-1.58061 v 1.418 q 0,0.0565 0.01791,0.0813 0.01791,0.0234 0.07028,0.0372 v 0.0441 h -0.373449 v -0.0441 q 0.05237,-0.0138 0.07028,-0.0372 0.01792,-0.0234 0.01792,-0.0813 v -1.5558 q 0,-0.0579 -0.01792,-0.0813 -0.01791,-0.0248 -0.07028,-0.0372 v -0.0441 h 0.487826 v 0.0441 q -0.06752,0.0234 -0.06752,0.0579 0,0.0165 0.04547,0.10611 l 0.62563,1.24161 0.628385,-1.25263 q 0.03307,-0.0661 0.03307,-0.0937 0,-0.0358 -0.06752,-0.0593 v -0.0441 h 0.49196 v 0.0441 q -0.05237,0.0138 -0.07028,0.0372 -0.01792,0.0234 -0.01792,0.0813 v 1.5558 q 0,0.0565 0.01792,0.0813 0.01791,0.0234 0.07028,0.0372 v 0.0441 h -0.392741 v -0.0441 q 0.05374,-0.0138 0.07028,-0.0372 0.01791,-0.0234 0.01791,-0.0813 v -1.418 z"
         style="font-style:normal;font-variant:normal;font-weight:normal;font-stretch:normal;font-size:2.82222223px;line-height:1.25;font-family:'Copperplate Gothic Light';-inkscape-font-specification:'Copperplate Gothic Light, ';stroke:#ffffff;stroke-width:0.2;stroke-miterlimit:4;stroke-dasharray:none;stroke-opacity:1"
         id="path962"
         inkscape:connector-curvature="0" />
      <path
         d="m 26.942006,290.3857 h -0.201193 l 0.493338,-0.8282 h 0.243912 l 0.493338,0.8282 h -0.20395 l -0.413411,-0.68075 z"
         style="font-style:normal;font-variant:normal;font-weight:normal;font-stretch:normal;font-size:2.82222223px;line-height:1.25;font-family:'Copperplate Gothic Light';-inkscape-font-specification:'Copperplate Gothic Light, ';stroke:#ffffff;stroke-width:0.2;stroke-miterlimit:4;stroke-dasharray:none;stroke-opacity:1"
         id="path964"
         inkscape:connector-curvature="0" />
      <path
         d="m 28.617701,289.56301 v 0.0372 q -0.06615,0.011 -0.06615,0.0482 0,0.0234 0.07441,0.12402 l 1.092784,1.4621 q 0.129536,0.16536 0.22462,0.17088 v 0.0386 h -0.434082 v -0.0386 q 0.06615,-0.011 0.06615,-0.0469 0,-0.0207 -0.07579,-0.12402 l -1.080382,-1.46348 q -0.129535,-0.16536 -0.22462,-0.17087 v -0.0372 z"
         style="font-style:normal;font-variant:normal;font-weight:normal;font-stretch:normal;font-size:2.82222223px;line-height:1.25;font-family:'Copperplate Gothic Light';-inkscape-font-specification:'Copperplate Gothic Light, ';stroke:#ffffff;stroke-width:0.2;stroke-miterlimit:4;stroke-dasharray:none;stroke-opacity:1"
         id="path966"
         inkscape:connector-curvature="0" />
    </g>
    <g
       aria-label="INV"
       style="font-style:normal;font-variant:normal;font-weight:bold;font-stretch:normal;font-size:3.52777767px;line-height:1.25;font-family:'Yu Gothic UI';-inkscape-font-specification:'Yu Gothic UI Bold';letter-spacing:0px;word-spacing:0px;fill:#ffffff;fill-opacity:1;stroke:none;stroke-width:0.26458332"
       id="text915"
       transform="translate(-8.4479276,-0.44027666)">
      <path
         d="m 17.923109,200.42706 h -0.422025 v -2.47013 h 0.422025 z"
         style="font-style:normal;font-variant:normal;font-weight:bold;font-stretch:normal;font-size:3.52777767px;font-family:'Yu Gothic UI';-inkscape-font-specification:'Yu Gothic UI Bold';stroke-width:0.26458332"
         id="path941"
         inkscape:connector-curvature="0" />
      <path
         d="m 20.624063,200.42706 h -0.447862 l -1.179945,-1.81556 q -0.04479,-0.0689 -0.07407,-0.14297 h -0.01034 q 0.01378,0.0792 0.01378,0.33934 v 1.61919 H 18.52944 v -2.47013 h 0.477146 l 1.140327,1.7725 q 0.07235,0.11024 0.09302,0.15159 h 0.0069 q -0.01722,-0.0982 -0.01722,-0.33246 v -1.59163 h 0.394463 z"
         style="font-style:normal;font-variant:normal;font-weight:bold;font-stretch:normal;font-size:3.52777767px;font-family:'Yu Gothic UI';-inkscape-font-specification:'Yu Gothic UI Bold';stroke-width:0.26458332"
         id="path943"
         inkscape:connector-curvature="0" />
      <path
         d="m 23.173434,197.95693 -0.887112,2.47013 h -0.458198 l -0.871609,-2.47013 h 0.447862 l 0.609782,1.87413 q 0.02928,0.0896 0.04479,0.20843 h 0.0069 q 0.01206,-0.0982 0.04995,-0.21187 l 0.623562,-1.87069 z"
         style="font-style:normal;font-variant:normal;font-weight:bold;font-stretch:normal;font-size:3.52777767px;font-family:'Yu Gothic UI';-inkscape-font-specification:'Yu Gothic UI Bold';stroke-width:0.26458332"
         id="path945"
         inkscape:connector-curvature="0" />
    </g>
    <g
       aria-label="A"
       style="font-style:normal;font-variant:normal;font-weight:normal;font-stretch:normal;font-size:2.82222223px;line-height:1.25;font-family:'Yu Gothic UI';-inkscape-font-specification:'Yu Gothic UI';letter-spacing:0px;word-spacing:0px;fill:#ffffff;fill-opacity:1;stroke:none;stroke-width:0.26458332"
       id="text950"
       transform="translate(-17.050742,-0.92768727)">
      <path
         d="M 19.515777,204.6604 H 19.259462 L 19.05,204.10643 h -0.837847 l -0.19706,0.55397 H 17.7574 l 0.757921,-1.97611 H 18.7551 Z m -0.541569,-0.76205 -0.310059,-0.84199 q -0.01516,-0.0413 -0.03032,-0.13229 h -0.0055 q -0.01378,0.0841 -0.03169,0.13229 l -0.307302,0.84199 z"
         style="stroke-width:0.26458332"
         id="path956"
         inkscape:connector-curvature="0" />
    </g>
    <rect
       transform="scale(1,-1)"
       y="-222.77489"
       x="2.6458335"
       height="10.970798"
       width="10.583333"
       id="rect1094"
       style="fill:#4d4d4d;stroke-width:0.10844636" />
    <g
       aria-label="B"
       style="font-style:normal;font-variant:normal;font-weight:normal;font-stretch:normal;font-size:2.82222223px;line-height:1.25;font-family:'Yu Gothic UI';-inkscape-font-specification:'Yu Gothic UI';letter-spacing:0px;word-spacing:0px;fill:#ffffff;fill-opacity:1;stroke:none;stroke-width:0.26458332"
       id="text968"
       transform="translate(-6.3500003)">
      <path
         d="m 7.3319491,225.95697 v -1.97611 h 0.5622396 q 0.2563151,0 0.4065212,0.1254 0.1502062,0.12541 0.1502062,0.3266 0,0.16812 -0.09095,0.29214 -0.090951,0.12403 -0.250803,0.17639 v 0.006 q 0.1998155,0.0234 0.3197049,0.15158 0.1198893,0.12678 0.1198893,0.33073 0,0.25356 -0.181901,0.41065 -0.1819011,0.1571 -0.4588868,0.1571 z m 0.2315104,-1.76664 v 0.63803 h 0.2370226 q 0.1901692,0 0.2990342,-0.0909 0.1088651,-0.0923 0.1088651,-0.25907 0,-0.28801 -0.3789605,-0.28801 z m 0,0.84611 v 0.71107 h 0.3141927 q 0.2039496,0 0.3155707,-0.0965 0.1129992,-0.0965 0.1129992,-0.26459 0,-0.35002 -0.4768012,-0.35002 z"
         style="stroke-width:0.26458332"
         id="path979"
         inkscape:connector-curvature="0" />
    </g>
    <rect
       style="fill:#4d4d4d;stroke-width:0.10844636"
       id="rect1092"
       width="10.583333"
       height="10.970798"
       x="2.6458335"
       y="-244.99959"
       transform="scale(1,-1)" />
    <g
       aria-label="C"
       style="font-style:normal;font-variant:normal;font-weight:normal;font-stretch:normal;font-size:2.82222223px;line-height:1.25;font-family:'Yu Gothic UI';-inkscape-font-specification:'Yu Gothic UI';letter-spacing:0px;word-spacing:0px;fill:#ffffff;fill-opacity:1;stroke:none;stroke-width:0.26458332"
       id="text984"
       transform="translate(-8.5434437,0.09449408)">
      <path
         d="m 10.864453,247.96938 q -0.219108,0.11576 -0.545703,0.11576 -0.4216794,0 -0.6752384,-0.27148 -0.253559,-0.27147 -0.253559,-0.71244 0,-0.47405 0.2852539,-0.76619 0.2852539,-0.29215 0.7234705,-0.29215 0.281119,0 0.465776,0.0813 v 0.24667 q -0.212217,-0.11851 -0.468533,-0.11851 -0.340375,0 -0.5525929,0.22737 -0.2108398,0.22738 -0.2108398,0.60772 0,0.36104 0.1970595,0.57602 0.1984372,0.21359 0.5195202,0.21359 0.297656,0 0.515386,-0.13229 z"
         style="stroke-width:0.26458332"
         id="path990"
         inkscape:connector-curvature="0" />
    </g>
    <rect
       transform="scale(1,-1)"
       y="-267.22461"
       x="2.6458335"
       height="10.970798"
       width="10.583333"
       id="rect1090"
       style="fill:#4d4d4d;stroke-width:0.10844636" />
    <g
       aria-label="D"
       style="font-style:normal;font-variant:normal;font-weight:normal;font-stretch:normal;font-size:2.82222223px;line-height:1.25;font-family:'Yu Gothic UI';-inkscape-font-specification:'Yu Gothic UI';letter-spacing:0px;word-spacing:0px;fill:#ffffff;fill-opacity:1;stroke:none;stroke-width:0.26458332"
       id="text1000"
       transform="translate(-10.842251,-0.66280147)">
      <path
         d="m 11.636154,271.07083 v -1.97611 h 0.545703 q 1.044553,0 1.044553,0.96325 0,0.45751 -0.290766,0.73588 -0.289388,0.27698 -0.775835,0.27698 z m 0.23151,-1.76664 v 1.55718 h 0.294901 q 0.388606,0 0.604958,-0.20808 0.216352,-0.20809 0.216352,-0.5898 0,-0.7593 -0.80753,-0.7593 z"
         style="stroke-width:0.26458332"
         id="path1006"
         inkscape:connector-curvature="0" />
    </g>
    <path
       style="fill:none;stroke:#ffffff;stroke-width:0.3ffffff1;stroke-linecap:butt;stroke-linejoin:miter;stroke-miterlimit:4;stroke-dasharray:none;stroke-opacity:1"
       d="M 1.3229166,223.18237 H 14.552083"
       id="path1096"
       inkscape:connector-curvature="0" />
    <path
       inkscape:connector-curvature="0"
       id="path1098"
       d="M 1.3229166,245.40751 H 14.552083"
       style="fill:none;stroke:#ffffff;stroke-width:0.3ffffff1;stroke-linecap:butt;stroke-linejoin:miter;stroke-miterlimit:4;stroke-dasharray:none;stroke-opacity:1" />
    <path
       style="fill:none;stroke:#ffffff;stroke-width:0.3ffffff1;stroke-linecap:butt;stroke-linejoin:miter;stroke-miterlimit:4;stroke-dasharray:none;stroke-opacity:1"
       d="M 1.3229166,267.63265 H 14.552083"
       id="path1100"
       inkscape:connector-curvature="0" />
    <g
       aria-label="IN"
       style="font-style:normal;font-variant:normal;font-weight:normal;font-stretch:normal;font-size:2.82222223px;line-height:1.25;font-family:'Yu Gothic UI';-inkscape-font-specification:'Yu Gothic UI';letter-spacing:0px;word-spacing:0px;fill:#ffffff;fill-opacity:1;stroke:none;stroke-width:0.26458332"
       id="text1104"
       transform="translate(-0.11693045,0.64609712)">
      <path
         d="M 7.1051646,203.07291 H 6.8736542 v -1.97611 h 0.2315104 z"
         style="stroke-width:0.26458332"
         id="path1110"
         inkscape:connector-curvature="0" />
      <path
         d="M 9.2163192,203.07291 H 8.9324433 l -1.0169922,-1.5751 q -0.038585,-0.0593 -0.06339,-0.12402 h -0.00827 q 0.011024,0.0634 0.011024,0.27147 v 1.42765 H 7.623307 v -1.97611 h 0.3004123 l 0.9894315,1.55029 q 0.062012,0.0965 0.079926,0.13229 h 0.00551 q -0.01378,-0.0854 -0.01378,-0.29076 v -1.39182 h 0.2315105 z"
         style="stroke-width:0.26458332"
         id="path1112"
         inkscape:connector-curvature="0" />
    </g>
    <g
       aria-label="OUT"
       style="font-style:normal;font-variant:normal;font-weight:normal;font-stretch:normal;font-size:2.82222223px;line-height:1.25;font-family:'Yu Gothic UI';-inkscape-font-specification:'Yu Gothic UI';letter-spacing:0px;word-spacing:0px;fill:#ffffff;fill-opacity:1;stroke:none;stroke-width:0.26458332"
       id="text1108"
       transform="matrix(1,0,0,-1,-1.4872745,426.47821)">
      <path
         d="m 7.6701603,213.68931 q -0.4203017,0 -0.6738607,-0.27699 -0.252181,-0.27698 -0.252181,-0.72071 0,-0.4768 0.2576931,-0.76068 0.2576932,-0.28387 0.7014215,-0.28387 0.4092773,0 0.6587023,0.2756 0.2508029,0.27561 0.2508029,0.72072 0,0.48369 -0.2563151,0.76481 -0.2563151,0.28112 -0.686263,0.28112 z m 0.016536,-1.83279 q -0.3114366,0 -0.50574,0.22462 -0.1943034,0.22462 -0.1943034,0.5898 0,0.36518 0.1887913,0.58842 0.1901692,0.22186 0.4947157,0.22186 0.325217,0 0.5126302,-0.21221 0.1874132,-0.21222 0.1874132,-0.59394 0,-0.39136 -0.1819011,-0.60496 -0.181901,-0.21359 -0.5016059,-0.21359 z"
         style="stroke-width:0.26458332"
         id="path1115"
         inkscape:connector-curvature="0" />
      <path
         d="m 10.446907,212.85697 q 0,0.83234 -0.7510305,0.83234 -0.719336,0 -0.719336,-0.80064 v -1.20854 H 9.208051 v 1.19338 q 0,0.60771 0.5126302,0.60771 0.4947158,0 0.4947158,-0.58704 v -1.21405 h 0.23151 z"
         style="stroke-width:0.26458332"
         id="path1117"
         inkscape:connector-curvature="0" />
      <path
         d="m 12.110199,211.88959 h -0.570507 v 1.76664 h -0.231511 v -1.76664 h -0.56913 v -0.20946 h 1.371148 z"
         style="stroke-width:0.26458332"
         id="path1119"
         inkscape:connector-curvature="0" />
    </g>
    <g
       transform="translate(-0.11693045,22.871106)"
       id="g1126"
       style="font-style:normal;font-variant:normal;font-weight:normal;font-stretch:normal;font-size:2.82222223px;line-height:1.25;font-family:'Yu Gothic UI';-inkscape-font-specification:'Yu Gothic UI';letter-spacing:0px;word-spacing:0px;fill:#ffffff;fill-opacity:1;stroke:none;stroke-width:0.26458332"
       aria-label="IN">
      <path
         inkscape:connector-curvature="0"
         id="path1122"
         style="stroke-width:0.26458332"
         d="M 7.1051646,203.07291 H 6.8736542 v -1.97611 h 0.2315104 z" />
      <path
         inkscape:connector-curvature="0"
         id="path1124"
         style="stroke-width:0.26458332"
         d="M 9.2163192,203.07291 H 8.9324433 l -1.0169922,-1.5751 q -0.038585,-0.0593 -0.06339,-0.12402 h -0.00827 q 0.011024,0.0634 0.011024,0.27147 v 1.42765 H 7.623307 v -1.97611 h 0.3004123 l 0.9894315,1.55029 q 0.062012,0.0965 0.079926,0.13229 h 0.00551 q -0.01378,-0.0854 -0.01378,-0.29076 v -1.39182 h 0.2315105 z" />
    </g>
    <g
       transform="matrix(1,0,0,-1,-1.4872745,448.70335)"
       id="g1134"
       style="font-style:normal;font-variant:normal;font-weight:normal;font-stretch:normal;font-size:2.82222223px;line-height:1.25;font-family:'Yu Gothic UI';-inkscape-font-specification:'Yu Gothic UI';letter-spacing:0px;word-spacing:0px;fill:#ffffff;fill-opacity:1;stroke:none;stroke-width:0.26458332"
       aria-label="OUT">
      <path
         inkscape:connector-curvature="0"
         id="path1128"
         style="stroke-width:0.26458332"
         d="m 7.6701603,213.68931 q -0.4203017,0 -0.6738607,-0.27699 -0.252181,-0.27698 -0.252181,-0.72071 0,-0.4768 0.2576931,-0.76068 0.2576932,-0.28387 0.7014215,-0.28387 0.4092773,0 0.6587023,0.2756 0.2508029,0.27561 0.2508029,0.72072 0,0.48369 -0.2563151,0.76481 -0.2563151,0.28112 -0.686263,0.28112 z m 0.016536,-1.83279 q -0.3114366,0 -0.50574,0.22462 -0.1943034,0.22462 -0.1943034,0.5898 0,0.36518 0.1887913,0.58842 0.1901692,0.22186 0.4947157,0.22186 0.325217,0 0.5126302,-0.21221 0.1874132,-0.21222 0.1874132,-0.59394 0,-0.39136 -0.1819011,-0.60496 -0.181901,-0.21359 -0.5016059,-0.21359 z" />
      <path
         inkscape:connector-curvature="0"
         id="path1130"
         style="stroke-width:0.26458332"
         d="m 10.446907,212.85697 q 0,0.83234 -0.7510305,0.83234 -0.719336,0 -0.719336,-0.80064 v -1.20854 H 9.208051 v 1.19338 q 0,0.60771 0.5126302,0.60771 0.4947158,0 0.4947158,-0.58704 v -1.21405 h 0.23151 z" />
      <path
         inkscape:connector-curvature="0"
         id="path1132"
         style="stroke-width:0.26458332"
         d="m 12.110199,211.88959 h -0.570507 v 1.76664 h -0.231511 v -1.76664 h -0.56913 v -0.20946 h 1.371148 z" />
    </g>
    <g
       aria-label="IN"
       style="font-style:normal;font-variant:normal;font-weight:normal;font-stretch:normal;font-size:2.82222223px;line-height:1.25;font-family:'Yu Gothic UI';-inkscape-font-specification:'Yu Gothic UI';letter-spacing:0px;word-spacing:0px;fill:#ffffff;fill-opacity:1;stroke:none;stroke-width:0.26458332"
       id="g1140"
       transform="translate(-0.11693045,45.09612)">
      <path
         d="M 7.1051646,203.07291 H 6.8736542 v -1.97611 h 0.2315104 z"
         style="stroke-width:0.26458332"
         id="path1136"
         inkscape:connector-curvature="0" />
      <path
         d="M 9.2163192,203.07291 H 8.9324433 l -1.0169922,-1.5751 q -0.038585,-0.0593 -0.06339,-0.12402 h -0.00827 q 0.011024,0.0634 0.011024,0.27147 v 1.42765 H 7.623307 v -1.97611 h 0.3004123 l 0.9894315,1.55029 q 0.062012,0.0965 0.079926,0.13229 h 0.00551 q -0.01378,-0.0854 -0.01378,-0.29076 v -1.39182 h 0.2315105 z"
         style="stroke-width:0.26458332"
         id="path1138"
         inkscape:connector-curvature="0" />
    </g>
    <g
       aria-label="OUT"
       style="font-style:normal;font-variant:normal;font-weight:normal;font-stretch:normal;font-size:2.82222223px;line-height:1.25;font-family:'Yu Gothic UI';-inkscape-font-specification:'Yu Gothic UI';letter-spacing:0px;word-spacing:0px;fill:#ffffff;fill-opacity:1;stroke:none;stroke-width:0.26458332"
       id="g1148"
       transform="matrix(1,0,0,-1,-1.4872745,470.92849)">
      <path
         d="m 7.6701603,213.68931 q -0.4203017,0 -0.6738607,-0.27699 -0.252181,-0.27698 -0.252181,-0.72071 0,-0.4768 0.2576931,-0.76068 0.2576932,-0.28387 0.7014215,-0.28387 0.4092773,0 0.6587023,0.2756 0.2508029,0.27561 0.2508029,0.72072 0,0.48369 -0.2563151,0.76481 -0.2563151,0.28112 -0.686263,0.28112 z m 0.016536,-1.83279 q -0.3114366,0 -0.50574,0.22462 -0.1943034,0.22462 -0.1943034,0.5898 0,0.36518 0.1887913,0.58842 0.1901692,0.22186 0.4947157,0.22186 0.325217,0 0.5126302,-0.21221 0.1874132,-0.21222 0.1874132,-0.59394 0,-0.39136 -0.1819011,-0.60496 -0.181901,-0.21359 -0.5016059,-0.21359 z"
         style="stroke-width:0.26458332"
         id="path1142"
         inkscape:connector-curvature="0" />
      <path
         d="m 10.446907,212.85697 q 0,0.83234 -0.7510305,0.83234 -0.719336,0 -0.719336,-0.80064 v -1.20854 H 9.208051 v 1.19338 q 0,0.60771 0.5126302,0.60771 0.4947158,0 0.4947158,-0.58704 v -1.21405 h 0.23151 z"
         style="stroke-width:0.26458332"
         id="path1144"
         inkscape:connector-curvature="0" />
      <path
         d="m 12.110199,211.88959 h -0.570507 v 1.76664 h -0.231511 v -1.76664 h -0.56913 v -0.20946 h 1.371148 z"
         style="stroke-width:0.26458332"
         id="path1146"
         inkscape:connector-curvature="0" />
    </g>
    <g
       transform="translate(-0.11693045,67.321134)"
       id="g1154"
       style="font-style:normal;font-variant:normal;font-weight:normal;font-stretch:normal;font-size:2.82222223px;line-height:1.25;font-family:'Yu Gothic UI';-inkscape-font-specification:'Yu Gothic UI';letter-spacing:0px;word-spacing:0px;fill:#ffffff;fill-opacity:1;stroke:none;stroke-width:0.26458332"
       aria-label="IN">
      <path
         inkscape:connector-curvature="0"
         id="path1150"
         style="stroke-width:0.26458332"
         d="M 7.1051646,203.07291 H 6.8736542 v -1.97611 h 0.2315104 z" />
      <path
         inkscape:connector-curvature="0"
         id="path1152"
         style="stroke-width:0.26458332"
         d="M 9.2163192,203.07291 H 8.9324433 l -1.0169922,-1.5751 q -0.038585,-0.0593 -0.06339,-0.12402 h -0.00827 q 0.011024,0.0634 0.011024,0.27147 v 1.42765 H 7.623307 v -1.97611 h 0.3004123 l 0.9894315,1.55029 q 0.062012,0.0965 0.079926,0.13229 h 0.00551 q -0.01378,-0.0854 -0.01378,-0.29076 v -1.39182 h 0.2315105 z" />
    </g>
    <g
       transform="matrix(1,0,0,-1,-1.4872745,493.15363)"
       id="g1162"
       style="font-style:normal;font-variant:normal;font-weight:normal;font-stretch:normal;font-size:2.82222223px;line-height:1.25;font-family:'Yu Gothic UI';-inkscape-font-specification:'Yu Gothic UI';letter-spacing:0px;word-spacing:0px;fill:#ffffff;fill-opacity:1;stroke:none;stroke-width:0.26458332"
       aria-label="OUT">
      <path
         inkscape:connector-curvature="0"
         id="path1156"
         style="stroke-width:0.26458332"
         d="m 7.6701603,213.68931 q -0.4203017,0 -0.6738607,-0.27699 -0.252181,-0.27698 -0.252181,-0.72071 0,-0.4768 0.2576931,-0.76068 0.2576932,-0.28387 0.7014215,-0.28387 0.4092773,0 0.6587023,0.2756 0.2508029,0.27561 0.2508029,0.72072 0,0.48369 -0.2563151,0.76481 -0.2563151,0.28112 -0.686263,0.28112 z m 0.016536,-1.83279 q -0.3114366,0 -0.50574,0.22462 -0.1943034,0.22462 -0.1943034,0.5898 0,0.36518 0.1887913,0.58842 0.1901692,0.22186 0.4947157,0.22186 0.325217,0 0.5126302,-0.21221 0.1874132,-0.21222 0.1874132,-0.59394 0,-0.39136 -0.1819011,-0.60496 -0.181901,-0.21359 -0.5016059,-0.21359 z" />
      <path
         inkscape:connector-curvature="0"
         id="path1158"
         style="stroke-width:0.26458332"
         d="m 10.446907,212.85697 q 0,0.83234 -0.7510305,0.83234 -0.719336,0 -0.719336,-0.80064 v -1.20854 H 9.208051 v 1.19338 q 0,0.60771 0.5126302,0.60771 0.4947158,0 0.4947158,-0.58704 v -1.21405 h 0.23151 z" />
      <path
         inkscape:connector-curvature="0"
         id="path1160"
         style="stroke-width:0.26458332"
         d="m 12.110199,211.88959 h -0.570507 v 1.76664 h -0.231511 v -1.76664 h -0.56913 v -0.20946 h 1.371148 z" />
    </g>
  </g>
  <g
     inkscape:groupmode="layer"
     id="layer2"
     inkscape:label="Grid8"
     style="display:none"
     sodipodi:insensitive="true">
    <g
       id="g1088">
      <path
         style="fill:none;stroke:#ffffff;stroke-width:0.05;stroke-linecap:butt;stroke-linejoin:miter;stroke-miterlimit:4;stroke-dasharray:none;stroke-opacity:1"
         d="M 7.9375,-6.666791e-6 7.937497,100.54166"
         id="path881"
         inkscape:connector-curvature="0"
         sodipodi:nodetypes="cc" />
      <path
         sodipodi:nodetypes="cc"
         inkscape:connector-curvature="0"
         id="path890"
         d="M 3.968752,3.333209e-6 3.968748,100.54167"
         style="fill:none;stroke:#ffffff;stroke-width:0.05;stroke-linecap:butt;stroke-linejoin:miter;stroke-miterlimit:4;stroke-dasharray:none;stroke-opacity:1" />
      <path
         style="fill:none;stroke:#ffffff;stroke-width:0.05;stroke-linecap:butt;stroke-linejoin:miter;stroke-miterlimit:4;stroke-dasharray:none;stroke-opacity:1"
         d="M 11.906253,3.333209e-6 11.906249,100.54167"
         id="path895"
         inkscape:connector-curvature="0"
         sodipodi:nodetypes="cc" />
      <path
         sodipodi:nodetypes="cc"
         inkscape:connector-curvature="0"
         id="path905"
         d="m 0,11.386483 15.875,-0.0094"
         style="fill:none;stroke:#ffffff;stroke-width:0.05;stroke-linecap:butt;stroke-linejoin:miter;stroke-miterlimit:4;stroke-dasharray:none;stroke-opacity:1" />
      <path
         sodipodi:nodetypes="cc"
         style="fill:none;stroke:#ffffff;stroke-width:0.05;stroke-linecap:butt;stroke-linejoin:miter;stroke-miterlimit:4;stroke-dasharray:none;stroke-opacity:1"
         d="m 0,22.499053 15.875,-0.0095"
         id="path907"
         inkscape:connector-curvature="0" />
      <path
         sodipodi:nodetypes="cc"
         inkscape:connector-curvature="0"
         id="path911"
         d="m 0,33.611623 15.875,-0.0095"
         style="fill:none;stroke:#ffffff;stroke-width:0.05;stroke-linecap:butt;stroke-linejoin:miter;stroke-miterlimit:4;stroke-dasharray:none;stroke-opacity:1" />
      <path
         sodipodi:nodetypes="cc"
         style="fill:none;stroke:#ffffff;stroke-width:0.05;stroke-linecap:butt;stroke-linejoin:miter;stroke-miterlimit:4;stroke-dasharray:none;stroke-opacity:1"
         d="m 0,44.724193 15.875,-0.0096"
         id="path917"
         inkscape:connector-curvature="0" />
      <path
         sodipodi:nodetypes="cc"
         inkscape:connector-curvature="0"
         id="path925"
         d="m 0,55.836763 15.875,-0.0097"
         style="fill:none;stroke:#ffffff;stroke-width:0.05;stroke-linecap:butt;stroke-linejoin:miter;stroke-miterlimit:4;stroke-dasharray:none;stroke-opacity:1" />
      <path
         sodipodi:nodetypes="cc"
         style="fill:none;stroke:#ffffff;stroke-width:0.05;stroke-linecap:butt;stroke-linejoin:miter;stroke-miterlimit:4;stroke-dasharray:none;stroke-opacity:1"
         d="m 0,66.949333 15.875,-0.0097"
         id="path935"
         inkscape:connector-curvature="0" />
      <path
         sodipodi:nodetypes="cc"
         inkscape:connector-curvature="0"
         id="path947"
         d="m 0,78.061903 15.875,-0.0098"
         style="fill:none;stroke:#ffffff;stroke-width:0.05;stroke-linecap:butt;stroke-linejoin:miter;stroke-miterlimit:4;stroke-dasharray:none;stroke-opacity:1" />
      <circle
         r="4.0999999"
         cy="22.489223"
         cx="7.9347644"
         id="path1041"
         style="display:inline;opacity:1;fill:none;fill-opacity:1;stroke:#ffffff;stroke-width:0.05;stroke-linecap:square;stroke-linejoin:round;stroke-miterlimit:4;stroke-dasharray:none;stroke-dashoffset:0;stroke-opacity:1;paint-order:markers fill stroke" />
      <circle
         style="display:inline;opacity:1;fill:none;fill-opacity:1;stroke:#ffffff;stroke-width:0.05;stroke-linecap:square;stroke-linejoin:round;stroke-miterlimit:4;stroke-dasharray:none;stroke-dashoffset:0;stroke-opacity:1;paint-order:markers fill stroke"
         id="circle1054"
         cx="7.9347644"
         cy="44.720119"
         r="4.0999999" />
      <circle
         r="4.0999999"
         cy="33.60759"
         cx="7.9347644"
         id="circle1056"
         style="display:inline;opacity:1;fill:none;fill-opacity:1;stroke:#ffffff;stroke-width:0.05;stroke-linecap:square;stroke-linejoin:round;stroke-miterlimit:4;stroke-dasharray:none;stroke-dashoffset:0;stroke-opacity:1;paint-order:markers fill stroke" />
      <circle
         style="display:inline;opacity:1;fill:none;fill-opacity:1;stroke:#ffffff;stroke-width:0.05;stroke-linecap:square;stroke-linejoin:round;stroke-miterlimit:4;stroke-dasharray:none;stroke-dashoffset:0;stroke-opacity:1;paint-order:markers fill stroke"
         id="circle1058"
         cx="7.9347644"
         cy="66.939285"
         r="4.0999999" />
      <circle
         r="4.0999999"
         cy="55.83263"
         cx="7.9347644"
         id="circle1060"
         style="display:inline;opacity:1;fill:none;fill-opacity:1;stroke:#ffffff;stroke-width:0.05;stroke-linecap:square;stroke-linejoin:round;stroke-miterlimit:4;stroke-dasharray:none;stroke-dashoffset:0;stroke-opacity:1;paint-order:markers fill stroke" />
      <circle
         style="display:inline;opacity:1;fill:none;fill-opacity:1;stroke:#ffffff;stroke-width:0.05;stroke-linecap:square;stroke-linejoin:round;stroke-miterlimit:4;stroke-dasharray:none;stroke-dashoffset:0;stroke-opacity:1;paint-order:markers fill stroke"
         id="circle1064"
         cx="7.9347644"
         cy="78.05764"
         r="4.0999999" />
      <circle
         style="display:inline;opacity:1;fill:none;fill-opacity:1;stroke:#ffffff;stroke-width:0.05;stroke-linecap:square;stroke-linejoin:round;stroke-miterlimit:4;stroke-dasharray:none;stroke-dashoffset:0;stroke-opacity:1;paint-order:markers fill stroke"
         id="circle1052"
         cx="7.9347644"
         cy="11.382563"
         r="4.0999999" />
      <circle
         r="5.4741378"
         cy="11.377258"
         cx="7.9360795"
         id="circle924"
         style="display:inline;opacity:1;fill:none;fill-opacity:1;stroke:#ffffff;stroke-width:0.05172414;stroke-linecap:square;stroke-linejoin:round;stroke-miterlimit:4;stroke-dasharray:none;stroke-dashoffset:0;stroke-opacity:1;paint-order:markers fill stroke" />
      <circle
         style="display:inline;opacity:1;fill:none;fill-opacity:1;stroke:#ffffff;stroke-width:0.05172414;stroke-linecap:square;stroke-linejoin:round;stroke-miterlimit:4;stroke-dasharray:none;stroke-dashoffset:0;stroke-opacity:1;paint-order:markers fill stroke"
         id="circle955"
         cx="7.9360795"
         cy="22.490795"
         r="5.4741378" />
      <circle
         r="5.4741378"
         cy="33.603306"
         cx="7.9360795"
         id="circle957"
         style="display:inline;opacity:1;fill:none;fill-opacity:1;stroke:#ffffff;stroke-width:0.05172414;stroke-linecap:square;stroke-linejoin:round;stroke-miterlimit:4;stroke-dasharray:none;stroke-dashoffset:0;stroke-opacity:1;paint-order:markers fill stroke" />
      <circle
         style="display:inline;opacity:1;fill:none;fill-opacity:1;stroke:#ffffff;stroke-width:0.05172414;stroke-linecap:square;stroke-linejoin:round;stroke-miterlimit:4;stroke-dasharray:none;stroke-dashoffset:0;stroke-opacity:1;paint-order:markers fill stroke"
         id="circle959"
         cx="7.9360795"
         cy="44.715816"
         r="5.4741378" />
      <circle
         r="5.4741378"
         cy="55.828327"
         cx="7.9360795"
         id="circle961"
         style="display:inline;opacity:1;fill:none;fill-opacity:1;stroke:#ffffff;stroke-width:0.05172414;stroke-linecap:square;stroke-linejoin:round;stroke-miterlimit:4;stroke-dasharray:none;stroke-dashoffset:0;stroke-opacity:1;paint-order:markers fill stroke" />
      <circle
         style="display:inline;opacity:1;fill:none;fill-opacity:1;stroke:#ffffff;stroke-width:0.05172414;stroke-linecap:square;stroke-linejoin:round;stroke-miterlimit:4;stroke-dasharray:none;stroke-dashoffset:0;stroke-opacity:1;paint-order:markers fill stroke"
         id="circle963"
         cx="7.9360795"
         cy="66.940834"
         r="5.4741378" />
      <circle
         r="5.4741378"
         cy="78.053345"
         cx="7.9360795"
         id="circle965"
         style="display:inline;opacity:1;fill:none;fill-opacity:1;stroke:#ffffff;stroke-width:0.05172414;stroke-linecap:square;stroke-linejoin:round;stroke-miterlimit:4;stroke-dasharray:none;stroke-dashoffset:0;stroke-opacity:1;paint-order:markers fill stroke" />
      <path
         style="fill:none;stroke:#ffffff;stroke-width:0.05;stroke-linecap:butt;stroke-linejoin:miter;stroke-miterlimit:4;stroke-dasharray:none;stroke-opacity:1"
         d="m 0,89.17441 15.875,-0.0098"
         id="path1055"
         inkscape:connector-curvature="0"
         sodipodi:nodetypes="cc" />
      <circle
         r="4.0999999"
         cy="89.170151"
         cx="7.9347644"
         id="circle1057"
         style="display:inline;opacity:1;fill:none;fill-opacity:1;stroke:#ffffff;stroke-width:0.05;stroke-linecap:square;stroke-linejoin:round;stroke-miterlimit:4;stroke-dasharray:none;stroke-dashoffset:0;stroke-opacity:1;paint-order:markers fill stroke" />
      <circle
         style="display:inline;opacity:1;fill:none;fill-opacity:1;stroke:#ffffff;stroke-width:0.05172414;stroke-linecap:square;stroke-linejoin:round;stroke-miterlimit:4;stroke-dasharray:none;stroke-dashoffset:0;stroke-opacity:1;paint-order:markers fill stroke"
         id="circle1059"
         cx="7.9360795"
         cy="89.165855"
         r="5.4741378" />
    </g>
  </g>
</svg>
